<?xml version="1.0" encoding="utf-8"?>
<svg viewBox="84.673 105.799 121.485 85.04" xmlns="http://www.w3.org/2000/svg">
  <title>YouTube Logo</title>
  <path d="M 133.267 166.542 L 133.267 130.096 L 164.829 148.319 L 133.267 166.542 Z M 203.62 119.078 C 202.222 113.852 198.106 109.735 192.879 108.338 C 183.405 105.799 145.415 105.799 145.415 105.799 C 145.415 105.799 107.426 105.799 97.952 108.338 C 92.725 109.735 88.609 113.852 87.212 119.078 C 84.673 128.552 84.673 148.319 84.673 148.319 C 84.673 148.319 84.673 168.086 87.212 177.56 C 88.609 182.786 92.725 186.903 97.952 188.3 C 107.426 190.839 145.415 190.839 145.415 190.839 C 145.415 190.839 183.405 190.839 192.879 188.3 C 198.106 186.903 202.222 182.786 203.62 177.56 C 206.158 168.086 206.158 148.319 206.158 148.319 C 206.158 148.319 206.158 128.552 203.62 119.078" style="fill: currentColor; fill-opacity: 1;"/>
</svg>
