<?xml version="1.0" standalone="no"?>
<!DOCTYPE svg PUBLIC "-//W3C//DTD SVG 20010904//EN"
 "http://www.w3.org/TR/2001/REC-SVG-20010904/DTD/svg10.dtd">
<svg version="1.0" xmlns="http://www.w3.org/2000/svg"
 width="700.000000pt" height="700.000000pt" viewBox="0 0 700.000000 700.000000"
 preserveAspectRatio="xMidYMid meet">
   <style>
    path { fill: black; }
    @media (prefers-color-scheme: dark) {
      path { fill: white; }
    }
  </style>
<metadata>
Created by potrace 1.14, written by Peter Selinger 2001-2017
</metadata>
<g transform="translate(0.000000,700.000000) scale(0.100000,-0.100000)"
fill="#000000" stroke="none">
<path d="M4078 6995 c-2 -1 -59 -5 -128 -9 -69 -4 -145 -8 -170 -11 -25 -2
-81 -6 -125 -10 -44 -3 -99 -8 -122 -10 -79 -9 -138 -16 -163 -20 -14 -2 -47
-6 -75 -10 -136 -18 -161 -22 -280 -46 -55 -11 -110 -22 -121 -25 -53 -10
-204 -54 -259 -74 -186 -70 -933 -529 -1310 -805 -491 -360 -775 -752 -909
-1255 -28 -107 -31 -121 -51 -240 -36 -218 -44 -333 -44 -600 0 -200 10 -415
24 -525 2 -16 7 -60 10 -97 3 -37 8 -77 10 -90 2 -13 6 -45 10 -73 21 -164 80
-396 161 -635 32 -92 121 -334 139 -375 8 -16 38 -89 69 -161 143 -341 255
-544 381 -693 31 -37 157 -157 190 -183 17 -12 32 -25 35 -29 10 -12 107 -75
155 -100 99 -52 179 -66 231 -41 42 19 57 55 49 118 -10 84 -25 132 -158 504
-124 347 -130 364 -172 505 -58 193 -102 367 -119 475 -3 19 -8 46 -11 60 -3
14 -8 48 -11 75 -4 28 -8 53 -10 56 -14 25 -22 361 -11 499 6 80 10 110 22
170 3 14 8 39 10 55 3 17 14 68 25 115 10 47 21 96 24 110 41 221 169 684 239
860 111 282 274 536 474 737 59 59 90 81 175 122 104 50 215 82 343 100 69 9
426 8 475 -2 14 -3 50 -8 80 -12 95 -11 295 -54 422 -91 338 -97 524 -252 663
-548 38 -80 108 -274 119 -331 3 -11 12 -48 21 -82 18 -69 22 -91 31 -143 3
-19 8 -38 10 -41 7 -12 61 -358 64 -419 13 -222 -11 -565 -55 -803 -3 -12 -7
-35 -10 -52 -6 -31 -10 -48 -46 -205 -95 -418 -268 -847 -456 -1133 -171 -260
-342 -408 -548 -473 -89 -28 -255 -26 -355 5 -305 93 -509 397 -599 891 -58
320 -39 864 31 878 28 5 52 -83 123 -448 3 -14 8 -41 11 -60 6 -34 33 -175 38
-195 2 -5 6 -28 11 -50 6 -35 27 -122 55 -235 48 -191 154 -335 300 -404 60
-29 73 -31 170 -30 90 0 115 4 175 27 239 94 350 220 578 657 38 74 82 158 96
185 53 98 89 226 107 370 4 28 8 53 10 56 17 29 25 545 11 709 -33 390 -114
687 -237 865 -46 66 -128 128 -186 141 -7 1 -43 9 -80 17 -38 9 -98 21 -134
26 -36 6 -74 13 -85 15 -11 2 -41 7 -67 10 -27 3 -68 9 -93 12 -200 26 -344
25 -395 -1 -73 -37 -188 -139 -305 -269 -39 -43 -154 -187 -204 -256 -22 -30
-44 -59 -48 -65 -39 -47 -145 -258 -205 -409 -39 -97 -143 -403 -152 -449 -3
-12 -27 -110 -55 -217 -27 -107 -53 -222 -56 -255 -4 -33 -9 -73 -11 -90 -5
-39 -5 -275 1 -343 5 -75 15 -163 20 -187 2 -11 7 -42 10 -70 16 -130 89 -426
151 -611 103 -308 261 -614 381 -739 42 -43 149 -139 198 -176 17 -13 32 -26
35 -29 10 -12 127 -98 183 -134 132 -87 313 -157 492 -191 82 -15 218 -35 280
-42 142 -15 564 -7 618 12 7 3 30 7 52 9 51 6 204 41 270 61 238 73 403 172
581 350 179 179 331 360 509 607 104 145 97 135 178 259 115 177 236 381 316
529 34 63 66 122 71 130 20 36 128 256 182 375 287 623 447 1226 407 1535 -4
30 -10 78 -14 105 -3 28 -8 57 -10 65 -3 8 -7 32 -9 54 -3 21 -8 46 -10 55 -3
9 -7 34 -11 56 -17 115 -137 556 -165 607 -6 10 -10 24 -10 31 0 16 -93 249
-145 362 -62 136 -140 285 -192 367 -12 21 -23 40 -23 42 0 10 -188 277 -244
346 -120 148 -334 372 -491 513 -108 96 -310 246 -415 306 -71 41 -205 102
-283 130 -158 56 -271 74 -474 76 -100 1 -184 1 -185 0z"/>
</g>
</svg>
