<?xml version="1.0" encoding="utf-8"?>
<svg viewBox="284.254 114.736 193.519 193.518" xmlns="http://www.w3.org/2000/svg">
  <title>External Link</title>
  <path d="M 437.456 267.938 L 324.571 267.938 L 324.571 155.052 L 381.013 155.052 L 381.013 138.926 L 324.571 138.926 C 315.62 138.926 308.444 146.183 308.444 155.052 L 308.444 267.938 C 308.444 276.808 315.62 284.064 324.571 284.064 L 437.456 284.064 C 446.326 284.064 453.583 276.808 453.583 267.938 L 453.583 211.495 L 437.456 211.495 L 437.456 267.938 Z M 397.14 138.926 L 397.14 155.052 L 426.087 155.052 L 346.825 234.314 L 358.194 245.683 L 437.456 166.421 L 437.456 195.369 L 453.583 195.369 L 453.583 138.926 L 397.14 138.926 Z" color="currentColor"/>
</svg>
