<?xml version="1.0" encoding="utf-8"?>
<svg viewBox="0 0 505 463" xmlns="http://www.w3.org/2000/svg">
  <rect x="-547.261" y="-172.734" width="1708.048" height="994.068" style="pointer-events: none; visibility: hidden;"/>
  <path d="M 498.221 452.839 L 10 452.839 L 83.043 320.333 L 87.372 322.009 L 17.981 447.891 L 490.24 447.891 L 402.182 288.145 C 404.044 288.337 405.843 288.415 407.575 288.398 L 498.221 452.839 Z M 254.111 10 L 336.999 160.367 L 330.528 158.159 L 254.111 19.529 L 165.866 179.614 L 161.388 178.208 L 254.111 10 Z M 477.603 440.494 L 30.619 440.494 L 96.396 321.453 L 98.241 321.118 L 33.142 438.932 L 475.079 438.932 L 390.316 285.532 C 390.965 285.748 391.634 285.959 392.324 286.161 L 477.603 440.494 Z M 254.111 36.029 L 320.745 156.62 L 319.249 156.918 L 254.111 39.034 L 167.395 195.967 L 167.261 193.205 L 254.111 36.029 Z" style="fill: rgb(255, 255, 255); pointer-events: none;">
    <title>Triangle</title>
  </path>
  <path d="M 158.27200256347658 379.7830017089844 Q 153.65200256347657 379.7830017089844 149.99200256347658 377.5930017089844 Q 146.33200256347655 375.4030017089844 144.20200256347655 371.62300170898436 Q 142.07200256347656 367.8430017089844 142.07200256347656 363.1030017089844 Q 142.07200256347656 358.30300170898437 144.26200256347656 354.5230017089844 Q 146.45200256347655 350.74300170898437 150.23200256347656 348.55300170898437 Q 154.01200256347656 346.36300170898437 158.75200256347657 346.36300170898437 Q 163.49200256347655 346.36300170898437 167.24200256347655 348.55300170898437 Q 170.99200256347655 350.74300170898437 173.18200256347654 354.5230017089844 Q 175.37200256347657 358.30300170898437 175.43200256347654 363.1030017089844 L 173.57200256347656 364.5430017089844 Q 173.57200256347656 368.86300170898437 171.56200256347657 372.31300170898436 Q 169.55200256347655 375.76300170898435 166.10200256347656 377.7730017089844 Q 162.65200256347657 379.7830017089844 158.27200256347658 379.7830017089844 Z M 158.75200256347657 375.5830017089844 Q 162.23200256347656 375.5830017089844 164.96200256347657 373.9630017089844 Q 167.69200256347656 372.3430017089844 169.28200256347657 369.49300170898437 Q 170.87200256347657 366.6430017089844 170.87200256347657 363.1030017089844 Q 170.87200256347657 359.50300170898436 169.28200256347657 356.68300170898436 Q 167.69200256347656 353.86300170898437 164.96200256347657 352.2130017089844 Q 162.23200256347656 350.56300170898436 158.75200256347657 350.56300170898436 Q 155.33200256347655 350.56300170898436 152.57200256347656 352.2130017089844 Q 149.81200256347657 353.86300170898437 148.19200256347656 356.68300170898436 Q 146.57200256347656 359.50300170898436 146.57200256347656 363.1030017089844 Q 146.57200256347656 366.6430017089844 148.19200256347656 369.49300170898437 Q 149.81200256347657 372.3430017089844 152.57200256347656 373.9630017089844 Q 155.33200256347655 375.5830017089844 158.75200256347657 375.5830017089844 Z M 173.09200256347657 379.4830017089844 Q 172.07200256347656 379.4830017089844 171.41200256347656 378.8530017089844 Q 170.75200256347657 378.2230017089844 170.75200256347657 377.2030017089844 L 170.75200256347657 366.94300170898435 L 171.89200256347655 362.2030017089844 L 175.43200256347654 363.1030017089844 L 175.43200256347654 377.2030017089844 Q 175.43200256347654 378.2230017089844 174.77200256347658 378.8530017089844 Q 174.11200256347655 379.4830017089844 173.09200256347657 379.4830017089844 Z M 186.34919006347656 359.26300170898435 Q 186.52919006347656 355.5430017089844 188.29919006347657 352.6030017089844 Q 190.06919006347655 349.6630017089844 192.91919006347655 347.9830017089844 Q 195.76919006347657 346.30300170898437 199.24919006347656 346.30300170898437 Q 202.00919006347655 346.30300170898437 203.50919006347655 347.0830017089844 Q 205.00919006347655 347.86300170898437 204.64919006347657 349.36300170898437 Q 204.40919006347656 350.26300170898435 203.83919006347656 350.56300170898436 Q 203.26919006347657 350.86300170898437 202.45919006347657 350.80300170898437 Q 201.64919006347657 350.74300170898437 200.62919006347656 350.68300170898436 Q 197.26919006347657 350.38300170898435 194.65919006347656 351.37300170898436 Q 192.04919006347657 352.36300170898437 190.51919006347657 354.4030017089844 Q 188.98919006347657 356.44300170898435 188.98919006347657 359.26300170898435 Z M 186.70919006347657 379.4830017089844 Q 185.62919006347656 379.4830017089844 185.02919006347656 378.88300170898435 Q 184.42919006347657 378.2830017089844 184.42919006347657 377.2030017089844 L 184.42919006347657 348.94300170898435 Q 184.42919006347657 347.86300170898437 185.02919006347656 347.26300170898435 Q 185.62919006347656 346.6630017089844 186.70919006347657 346.6630017089844 Q 187.78919006347655 346.6630017089844 188.38919006347658 347.26300170898435 Q 188.98919006347657 347.86300170898437 188.98919006347657 348.94300170898435 L 188.98919006347657 377.2030017089844 Q 188.98919006347657 378.2830017089844 188.38919006347658 378.88300170898435 Q 187.78919006347655 379.4830017089844 186.70919006347657 379.4830017089844 Z M 224.14731506347655 379.7830017089844 Q 219.40731506347657 379.7830017089844 215.71731506347658 377.5930017089844 Q 212.02731506347655 375.4030017089844 209.89731506347655 371.62300170898436 Q 207.76731506347656 367.8430017089844 207.76731506347656 363.1030017089844 Q 207.76731506347656 358.30300170898437 209.80731506347655 354.5230017089844 Q 211.84731506347657 350.74300170898437 215.38731506347656 348.55300170898437 Q 218.92731506347656 346.36300170898437 223.54731506347656 346.36300170898437 Q 227.20731506347656 346.36300170898437 230.29731506347656 347.80300170898437 Q 233.38731506347656 349.24300170898437 235.72731506347657 352.12300170898436 Q 236.38731506347656 352.8430017089844 236.20731506347656 353.6530017089844 Q 236.02731506347655 354.4630017089844 235.18731506347655 355.06300170898436 Q 234.52731506347655 355.5430017089844 233.71731506347658 355.3930017089844 Q 232.90731506347657 355.24300170898437 232.30731506347655 354.5230017089844 Q 228.82731506347656 350.56300170898436 223.54731506347656 350.56300170898436 Q 220.18731506347655 350.56300170898436 217.63731506347656 352.18300170898436 Q 215.08731506347655 353.80300170898437 213.67731506347656 356.62300170898436 Q 212.26731506347656 359.44300170898435 212.26731506347656 363.1030017089844 Q 212.26731506347656 366.7030017089844 213.76731506347656 369.5230017089844 Q 215.26731506347656 372.3430017089844 217.96731506347658 373.9630017089844 Q 220.66731506347656 375.5830017089844 224.14731506347655 375.5830017089844 Q 226.48731506347656 375.5830017089844 228.43731506347655 374.9530017089844 Q 230.38731506347656 374.32300170898435 231.88731506347656 373.00300170898436 Q 232.60731506347656 372.4030017089844 233.38731506347656 372.3430017089844 Q 234.16731506347656 372.2830017089844 234.82731506347656 372.82300170898435 Q 235.54731506347656 373.4830017089844 235.63731506347656 374.32300170898435 Q 235.72731506347657 375.1630017089844 235.06731506347657 375.76300170898435 Q 230.68731506347655 379.7830017089844 224.14731506347655 379.7830017089844 Z M 247.55044006347657 366.1030017089844 Q 246.47044006347656 366.1030017089844 245.84044006347656 365.44300170898435 Q 245.21044006347657 364.7830017089844 245.21044006347657 363.76300170898435 L 245.21044006347657 334.9630017089844 Q 245.21044006347657 333.88300170898435 245.84044006347656 333.25300170898436 Q 246.47044006347656 332.62300170898436 247.55044006347657 332.62300170898436 Q 248.57044006347655 332.62300170898436 249.20044006347655 333.25300170898436 Q 249.83044006347657 333.88300170898435 249.83044006347657 334.9630017089844 L 249.83044006347657 363.76300170898435 Q 249.83044006347657 364.7830017089844 249.20044006347655 365.44300170898435 Q 248.57044006347655 366.1030017089844 247.55044006347657 366.1030017089844 Z M 273.3504400634766 379.4830017089844 Q 272.33044006347654 379.4830017089844 271.6704400634766 378.82300170898435 Q 271.01044006347655 378.1630017089844 271.01044006347655 377.2030017089844 L 271.01044006347655 361.6030017089844 Q 271.01044006347655 357.88300170898435 269.6004400634766 355.4830017089844 Q 268.19044006347656 353.0830017089844 265.76044006347655 351.88300170898435 Q 263.33044006347654 350.68300170898436 260.27044006347654 350.68300170898436 Q 257.33044006347654 350.68300170898436 254.96044006347657 351.82300170898435 Q 252.59044006347656 352.9630017089844 251.21044006347657 354.94300170898435 Q 249.83044006347657 356.9230017089844 249.83044006347657 359.44300170898435 L 246.53044006347656 359.44300170898435 Q 246.65044006347657 355.6630017089844 248.57044006347655 352.69300170898435 Q 250.49044006347657 349.7230017089844 253.67044006347658 348.01300170898435 Q 256.8504400634766 346.30300170898437 260.75044006347656 346.30300170898437 Q 265.01044006347655 346.30300170898437 268.37044006347656 348.07300170898435 Q 271.7304400634766 349.8430017089844 273.68044006347657 353.26300170898435 Q 275.63044006347656 356.68300170898436 275.63044006347656 361.6030017089844 L 275.63044006347656 377.2030017089844 Q 275.63044006347656 378.1630017089844 274.97044006347653 378.82300170898435 Q 274.31044006347656 379.4830017089844 273.3504400634766 379.4830017089844 Z M 247.55044006347657 379.4830017089844 Q 246.47044006347656 379.4830017089844 245.84044006347656 378.8530017089844 Q 245.21044006347657 378.2230017089844 245.21044006347657 377.2030017089844 L 245.21044006347657 349.00300170898436 Q 245.21044006347657 347.9230017089844 245.84044006347656 347.2930017089844 Q 246.47044006347656 346.6630017089844 247.55044006347657 346.6630017089844 Q 248.57044006347655 346.6630017089844 249.20044006347655 347.2930017089844 Q 249.83044006347657 347.9230017089844 249.83044006347657 349.00300170898436 L 249.83044006347657 377.2030017089844 Q 249.83044006347657 378.2230017089844 249.20044006347655 378.8530017089844 Q 248.57044006347655 379.4830017089844 247.55044006347657 379.4830017089844 Z M 289.1276123046875 379.4830017089844 Q 288.0476123046875 379.4830017089844 287.4176123046875 378.8530017089844 Q 286.7876123046875 378.2230017089844 286.7876123046875 377.1430017089844 L 286.7876123046875 349.00300170898436 Q 286.7876123046875 347.9230017089844 287.4176123046875 347.2930017089844 Q 288.0476123046875 346.6630017089844 289.1276123046875 346.6630017089844 Q 290.1476123046875 346.6630017089844 290.7776123046875 347.2930017089844 Q 291.4076123046875 347.9230017089844 291.4076123046875 349.00300170898436 L 291.4076123046875 377.1430017089844 Q 291.4076123046875 378.2230017089844 290.7776123046875 378.8530017089844 Q 290.1476123046875 379.4830017089844 289.1276123046875 379.4830017089844 Z M 289.0676123046875 340.4230017089844 Q 287.7476123046875 340.4230017089844 286.7876123046875 339.4630017089844 Q 285.8276123046875 338.50300170898436 285.8276123046875 337.12300170898436 Q 285.8276123046875 335.62300170898436 286.8176123046875 334.75300170898436 Q 287.8076123046875 333.88300170898435 289.1276123046875 333.88300170898435 Q 290.3876123046875 333.88300170898435 291.3776123046875 334.75300170898436 Q 292.3676123046875 335.62300170898436 292.3676123046875 337.12300170898436 Q 292.3676123046875 338.50300170898436 291.4076123046875 339.4630017089844 Q 290.4476123046875 340.4230017089844 289.0676123046875 340.4230017089844 Z M 314.3913623046875 379.4830017089844 Q 312.9513623046875 379.4830017089844 312.2313623046875 377.9230017089844 L 298.9113623046875 349.6630017089844 Q 298.5513623046875 348.88300170898435 298.8513623046875 348.1030017089844 Q 299.1513623046875 347.3230017089844 300.0513623046875 346.9030017089844 Q 300.8913623046875 346.4830017089844 301.6713623046875 346.7830017089844 Q 302.4513623046875 347.0830017089844 302.8713623046875 347.86300170898437 L 315.6513623046875 375.5230017089844 L 313.1913623046875 375.5230017089844 L 325.7913623046875 347.86300170898437 Q 326.1513623046875 347.0230017089844 327.0213623046875 346.75300170898436 Q 327.8913623046875 346.4830017089844 328.7313623046875 346.8430017089844 Q 329.5713623046875 347.26300170898435 329.8713623046875 348.07300170898435 Q 330.1713623046875 348.88300170898435 329.8113623046875 349.6030017089844 L 316.6713623046875 377.9230017089844 Q 315.9513623046875 379.4830017089844 314.3913623046875 379.4830017089844 Z M 350.0279248046875 379.7830017089844 Q 345.1679248046875 379.7830017089844 341.4179248046875 377.6530017089844 Q 337.6679248046875 375.5230017089844 335.5379248046875 371.74300170898437 Q 333.4079248046875 367.9630017089844 333.4079248046875 363.1030017089844 Q 333.4079248046875 358.18300170898436 335.4179248046875 354.43300170898436 Q 337.4279248046875 350.68300170898436 340.9679248046875 348.5230017089844 Q 344.5079248046875 346.36300170898437 349.1279248046875 346.36300170898437 Q 353.6879248046875 346.36300170898437 357.0779248046875 348.43300170898436 Q 360.4679248046875 350.50300170898436 362.3279248046875 354.1630017089844 Q 364.1879248046875 357.82300170898435 364.1879248046875 362.50300170898436 Q 364.1879248046875 363.4630017089844 363.5879248046875 364.0330017089844 Q 362.9879248046875 364.6030017089844 362.0279248046875 364.6030017089844 L 336.5279248046875 364.6030017089844 L 336.5279248046875 360.76300170898435 L 362.5079248046875 360.76300170898435 L 359.9279248046875 362.62300170898436 Q 359.9879248046875 359.1430017089844 358.6679248046875 356.38300170898435 Q 357.3479248046875 353.62300170898436 354.9179248046875 352.06300170898436 Q 352.4879248046875 350.50300170898436 349.1279248046875 350.50300170898436 Q 345.7079248046875 350.50300170898436 343.1279248046875 352.12300170898436 Q 340.5479248046875 353.74300170898437 339.1379248046875 356.5930017089844 Q 337.7279248046875 359.44300170898435 337.7279248046875 363.1030017089844 Q 337.7279248046875 366.76300170898435 339.3179248046875 369.5830017089844 Q 340.9079248046875 372.4030017089844 343.6679248046875 374.0230017089844 Q 346.4279248046875 375.6430017089844 350.0279248046875 375.6430017089844 Q 352.1879248046875 375.6430017089844 354.3779248046875 374.8930017089844 Q 356.5679248046875 374.1430017089844 357.8879248046875 373.00300170898436 Q 358.5479248046875 372.4630017089844 359.3879248046875 372.43300170898436 Q 360.2279248046875 372.4030017089844 360.8279248046875 372.88300170898435 Q 361.6079248046875 373.6030017089844 361.6379248046875 374.44300170898435 Q 361.6679248046875 375.2830017089844 360.9479248046875 375.88300170898435 Q 358.9679248046875 377.56300170898436 355.9079248046875 378.6730017089844 Q 352.8479248046875 379.7830017089844 350.0279248046875 379.7830017089844 Z" transform="matrix(1, 0, 0, 1, 0, 0)" style="fill: rgb(255, 255, 255); white-space: pre;"/>
  <path d="M -158.351321453125 2015.7107839453124 L -158.351321453125 1921.9787579453125 L -13.035227453125003 1665.3165659453125 L -81.604293453125 1670.9782319453125 L -144.511693453125 1639.5245319453124 L -144.511693453125 1536.3563959453124 L 144.233272546875 1510.5643619453126 L 205.882524546875 1542.0180619453124 L 205.882524546875 1628.8302739453125 L 58.679208546875 1891.1541319453124 L 148.63679054687503 1883.6052439453124 L 211.54419054687503 1915.0589439453124 L 211.54419054687503 2020.7433759453124 L -95.443921453125 2047.1644839453124 Z M -37.569113453125 1906.2519079453125 L 137.31345854687498 1596.1184259453125 L 137.31345854687498 1517.4841759453125 L -138.220953453125 1542.0180619453124 L -138.220953453125 1632.6047179453126 L 20.305694546875003 1618.7650899453124 L -152.060581453125 1923.8659799453126 L -152.060581453125 2009.4200439453125 L 142.346050546875 1983.6280099453124 L 142.346050546875 1890.5250579453125 Z" transform="matrix(0.271758, -0.028565, 0.018612, 0.243312, 76.178513, -184.800659)" style="fill: rgb(255, 255, 255); line-height: 967.791px; white-space: pre;">
    <title>Z</title>
  </path>
  <path d="M 704.614 2006.534 L 704.614 1660.543 L 747.391 1657.398 L 703.356 1635.38 L 703.356 1528.437 L 808.411 1519.63 L 871.319 1551.084 L 871.319 1658.027 L 826.655 1661.801 L 869.432 1683.19 L 869.432 2028.551 L 767.522 2037.358 L 704.614 2006.534 Z M 709.647 1534.099 L 709.647 1628.46 L 802.121 1620.911 L 802.121 1526.55 L 709.647 1534.099 Z M 710.905 1666.205 L 710.905 1999.614 L 800.234 1992.065 L 800.234 1658.656 L 710.905 1666.205 Z M 1185.074 2021.631 C 1178.364 2027.083 1170.5 2031.906 1161.483 2036.1 C 1152.467 2040.294 1141.877 2042.81 1129.715 2043.649 C 1126.36 2044.068 1122.795 2044.278 1119.021 2044.278 C 1115.246 2044.278 1111.682 2044.278 1108.327 2044.278 C 1074.776 2044.278 1045.105 2037.253 1019.313 2023.204 C 993.521 2009.155 973.39 1987.242 958.922 1957.466 C 944.453 1927.69 937.219 1889.107 937.219 1841.716 C 937.219 1782.164 948.647 1736.242 971.503 1703.949 C 994.359 1671.657 1026.547 1653.623 1068.066 1649.849 C 1069.743 1649.849 1071.316 1649.744 1072.784 1649.534 C 1074.252 1649.324 1075.824 1649.22 1077.502 1649.22 C 1089.245 1649.22 1099.31 1650.478 1107.698 1652.994 C 1116.085 1655.51 1123.634 1657.817 1130.344 1659.914 L 1130.344 1520.259 L 1232.883 1511.452 L 1295.791 1542.906 L 1295.791 2021.631 L 1199.542 2029.18 L 1185.074 2021.631 Z M 1136.635 1525.921 L 1136.635 1683.19 L 1134.748 1683.819 C 1131.812 1675.431 1125.312 1668.616 1115.246 1663.374 C 1105.181 1658.132 1092.6 1655.51 1077.502 1655.51 C 1076.244 1655.51 1074.881 1655.615 1073.413 1655.825 C 1071.945 1656.035 1070.373 1656.139 1068.695 1656.139 C 1028.854 1659.914 998.029 1677.423 976.221 1708.667 C 954.413 1739.911 943.509 1784.261 943.509 1841.716 C 943.509 1897.075 953.679 1938.489 974.019 1965.958 C 994.359 1993.428 1021.724 2007.163 1056.114 2007.163 C 1058.21 2007.163 1060.202 2007.163 1062.09 2007.163 C 1063.977 2007.163 1065.759 2006.953 1067.437 2006.534 C 1087.148 2004.437 1103.084 1998.251 1115.246 1987.976 C 1127.409 1977.701 1136.006 1966.063 1141.038 1953.062 L 1142.926 1953.691 L 1142.926 1991.436 L 1226.593 1984.516 L 1226.593 1518.372 L 1136.635 1525.921 Z M 1083.793 1923.496 C 1070.373 1923.496 1058.944 1916.471 1049.508 1902.422 C 1040.072 1888.373 1035.354 1865.411 1035.354 1833.538 C 1035.354 1801.665 1039.758 1778.599 1048.565 1764.34 C 1057.372 1750.081 1070.792 1742.113 1088.825 1740.435 L 1094.487 1740.435 C 1105.391 1740.435 1114.617 1743.161 1122.166 1748.613 C 1129.715 1754.065 1134.538 1761.195 1136.635 1770.002 L 1136.635 1856.814 C 1136.635 1875.686 1132.127 1891.203 1123.11 1903.366 C 1114.093 1915.528 1102.246 1922.238 1087.567 1923.496 L 1083.793 1923.496 Z M 1130.344 1785.1 C 1121.118 1786.358 1114.513 1793.068 1110.528 1805.23 C 1106.544 1817.392 1104.552 1837.313 1104.552 1864.992 C 1104.552 1873.799 1104.762 1882.082 1105.181 1889.84 C 1105.601 1897.599 1106.859 1903.995 1108.956 1909.027 C 1123.215 1897.284 1130.344 1879.88 1130.344 1856.814 L 1130.344 1785.1 Z" transform="matrix(0.271758, -0.028565, 0.018612, 0.243312, 76.178513, -184.800659)" style="fill: rgb(255, 255, 255); line-height: 967.791px; white-space: pre;">
    <title>o</title>
  </path>
  <path d="M 361.518 214.692 L 348.587 191.235 L 347.875 180.414 L 363.084 208.005 C 362.487 210.178 361.963 212.407 361.518 214.692 Z M 359.845 230.414 L 349.991 212.58 L 349.767 209.171 L 359.957 227.612 C 359.912 228.517 359.874 229.453 359.845 230.414 Z" style="fill: rgba(255, 255, 255, 0.93); pointer-events: none;">
    <title>i-d line</title>
  </path>
  <path d="M 240.828 294.569 C 239.679 294.671 238.502 294.748 237.297 294.799 C 236.093 294.85 234.86 294.876 233.599 294.876 C 223.286 294.876 214.229 292.983 206.429 289.198 C 198.629 285.413 192.627 279.863 188.423 272.549 C 184.218 265.235 182.263 256.412 182.556 246.08 C 182.785 237.998 184.517 230.505 187.749 223.6 C 190.982 216.695 195.785 210.991 202.159 206.49 C 208.532 201.989 216.485 199.381 226.017 198.665 C 226.937 198.562 227.855 198.511 228.772 198.511 C 229.688 198.511 230.605 198.511 231.522 198.511 C 238.856 198.511 245.727 199.688 252.136 202.04 C 258.544 204.393 264.179 207.718 269.042 212.014 C 273.905 216.311 277.684 221.451 280.379 227.436 C 283.074 233.42 284.319 240.044 284.113 247.307 C 283.883 255.389 282.152 262.882 278.919 269.787 C 275.686 276.692 270.913 282.344 264.6 286.743 C 258.287 291.142 250.363 293.75 240.828 294.569 Z M 223.728 285.362 C 232.916 284.646 240.55 282.14 246.632 277.843 C 252.713 273.547 257.309 268.048 260.422 261.347 C 263.534 254.647 265.201 247.409 265.422 239.635 C 265.634 232.167 264.535 225.467 262.125 219.533 C 259.715 213.6 255.895 208.869 250.667 205.339 C 245.438 201.81 238.698 200.046 230.447 200.046 C 229.759 200.046 229.072 200.046 228.384 200.046 C 227.697 200.046 226.95 200.097 226.145 200.199 C 216.957 200.915 209.293 203.447 203.153 207.795 C 197.013 212.142 192.388 217.641 189.277 224.29 C 186.166 230.939 184.499 238.203 184.275 246.08 C 184.066 253.445 185.194 260.12 187.66 266.104 C 190.126 272.089 194.003 276.82 199.29 280.298 C 204.577 283.776 211.289 285.515 219.426 285.515 C 220.113 285.515 220.801 285.515 221.489 285.515 C 222.176 285.515 222.922 285.464 223.728 285.362 Z M 222.782 264.186 C 218.542 264.186 215.293 262.549 213.037 259.276 C 210.781 256.002 209.75 250.939 209.944 244.085 C 210.148 236.924 211.619 231.528 214.358 227.896 C 217.096 224.265 220.821 222.244 225.531 221.835 L 227.078 221.835 C 231.318 221.835 234.539 223.446 236.739 226.669 C 238.94 229.891 239.944 234.878 239.752 241.63 C 239.549 248.79 238.105 254.238 235.421 257.972 C 232.736 261.706 229.039 263.777 224.329 264.186 L 222.782 264.186 Z M 229.397 261.271 C 234.858 258.611 237.737 252.064 238.033 241.63 C 238.135 238.049 237.878 234.98 237.263 232.423 C 234.272 232.832 232.129 234.648 230.834 237.87 C 229.54 241.093 228.807 245.722 228.635 251.757 C 228.531 255.44 228.784 258.611 229.397 261.271 Z" style="fill: rgb(255, 255, 255); line-height: 967.791px; white-space: pre;" transform="matrix(0.994521, -0.104536, 0.104536, 0.994521, -24.509956, 25.743116)">
    <title>O</title>
  </path>
  <g transform="matrix(1, 0, 0, 1, 2.092555, -0.407135)" style="pointer-events: none;">
    <title>Loops</title>
    <path style="stroke: rgb(255, 255, 255); fill: none; stroke-width: 2px; stroke-linecap: round; stroke-miterlimit: 50; stroke-opacity: 0.8;" d="M 235.351 113.532 L 241.744 97.479 C 247.18 105.843 260.686 108.961 266.782 104.998 C 278.612 97.309 267.738 80.582 255.91 88.271 C 249.882 92.189 247.18 105.843 252.616 114.206 L 235.351 113.532 Z" transform="matrix(-0.52992, 0.848048, -0.848048, -0.52992, 473.035147, -61.704431)">
      <title>Top</title>
    </path>
    <path style="stroke: rgb(255, 255, 255); fill: none; stroke-width: 2px; stroke-linecap: round; stroke-miterlimit: 50; stroke-opacity: 0.8;" d="M 64.287 419.352 L 70.68 403.299 C 76.116 411.663 89.622 414.781 95.718 410.818 C 107.548 403.129 96.674 386.402 84.846 394.091 C 78.818 398.009 76.116 411.663 81.552 420.026 L 64.287 419.352 Z" transform="matrix(0.999391, -0.0349, 0.0349, 0.999391, -14.121604, 3.128552)">
      <title>Bottom Left</title>
    </path>
    <path style="stroke: rgb(255, 255, 255); fill: none; stroke-width: 2px; stroke-linecap: round; stroke-miterlimit: 50; stroke-opacity: 0.8;" d="M 401.621 392.791 L 408.014 408.844 C 413.45 400.48 426.956 397.362 433.052 401.325 C 444.882 409.014 434.008 425.741 422.18 418.052 C 416.152 414.134 413.45 400.48 418.886 392.117 L 401.621 392.791 Z" transform="matrix(-0.999391, -0.0349, 0.0349, -0.999391, 825.350756, 826.549703)">
      <title>BottomRight</title>
    </path>
  </g>
</svg>
