<?xml version="1.0" encoding="utf-8"?>
<svg viewBox="0 0 505 463" xmlns="http://www.w3.org/2000/svg">
  <path d="M 361.518 214.692 L 348.587 191.235 L 347.875 180.414 L 363.084 208.005 C 362.487 210.178 361.963 212.407 361.518 214.692 Z M 359.845 230.414 L 349.991 212.58 L 349.767 209.171 L 359.957 227.612 C 359.912 228.517 359.874 229.453 359.845 230.414 Z M 498.221 452.839 L 10 452.839 L 83.043 320.333 L 87.372 322.009 L 17.981 447.891 L 490.24 447.891 L 402.182 288.145 C 404.044 288.337 405.843 288.415 407.575 288.398 Z M 254.111 10 L 336.999 160.367 L 330.528 158.159 L 254.111 19.529 L 165.866 179.614 L 161.388 178.208 Z M 477.603 440.494 L 30.619 440.494 L 96.396 321.453 L 98.241 321.118 L 33.142 438.932 L 475.079 438.932 L 390.316 285.532 C 390.965 285.748 391.634 285.959 392.324 286.161 Z M 254.111 36.029 L 320.745 156.62 L 319.249 156.918 L 254.111 39.034 L 167.395 195.967 L 167.261 193.205 Z" style="fill: rgba(255, 255, 255, 0.93);">
    <title>Triangle</title>
  </path>
  <path d="M 70.662 310.169 L 68.917 287.363 L 103.631 220.763 L 85.102 224.099 L 67.421 218.243 L 65.501 193.141 L 143.49 178.618 L 160.829 184.51 L 162.445 205.632 L 127.323 273.664 L 151.629 269.257 L 169.31 275.113 L 171.277 300.828 L 88.343 316.025 L 70.662 310.169 Z M 101.448 280.087 L 143.202 199.632 L 141.738 180.499 L 67.316 194.339 L 69.002 216.38 L 111.825 208.484 L 70.662 287.643 L 72.254 308.459 L 151.781 293.774 L 150.049 271.121 L 101.448 280.087 Z M 305.009 283.286 L 298.569 199.102 L 310.135 197.115 L 297.759 193.016 L 295.768 166.995 L 324.154 161.851 L 341.835 167.708 L 343.826 193.728 L 331.758 195.922 L 343.781 199.904 L 350.209 283.935 L 322.678 288.989 L 305.009 283.286 Z M 297.583 168.193 L 299.34 191.152 L 324.33 186.674 L 322.573 163.715 L 297.583 168.193 Z M 300.384 200.3 L 306.589 281.423 L 330.725 277.034 L 324.519 195.912 L 300.384 200.3 Z M 435.858 273.235 C 434.136 274.753 432.089 276.151 429.717 277.429 C 427.345 278.707 424.514 279.622 421.224 280.173 C 420.32 280.371 419.355 280.524 418.33 280.632 C 417.304 280.74 416.335 280.842 415.423 280.937 C 406.306 281.896 398.112 281.034 390.841 278.353 C 383.57 275.671 377.692 270.914 373.206 264.083 C 368.719 257.251 366.035 248.07 365.153 236.539 C 364.045 222.05 366.296 210.55 371.906 202.04 C 377.516 193.53 385.928 188.222 397.141 186.118 C 397.597 186.07 398.022 186 398.417 185.907 C 398.812 185.814 399.238 185.744 399.694 185.696 C 402.885 185.36 405.643 185.379 407.97 185.751 C 410.296 186.124 412.39 186.47 414.253 186.788 L 411.654 152.808 L 439.355 147.737 L 457.037 153.593 L 465.947 270.072 L 439.931 274.658 L 435.858 273.235 Z M 413.469 154.006 L 416.396 192.272 L 415.895 192.479 C 414.941 190.522 413.047 189.049 410.214 188.061 C 407.381 187.073 403.914 186.795 399.811 187.226 C 399.469 187.262 399.1 187.326 398.705 187.419 C 398.31 187.513 397.885 187.583 397.429 187.631 C 386.672 189.687 378.621 194.828 373.276 203.053 C 367.931 211.278 365.793 222.38 366.863 236.36 C 367.893 249.829 371.428 259.615 377.466 265.718 C 383.505 271.821 391.198 274.381 400.543 273.398 C 401.113 273.339 401.654 273.282 402.167 273.228 C 402.68 273.174 403.16 273.072 403.609 272.922 C 408.926 271.849 413.142 269.888 416.256 267.041 C 419.37 264.193 421.49 261.116 422.615 257.809 L 423.14 257.908 L 423.842 267.092 L 446.451 263.018 L 437.775 149.6 L 413.469 154.006 Z M 406.508 252.251 C 402.861 252.634 399.624 251.251 396.799 248.102 C 393.973 244.954 392.263 239.501 391.67 231.746 C 391.077 223.991 391.844 218.253 393.972 214.532 C 396.1 210.811 399.599 208.489 404.468 207.566 L 406.007 207.404 C 408.97 207.093 411.528 207.492 413.681 208.603 C 415.834 209.714 417.278 211.311 418.011 213.394 L 419.627 234.517 C 419.978 239.108 419.042 243.013 416.818 246.23 C 414.594 249.446 411.499 251.417 407.534 252.143 L 406.508 252.251 Z M 416.583 217.247 C 414.099 217.817 412.429 219.638 411.572 222.711 C 410.716 225.784 410.545 230.688 411.061 237.423 C 411.225 239.566 411.436 241.575 411.694 243.451 C 411.953 245.327 412.413 246.847 413.077 248.011 C 416.733 244.747 418.347 240.309 417.918 234.696 L 416.583 217.247 Z M 245.792 293.523 C 244.66 293.745 243.497 293.944 242.304 294.121 C 241.112 294.297 239.888 294.452 238.634 294.584 C 228.378 295.662 219.173 294.726 211.02 291.777 C 202.867 288.828 196.317 283.936 191.372 277.102 C 186.425 270.268 183.559 261.697 182.77 251.391 C 182.153 243.33 183.092 235.697 185.585 228.492 C 188.078 221.286 192.259 215.112 198.127 209.969 C 203.995 204.826 211.631 201.401 221.036 199.693 C 221.941 199.494 222.848 199.347 223.76 199.252 C 224.671 199.156 225.583 199.06 226.495 198.964 C 233.789 198.197 240.745 198.65 247.365 200.319 C 253.984 201.989 259.936 204.707 265.221 208.471 C 270.507 212.236 274.802 216.953 278.108 222.623 C 281.414 228.293 283.345 234.75 283.899 241.995 C 284.515 250.057 283.577 257.69 281.083 264.895 C 278.59 272.1 274.434 278.22 268.615 283.255 C 262.797 288.29 255.189 291.712 245.792 293.523 Z M 227.823 286.154 C 236.886 284.481 244.216 281.191 249.815 276.282 C 255.414 271.374 259.41 265.424 261.805 258.435 C 264.2 251.446 265.101 244.074 264.508 236.319 C 263.938 228.87 262.145 222.321 259.128 216.672 C 256.111 211.023 251.817 206.718 246.249 203.753 C 240.68 200.79 233.792 199.741 225.586 200.603 C 224.902 200.675 224.219 200.747 223.535 200.819 C 222.852 200.891 222.114 201.019 221.324 201.205 C 212.261 202.878 204.904 206.197 199.252 211.163 C 193.6 216.128 189.575 222.08 187.176 229.018 C 184.778 235.956 183.879 243.354 184.48 251.212 C 185.042 258.558 186.861 265.079 189.939 270.772 C 193.017 276.466 197.368 280.766 202.989 283.672 C 208.611 286.579 215.468 287.607 223.56 286.756 C 224.244 286.684 224.928 286.612 225.612 286.54 C 226.295 286.468 227.032 286.34 227.823 286.154 Z M 224.668 265.193 C 220.452 265.636 217.049 264.348 214.464 261.329 C 211.878 258.308 210.323 253.381 209.799 246.544 C 209.254 239.401 210.153 233.881 212.497 229.982 C 214.84 226.085 218.334 223.686 222.975 222.787 L 224.514 222.625 C 228.73 222.182 232.102 223.447 234.627 226.422 C 237.153 229.397 238.673 234.251 239.188 240.987 C 239.734 248.129 238.868 253.698 236.589 257.692 C 234.309 261.686 230.848 264.132 226.207 265.031 L 224.668 265.193 Z M 230.942 261.602 C 236.095 258.386 238.274 251.574 237.478 241.166 C 237.205 237.594 236.629 234.569 235.75 232.09 C 232.818 232.81 230.876 234.84 229.925 238.179 C 228.975 241.52 228.73 246.2 229.19 252.22 C 229.472 255.894 230.055 259.021 230.942 261.602 Z" style="fill: rgb(255, 255, 255); line-height: 967.791px; white-space: pre;">
    <title>Zoid</title>
  </path>
  <path d="M 158.27200256347658 379.7830017089844 Q 153.65200256347657 379.7830017089844 149.99200256347658 377.5930017089844 Q 146.33200256347655 375.4030017089844 144.20200256347655 371.62300170898436 Q 142.07200256347656 367.8430017089844 142.07200256347656 363.1030017089844 Q 142.07200256347656 358.30300170898437 144.26200256347656 354.5230017089844 Q 146.45200256347655 350.74300170898437 150.23200256347656 348.55300170898437 Q 154.01200256347656 346.36300170898437 158.75200256347657 346.36300170898437 Q 163.49200256347655 346.36300170898437 167.24200256347655 348.55300170898437 Q 170.99200256347655 350.74300170898437 173.18200256347654 354.5230017089844 Q 175.37200256347657 358.30300170898437 175.43200256347654 363.1030017089844 L 173.57200256347656 364.5430017089844 Q 173.57200256347656 368.86300170898437 171.56200256347657 372.31300170898436 Q 169.55200256347655 375.76300170898435 166.10200256347656 377.7730017089844 Q 162.65200256347657 379.7830017089844 158.27200256347658 379.7830017089844 Z M 158.75200256347657 375.5830017089844 Q 162.23200256347656 375.5830017089844 164.96200256347657 373.9630017089844 Q 167.69200256347656 372.3430017089844 169.28200256347657 369.49300170898437 Q 170.87200256347657 366.6430017089844 170.87200256347657 363.1030017089844 Q 170.87200256347657 359.50300170898436 169.28200256347657 356.68300170898436 Q 167.69200256347656 353.86300170898437 164.96200256347657 352.2130017089844 Q 162.23200256347656 350.56300170898436 158.75200256347657 350.56300170898436 Q 155.33200256347655 350.56300170898436 152.57200256347656 352.2130017089844 Q 149.81200256347657 353.86300170898437 148.19200256347656 356.68300170898436 Q 146.57200256347656 359.50300170898436 146.57200256347656 363.1030017089844 Q 146.57200256347656 366.6430017089844 148.19200256347656 369.49300170898437 Q 149.81200256347657 372.3430017089844 152.57200256347656 373.9630017089844 Q 155.33200256347655 375.5830017089844 158.75200256347657 375.5830017089844 Z M 173.09200256347657 379.4830017089844 Q 172.07200256347656 379.4830017089844 171.41200256347656 378.8530017089844 Q 170.75200256347657 378.2230017089844 170.75200256347657 377.2030017089844 L 170.75200256347657 366.94300170898435 L 171.89200256347655 362.2030017089844 L 175.43200256347654 363.1030017089844 L 175.43200256347654 377.2030017089844 Q 175.43200256347654 378.2230017089844 174.77200256347658 378.8530017089844 Q 174.11200256347655 379.4830017089844 173.09200256347657 379.4830017089844 Z M 186.34919006347656 359.26300170898435 Q 186.52919006347656 355.5430017089844 188.29919006347657 352.6030017089844 Q 190.06919006347655 349.6630017089844 192.91919006347655 347.9830017089844 Q 195.76919006347657 346.30300170898437 199.24919006347656 346.30300170898437 Q 202.00919006347655 346.30300170898437 203.50919006347655 347.0830017089844 Q 205.00919006347655 347.86300170898437 204.64919006347657 349.36300170898437 Q 204.40919006347656 350.26300170898435 203.83919006347656 350.56300170898436 Q 203.26919006347657 350.86300170898437 202.45919006347657 350.80300170898437 Q 201.64919006347657 350.74300170898437 200.62919006347656 350.68300170898436 Q 197.26919006347657 350.38300170898435 194.65919006347656 351.37300170898436 Q 192.04919006347657 352.36300170898437 190.51919006347657 354.4030017089844 Q 188.98919006347657 356.44300170898435 188.98919006347657 359.26300170898435 Z M 186.70919006347657 379.4830017089844 Q 185.62919006347656 379.4830017089844 185.02919006347656 378.88300170898435 Q 184.42919006347657 378.2830017089844 184.42919006347657 377.2030017089844 L 184.42919006347657 348.94300170898435 Q 184.42919006347657 347.86300170898437 185.02919006347656 347.26300170898435 Q 185.62919006347656 346.6630017089844 186.70919006347657 346.6630017089844 Q 187.78919006347655 346.6630017089844 188.38919006347658 347.26300170898435 Q 188.98919006347657 347.86300170898437 188.98919006347657 348.94300170898435 L 188.98919006347657 377.2030017089844 Q 188.98919006347657 378.2830017089844 188.38919006347658 378.88300170898435 Q 187.78919006347655 379.4830017089844 186.70919006347657 379.4830017089844 Z M 224.14731506347655 379.7830017089844 Q 219.40731506347657 379.7830017089844 215.71731506347658 377.5930017089844 Q 212.02731506347655 375.4030017089844 209.89731506347655 371.62300170898436 Q 207.76731506347656 367.8430017089844 207.76731506347656 363.1030017089844 Q 207.76731506347656 358.30300170898437 209.80731506347655 354.5230017089844 Q 211.84731506347657 350.74300170898437 215.38731506347656 348.55300170898437 Q 218.92731506347656 346.36300170898437 223.54731506347656 346.36300170898437 Q 227.20731506347656 346.36300170898437 230.29731506347656 347.80300170898437 Q 233.38731506347656 349.24300170898437 235.72731506347657 352.12300170898436 Q 236.38731506347656 352.8430017089844 236.20731506347656 353.6530017089844 Q 236.02731506347655 354.4630017089844 235.18731506347655 355.06300170898436 Q 234.52731506347655 355.5430017089844 233.71731506347658 355.3930017089844 Q 232.90731506347657 355.24300170898437 232.30731506347655 354.5230017089844 Q 228.82731506347656 350.56300170898436 223.54731506347656 350.56300170898436 Q 220.18731506347655 350.56300170898436 217.63731506347656 352.18300170898436 Q 215.08731506347655 353.80300170898437 213.67731506347656 356.62300170898436 Q 212.26731506347656 359.44300170898435 212.26731506347656 363.1030017089844 Q 212.26731506347656 366.7030017089844 213.76731506347656 369.5230017089844 Q 215.26731506347656 372.3430017089844 217.96731506347658 373.9630017089844 Q 220.66731506347656 375.5830017089844 224.14731506347655 375.5830017089844 Q 226.48731506347656 375.5830017089844 228.43731506347655 374.9530017089844 Q 230.38731506347656 374.32300170898435 231.88731506347656 373.00300170898436 Q 232.60731506347656 372.4030017089844 233.38731506347656 372.3430017089844 Q 234.16731506347656 372.2830017089844 234.82731506347656 372.82300170898435 Q 235.54731506347656 373.4830017089844 235.63731506347656 374.32300170898435 Q 235.72731506347657 375.1630017089844 235.06731506347657 375.76300170898435 Q 230.68731506347655 379.7830017089844 224.14731506347655 379.7830017089844 Z M 247.55044006347657 366.1030017089844 Q 246.47044006347656 366.1030017089844 245.84044006347656 365.44300170898435 Q 245.21044006347657 364.7830017089844 245.21044006347657 363.76300170898435 L 245.21044006347657 334.9630017089844 Q 245.21044006347657 333.88300170898435 245.84044006347656 333.25300170898436 Q 246.47044006347656 332.62300170898436 247.55044006347657 332.62300170898436 Q 248.57044006347655 332.62300170898436 249.20044006347655 333.25300170898436 Q 249.83044006347657 333.88300170898435 249.83044006347657 334.9630017089844 L 249.83044006347657 363.76300170898435 Q 249.83044006347657 364.7830017089844 249.20044006347655 365.44300170898435 Q 248.57044006347655 366.1030017089844 247.55044006347657 366.1030017089844 Z M 273.3504400634766 379.4830017089844 Q 272.33044006347654 379.4830017089844 271.6704400634766 378.82300170898435 Q 271.01044006347655 378.1630017089844 271.01044006347655 377.2030017089844 L 271.01044006347655 361.6030017089844 Q 271.01044006347655 357.88300170898435 269.6004400634766 355.4830017089844 Q 268.19044006347656 353.0830017089844 265.76044006347655 351.88300170898435 Q 263.33044006347654 350.68300170898436 260.27044006347654 350.68300170898436 Q 257.33044006347654 350.68300170898436 254.96044006347657 351.82300170898435 Q 252.59044006347656 352.9630017089844 251.21044006347657 354.94300170898435 Q 249.83044006347657 356.9230017089844 249.83044006347657 359.44300170898435 L 246.53044006347656 359.44300170898435 Q 246.65044006347657 355.6630017089844 248.57044006347655 352.69300170898435 Q 250.49044006347657 349.7230017089844 253.67044006347658 348.01300170898435 Q 256.8504400634766 346.30300170898437 260.75044006347656 346.30300170898437 Q 265.01044006347655 346.30300170898437 268.37044006347656 348.07300170898435 Q 271.7304400634766 349.8430017089844 273.68044006347657 353.26300170898435 Q 275.63044006347656 356.68300170898436 275.63044006347656 361.6030017089844 L 275.63044006347656 377.2030017089844 Q 275.63044006347656 378.1630017089844 274.97044006347653 378.82300170898435 Q 274.31044006347656 379.4830017089844 273.3504400634766 379.4830017089844 Z M 247.55044006347657 379.4830017089844 Q 246.47044006347656 379.4830017089844 245.84044006347656 378.8530017089844 Q 245.21044006347657 378.2230017089844 245.21044006347657 377.2030017089844 L 245.21044006347657 349.00300170898436 Q 245.21044006347657 347.9230017089844 245.84044006347656 347.2930017089844 Q 246.47044006347656 346.6630017089844 247.55044006347657 346.6630017089844 Q 248.57044006347655 346.6630017089844 249.20044006347655 347.2930017089844 Q 249.83044006347657 347.9230017089844 249.83044006347657 349.00300170898436 L 249.83044006347657 377.2030017089844 Q 249.83044006347657 378.2230017089844 249.20044006347655 378.8530017089844 Q 248.57044006347655 379.4830017089844 247.55044006347657 379.4830017089844 Z M 289.1276123046875 379.4830017089844 Q 288.0476123046875 379.4830017089844 287.4176123046875 378.8530017089844 Q 286.7876123046875 378.2230017089844 286.7876123046875 377.1430017089844 L 286.7876123046875 349.00300170898436 Q 286.7876123046875 347.9230017089844 287.4176123046875 347.2930017089844 Q 288.0476123046875 346.6630017089844 289.1276123046875 346.6630017089844 Q 290.1476123046875 346.6630017089844 290.7776123046875 347.2930017089844 Q 291.4076123046875 347.9230017089844 291.4076123046875 349.00300170898436 L 291.4076123046875 377.1430017089844 Q 291.4076123046875 378.2230017089844 290.7776123046875 378.8530017089844 Q 290.1476123046875 379.4830017089844 289.1276123046875 379.4830017089844 Z M 289.0676123046875 340.4230017089844 Q 287.7476123046875 340.4230017089844 286.7876123046875 339.4630017089844 Q 285.8276123046875 338.50300170898436 285.8276123046875 337.12300170898436 Q 285.8276123046875 335.62300170898436 286.8176123046875 334.75300170898436 Q 287.8076123046875 333.88300170898435 289.1276123046875 333.88300170898435 Q 290.3876123046875 333.88300170898435 291.3776123046875 334.75300170898436 Q 292.3676123046875 335.62300170898436 292.3676123046875 337.12300170898436 Q 292.3676123046875 338.50300170898436 291.4076123046875 339.4630017089844 Q 290.4476123046875 340.4230017089844 289.0676123046875 340.4230017089844 Z M 314.3913623046875 379.4830017089844 Q 312.9513623046875 379.4830017089844 312.2313623046875 377.9230017089844 L 298.9113623046875 349.6630017089844 Q 298.5513623046875 348.88300170898435 298.8513623046875 348.1030017089844 Q 299.1513623046875 347.3230017089844 300.0513623046875 346.9030017089844 Q 300.8913623046875 346.4830017089844 301.6713623046875 346.7830017089844 Q 302.4513623046875 347.0830017089844 302.8713623046875 347.86300170898437 L 315.6513623046875 375.5230017089844 L 313.1913623046875 375.5230017089844 L 325.7913623046875 347.86300170898437 Q 326.1513623046875 347.0230017089844 327.0213623046875 346.75300170898436 Q 327.8913623046875 346.4830017089844 328.7313623046875 346.8430017089844 Q 329.5713623046875 347.26300170898435 329.8713623046875 348.07300170898435 Q 330.1713623046875 348.88300170898435 329.8113623046875 349.6030017089844 L 316.6713623046875 377.9230017089844 Q 315.9513623046875 379.4830017089844 314.3913623046875 379.4830017089844 Z M 350.0279248046875 379.7830017089844 Q 345.1679248046875 379.7830017089844 341.4179248046875 377.6530017089844 Q 337.6679248046875 375.5230017089844 335.5379248046875 371.74300170898437 Q 333.4079248046875 367.9630017089844 333.4079248046875 363.1030017089844 Q 333.4079248046875 358.18300170898436 335.4179248046875 354.43300170898436 Q 337.4279248046875 350.68300170898436 340.9679248046875 348.5230017089844 Q 344.5079248046875 346.36300170898437 349.1279248046875 346.36300170898437 Q 353.6879248046875 346.36300170898437 357.0779248046875 348.43300170898436 Q 360.4679248046875 350.50300170898436 362.3279248046875 354.1630017089844 Q 364.1879248046875 357.82300170898435 364.1879248046875 362.50300170898436 Q 364.1879248046875 363.4630017089844 363.5879248046875 364.0330017089844 Q 362.9879248046875 364.6030017089844 362.0279248046875 364.6030017089844 L 336.5279248046875 364.6030017089844 L 336.5279248046875 360.76300170898435 L 362.5079248046875 360.76300170898435 L 359.9279248046875 362.62300170898436 Q 359.9879248046875 359.1430017089844 358.6679248046875 356.38300170898435 Q 357.3479248046875 353.62300170898436 354.9179248046875 352.06300170898436 Q 352.4879248046875 350.50300170898436 349.1279248046875 350.50300170898436 Q 345.7079248046875 350.50300170898436 343.1279248046875 352.12300170898436 Q 340.5479248046875 353.74300170898437 339.1379248046875 356.5930017089844 Q 337.7279248046875 359.44300170898435 337.7279248046875 363.1030017089844 Q 337.7279248046875 366.76300170898435 339.3179248046875 369.5830017089844 Q 340.9079248046875 372.4030017089844 343.6679248046875 374.0230017089844 Q 346.4279248046875 375.6430017089844 350.0279248046875 375.6430017089844 Q 352.1879248046875 375.6430017089844 354.3779248046875 374.8930017089844 Q 356.5679248046875 374.1430017089844 357.8879248046875 373.00300170898436 Q 358.5479248046875 372.4630017089844 359.3879248046875 372.43300170898436 Q 360.2279248046875 372.4030017089844 360.8279248046875 372.88300170898435 Q 361.6079248046875 373.6030017089844 361.6379248046875 374.44300170898435 Q 361.6679248046875 375.2830017089844 360.9479248046875 375.88300170898435 Q 358.9679248046875 377.56300170898436 355.9079248046875 378.6730017089844 Q 352.8479248046875 379.7830017089844 350.0279248046875 379.7830017089844 Z" transform="matrix(1, 0, 0, 1, 0, 0)" style="fill: rgb(255, 255, 255); white-space: pre;"/>
  <path style="stroke: rgb(255, 255, 255); fill: none; stroke-width: 2px; stroke-linecap: round; stroke-miterlimit: 50; stroke-opacity: 0.8;" d="M 244.41 99.09 C 247.867 99.152 251.346 98.047 254.42 96.278 C 257.437 98.157 260.886 99.384 264.356 99.446 L 254.13 113.374 L 244.41 99.09 Z M 244.712 82.197 C 244.963 68.09 264.911 68.448 264.658 82.553 C 264.574 87.249 260.214 92.944 254.42 96.278 C 248.765 92.755 244.627 86.938 244.712 82.197 Z">
    <title>Decoration Top</title>
  </path>
  <path style="stroke: rgb(255, 255, 255); fill: none; stroke-width: 2px; stroke-linecap: round; stroke-miterlimit: 50; stroke-opacity: 0.8;" d="M 418.623 419.171 C 422.08 419.233 425.559 418.128 428.633 416.359 C 431.65 418.238 435.099 419.465 438.569 419.527 L 428.343 433.455 L 418.623 419.171 Z M 418.925 402.278 C 419.176 388.171 439.124 388.529 438.871 402.634 C 438.787 407.33 434.427 413.025 428.633 416.359 C 422.978 412.836 418.84 407.019 418.925 402.278 Z" transform="matrix(-0.5, 0.866026, -0.866026, -0.5, 1000.500488, 247.690338)">
    <title>Decoration Bottom Right</title>
  </path>
  <path style="stroke: rgb(255, 255, 255); fill: none; stroke-width: 2px; stroke-linecap: round; stroke-miterlimit: 50; stroke-opacity: 0.8;" d="M 68.808 419.171 C 72.265 419.233 75.743 418.128 78.817 416.359 C 81.834 418.238 85.283 419.465 88.753 419.527 L 78.527 433.455 L 68.808 419.171 Z M 69.11 402.278 C 69.361 388.171 89.308 388.529 89.055 402.634 C 88.971 407.33 84.611 413.025 78.817 416.359 C 73.163 412.836 69.025 407.019 69.11 402.278 Z" transform="matrix(-0.5, -0.866025, 0.866025, -0.5, -238.979202, 687.355103)">
    <title>Decoration Bottom Left</title>
  </path>
</svg>
