<svg xmlns="http://www.w3.org/2000/svg" viewBox="0 0 63.849 78">
    <path
        d="M60.8561,0H2.9929A2.9964,2.9964,0,0,0,0,3V75a2.9964,2.9964,0,0,0,2.9929,3H60.8561a2.9964,2.9964,0,0,0,2.9929-3V3A2.9964,2.9964,0,0,0,60.8561,0Z" />
    <path
        d="M59.3324,1.3953H4.6676A2.8606,2.8606,0,0,0,1.84,4.288V73.712a2.8606,2.8606,0,0,0,2.8275,2.8927H59.3324A2.8606,2.8606,0,0,0,62.16,73.712V4.288A2.8606,2.8606,0,0,0,59.3324,1.3953Z"
        style="stroke:#fff;stroke-miterlimit:10" />
    <path
        d="M58.6337,45.8923c0-2.6352-2.66-6.796-4.172-8.8065a1.0088,1.0088,0,0,0-.4227.1381,9.7915,9.7915,0,0,0-3.0828-3.19l-.303.4162.0606.2076c-.665,1.8724,1.7676,2.49-.832,3.9466L40.1724,41.87l-.1034.0885V40.5431l-.1346-.14.1346-.28a.4777.4777,0,0,1,.1347-.35q0-.2106-.404-.2106v-1.05L38.5913,33.82l.0673-.42a5.6594,5.6594,0,0,0-.7734-2.5216,8.2278,8.2278,0,0,0-1.9145-2.4515v-.07c-.0394-.6356-.3735-1.197-.47-1.8206a1.4509,1.4509,0,0,0-.5369-.77c-.5412-.3357-1.1819-.4472-1.7471-.7352a4.71,4.71,0,0,1-1.21-.8756,2.53,2.53,0,0,1-.7389.21l-.3349-.21a1.0164,1.0164,0,0,0-.4367.5255,12.0687,12.0687,0,0,0-.5369,1.6806,3.322,3.322,0,0,1-.1692.5256,3.2418,3.2418,0,0,0-.5367,1.2605l.0673.07-.3366.77A46.0958,46.0958,0,0,1,26.7,35.2907l-.6715,1.4012.6059.49-1.4121,1.8214-.133,1.2608-.3366-.07-.0965.9039-.0619.01.0542.0618-.0113.1063-.1035.04-.2424-.2076-.18.07c-.2425-.139-.4849-.4162-.7863-.4162V40.97a1.8911,1.8911,0,0,0-1.33-.4857l-.3031.1391-.6044-.3466v.139h-.0606v.1381l-.12-.2771-.1818.139-.1212-.2086-.1817.1391-.0606-.1391-.4833.1391-.3014-.2086-.0606.07c-.2424-.2076-.024-.3679-.2664-.507l-.7622-.5869a.3554.3554,0,0,0-.3621-.3467l-.0606.2085-.1212-.2085h-.4832l-.1818.139-.0606-.139c.303-1.5952,9.1893-11.3027,10.5193-12.69,2.4784-2.5656,5.3809-4.438,7.7987-7.2113-.1212-.1391-.1818-.3467-.3636-.3467-.3621.8323-.7241.7629-1.1483,1.2485l-.0606-.07-1.6315,1.4562-.1212-.1391c-.1212.3467-.3015.4162-.5438.5553l-.0606-.07.1818-.2086a2.1035,2.1035,0,0,1,.7846-.9009l-.12-.07.0606-.2076a.3776.3776,0,0,1,.12.2076c.2423-.2076.5453-.3466.7255-.4857v.0695c.2425,0,.9075-1.04,1.209-1.04l-.0591-.1391.3014-.2077-.0606-.1391.303.07c.18-.2077.4227-.4857.7257-.4857l-.0607-.3467c.2409,0,.4227-.2077.6045-.3468l.0606.07.2408-.1391.1212.07-.0606.07a11.6476,11.6476,0,0,0-1.1482,1.3866l.1817.07c.6045-.6933,4.11-3.6751,4.6537-3.7446A4.5229,4.5229,0,0,0,42.61,13.87a4.9371,4.9371,0,0,0,3.1434-2.1495c-.3016-.4161-1.0879-1.6638-1.27-1.6638a.6422.6422,0,0,1-.4833.2076l-.06-.3466-.1819.139-.0606-.2085a1.1649,1.1649,0,0,0,.0606-.4162c0-.4848-.362-.3467-.6649-.6933l.1212-.2772c-.362-.5542-1.7527-2.2189-1.7527-2.6351a7.5994,7.5994,0,0,0-3.3858,1.11l-.1212-.1381c-.2408.0686-1.6921.4153-1.6921.6933l-.1212-.139c-.1818.2076-.4832.2076-.7256.4161l-.1818-.07-.2408.2085-.1819-.07c-.5438.1381-2.4783.6238-2.4783.901l-.1818-.0687a10.8121,10.8121,0,0,0-1.5709.5543l-.1211-.07a.8072.8072,0,0,0-.6044.3467l-.1212-.1381s-.1819.2076-.2424.2076S29.37,9.5,29.3113,9.5l.0591-.07c-.3621,0-.6651.4162-1.0877.4162l-.0606-.07-.1212.1391-.3621-.0695c-.1817.2085-.4226.0695-.5438.3466l-.1212-.0687c-.2424,0-.7256.0687-.8468.3468l-.0606-.1391c-.3621.07-1.45.2077-1.5709.5553l-.2424-.2086c-.18.2086-.2408.1391-.2408.4857l-.1213-.2771c-.3636.2076-.7862,0-1.0286.3465l-.12-.139-.1818.2772-.4227-.1382a.9616.9616,0,0,1-.4241.2772l-.3015-.07-.0606.1391c-.39-.1314-.5818-.07-.9074.3462l-.2409-.1391c-.303,0-.2424,0-.3636.2077l-.3014-.0686c-.3636.2076-.9681.1381-1.21.6238l-.18-.2076c-.6044,0-1.15.4152-1.6937.4152l-.12-.0686-.303.2076-.1212-.0694c0,.278-.4226.0694-.4226.3466a2.389,2.389,0,0,0-.6045-.1381.5962.5962,0,0,0-.4832.2771c-.2777-.0447-.67-.2139-.6649.2767l-.1819-.3467a12.3692,12.3692,0,0,0-1.8132.5552l-.2424-.07-.2424.2772-.0591-.2077-.2424.0686.0606.1391-.1818-.1391c-.1212,0-.4832,0-.4832.2085l-.0606-.1389-.3636.2085-.3015-.139-.665.2076a.2068.2068,0,0,0-.1818-.0686c-.2408,0-.3014.2771-.4226.4162l.2424.1381-.1818.3467c.665,1.179,2.5389,2.4275,3.5054,3.537l.1212-.139c.6044,0,.4832.3465.9074.3465l-.0606.2086L12.384,18.65c0,.2781.4226.5552.6044.6248l.3621-.2086a.5348.5348,0,0,0,.5438.4162l.1211-.07v-.3467c.1818.3467.2424.139.4242.278-.11.0139-.2875-.0557-.3029.1382a5.15,5.15,0,0,0,2.0557.3466.9179.9179,0,0,0,.7255-.2076,15.064,15.064,0,0,0-1.7526-.2085l.12-.2772.1817.2085a1.0182,1.0182,0,0,0,.4833-.139.7716.7716,0,0,0,.968.07l.1213.1381a4.0348,4.0348,0,0,1,.9058-.0687.67.67,0,0,1-.6044.2077c-.0606,0-.1818-.07-.2424-.07l-.18.139c.2409.2771.544.07.7863.2076h.4226a.9181.9181,0,0,0,.7256-.2076l.2409.139.2424-.139.2424.07.18-.139a.7943.7943,0,0,0,.4242.07,3.2931,3.2931,0,0,0,1.45-.4162c-.3014,0-.665.1391-1.0271.1391a.58.58,0,0,1-.3014-.0694l-.1818.138-.303-.138.1818-.1391.303.07.0591-.139a1.177,1.177,0,0,0,.4848.07,4.6551,4.6551,0,0,1,1.0271-.3467c.2424.1391.303.4858.6044.4858l.0606-.07.1213.139.4832-.2781-.0606-.138a3.011,3.011,0,0,1-.7862.07l.3028-.2781.1214.07a.9057.9057,0,0,0,.4226-.07l.3635.07.3014-.2076.1212.0686-.303.2085-.12-.07c-.0648.1643-.1666.1367-.303.1391l.0606.2076h.8469A94.8355,94.8355,0,0,0,10.57,34.7432C9.4808,36.3384,8.2113,39.32,7.1842,40.4984L7.0024,40.36c-.9059,1.04-2.901.9705-2.901,2.8428,0,1.3181,1.6315,2.0114,2.4784,2.4276-.0033-.1269.0271-.2921-.1212-.2785L6.58,45.214l-.1212-.139.303-.2772-.2425-.139a1.2378,1.2378,0,0,0,.3621-.2772l.1212.2772.2424-.0695v.2781c.2408-.07.1818-.3467.2408-.4858H7.2448l.0606-.2076.3621.2076v.4162a1.2756,1.2756,0,0,1-.3621.2772l-.3636-.07a2.2608,2.2608,0,0,0-.2408.6933c0,.07.0606.139.0606.2085l.2408-.2085.1212.2085-.0606.3467.4226-.2085.1213.278L7.366,46.6a3.3154,3.3154,0,0,0,1.33-.7629c-.1818,0-.303.2077-.4848.2077L8.09,45.9764l.1212-.2086.1818.07.4226-.2771.1212.07-.1818.1381.2424.139.1212-.07-.0606-.2771a1.1712,1.1712,0,0,1,.665-.2781c.0606,0,.1212.07.1818.07.12-.2077.3621-.2077.4833-.3467l.2424.139c.5438,0,.9665-.2771,1.51-.2771l-.2408.2076-.1213-.07-.1817.139c.06,0,.1817.07.2424.07a1.9145,1.9145,0,0,0,.6044-.139l.3014.07c1.1267-.3682,2.38.1479,3.5676.0695l-.1818-.2085c.303,0,1.2089,0,1.3907.2085l-.0063.0213h-.151a1.09,1.09,0,0,0,.6716,1.12,1.4649,1.4649,0,0,1-.5041.14c-.8962.8512,2.0542,1.7536,2.586,1.96h1.0082a.3.3,0,0,1,.1346.0351.2674.2674,0,0,0,.133.0351l.0673.07-1.0065,3.7815-.0673.42a1.0375,1.0375,0,0,1-.3021.63.7108.7108,0,0,0-.2365.5607h.1347c-.0116.3747-.3654.0275-.3349.5606l.2-.14v.14a.4168.4168,0,0,1-.1674.3851.3449.3449,0,0,0-.1675.315.3786.3786,0,0,0,.2676.14.2652.2652,0,0,1-.2.0693c-.8185.6832-1.45,3.426-2.0164,4.7624l.202,1.4012h1.0755l.4022-.42h.3367a.5888.5888,0,0,1,.302.1053.3482.3482,0,0,1,.1675.315v1.12c-.06.6053-.7272.9171-.7394,1.5407l-.4695-.42v-.77l.4022-.77v-.35l-1.0737.35H17.431l-.202.28a4.7253,4.7253,0,0,1-.2693.77q-.1346.2793-.4023.84l-.2019.84v.77a35.4318,35.4318,0,0,1-.7389,3.7824l-.3366-.7h-.2c0,.3726-.0121.7-.0345.98a.9018.9018,0,0,1-.5041.7,2.7706,2.7706,0,0,1,.3694.6659,3.0577,3.0577,0,0,0,.5714.8748,1.1708,1.1708,0,0,1,.7389-.21v.35a2.0425,2.0425,0,0,1,.6042.1052,1.8728,1.8728,0,0,0,.4713.1053.2015.2015,0,0,0,.1347-.07v.49c.303-.0009.1275-.1057.3348-.2806.1346,0,.4143.0108.8407.0351a2.6711,2.6711,0,0,1,.7716.1053l-1.2757.42,1.4778.21c0,.0459.0431-.07.1346-.35l.2-.28c.4193.0044.1428.11.6059.35a.1953.1953,0,0,0-.0674.14.6191.6191,0,0,0,.1675.35c.1105.14.2124.21.3021.21a1.3553,1.3553,0,0,1,.6388-.42c.2-.0469.3021-.117.3021-.21l-.0674-.07a1.6559,1.6559,0,0,0,.1347-.5256.8708.8708,0,0,1,.2-.4553l.2693-2.1H22.2l.7388-1.8917v-.0692a.3219.3219,0,0,1,.1019-.2808c.0673-.0468.1-.1638.1-.35l-.4022.14a.5832.5832,0,0,1,.1329-.42,1.6629,1.6629,0,0,0,.2693-.42c-.161-.1167-.418.0247-.4022-.28.2675-.0477.4022-.14.4022-.2808a6.111,6.111,0,0,1,.5369-.98,2.2034,2.2034,0,0,0,.4039-.84l-.2019-.14a1.7413,1.7413,0,0,1,.2348-.98,7.4383,7.4383,0,0,1,.9412-1.0858.9221.9221,0,0,0,.2348-.6659c-.0029-.231-.0544-.2958-.2-.28,0-.1871.0656-.28.2-.28a.3934.3934,0,0,0,.3366-.2106h-.4039a3.7156,3.7156,0,0,1,.4039-1.5056q.4014-.8761.6716-1.646v-.63A6.4781,6.4781,0,0,1,26.7,55.7736a3.3532,3.3532,0,0,1,.6059-.9459.6149.6149,0,0,1-.2019-.42,1.2908,1.2908,0,0,1,.0673-.4195l.1346-.21a11.17,11.17,0,0,0,.6042-1.1213,2.8777,2.8777,0,0,0,.3349-1.1907h.6733l.1329-.21-.4022-.14.2693-.56a1.5641,1.5641,0,0,0,.0656-.5607c0-.1628.0239-.3382.0391-.5091.3854.1466.8008.2287,1.1324.3711.7256.8324,2.5995.6239,3.5676,1.2485l.2408-.07a9.1062,9.1062,0,0,0,2.0127.3874c-.0266,1.0164.46,1.9637.3978,2.984a.293.293,0,0,1-.1019.1755.341.341,0,0,0-.1.2447,1.4676,1.4676,0,0,0,1.2085,1.6109.56.56,0,0,0,.4712-.1755.4759.4759,0,0,1,.4022-.1746c.2444.0129.0079.2319.404.21H39.8c.1894-.04.2806.6017.4713.5608h.3349a.6618.6618,0,0,0,.3021-.0351,1.0306,1.0306,0,0,0,.0345-.3852c.3747-.03.2475.3432.4021.4206a.6348.6348,0,0,1,.3021-.5958.6993.6993,0,0,0,.3022-.665,1.7262,1.7262,0,0,0-.1-.4554,2.1612,2.1612,0,0,1-.1-.665l-.1346-.2106a.21.21,0,0,0,.0673-.14.1638.1638,0,0,0-.1019-.1755.6615.6615,0,0,1-.2347-.1746V52.05c3.6955.3361,6.4719.7357,7.1921.5693l.2424.1381c.2424,0,.4833-.07.665-.07a1.9816,1.9816,0,0,1,.5438.139l.1819-.139a8.0646,8.0646,0,0,0,3.1433-.4153l-.0607-.3467.3031.0686.18-.2077c0,.07.0606.2772.1818.2772l.1819-.1382.0606.0686a13.1252,13.1252,0,0,0,2.4177-1.8723,1.3337,1.3337,0,0,1-.0606-.4848c.1652-.0275.1884.1014.1819.2772a6.6731,6.6731,0,0,0,1.2088-1.9419l-.1213-.1381c.4228-.2086.665-.9019.7864-1.3876l-.0606-.2771ZM45.4516,11.7207l-.1212.139c-.1212-.0695-.1212-.0695-.1818-.2085A.4877.4877,0,0,1,45.4516,11.7207Zm-6.59,3.8142a.2808.2808,0,0,1-.1212.2772c0-.1381,0-.2077.1215-.2772Zm-.4833.2772a.327.327,0,0,1,.2408.07h-.4226c.0609,0,.1215-.07.1821-.07Zm-1.5118,1.179.2408-.3466.1212.0694c.1818-.3466.5438-.5551.7862-.8323l.1212.2772a3.9123,3.9123,0,0,1-1.1483.9018l-.06.1381a1.0829,1.0829,0,0,1-.1212-.4153Zm-1.9952.2771c0,.07-.0606.1391-.0606.2086Zm-22.549,0c-.0606,0-.0606,0-.1212-.07.0848.0038.112-.0234.1818.07Zm2.3571-.3466v.3466l-.1212-.1381Zm.1211,2.5657c-.06,0-.1211-.07-.1818-.07l.1818-.1381c.1212,0,.1818.0694.2424.2076Zm.3637-2.4267.059-.139.1818.139Zm4.231-.139c.0606,0,.1212.139.1212.2085-.1212,0-.1818-.07-.2424-.2085Zm.2424.4162.059.07-.12.139-.0606-.07Zm-.303.2771-.3014-.2076.2408-.1391a.7041.7041,0,0,1,.061.3467Zm-.7256-.0686.06.1381-.1211.07a.2794.2794,0,0,0,.0615-.2081Zm-.3015-1.318-.0606.07-.1212-.2086c.061,0,.1216.0691.1822.1386Zm-1.5119-3.19c0-.1391,0-.2085.1212-.2781a.2819.2819,0,0,1-.1208.2786Zm.1818,4.8542a.2543.2543,0,0,0,.0607-.139h.059a.14.14,0,0,1-.1193.14Zm.3015.9705v-.1391l.1818.07a.2049.2049,0,0,0-.1814.07Zm.6044.07a.2054.2054,0,0,0,.1818-.07.4627.4627,0,0,1,.0606.2771Zm.3636.6238-.1212-.07c.0606-.1382.1212-.1382.2424-.1382Zm.3621-.07-.1818-.1382.3029-.0694.1819.0694Zm.303-2.7039.18-.1389-.12.2076Zm.1212,2.6344.2408-.2077.1818.2077Zm.6634.07-.18-.1382c0-.139.18-.139.2408-.139a.4639.4639,0,0,0-.06.2772Zm.0606-2.7734-.12-.1389.12-.1391Zm.2424.07a.1409.1409,0,0,1,.1212-.1389c.0606,0,.1212.0694.1818.0694C20.1817,16.7139,20.1209,16.7836,20,16.7834Zm.2424-.3475.12-.2076.1818.4162Zm.3015.8323c0-.07,0-.07.06-.1381a.4617.4617,0,0,1,.0606.2772Zm.3636.1391c-.0606-.07-.0606-.07-.0606-.1391h.2408Zm.3014-.2086a.2769.2769,0,0,0,.0606-.2076c0,.07.0606.139.0606.2076Zm.2424.07v-.2076l.18.1381Zm.2408-.2771.1818-.2772a.2893.2893,0,0,1-.1814.2767Zm.7862.139a.7674.7674,0,0,1-.362-.4162l.0606-.2085.4226.4162Zm.9075-.2085-.1818-.07c.1212-.1382.2424-.1382.362-.2076Zm.4226-.07-.1211.07.06-.2771.1212.1389ZM6.096,45.0755l-.0606-.2076.0606-.2086Zm-.0606-.6934.12-.4161.2424.2085a.5031.5031,0,0,1-.362.2076ZM7.97,45.6307l-.1212.1381-.0606-.07.2424-.2077.12.07Zm-.2423-1.1095h.3029l-.1212.1381Zm1.027-.2086a1.1826,1.1826,0,0,1-.4226.2086l-.1212-.07v-.3467a1.2008,1.2008,0,0,0,.4242.2076l-.303-.4161a.9034.9034,0,0,0-.4227.07l-.1817-.2076a.9055.9055,0,0,1,.4226-.07l.0606.1382a1.599,1.599,0,0,1,.5438-.1382l-.12.1382Zm.4242-.1381V43.966c.0606.07.0606.07.0606.139Zm.0606-.4161c-.0606,0-.0606,0-.0606-.07a.2056.2056,0,0,1-.1212-.07l.0606-.139c0,.07.0606.139.0606.2085l.1212-.139c0,.07-.06.14-.06.2095Zm.3015.1381-.0606.07c-.0607,0-.0607,0-.0607-.07.0607,0,.0607-.07.1213-.07Zm.4242.07-.1213-.2772.3015.2077c-.06,0-.1208.069-.18.069Zm2.6585-6.1019c.0606-.07.0606-.07.1212-.07l.1213.1381a.3322.3322,0,0,0-.2421-.0686ZM22.66,30.7914l-.1819-.07.1819-.2085Zm.2423-.4162-.1817.2772c0-.6933.2408-.4162.5438-.7629l.0606.07c-.1208.1381-.242.4152-.4223.4152Zm.7848-.7628-.1213-.1391a1.2082,1.2082,0,0,1-.18.4162l-.1212-.2076.1212.0686.5438-.97.2424.07.12-.2077.0606.2077Zm.8468-.9019-.0607-.1381c0-.3467.6651-.9714.9075-1.11,0,.4846-.604.8313-.8464,1.2475Zm1.2088-.8315-.0606-.139.0606-.07Zm.3636-1.0409a1.3463,1.3463,0,0,1-.4847.5553L25.5,27.2543a4.0689,4.0689,0,0,1,.7863-.6933l.0606.139ZM27.677,25.382l-.1817-.1382A1.9837,1.9837,0,0,1,26.408,26.7l-.0606-.2771a5.3756,5.3756,0,0,1,1.33-1.3875l.1212.0694a6,6,0,0,1,1.3906-1.4562,3.8688,3.8688,0,0,0,.906-.7628c-.0606.5547-1.1483,1.6642-2.4178,2.4957Zm-.1817-1.2475.1211-.2781.0606.139Zm.4848-1.1791a.4658.4658,0,0,0,.06-.2771l.12.2076Zm.3014-.3466c.0606-.07,0-.2085.1212-.2085Zm1.9951.3466-.1818-.1391a1.0179,1.0179,0,0,0,.303-.6933l.2424.3466c.059-.1381.12-.3466.3014-.3466,0,.4156-.4828.4156-.6646.8318Zm.7862-.8324c0-.2076.1818-.3467.3015-.4856l.1817.07a2.5443,2.5443,0,0,1-.4828.4151Zm1.1483-2.3572v-.07l.1211-.2085.1818.07Zm.9074-.7627a.3953.3953,0,0,1,.18-.3476l.1211.139Zm.8453-1.3877c-.0606-.0686-.0606-.0686-.0606-.138h.0606Zm-1.45-.7627v.7627l-.0606.07c-.0607,0-.0607,0-.0607-.07.0614-.0005.0614-.0691.122-.7633Zm-.4242.8323h-.18a.1407.1407,0,0,1-.1211-.1381Zm-.18.2772c0,.139-.0606.139-.1211.2085Zm-.6059.6247.0606.2076-.2409-.07Zm-.6045.4848-.059.07-.1212-.2076c.061-.0011.1216.0684.181.137Zm-.3014-.2077c0,.1391-.0606.2077-.1818.2077Zm-.6044.6239h.0606a.4824.4824,0,0,1,.3014.07l-.1212.139.0606.1381c-.12.1391-.18.1391-.18.3467l-.1817-.2076.3014-.2772Zm-.2425,0,.1819.139-.2424.2076-.0606-.1381Zm-.665,1.11.1818.139c-.1212,0-.1818.07-.303.07ZM28.7647,14.98v-.2771c0,.07.0606.07.0606.139a.2508.2508,0,0,1-.06.1378Zm.1818,3.8837c0-.1391.1818-.1391.2424-.1391v.2086a.3286.3286,0,0,1-.242-.07Zm-.362-4.577.18.139.3636-.07a.4165.4165,0,0,1-.3636.2085v-.1391l-.12.2077-.1817-.1382Zm.06.4856c-.06.07-.06.07-.06.1391-.0606-.0695-.0606-.0695-.0606-.1391Zm-.1817,6.1019a.22.22,0,0,1-.2424.2085l-.0606-.2085Zm-1.1483.6247c0,.1381,0,.2076-.1212.2076.0009-.1386.0009-.2081.1221-.2081Zm0,.5543.18.07h.1211a1.0091,1.0091,0,0,1-.4226.139Zm-.0606.3467-.303.2085L26.89,22.4ZM26.83,15.8821l.1818.139-.2409.1383a.4743.4743,0,0,0,.06-.2778Zm-.0591.4857c-.1211-.07-.1211-.139-.1211-.2781Zm-.3029-.4162a.22.22,0,0,1-.2424.2077Zm-.8468.1381c.06.07.06.1391.06.2781h-.06ZM25.38,24.2725c-.026.3514.149.3007.3617.208a.636.636,0,0,1-.1817-.4162.3287.3287,0,0,0,.3029.2077c.1819-.2077.3015-.4848.6045-.5543l-.1212-.2085a.3929.3929,0,0,1,.1818-.3467l-.1212-.1381.1212-.1391.1818.4857a3.0647,3.0647,0,0,0,.665-.6247l-.1212-.0686.3015-.1391v-.2771l.1817.1382.0606-.2077-.1212-.139c.1819-.0687.3031-.2772.4833-.4848a.5831.5831,0,0,1-.0606-.3467l.2424.1381.1212-.1381.362.2076.4242-.4162-.0606-.2771.362-.3465.0606.2771a.5813.5813,0,0,0,.0606-.3468.4107.4107,0,0,0,.2424.07c.3015,0,.18-.4162.4833-.4162-.1212-.139-.1212-.4161-.1818-.5552l.303.1391c.1212-.2078.4227,0,.4227-.4857l.362.07.3031-.4857-.1214-.1381.2425-.07v.2771l.2409.07a1.0068,1.0068,0,0,1,.3635-.9009v.4153c.2409-.2772.0607-.3467.362-.3467V17.755a.6149.6149,0,0,1,.9075-.4853.622.622,0,0,1,.5438-.3466l.0606.139c-.3621.2076-1.0271.6934-1.0271,1.179l-.1212-.278-.1212.2085.1212.1382c0,.2085-.3636.3466-.5438.4161l.18-.3467a4.5578,4.5578,0,0,0-.7256.8324l-.12-.07c-.2423,0-.9074.6247-1.0891.8324a2.6871,2.6871,0,0,1,.06.6933c-.18,0-.18-.3467-.3014-.4857a1.68,1.68,0,0,0-.3636.5552l-.1211-.07A9.0791,9.0791,0,0,1,28.0984,22.47L28.0393,22.4a1.6166,1.6166,0,0,0-.6059.9713l-.18-.139c-.4241.2772-.7255.7628-1.2088,1.04l.06.139a2.3034,2.3034,0,0,0-.9407.5727,2.9409,2.9409,0,0,1,.2757-.2955l-.2424-.2772Zm-.303-6.2409V18.24l-.0606-.139Zm-.1212,6.1028a.1412.1412,0,0,1,.1212-.1391.3772.3772,0,0,0-.1212.2086Zm-.1212-8.599v.3467l-.18-.2772Zm-.18,1.04-.1212-.1391c.1219,0,.1219.0691.1219.1387Zm-.0606,2.08s-.1819,0-.1819-.0686ZM24.23,25.7982l-.0591-.4162a.4271.4271,0,0,1,.3014-.1382c.14.0062.1183.1647.1213.2488-.2027.1933-.4048.396-.6021.61Zm-3.1434,3.398c-.0606,0-.1211,0-.1211-.07.0612,0,.1218,0,.1218.0695Zm-.3014-.07-.1213.139-.0606-.07c.0613-.069.0613-.069.1826-.069Zm-.6651-.8324.1212.2781L20.06,28.71Zm-1.4512,3.26c-.06.0686-.06.0686-.06.1381h-.0607a.14.14,0,0,1,.1214-.1381Zm-.1211-1.4562-.1212.2076-.0591-.139a.2025.2025,0,0,1,.1809-.0686Zm-.1212,1.8715.1212.1389-.0607.07-.12-.1391Zm-.3015-1.2477.1818.139-.1818.2077Zm-.1212,1.6638.0606.2086h-.2424Zm-.2424-1.2476a.4165.4165,0,0,1-.12.3467.5811.5811,0,0,1,.1206-.3467Zm-1.5709,2.219c.1818.07.2424.2771.362.4162l-.362.1381Zm-.2424.1381.1212.2781H15.888a.4664.4664,0,0,0,.0612-.2781Zm-.665,2.8437.1212.2077-.2409.139-.1213-.139Zm-.6651-1.04c.0606.0686.0606.0686.0606.1381h-.1212Zm-.12,2.08-.1818.1391-.1212-.07.1818-.3465Zm-.303-.2771-.1212.0686-.2408-.2771c.1595-.0035.3786-.0292.363.2085Zm-.303-.6943c0,.1391-.059.2781-.18.2781l-.0607-.3468Zm-.6044-.6237c-.0607,0-.12-.07-.18-.07l.3015-.1381.1211.2077Zm3.0237,1.5951.1212-.2771.0589.2076-.12.139Zm-.0606-.7628.1211-.139.12.07a.3267.3267,0,0,0-.24.069Zm.1818,1.8724.5437-.6934-.1211-.139c.3015,0,.4833-.3467.7257-.4857l-.1212-.1381c.4832,0,.1212-.3467.4226-.3467a1.4644,1.4644,0,0,1,.7257-.9018l-.1212-.2772c.8081-.2317,1.1925-1.5927.1212-1.6652,0,.139,0,.3466-.1212.3466l.1212-.3466-.2409-.3467-.303.07c-.4226.4162-1.5725,1.5257-1.5725,2.15l.0606.1391c-.362.139-.4226.4856-.6044.8323-.0606-.07-.18-.07-.3014-.07v.6238l-.1212-.3466a4.0174,4.0174,0,0,0-.6651,1.11v-.07c-.4832,0-.5438.8324-1.027.8324a.2885.2885,0,0,0-.1819-.2771.7747.7747,0,0,0,.3015-.2086c-.18,0-.18-.0686-.18-.2771a.84.84,0,0,1,.18-.4162,1.4709,1.4709,0,0,0,.2424.4162q-.1818,0-.1818.2085c.2424,0,.303-.2781.3636-.4857l.1212.1391a1.7914,1.7914,0,0,1,.4226-.5553c-.1212-.2771-.1817-.2771-.4226-.4161l.18-.2772a.522.522,0,0,1,.303.4857c.3015,0,.4832-.7629.6045-.9019l-.0606-.139a1.8139,1.8139,0,0,1,.2424-.4848l-.0606-.2085.18-.3467.2424.2781c0-.3476.362-.2085.4226-.4858a.6721.6721,0,0,1-.362.07c.4833-.3467-.0606-.6247.7256-1.1791l.2409.2077a3.48,3.48,0,0,0-.4227.8323,7.4547,7.4547,0,0,0,.6651-.7628l-.303-.6238c.1212,0,.1818.07.2424.2077l.3636-.4849c-.1818,0-.1818,0-.1818-.2084l.3014.07.1211-.2085.1212.278.1212-.139-.1212-.3467.303.2077a3.7346,3.7346,0,0,1,.4226-.6239l-.1211-.2771.2424-.2085h.3014l-.1211-.3467-.18.2781-.1213-.07.0606-.3468a.7284.7284,0,0,1,.6045.2077l.0606-.07a1.8011,1.8011,0,0,1-.303-.4153l.303-.07-.1212-.07.3014-.4162.1212.2077-.0607.0694-.12-.1381a1.424,1.424,0,0,0,.12.4848l.3031-.2771a1.3389,1.3389,0,0,0-.0607-.4857l.1818.2085a4.0267,4.0267,0,0,0,.4832-.5552L20.482,29.61h.3636l-.0606-.2086a.2036.2036,0,0,0,.18.07c.2424,0,.2424-.3465.4242-.5542l-.2424-.0694.0606-.1391.1818.2085.1818-.2771a.4561.4561,0,0,1-.2424-.3476l.0606-.1381.2408.07.1212-.2085.2424.3465c0-.2076.6651-.7627.7863-.9009l-.1212-.2086.0606-.2076.2408.2076a3.1831,3.1831,0,0,0,.665-1.1789l.0555.3809a6.2653,6.2653,0,0,0-.9007,1.2838l.0606.07c-.1817,0-.1817.1381-.3031.2772l.1214.139-.2424-.0695a2.9806,2.9806,0,0,0-.4227.4857l.0606.2077-.1818-.1391c-.1818.4162-.6044.5552-.7862.9714l.1818.3467-.2424.07-.0606-.139c-.12.139-.059.3466-.18.4856l-.0607-.2085c-.2423.2085-1.0286.9019-1.0286,1.2486l.0606.1381c-.665,0-1.0271,1.1095-1.2694,1.6646.1817,0,.2423.2077.2423.4162h.4227l.0606-.2085-.1212-.2077.0606-.1389.1818.0694a3.3358,3.3358,0,0,0-.1212.7629l.303.3467c.18-.6934.7256-.4857,1.0271-1.179h-.0606l.1817-.1382-.1211-.139.8468-.9018-.0606-.1382c.3014,0,.7256-.6238.9665-.97l.0606.2077c-.7257,1.179-3.0222,4.7152-3.7478,4.7152l.1211.2085a1.2938,1.2938,0,0,0-.665.7628l-.1818-.07c0,.5543-.9059,1.5257-1.2088,1.8723Zm.724-2.3581c0-.07,0-.1381.0607-.1381.001.0682.001.1382-.06.1382Zm.1212-1.3867.0606-.07a.28.28,0,0,1,.0606.2086l-.0606.0686a.279.279,0,0,0-.0595-.2072Zm.2424-.2771.1818-.07a.28.28,0,0,0-.0606.2076Zm.5438.3466c0,.1382,0,.1382-.1212.1382Zm-.1212-.6933q0-.2085.1818-.2085Zm3.5676-3.6752-.0606-.139.18-.139Zm.12,1.1782-.18-.1381c.0611,0,.1807.0695.1807.1381Zm-.7846.8323a.2057.2057,0,0,1-.1819-.07l.0606-.2076ZM16.49,69.5383c-.2031.0314-.1564-.6867,0-.63.2429-.0513.2981.6666.0007.63Zm.6043-2.1715-.4023,1.0512a4.615,4.615,0,0,1,.4023-2.4513Zm1.7471-3.0813c.4192-.0556.4779.8215,0,.77-.3885.0481-.3325-.8281.0007-.77Zm-1.0755,2.6611.1346-.4194a4.3877,4.3877,0,0,0,.1347-.701l.3349-.42a13.62,13.62,0,0,1-.1,2.5216,1.8384,1.8384,0,0,0-.1.63l-.404.351ZM19.1436,72.41H18.17l-.0674-.14c-.05-.13.5112-.0488.7044-.07.38,0,.5714.0233.5714.07.0007.0923-.0784.14-.2341.14Zm.4368-7.0041c-.3884.0483-.3332-.8286,0-.77.4186-.0557.4785.8214.0006.77Zm1.4777,7.914-.1347-.1395h.1347ZM49.202,50.4l.0606.0687h-.18Zm-.5439,0a.3769.3769,0,0,1-.1212.2077l-.12-.07Zm-14.9347-.3311c-.0606.0686-.0606.0686-.1817.0686.0605-.0688.0605-.0688.1817-.0688Zm1.408-6.6881-.031-.0356h.0666c-.017.0128-.0356.0263-.0356.0354Zm5.8643,6.44c3.3585.2322,7.1721.5094,7.24.5094-.0342.0778-3.8669-.1911-7.2408-.441l.0151-.0315c0-.02-.0123-.02-.0144-.0368Zm-.8838-7.7428-.0428.049v-.049Zm-7.8354-2.83q.738-2.346,1.3431-4.1667c.0527.2707.2535.4889.2693.77v.1395l.7388,1.8916-.1346.49a1.5921,1.5921,0,0,0,.2348.77c.1574.2824.3474.8088.1693,1.0857-.0824.0293-.067.2266-.0674.3146l.1346.56a.446.446,0,0,1-.3367.14l.3367.07v.14c.0234.1618-.1585.2582-.1345.42h.1346c.0188.072-.0551.5273.0673.49v.9021L35.01,43.24l-.1212.07-.1818-.2086V43.38l-1.456-.3475-.1818.2085-.6913-.2609a2.9881,2.9881,0,0,1-1.1283.1914c0-.18-.1286-.24-.2673-.2815.4306-1.0638.8615-2.2721,1.2937-3.6421Zm-14.5139-.4131.1212.07-.18.07ZM21.7977,72.13v-.21l.1347.21ZM31.0027,50l-.1212-.139c.0606,0,.1818.07.2424.07-.0607.0686-.0607.0686-.1213.0686Zm.6045.2076-.1213-.07h.1819Zm.1818.07-.1212-.2078.2423.1381Zm.3014.0694-.1212-.1391a.3291.3291,0,0,1,.2424.07c-.0607.0683-.0607.0683-.1216.0683Zm1.7542.5543-.3635-.2772.2424.139.1211-.4855Zm.6651.139-.303-.2077.4831.1383Zm.5438-2.2885c-.06.07-.06.07-.1211.07l-.0607-.07Zm.18,2.4275-.3014-.139.2408-.07.2424.139Zm.4847.1381.18-.3466.0044.0028V50.98l.0016-.0054a2.2828,2.2828,0,0,0,.77.194c.0079.0766.0209.1561.0235.23-.2608-.0227-.48-.0415-.6427-.0551A.4677.4677,0,0,0,35.97,51.33v.0063c-.1447-.0129-.2376-.02-.2515-.02Zm1.4953,3.9a1.5065,1.5065,0,0,0-.0328.2448q-.3366,0-.3367-.49c-.0014-.14-.0228-.5148.1347-.4907C37.2775,54.453,37.2775,54.9653,37.2135,55.2171Zm-.4368-1.1555v-.77a.4144.4144,0,0,1,.202.35.533.533,0,0,1-.0328.21.4817.4817,0,0,0-.0345.2106Zm0-2.0311a.1468.1468,0,0,1-.0328.1052.1391.1391,0,0,0-.0345.1044c.0047.1216.08.0176.0673.21-.5973-.1143-.5405-.7186-.3354-.77a1.4823,1.4823,0,0,1-.1754-.2134c.1434.0191.2929.0385.4456.058a1.7494,1.7494,0,0,0,.0654.5047Zm12.1236.52h-.5439c-.0977-.0747-3.6843-.4248-7.0119-.733V51.75l-.0369-.0625c3.5568.3331,7.5965.6459,7.8335.7233Zm.7257-.07a.6805.6805,0,0,1-.3636-.07l.3636-.07a.904.904,0,0,0,.4226.07.7913.7913,0,0,1-.4224.0695Zm7.8592-9.7085a.8641.8641,0,0,1-.4242-.8323,1.73,1.73,0,0,1,.4244.8317ZM56.94,44.1587A.4646.4646,0,0,1,57,43.8815a.5744.5744,0,0,1,.1212.3467L57,44.3672l-.0606-.07ZM56.3354,43.05a.2767.2767,0,0,1,.0606.2076l-.0606.07Zm.1211,2.3571.1818-.2076-.0606-.2781.1213.0694c.18-.0694.1212-.4161.4226-.4847-.2424.2771,0,1.7333-1.1483,2.3571l-.1212-.2076a2.805,2.805,0,0,0,.6043-1.04l-.1211-.2781Zm.4833.97-.0606.4162-.12-.0686-.1819.4153-.1212-.1382c.0606-.139.1818-.2771.3031-.2771Zm-.9665-.6238c0,.0694,0,.0694.0606.139a.141.141,0,0,1-.1212-.139Zm-.1819.2085.1213.2077a.2054.2054,0,0,1-.1819-.07Zm-.6649,3.12.0606.1391a.5578.5578,0,0,1-.1212.2771l-.0607-.1391Zm-1.0271.6933.1818.2086-.1818.1381Zm-.2424-9.916v.4162l-.0606-.2077Zm.1212,10.2627c0,.07-.0606.07-.1212.07v-.2076ZM50.4712,52.48l.1213-.1391.1211.07a.3286.3286,0,0,0-.2422.0692Zm0-2.08.0606-.07a.1783.1783,0,0,1,0,.2772.279.279,0,0,1-.06-.2071Zm0-11.0264c0-.4848.1213-.4153.303-.6238a1.9134,1.9134,0,0,0-.3028.6237ZM50.8954,52.41l.1212-.2076.12.2076Zm.1212-14.0074c0-.07.0591-.2076.0591-.2771l.0606.1382Zm.7241,14.077-.3621-.2077.3621-.139ZM51.5,51.9256c0-.07,0-.07.0606-.139a.4639.4639,0,0,1,.0607.2772Zm.665-.139-.2424-.2085c.1213,0,.303-.0687.4227-.0687Zm.7863-.4161.0591-.07c.1212,0,.1212.1391.1212.2772Zm-1.2694-9.1533L51.5,42.0087a1.1274,1.1274,0,0,1,.5439-.5543l.1212.1381v-.4153l.3621-.2085-.0606.2771.2423-.2076-.1212-.2077a11.1435,11.1435,0,0,0,.9075-1.457l.0606.2085.18-.07a5.7914,5.7914,0,0,1-2.0538,2.7051Zm4.2916,7.7666a2.8485,2.8485,0,0,1-1.1482,1.04l-.2425-.07-.3014.3466-.0606-.2076-.4242.2076-.1212-.07.0606-.3467a.4107.4107,0,0,0,.2424.07c.1818,0,.1818-.2077.3621-.3467,0,.2771.1212.2076.2423.3467,0-.6934.3621-.2077.4833-.6934l.1212.07,2.1769-2.5657-.0606-.2771h.2408c-.3013.3467-.12,1.5943-1.5708,2.4962ZM57.6655,47.14v-.3467l.2423-.1381-.1212.2771h.1818Zm.7256-1.5943a.8306.8306,0,0,1-.1211-.5553V44.644a.9318.9318,0,0,1,.1211.5552Z"
        style="fill:#fff" />
</svg>
