<?xml version="1.0" encoding="utf-8"?>
<svg viewBox="320.848 -357.162 388.605 388.605" xmlns="http://www.w3.org/2000/svg">
  <title>Magnifying Glass</title>
  <path d="M 598.582 -112.756 L 581.029 -112.756 L 574.808 -118.755 C 596.582 -144.084 609.691 -176.968 609.691 -212.74 C 609.691 -292.505 545.035 -357.162 465.269 -357.162 C 385.504 -357.162 320.848 -292.505 320.848 -212.74 C 320.848 -132.975 385.504 -68.319 465.269 -68.319 C 501.042 -68.319 533.925 -81.428 559.255 -103.202 L 565.254 -96.981 L 565.254 -79.428 L 676.347 31.443 L 709.453 -1.662 L 598.582 -112.756 Z M 465.269 -112.756 C 409.945 -112.756 365.285 -157.416 365.285 -212.74 C 365.285 -268.065 409.945 -312.725 465.269 -312.725 C 520.594 -312.725 565.254 -268.065 565.254 -212.74 C 565.254 -157.416 520.594 -112.756 465.269 -112.756 Z" fill="currentColor"/>
</svg>
