<?xml version="1.0" encoding="utf-8"?>
<svg viewBox="136.554 241.768 205.106 205.106" xmlns="http://www.w3.org/2000/svg">
  <title>Globe</title>
  <path fill="currentColor" d="M 239.107 241.768 C 182.498 241.768 136.554 287.712 136.554 344.321 C 136.554 400.93 182.498 446.874 239.107 446.874 C 295.716 446.874 341.66 400.93 341.66 344.321 C 341.66 287.712 295.716 241.768 239.107 241.768 Z M 157.065 344.321 C 157.065 338.065 157.885 331.912 159.219 326.066 L 208.239 375.087 L 208.239 385.342 C 208.239 396.623 217.468 405.852 228.749 405.852 L 228.749 425.645 C 188.446 420.518 157.065 386.06 157.065 344.321 Z M 299.511 399.699 C 296.844 391.393 289.255 385.342 280.026 385.342 L 269.77 385.342 L 269.77 354.576 C 269.77 348.936 265.155 344.321 259.515 344.321 L 197.983 344.321 L 197.983 323.81 L 218.494 323.81 C 224.134 323.81 228.749 319.195 228.749 313.555 L 228.749 293.045 L 249.26 293.045 C 260.541 293.045 269.77 283.815 269.77 272.534 L 269.77 268.329 C 299.818 280.431 321.149 309.966 321.149 344.321 C 321.149 365.652 312.842 385.137 299.511 399.699 Z"/>
</svg>
