<?xml version="1.0" encoding="utf-8"?>
<svg viewBox="0 0 500 500" xmlns="http://www.w3.org/2000/svg">
  <style>
    @media (prefers-color-scheme: dark) {
      :root {
        filter: invert(100%);
      }
    }
  </style>
  <ellipse style="stroke: rgb(0, 0, 0);" cx="250" cy="250" rx="250" ry="250"/>
  <path style="fill: rgb(255, 255, 255);" d="M 267.053 412.121 C 293.351 408.954 334.613 391.261 351.441 381.9 C 368.267 372.54 386.904 348.266 378.471 341.672 C 370.038 335.075 307.172 375.216 254.662 364.384 C 202.155 353.553 184.84 346.69 163.128 326.866 C 141.417 307.042 153.249 254.022 161.273 238.526 C 169.298 223.031 184.776 212.805 228.357 206.298 C 271.938 199.792 367.653 226.354 369.596 267.863 C 371.537 309.371 309.051 314.249 284.7 309.843 C 260.345 305.439 324.867 300.664 339.055 291.927 C 349.89 285.256 356.869 273.128 345.21 254.976 C 338.245 244.134 317.579 235.334 306.314 229.13 C 286.414 218.171 206.019 219.945 200.034 244.629 C 197.395 255.514 194.49 275.394 195.073 283.697 C 195.805 294.131 223.332 313.438 223.332 313.438 C 223.332 313.438 237.962 326.603 286.813 337.684 C 322.12 345.691 381.521 325.83 396.474 309.089 C 415.26 288.056 418.822 280.012 422.267 258.495 C 426.493 232.106 422.776 196.752 404.118 177.619 C 357.578 129.896 265.636 87.707 229.364 91.925 C 209.334 94.257 157.285 103.835 117.667 139.614 C 85.524 168.647 72.111 192.458 73.144 219.91 C 75.715 288.334 86.566 303.862 86.566 303.862 C 86.566 303.862 117.613 361.328 140.874 383.486 C 166.213 407.623 198.683 420.353 267.053 412.121 Z" transform="matrix(0, 1, -1, 0, 501.593002, 4.663773)"/>
</svg>