<?xml version="1.0" encoding="utf-8"?>
<svg viewBox="0 0 500 500" xmlns="http://www.w3.org/2000/svg">
  <title>Zoid Archive Logo</title>
  <desc>Spiral Graphic</desc>
  <path style="fill: rgb(255, 255, 255);" d="M 279.475 476.646 C 316.964 472.131 375.783 446.909 399.771 433.565 C 423.757 420.222 450.324 385.62 438.303 376.22 C 426.282 366.816 336.666 424.037 261.812 408.596 C 186.963 393.156 162.28 383.373 131.329 355.114 C 100.38 326.854 117.247 251.274 128.685 229.184 C 140.125 207.096 162.189 192.518 224.314 183.243 C 286.439 173.968 422.882 211.833 425.652 271.004 C 428.419 330.174 339.344 337.128 304.631 330.847 C 269.913 324.569 361.89 317.762 382.115 305.308 C 397.561 295.798 407.509 278.509 390.889 252.634 C 380.96 237.178 351.501 224.634 335.442 215.79 C 307.075 200.168 192.471 202.696 183.939 237.884 C 180.177 253.4 176.036 281.74 176.867 293.576 C 177.911 308.449 217.151 335.972 217.151 335.972 C 217.151 335.972 238.006 354.739 307.644 370.535 C 357.974 381.949 442.651 353.637 463.967 329.772 C 490.746 299.789 495.824 288.323 500.735 257.65 C 506.759 220.032 501.46 169.635 474.863 142.36 C 408.52 74.331 277.455 14.19 225.749 20.203 C 197.196 23.527 123 37.18 66.524 88.184 C 20.704 129.571 1.583 163.513 3.056 202.647 C 6.721 300.186 22.189 322.321 22.189 322.321 C 22.189 322.321 66.447 404.24 99.606 435.826 C 135.727 470.234 182.013 488.38 279.475 476.646 Z" transform="matrix(0, 1, -1, 0, 502.977604, -2.977451)"/>
</svg>
