<?xml version="1.0" encoding="utf-8"?>
<svg viewBox="175.027 87.611 306.008 297.095" xmlns="http://www.w3.org/2000/svg">
  <title>Reddit Logo</title>
  <rect x="175.027" y="87.611" width="306.008" height="297.095" style="fill: rgb(33, 34, 34);"/>
  <circle id="circle83" r="4.058" cy="288.695" cx="364.97" class="st0" style="fill: rgb(255, 69, 0);"/>
  <path id="path85" d="M 307.67 305.823 C 309.665 305.823 310.765 304.379 310.696 302.934 C 310.628 302.178 310.559 301.696 310.49 301.283 C 309.321 296.056 305.056 292.203 299.966 292.203 C 293.981 292.203 289.166 297.638 289.166 304.31 C 289.166 310.983 294.05 316.417 299.966 316.417 C 303.68 316.417 306.363 315.041 308.358 312.909 C 309.321 311.877 309.114 310.226 307.945 309.4 C 306.982 308.713 305.813 308.988 304.918 309.676 C 304.093 310.363 302.511 311.808 299.966 311.808 C 296.939 311.808 294.394 309.194 293.775 305.755 L 307.67 305.755 L 307.67 305.823 Z M 299.966 296.743 C 302.717 296.743 305.056 298.876 305.881 301.765 L 293.981 301.765 C 294.875 298.876 297.214 296.743 299.966 296.743 Z" class="st1" style="fill: rgb(255, 255, 255);"/>
  <path id="path87" d="M 289.372 294.542 C 289.372 293.442 288.547 292.479 287.446 292.341 C 284.144 291.859 281.049 293.098 279.26 295.299 L 279.26 295.024 C 279.26 293.648 278.16 292.754 276.99 292.754 C 275.752 292.754 274.72 293.786 274.72 295.024 L 274.72 313.596 C 274.72 314.835 275.615 315.866 276.853 315.935 C 278.16 316.004 279.26 314.972 279.26 313.665 L 279.26 304.104 C 279.26 299.839 282.425 296.399 286.827 296.881 L 287.309 296.881 C 288.478 296.743 289.372 295.78 289.372 294.542 Z" class="st1" style="fill: rgb(255, 255, 255);"/>
  <path id="path89" d="M 367.24 297.019 C 367.24 295.78 366.208 294.749 364.97 294.749 C 363.732 294.749 362.7 295.78 362.7 297.019 L 362.7 313.665 C 362.7 314.903 363.732 315.935 364.97 315.935 C 366.208 315.935 367.24 314.903 367.24 313.665 L 367.24 297.019 Z" class="st1" style="fill: rgb(255, 255, 255);"/>
  <path id="path91" d="M 333.465 284.43 C 333.465 283.192 332.433 282.16 331.195 282.16 C 329.957 282.16 328.925 283.192 328.925 284.43 L 328.925 294.542 C 327.412 293.029 325.417 292.203 323.147 292.203 C 317.163 292.203 312.347 297.638 312.347 304.31 C 312.347 310.983 317.231 316.417 323.147 316.417 C 325.486 316.417 327.412 315.591 328.994 314.078 C 329.2 315.11 330.095 315.935 331.195 315.935 C 332.433 315.935 333.465 314.903 333.465 313.665 L 333.465 284.43 Z M 323.147 311.877 C 319.639 311.877 316.819 308.506 316.819 304.31 C 316.819 300.114 319.639 296.743 323.147 296.743 C 326.655 296.743 329.476 300.114 329.476 304.31 C 329.476 308.506 326.655 311.877 323.147 311.877 Z" class="st1" style="fill: rgb(255, 255, 255);"/>
  <path id="path93" d="M 357.128 284.43 C 357.128 283.192 356.096 282.16 354.858 282.16 C 353.62 282.16 352.588 283.192 352.588 284.43 L 352.588 294.542 C 351.075 293.029 349.08 292.203 346.81 292.203 C 340.826 292.203 336.01 297.638 336.01 304.31 C 336.01 310.983 340.894 316.417 346.81 316.417 C 349.149 316.417 351.075 315.591 352.657 314.078 C 352.863 315.11 353.758 315.935 354.858 315.935 C 356.096 315.935 357.128 314.903 357.128 313.665 L 357.128 284.43 Z M 346.81 311.877 C 343.302 311.877 340.482 308.506 340.482 304.31 C 340.482 300.114 343.302 296.743 346.81 296.743 C 350.318 296.743 353.139 300.114 353.139 304.31 C 353.139 308.506 350.318 311.877 346.81 311.877 Z" class="st1" style="fill: rgb(255, 255, 255);"/>
  <path id="path95" d="M 378.728 313.665 L 378.728 296.743 L 380.723 296.743 C 381.823 296.743 382.717 295.918 382.786 294.886 C 382.855 293.717 381.961 292.754 380.791 292.754 L 378.728 292.754 L 378.728 289.589 C 378.728 288.351 377.833 287.319 376.595 287.251 C 375.288 287.182 374.188 288.214 374.188 289.521 L 374.188 292.823 L 372.33 292.823 C 371.23 292.823 370.336 293.648 370.267 294.68 C 370.198 295.849 371.092 296.812 372.262 296.812 L 374.188 296.812 L 374.188 313.665 C 374.188 314.903 375.22 315.935 376.458 315.935 C 377.765 315.935 378.728 314.903 378.728 313.665 Z" class="st1" style="fill: rgb(255, 255, 255);"/>
  <circle id="circle98" r="56.062" cy="214.267" cx="328.031" class="st0" style="fill: rgb(255, 69, 0);"/>
  <path id="path100" d="M 365.452 214.267 C 365.452 209.727 361.806 206.081 357.266 206.081 C 355.065 206.081 353.07 206.975 351.625 208.351 C 346.053 204.292 338.349 201.679 329.751 201.403 L 333.465 183.862 L 345.641 186.476 C 345.778 189.572 348.323 192.048 351.488 192.048 C 354.721 192.048 357.335 189.434 357.335 186.201 C 357.335 182.968 354.721 180.354 351.488 180.354 C 349.218 180.354 347.223 181.661 346.26 183.587 L 332.64 180.698 C 332.296 180.629 331.883 180.698 331.539 180.905 C 331.195 181.111 330.989 181.455 330.92 181.799 L 326.793 201.335 C 318.057 201.61 310.284 204.155 304.574 208.282 C 303.13 206.906 301.135 206.012 298.934 206.012 C 294.394 206.012 290.748 209.658 290.748 214.198 C 290.748 217.5 292.743 220.389 295.563 221.627 C 295.426 222.452 295.357 223.278 295.357 224.103 C 295.357 236.692 310.009 246.872 328.1 246.872 C 346.191 246.872 360.843 236.692 360.843 224.103 C 360.843 223.278 360.774 222.452 360.636 221.627 C 363.457 220.458 365.452 217.637 365.452 214.267 Z M 309.389 220.114 C 309.389 216.881 312.003 214.267 315.236 214.267 C 318.469 214.267 321.083 216.881 321.083 220.114 C 321.083 223.347 318.469 225.961 315.236 225.961 C 312.003 225.961 309.389 223.347 309.389 220.114 Z M 341.926 235.522 C 337.936 239.512 330.301 239.787 328.031 239.787 C 325.761 239.787 318.126 239.512 314.136 235.522 C 313.517 234.903 313.517 233.94 314.136 233.39 C 314.755 232.771 315.718 232.771 316.268 233.39 C 318.813 235.935 324.179 236.76 327.962 236.76 C 331.746 236.76 337.18 235.866 339.725 233.321 C 340.344 232.702 341.307 232.702 341.857 233.321 C 342.545 234.009 342.545 234.972 341.926 235.522 Z M 340.894 225.961 C 337.661 225.961 335.047 223.347 335.047 220.114 C 335.047 216.881 337.661 214.267 340.894 214.267 C 344.127 214.267 346.741 216.881 346.741 220.114 C 346.741 223.347 344.127 225.961 340.894 225.961 Z" class="st1" style="fill: rgb(255, 255, 255);"/>
</svg>
