<?xml version="1.0" encoding="utf-8"?>
<svg viewBox="-433.559 -1133 1144.225 1750.058" xmlns="http://www.w3.org/2000/svg">
  <title>Crashed Rocket</title>
  <g id="XMLID_3_" transform="matrix(3.385813, 0, 0, 3.385813, -870.396484, -1269.994141)">
    <path id="XMLID_153_" fill="#99ADF9" d="M402.8,477c-4.5,11-34.7,9.6-38.2,19c-3.5,9.4,27.3,8.5,26.3,20.3 c-1,11.8-19.6,13.6-53,15.5c-33.4,1.9-40.8,10.7-74.2,21.6s-48.1-3.2-66.8-13.4c-18.6-10.1-54.3,8.5-65.5-7.2 c-11.2-15.8,19.3-21.4,46.2-27.5c27-6.2,14.8-9.1,14.1-22.2c-0.1-2.7,0.7-4.8,2.2-6.5c6.1-6.6,23.8-6.7,45-6.3 c26.7,0.6,33.4-8.3,70.6-7.5c34.3,0.7,88.1,2.8,93,11.7C403.1,475.3,403.2,476.1,402.8,477z"/>
  </g>
  <path id="XMLID_155_" fill="#99ADF9" d="M 670.148 411.062 C 669.133 413.094 667.44 415.125 665.408 417.495 C 650.849 433.408 603.109 443.227 564.85 443.904 C 517.448 444.243 468.015 441.196 466.322 412.416 C 466.322 412.416 466.322 412.416 466.322 412.416 C 464.968 383.637 586.18 381.944 628.503 386.684 C 665.07 390.07 676.581 398.535 670.148 411.062 Z"/>
  <path id="XMLID_325_" fill="#99ADF9" d="M -266.706 406.322 C -267.383 408.015 -268.738 409.708 -270.43 411.401 C -281.942 423.928 -319.525 432.054 -349.658 432.393 C -386.902 432.731 -426.178 430.361 -427.194 406.999 C -427.194 406.999 -427.194 406.999 -427.194 406.999 C -428.209 383.976 -332.729 382.621 -299.548 386.346 C -270.769 389.393 -261.289 396.164 -266.706 406.322 Z"/>
  <path id="XMLID_157_" fill="#99ADF9" d="M 339.693 586.786 C 306.512 599.99 182.591 600.668 182.93 584.416 C 182.93 582.384 183.607 580.353 184.961 578.66 C 194.103 565.794 232.024 558.683 266.221 557.329 C 306.512 555.975 333.937 560.376 346.126 566.809 C 357.299 572.904 355.606 580.353 339.693 586.786 Z"/>
  <path id="XMLID_23_" fill="#7C99F2" d="M 23.458 546.495 C -7.014 557.668 -103.848 554.959 -103.171 534.983 C -103.171 532.613 -102.494 530.243 -101.478 527.873 C -93.352 512.298 -67.959 506.542 -38.841 505.526 C -4.983 504.172 22.781 509.589 33.954 516.022 C 48.175 523.81 48.513 537.014 23.458 546.495 Z"/>
  <path id="XMLID_26_" fill="#7C99F2" d="M 398.945 356.55 C 381 365.354 315.654 364.676 315.992 353.165 C 315.992 351.81 316.331 350.456 317.008 349.102 C 322.087 340.299 342.063 335.558 360.347 334.881 C 381.677 334.204 396.236 337.59 402.331 342.33 C 408.425 346.732 407.409 352.149 398.945 356.55 Z"/>
  <path id="XMLID_27_" fill="#7C99F2" d="M 381.339 477.763 C 366.78 484.873 313.284 484.196 313.622 475.054 C 313.622 474.038 313.961 472.684 314.638 471.668 C 318.701 464.558 335.292 460.495 350.189 460.156 C 367.795 459.479 379.646 462.526 384.724 466.251 C 389.126 469.975 388.449 474.377 381.339 477.763 Z"/>
  <path id="XMLID_25_" fill="#7C99F2" d="M 219.497 472.007 C 65.781 514.329 -164.793 443.904 -162.762 403.613 C -162.423 398.535 -160.391 394.133 -156.667 390.07 C -130.258 360.952 -22.589 352.826 75.261 358.582 C 190.04 365.692 267.575 383.976 301.433 403.613 C 332.244 420.881 298.048 450.337 219.497 472.007 Z"/>
  <path id="XMLID_24_" fill="#7C99F2" d="M -170.888 483.18 C -185.447 491.306 -239.62 490.629 -238.942 480.133 C -238.942 478.778 -238.604 477.763 -237.927 476.408 C -233.864 468.282 -217.273 463.881 -202.376 463.204 C -184.769 462.526 -172.919 465.574 -167.84 469.975 C -163.1 474.377 -163.777 479.455 -170.888 483.18 Z"/>
  <path id="XMLID_97_" fill="#D2E9FF" d="M 322.764 -706.595 C 322.764 -706.595 313.961 -734.02 344.433 -735.713 C 374.906 -737.067 344.433 -782.098 374.906 -808.169 C 405.378 -834.24 441.606 -822.728 442.96 -787.854 C 444.315 -752.98 438.559 -731.311 442.96 -722.508 C 447.362 -713.705 460.228 -738.421 476.141 -721.154 C 492.055 -703.886 393.528 -370.384 393.528 -370.384 L 340.032 -383.588 L 322.764 -706.595 Z"/>
  <path id="XMLID_18_" fill="#E3F0FF" d="M 419.598 -653.438 C 405.039 -646.666 375.244 -447.58 399.961 -467.218 C 405.716 -471.619 456.842 -670.705 419.598 -653.438 Z"/>
  <path id="XMLID_151_" fill="#E3F0FF" d="M 671.841 -863.697 C 670.487 -854.216 668.117 -845.413 665.747 -837.626 C 642.046 -765.847 577.377 -763.138 576.361 -753.319 C 575.346 -742.484 623.086 -706.595 578.393 -662.918 C 533.7 -619.241 442.622 -674.768 418.583 -676.8 C 384.724 -679.508 314.299 -619.241 265.882 -681.878 C 234.733 -722.17 284.843 -744.855 273.331 -756.028 C 261.819 -767.201 171.757 -769.232 171.757 -870.468 C 171.757 -872.5 171.757 -874.531 171.757 -876.563 C 175.143 -977.798 265.205 -970.688 269.607 -990.665 C 274.008 -1010.641 272.993 -1127.79 415.197 -1132.869 C 557.739 -1137.947 553.338 -993.712 566.204 -986.94 C 579.747 -979.83 687.077 -961.208 671.841 -863.697 Z"/>
  <path id="XMLID_149_" fill="#D2E9FF" d="M 558.755 -779.39 C 589.227 -791.917 634.936 -814.264 665.408 -837.626 C 641.708 -765.847 577.039 -763.138 576.023 -753.319 C 575.007 -742.484 622.747 -706.595 578.054 -662.918 C 533.362 -619.241 442.283 -674.768 418.244 -676.8 C 384.386 -679.508 313.961 -619.241 265.544 -681.878 C 234.394 -722.17 284.504 -744.855 272.993 -756.028 C 261.481 -767.201 171.418 -769.232 171.418 -870.468 C 179.206 -854.555 195.457 -831.87 230.331 -815.957 C 288.906 -789.209 330.213 -819.004 350.866 -790.224 C 371.52 -761.445 328.181 -743.5 347.48 -726.571 C 367.118 -709.642 397.59 -752.303 446.346 -729.618 C 495.44 -706.933 525.913 -692.036 545.212 -712.689 C 565.527 -733.681 515.417 -761.445 558.755 -779.39 Z"/>
  <path id="XMLID_94_" fill="#D2E9FF" d="M 327.504 -923.287 C 327.504 -923.287 327.166 -923.625 326.15 -924.303 C 325.134 -924.98 324.118 -925.996 322.425 -927.688 C 319.378 -930.736 315.315 -935.476 311.929 -941.909 C 310.237 -944.956 308.544 -948.68 307.189 -952.743 C 305.835 -956.806 305.158 -961.208 304.481 -965.948 C 304.142 -970.688 304.142 -975.428 304.819 -980.169 C 305.158 -982.539 305.496 -984.909 306.174 -987.279 C 306.512 -988.633 306.512 -989.31 307.189 -991.342 L 308.205 -994.728 C 309.221 -998.791 311.929 -1003.869 314.638 -1008.271 C 317.347 -1012.334 321.071 -1016.397 324.796 -1019.444 C 328.858 -1022.491 332.921 -1024.861 336.984 -1026.554 C 341.047 -1028.247 345.449 -1029.263 349.173 -1029.94 C 352.898 -1030.617 356.622 -1030.617 359.669 -1030.617 C 362.717 -1030.617 365.425 -1030.617 367.795 -1030.279 C 370.165 -1029.94 371.858 -1029.94 372.874 -1029.601 C 374.228 -1029.263 374.906 -1029.263 374.906 -1029.263 C 379.307 -1028.247 382.016 -1024.184 381 -1019.783 C 379.984 -1015.381 375.921 -1012.672 371.52 -1013.688 C 371.52 -1013.688 371.181 -1013.688 371.181 -1013.688 L 370.504 -1013.688 C 370.504 -1013.688 370.165 -1013.688 369.488 -1014.027 C 368.472 -1014.365 367.457 -1014.704 365.425 -1014.704 C 363.732 -1015.042 361.701 -1015.381 358.992 -1015.381 C 356.622 -1015.381 353.913 -1015.72 350.866 -1015.381 C 347.819 -1015.042 344.772 -1014.704 341.725 -1013.35 C 338.677 -1012.334 335.292 -1010.979 332.583 -1008.948 C 329.536 -1006.916 326.827 -1004.208 324.457 -1001.161 C 322.087 -998.113 320.394 -995.405 318.701 -990.665 L 317.347 -987.617 L 316.67 -984.909 C 315.992 -982.877 315.315 -980.846 315.315 -978.814 C 314.638 -974.751 314.299 -970.688 314.299 -966.964 C 314.299 -963.239 314.977 -959.177 315.654 -955.791 C 316.331 -952.405 317.685 -949.019 319.04 -946.31 C 321.748 -940.555 325.134 -936.153 327.504 -933.444 C 328.858 -932.09 329.874 -931.074 330.551 -930.397 C 331.229 -929.72 331.567 -929.381 331.567 -929.381 L 331.906 -929.381 C 333.26 -928.027 333.599 -925.657 332.244 -924.303 C 331.229 -922.61 329.197 -922.271 327.504 -923.287 Z"/>
  <path id="XMLID_99_" fill="#D2E9FF" d="M 368.472 -1022.83 C 368.472 -1022.83 368.472 -1023.507 368.811 -1025.2 C 369.15 -1026.554 369.827 -1028.586 370.504 -1031.294 C 372.197 -1036.373 374.906 -1043.483 380.661 -1051.271 C 383.37 -1054.995 387.094 -1059.058 391.496 -1062.105 C 395.898 -1065.491 400.976 -1068.2 406.394 -1070.57 C 409.102 -1071.585 412.149 -1072.263 415.197 -1073.278 C 418.244 -1073.956 421.291 -1074.294 424.338 -1074.633 C 427.386 -1074.971 430.433 -1074.971 433.48 -1074.971 L 435.85 -1074.971 L 436.189 -1074.971 L 437.204 -1074.971 L 437.543 -1074.971 L 438.559 -1074.971 L 442.622 -1074.633 C 443.976 -1074.294 444.992 -1074.294 446.685 -1073.956 L 451.763 -1072.601 C 453.456 -1071.924 455.149 -1071.585 456.842 -1070.908 L 461.244 -1068.877 C 464.291 -1067.523 467 -1065.83 469.37 -1063.798 C 472.078 -1062.105 474.11 -1059.735 476.48 -1057.704 C 484.944 -1048.901 489.685 -1038.405 492.393 -1029.94 C 495.102 -1021.137 496.456 -1013.688 497.133 -1008.609 C 497.472 -1005.901 497.472 -1003.869 497.811 -1002.515 C 497.811 -1000.822 497.811 -1000.145 497.811 -1000.145 C 498.149 -994.05 493.409 -988.972 487.315 -988.972 C 481.22 -988.633 476.141 -993.373 476.141 -999.468 C 476.141 -999.468 476.141 -999.806 476.141 -999.806 L 476.141 -1000.483 C 476.141 -1000.483 476.141 -1000.822 476.141 -1001.838 C 476.141 -1002.853 476.141 -1004.546 475.803 -1006.578 C 475.464 -1010.641 474.787 -1017.074 472.756 -1023.846 C 470.724 -1030.617 467.338 -1038.405 461.921 -1044.499 C 460.567 -1045.853 459.212 -1047.546 457.519 -1048.901 C 455.826 -1050.255 454.134 -1051.609 452.441 -1052.286 L 449.732 -1053.979 C 448.716 -1054.318 448.039 -1054.656 447.023 -1054.995 L 444.315 -1056.011 C 443.299 -1056.349 441.606 -1056.349 440.59 -1056.688 L 436.527 -1057.365 L 435.512 -1057.365 L 435.173 -1057.365 C 434.496 -1057.365 436.189 -1057.365 435.85 -1057.365 L 435.512 -1057.365 L 433.819 -1057.365 C 431.449 -1057.365 429.079 -1057.704 426.708 -1057.365 C 424.338 -1057.027 421.968 -1057.027 419.937 -1056.688 C 417.905 -1056.011 415.535 -1055.672 413.504 -1054.995 C 409.441 -1053.641 405.716 -1051.948 402.669 -1049.578 C 399.622 -1047.546 396.913 -1044.838 394.882 -1042.129 C 390.48 -1036.712 388.11 -1031.294 386.756 -1027.231 C 386.079 -1025.2 385.74 -1023.846 385.402 -1022.83 C 385.063 -1021.814 385.063 -1021.475 385.063 -1021.475 L 385.063 -1020.798 C 384.047 -1016.397 379.984 -1014.027 375.583 -1014.704 C 370.165 -1014.704 367.795 -1018.767 368.472 -1022.83 Z"/>
  <path id="XMLID_100_" fill="#D2E9FF" d="M 536.747 -973.058 C 536.747 -973.058 539.117 -973.058 542.842 -972.72 C 546.566 -972.381 551.645 -971.704 557.739 -970.011 C 563.834 -968.318 570.944 -965.61 577.716 -960.192 C 581.102 -957.484 584.149 -954.436 586.857 -950.712 C 588.212 -948.68 589.227 -946.988 590.243 -944.618 L 591.598 -941.57 L 592.275 -938.184 C 593.29 -934.799 594.306 -929.72 594.306 -925.657 C 594.645 -921.255 594.306 -917.192 593.29 -913.468 C 591.598 -905.681 588.55 -898.909 585.165 -893.83 C 581.779 -888.752 578.054 -885.027 575.684 -882.657 C 572.976 -880.287 571.283 -878.933 571.283 -878.933 C 569.59 -877.578 566.881 -877.917 565.527 -879.61 C 564.172 -881.303 564.511 -884.011 566.204 -885.366 C 565.865 -885.027 571.96 -889.767 577.039 -898.909 C 579.747 -903.311 581.779 -909.066 582.456 -915.5 C 582.794 -918.547 582.794 -921.933 582.456 -924.98 C 582.117 -928.366 581.44 -930.736 580.086 -934.799 L 579.409 -937.169 L 578.393 -939.2 C 577.716 -940.555 576.7 -941.909 576.023 -942.925 C 574.33 -945.295 571.96 -946.988 569.59 -948.68 C 564.511 -951.728 559.094 -953.759 554.015 -954.775 C 548.936 -955.791 544.873 -956.129 541.826 -956.129 C 538.779 -956.129 537.425 -956.129 537.425 -956.129 C 532.684 -956.129 528.621 -959.854 528.621 -964.594 C 528.283 -968.995 532.007 -973.058 536.747 -973.058 Z"/>
  <path id="XMLID_101_" fill="#D2E9FF" d="M 311.929 -931.751 C 311.929 -931.751 311.591 -931.751 311.252 -931.751 C 310.575 -931.751 309.898 -931.413 308.882 -931.074 C 306.512 -930.397 303.465 -929.381 300.079 -927.011 C 298.386 -925.996 296.693 -924.641 295.339 -922.948 C 293.646 -921.255 292.292 -919.224 291.276 -916.854 C 290.26 -914.484 289.244 -912.114 288.567 -909.066 C 287.89 -906.358 287.552 -902.972 287.552 -900.263 C 287.552 -896.539 287.89 -894.169 288.567 -891.46 C 289.244 -888.752 290.26 -886.043 291.953 -883.673 C 295 -878.933 299.063 -875.547 303.126 -873.177 C 307.189 -870.807 310.914 -869.452 313.622 -868.775 C 316.331 -868.098 318.024 -867.76 317.685 -867.76 C 319.378 -867.76 320.733 -866.067 320.394 -864.374 C 320.394 -862.681 318.701 -861.327 317.008 -861.665 C 317.008 -861.665 314.977 -861.665 311.929 -862.342 C 308.882 -863.019 304.481 -864.035 299.063 -866.067 C 293.985 -868.437 288.229 -872.161 283.489 -877.917 C 281.119 -880.964 279.426 -884.35 278.071 -887.736 C 277.394 -889.429 277.056 -891.799 276.378 -893.492 C 275.701 -895.523 275.701 -896.878 275.363 -898.909 C 275.363 -899.925 275.024 -900.263 275.024 -901.956 L 275.024 -904.665 C 275.024 -906.696 275.024 -908.389 275.363 -910.421 C 275.701 -914.145 276.378 -918.208 277.733 -921.594 C 279.087 -925.318 280.78 -928.704 283.15 -931.413 C 285.181 -934.46 287.552 -936.83 290.26 -938.862 C 295 -942.925 299.74 -944.956 303.126 -946.31 C 304.819 -946.988 306.174 -947.326 307.189 -947.665 C 308.205 -948.003 308.882 -948.003 308.882 -948.003 C 313.622 -949.019 318.362 -946.31 319.378 -941.57 C 320.394 -936.83 317.685 -932.09 312.945 -931.074 C 312.607 -931.751 312.268 -931.751 311.929 -931.751 Z"/>
  <path id="XMLID_15_" fill="#D2E9FF" d="M 519.48 -829.5 C 519.48 -829.5 519.48 -827.13 518.803 -823.405 C 518.125 -819.681 517.11 -814.602 515.078 -808.508 C 513.047 -802.413 509.999 -795.303 504.244 -788.87 C 501.535 -785.823 498.149 -782.776 494.086 -780.406 C 492.055 -779.39 490.023 -778.036 487.992 -777.358 L 484.606 -776.343 L 481.559 -775.665 C 478.173 -774.65 473.094 -774.311 469.031 -774.311 C 464.63 -774.311 460.567 -774.988 456.842 -775.665 C 449.055 -777.697 442.622 -781.083 437.543 -784.807 C 432.464 -788.532 429.079 -792.256 426.708 -794.965 C 424.338 -797.673 423.323 -799.366 423.323 -799.705 C 421.968 -801.398 422.645 -804.106 424.338 -805.461 C 426.031 -806.815 428.74 -806.138 430.094 -804.445 C 430.094 -804.783 434.157 -798.689 443.299 -792.933 C 447.701 -790.224 453.456 -787.516 459.551 -786.5 C 462.598 -785.823 465.984 -785.823 469.031 -786.161 C 472.417 -786.5 474.787 -786.839 478.85 -788.193 L 481.22 -788.87 L 483.252 -789.886 C 484.606 -790.563 485.96 -791.24 486.976 -792.256 C 489.346 -793.949 491.378 -796.319 493.07 -798.35 C 496.456 -803.091 498.488 -808.508 499.842 -813.587 C 501.196 -818.665 501.535 -822.728 501.874 -825.775 C 502.212 -828.823 501.874 -830.177 501.874 -830.177 C 501.874 -834.917 505.936 -838.642 510.677 -838.642 C 515.755 -838.303 519.818 -834.579 519.48 -829.5 Z"/>
  <path id="XMLID_104_" fill="#D2E9FF" d="M 250.646 -549.493 L 236.426 -589.107 C 236.426 -589.107 269.268 -594.186 252.001 -637.186 C 242.182 -661.225 214.418 -642.264 214.418 -642.264 C 214.418 -642.264 209.678 -677.138 173.45 -669.351 C 145.009 -663.256 144.332 -617.548 155.505 -602.989 C 166.339 -588.43 177.513 -589.784 177.513 -589.784 C 177.513 -589.784 153.812 -590.461 157.536 -568.792 C 161.261 -547.123 179.883 -546.107 194.103 -553.218 C 200.875 -556.603 205.953 -565.068 205.953 -565.068 L 236.764 -539.674 C 239.473 -537.304 243.536 -536.966 246.922 -538.659 C 250.646 -540.351 252.339 -545.092 250.646 -549.493 Z"/>
  <path id="XMLID_148_" fill="#D2E9FF" d="M 588.55 -460.785 C 587.196 -454.352 584.826 -448.596 582.117 -445.549 C 573.991 -436.068 561.125 -435.053 561.125 -435.053 C 561.125 -435.053 572.637 -428.62 564.172 -414.738 C 557.739 -404.58 538.779 -410.675 533.7 -417.108 C 528.283 -423.541 528.283 -430.99 528.283 -430.99 L 505.259 -411.352 C 501.535 -407.966 495.44 -408.305 492.055 -412.368 C 489.007 -415.754 489.007 -421.171 492.055 -424.557 L 495.102 -427.942 L 513.724 -449.95 C 513.724 -449.95 487.315 -460.785 496.795 -480.423 C 505.259 -498.367 522.188 -489.903 526.59 -485.163 C 530.653 -480.761 531.33 -473.312 531.33 -473.312 C 531.33 -473.312 539.117 -503.446 567.22 -496.674 C 588.212 -491.934 591.259 -474.667 588.55 -460.785 Z"/>
  <path id="XMLID_22_" fill="#E1ECFF" d="M -131.274 -46.7 C -125.856 -39.251 -125.518 -29.094 -130.935 -21.306 L -132.966 -18.598 C -134.998 -15.889 -138.045 -14.535 -141.092 -14.535 C -143.462 -14.535 -145.494 -15.212 -147.525 -16.905 L -180.029 -45.346 C -180.029 -45.346 -195.943 -8.44 -239.281 -16.905 C -269.415 -22.999 -277.202 -48.731 -273.816 -70.062 C -272.462 -80.558 -268.399 -90.038 -262.982 -95.794 C -253.501 -105.952 -241.312 -107.306 -232.509 -106.967 C -241.312 -109.676 -253.84 -116.786 -258.58 -134.392 C -261.627 -145.566 -260.95 -156.739 -256.887 -165.542 C -250.454 -179.424 -235.895 -188.227 -215.242 -185.857 C -181.045 -181.455 -180.368 -133.038 -180.368 -133.038 C -180.368 -133.038 -168.517 -165.881 -136.014 -151.66 C -107.573 -139.133 -115.699 -101.211 -134.998 -86.314 C -145.155 -78.527 -153.958 -76.834 -153.958 -76.834 L -131.274 -46.7 Z"/>
  <path id="XMLID_144_" fill="#C5DFFF" d="M -204.746 -100.873 C -204.746 -100.873 -218.627 -103.582 -232.171 -107.306 C -240.974 -110.015 -253.501 -116.786 -258.58 -134.731 C -261.627 -145.904 -260.95 -157.077 -256.887 -165.881 C -254.856 -154.03 -249.438 -135.408 -236.234 -123.219 C -215.58 -104.259 -204.746 -100.873 -204.746 -100.873 Z"/>
  <path id="XMLID_20_" fill="#C5DFFF" d="M -132.966 -18.936 C -134.998 -16.228 -138.045 -14.873 -141.092 -14.873 C -143.462 -14.873 -145.494 -15.55 -147.525 -17.243 L -180.029 -45.684 C -180.029 -45.684 -195.943 -8.779 -239.281 -17.243 C -269.415 -23.338 -277.202 -49.07 -273.816 -70.401 C -269.076 -60.243 -258.58 -48.731 -234.541 -44.668 C -186.462 -36.204 -185.108 -66.338 -185.108 -66.338 L -132.966 -18.936 Z"/>
  <path id="XMLID_329_" d="M -3.967 -121.526 C -8.368 -121.526 -22.927 -122.542 -36.132 -134.731 C -49.337 -146.92 -56.108 -166.219 -56.447 -191.613 C -57.124 -251.542 -68.636 -259.668 -81.163 -263.392 C -98.77 -268.471 -117.73 -261.699 -117.73 -261.699 C -124.502 -258.99 -131.951 -262.376 -134.659 -269.148 C -137.368 -275.919 -133.982 -283.368 -127.211 -286.077 C -126.195 -286.415 -100.463 -296.234 -74.053 -288.786 C -38.841 -278.628 -31.053 -244.431 -30.715 -192.29 C -30.376 -174.684 -26.313 -161.479 -19.203 -154.369 C -12.431 -147.936 -4.644 -147.936 -4.644 -147.936 C 2.466 -148.613 8.561 -142.518 8.899 -135.408 C 9.238 -128.298 3.82 -122.204 -3.29 -121.865 C -2.951 -121.526 -3.29 -121.526 -3.967 -121.526 Z" style="fill: rgb(151, 153, 255);"/>
  <path id="XMLID_5_" fill="#99ADF9" d="M -14.463 -303.683 C -17.849 -300.636 -27.668 -289.801 -29.022 -272.195 C -30.038 -254.25 -21.912 -235.628 -4.644 -216.668 C 35.647 -172.652 33.277 -158.77 26.505 -147.597 C 17.025 -131.684 -1.258 -123.896 -1.258 -123.896 C -8.03 -121.188 -11.077 -113.739 -8.368 -106.967 C -5.66 -100.196 1.789 -97.149 8.561 -99.857 C 9.576 -100.196 35.308 -110.692 49.19 -134.392 C 67.812 -166.219 49.867 -196.014 14.994 -234.613 C 3.143 -247.479 -2.951 -260.006 -2.613 -270.164 C -2.274 -279.644 3.482 -284.723 3.82 -285.061 C 9.238 -289.463 9.576 -297.927 4.836 -303.345 C 0.096 -308.762 -7.691 -309.439 -13.447 -304.699 C -13.786 -304.36 -14.124 -304.022 -14.463 -303.683 Z"/>
  <path id="XMLID_332_" fill="#99ADF9" d="M 585.503 -226.148 C 572.637 -226.148 558.417 -230.211 545.551 -240.368 C 523.543 -257.297 508.984 -245.786 508.984 -245.447 C 503.566 -240.707 495.102 -241.384 490.7 -247.14 C 485.96 -252.557 486.637 -261.022 492.393 -265.423 C 502.889 -274.227 530.992 -284.723 561.802 -261.022 C 578.393 -248.156 595.999 -251.542 602.771 -257.975 C 609.204 -263.731 612.928 -280.321 613.605 -290.14 C 613.944 -297.25 620.377 -303.006 627.487 -302.329 C 634.597 -301.99 640.015 -295.557 639.676 -288.447 C 639.338 -285.061 636.967 -253.573 620.377 -238.676 C 611.912 -230.888 599.385 -226.148 585.503 -226.148 Z"/>
  <path id="XMLID_125_" fill="#E1ECFF" d="M 578.731 -64.983 L 686.739 55.89 C 686.739 55.89 655.251 1.717 628.164 -32.479 C 599.724 -67.692 578.731 -64.983 578.731 -64.983 Z"/>
  <path id="XMLID_13_" fill="#E1ECFF" d="M 663.715 -9.456 C 663.715 -9.456 635.952 -42.637 631.889 -47.716 C 621.054 -60.92 613.267 -64.983 613.267 -64.983 C 613.267 -64.983 623.086 -66.338 635.952 -50.086 C 648.818 -34.172 663.715 -9.456 663.715 -9.456 Z"/>
  <polygon id="XMLID_103_" points="498.149 -122.204 546.905 -206.172 517.787 -128.637 560.787 -85.975" style="fill: #4b317a;"/>
  <polygon id="XMLID_110_" points="574.33 -164.188 504.244 -126.605 521.511 -120.172" style="fill: #4b317a;"/>
  <path id="XMLID_115_" d="M -133.644 -312.148 L -159.037 -341.604 C -162.084 -345.329 -161.746 -350.746 -158.021 -354.132 C -154.297 -357.179 -148.88 -356.84 -145.494 -353.116 C -144.817 -352.439 -144.478 -351.762 -144.14 -351.084 L -127.888 -315.872 C -127.211 -314.179 -127.888 -312.148 -129.581 -311.47 C -130.935 -310.455 -132.628 -310.793 -133.644 -312.148 Z" style="fill: #4b317a;"/>
  <path id="XMLID_119_" d="M -157.006 -279.982 L -204.746 -275.242 C -209.486 -274.904 -213.887 -278.29 -214.226 -283.03 C -214.565 -287.77 -211.179 -292.171 -206.439 -292.51 C -205.761 -292.51 -205.084 -292.51 -204.407 -292.51 L -157.006 -286.754 C -154.974 -286.415 -153.958 -284.723 -153.958 -283.03 C -154.297 -281.337 -155.313 -279.982 -157.006 -279.982 Z" style="fill: #4b317a;"/>
  <path id="XMLID_120_" d="M -136.014 -240.707 L -159.376 -211.589 C -162.423 -207.865 -167.84 -207.187 -171.565 -210.235 C -175.289 -213.282 -175.966 -218.699 -172.919 -222.424 C -172.58 -223.101 -171.903 -223.778 -171.226 -224.117 L -140.754 -245.786 C -139.061 -246.801 -137.029 -246.463 -135.675 -245.109 C -134.659 -243.754 -134.998 -242.061 -136.014 -240.707 Z" style="fill: #4b317a;"/>
  <path id="XMLID_10_" d="M 5.513 -329.415 L 23.458 -353.116 C 25.828 -356.163 29.891 -356.502 32.938 -354.47 C 35.986 -352.1 36.324 -348.037 34.293 -344.99 C 33.954 -344.651 33.616 -343.974 32.938 -343.636 L 9.238 -325.691 C 8.222 -324.675 6.529 -325.014 5.513 -326.029 C 4.836 -327.045 4.836 -328.4 5.513 -329.415 Z" style="fill: #4b317a;"/>
  <path id="XMLID_8_" d="M -22.25 -341.604 L -33.762 -376.478 C -34.778 -379.864 -33.085 -383.927 -29.361 -384.943 C -25.975 -385.958 -21.912 -384.265 -20.896 -380.541 C -20.896 -380.202 -20.557 -379.525 -20.557 -379.187 L -17.172 -342.62 C -17.172 -341.266 -18.187 -339.911 -19.542 -339.911 C -20.896 -339.911 -21.912 -340.588 -22.25 -341.604 Z" style="fill: #4b317a;"/>
  <path id="XMLID_7_" d="M -48.321 -319.596 L -74.053 -332.463 C -77.439 -334.155 -78.793 -338.218 -77.1 -341.604 C -75.408 -344.99 -71.345 -346.344 -67.959 -344.651 C -67.282 -344.313 -66.943 -343.974 -66.266 -343.636 L -44.935 -324.337 C -43.92 -323.321 -43.581 -321.628 -44.597 -320.274 C -45.951 -319.258 -47.305 -318.919 -48.321 -319.596 Z" style="fill: #4b317a;"/>
  <path id="XMLID_121_" d="M 634.597 -363.612 L 628.503 -328.738 C 628.164 -326.707 626.471 -325.691 624.44 -326.029 C 622.747 -326.368 621.731 -327.722 621.393 -329.077 L 616.991 -364.289 C 616.314 -369.029 619.7 -373.431 624.779 -374.108 C 629.519 -374.785 633.92 -371.399 634.597 -366.321 C 634.936 -365.305 634.936 -364.628 634.597 -363.612 Z" style="fill: #4b317a;"/>
  <path id="XMLID_122_" d="M 695.881 -330.77 L 660.33 -307.408 C 657.96 -306.053 654.912 -306.392 653.558 -308.762 C 652.204 -310.793 652.542 -313.502 654.235 -315.195 L 685.385 -344.313 C 688.77 -347.699 694.526 -347.36 697.574 -343.974 C 700.959 -340.588 700.621 -334.833 697.235 -331.785 C 696.558 -331.447 696.219 -331.108 695.881 -330.77 Z" style="fill: #4b317a;"/>
  <path id="XMLID_123_" d="M 690.125 -256.282 L 659.652 -270.841 C 657.621 -271.856 656.605 -274.227 657.621 -276.597 C 658.298 -278.29 660.33 -279.305 662.022 -278.967 L 695.203 -273.211 C 699.944 -272.534 703.329 -267.793 702.314 -263.053 C 701.636 -258.313 696.896 -254.927 692.156 -255.943 C 691.818 -255.605 691.14 -255.943 690.125 -256.282 Z" style="fill: #4b317a;"/>
  <path id="XMLID_127_" d="M 213.064 -422.187 C 213.064 -422.187 70.521 -251.542 65.104 -255.943 C 63.749 -256.959 61.379 -264.746 58.332 -277.274 C 50.206 -312.825 39.033 -387.313 37.679 -466.541 C 35.986 -573.194 38.694 -605.698 67.135 -618.902 C 88.127 -628.721 145.347 -534.257 182.93 -470.942 C 196.473 -449.273 206.969 -431.328 213.064 -422.187 Z" style="fill: rgb(28, 48, 119);"/>
  <path id="XMLID_124_" d="M 213.064 -422.187 C 213.064 -422.187 70.521 -251.542 65.104 -255.943 C 63.749 -256.959 61.379 -264.746 58.332 -277.274 C 72.214 -312.825 89.143 -350.407 107.765 -378.848 C 137.899 -424.218 164.985 -453.675 182.93 -470.942 C 196.473 -449.273 206.969 -431.328 213.064 -422.187 Z" style="fill: rgb(20, 41, 102);"/>
  <path id="XMLID_11_" d="M 706.715 164.575 C 697.912 182.858 616.314 157.465 549.613 134.441 C 536.747 130.04 524.22 125.638 512.708 121.575 C 486.299 112.433 468.693 87.378 468.693 59.276 C 469.031 -6.07 462.937 -110.015 475.464 -115.432 C 490.362 -122.204 564.172 -49.409 631.55 28.804 C 701.298 109.725 719.92 136.473 706.715 164.575 Z" style="fill: rgb(28, 48, 119);"/>
  <path id="XMLID_9_" d="M 549.613 134.441 C 536.747 130.04 524.22 125.638 512.708 121.575 C 486.299 112.433 468.693 87.378 468.693 59.276 C 469.031 -6.07 462.937 -110.015 475.464 -115.432 C 475.803 -115.432 503.566 -29.432 522.527 38.284 C 533.362 77.559 542.503 109.725 549.613 134.441 Z" style="fill: rgb(20, 41, 102);"/>
  <path id="XMLID_116_" fill="#E1ECFF" d="M 500.858 -284.723 C 498.488 -192.29 484.944 -38.574 429.756 113.788 C 382.016 245.834 340.709 333.527 313.284 385.33 C 290.599 427.991 277.394 446.952 277.394 446.952 C 277.394 446.952 241.505 464.896 172.434 470.314 C 133.836 473.361 85.08 472.684 26.505 462.865 C -137.368 435.44 -154.636 383.976 -154.636 383.976 C -154.636 383.976 -157.006 354.519 -149.218 296.622 C -139.399 222.134 -112.313 100.922 -41.549 -64.645 C 38.017 -249.849 128.757 -358.872 184.961 -414.061 C 218.142 -446.564 239.473 -460.446 239.473 -460.446 C 239.473 -460.446 283.489 -478.391 374.567 -449.95 C 410.795 -438.777 438.22 -424.218 457.519 -410.336 C 487.315 -389.683 499.503 -371.399 499.503 -371.399 C 499.503 -371.399 502.551 -338.218 500.858 -284.723 Z"/>
  <path id="XMLID_113_" fill="#C5DFFF" d="M 500.858 -284.723 C 498.488 -192.29 484.944 -38.574 429.756 113.788 C 382.016 245.834 340.709 333.527 313.284 385.33 C 290.599 427.991 277.394 446.952 277.394 446.952 C 277.394 446.952 241.505 464.896 172.434 470.314 C 216.449 410.046 281.796 305.425 346.803 146.969 C 452.441 -110.353 458.874 -336.525 457.858 -410.336 C 487.653 -389.683 499.842 -371.399 499.842 -371.399 C 499.842 -371.399 502.551 -338.218 500.858 -284.723 Z"/>
  <path id="XMLID_324_" fill="#F8FBFF" d="M -110.62 282.063 C -111.636 282.063 -112.313 282.063 -113.329 281.724 C -122.809 280.37 -129.242 271.228 -127.888 261.748 C -126.872 255.992 -105.203 116.496 -45.274 -24.015 C 14.655 -164.188 62.056 -232.92 64.088 -235.967 C 69.505 -243.754 80.34 -245.786 88.466 -240.368 C 96.253 -234.951 98.285 -224.117 92.867 -215.991 C 92.529 -215.313 45.127 -146.92 -13.109 -10.472 C -71.345 125.977 -93.352 265.472 -93.352 266.826 C -95.045 275.968 -102.494 282.063 -110.62 282.063 Z"/>
  <path id="XMLID_351_" fill="#1C3177" d="M 500.858 -284.723 C 489.007 -295.219 473.771 -307.408 455.488 -319.935 C 448.039 -325.014 439.913 -330.431 431.11 -335.848 C 426.37 -338.557 421.63 -341.604 416.551 -344.313 C 396.575 -355.825 373.89 -366.659 349.173 -376.14 C 347.142 -376.817 345.449 -377.494 343.417 -378.171 C 339.693 -379.525 336.307 -380.88 332.921 -381.895 C 304.481 -392.053 279.426 -398.824 258.095 -403.565 C 252.001 -404.919 245.906 -405.935 240.489 -407.289 C 216.788 -411.691 198.505 -413.045 185.639 -413.722 C 218.82 -446.226 240.15 -460.108 240.15 -460.108 C 240.15 -460.108 253.693 -465.525 281.457 -465.525 C 287.552 -465.525 294.323 -465.186 301.772 -464.509 C 319.378 -463.155 340.709 -459.431 365.764 -452.32 C 368.811 -451.305 372.197 -450.627 375.244 -449.612 C 377.614 -448.934 379.984 -448.257 382.354 -447.242 C 401.992 -440.47 418.921 -433.021 433.142 -425.572 C 438.897 -422.525 443.976 -419.478 449.055 -416.092 C 452.441 -414.061 455.149 -412.029 458.197 -409.998 C 487.992 -389.344 500.181 -371.061 500.181 -371.061 C 500.181 -371.061 502.551 -338.218 500.858 -284.723 Z"/>
  <path id="XMLID_111_" fill="#142966" d="M 500.858 -284.723 C 489.007 -295.219 473.771 -307.408 455.488 -319.935 C 458.197 -359.549 458.197 -390.36 458.197 -409.998 C 487.992 -389.344 500.181 -371.061 500.181 -371.061 C 500.181 -371.061 502.551 -338.218 500.858 -284.723 Z"/>
  <path id="XMLID_337_" fill="#142966" d="M 449.055 -416.092 L 433.48 -339.911 C 433.142 -338.218 432.464 -336.864 431.11 -335.51 C 426.37 -338.218 421.63 -341.266 416.551 -343.974 L 433.142 -425.234 C 438.897 -422.187 444.315 -419.139 449.055 -416.092 Z"/>
  <path id="XMLID_336_" fill="#142966" d="M 382.354 -447.242 L 349.173 -376.14 C 347.142 -376.817 345.449 -377.494 343.417 -378.171 C 339.693 -379.525 336.307 -380.88 332.921 -381.895 L 365.425 -452.32 C 368.472 -451.305 371.858 -450.627 374.906 -449.612 C 377.614 -448.596 379.984 -447.919 382.354 -447.242 Z"/>
  <path id="XMLID_333_" fill="#142966" d="M 301.772 -464.509 C 301.433 -463.832 301.095 -463.155 300.756 -462.478 L 258.095 -403.565 C 252.001 -404.919 245.906 -405.935 240.489 -407.289 C 240.827 -408.643 241.166 -409.998 242.182 -411.352 L 281.457 -465.864 C 287.552 -465.525 294.323 -465.186 301.772 -464.509 Z"/>
  <ellipse id="XMLID_130_" transform="matrix(0.945887, 0.324496, -0.324496, 0.945887, -17.522018, -347.985168)" fill="#C5DFFF" cx="294.1" cy="417" rx="152.364" ry="211.278"/>
  <ellipse id="XMLID_132_" transform="matrix(0.945887, 0.324496, -0.324496, 0.945887, -10.84371, -353.585632)" fill="#1C3177" cx="297.1" cy="415.1" rx="152.364" ry="208.907"/>
  <ellipse id="XMLID_133_" transform="matrix(0.945887, 0.324496, -0.324496, 0.945887, -14.503437, -353.10083)" cx="295.6" cy="415.1" rx="120.875" ry="168.954" style="fill: #4b317a;"/>
  <ellipse id="XMLID_134_" transform="matrix(0.945887, 0.324496, -0.324496, 0.945887, -28.926563, -422.398193)" cx="293.5" cy="386.4" rx="34.536" ry="48.418" style="fill: rgb(255, 255, 255);"/>
  <ellipse id="XMLID_135_" transform="matrix(0.945887, 0.324496, -0.324496, 0.945887, -51.324512, -322.111847)" cx="279.1" cy="425.6" rx="18.622" ry="25.733" style="fill: rgb(255, 255, 255);"/>
  <path id="XMLID_141_" d="M 244.89 174.732 C 214.418 263.102 138.914 316.936 75.6 295.267 C 42.419 283.755 19.057 253.622 9.238 214.685 C 17.364 220.102 26.167 224.842 35.647 227.89 C 114.198 254.976 208.662 187.598 246.245 77.559 C 248.615 70.788 250.646 64.016 252.339 57.245 C 260.804 92.118 259.111 133.764 244.89 174.732 Z" style="fill: #654f89;"/>
  <path id="XMLID_150_" d="M 313.622 385.668 C 290.937 428.33 277.733 447.29 277.733 447.29 C 277.733 447.29 241.843 465.235 172.773 470.652 C 134.174 473.7 85.419 473.022 26.844 463.204 C -33.762 453.046 -74.053 439.503 -101.14 426.637 C -147.187 404.629 -154.297 384.314 -154.297 384.314 C -154.297 384.314 -156.667 354.858 -148.88 296.96 C -134.659 310.165 -115.699 325.062 -90.644 338.944 C -52.045 360.275 0.435 380.251 71.875 390.747 C 125.371 398.535 176.497 399.55 222.205 396.503 C 256.063 394.81 286.874 390.409 313.622 385.668 Z" style="fill: rgb(97, 120, 188);"/>
  <path id="XMLID_114_" d="M 313.622 385.668 C 290.937 428.33 277.733 447.29 277.733 447.29 C 277.733 447.29 241.843 465.235 172.773 470.652 C 187.331 450.676 203.922 426.298 222.205 396.503 C 256.063 394.81 286.874 390.409 313.622 385.668 Z" style="fill: rgb(96, 116, 174);"/>
  <path id="XMLID_143_" d="M -90.644 339.283 L -101.14 426.975 C -147.187 404.968 -154.297 384.653 -154.297 384.653 C -154.297 384.653 -156.667 355.196 -148.88 297.299 C -134.659 310.503 -115.699 325.062 -90.644 339.283 Z" style="fill: rgb(96, 116, 174);"/>
</svg>
