<?xml version="1.0" encoding="utf-8"?>
<svg viewBox="-89.512 0 537.238 405.009" xmlns="http://www.w3.org/2000/svg">
  <path class="st3" d="M 435.538 313.817 L 10.411 313.817 C 3.68 313.817 -1.777 308.361 -1.777 301.629 L -1.777 12.188 C -1.777 5.457 3.68 0 10.411 0 L 435.538 0 C 442.269 0 447.726 5.457 447.726 12.188 L 447.726 301.629 C 447.726 308.361 442.269 313.817 435.538 313.817 Z" style="fill: rgb(255, 255, 255); stroke: rgb(38, 36, 36); stroke-linecap: round; stroke-linejoin: round; stroke-miterlimit: 10; stroke-width: 1.56824px;"/>
  <line class="st1" x1="185.746" y1="14.144" x2="185.746" y2="299.673" style="fill: none; stroke: rgb(38, 36, 36); stroke-linecap: round; stroke-linejoin: round; stroke-miterlimit: 10; stroke-width: 1.56824px;"/>
  <line class="st1" x1="427.406" y1="73.189" x2="27.893" y2="73.189" style="fill: none; stroke: rgb(38, 36, 36); stroke-linecap: round; stroke-linejoin: round; stroke-miterlimit: 10; stroke-width: 1.56824px;"/>
  <path class="st1" d="M 158.383 138.93 L 34.94 138.93 C 31.048 138.93 27.893 135.775 27.893 131.883 L 27.893 109.598 C 27.893 105.706 31.048 102.551 34.94 102.551 L 158.383 102.551 C 162.274 102.551 165.429 105.706 165.429 109.598 L 165.429 131.883 C 165.429 135.775 162.274 138.93 158.383 138.93 Z" style="fill: none; stroke: rgb(38, 36, 36); stroke-linecap: round; stroke-linejoin: round; stroke-miterlimit: 10; stroke-width: 1.56824px;"/>
  <path class="st0" d="M 159.71 61.931 L 80.559 61.931 C 77.401 61.931 74.841 59.371 74.841 56.213 L 74.841 31.272 C 74.841 28.113 77.401 25.553 80.559 25.553 L 159.71 25.553 C 162.869 25.553 165.429 28.113 165.429 31.272 L 165.429 56.213 C 165.429 59.371 162.869 61.931 159.71 61.931 Z" style="fill: rgb(154, 179, 218);"/>
  <path class="st0" d="M 293.254 61.931 L 214.103 61.931 C 210.944 61.931 208.384 59.371 208.384 56.213 L 208.384 31.272 C 208.384 28.113 210.944 25.553 214.103 25.553 L 293.254 25.553 C 296.412 25.553 298.972 28.113 298.972 31.272 L 298.972 56.213 C 298.972 59.371 296.412 61.931 293.254 61.931 Z" style="fill: #9ab3da;"/>
  <path class="st3" d="M 346.007 171.424 L 214.103 171.424 C 210.944 171.424 208.384 168.863 208.384 165.705 L 208.384 90.166 C 208.384 87.008 210.944 84.448 214.103 84.448 L 346.007 84.448 C 349.166 84.448 351.726 87.008 351.726 90.166 L 351.726 165.705 C 351.726 168.863 349.166 171.424 346.007 171.424 Z" style="fill: rgb(255, 255, 255); stroke: rgb(38, 36, 36); stroke-linecap: round; stroke-linejoin: round; stroke-miterlimit: 10; stroke-width: 1.56824px;"/>
  <path class="st3" d="M 346.007 292.834 L 214.103 292.834 C 210.944 292.834 208.384 290.274 208.384 287.116 L 208.384 189.023 C 208.384 185.865 210.944 183.305 214.103 183.305 L 346.007 183.305 C 349.166 183.305 351.726 185.865 351.726 189.023 L 351.726 287.116 C 351.726 290.274 349.166 292.834 346.007 292.834 Z" style="fill: rgb(255, 255, 255); stroke: rgb(38, 36, 36); stroke-linecap: round; stroke-linejoin: round; stroke-miterlimit: 10; stroke-width: 1.56824px;"/>
  <path class="st0" d="M 421.688 292.834 L 369.326 292.834 C 366.168 292.834 363.607 290.274 363.607 287.116 L 363.607 246.691 C 363.607 243.532 366.168 240.972 369.326 240.972 L 421.688 240.972 C 424.846 240.972 427.406 243.532 427.406 246.691 L 427.406 287.116 C 427.406 290.274 424.846 292.834 421.688 292.834 Z" style="fill: #9ab3da;"/>
  <path class="st2" d="M 423.28 38.002 L 379.495 38.002 C 377.217 38.002 375.37 36.155 375.37 33.876 L 375.37 29.679 C 375.37 27.4 377.217 25.553 379.495 25.553 L 423.28 25.553 C 425.559 25.553 427.406 27.4 427.406 29.679 L 427.406 33.876 C 427.406 36.155 425.559 38.002 423.28 38.002 Z" style="fill: #404b7e;"/>
  <path class="st2" d="M 423.28 61.931 L 379.495 61.931 C 377.217 61.931 375.37 60.084 375.37 57.806 L 375.37 53.608 C 375.37 51.329 377.217 49.482 379.495 49.482 L 423.28 49.482 C 425.559 49.482 427.406 51.329 427.406 53.608 L 427.406 57.806 C 427.406 60.084 425.559 61.931 423.28 61.931 Z" style="fill: #404b7e;"/>
  <path class="st0" d="M 55.168 61.931 L 31.217 61.931 C 29.381 61.931 27.893 60.443 27.893 58.608 L 27.893 28.877 C 27.893 27.041 29.381 25.553 31.217 25.553 L 55.168 25.553 C 57.004 25.553 58.492 27.041 58.492 28.877 L 58.492 58.608 C 58.492 60.443 57.004 61.931 55.168 61.931 Z" style="fill: #9ab3da;"/>
  <path class="st1" d="M 158.383 195.876 L 34.94 195.876 C 31.048 195.876 27.893 192.721 27.893 188.83 L 27.893 166.544 C 27.893 162.653 31.048 159.498 34.94 159.498 L 158.383 159.498 C 162.274 159.498 165.429 162.653 165.429 166.544 L 165.429 188.83 C 165.429 192.721 162.274 195.876 158.383 195.876 Z" style="fill: none; stroke: rgb(38, 36, 36); stroke-linecap: round; stroke-linejoin: round; stroke-miterlimit: 10; stroke-width: 1.56824px;"/>
  <path class="st1" d="M 158.383 252.823 L 34.94 252.823 C 31.048 252.823 27.893 249.668 27.893 245.776 L 27.893 223.49 C 27.893 219.599 31.048 216.444 34.94 216.444 L 158.383 216.444 C 162.274 216.444 165.429 219.599 165.429 223.49 L 165.429 245.776 C 165.429 249.668 162.274 252.823 158.383 252.823 Z" style="fill: none; stroke: rgb(38, 36, 36); stroke-linecap: round; stroke-linejoin: round; stroke-miterlimit: 10; stroke-width: 1.56824px;"/>
  <path class="st0" d="M 252.195 96.656 C 234.925 96.656 220.915 110.666 220.915 127.936 C 220.915 145.216 234.925 159.216 252.195 159.216 C 269.465 159.216 283.475 145.216 283.475 127.936 C 283.475 110.666 269.465 96.656 252.195 96.656 Z M 252.195 142.446 C 244.185 142.446 237.685 135.946 237.685 127.936 C 237.685 119.926 244.185 113.426 252.195 113.426 C 260.205 113.426 266.705 119.926 266.705 127.936 C 266.705 135.946 260.205 142.446 252.195 142.446 Z" style="fill: rgb(246, 141, 136);"/>
  <path class="st2" d="M 283.475 127.936 L 266.705 127.936 C 266.705 119.926 260.205 113.426 252.195 113.426 L 252.195 96.656 C 269.465 96.656 283.475 110.666 283.475 127.936 Z" style="fill: rgb(236, 189, 187);"/>
  <path class="st0" d="M 335.425 135.756 L 302.569 135.756 C 300.487 135.756 298.799 134.068 298.799 131.986 L 298.799 127.044 C 298.799 124.962 300.487 123.274 302.569 123.274 L 335.425 123.274 C 337.507 123.274 339.195 124.962 339.195 127.044 L 339.195 131.986 C 339.195 134.068 337.507 135.756 335.425 135.756 Z" style="fill: #9ab3da;"/>
  <path class="st2" d="M 319.504 112.296 L 302.569 112.296 C 300.487 112.296 298.799 110.608 298.799 108.526 L 298.799 103.584 C 298.799 101.502 300.487 99.814 302.569 99.814 L 319.504 99.814 C 321.586 99.814 323.274 101.502 323.274 103.584 L 323.274 108.526 C 323.274 110.608 321.586 112.296 319.504 112.296 Z" style="fill: #404b7e;"/>
  <path class="st0" d="M 335.425 159.216 L 302.569 159.216 C 300.487 159.216 298.799 157.528 298.799 155.446 L 298.799 150.504 C 298.799 148.422 300.487 146.734 302.569 146.734 L 335.425 146.734 C 337.507 146.734 339.195 148.422 339.195 150.504 L 339.195 155.446 C 339.195 157.528 337.507 159.216 335.425 159.216 Z" style="fill: #9ab3da;"/>
  <path class="st3" d="M 421.688 225.309 L 369.326 225.309 C 366.168 225.309 363.607 222.749 363.607 219.59 L 363.607 90.166 C 363.607 87.008 366.168 84.448 369.326 84.448 L 421.688 84.448 C 424.846 84.448 427.406 87.008 427.406 90.166 L 427.406 219.59 C 427.406 222.749 424.846 225.309 421.688 225.309 Z" style="fill: rgb(255, 255, 255); stroke: rgb(38, 36, 36); stroke-linecap: round; stroke-linejoin: round; stroke-miterlimit: 10; stroke-width: 1.56824px;"/>
  <line class="st1" x1="394.498" y1="106.055" x2="420.637" y2="106.055" style="fill: none; stroke: rgb(38, 36, 36); stroke-linecap: round; stroke-linejoin: round; stroke-miterlimit: 10; stroke-width: 1.56824px;"/>
  <line class="st1" x1="394.498" y1="138.449" x2="420.637" y2="138.449" style="fill: none; stroke: rgb(38, 36, 36); stroke-linecap: round; stroke-linejoin: round; stroke-miterlimit: 10; stroke-width: 1.56824px;"/>
  <line class="st1" x1="394.498" y1="170.844" x2="420.637" y2="170.844" style="fill: none; stroke: rgb(38, 36, 36); stroke-linecap: round; stroke-linejoin: round; stroke-miterlimit: 10; stroke-width: 1.56824px;"/>
  <line class="st1" x1="394.498" y1="203.238" x2="420.637" y2="203.238" style="fill: none; stroke: rgb(38, 36, 36); stroke-linecap: round; stroke-linejoin: round; stroke-miterlimit: 10; stroke-width: 1.56824px;"/>
  <path class="st2" d="M 383.362 112.296 L 376.288 112.296 C 374.206 112.296 372.518 110.608 372.518 108.526 L 372.518 103.584 C 372.518 101.502 374.206 99.814 376.288 99.814 L 383.362 99.814 C 385.444 99.814 387.132 101.502 387.132 103.584 L 387.132 108.526 C 387.132 110.608 385.444 112.296 383.362 112.296 Z" style="fill: #404b7e;"/>
  <path class="st0" d="M 383.362 144.69 L 376.288 144.69 C 374.206 144.69 372.518 143.002 372.518 140.92 L 372.518 135.978 C 372.518 133.896 374.206 132.208 376.288 132.208 L 383.362 132.208 C 385.444 132.208 387.132 133.896 387.132 135.978 L 387.132 140.92 C 387.132 143.002 385.444 144.69 383.362 144.69 Z" style="fill: #9ab3da;"/>
  <path class="st0" d="M 383.362 177.085 L 376.288 177.085 C 374.206 177.085 372.518 175.397 372.518 173.315 L 372.518 168.373 C 372.518 166.291 374.206 164.603 376.288 164.603 L 383.362 164.603 C 385.444 164.603 387.132 166.291 387.132 168.373 L 387.132 173.315 C 387.132 175.397 385.444 177.085 383.362 177.085 Z" style="fill: #9ab3da;"/>
  <path class="st0" d="M 383.362 209.479 L 376.288 209.479 C 374.206 209.479 372.518 207.792 372.518 205.71 L 372.518 200.767 C 372.518 198.685 374.206 196.998 376.288 196.998 L 383.362 196.998 C 385.444 196.998 387.132 198.685 387.132 200.767 L 387.132 205.71 C 387.132 207.792 385.444 209.479 383.362 209.479 Z" style="fill: #9ab3da;"/>
  <path class="st0" d="M 231.759 211.916 L 224.685 211.916 C 222.603 211.916 220.915 210.228 220.915 208.146 L 220.915 203.204 C 220.915 201.122 222.603 199.434 224.685 199.434 L 231.759 199.434 C 233.841 199.434 235.529 201.122 235.529 203.204 L 235.529 208.146 C 235.529 210.228 233.841 211.916 231.759 211.916 Z" style="fill: rgb(246, 141, 136);"/>
  <path class="st0" d="M 231.759 244.31 L 224.685 244.31 C 222.603 244.31 220.915 242.623 220.915 240.541 L 220.915 235.598 C 220.915 233.516 222.603 231.829 224.685 231.829 L 231.759 231.829 C 233.841 231.829 235.529 233.516 235.529 235.598 L 235.529 240.541 C 235.529 242.623 233.841 244.31 231.759 244.31 Z" style="fill: rgb(246, 141, 136);"/>
  <path class="st0" d="M 231.759 276.705 L 224.685 276.705 C 222.603 276.705 220.915 275.017 220.915 272.935 L 220.915 267.993 C 220.915 265.911 222.603 264.223 224.685 264.223 L 231.759 264.223 C 233.841 264.223 235.529 265.911 235.529 267.993 L 235.529 272.935 C 235.529 275.017 233.841 276.705 231.759 276.705 Z" style="fill: rgb(246, 141, 136);"/>
  <polyline class="st1" points="242.894 191.269 242.894 284.418 337.231 284.418" style="fill: none; stroke: rgb(38, 36, 36); stroke-linecap: round; stroke-linejoin: round; stroke-miterlimit: 10; stroke-width: 1.56824px;"/>
  <path class="st2" d="M 266.705 203.204 L 266.705 272.935 C 266.705 275.017 265.017 276.705 262.935 276.705 L 257.993 276.705 C 255.911 276.705 254.224 275.017 254.224 272.935 L 254.224 203.204 C 254.224 201.122 255.911 199.434 257.993 199.434 L 262.935 199.434 C 265.017 199.434 266.705 201.122 266.705 203.204 Z" style="fill: #404b7e;"/>
  <path class="st2" d="M 289.716 219.99 L 289.716 272.935 C 289.716 275.017 288.028 276.705 285.946 276.705 L 281.004 276.705 C 278.922 276.705 277.234 275.017 277.234 272.935 L 277.234 219.99 C 277.234 217.908 278.922 216.22 281.004 216.22 L 285.946 216.22 C 288.028 216.22 289.716 217.908 289.716 219.99 Z" style="fill: #404b7e;"/>
  <path class="st2" d="M 312.727 234.105 L 312.727 272.935 C 312.727 275.017 311.039 276.705 308.957 276.705 L 304.015 276.705 C 301.933 276.705 300.245 275.017 300.245 272.935 L 300.245 234.105 C 300.245 232.023 301.933 230.335 304.015 230.335 L 308.957 230.335 C 311.039 230.335 312.727 232.023 312.727 234.105 Z" style="fill: #404b7e;"/>
  <path class="st0" d="M 333.461 211.916 L 304.015 211.916 C 301.933 211.916 300.245 210.228 300.245 208.146 L 300.245 203.204 C 300.245 201.122 301.933 199.434 304.015 199.434 L 333.461 199.434 C 335.543 199.434 337.231 201.122 337.231 203.204 L 337.231 208.146 C 337.231 210.228 335.543 211.916 333.461 211.916 Z" style="fill: rgb(246, 141, 136);"/>
  <path class="st2" d="M 146.814 127.361 L 23.37 127.361 C 19.479 127.361 16.324 124.206 16.324 120.314 L 16.324 98.028 C 16.324 94.137 19.479 90.982 23.37 90.982 L 146.814 90.982 C 150.705 90.982 153.86 94.137 153.86 98.028 L 153.86 120.314 C 153.86 124.206 150.705 127.361 146.814 127.361 Z" style="fill: rgb(154, 179, 218);"/>
  <polygon class="st3" points="-65.921 298.049 -51.713 314.22 -37.036 297.088 -57.684 287.304" style="fill: rgb(255, 255, 255); stroke: rgb(38, 36, 36); stroke-linecap: round; stroke-linejoin: round; stroke-miterlimit: 10; stroke-width: 1.56824px;"/>
  <path class="st3" d="M -52.237 297.091 L -57.073 302.707 C -58.468 304.326 -58.512 306.71 -57.176 308.379 L -52.535 314.18 C -51.741 315.172 -50.561 315.777 -49.292 315.841 L -49.292 315.841 C -47.954 315.909 -46.657 315.369 -45.762 314.372 L -39.481 307.375 C -38.272 306.028 -38.001 304.083 -38.796 302.457 L -39.505 301.007 C -39.906 300.187 -40.55 299.51 -41.349 299.069 L -46.726 296.102 C -48.566 295.086 -50.865 295.499 -52.237 297.091 Z" style="fill: rgb(255, 255, 255); stroke: rgb(38, 36, 36); stroke-linecap: round; stroke-linejoin: round; stroke-miterlimit: 10; stroke-width: 1.56824px;"/>
  <path class="st3" d="M -48.317 293.086 L -48.317 293.086 C -47.493 291.968 -46.029 291.53 -44.726 292.011 L -39.163 294.067 C -37.445 294.702 -36.094 296.063 -35.473 297.787 L -34.834 299.561 C -34.44 300.655 -34.687 301.876 -35.474 302.731 L -35.735 303.015 C -36.307 303.635 -37.106 303.998 -37.95 304.019 L -38.907 304.043 C -40.728 304.09 -42.477 303.334 -43.692 301.977 L -48.131 297.016 C -49.116 295.916 -49.194 294.275 -48.317 293.086 Z" style="fill: rgb(255, 255, 255); stroke: rgb(38, 36, 36); stroke-linecap: round; stroke-linejoin: round; stroke-miterlimit: 10; stroke-width: 1.56824px;"/>
  <path class="st3" d="M -57.684 287.304 L -43.835 290.028 C -42.547 290.281 -41.494 291.208 -41.078 292.453 C -40.659 293.708 -40.953 295.091 -41.844 296.068 L -48.09 302.911 C -48.977 303.883 -50.464 304.006 -51.499 303.193 C -52.41 302.477 -52.714 301.232 -52.235 300.177 L -50.67 296.734 L -55.847 297.228 C -56.784 297.317 -57.693 296.875 -58.201 296.082 L -61.112 291.544 L -57.684 287.304 Z" style="fill: rgb(255, 255, 255); stroke: rgb(38, 36, 36); stroke-linecap: round; stroke-linejoin: round; stroke-miterlimit: 10; stroke-width: 1.56824px;"/>
  <path class="st2" d="M -18.106 186.878 C -8.212 205.71 -55.66 248.551 -55.66 248.551 C -55.66 248.551 -52.312 272.275 -49.685 287.851 L -66.901 300.147 C -66.901 300.147 -83.341 271.771 -86.92 252.247 C -87.795 247.464 -88.587 242.747 -89.197 238.41 C -89.197 238.41 -86.622 233.525 -82.097 226.459 C -74.559 214.685 -56.314 190.109 -40.845 178.764 C -40.845 178.764 -27.997 168.049 -18.106 186.878 Z" style="fill: #404b7e;"/>
  <path class="st4" d="M -77.796 241.844 C -79.316 247.147 -82.947 251.063 -86.92 252.247 C -87.795 247.464 -88.587 242.747 -89.197 238.41 C -89.197 238.41 -86.622 233.525 -82.097 226.459 C -77.852 228.971 -75.94 235.364 -77.796 241.844 Z" style="fill: rgb(255, 255, 255);"/>
  <line class="st1" x1="-75.343" y1="244.579" x2="-57.574" y2="248.403" style="fill: none; stroke-linecap: round; stroke-linejoin: round; stroke-miterlimit: 10; stroke-width: 1.56824px; stroke: rgb(154, 179, 218);"/>
  <polygon class="st3" points="-36.099 370.715 -60.205 372.978 -55.953 362.578 -35.77 359.337" style="fill: rgb(255, 255, 255); stroke: rgb(38, 36, 36); stroke-linecap: round; stroke-linejoin: round; stroke-miterlimit: 10; stroke-width: 1.56824px;"/>
  <g transform="matrix(1, 0, 0, 1, -121.630402, -97.215759)">
    <path class="st0" d="M48.5078125,497.1922913c0.9248924-1.3226013,2.4781761-4.3954468,3.5074654-5.6138916 c7.9634247-9.428772,15.3957329-15.7812195,18.8116341-18.5836792l-3.4773788-17.7140198 c-11.9679604,0.980011-23.0995331,2.6517029-29.5268326,3.7253723 c-3.5816994,0.5960999-5.7038383,1.0091248-5.7038383,1.0091248l5.4495468,42.2096863l4.1005898-0.5294189 C44.3339806,501.3513794,46.7314377,499.73172,48.5078125,497.1922913z" style="fill: #9ab3da;"/>
    <ellipse transform="matrix(0.9917685 -0.1280438 0.1280438 0.9917685 -59.7945023 10.925127)" class="st4" cx="55.0749207" cy="470.5252075" rx="6.3408413" ry="4.2941346" style="fill: rgb(255, 255, 255);"/>
    <path class="st4" d="M41.6675911,501.6956482l-4.0998688,0.5292969l-5.4494019-42.2085571 c0,0,2.122467-0.4131775,5.7042542-1.0115967l4.6743011,36.2049866c0,0,4.6686935-0.4098511,8.4380188-2.0539551 c-0.8576164,1.3915405-1.790947,3.1280823-2.4264297,4.0355225 C46.7303276,499.7327271,44.3334122,501.3514709,41.6675911,501.6956482z" style="fill: rgb(255, 255, 255);"/>
    <path class="st1" d="M41.6675911,501.6956482l-4.0998688,0.5292969l-5.4494019-42.2085571 c0,0,2.122467-0.4131775,5.7042542-1.0115967l4.6743011,36.2049866c0,0,4.6686935-0.4098511,8.4380188-2.0539551 c-0.8576164,1.3915405-1.790947,3.1280823-2.4264297,4.0355225 C46.7303276,499.7327271,44.3334122,501.3514709,41.6675911,501.6956482z" style="fill: none; stroke: rgb(38, 36, 36); stroke-linecap: round; stroke-linejoin: round; stroke-miterlimit: 10; stroke-width: 1.56824px;"/>
  </g>
  <path class="st0" d="M 43.047 374.653 L 35.869 374.582 L -38.351 373.809 L -40.797 354.866 L 11.536 343.169 C 43.418 334.334 55.739 346.597 57.694 356.972 C 58.215 359.759 57.994 362.419 57.192 364.488 C 53.438 374.229 43.047 374.653 43.047 374.653 Z" style="fill: rgb(246, 141, 136);"/>
  <path class="st4" d="M 43.047 374.653 L 35.869 374.582 C 35.796 374.248 35.741 373.903 35.696 373.556 C 34.574 364.868 40.707 356.917 49.385 355.797 C 52.311 355.419 55.161 355.867 57.694 356.972 C 58.215 359.759 57.994 362.419 57.192 364.488 C 53.438 374.229 43.047 374.653 43.047 374.653 Z" style="fill: rgb(255, 255, 255);"/>
  <line class="st1" x1="38.274" y1="357.029" x2="-31.006" y2="364.39" style="fill: none; stroke-linecap: round; stroke-linejoin: round; stroke-miterlimit: 10; stroke-width: 1.56824px; stroke: rgb(236, 189, 187);"/>
  <line class="st1" x1="28.358" y1="340.218" x2="38.274" y2="357.029" style="fill: none; stroke: rgb(38, 36, 36); stroke-linecap: round; stroke-linejoin: round; stroke-miterlimit: 10; stroke-width: 1.56824px;"/>
  <line class="st1" x1="-34.283" y1="356.631" x2="-32.351" y2="371.596" style="fill: none; stroke-linecap: round; stroke-linejoin: round; stroke-miterlimit: 10; stroke-width: 1.56824px; stroke: rgb(236, 189, 187);"/>
  <path class="st0" d="M 57.979 356.89 C 57.979 357.39 57.959 357.9 57.899 358.41 C 57.899 358.42 57.899 358.43 57.899 358.43 C 57.859 358.95 57.779 359.46 57.679 359.98 C 55.659 368.27 48.429 374.19 39.989 374.62 C 39.659 374.64 39.329 374.65 38.999 374.65 L 38.299 374.65 C 37.809 374.65 37.319 374.63 36.839 374.59 C 36.509 374.57 36.179 374.54 35.849 374.49 C 32.419 374.05 29.159 372.69 26.419 370.54 L -30.561 325.75 C -37.171 320.3 -40.691 311.97 -40.001 303.43 L -38.231 260.58 L 13.859 258.94 L 11.739 301.56 L 52.879 345.07 C 56.169 348.17 57.979 352.46 57.979 356.89 Z" style="fill: rgb(246, 141, 136);"/>
  <polygon class="st1" points="-14.805 306.278 -23.787 309.43 -32.769 306.278 -32.769 288.185 -14.805 288.185" style="fill: none; stroke-linecap: round; stroke-linejoin: round; stroke-miterlimit: 10; stroke-width: 1.56824px; stroke: rgb(236, 189, 187);"/>
  <path class="st4" d="M 57.899 358.41 C 57.899 358.42 57.899 358.43 57.899 358.43 C 57.859 358.95 57.779 359.46 57.679 359.98 C 55.659 368.27 48.429 374.19 39.989 374.62 L 36.839 374.59 L 35.869 374.58 C 35.859 374.55 35.859 374.52 35.849 374.49 C 35.789 374.19 35.739 373.87 35.699 373.56 C 34.579 364.87 40.709 356.92 49.389 355.8 C 52.309 355.42 55.159 355.87 57.689 356.97 C 57.779 357.46 57.849 357.94 57.899 358.41 Z" style="fill: rgb(255, 255, 255);"/>
  <path class="st1" d="M 57.694 356.972 C 58.215 359.759 57.994 362.419 57.192 364.488 C 53.438 374.229 43.047 374.653 43.047 374.653 L 35.869 374.582" style="fill: none; stroke: rgb(38, 36, 36); stroke-linecap: round; stroke-linejoin: round; stroke-miterlimit: 10; stroke-width: 1.56824px;"/>
  <polyline class="st1" points="5.06 323.165 37.633 356.684 12.689 359.747" style="fill: none; stroke-linecap: round; stroke-linejoin: round; stroke-miterlimit: 10; stroke-width: 1.56824px; stroke: rgb(236, 189, 187);"/>
  <path class="st0" d="M 9.884 326.589 L 9.884 326.589 C 17.389 330.711 26.434 330.905 34.108 327.107 L 93.717 295.702 C 100.586 292.082 105.667 285.8 107.769 278.326 L 107.769 278.326 C 109.64 271.673 107.108 264.564 101.452 260.592 L 101.452 260.592 C 96.897 257.395 91.026 256.745 85.882 258.868 L 43.229 274.271 L 41.374 255.736 L -4.159 267.855 L -3.691 304.06 C -3.539 313.463 1.642 322.062 9.884 326.589 Z" style="fill: rgb(246, 141, 136);"/>
  <polygon class="st1" points="19.954 306.278 10.972 309.43 1.99 306.278 1.99 288.185 19.954 288.185" style="fill: none; stroke-linecap: round; stroke-linejoin: round; stroke-miterlimit: 10; stroke-width: 1.56824px; stroke: rgb(236, 189, 187);"/>
  <path class="st1" d="M -4.159 267.855 L -3.691 304.06 C -3.539 313.463 1.642 322.062 9.884 326.589 L 9.884 326.589 C 13.577 328.617 17.642 329.694 21.733 329.813 C 21.733 329.813 25.438 329.902 27.894 329.258 C 30.35 328.615 33.316 327.48 33.316 327.48" style="fill: none; stroke-linecap: round; stroke-linejoin: round; stroke-miterlimit: 10; stroke-width: 1.56824px; stroke: rgb(236, 189, 187);"/>
  <polyline class="st1" points="25.111 271.269 25.836 298.184 90.239 277.536" style="fill: none; stroke-linecap: round; stroke-linejoin: round; stroke-miterlimit: 10; stroke-width: 1.56824px; stroke: rgb(236, 189, 187);"/>
  <path class="st1" d="M 25.836 298.184 L 29.892 292.842 C 32.482 289.429 33.892 285.266 33.91 280.982 L 33.951 271.269" style="fill: none; stroke-linecap: round; stroke-linejoin: round; stroke-miterlimit: 10; stroke-width: 1.56824px; stroke: rgb(236, 189, 187);"/>
  <polygon class="st3" points="94.29 353.049 93.448 377.246 83.678 371.698 83.048 351.267" style="fill: rgb(255, 255, 255); stroke: rgb(38, 36, 36); stroke-linecap: round; stroke-linejoin: round; stroke-miterlimit: 10; stroke-width: 1.56824px;"/>
  <g transform="matrix(1, 0, 0, 1, -121.630402, -97.215759)">
    <path class="st0" d="M240.20047,490.7305298c-1.1932678-1.0866394-4.0419464-3.0205994-5.1185608-4.1974182 c-8.3314819-9.1051636-13.6799927-17.2897034-16.0220032-21.0363159l-18.013443,1.1805725 c-0.5605011,11.9949341-0.3278961,23.2489319-0.0860291,29.7608032c0.1325836,3.62854,0.2704773,5.7861023,0.2704773,5.7861023 h42.5599976v-4.1346436C243.7909088,495.4025269,242.4915619,492.8174438,240.20047,490.7305298z" style="fill: #9ab3da;"/>
    <ellipse class="st4" cx="214.5937653" cy="480.8029175" rx="4.2941346" ry="6.3408413" style="fill: rgb(255, 255, 255);"/>
    <path class="st4" d="M243.7909088,498.0910645v4.1338806h-42.5588837c0,0-0.1380157-2.1578979-0.2728729-5.7868042h36.5054779 c0,0,0.19133-4.6827393-0.9566193-8.6315613c1.2702789,1.028717,2.8730011,2.1767273,3.6916199,2.9231873 C242.4924011,492.8186646,243.7909088,495.4031067,243.7909088,498.0910645z" style="fill: rgb(255, 255, 255);"/>
    <path class="st1" d="M243.7909088,498.0910645v4.1338806h-42.5588837c0,0-0.1380157-2.1578979-0.2728729-5.7868042h36.5054779 c0,0,0.19133-4.6827393-0.9566193-8.6315613c1.2702789,1.028717,2.8730011,2.1767273,3.6916199,2.9231873 C242.4924011,492.8186646,243.7909088,495.4031067,243.7909088,498.0910645z" style="fill: none; stroke: rgb(38, 36, 36); stroke-linecap: round; stroke-linejoin: round; stroke-miterlimit: 10; stroke-width: 1.56824px;"/>
  </g>
  <path class="st0" d="M 108.33 275.059 L 107.34 282.169 L 97.07 355.679 L 77.97 355.679 L 73.07 302.279 C 68.39 269.529 82.13 258.879 92.67 258.269 C 95.5 258.109 98.11 258.669 100.06 259.729 C 109.24 264.699 108.33 275.059 108.33 275.059 Z" style="fill: rgb(246, 141, 136);"/>
  <path class="st4" d="M 108.33 275.059 L 107.34 282.169 C 107 282.199 106.65 282.209 106.3 282.209 C 97.54 282.209 90.44 275.109 90.44 266.359 C 90.44 263.409 91.25 260.639 92.67 258.269 C 95.5 258.109 98.11 258.669 100.06 259.729 C 109.24 264.699 108.33 275.059 108.33 275.059 Z" style="fill: rgb(255, 255, 255);"/>
  <path class="st1" d="M 92.67 258.269 C 95.5 258.109 98.11 258.669 100.06 259.729 C 109.24 264.699 108.33 275.059 108.33 275.059 L 107.34 282.169" style="fill: none; stroke: rgb(38, 36, 36); stroke-linecap: round; stroke-linejoin: round; stroke-miterlimit: 10; stroke-width: 1.56824px;"/>
  <line class="st1" x1="90.239" y1="277.536" x2="88.669" y2="347.188" style="fill: none; stroke-linecap: round; stroke-linejoin: round; stroke-miterlimit: 10; stroke-width: 1.56824px; stroke: rgb(236, 189, 187);"/>
  <line class="st1" x1="72.483" y1="283.229" x2="90.239" y2="277.536" style="fill: none; stroke-linecap: round; stroke-linejoin: round; stroke-miterlimit: 10; stroke-width: 1.56824px; stroke: rgb(236, 189, 187);"/>
  <line class="st1" x1="80.554" y1="349.445" x2="95.643" y2="349.445" style="fill: none; stroke-linecap: round; stroke-linejoin: round; stroke-miterlimit: 10; stroke-width: 1.56824px; stroke: rgb(236, 189, 187);"/>
  <polygon class="st3" points="-14.577 171.289 -15.061 158.6 -6.378 159.236 -4.65 169.347" style="fill: rgb(255, 255, 255); stroke: rgb(38, 36, 36); stroke-linecap: round; stroke-linejoin: round; stroke-miterlimit: 10; stroke-width: 1.56824px;"/>
  <path class="st3" d="M -11.321 156.483 C -11.321 156.483 -6.063 161.58 -0.009 160.396 C 6.045 159.212 5.692 133.447 -5.493 133.451 C -16.677 133.455 -21.154 147.061 -11.321 156.483 Z" style="fill: rgb(255, 255, 255); stroke: rgb(38, 36, 36); stroke-linecap: round; stroke-linejoin: round; stroke-miterlimit: 10; stroke-width: 1.56824px;"/>
  <path class="st5" d="M 0.201 147.305 C 0.201 147.305 -1.901 142.549 -5.149 144.463 C -8.397 146.377 -7.098 151.929 -4.273 153.027 L -6.378 159.236 L -14.973 160.917 C -14.973 160.917 -23.721 152.996 -25.686 147.308 C -27.651 141.62 -22.098 140.055 -22.098 140.055 C -22.098 140.055 -22.055 134.826 -18.121 133.151 C -14.188 131.477 -2.44 131.629 -2.44 131.629 C -2.44 131.629 -0.929 127.711 0.926 127.388 C 2.78 127.066 3.494 130.921 3.494 130.921 C 3.494 130.921 5.301 127.292 6.99 127.96 C 8.679 128.628 8.675 142.092 0.629 141.189 C 0.629 141.189 2.694 146.298 0.201 147.305 Z" style="fill: rgb(38, 36, 36);"/>
  <path class="st3" d="M -21.859 173.272 C -21.859 173.272 -20.677 166.649 -11.443 164.843 C -2.209 163.037 2.544 170.177 2.544 170.177 L -21.543 174.888 L -21.859 173.272 Z" style="fill: rgb(255, 255, 255); stroke: rgb(38, 36, 36); stroke-linecap: round; stroke-linejoin: round; stroke-miterlimit: 10; stroke-width: 1.56824px;"/>
  <path class="st2" d="M 45.133 269.175 C 41.533 271.276 37.785 273.092 33.951 274.651 L 28.527 276.677 C -6.167 288.541 -45.401 281.77 -45.401 281.77 C -48.915 216.411 -37.603 177.336 -37.603 177.336 C -21.072 169.862 26.013 164.893 26.013 164.893 C 34.819 205.567 45.133 269.175 45.133 269.175 Z" style="fill: #404b7e;"/>
  <path class="st1" d="M -38.233 179.747 C -39.398 184.465 -41.942 195.993 -43.818 213.331 L -45.291 230.78" style="fill: none; stroke-linecap: round; stroke-linejoin: round; stroke-miterlimit: 10; stroke-width: 1.56824px; stroke: rgb(154, 179, 218);"/>
  <path class="st1" d="M -13.362 177.496 C -13.362 177.496 -20.965 218.826 -12.456 272.131" style="fill: none; stroke-linecap: round; stroke-linejoin: round; stroke-miterlimit: 10; stroke-width: 1.56824px; stroke: rgb(154, 179, 218);"/>
  <path class="st1" d="M -41.492 275.485 C -41.492 275.485 -5.932 283.694 39.618 265.085" style="fill: none; stroke-linecap: round; stroke-linejoin: round; stroke-miterlimit: 10; stroke-width: 1.56824px; stroke: rgb(154, 179, 218);"/>
  <path class="st3" d="M 96.99 140.669 L 91.943 132.474 C 90.382 130.179 89.448 127.515 89.233 124.748 L 88.774 118.849 C 88.709 118.011 89.382 117.299 90.223 117.318 C 90.767 117.33 91.257 117.652 91.484 118.147 L 94.522 124.786 L 94.84 116.43 L 96.371 106.694 C 96.52 105.746 97.384 105.079 98.339 105.174 C 99.242 105.265 99.938 106.01 99.968 106.916 L 100.296 116.984 C 100.312 117.486 100.695 117.899 101.193 117.955 C 101.729 118.015 102.218 117.643 102.303 117.111 L 103.667 108.587 C 103.893 107.176 105.5 106.468 106.693 107.256 L 112.287 110.948 C 113.494 111.745 114.205 113.108 114.168 114.554 L 113.824 124.166 C 113.765 125.823 113.44 127.458 112.861 129.011 L 106.772 145.597 L 96.99 140.669 Z" style="fill: rgb(255, 255, 255); stroke: rgb(38, 36, 36); stroke-linecap: round; stroke-linejoin: round; stroke-miterlimit: 10; stroke-width: 1.56824px;"/>
  <path class="st2" d="M 13.693 181.581 C 14.489 175.296 18.076 167.65 25.572 164.952 C 37.877 164.252 67.783 163.453 67.783 163.453 C 67.783 163.453 84.423 147.675 94.361 137.34 L 108.94 143.451 C 108.94 143.451 101.459 160.473 93.744 177.367 C 91.852 181.505 89.932 185.548 88.077 189.203 C 88.077 189.203 83.483 191.57 76.227 194.565 C 64.135 199.559 44.644 206.295 26.698 206.709 C 26.698 206.709 11.193 201.325 13.693 181.581 Z" style="fill: #404b7e;"/>
  <path class="st1" d="M 26.698 206.709 C 26.698 206.709 11.193 201.325 13.693 181.581 C 14.353 176.376 16.927 170.236 22.05 166.748" style="fill: none; stroke-linecap: round; stroke-linejoin: round; stroke-miterlimit: 10; stroke-width: 1.56824px; stroke: rgb(154, 179, 218);"/>
  <path class="st4" d="M 81.171 180.459 C 85.177 177.206 90.061 176.147 93.744 177.367 C 91.852 181.505 89.932 185.548 88.077 189.203 C 88.077 189.203 83.483 191.57 76.227 194.565 C 74.316 190.364 76.274 184.436 81.171 180.459 Z" style="fill: rgb(255, 255, 255);"/>
  <line class="st1" x1="80.754" y1="177.047" x2="69.172" y2="164.593" style="fill: none; stroke-linecap: round; stroke-linejoin: round; stroke-miterlimit: 10; stroke-width: 1.56824px; stroke: rgb(154, 179, 218);"/>
</svg>