<?xml version="1.0" encoding="utf-8"?>
<svg viewBox="-166.989 22.955 666.989 470.214" xmlns="http://www.w3.org/2000/svg">
  <path class="cls-1" d="M -269.295 565.46 C -248.617 584.627 -183.434 601.752 -183.434 601.752 C -179.267 599.963 -175.085 598.006 -170.973 596.033 C -153.547 587.35 -136.696 577.567 -120.514 566.738 C -120.514 566.738 -108.948 555.347 -113.824 540.033 C -113.824 540.033 -122.837 520.757 -138.472 523.304 C -154.108 525.851 -227.328 525.073 -227.328 525.073 C -227.328 525.073 -248.431 505.904 -263.773 511.208 C -279.116 516.512 -289.973 546.285 -269.295 565.46 Z" style="fill: rgb(236, 189, 187);"/>
  <ellipse class="cls-2" cx="869.77" cy="668.23" rx="9.701" ry="13.344" transform="matrix(-0.5139, -0.85785, -0.85785, 0.5139, 864.531838, 974.786551)" style="fill: rgb(255, 255, 255);"/>
  <path class="cls-3" d="M -157.094 584.499 C -154.498 584.162 -151.998 583.287 -149.758 581.931 C -146.511 580.049 -143.931 577.196 -142.391 573.77 C -140.943 570.355 -141.041 566.977 -142.657 564.248 C -144.268 561.517 -147.224 559.829 -150.916 559.506 C -154.655 559.257 -158.378 560.186 -161.562 562.164 C -168.723 566.453 -171.902 574.38 -168.64 579.816 C -166.503 583.48 -161.998 585.102 -157.094 584.499 Z M -153.776 563.166 C -152.941 563.062 -152.1 563.046 -151.26 563.119 C -146.489 562.978 -143.357 568.055 -145.618 572.257 C -145.649 572.307 -145.675 572.361 -145.705 572.411 C -146.951 575.12 -149.015 577.374 -151.606 578.858 C -157.07 582.129 -163.335 581.746 -165.572 578.008 C -167.809 574.266 -165.189 568.565 -159.727 565.293 C -157.917 564.181 -155.898 563.458 -153.795 563.168 L -153.776 563.166 Z" style="fill: rgb(38, 36, 36);"/>
  <path class="cls-3" d="M -132.523 546.654 C -131.149 546.485 -130.471 544.894 -131.305 543.785 C -131.693 543.272 -132.325 543.001 -132.962 543.079 C -133.57 543.156 -193.726 550.302 -229.106 541.075 C -230.444 540.717 -231.668 541.946 -231.308 543.284 C -231.138 543.912 -230.642 544.4 -230.012 544.559 C -193.975 553.959 -135.024 546.961 -132.531 546.655 L -132.523 546.654 Z" style="fill: rgb(38, 36, 36);"/>
  <path class="cls-2" d="M -269.295 565.46 C -248.617 584.627 -183.434 601.752 -183.434 601.752 C -179.267 599.963 -175.085 598.006 -170.973 596.033 C -200.58 590.022 -244.636 566.912 -244.636 566.912 C -216.819 551.944 -227.31 525.072 -227.31 525.072 C -227.31 525.072 -248.413 505.903 -263.757 511.206 C -279.098 516.508 -289.973 546.285 -269.295 565.46 Z" style="fill: rgb(255, 255, 255);"/>
  <path class="cls-3" d="M -183.216 603.548 C -183.045 603.527 -182.88 603.479 -182.725 603.414 C -178.658 601.671 -174.437 599.731 -170.174 597.658 C -168.925 597.055 -168.794 595.331 -169.94 594.548 C -170.136 594.413 -170.356 594.319 -170.589 594.271 C -195.259 589.259 -230.564 572.018 -240.859 566.818 C -215.597 551.022 -225.496 524.692 -225.611 524.418 C -225.712 524.158 -225.869 523.924 -226.077 523.74 C -226.974 522.943 -248.148 503.919 -264.319 509.505 C -272.54 512.331 -279.349 521.254 -281.664 532.219 C -284.382 545.081 -280.348 557.689 -270.492 566.787 C -249.727 585.997 -186.544 602.795 -183.864 603.499 C -183.651 603.555 -183.433 603.57 -183.216 603.548 Z M -176.455 596.652 C -178.874 597.782 -181.272 598.857 -183.613 599.87 C -190.176 598.092 -249.04 581.832 -268.112 564.154 C -276.846 556.336 -280.699 544.427 -278.209 532.973 C -276.179 523.376 -270.16 515.321 -263.218 512.925 C -250.025 508.367 -231.552 523.824 -228.891 526.136 C -227.716 529.508 -220.975 552.126 -245.536 565.351 C -246.755 566.011 -246.808 567.74 -245.629 568.469 C -245.592 568.492 -245.555 568.513 -245.516 568.533 C -245.057 568.731 -205.655 589.294 -176.455 596.652 Z M -269.34 565.448 Z" style="fill: rgb(38, 36, 36);"/>
  <path class="cls-2" d="M -94.213 538.605 L -121.841 552.713 C -121.841 552.713 -138.788 549.673 -136.458 530.193 L -109.6 511.01 L -94.213 538.605 Z" style="fill: rgb(255, 255, 255);"/>
  <path class="cls-3" d="M -121.621 554.501 C -121.41 554.474 -121.206 554.414 -121.019 554.319 L -93.394 540.204 C -92.486 539.744 -92.143 538.621 -92.637 537.729 L -108.022 510.134 C -108.544 509.196 -109.77 508.924 -110.643 509.548 L -137.497 528.734 C -137.915 529.026 -138.189 529.483 -138.251 529.984 C -140.765 550.912 -122.358 554.463 -122.165 554.493 C -121.986 554.524 -121.802 554.526 -121.621 554.501 Z M -96.694 537.837 L -122.085 550.812 C -124.806 550.123 -136.173 546.315 -134.749 531.179 L -110.192 513.658 L -96.694 537.837 Z" style="fill: rgb(38, 36, 36);"/>
  <path class="cls-1" d="M -123.597 496.58 C -123.597 496.58 -116.76 532.603 -86.499 547.627 L 35.628 469.158 C 35.628 469.158 186.075 512.935 237.39 527.176 C 288.708 541.416 406.53 457.436 305.49 417.263 C 305.49 417.263 124.897 386.4 48.376 375.573 C 29.994 372.962 17.633 371.516 15.224 371.93 C 12.091 372.47 1.701 380.671 -12.089 392.638 C -52.932 428.084 -123.597 496.58 -123.597 496.58 Z" style="fill: rgb(246, 141, 136);"/>
  <path class="cls-2" d="M -12.089 392.638 C -4.81 396.687 5.069 398.566 15.617 397.267 C 31.955 395.262 44.898 386.246 48.376 375.573 C 29.994 372.962 17.633 371.516 15.225 371.931 C 12.089 372.472 1.701 380.671 -12.089 392.638 Z" style="fill: rgb(255, 255, 255);"/>
  <path class="cls-3" d="M -92.247 515.667 C -91.934 515.633 -91.637 515.519 -91.381 515.332 L 26.165 429.983 L 240.555 472.551 C 241.913 472.821 243.055 471.518 242.609 470.205 C 242.402 469.597 241.884 469.144 241.252 469.019 L 26.092 426.302 C 25.602 426.203 25.094 426.316 24.688 426.607 L -93.514 512.431 C -94.63 513.256 -94.43 514.976 -93.16 515.529 C -92.873 515.653 -92.56 515.701 -92.247 515.667 Z" style="fill: rgb(236, 189, 187);"/>
  <path class="cls-3" d="M 33.654 464.595 L 33.834 464.573 C 34.8 464.356 35.415 463.398 35.201 462.428 L 22.916 407.314 C 22.615 405.956 20.955 405.437 19.93 406.379 C 19.453 406.815 19.245 407.472 19.389 408.105 L 31.672 463.216 C 31.881 464.117 32.737 464.712 33.654 464.595 Z" style="fill: rgb(236, 189, 187);"/>
  <path class="cls-3" d="M -82.122 534.098 C -80.746 533.936 -80.061 532.344 -80.889 531.236 C -81.06 531.007 -81.279 530.823 -81.533 530.698 C -101.475 520.762 -109.057 494.187 -109.131 493.933 C -109.505 492.581 -111.199 492.142 -112.183 493.138 C -112.637 493.601 -112.815 494.274 -112.643 494.898 C -112.317 496.057 -104.579 523.268 -83.181 533.891 C -82.856 534.066 -82.487 534.139 -82.122 534.098 Z" style="fill: rgb(236, 189, 187);"/>
  <path class="cls-1" d="M -252.704 855.912 C -228.23 869.914 -160.865 871.873 -160.865 871.873 C -157.205 869.19 -153.566 866.367 -150.016 863.483 C -135.005 851.091 -120.796 837.752 -107.482 823.552 C -107.482 823.552 -98.771 809.88 -106.98 796.021 C -106.98 796.021 -120.114 779.281 -134.77 785.29 C -149.426 791.298 -220.931 807.082 -220.931 807.082 C -220.931 807.082 -245.818 793.178 -259.567 801.805 C -273.32 810.435 -277.182 841.897 -252.704 855.912 Z" style="fill: rgb(236, 189, 187);"/>
  <ellipse class="cls-2" cx="582.46" cy="1169.83" rx="9.701" ry="13.344" transform="matrix(-0.694451, -0.71954, -0.71954, 0.694451, 1105.695615, 443.446195)" style="fill: rgb(255, 255, 255);"/>
  <path class="cls-3" d="M -149.553 848.679 C -144.894 851.411 -137.803 849.991 -132.56 844.949 C -129.823 842.39 -127.952 839.039 -127.219 835.364 C -126.58 831.712 -127.439 828.444 -129.654 826.152 C -131.868 823.862 -135.1 822.884 -138.775 823.401 C -146.292 824.761 -152.248 830.512 -153.876 837.975 C -154.514 841.626 -153.657 844.894 -151.447 847.192 C -150.887 847.772 -150.25 848.271 -149.553 848.679 Z M -133.408 827.736 C -132.982 827.984 -132.594 828.29 -132.25 828.646 C -130.801 830.312 -130.249 832.58 -130.773 834.728 C -131.37 837.654 -132.87 840.316 -135.061 842.345 C -139.638 846.766 -145.829 847.809 -148.859 844.684 C -150.31 843.014 -150.862 840.748 -150.337 838.599 C -148.993 832.668 -144.264 828.101 -138.293 826.958 C -136.621 826.656 -134.897 826.932 -133.401 827.743 L -133.408 827.736 Z" style="fill: rgb(38, 36, 36);"/>
  <path class="cls-3" d="M -215.905 832.289 C -215.637 832.456 -215.329 832.545 -215.017 832.552 C -177.77 833.534 -121.939 813.431 -119.578 812.573 C -118.288 812.064 -118.033 810.354 -119.118 809.491 C -119.595 809.112 -120.231 808.998 -120.808 809.189 C -121.379 809.399 -178.383 829.953 -214.92 828.958 C -216.305 828.92 -217.21 830.4 -216.548 831.618 C -216.395 831.894 -216.174 832.127 -215.905 832.289 Z" style="fill: rgb(38, 36, 36);"/>
  <path class="cls-3" d="M -221.702 812.543 C -221.412 812.714 -221.08 812.801 -220.743 812.791 C -184.135 811.763 -129.763 794.646 -129.223 794.489 C -127.894 794.065 -127.53 792.362 -128.561 791.428 C -129.041 790.992 -129.717 790.847 -130.332 791.044 C -130.873 791.219 -184.76 808.155 -220.869 809.2 C -222.254 809.274 -223.038 810.818 -222.286 811.98 C -222.136 812.21 -221.936 812.403 -221.702 812.543 Z" style="fill: rgb(38, 36, 36);"/>
  <path class="cls-2" d="M -252.704 855.912 C -228.23 869.915 -160.865 871.873 -160.865 871.873 C -157.205 869.19 -153.566 866.367 -150.016 863.483 C -180.221 864.316 -228.359 851.756 -228.359 851.756 C -204.643 830.896 -220.931 807.082 -220.931 807.082 C -220.931 807.082 -245.818 793.178 -259.567 801.805 C -273.32 810.435 -277.182 841.897 -252.704 855.912 Z" style="fill: rgb(255, 255, 255);"/>
  <path class="cls-3" d="M -253.978 857.251 L -253.608 857.469 C -229.026 871.534 -163.696 873.582 -160.926 873.665 C -160.517 873.669 -160.118 873.535 -159.796 873.284 C -156.179 870.677 -152.545 867.822 -148.875 864.843 C -147.799 863.969 -148.07 862.258 -149.365 861.766 C -149.587 861.681 -149.819 861.639 -150.056 861.645 C -175.224 862.343 -213.505 853.513 -224.715 850.777 C -203.709 829.713 -219.275 806.27 -219.437 806.028 C -219.592 805.795 -219.803 805.606 -220.047 805.469 C -221.087 804.861 -246.067 791.134 -260.52 800.247 C -267.893 804.865 -272.53 815.112 -272.286 826.281 C -272.137 839.129 -265.165 850.929 -253.978 857.251 Z M -251.815 854.347 C -262.111 848.717 -268.572 837.97 -268.716 826.237 C -268.91 816.433 -264.861 807.216 -258.641 803.322 C -246.823 795.91 -225.334 806.781 -222.213 808.437 C -220.307 811.462 -208.633 831.969 -229.574 850.396 C -230.615 851.316 -230.27 853.013 -228.956 853.454 C -228.919 853.467 -228.881 853.478 -228.842 853.488 C -228.39 853.607 -185.361 864.741 -155.21 865.289 C -157.312 866.935 -159.404 868.525 -161.462 870.042 C -168.271 869.791 -229.265 867.251 -251.845 854.339 L -251.815 854.347 Z" style="fill: rgb(38, 36, 36);"/>
  <path class="cls-2" d="M -88.394 792.494 L -112.119 812.486 C -112.119 812.486 -129.322 813.35 -131.444 793.847 L -109.617 769.089 L -88.394 792.494 Z" style="fill: rgb(255, 255, 255);"/>
  <path class="cls-3" d="M -123.199 811.295 C -119.801 813.244 -115.953 814.272 -112.034 814.277 C -111.643 814.26 -111.267 814.109 -110.963 813.86 L -87.241 793.871 C -86.457 793.211 -86.378 792.036 -87.067 791.28 L -108.29 767.876 C -109.011 767.083 -110.264 767.091 -110.974 767.9 L -132.8 792.655 C -133.131 793.034 -133.29 793.535 -133.234 794.036 C -132.194 803.576 -127.779 808.608 -123.199 811.295 Z M -112.784 810.684 C -115.602 810.629 -127.524 809.486 -129.56 794.428 L -109.604 771.792 L -90.985 792.32 L -112.784 810.684 Z" style="fill: rgb(38, 36, 36);"/>
  <path class="cls-1" d="M -117.084 758.106 C -114.503 799.952 -72.672 805.709 -72.672 805.709 C -28.331 773.999 93.363 667.322 93.363 667.322 L 329.983 591.204 C 329.983 591.204 395.296 547.45 365.673 495.985 C 336.048 444.523 267.217 476.489 267.217 476.489 L 80.441 573.031 L 46.607 590.515 L 14.646 623.244 L -117.084 758.106 Z" style="fill: rgb(246, 141, 136);"/>
  <path class="cls-3" d="M 191.81 518.814 C 194.504 521.172 198.078 518.42 198.078 518.42 L 270.46 476.68 C 270.565 476.624 288.652 464.821 309.436 461.766 C 310.807 461.566 311.445 459.956 310.584 458.869 C 310.186 458.364 309.548 458.112 308.911 458.204 C 295.157 460.386 281.874 464.897 269.628 471.533 L 192.839 514.521 C 191.669 515.258 188.741 516.133 191.81 518.814 Z" style="fill: rgb(236, 189, 187);"/>
  <path class="cls-3" d="M 246.432 488.146 C 247.586 488.032 248.33 486.873 247.955 485.777 L 242.64 470.19 C 241.4 466.567 241.597 462.607 243.195 459.125 L 262.77 416.173 C 263.325 414.905 262.298 413.51 260.92 413.663 C 260.3 413.733 259.761 414.118 259.495 414.68 L 239.856 457.631 C 237.881 461.935 237.633 466.835 239.161 471.316 L 244.476 486.902 C 244.738 487.738 245.562 488.265 246.432 488.146 Z" style="fill: rgb(236, 189, 187);"/>
  <path class="cls-2" d="M 14.645 623.243 C 14.934 623.641 15.227 624.031 15.551 624.42 C 26.597 637.857 49.903 637.004 67.524 622.473 C 84.662 608.38 90.223 586.607 80.421 573.061 L 46.589 590.546 L 14.645 623.243 Z" style="fill: rgb(255, 255, 255);"/>
  <path class="cls-3" d="M -68.712 780.567 C -68.055 780.948 -67.228 780.879 -66.645 780.391 C -17.773 739.355 75.517 657.208 81.114 652.217 L 326.293 564.646 C 327.605 564.191 327.936 562.484 326.886 561.575 C 326.398 561.15 325.722 561.021 325.113 561.231 L 79.592 648.958 C 79.379 649.033 79.178 649.149 79.005 649.299 C 78.033 650.161 -18.826 735.564 -68.948 777.641 C -69.895 778.44 -69.774 779.932 -68.712 780.567 Z" style="fill: rgb(236, 189, 187);"/>
  <path class="cls-3" d="M 89.644 666.539 C 90.842 667.242 92.349 666.386 92.357 664.999 C 92.359 664.624 92.245 664.258 92.03 663.953 L 72.325 635.878 C 71.528 634.744 69.803 634.898 69.223 636.154 C 68.949 636.74 69.01 637.423 69.379 637.946 L 89.083 666.023 C 89.232 666.231 89.424 666.411 89.644 666.539 Z" style="fill: rgb(236, 189, 187);"/>
  <path class="cls-3" d="M -81.604 788.902 C -77.04 791.614 -72.167 793.773 -67.096 795.328 C -65.748 795.654 -64.55 794.405 -64.936 793.076 C -65.106 792.505 -65.542 792.053 -66.108 791.868 C -66.415 791.783 -96.92 782.923 -104.798 755.077 C -105.177 753.741 -106.857 753.319 -107.825 754.311 C -108.27 754.773 -108.44 755.438 -108.264 756.06 C -103.533 772.899 -91.459 783.118 -81.604 788.902 Z" style="fill: rgb(236, 189, 187);"/>
  <path class="cls-4" d="M 305.321 169.918 C 305.321 169.918 181.679 253.46 177.92 289.282 C 174.162 325.104 227.409 329.088 270.428 280.737 C 313.448 232.383 305.321 169.918 305.321 169.918 Z" style="fill: rgb(154, 179, 218);"/>
  <path class="cls-2" d="M 214.129 273.908 C 220.068 275.618 221.491 285.85 220.177 298.551 C 218.863 311.253 191.602 314.456 188.079 310.357 C 184.557 306.255 183.83 289.271 186.532 284.254 C 189.233 279.234 206.769 271.783 214.129 273.908 Z" style="fill: rgb(255, 255, 255);"/>
  <path class="cls-3" d="M 199.838 313.525 C 202.491 313.201 205.11 312.638 207.663 311.847 C 216.291 309.15 221.377 304.486 221.965 298.721 C 223.083 287.896 222.716 274.494 214.62 272.162 C 206.597 269.856 188.048 277.637 184.944 283.379 C 181.998 288.89 182.517 306.643 186.706 311.515 C 188.634 313.761 194.077 314.234 199.838 313.525 Z M 213.626 275.63 C 217.943 276.912 219.725 285.372 218.384 298.358 C 217.769 304.287 209.933 307.361 206.591 308.41 C 198.495 310.943 190.512 310.385 189.457 309.164 C 186.577 305.817 185.684 289.615 188.13 285.089 C 190.346 280.983 206.818 273.662 213.64 275.61 L 213.626 275.63 Z" style="fill: rgb(38, 36, 36);"/>
  <path class="cls-2" d="M 227.134 272.91 C 234.783 273.238 233.288 291.038 232.214 299.487 C 231.138 307.932 219.294 312.407 218.369 301.188 C 217.444 289.968 218.023 272.523 227.134 272.91 Z" style="fill: rgb(255, 255, 255);"/>
  <path class="cls-3" d="M 224.725 309.626 C 228.844 309.119 233.264 305.303 234.019 299.708 C 235.762 286.084 235 277.22 231.753 273.376 C 230.642 272.005 228.993 271.176 227.23 271.101 C 224.948 270.977 222.732 271.878 221.183 273.559 C 215.485 279.488 216.088 294.956 216.617 301.317 C 217.243 308.933 222.172 309.642 223.674 309.674 C 224.025 309.684 224.378 309.668 224.725 309.626 Z M 227.073 274.705 C 227.835 274.726 228.545 275.093 229.011 275.699 C 231.461 278.615 231.993 287.202 230.454 299.251 C 229.943 303.228 226.484 306.137 223.738 306.075 C 220.993 306.011 220.335 302.867 220.197 301.07 C 219.414 291.611 219.945 280.075 223.772 276.096 C 224.619 275.17 225.843 274.688 227.092 274.783 L 227.073 274.705 Z" style="fill: rgb(38, 36, 36);"/>
  <path class="cls-4" d="M 378.75 536.412 C 378.75 536.412 318.799 456.737 188.33 393.585 L 253.347 332.402 C 253.347 332.402 260.128 249.815 305.313 169.918 C 305.313 169.918 350.312 152.448 377.403 151.54 C 404.489 150.633 449.626 203.114 449.626 203.114 C 449.626 203.114 444.003 363.995 434.962 418.301 C 425.921 472.607 378.75 536.412 378.75 536.412 Z" style="fill: rgb(154, 179, 218);"/>
  <path class="cls-3" d="M 353.125 247.059 C 353.844 246.996 354.549 246.791 355.188 246.452 C 356.22 245.838 357.109 245.308 360.765 221.142 C 362.519 209.592 364.061 198.069 364.07 197.923 C 364.3 196.558 362.968 195.452 361.669 195.934 C 361.024 196.174 360.569 196.766 360.503 197.457 C 357.845 217.44 354.405 239.774 353.035 243.462 C 350.37 243.7 347.688 243.31 345.198 242.328 C 343.635 241.689 342.6 240.882 342.285 240.059 C 341.39 237.449 344.561 215.428 348.135 195.665 C 348.382 194.3 347.061 193.183 345.757 193.649 C 345.149 193.867 344.707 194.39 344.591 195.021 C 342.832 204.767 337.206 236.892 338.922 241.352 C 339.695 243.351 341.695 244.954 344.725 245.995 C 347.425 246.915 350.281 247.278 353.125 247.059 Z" style="fill: rgb(64, 75, 126);"/>
  <path class="cls-3" d="M 380.894 509.557 C 382.269 509.388 382.947 507.796 382.114 506.69 C 382.064 506.62 382.01 506.556 381.951 506.497 C 381.062 505.61 292.266 417.084 209.324 386.897 C 208.038 386.384 206.676 387.456 206.874 388.827 C 206.971 389.502 207.44 390.062 208.09 390.276 C 290.28 420.181 378.518 508.141 379.387 509.033 C 379.779 509.431 380.337 509.625 380.894 509.557 Z" style="fill: rgb(64, 75, 126);"/>
  <path class="cls-3" d="M 261.474 287.768 C 262.225 287.675 262.838 287.12 263.008 286.381 C 269.013 260.076 280.597 220.336 301.668 180.405 C 302.312 179.174 301.388 177.71 300.004 177.765 C 299.359 177.791 298.779 178.156 298.479 178.727 C 277.253 218.998 265.571 259.066 259.518 285.578 C 259.242 286.784 260.243 287.905 261.474 287.768 Z" style="fill: rgb(64, 75, 126);"/>
  <path class="cls-2" d="M 336.038 172.717 C 337.934 182.692 347.586 189.431 347.586 189.431 C 348.694 183.692 353.374 173.823 358.403 165.543 C 358.403 165.543 362.517 178.638 365.507 189.778 C 372.259 190.353 398.784 186.933 404.277 170.508 C 404.277 170.508 398.956 137.314 366.838 138.838 C 353.035 139.557 338.2 154.217 336.038 172.717 Z" style="fill: rgb(255, 255, 255);"/>
  <path class="cls-3" d="M 373.048 191.218 C 384.078 189.861 401.445 184.727 406.017 171.09 C 406.108 170.815 406.13 170.52 406.081 170.233 C 406.04 169.883 400.127 135.467 366.796 137.086 C 351.329 137.834 336.438 154.043 334.281 172.496 C 334.26 172.677 334.268 172.86 334.303 173.037 C 336.31 183.618 346.175 190.621 346.585 190.879 C 347.648 191.616 349.12 191.022 349.377 189.756 C 350.278 185.227 353.603 177.584 357.915 169.956 C 359.401 174.678 361.829 182.929 363.796 190.223 C 363.99 190.956 364.625 191.485 365.38 191.552 C 367.942 191.684 370.508 191.571 373.048 191.218 Z M 402.455 170.377 C 397.339 184.35 374.617 188.06 366.932 188.015 C 364.009 177.286 360.194 165.116 360.159 164.984 C 359.747 163.66 358.059 163.277 357.118 164.297 C 357.036 164.385 356.962 164.482 356.901 164.586 C 352.949 171.089 348.527 179.821 346.576 186.246 C 343.828 183.799 339.19 178.874 337.899 172.642 C 340.169 154.229 354.734 141.269 366.976 140.681 C 379.59 140.04 389.418 144.924 396.14 155.103 C 399.147 159.773 401.276 164.949 402.421 170.381 L 402.455 170.377 Z" style="fill: rgb(38, 36, 36);"/>
  <path class="cls-2" d="M 313.4 323.058 L 298.712 317.908 C 298.712 317.908 277.978 296.729 274.045 292.987 C 270.114 289.246 240.982 306.722 239.486 309.32 C 237.992 311.912 239.826 315.774 242.633 316.483 C 238.677 323.535 238.214 332.02 241.377 339.458 C 246.711 352.105 268.221 337.821 268.221 337.821 C 268.221 337.821 276.441 354.338 283.361 355.3 C 290.28 356.261 307.497 350.068 307.497 350.068 L 313.4 323.058 Z" style="fill: rgb(255, 255, 255);"/>
  <path class="cls-3" d="M 288.236 356.975 C 296.355 355.979 307.568 351.972 308.141 351.767 C 308.723 351.555 309.156 351.061 309.285 350.455 L 315.186 323.436 C 315.377 322.55 314.879 321.658 314.025 321.356 L 299.737 316.347 C 297.092 313.653 279.005 295.215 275.318 291.677 C 274.364 290.77 272.902 290.47 270.873 290.773 C 261.884 292.076 239.623 305.493 237.953 308.417 C 236.985 310.199 236.91 312.334 237.753 314.18 C 238.267 315.419 239.112 316.49 240.193 317.282 C 236.778 324.492 236.613 332.82 239.739 340.157 C 240.816 342.971 243.141 345.117 246.029 345.968 C 253.261 348.146 263.524 342.757 267.548 340.377 C 270.012 344.954 276.742 356.195 283.147 357.095 C 284.839 357.266 286.55 357.226 288.236 356.975 Z M 305.988 348.711 C 300.676 350.552 288.632 354.218 283.64 353.523 C 279.288 352.915 272.872 343.059 269.826 337.022 C 269.344 336.056 268.123 335.732 267.222 336.328 C 263.676 338.678 253.143 344.407 247.03 342.528 C 245.176 341.975 243.691 340.581 243.022 338.767 C 240.062 331.876 240.476 324.002 244.141 317.457 C 244.796 316.427 244.248 315.056 243.064 314.754 C 242.119 314.446 241.362 313.725 241.01 312.793 C 240.618 311.982 240.617 311.037 241.013 310.229 C 243.423 307.112 269.349 292.602 272.835 294.351 C 276.634 297.982 297.194 318.965 297.404 319.184 C 297.594 319.383 297.832 319.533 298.091 319.623 L 311.269 324.243 L 305.988 348.711 Z" style="fill: rgb(38, 36, 36);"/>
  <path class="cls-3" d="M 242.853 318.277 C 243.093 318.248 243.324 318.169 243.532 318.051 L 266.815 304.609 C 268.04 303.965 268.107 302.233 266.937 301.495 C 266.35 301.125 265.604 301.122 265.019 301.495 L 241.736 314.934 C 240.538 315.631 240.539 317.362 241.739 318.051 C 242.078 318.246 242.469 318.326 242.853 318.277 Z" style="fill: rgb(38, 36, 36);"/>
  <path class="cls-4" d="M 297.957 355.934 C 297.957 355.934 368.836 414.73 400.861 430.751 C 402.443 431.541 403.93 432.225 405.319 432.806 C 423.601 440.371 441.216 440.492 453.818 415.858 C 461.385 401.057 467.16 377.291 470.18 340.826 C 478.199 243.733 449.634 203.124 449.634 203.124 C 431.899 196.536 392.644 214.051 393.605 253.828 C 394.565 293.603 387.511 339.504 387.511 339.504 L 308.446 318.388 L 297.957 355.934 Z" style="fill: rgb(154, 179, 218);"/>
  <path class="cls-3" d="M 396.307 430.005 C 397.682 429.831 398.35 428.234 397.515 427.13 C 397.367 426.935 397.181 426.77 396.965 426.651 C 365.878 409.263 307.907 361.813 299.996 355.296 L 309.694 320.556 L 387.04 341.211 C 388.074 341.485 389.118 340.806 389.28 339.747 C 389.349 339.284 396.35 293.227 395.4 253.769 C 394.98 236.392 402.492 224.928 408.859 218.368 C 417.559 209.413 430.226 203.596 441.125 203.524 C 442.52 203.517 443.384 202.001 442.682 200.798 C 442.355 200.242 441.754 199.898 441.106 199.901 C 429.109 199.953 415.76 206.051 406.269 215.812 C 399.419 222.865 391.341 235.181 391.789 253.804 C 392.619 288.319 387.298 327.952 386.001 337.178 L 308.887 316.584 C 307.933 316.335 306.958 316.894 306.694 317.843 L 296.202 355.4 C 296.01 356.081 296.24 356.813 296.785 357.267 C 297.431 357.805 361.671 410.948 395.194 429.734 C 395.526 429.941 395.918 430.039 396.307 430.005 Z" style="fill: rgb(64, 75, 126);"/>
  <path class="cls-3" d="M 420.205 391.691 C 421.359 391.546 422.076 390.361 421.668 389.272 C 421.279 388.242 411.918 363.849 392.548 344.125 C 391.526 343.191 389.873 343.712 389.573 345.064 C 389.452 345.626 389.6 346.213 389.982 346.645 C 408.822 365.817 418.235 390.319 418.323 390.545 C 418.618 391.31 419.39 391.782 420.205 391.691 Z" style="fill: rgb(64, 75, 126);"/>
  <path class="cls-2" d="M 400.711 429.745 C 400.75 430.086 400.792 430.415 400.832 430.753 C 402.418 431.546 403.901 432.231 405.293 432.81 C 423.601 440.371 441.216 440.492 453.818 415.858 C 449.046 407.035 437.818 401.614 425.543 403.121 C 410.254 404.998 399.135 416.92 400.711 429.745 Z" style="fill: rgb(255, 255, 255);"/>
  <path class="cls-3" d="M 321.225 363.35 C 321.825 363.28 322.348 362.912 322.618 362.371 C 330.546 346.599 328.5 329.054 328.407 328.314 C 328.287 327.326 327.387 326.625 326.403 326.746 C 325.416 326.869 324.714 327.767 324.834 328.753 C 324.855 328.923 326.824 345.987 319.401 360.754 C 318.778 361.992 319.729 363.441 321.111 363.36 C 321.15 363.358 321.186 363.353 321.225 363.35 Z" style="fill: rgb(64, 75, 126);"/>
  <circle class="cls-2" cx="311.561" cy="349.887" r="4.948" style="fill: rgb(255, 255, 255);"/>
  <path class="cls-2" d="M 382.325 97.751 L 383.425 117.48 L 385.363 151.242 C 374.662 160.101 363.742 161.842 352.453 154.743 L 352.718 138.971 L 353.12 115.084 L 382.325 97.751 Z" style="fill: rgb(255, 255, 255);"/>
  <path class="cls-3" d="M 369.388 160.758 C 375.087 160.058 380.78 157.352 386.475 152.64 C 386.916 152.273 387.159 151.721 387.129 151.153 L 384.132 97.682 C 384.08 96.318 382.585 95.501 381.411 96.205 L 352.167 113.515 C 351.628 113.833 351.295 114.411 351.284 115.037 L 350.618 154.695 C 350.607 155.327 350.926 155.916 351.461 156.249 C 357.424 159.995 363.383 161.494 369.388 160.758 Z M 383.451 150.435 C 373.544 158.37 363.924 159.462 354.208 153.746 L 354.835 116.124 L 380.666 100.829 L 383.451 150.435 Z" style="fill: rgb(38, 36, 36);"/>
  <path class="cls-2" d="M 322.892 105.253 C 326.1 121.269 332.672 140.154 351.78 135.25 C 374.503 129.421 387.826 111.664 385.898 89.697 C 383.97 67.73 372.65 56.336 346.608 61.401 C 344.389 61.827 342.213 62.438 340.097 63.227 C 325.363 68.771 318.98 82.048 321.357 96.664 C 321.791 99.312 322.276 102.229 322.892 105.253 Z" style="fill: rgb(255, 255, 255);"/>
  <path class="cls-3" d="M 348.741 137.662 C 349.919 137.517 351.086 137.295 352.233 137 C 361.035 134.885 369.112 130.451 375.615 124.152 C 376.593 123.172 376.14 121.497 374.802 121.142 C 374.181 120.974 373.519 121.155 373.063 121.61 C 367.016 127.458 359.517 131.579 351.335 133.536 C 346.061 134.884 341.712 134.393 337.969 132.041 C 329.883 126.961 326.493 114.13 324.666 104.925 C 324.059 101.926 323.582 99.074 323.147 96.41 C 320.802 81.972 327.545 69.918 340.742 64.944 C 342.04 64.455 342.323 62.746 341.253 61.866 C 340.755 61.457 340.078 61.345 339.474 61.571 C 324.571 67.183 316.956 80.758 319.59 96.982 C 320.007 99.561 320.512 102.572 321.135 105.633 C 323.106 115.481 326.757 129.265 336.066 135.087 C 339.857 137.41 344.346 138.32 348.741 137.662 Z" style="fill: rgb(38, 36, 36);"/>
  <path class="cls-3" d="M 393.166 93.156 C 391.261 96.589 389.058 99.852 386.586 102.905 L 375.028 104.758 L 371.743 96.768 C 371.743 96.768 364.328 97.162 362.32 92.321 C 362.27 92.212 362.224 92.101 362.186 91.984 C 361.639 90.39 359.42 83.258 359.425 71.842 C 359.425 71.842 342.464 81.405 332.878 83.363 C 329.437 84.067 325.249 83.129 321.296 81.629 C 313.374 78.631 305.566 66.952 306.066 58.493 L 306.047 58.335 C 306.933 45.921 314.12 53.76 314.12 53.76 C 314.12 53.76 314.982 43.756 321.069 42.444 C 327.154 41.136 331.948 49.84 331.948 49.84 C 343.502 45.936 355.686 44.236 367.865 44.828 C 392.024 46.148 387.692 63.12 387.692 63.12 C 387.692 63.12 405.789 67.026 393.166 93.156 Z" style="fill: rgb(38, 36, 36);"/>
  <path class="cls-2" d="M 377.426 103.248 C 375.531 94.18 381.152 85.029 390.217 83.082 C 392.14 82.658 394.12 82.604 396.064 82.927 C 407.719 84.886 407.314 111.627 379.317 112.309 L 377.426 103.248 Z" style="fill: rgb(255, 255, 255);"/>
  <path class="cls-3" d="M 383.369 113.834 C 397.464 112.103 404.408 103.241 405.017 94.618 C 405.508 87.749 401.864 82.086 396.348 81.177 C 394.184 80.819 391.973 80.874 389.831 81.342 C 379.796 83.634 373.478 93.58 375.661 103.638 C 375.944 105 377.596 105.543 378.632 104.618 C 379.112 104.19 379.328 103.534 379.2 102.905 C 377.415 94.788 382.49 86.748 390.581 84.868 C 392.281 84.493 394.035 84.447 395.751 84.73 C 399.4 85.345 401.769 89.433 401.472 94.384 C 400.961 101.599 394.842 110.157 379.313 110.544 C 377.92 110.577 377.088 112.106 377.813 113.292 C 378.151 113.844 378.756 114.175 379.401 114.158 C 380.772 114.098 382.093 113.991 383.369 113.834 Z" style="fill: rgb(38, 36, 36);"/>
  <rect class="cls-2" x="-429.233" y="-332.29" width="128.37" height="22.656" rx="11.324" ry="11.324" transform="matrix(-0.88458, -0.466388, -0.466388, 0.88458, -372.787499, 391.920364)" style="fill: rgb(255, 255, 255);"/>
  <path class="cls-3" d="M 147.934 319.016 C 148.74 318.916 149.536 318.741 150.309 318.498 C 159.958 315.466 162.706 303.125 155.257 296.284 C 154.401 295.502 153.451 294.834 152.422 294.302 L 58.515 245.426 C 49.545 240.756 38.879 247.552 39.324 257.658 C 39.53 262.348 42.221 266.573 46.385 268.74 L 140.291 317.614 C 142.637 318.847 145.302 319.336 147.934 319.016 Z M 51.313 247.609 C 53.228 247.372 55.17 247.725 56.878 248.619 L 150.786 297.493 C 157.301 300.882 157.707 310.053 151.516 314 C 148.643 315.834 145.008 315.994 141.985 314.423 L 48.078 265.55 L 47.25 267.146 L 48.078 265.55 C 41.558 262.168 41.144 252.998 47.329 249.044 C 48.04 248.59 48.805 248.232 49.61 247.979 C 50.163 247.809 50.732 247.688 51.306 247.618 L 51.313 247.609 Z" style="fill: rgb(38, 36, 36);"/>
  <rect class="cls-2" x="-297.382" y="-404.075" width="185.839" height="22.687" rx="11.338" ry="11.338" transform="matrix(-0.887043, -0.461688, -0.461688, 0.887043, -151.576553, 593.649532)" style="fill: rgb(255, 255, 255);"/>
  <path class="cls-3" d="M 285.086 390.376 C 285.892 390.273 286.688 390.101 287.462 389.857 C 297.111 386.824 299.858 374.483 292.407 367.643 C 291.555 366.861 290.602 366.195 289.576 365.66 L 144.812 290.347 C 135.836 285.679 125.174 292.475 125.616 302.58 C 125.821 307.272 128.515 311.496 132.679 313.66 L 277.409 388.986 C 279.767 390.224 282.447 390.707 285.086 390.376 Z M 137.6 292.53 C 139.514 292.294 141.455 292.647 143.163 293.543 L 287.884 368.87 C 294.4 372.256 294.805 381.428 288.615 385.378 C 285.742 387.211 282.107 387.371 279.084 385.8 L 134.343 310.457 C 127.824 307.077 127.409 297.908 133.595 293.951 C 134.304 293.498 135.069 293.141 135.876 292.888 C 136.438 292.716 137.016 292.597 137.6 292.53 Z M 133.51 312.075 Z" style="fill: rgb(38, 36, 36);"/>
  <path class="cls-2" d="M 86.5 106.122 L 165.299 147.134 C 170.548 149.876 173.496 155.628 172.646 161.491 L 154.573 286.92 C 153.894 291.738 148.644 294.426 144.336 292.156 L 65.54 251.147 C 60.29 248.41 57.341 242.657 58.185 236.801 L 76.302 111.358 C 76.991 106.562 82.206 103.888 86.5 106.122 Z" style="fill: rgb(255, 255, 255);"/>
  <path class="cls-3" d="M 148.684 294.698 C 149.722 294.568 150.732 294.258 151.661 293.776 C 154.216 292.479 155.967 290.011 156.352 287.173 L 174.435 161.742 C 175.379 155.12 172.036 148.621 166.099 145.541 L 87.303 104.528 L 86.475 106.127 L 87.303 104.528 C 81.915 101.74 75.385 105.09 74.51 111.097 L 56.434 236.524 C 55.493 243.147 58.835 249.644 64.775 252.726 L 143.56 293.747 C 145.132 294.576 146.918 294.908 148.684 294.698 Z M 82.64 107.16 C 83.68 107.025 84.735 107.212 85.669 107.693 L 164.466 148.706 C 169.04 151.087 171.609 156.095 170.881 161.2 L 152.804 286.627 C 152.293 290.196 148.413 292.189 145.216 290.525 L 66.418 249.515 C 61.872 247.137 59.309 242.162 60.013 237.08 L 78.08 111.61 C 78.315 109.925 79.359 108.466 80.874 107.703 C 81.422 107.418 82.018 107.236 82.631 107.16 L 82.64 107.16 Z" style="fill: rgb(38, 36, 36);"/>
  <path class="cls-2" d="M 77.31 101.341 L 156.106 142.352 C 161.355 145.086 164.305 150.838 163.461 156.698 L 145.398 282.136 C 144.718 286.955 139.468 289.642 135.164 287.374 L 56.366 246.361 C 51.116 243.627 48.166 237.874 49.009 232.014 L 67.072 106.56 C 67.76 101.748 73.012 99.071 77.31 101.341 Z" style="fill: rgb(255, 255, 255);"/>
  <path class="cls-3" d="M 139.459 289.882 C 140.498 289.754 141.506 289.439 142.439 288.962 C 144.997 287.67 146.756 285.204 147.148 282.364 L 165.252 156.958 C 166.195 150.338 162.853 143.841 156.915 140.757 L 78.147 99.759 C 72.76 96.972 66.23 100.322 65.356 106.327 L 47.281 231.754 C 46.339 238.379 49.683 244.876 55.618 247.956 L 134.361 288.968 C 135.928 289.778 137.705 290.099 139.459 289.882 Z M 73.446 102.378 C 74.487 102.244 75.545 102.43 76.478 102.913 L 155.273 143.923 C 159.846 146.304 162.417 151.313 161.686 156.416 L 143.611 281.846 C 143.102 285.414 139.218 287.407 136.022 285.744 L 57.225 244.733 C 52.652 242.364 50.069 237.369 50.781 232.268 L 68.916 106.832 C 69.149 105.152 70.195 103.69 71.71 102.925 C 72.253 102.645 72.841 102.458 73.446 102.378 Z M 77.319 101.34 Z" style="fill: rgb(38, 36, 36);"/>
  <path class="cls-3" d="M -138.493 533.304 C -137.183 533.204 -136.465 531.792 -137.196 530.762 C -137.535 530.286 -138.118 530.021 -138.724 530.068 C -139.303 530.116 -192.089 536.194 -225.065 526.635 C -226.309 526.266 -227.529 527.328 -227.258 528.549 C -227.129 529.119 -226.683 529.578 -226.094 529.744 C -192.508 539.48 -140.872 533.495 -138.5 533.311 L -138.493 533.304 Z" style="fill: rgb(38, 36, 36);"/>
</svg>