<?xml version="1.0" encoding="utf-8"?>
<svg viewBox="-330.859 -254.56 491.952 627.327" xmlns="http://www.w3.org/2000/svg">
  <path class="cls-1" d="M 196.836 154.85 C 185.359 168.445 145.851 184.187 145.851 184.187 C 143.102 183.387 140.331 182.484 137.605 181.564 C 126.023 177.467 114.714 172.636 103.747 167.099 C 103.747 167.099 95.626 160.853 97.5 150.886 C 97.5 150.886 101.663 138.12 111.652 138.512 C 121.641 138.904 167.442 132.782 167.442 132.782 C 167.442 132.782 179.186 119.152 189.203 121.293 C 199.221 123.434 208.313 141.249 196.836 154.85 Z" style="fill: rgb(236, 189, 187);" transform="matrix(1, 0, 0, 1, -42.222782, -127.232513)"/>
  <ellipse class="cls-2" cx="869.77" cy="668.23" rx="6.122" ry="8.422" transform="matrix(0.405461, -0.914112, 0.914112, 0.405461, -879.530273, 564.614868)" style="fill: rgb(255, 255, 255);"/>
  <path class="cls-3" d="M 128.025 175.408 C 126.372 175.397 124.739 175.041 123.232 174.363 C 121.052 173.435 119.218 171.846 117.99 169.82 C 116.82 167.792 116.621 165.668 117.422 163.834 C 118.223 162 119.944 160.716 122.232 160.228 C 124.555 159.785 126.958 160.081 129.104 161.074 C 133.919 163.209 136.52 167.929 134.896 171.586 C 133.84 174.045 131.142 175.408 128.025 175.408 Z M 124.305 162.301 C 123.774 162.3 123.245 162.355 122.726 162.465 C 119.727 162.744 118.154 166.165 119.895 168.623 C 119.917 168.653 119.938 168.683 119.961 168.712 C 120.95 170.315 122.415 171.567 124.152 172.296 C 127.826 173.926 131.722 173.204 132.835 170.689 C 133.948 168.173 131.869 164.805 128.195 163.175 C 126.976 162.619 125.656 162.321 124.316 162.301 L 124.305 162.301 Z" style="fill: rgb(38, 36, 36);" transform="matrix(1, 0, 0, 1, -42.222782, -127.232513)"/>
  <path class="cls-3" d="M 109.721 153.595 C 108.847 153.595 108.301 152.649 108.738 151.891 C 108.941 151.54 109.316 151.323 109.721 151.323 C 110.108 151.323 148.338 151.17 169.787 142.669 C 170.598 142.342 171.459 143.016 171.336 143.882 C 171.279 144.289 171.005 144.633 170.622 144.781 C 148.775 153.442 111.312 153.595 109.727 153.595 L 109.721 153.595 Z" style="fill: rgb(38, 36, 36);" transform="matrix(1, 0, 0, 1, -42.222782, -127.232513)"/>
  <path class="cls-2" d="M 196.836 154.85 C 185.359 168.445 145.851 184.187 145.851 184.187 C 143.102 183.387 140.331 182.484 137.605 181.564 C 155.687 175.521 181.503 157.655 181.503 157.655 C 162.927 150.421 167.431 132.782 167.431 132.782 C 167.431 132.782 179.174 119.152 189.192 121.293 C 199.21 123.434 208.313 141.249 196.836 154.85 Z" style="fill: rgb(255, 255, 255);" transform="matrix(1, 0, 0, 1, -42.222782, -127.232513)"/>
  <path class="cls-3" d="M 145.851 185.329 C 145.743 185.329 145.636 185.313 145.533 185.283 C 142.852 184.505 140.058 183.614 137.23 182.643 C 136.402 182.363 136.187 181.292 136.843 180.714 C 136.956 180.614 137.087 180.538 137.23 180.49 C 152.296 175.453 173.081 161.937 179.129 157.888 C 162.092 149.938 166.266 132.685 166.317 132.504 C 166.36 132.334 166.442 132.176 166.556 132.044 C 167.056 131.476 178.856 117.931 189.414 120.186 C 194.78 121.322 199.732 126.387 202.026 133.077 C 204.718 140.925 203.162 149.131 197.688 155.588 C 186.16 169.218 147.878 184.602 146.254 185.249 C 146.125 185.3 145.989 185.327 145.851 185.329 Z M 141.086 181.53 C 142.688 182.052 144.272 182.54 145.817 182.995 C 149.792 181.376 185.41 166.662 195.995 154.123 C 200.863 148.553 202.361 140.798 199.92 133.815 C 197.909 127.96 193.519 123.378 188.988 122.412 C 180.373 120.572 169.992 131.674 168.504 133.327 C 168.027 135.53 165.545 150.216 181.946 156.611 C 182.761 156.928 182.926 158.008 182.244 158.555 C 182.223 158.572 182.201 158.588 182.179 158.604 C 181.906 158.763 158.81 174.675 141.086 181.53 Z M 196.864 154.839 Z" style="fill: rgb(38, 36, 36);" transform="matrix(1, 0, 0, 1, -42.222782, -127.232513)"/>
  <path class="cls-2" d="M 85.109 151.5 L 103.497 158.212 C 103.497 158.212 113.878 155.003 110.92 142.981 L 92.622 133.032 L 85.109 151.5 Z" style="fill: rgb(255, 255, 255);" transform="matrix(1, 0, 0, 1, -42.222782, -127.232513)"/>
  <path class="cls-3" d="M 103.497 159.348 C 103.364 159.348 103.231 159.325 103.106 159.28 L 84.717 152.567 C 84.113 152.347 83.811 151.67 84.053 151.074 L 91.566 132.606 C 91.822 131.978 92.567 131.713 93.162 132.038 L 111.459 141.987 C 111.743 142.138 111.949 142.403 112.027 142.714 C 115.213 155.628 103.957 159.268 103.838 159.302 C 103.728 159.335 103.613 159.35 103.497 159.348 Z M 86.603 150.829 L 103.503 157.002 C 105.156 156.361 111.982 153.101 109.926 143.731 L 93.196 134.645 L 86.603 150.829 Z" style="fill: rgb(38, 36, 36);" transform="matrix(1, 0, 0, 1, -42.222782, -127.232513)"/>
  <path class="cls-1" d="M 100.277 122.918 C 100.277 122.918 98.767 146.008 80.969 157.746 L -1.562 117.994 C -1.562 117.994 -92.425 156.991 -123.471 169.859 C -154.518 182.728 -234.778 139.193 -174.582 106.256 C -174.582 106.256 -63.843 73.028 -16.748 60.359 C -5.435 57.309 2.197 55.452 3.736 55.526 C 5.741 55.623 12.879 59.961 22.437 66.395 C 50.746 85.454 100.277 122.918 100.277 122.918 Z" style="fill: rgb(246, 141, 136);" transform="matrix(1, 0, 0, 1, -42.222782, -127.232513)"/>
  <path class="cls-2" d="M 22.437 66.395 C 18.189 69.49 12.147 71.427 5.44 71.427 C -4.947 71.427 -13.749 66.776 -16.748 60.359 C -5.435 57.309 2.197 55.452 3.736 55.526 C 5.741 55.623 12.879 59.961 22.437 66.395 Z" style="fill: rgb(255, 255, 255);" transform="matrix(1, 0, 0, 1, -42.222782, -127.232513)"/>
  <path class="cls-3" d="M 82.111 137.285 C 81.912 137.288 81.716 137.239 81.543 137.143 L 1.351 92.729 L -129.656 135.888 C -130.486 136.161 -131.301 135.433 -131.123 134.577 C -131.04 134.18 -130.751 133.857 -130.366 133.73 L 1.112 90.417 C 1.412 90.319 1.739 90.35 2.015 90.502 L 82.656 135.161 C 83.417 135.592 83.425 136.685 82.672 137.128 C 82.502 137.229 82.308 137.283 82.111 137.285 Z" style="fill: rgb(236, 189, 187);" transform="matrix(1, 0, 0, 1, -42.222782, -127.232513)"/>
  <path class="cls-3" d="M -0.676 114.984 L -0.79 114.984 C -1.414 114.924 -1.872 114.37 -1.812 113.746 L 1.641 78.281 C 1.726 77.407 2.726 76.953 3.44 77.464 C 3.772 77.701 3.952 78.097 3.912 78.503 L 0.459 113.968 C 0.398 114.548 -0.093 114.987 -0.676 114.984 Z" style="fill: rgb(236, 189, 187);" transform="matrix(1, 0, 0, 1, -42.222782, -127.232513)"/>
  <path class="cls-3" d="M 77.187 149.608 C 76.313 149.613 75.762 148.669 76.195 147.909 C 76.284 147.754 76.408 147.622 76.557 147.524 C 88.284 139.767 90.987 122.537 91.015 122.372 C 91.144 121.498 92.171 121.091 92.864 121.64 C 93.185 121.895 93.347 122.302 93.287 122.707 C 93.173 123.457 90.419 141.096 77.834 149.398 C 77.645 149.533 77.419 149.606 77.187 149.608 Z" style="fill: rgb(236, 189, 187);" transform="matrix(1, 0, 0, 1, -42.222782, -127.232513)"/>
  <path class="cls-1" d="M 17.933 498.861 C 0.141 498.668 -37.152 478.224 -37.152 478.224 C -38.288 475.595 -39.367 472.897 -40.378 470.194 C -44.593 458.655 -48.068 446.858 -50.781 434.877 C -50.781 434.877 -51.156 424.655 -42.263 419.731 C -42.263 419.731 -29.769 414.813 -23.71 422.764 C -17.651 430.714 16.23 462.136 16.23 462.136 C 16.23 462.136 34.215 462.516 38.945 471.602 C 43.676 480.689 35.731 499.049 17.933 498.861 Z" style="fill: rgb(236, 189, 187);" transform="matrix(1, 0, 0, 1, -42.222782, -127.232513)"/>
  <ellipse class="cls-2" cx="582.46" cy="1169.83" rx="6.122" ry="8.422" transform="matrix(0.963069, -0.269256, 0.269256, 0.963069, -955.151184, -644.422668)" style="fill: rgb(255, 255, 255);"/>
  <path class="cls-3" d="M -35.903 461.988 C -39.31 461.988 -42.717 458.95 -43.961 454.532 C -44.635 452.265 -44.582 449.844 -43.808 447.609 C -42.99 445.417 -41.479 443.912 -39.543 443.373 C -37.606 442.833 -35.534 443.333 -33.699 444.787 C -30.042 447.927 -28.635 452.96 -30.133 457.541 C -30.951 459.733 -32.461 461.238 -34.398 461.784 C -34.888 461.92 -35.394 461.989 -35.903 461.988 Z M -38.004 445.434 C -38.315 445.433 -38.624 445.476 -38.924 445.559 C -40.246 446.004 -41.271 447.062 -41.672 448.398 C -42.279 450.181 -42.313 452.109 -41.769 453.913 C -40.69 457.78 -37.652 460.324 -35.005 459.592 C -33.683 459.146 -32.659 458.088 -32.257 456.752 C -31.096 453.095 -32.211 449.098 -35.096 446.57 C -35.911 445.872 -36.938 445.472 -38.01 445.434 L -38.004 445.434 Z" style="fill: rgb(38, 36, 36);" transform="matrix(1, 0, 0, 1, -42.222782, -127.232513)"/>
  <path class="cls-3" d="M 5.445 474.254 C 5.247 474.258 5.051 474.209 4.878 474.112 C -15.709 462.755 -39.679 433.985 -40.69 432.764 C -41.23 432.076 -40.822 431.062 -39.957 430.939 C -39.576 430.885 -39.194 431.027 -38.941 431.316 C -38.697 431.612 -14.232 461 5.974 472.125 C 6.739 472.548 6.759 473.641 6.01 474.092 C 5.839 474.195 5.645 474.251 5.445 474.254 Z" style="fill: rgb(38, 36, 36);" transform="matrix(1, 0, 0, 1, -42.222782, -127.232513)"/>
  <path class="cls-3" d="M 14.906 465.356 C 14.694 465.356 14.485 465.297 14.304 465.185 C -5.293 452.936 -29.423 426.256 -29.667 426.001 C -30.253 425.345 -29.909 424.301 -29.049 424.122 C -28.649 424.038 -28.235 424.174 -27.964 424.479 C -27.725 424.746 -3.8 451.17 15.52 463.271 C 16.25 463.752 16.185 464.843 15.404 465.235 C 15.249 465.313 15.079 465.354 14.906 465.356 Z" style="fill: rgb(38, 36, 36);" transform="matrix(1, 0, 0, 1, -42.222782, -127.232513)"/>
  <path class="cls-2" d="M 17.933 498.861 C 0.141 498.668 -37.152 478.224 -37.152 478.224 C -38.288 475.595 -39.367 472.897 -40.378 470.194 C -24.204 480.291 6.008 488.827 6.008 488.827 C -0.239 469.899 16.23 462.136 16.23 462.136 C 16.23 462.136 34.215 462.516 38.945 471.602 C 43.676 480.689 35.731 499.049 17.933 498.861 Z" style="fill: rgb(255, 255, 255);" transform="matrix(1, 0, 0, 1, -42.222782, -127.232513)"/>
  <path class="cls-3" d="M 18.2 499.997 L 17.928 499.997 C 0.056 499.804 -36.158 480.058 -37.692 479.218 C -37.916 479.09 -38.09 478.89 -38.186 478.65 C -39.321 476.077 -40.389 473.363 -41.434 470.569 C -41.741 469.75 -41.047 468.906 -40.184 469.05 C -40.037 469.074 -39.897 469.127 -39.77 469.206 C -26.294 477.622 -2.636 485.039 4.338 487.129 C -0.37 468.956 15.588 461.165 15.753 461.085 C 15.912 461.01 16.087 460.973 16.264 460.977 C 17.025 460.977 35.004 461.483 39.962 471.057 C 42.5 475.924 41.751 482.983 38.054 488.986 C 33.87 495.931 26.307 500.126 18.2 499.997 Z M 17.95 497.725 C 25.352 497.948 32.299 494.162 36.123 487.821 C 39.36 482.546 40.098 476.236 37.957 472.131 C 33.891 464.322 18.723 463.379 16.497 463.283 C 14.492 464.322 1.589 471.756 7.104 488.474 C 7.377 489.305 6.648 490.12 5.792 489.941 C 5.767 489.935 5.742 489.929 5.718 489.923 C 5.434 489.843 -21.541 482.165 -38.129 472.835 C -37.51 474.402 -36.879 475.935 -36.243 477.418 C -32.456 479.456 1.555 497.549 17.967 497.731 L 17.95 497.725 Z" style="fill: rgb(38, 36, 36);" transform="matrix(1, 0, 0, 1, -42.222782, -127.232513)"/>
  <path class="cls-2" d="M -51.253 411.877 L -44.722 430.334 C -44.722 430.334 -35.636 436.297 -28.253 426.359 L -32.228 405.914 L -51.253 411.877 Z" style="fill: rgb(255, 255, 255);" transform="matrix(1, 0, 0, 1, -42.222782, -127.232513)"/>
  <path class="cls-3" d="M -38.311 433.224 C -40.783 433.2 -43.207 432.531 -45.341 431.282 C -45.549 431.147 -45.706 430.947 -45.79 430.714 L -52.32 412.258 C -52.537 411.65 -52.204 410.984 -51.588 410.793 L -32.564 404.83 C -31.917 404.628 -31.238 405.033 -31.11 405.699 L -27.134 426.143 C -27.075 426.455 -27.149 426.779 -27.339 427.034 C -30.951 431.895 -34.96 433.224 -38.311 433.224 Z M -43.785 429.567 C -42.235 430.436 -35.38 433.622 -29.463 426.075 L -33.097 407.38 L -49.788 412.61 L -43.785 429.567 Z" style="fill: rgb(38, 36, 36);" transform="matrix(1, 0, 0, 1, -42.222782, -127.232513)"/>
  <path class="cls-1" d="M -24.658 402.32 C -39.424 424.274 -64.03 414.052 -64.03 414.052 C -78.04 382.631 -110.217 285.709 -110.217 285.709 L -214.709 168.724 C -214.709 168.724 -236.289 124.053 -203.731 105.5 C -171.174 86.947 -143.915 126.325 -143.915 126.325 L -73.077 238.512 L -60.243 258.831 L -53.297 286.851 L -24.658 402.32 Z" style="fill: rgb(246, 141, 136);" transform="matrix(1, 0, 0, 1, -42.222782, -127.232513)"/>
  <path class="cls-3" d="M -120.195 165.021 C -120.584 165.021 -120.946 164.822 -121.154 164.493 L -144.875 126.933 C -144.921 126.87 -152.019 116.711 -163.048 109.356 C -163.776 108.871 -163.705 107.78 -162.921 107.392 C -162.557 107.212 -162.125 107.24 -161.787 107.465 C -154.532 112.426 -148.174 118.585 -142.984 125.678 L -119.241 163.278 C -118.773 164.016 -119.28 164.984 -120.154 165.02 C -120.167 165.021 -120.181 165.021 -120.195 165.021 Z" style="fill: rgb(236, 189, 187);" transform="matrix(1, 0, 0, 1, -42.222782, -127.232513)"/>
  <path class="cls-3" d="M -132.137 146.11 C -132.868 146.126 -133.423 145.457 -133.273 144.742 L -131.144 134.571 C -130.645 132.206 -131.074 129.74 -132.342 127.682 L -147.908 102.286 C -148.353 101.534 -147.817 100.581 -146.943 100.572 C -146.549 100.568 -146.182 100.767 -145.971 101.099 L -130.366 126.49 C -128.798 129.034 -128.266 132.083 -128.878 135.008 L -131.007 145.179 C -131.107 145.723 -131.584 146.116 -132.137 146.11 Z" style="fill: rgb(236, 189, 187);" transform="matrix(1, 0, 0, 1, -42.222782, -127.232513)"/>
  <path class="cls-2" d="M -53.297 286.851 C -53.581 286.975 -53.865 287.095 -54.166 287.203 C -64.468 290.99 -76.882 283.085 -81.834 269.547 C -86.661 256.406 -82.737 242.777 -73.077 238.534 L -60.243 258.854 L -53.297 286.851 Z" style="fill: rgb(255, 255, 255);" transform="matrix(1, 0, 0, 1, -42.222782, -127.232513)"/>
  <path class="cls-3" d="M -58.158 399.1 C -58.638 399.099 -59.065 398.796 -59.226 398.345 C -72.725 360.404 -97.275 285.902 -98.728 281.399 L -204.22 155.446 C -204.79 154.78 -204.425 153.745 -203.563 153.585 C -203.162 153.51 -202.753 153.655 -202.488 153.964 L -96.86 280.11 C -96.767 280.22 -96.696 280.347 -96.65 280.484 C -96.394 281.263 -70.942 358.677 -57.096 397.584 C -56.835 398.32 -57.377 399.094 -58.158 399.1 Z" style="fill: rgb(236, 189, 187);" transform="matrix(1, 0, 0, 1, -42.222782, -127.232513)"/>
  <path class="cls-3" d="M -107.945 286.47 C -108.82 286.47 -109.366 285.524 -108.93 284.767 C -108.811 284.562 -108.632 284.399 -108.417 284.301 L -88.728 275.311 C -87.932 274.948 -87.042 275.583 -87.126 276.453 C -87.165 276.857 -87.416 277.21 -87.785 277.378 L -107.474 286.368 C -107.622 286.435 -107.783 286.47 -107.945 286.47 Z" style="fill: rgb(236, 189, 187);" transform="matrix(1, 0, 0, 1, -42.222782, -127.232513)"/>
  <path class="cls-3" d="M -53.803 407.754 C -57.152 407.773 -60.493 407.392 -63.752 406.619 C -64.59 406.368 -64.842 405.304 -64.206 404.704 C -63.933 404.447 -63.551 404.341 -63.184 404.421 C -62.991 404.472 -43.558 409.39 -30.377 396.749 C -29.745 396.143 -28.695 396.449 -28.487 397.298 C -28.39 397.693 -28.511 398.109 -28.804 398.39 C -36.755 406.045 -46.59 407.754 -53.803 407.754 Z" style="fill: rgb(236, 189, 187);" transform="matrix(1, 0, 0, 1, -42.222782, -127.232513)"/>
  <path class="cls-4" d="M -193.509 -48.682 C -193.509 -48.682 -109.638 -5.869 -104.527 16.279 C -99.416 38.427 -132.461 45.02 -163.127 18.045 C -193.793 -8.93 -193.509 -48.682 -193.509 -48.682 Z" style="fill: rgb(154, 179, 218);" transform="matrix(1, 0, 0, 1, -42.222782, -127.232513)"/>
  <path class="cls-2" d="M -128.389 9.436 C -131.978 10.964 -132.081 17.483 -130.28 25.337 C -128.48 33.191 -111.16 33.1 -109.268 30.261 C -107.377 27.421 -108.229 16.728 -110.308 13.792 C -112.386 10.856 -123.943 7.539 -128.389 9.436 Z" style="fill: rgb(255, 255, 255);" transform="matrix(1, 0, 0, 1, -42.222782, -127.232513)"/>
  <path class="cls-3" d="M -116.39 33.151 C -118.077 33.151 -119.761 33.001 -121.421 32.702 C -127.032 31.675 -130.576 29.147 -131.388 25.581 C -132.921 18.886 -133.722 10.464 -128.832 8.38 C -123.983 6.318 -111.767 9.765 -109.382 13.122 C -107.111 16.347 -106.071 27.506 -108.32 30.88 C -109.354 32.436 -112.727 33.151 -116.39 33.151 Z M -127.941 10.475 C -130.547 11.611 -131.013 17.046 -129.173 25.076 C -128.333 28.744 -123.187 30.067 -121.012 30.465 C -115.748 31.43 -110.79 30.465 -110.223 29.619 C -108.678 27.302 -109.365 17.085 -111.245 14.439 C -112.948 12.037 -123.829 8.72 -127.952 10.464 L -127.941 10.475 Z" style="fill: rgb(38, 36, 36);" transform="matrix(1, 0, 0, 1, -42.222782, -127.232513)"/>
  <path class="cls-2" d="M -136.612 9.811 C -141.377 10.606 -139.071 21.64 -137.748 26.848 C -136.425 32.055 -128.662 33.946 -128.946 26.848 C -129.23 19.749 -130.934 8.868 -136.612 9.811 Z" style="fill: rgb(255, 255, 255);" transform="matrix(1, 0, 0, 1, -42.222782, -127.232513)"/>
  <path class="cls-3" d="M -132.279 32.623 C -134.897 32.623 -137.958 30.573 -138.861 27.126 C -141.002 18.727 -141.207 13.116 -139.469 10.458 C -138.878 9.514 -137.91 8.869 -136.811 8.686 C -135.392 8.433 -133.934 8.826 -132.836 9.76 C -128.81 13.036 -127.998 22.77 -127.839 26.796 C -127.645 31.612 -130.678 32.436 -131.615 32.572 C -131.835 32.605 -132.057 32.622 -132.279 32.623 Z M -136.436 10.93 C -136.911 11.004 -137.328 11.287 -137.572 11.702 C -138.884 13.718 -138.555 19.136 -136.664 26.564 C -136.039 29.017 -133.648 30.573 -131.933 30.323 C -130.218 30.073 -130.048 28.051 -130.099 26.916 C -130.337 20.93 -131.558 13.746 -134.261 11.549 C -134.862 11.034 -135.667 10.825 -136.442 10.981 L -136.436 10.93 Z" style="fill: rgb(38, 36, 36);" transform="matrix(1, 0, 0, 1, -42.222782, -127.232513)"/>
  <path class="cls-4" d="M -211.301 186.521 C -211.301 186.521 -179.88 132.004 -103.022 82.41 L -148.453 49.092 C -148.453 49.092 -159.055 -2.115 -193.504 -48.682 C -193.504 -48.682 -223.034 -56.161 -240.071 -54.645 C -257.107 -53.129 -281.339 -16.784 -281.339 -16.784 C -281.339 -16.784 -265.438 83.551 -255.597 116.87 C -245.755 150.188 -211.301 186.521 -211.301 186.521 Z" style="fill: rgb(154, 179, 218);" transform="matrix(1, 0, 0, 1, -42.222782, -127.232513)"/>
  <path class="cls-3" d="M -217.514 3.314 C -217.971 3.331 -218.427 3.256 -218.854 3.093 C -219.547 2.786 -220.143 2.525 -224.295 -12.331 C -226.282 -19.43 -228.134 -26.529 -228.151 -26.619 C -228.401 -27.457 -227.651 -28.252 -226.801 -28.05 C -226.376 -27.95 -226.046 -27.614 -225.953 -27.187 C -222.75 -14.875 -218.877 -1.149 -217.736 1.054 C -216.048 0.997 -214.398 0.548 -212.914 -0.258 C -211.983 -0.78 -211.398 -1.365 -211.262 -1.905 C -210.904 -3.608 -214.584 -17.158 -218.343 -29.26 C -218.603 -30.095 -217.862 -30.898 -217.009 -30.706 C -216.613 -30.617 -216.295 -30.323 -216.174 -29.936 C -214.323 -23.967 -208.326 -4.279 -209.058 -1.354 C -209.388 -0.042 -210.518 1.116 -212.335 2.002 C -213.955 2.786 -215.717 3.233 -217.514 3.314 Z" style="fill: rgb(64, 75, 126);" transform="matrix(1, 0, 0, 1, -42.222782, -127.232513)"/>
  <path class="cls-3" d="M -214.709 169.865 C -215.583 169.866 -216.131 168.921 -215.695 168.163 C -215.668 168.117 -215.639 168.073 -215.606 168.031 C -215.118 167.406 -166.313 105.126 -116.685 79.837 C -115.919 79.417 -114.984 79.983 -115.003 80.857 C -115.012 81.287 -115.263 81.675 -115.652 81.859 C -164.831 106.914 -213.329 168.797 -213.806 169.422 C -214.021 169.702 -214.355 169.866 -214.709 169.865 Z" style="fill: rgb(64, 75, 126);" transform="matrix(1, 0, 0, 1, -42.222782, -127.232513)"/>
  <path class="cls-3" d="M -156.977 21.759 C -157.455 21.759 -157.882 21.459 -158.045 21.01 C -163.831 4.995 -174.144 -19.004 -190.414 -42.395 C -190.913 -43.115 -190.446 -44.103 -189.574 -44.175 C -189.169 -44.209 -188.777 -44.024 -188.546 -43.69 C -172.151 -20.1 -161.753 4.098 -155.921 20.237 C -155.655 20.973 -156.195 21.751 -156.977 21.759 Z" style="fill: rgb(64, 75, 126);" transform="matrix(1, 0, 0, 1, -42.222782, -127.232513)"/>
  <path class="cls-2" d="M -212.534 -44.565 C -212.954 -38.17 -218.48 -33.207 -218.48 -33.207 C -219.615 -36.716 -223.307 -42.537 -227.094 -47.336 C -227.094 -47.336 -228.662 -38.818 -229.678 -31.611 C -233.864 -30.731 -250.741 -30.833 -255.444 -40.697 C -255.444 -40.697 -254.666 -61.897 -234.432 -63.413 C -225.731 -64.026 -215.311 -55.985 -212.534 -44.565 Z" style="fill: rgb(255, 255, 255);" transform="matrix(1, 0, 0, 1, -42.222782, -127.232513)"/>
  <path class="cls-3" d="M -234.29 -30.129 C -241.303 -30.129 -252.576 -32.009 -256.488 -40.198 C -256.567 -40.364 -256.604 -40.547 -256.596 -40.731 C -256.596 -40.953 -255.54 -62.964 -234.539 -64.515 C -224.794 -65.236 -214.22 -56.229 -211.449 -44.837 C -211.422 -44.726 -211.413 -44.611 -211.421 -44.497 C -211.864 -37.716 -217.503 -32.571 -217.741 -32.378 C -218.35 -31.834 -219.318 -32.091 -219.576 -32.866 C -220.49 -35.632 -223.159 -40.164 -226.447 -44.61 C -227.015 -41.538 -227.901 -36.183 -228.571 -31.463 C -228.637 -30.989 -228.994 -30.608 -229.463 -30.509 C -231.056 -30.23 -232.672 -30.102 -234.29 -30.129 Z M -254.313 -40.919 C -250.032 -32.56 -235.516 -31.986 -230.706 -32.605 C -229.701 -39.55 -228.247 -47.467 -228.236 -47.552 C -228.08 -48.412 -227.051 -48.781 -226.384 -48.216 C -226.326 -48.167 -226.273 -48.112 -226.226 -48.052 C -223.25 -44.281 -219.808 -39.153 -218.093 -35.28 C -216.56 -37.023 -214.033 -40.465 -213.704 -44.468 C -216.543 -55.826 -226.663 -62.822 -234.375 -62.249 C -242.325 -61.681 -248.106 -57.865 -251.531 -50.971 C -253.056 -47.816 -253.991 -44.41 -254.291 -40.919 L -254.313 -40.919 Z" style="fill: rgb(38, 36, 36);" transform="matrix(1, 0, 0, 1, -42.222782, -127.232513)"/>
  <path class="cls-2" d="M -186.786 47.859 L -177.983 43.504 C -177.983 43.504 -166.625 28.642 -164.45 25.996 C -162.275 23.349 -142.683 32.055 -141.547 33.566 C -140.412 35.076 -141.263 37.637 -142.967 38.296 C -139.947 42.408 -139.004 47.687 -140.412 52.59 C -142.78 60.921 -157.352 53.629 -157.352 53.629 C -157.352 53.629 -161.23 64.607 -165.49 65.742 C -169.749 66.878 -181.01 64.323 -181.01 64.323 L -186.786 47.859 Z" style="fill: rgb(255, 255, 255);" transform="matrix(1, 0, 0, 1, -42.222782, -127.232513)"/>
  <path class="cls-3" d="M -168.414 67.168 C -173.576 67.168 -180.908 65.521 -181.283 65.436 C -181.663 65.348 -181.972 65.072 -182.1 64.703 L -187.876 48.234 C -188.064 47.694 -187.821 47.097 -187.308 46.843 L -178.744 42.606 C -177.296 40.715 -167.386 27.773 -165.348 25.274 C -164.82 24.633 -163.928 24.332 -162.633 24.366 C -156.903 24.491 -141.928 31.181 -140.656 32.884 C -139.912 33.926 -139.701 35.258 -140.088 36.479 C -140.314 37.294 -140.76 38.03 -141.377 38.609 C -138.683 42.862 -137.939 48.065 -139.333 52.902 C -139.791 54.746 -141.082 56.27 -142.825 57.025 C -147.187 58.945 -154.03 56.361 -156.733 55.18 C -157.925 58.235 -161.276 65.793 -165.217 66.85 C -166.265 67.088 -167.339 67.195 -168.414 67.168 Z M -180.17 63.357 C -176.7 64.101 -168.874 65.47 -165.802 64.652 C -163.122 63.936 -159.862 57.269 -158.419 53.254 C -158.191 52.611 -157.451 52.313 -156.841 52.618 C -154.439 53.817 -147.402 56.594 -143.717 54.947 C -142.598 54.459 -141.775 53.472 -141.496 52.283 C -140.172 47.74 -141.037 42.839 -143.836 39.023 C -144.325 38.426 -144.089 37.526 -143.37 37.246 C -142.801 36.98 -142.383 36.47 -142.235 35.86 C -142.051 35.322 -142.124 34.73 -142.433 34.253 C -144.182 32.487 -161.537 25.394 -163.587 26.757 C -165.688 29.324 -176.95 44.049 -177.063 44.202 C -177.169 44.341 -177.305 44.454 -177.461 44.532 L -185.36 48.439 L -180.17 63.357 Z" style="fill: rgb(38, 36, 36);" transform="matrix(1, 0, 0, 1, -42.222782, -127.232513)"/>
  <path class="cls-3" d="M -142.967 39.438 C -143.119 39.437 -143.27 39.406 -143.41 39.347 L -159.027 32.72 C -159.845 32.41 -160.02 31.331 -159.343 30.778 C -159.004 30.501 -158.537 30.443 -158.141 30.63 L -142.524 37.257 C -141.72 37.6 -141.588 38.685 -142.287 39.21 C -142.483 39.357 -142.722 39.437 -142.967 39.438 Z" style="fill: rgb(38, 36, 36);" transform="matrix(1, 0, 0, 1, -42.222782, -127.232513)"/>
  <path class="cls-4" d="M -174.582 67.264 C -174.582 67.264 -214.453 109.544 -233.279 122.043 C -234.21 122.66 -235.088 123.203 -235.914 123.673 C -246.783 129.817 -257.806 131.249 -267.596 116.79 C -273.474 108.101 -278.92 93.66 -283.617 71.052 C -296.11 10.856 -281.345 -16.778 -281.345 -16.778 C -270.743 -22.269 -244.807 -14.319 -242.348 10.668 C -239.889 35.656 -231.939 63.863 -231.939 63.863 L -184.043 44.554 L -174.582 67.264 Z" style="fill: rgb(154, 179, 218);" transform="matrix(1, 0, 0, 1, -42.222782, -127.232513)"/>
  <path class="cls-3" d="M -230.485 121.225 C -231.359 121.222 -231.902 120.274 -231.463 119.518 C -231.385 119.384 -231.28 119.267 -231.155 119.175 C -213.022 105.892 -180.363 71.711 -175.91 67.02 L -184.656 46.008 L -231.513 64.896 C -232.139 65.148 -232.845 64.801 -233.029 64.152 C -233.108 63.868 -241.036 35.559 -243.478 10.771 C -244.551 -0.144 -250.139 -6.749 -254.631 -10.366 C -260.77 -15.307 -269.152 -17.976 -275.984 -17.181 C -276.858 -17.078 -277.516 -17.961 -277.168 -18.769 C -277.006 -19.144 -276.657 -19.405 -276.251 -19.453 C -268.732 -20.344 -259.901 -17.55 -253.206 -12.167 C -248.373 -8.277 -242.365 -1.184 -241.212 10.515 C -239.077 32.197 -232.694 56.611 -231.172 62.29 L -184.457 43.458 C -183.88 43.227 -183.225 43.503 -182.986 44.077 L -173.525 66.793 C -173.353 67.206 -173.44 67.682 -173.747 68.008 C -174.11 68.394 -210.256 106.625 -229.809 120.97 C -230 121.126 -230.238 121.216 -230.485 121.225 Z" style="fill: rgb(64, 75, 126);" transform="matrix(1, 0, 0, 1, -42.222782, -127.232513)"/>
  <path class="cls-3" d="M -248.402 99.066 C -249.136 99.065 -249.676 98.377 -249.503 97.663 C -249.339 96.988 -245.352 80.99 -234.738 67.145 C -234.17 66.481 -233.095 66.681 -232.804 67.505 C -232.684 67.847 -232.733 68.226 -232.938 68.525 C -243.262 81.984 -247.272 98.055 -247.311 98.203 C -247.436 98.706 -247.884 99.061 -248.402 99.066 Z" style="fill: rgb(64, 75, 126);" transform="matrix(1, 0, 0, 1, -42.222782, -127.232513)"/>
  <path class="cls-2" d="M -233.262 121.401 C -233.262 121.617 -233.262 121.827 -233.262 122.043 C -234.193 122.66 -235.071 123.203 -235.897 123.673 C -246.783 129.817 -257.806 131.249 -267.596 116.79 C -265.285 110.895 -258.669 106.636 -250.866 106.636 C -241.144 106.636 -233.262 113.246 -233.262 121.401 Z" style="fill: rgb(255, 255, 255);" transform="matrix(1, 0, 0, 1, -42.222782, -127.232513)"/>
  <path class="cls-3" d="M -188.586 73.698 C -188.967 73.7 -189.323 73.51 -189.534 73.193 C -195.713 63.925 -195.781 52.777 -195.781 52.306 C -195.781 51.679 -195.272 51.17 -194.645 51.17 C -194.018 51.17 -193.509 51.679 -193.509 52.306 C -193.509 52.414 -193.43 63.255 -187.643 71.932 C -187.158 72.66 -187.642 73.64 -188.514 73.696 C -188.538 73.698 -188.562 73.698 -188.586 73.698 Z" style="fill: rgb(64, 75, 126);" transform="matrix(1, 0, 0, 1, -42.222782, -127.232513)"/>
  <circle class="cls-2" cx="-183.571" cy="64.521" r="3.123" style="fill: rgb(255, 255, 255);" transform="matrix(1, 0, 0, 1, -42.222782, -127.232513)"/>
  <path class="cls-2" d="M -247.294 -87.957 L -246.465 -75.515 L -245.08 -54.219 C -237.697 -49.494 -230.723 -49.244 -224.198 -54.56 L -225.578 -64.418 L -227.668 -79.348 L -247.294 -87.957 Z" style="fill: rgb(255, 255, 255);" transform="matrix(1, 0, 0, 1, -42.222782, -127.232513)"/>
  <path class="cls-3" d="M -234.341 -49.488 C -237.964 -49.488 -241.74 -50.745 -245.67 -53.259 C -245.974 -53.453 -246.168 -53.78 -246.193 -54.139 L -248.43 -87.861 C -248.503 -88.72 -247.629 -89.345 -246.84 -88.996 L -227.191 -80.404 C -226.829 -80.246 -226.575 -79.91 -226.521 -79.518 L -223.051 -54.73 C -222.996 -54.336 -223.151 -53.942 -223.46 -53.691 C -226.907 -50.885 -230.524 -49.488 -234.341 -49.488 Z M -243.944 -54.872 C -237.129 -50.664 -231.019 -50.721 -225.374 -55.048 L -228.662 -78.564 L -246.017 -86.157 L -243.944 -54.872 Z" style="fill: rgb(38, 36, 36);" transform="matrix(1, 0, 0, 1, -42.222782, -127.232513)"/>
  <path class="cls-2" d="M -209.49 -87.832 C -210.268 -77.553 -212.931 -65.219 -225.277 -66.82 C -239.957 -68.723 -249.668 -78.82 -250.151 -92.728 C -250.633 -106.635 -244.421 -114.642 -227.719 -113.473 C -226.297 -113.377 -224.886 -113.162 -223.5 -112.831 C -213.846 -110.491 -208.825 -102.666 -209.189 -93.329 C -209.257 -91.637 -209.336 -89.774 -209.49 -87.832 Z" style="fill: rgb(255, 255, 255);" transform="matrix(1, 0, 0, 1, -42.222782, -127.232513)"/>
  <path class="cls-3" d="M -223.187 -65.543 C -223.936 -65.544 -224.683 -65.593 -225.425 -65.69 C -231.101 -66.336 -236.501 -68.493 -241.059 -71.937 C -241.747 -72.477 -241.593 -73.56 -240.781 -73.886 C -240.405 -74.038 -239.976 -73.976 -239.656 -73.726 C -235.42 -70.528 -230.404 -68.525 -225.13 -67.928 C -221.722 -67.49 -219.036 -68.132 -216.872 -69.893 C -212.199 -73.698 -211.063 -81.994 -210.626 -87.9 C -210.478 -89.826 -210.398 -91.649 -210.33 -93.352 C -209.973 -102.575 -215.123 -109.605 -223.772 -111.706 C -224.623 -111.912 -224.932 -112.961 -224.328 -113.594 C -224.049 -113.888 -223.633 -114.011 -223.238 -113.916 C -213.471 -111.547 -207.656 -103.631 -208.059 -93.267 C -208.121 -91.62 -208.206 -89.695 -208.36 -87.73 C -208.837 -81.409 -210.063 -72.494 -215.447 -68.132 C -217.642 -66.385 -220.383 -65.469 -223.187 -65.543 Z" style="fill: rgb(38, 36, 36);" transform="matrix(1, 0, 0, 1, -42.222782, -127.232513)"/>
  <path class="cls-3" d="M -254.438 -90.002 C -252.98 -87.997 -251.349 -86.124 -249.566 -84.402 L -242.183 -84.13 L -240.741 -89.388 C -240.741 -89.388 -236.067 -89.712 -235.181 -92.898 C -235.158 -92.97 -235.139 -93.044 -235.124 -93.119 C -234.903 -94.159 -234.062 -98.798 -234.943 -105.948 C -234.943 -105.948 -223.585 -101.263 -217.429 -100.775 C -215.22 -100.598 -212.67 -101.507 -210.308 -102.751 C -205.577 -105.238 -201.585 -113.155 -202.55 -118.413 L -202.55 -118.515 C -204.061 -126.222 -207.957 -120.759 -207.957 -120.759 C -207.957 -120.759 -209.268 -126.96 -213.181 -127.312 C -217.094 -127.664 -219.428 -121.843 -219.428 -121.843 C -226.964 -123.399 -234.725 -123.526 -242.308 -122.218 C -257.34 -119.532 -253.32 -109.236 -253.32 -109.236 C -253.32 -109.236 -264.354 -105.397 -254.438 -90.002 Z" style="fill: rgb(38, 36, 36);" transform="matrix(1, 0, 0, 1, -42.222782, -127.232513)"/>
  <path class="cls-2" d="M -243.802 -84.891 C -243.313 -90.717 -247.538 -96.016 -253.365 -96.538 C -254.601 -96.656 -255.848 -96.536 -257.039 -96.186 C -264.189 -94.062 -261.878 -77.343 -244.29 -79.07 L -243.802 -84.891 Z" style="fill: rgb(255, 255, 255);" transform="matrix(1, 0, 0, 1, -42.222782, -127.232513)"/>
  <path class="cls-3" d="M -246.709 -77.803 C -255.671 -77.803 -260.702 -82.818 -261.747 -88.173 C -262.582 -92.438 -260.736 -96.265 -257.352 -97.259 C -256.024 -97.65 -254.635 -97.785 -253.257 -97.657 C -246.795 -96.993 -242.072 -91.251 -242.666 -84.783 C -242.738 -83.908 -243.73 -83.44 -244.451 -83.94 C -244.785 -84.172 -244.971 -84.564 -244.938 -84.97 C -244.445 -90.19 -248.242 -94.836 -253.456 -95.391 C -254.549 -95.494 -255.651 -95.388 -256.704 -95.079 C -258.942 -94.414 -260.112 -91.671 -259.544 -88.593 C -258.669 -84.113 -254.177 -79.223 -244.421 -80.177 C -243.546 -80.262 -242.908 -79.369 -243.271 -78.569 C -243.44 -78.198 -243.794 -77.945 -244.199 -77.906 C -245.062 -77.837 -245.899 -77.803 -246.709 -77.803 Z" style="fill: rgb(38, 36, 36);" transform="matrix(1, 0, 0, 1, -42.222782, -127.232513)"/>
  <rect class="cls-2" x="270.869" y="209.694" width="81.008" height="14.297" rx="7.146" ry="7.146" transform="matrix(0.821109, -0.570771, 0.570771, 0.821109, -478.118774, -124.196159)" style="fill: rgb(255, 255, 255);"/>
  <path class="cls-3" d="M -83.458 32.595 C -83.97 32.594 -84.482 32.547 -84.985 32.453 C -91.262 31.296 -93.933 23.778 -89.793 18.921 C -89.319 18.364 -88.774 17.873 -88.171 17.46 L -33.114 -20.378 C -27.853 -23.994 -20.651 -20.558 -20.151 -14.194 C -19.919 -11.24 -21.28 -8.387 -23.721 -6.709 L -78.778 31.129 C -80.153 32.082 -81.785 32.593 -83.458 32.595 Z M -28.435 -19.566 C -29.652 -19.567 -30.841 -19.197 -31.842 -18.504 L -86.899 19.334 C -90.72 21.957 -90.269 27.733 -86.087 29.73 C -84.146 30.657 -81.858 30.478 -80.085 29.261 L -25.028 -8.577 L -24.386 -7.64 L -25.028 -8.577 C -21.204 -11.196 -21.65 -16.971 -25.829 -18.973 C -26.308 -19.203 -26.816 -19.368 -27.339 -19.464 C -27.699 -19.529 -28.064 -19.561 -28.429 -19.56 L -28.435 -19.566 Z" style="fill: rgb(38, 36, 36);" transform="matrix(1, 0, 0, 1, -42.222782, -127.232513)"/>
  <rect class="cls-2" x="187.665" y="254.994" width="117.275" height="14.317" rx="7.155" ry="7.155" transform="matrix(0.824126, -0.566406, 0.566406, 0.824126, -515.128235, -153.374374)" style="fill: rgb(255, 255, 255);"/>
  <path class="cls-3" d="M -163.871 87.845 C -164.384 87.844 -164.895 87.797 -165.399 87.703 C -171.676 86.546 -174.347 79.028 -170.207 74.171 C -169.733 73.615 -169.187 73.124 -168.585 72.71 L -83.708 14.399 C -78.446 10.784 -71.244 14.22 -70.744 20.584 C -70.512 23.538 -71.873 26.391 -74.315 28.068 L -159.169 86.385 C -160.551 87.34 -162.192 87.849 -163.871 87.845 Z M -79.023 15.211 C -80.24 15.21 -81.429 15.581 -82.43 16.273 L -167.279 74.59 C -171.099 77.213 -170.648 82.989 -166.466 84.986 C -164.525 85.913 -162.237 85.734 -160.464 84.517 L -75.604 26.189 C -71.781 23.57 -72.226 17.795 -76.405 15.793 C -76.885 15.564 -77.392 15.399 -77.915 15.302 C -78.281 15.238 -78.652 15.208 -79.023 15.211 Z M -74.957 27.137 Z" style="fill: rgb(38, 36, 36);" transform="matrix(1, 0, 0, 1, -42.222782, -127.232513)"/>
  <path class="cls-2" d="M -61.361 -105.477 L -107.559 -73.726 C -110.637 -71.606 -112.04 -67.774 -111.057 -64.168 L -90.085 13.002 C -89.289 15.969 -85.793 17.248 -83.27 15.495 L -37.073 -16.255 C -33.995 -18.372 -32.59 -22.202 -33.569 -25.807 L -54.569 -102.984 C -55.37 -105.932 -58.843 -107.207 -61.361 -105.477 Z" style="fill: rgb(255, 255, 255);" transform="matrix(1, 0, 0, 1, -42.222782, -127.232513)"/>
  <path class="cls-3" d="M -85.798 17.421 C -86.458 17.42 -87.114 17.303 -87.734 17.074 C -89.433 16.457 -90.721 15.046 -91.181 13.298 L -112.159 -63.873 C -113.259 -67.949 -111.665 -72.275 -108.184 -74.663 L -61.986 -106.414 L -61.344 -105.477 L -61.986 -106.414 C -58.826 -108.575 -54.477 -106.978 -53.468 -103.285 L -32.495 -26.114 C -31.396 -22.038 -32.989 -17.712 -36.471 -15.324 L -82.663 16.432 C -83.583 17.072 -84.677 17.417 -85.798 17.421 Z M -58.863 -105.125 C -59.525 -105.128 -60.172 -104.93 -60.72 -104.557 L -106.917 -72.806 C -109.598 -70.962 -110.823 -67.627 -109.973 -64.486 L -89 12.684 C -88.406 14.88 -85.821 15.83 -83.946 14.541 L -37.748 -17.209 C -35.084 -19.048 -33.862 -22.361 -34.693 -25.489 L -55.665 -102.688 C -55.94 -103.724 -56.707 -104.558 -57.715 -104.92 C -58.081 -105.055 -58.467 -105.124 -58.857 -105.125 L -58.863 -105.125 Z" style="fill: rgb(38, 36, 36);" transform="matrix(1, 0, 0, 1, -42.222782, -127.232513)"/>
  <path class="cls-2" d="M -55.972 -109.179 L -102.17 -77.429 C -105.247 -75.311 -106.652 -71.482 -105.674 -67.877 L -84.707 9.3 C -83.911 12.266 -80.415 13.545 -77.893 11.793 L -31.695 -19.958 C -28.617 -22.075 -27.212 -25.905 -28.191 -29.51 L -49.157 -106.698 C -49.959 -109.659 -53.454 -110.932 -55.972 -109.179 Z" style="fill: rgb(255, 255, 255);" transform="matrix(1, 0, 0, 1, -42.222782, -127.232513)"/>
  <path class="cls-3" d="M -80.391 13.695 C -81.052 13.695 -81.708 13.577 -82.328 13.349 C -84.03 12.736 -85.322 11.327 -85.786 9.578 L -106.775 -67.576 C -107.875 -71.651 -106.281 -75.977 -102.8 -78.366 L -56.619 -110.105 C -53.459 -112.266 -49.111 -110.669 -48.101 -106.976 L -27.129 -29.805 C -26.029 -25.729 -27.623 -21.403 -31.104 -19.015 L -77.268 12.73 C -78.188 13.359 -79.277 13.696 -80.391 13.695 Z M -53.473 -108.827 C -54.135 -108.83 -54.783 -108.632 -55.33 -108.259 L -101.528 -76.509 C -104.209 -74.665 -105.434 -71.33 -104.583 -68.189 L -83.611 8.982 C -83.017 11.177 -80.431 12.127 -78.557 10.839 L -32.359 -20.912 C -29.677 -22.747 -28.444 -26.074 -29.281 -29.215 L -50.293 -106.385 C -50.568 -107.421 -51.334 -108.255 -52.343 -108.617 C -52.705 -108.752 -53.087 -108.823 -53.473 -108.827 Z M -55.978 -109.179 Z" style="fill: rgb(38, 36, 36);" transform="matrix(1, 0, 0, 1, -42.222782, -127.232513)"/>
  <path class="cls-3" d="M 70.211 17.542 C 69.384 17.579 68.825 16.749 69.204 16.049 C 69.379 15.725 69.725 15.514 70.108 15.497 C 70.474 15.481 104.003 15.226 123.922 6.702 C 124.674 6.375 125.519 6.947 125.443 7.732 C 125.407 8.1 125.163 8.421 124.807 8.57 C 104.519 17.253 71.717 17.478 70.217 17.543 L 70.211 17.542 Z" style="fill: rgb(38, 36, 36);"/>
</svg>