<?xml version="1.0" encoding="utf-8"?>
<svg viewBox="0 0 751.54 627.327" xmlns="http://www.w3.org/2000/svg">
  <path class="cls-1" d="M 485.472 282.177 C 473.995 295.772 434.487 311.514 434.487 311.514 C 431.738 310.714 428.967 309.811 426.241 308.891 C 414.659 304.794 403.35 299.963 392.383 294.426 C 392.383 294.426 384.262 288.18 386.136 278.213 C 386.136 278.213 390.299 265.447 400.288 265.839 C 410.277 266.231 456.078 260.109 456.078 260.109 C 456.078 260.109 467.822 246.479 477.839 248.62 C 487.857 250.761 496.949 268.576 485.472 282.177 Z" style="fill: rgb(136, 192, 194);"/>
  <ellipse class="cls-2" cx="869.77" cy="668.23" rx="6.122" ry="8.422" transform="matrix(0.405461, -0.914112, 0.914112, 0.405461, -548.671814, 819.174194)" style="fill: rgb(255, 255, 255);"/>
  <path class="cls-3" d="M 416.661 302.735 C 415.008 302.724 413.375 302.368 411.868 301.69 C 409.688 300.762 407.854 299.173 406.626 297.147 C 405.456 295.119 405.257 292.995 406.058 291.161 C 406.859 289.327 408.58 288.043 410.868 287.555 C 413.191 287.112 415.594 287.408 417.74 288.401 C 422.555 290.536 425.156 295.256 423.532 298.913 C 422.476 301.372 419.778 302.735 416.661 302.735 Z M 412.941 289.628 C 412.41 289.627 411.881 289.682 411.362 289.792 C 408.363 290.071 406.79 293.492 408.531 295.95 C 408.553 295.98 408.574 296.01 408.597 296.039 C 409.586 297.642 411.051 298.894 412.788 299.623 C 416.462 301.253 420.358 300.531 421.471 298.016 C 422.584 295.5 420.505 292.132 416.831 290.502 C 415.612 289.946 414.292 289.648 412.952 289.628 L 412.941 289.628 Z" style="fill: rgb(38, 36, 36);"/>
  <path class="cls-3" d="M 398.357 280.922 C 397.483 280.922 396.937 279.976 397.374 279.218 C 397.577 278.867 397.952 278.65 398.357 278.65 C 398.744 278.65 436.974 278.497 458.423 269.996 C 459.234 269.669 460.095 270.343 459.972 271.209 C 459.915 271.616 459.641 271.96 459.258 272.108 C 437.411 280.769 399.948 280.922 398.363 280.922 L 398.357 280.922 Z" style="fill: rgb(38, 36, 36);"/>
  <path class="cls-2" d="M 485.472 282.177 C 473.995 295.772 434.487 311.514 434.487 311.514 C 431.738 310.714 428.967 309.811 426.241 308.891 C 444.323 302.848 470.139 284.982 470.139 284.982 C 451.563 277.748 456.067 260.109 456.067 260.109 C 456.067 260.109 467.81 246.479 477.828 248.62 C 487.846 250.761 496.949 268.576 485.472 282.177 Z" style="fill: rgb(255, 255, 255);"/>
  <path class="cls-3" d="M 434.487 312.656 C 434.379 312.656 434.272 312.64 434.169 312.61 C 431.488 311.832 428.694 310.941 425.866 309.97 C 425.038 309.69 424.823 308.619 425.479 308.041 C 425.592 307.941 425.723 307.865 425.866 307.817 C 440.932 302.78 461.717 289.264 467.765 285.215 C 450.728 277.265 454.902 260.012 454.953 259.831 C 454.996 259.661 455.078 259.503 455.192 259.371 C 455.692 258.803 467.492 245.258 478.05 247.513 C 483.416 248.649 488.368 253.714 490.662 260.404 C 493.354 268.252 491.798 276.458 486.324 282.915 C 474.796 296.545 436.514 311.929 434.89 312.576 C 434.761 312.627 434.625 312.654 434.487 312.656 Z M 429.722 308.857 C 431.324 309.379 432.908 309.867 434.453 310.322 C 438.428 308.703 474.046 293.989 484.631 281.45 C 489.499 275.88 490.997 268.125 488.556 261.142 C 486.545 255.287 482.155 250.705 477.624 249.739 C 469.009 247.899 458.628 259.001 457.14 260.654 C 456.663 262.857 454.181 277.543 470.582 283.938 C 471.397 284.255 471.562 285.335 470.88 285.882 C 470.859 285.899 470.837 285.915 470.815 285.931 C 470.542 286.09 447.446 302.002 429.722 308.857 Z M 485.5 282.166 Z" style="fill: rgb(38, 36, 36);"/>
  <path class="cls-2" d="M 373.745 278.827 L 392.133 285.539 C 392.133 285.539 402.514 282.33 399.556 270.308 L 381.258 260.359 L 373.745 278.827 Z" style="fill: rgb(255, 255, 255);"/>
  <path class="cls-3" d="M 392.133 286.675 C 392 286.675 391.867 286.652 391.742 286.607 L 373.353 279.894 C 372.749 279.674 372.447 278.997 372.689 278.401 L 380.202 259.933 C 380.458 259.305 381.203 259.04 381.798 259.365 L 400.095 269.314 C 400.379 269.465 400.585 269.73 400.663 270.041 C 403.849 282.955 392.593 286.595 392.474 286.629 C 392.364 286.662 392.249 286.677 392.133 286.675 Z M 375.239 278.156 L 392.139 284.329 C 393.792 283.688 400.618 280.428 398.562 271.058 L 381.832 261.972 L 375.239 278.156 Z" style="fill: rgb(38, 36, 36);"/>
  <path class="cls-1" d="M 388.913 250.245 C 388.913 250.245 387.403 273.335 369.605 285.073 L 287.074 245.321 C 287.074 245.321 196.211 284.318 165.165 297.186 C 134.118 310.055 53.858 266.52 114.054 233.583 C 114.054 233.583 224.793 200.355 271.888 187.686 C 283.201 184.636 290.833 182.779 292.372 182.853 C 294.377 182.95 301.515 187.288 311.073 193.722 C 339.382 212.781 388.913 250.245 388.913 250.245 Z" style="fill: rgb(136, 192, 194);"/>
  <path class="cls-2" d="M 311.073 193.722 C 306.825 196.817 300.783 198.754 294.076 198.754 C 283.689 198.754 274.887 194.103 271.888 187.686 C 283.201 184.636 290.833 182.779 292.372 182.853 C 294.377 182.95 301.515 187.288 311.073 193.722 Z" style="fill: rgb(255, 255, 255);"/>
  <path class="cls-3" d="M 370.747 264.612 C 370.548 264.615 370.352 264.566 370.179 264.47 L 289.987 220.056 L 158.98 263.215 C 158.15 263.488 157.335 262.76 157.513 261.904 C 157.596 261.507 157.885 261.184 158.27 261.057 L 289.748 217.744 C 290.048 217.646 290.375 217.677 290.651 217.829 L 371.292 262.488 C 372.053 262.919 372.061 264.012 371.308 264.455 C 371.138 264.556 370.944 264.61 370.747 264.612 Z" style="fill: rgb(38, 36, 36);"/>
  <path class="cls-3" d="M 287.96 242.311 L 287.846 242.311 C 287.222 242.251 286.764 241.697 286.824 241.073 L 290.277 205.608 C 290.362 204.734 291.362 204.28 292.076 204.791 C 292.408 205.028 292.588 205.424 292.548 205.83 L 289.095 241.295 C 289.034 241.875 288.543 242.314 287.96 242.311 Z" style="fill: rgb(38, 36, 36);"/>
  <path class="cls-3" d="M 365.823 276.935 C 364.949 276.94 364.398 275.996 364.831 275.236 C 364.92 275.081 365.044 274.949 365.193 274.851 C 376.92 267.094 379.623 249.864 379.651 249.699 C 379.78 248.825 380.807 248.418 381.5 248.967 C 381.821 249.222 381.983 249.629 381.923 250.034 C 381.809 250.784 379.055 268.423 366.47 276.725 C 366.281 276.86 366.055 276.933 365.823 276.935 Z" style="fill: rgb(38, 36, 36);"/>
  <path class="cls-1" d="M 306.569 626.188 C 288.777 625.995 251.484 605.551 251.484 605.551 C 250.348 602.922 249.269 600.224 248.258 597.521 C 244.043 585.982 240.568 574.185 237.855 562.204 C 237.855 562.204 237.48 551.982 246.373 547.058 C 246.373 547.058 258.867 542.14 264.926 550.091 C 270.985 558.041 304.866 589.463 304.866 589.463 C 304.866 589.463 322.851 589.843 327.581 598.929 C 332.312 608.016 324.367 626.376 306.569 626.188 Z" style="fill: rgb(136, 192, 194);"/>
  <ellipse class="cls-2" cx="582.46" cy="1169.83" rx="6.122" ry="8.422" transform="matrix(0.963069, -0.269256, 0.269256, 0.963069, -624.293274, -389.863739)" style="fill: rgb(255, 255, 255);"/>
  <path class="cls-3" d="M 252.733 589.315 C 249.326 589.315 245.919 586.277 244.675 581.859 C 244.001 579.592 244.054 577.171 244.828 574.936 C 245.646 572.744 247.157 571.239 249.093 570.7 C 251.03 570.16 253.102 570.66 254.937 572.114 C 258.594 575.254 260.001 580.287 258.503 584.868 C 257.685 587.06 256.175 588.565 254.238 589.111 C 253.748 589.247 253.242 589.316 252.733 589.315 Z M 250.632 572.761 C 250.321 572.76 250.012 572.803 249.712 572.886 C 248.39 573.331 247.365 574.389 246.964 575.725 C 246.357 577.508 246.323 579.436 246.867 581.24 C 247.946 585.107 250.984 587.651 253.631 586.919 C 254.953 586.473 255.977 585.415 256.379 584.079 C 257.54 580.422 256.425 576.425 253.54 573.897 C 252.725 573.199 251.698 572.799 250.626 572.761 L 250.632 572.761 Z" style="fill: rgb(38, 36, 36);"/>
  <path class="cls-3" d="M 294.081 601.581 C 293.883 601.585 293.687 601.536 293.514 601.439 C 272.927 590.082 248.957 561.312 247.946 560.091 C 247.406 559.403 247.814 558.389 248.679 558.266 C 249.06 558.212 249.442 558.354 249.695 558.643 C 249.939 558.939 274.404 588.327 294.61 599.452 C 295.375 599.875 295.395 600.968 294.646 601.419 C 294.475 601.522 294.281 601.578 294.081 601.581 Z" style="fill: rgb(38, 36, 36);"/>
  <path class="cls-3" d="M 303.542 592.683 C 303.33 592.683 303.121 592.624 302.94 592.512 C 283.343 580.263 259.213 553.583 258.969 553.328 C 258.383 552.672 258.727 551.628 259.587 551.449 C 259.987 551.365 260.401 551.501 260.672 551.806 C 260.911 552.073 284.836 578.497 304.156 590.598 C 304.886 591.079 304.821 592.17 304.04 592.562 C 303.885 592.64 303.715 592.681 303.542 592.683 Z" style="fill: rgb(38, 36, 36);"/>
  <path class="cls-2" d="M 306.569 626.188 C 288.777 625.995 251.484 605.551 251.484 605.551 C 250.348 602.922 249.269 600.224 248.258 597.521 C 264.432 607.618 294.644 616.154 294.644 616.154 C 288.397 597.226 304.866 589.463 304.866 589.463 C 304.866 589.463 322.851 589.843 327.581 598.929 C 332.312 608.016 324.367 626.376 306.569 626.188 Z" style="fill: rgb(255, 255, 255);"/>
  <path class="cls-3" d="M 306.836 627.324 L 306.564 627.324 C 288.692 627.131 252.478 607.385 250.944 606.545 C 250.72 606.417 250.546 606.217 250.45 605.977 C 249.315 603.404 248.247 600.69 247.202 597.896 C 246.895 597.077 247.589 596.233 248.452 596.377 C 248.599 596.401 248.739 596.454 248.866 596.533 C 262.342 604.949 286 612.366 292.974 614.456 C 288.266 596.283 304.224 588.492 304.389 588.412 C 304.548 588.337 304.723 588.3 304.9 588.304 C 305.661 588.304 323.64 588.81 328.598 598.384 C 331.136 603.251 330.387 610.31 326.69 616.313 C 322.506 623.258 314.943 627.453 306.836 627.324 Z M 306.586 625.052 C 313.988 625.275 320.935 621.489 324.759 615.148 C 327.996 609.873 328.734 603.563 326.593 599.458 C 322.527 591.649 307.359 590.706 305.133 590.61 C 303.128 591.649 290.225 599.083 295.74 615.801 C 296.013 616.632 295.284 617.447 294.428 617.268 C 294.403 617.262 294.378 617.256 294.354 617.25 C 294.07 617.17 267.095 609.492 250.507 600.162 C 251.126 601.729 251.757 603.262 252.393 604.745 C 256.18 606.783 290.191 624.876 306.603 625.058 L 306.586 625.052 Z" style="fill: rgb(38, 36, 36);"/>
  <path class="cls-2" d="M 237.383 539.204 L 243.914 557.661 C 243.914 557.661 253 563.624 260.383 553.686 L 256.408 533.241 L 237.383 539.204 Z" style="fill: rgb(255, 255, 255);"/>
  <path class="cls-3" d="M 250.325 560.551 C 247.853 560.527 245.429 559.858 243.295 558.609 C 243.087 558.474 242.93 558.274 242.846 558.041 L 236.316 539.585 C 236.099 538.977 236.432 538.311 237.048 538.12 L 256.072 532.157 C 256.719 531.955 257.398 532.36 257.526 533.026 L 261.502 553.47 C 261.561 553.782 261.487 554.106 261.297 554.361 C 257.685 559.222 253.676 560.551 250.325 560.551 Z M 244.851 556.894 C 246.401 557.763 253.256 560.949 259.173 553.402 L 255.539 534.707 L 238.848 539.937 L 244.851 556.894 Z" style="fill: rgb(38, 36, 36);"/>
  <path class="cls-1" d="M 263.978 529.647 C 249.212 551.601 224.606 541.379 224.606 541.379 C 210.596 509.958 178.419 413.036 178.419 413.036 L 73.927 296.051 C 73.927 296.051 52.347 251.38 84.905 232.827 C 117.462 214.274 144.721 253.652 144.721 253.652 L 215.559 365.839 L 228.393 386.158 L 235.339 414.178 L 263.978 529.647 Z" style="fill: rgb(136, 192, 194);"/>
  <path class="cls-3" d="M 168.441 292.348 C 168.052 292.348 167.69 292.149 167.482 291.82 L 143.761 254.26 C 143.715 254.197 136.617 244.038 125.588 236.683 C 124.86 236.198 124.931 235.107 125.715 234.719 C 126.079 234.539 126.511 234.567 126.849 234.792 C 134.104 239.753 140.462 245.912 145.652 253.005 L 169.395 290.605 C 169.863 291.343 169.356 292.311 168.482 292.347 C 168.469 292.348 168.455 292.348 168.441 292.348 Z" style="fill: rgb(38, 36, 36);"/>
  <path class="cls-3" d="M 156.499 273.437 C 155.768 273.453 155.213 272.784 155.363 272.069 L 157.492 261.898 C 157.991 259.533 157.562 257.067 156.294 255.009 L 140.728 229.613 C 140.283 228.861 140.819 227.908 141.693 227.899 C 142.087 227.895 142.454 228.094 142.665 228.426 L 158.27 253.817 C 159.838 256.361 160.37 259.41 159.758 262.335 L 157.629 272.506 C 157.529 273.05 157.052 273.443 156.499 273.437 Z" style="fill: rgb(38, 36, 36);"/>
  <path class="cls-2" d="M 235.339 414.178 C 235.055 414.302 234.771 414.422 234.47 414.53 C 224.168 418.317 211.754 410.412 206.802 396.874 C 201.975 383.733 205.899 370.104 215.559 365.861 L 228.393 386.181 L 235.339 414.178 Z" style="fill: rgb(255, 255, 255);"/>
  <path class="cls-3" d="M 230.478 526.427 C 229.998 526.426 229.571 526.123 229.41 525.672 C 215.911 487.731 191.361 413.229 189.908 408.726 L 84.416 282.773 C 83.846 282.107 84.211 281.072 85.073 280.912 C 85.474 280.837 85.883 280.982 86.148 281.291 L 191.776 407.437 C 191.869 407.547 191.94 407.674 191.986 407.811 C 192.242 408.59 217.694 486.004 231.54 524.911 C 231.801 525.647 231.259 526.421 230.478 526.427 Z" style="fill: rgb(38, 36, 36);"/>
  <path class="cls-3" d="M 180.691 413.797 C 179.816 413.797 179.27 412.851 179.706 412.094 C 179.825 411.889 180.004 411.726 180.219 411.628 L 199.908 402.638 C 200.704 402.275 201.594 402.91 201.51 403.78 C 201.471 404.184 201.22 404.537 200.851 404.705 L 181.162 413.695 C 181.014 413.762 180.853 413.797 180.691 413.797 Z" style="fill: rgb(38, 36, 36);"/>
  <path class="cls-3" d="M 234.833 535.081 C 231.484 535.1 228.143 534.719 224.884 533.946 C 224.046 533.695 223.794 532.631 224.43 532.031 C 224.703 531.774 225.085 531.668 225.452 531.748 C 225.645 531.799 245.078 536.717 258.259 524.076 C 258.891 523.47 259.941 523.776 260.149 524.625 C 260.246 525.02 260.125 525.436 259.832 525.717 C 251.881 533.372 242.046 535.081 234.833 535.081 Z" style="fill: rgb(38, 36, 36);"/>
  <path class="cls-4" d="M 95.127 78.645 C 95.127 78.645 178.998 121.458 184.109 143.606 C 189.22 165.754 156.175 172.347 125.509 145.372 C 94.843 118.397 95.127 78.645 95.127 78.645 Z" style="fill: rgb(222, 146, 68);"/>
  <path class="cls-2" d="M 160.247 136.763 C 156.658 138.291 156.555 144.81 158.356 152.664 C 160.156 160.518 177.476 160.427 179.368 157.588 C 181.259 154.748 180.407 144.055 178.328 141.119 C 176.25 138.183 164.693 134.866 160.247 136.763 Z" style="fill: rgb(255, 255, 255);"/>
  <path class="cls-3" d="M 172.246 160.478 C 170.559 160.478 168.875 160.328 167.215 160.029 C 161.604 159.002 158.06 156.474 157.248 152.908 C 155.715 146.213 154.914 137.791 159.804 135.707 C 164.653 133.645 176.869 137.092 179.254 140.449 C 181.525 143.674 182.565 154.833 180.316 158.207 C 179.282 159.763 175.909 160.478 172.246 160.478 Z M 160.695 137.802 C 158.089 138.938 157.623 144.373 159.463 152.403 C 160.303 156.071 165.449 157.394 167.624 157.792 C 172.888 158.757 177.846 157.792 178.413 156.946 C 179.958 154.629 179.271 144.412 177.391 141.766 C 175.688 139.364 164.807 136.047 160.684 137.791 L 160.695 137.802 Z" style="fill: rgb(38, 36, 36);"/>
  <path class="cls-2" d="M 152.024 137.138 C 147.259 137.933 149.565 148.967 150.888 154.175 C 152.211 159.382 159.974 161.273 159.69 154.175 C 159.406 147.076 157.702 136.195 152.024 137.138 Z" style="fill: rgb(255, 255, 255);"/>
  <path class="cls-3" d="M 156.357 159.95 C 153.739 159.95 150.678 157.9 149.775 154.453 C 147.634 146.054 147.429 140.443 149.167 137.785 C 149.758 136.841 150.726 136.196 151.825 136.013 C 153.244 135.76 154.702 136.153 155.8 137.087 C 159.826 140.363 160.638 150.097 160.797 154.123 C 160.991 158.939 157.958 159.763 157.021 159.899 C 156.801 159.932 156.579 159.949 156.357 159.95 Z M 152.2 138.257 C 151.725 138.331 151.308 138.614 151.064 139.029 C 149.752 141.045 150.081 146.463 151.972 153.891 C 152.597 156.344 154.988 157.9 156.703 157.65 C 158.418 157.4 158.588 155.378 158.537 154.243 C 158.299 148.257 157.078 141.073 154.375 138.876 C 153.774 138.361 152.969 138.152 152.194 138.308 L 152.2 138.257 Z" style="fill: rgb(38, 36, 36);"/>
  <path class="cls-4" d="M 77.335 313.848 C 77.335 313.848 108.756 259.331 185.614 209.737 L 140.183 176.419 C 140.183 176.419 129.581 125.212 95.132 78.645 C 95.132 78.645 65.602 71.166 48.565 72.682 C 31.529 74.198 7.297 110.543 7.297 110.543 C 7.297 110.543 23.198 210.878 33.039 244.197 C 42.881 277.515 77.335 313.848 77.335 313.848 Z" style="fill: rgb(222, 146, 68);"/>
  <path class="cls-3" d="M 71.122 130.641 C 70.665 130.658 70.209 130.583 69.782 130.42 C 69.089 130.113 68.493 129.852 64.341 114.996 C 62.354 107.897 60.502 100.798 60.485 100.708 C 60.235 99.87 60.985 99.075 61.835 99.277 C 62.26 99.377 62.59 99.713 62.683 100.14 C 65.886 112.452 69.759 126.178 70.9 128.381 C 72.588 128.324 74.238 127.875 75.722 127.069 C 76.653 126.547 77.238 125.962 77.374 125.422 C 77.732 123.719 74.052 110.169 70.293 98.067 C 70.033 97.232 70.774 96.429 71.627 96.621 C 72.023 96.71 72.341 97.004 72.462 97.391 C 74.313 103.36 80.31 123.048 79.578 125.973 C 79.248 127.285 78.118 128.443 76.301 129.329 C 74.681 130.113 72.919 130.56 71.122 130.641 Z" style="fill: rgb(38, 36, 36);"/>
  <path class="cls-3" d="M 73.927 297.192 C 73.053 297.193 72.505 296.248 72.941 295.49 C 72.968 295.444 72.997 295.4 73.03 295.358 C 73.518 294.733 122.323 232.453 171.951 207.164 C 172.717 206.744 173.652 207.31 173.633 208.184 C 173.624 208.614 173.373 209.002 172.984 209.186 C 123.805 234.241 75.307 296.124 74.83 296.749 C 74.615 297.029 74.281 297.193 73.927 297.192 Z" style="fill: rgb(38, 36, 36);"/>
  <path class="cls-3" d="M 131.659 149.086 C 131.181 149.086 130.754 148.786 130.591 148.337 C 124.805 132.322 114.492 108.323 98.222 84.932 C 97.723 84.212 98.19 83.224 99.062 83.152 C 99.467 83.118 99.859 83.303 100.09 83.637 C 116.485 107.227 126.883 131.425 132.715 147.564 C 132.981 148.3 132.441 149.078 131.659 149.086 Z" style="fill: rgb(38, 36, 36);"/>
  <path class="cls-2" d="M 76.102 82.762 C 75.682 89.157 70.156 94.12 70.156 94.12 C 69.021 90.611 65.329 84.79 61.542 79.991 C 61.542 79.991 59.974 88.509 58.958 95.716 C 54.772 96.596 37.895 96.494 33.192 86.63 C 33.192 86.63 33.97 65.43 54.204 63.914 C 62.905 63.301 73.325 71.342 76.102 82.762 Z" style="fill: rgb(255, 255, 255);"/>
  <path class="cls-3" d="M 54.346 97.198 C 47.333 97.198 36.06 95.318 32.148 87.129 C 32.069 86.963 32.032 86.78 32.04 86.596 C 32.04 86.374 33.096 64.363 54.097 62.812 C 63.842 62.091 74.416 71.098 77.187 82.49 C 77.214 82.601 77.223 82.716 77.215 82.83 C 76.772 89.611 71.133 94.756 70.895 94.949 C 70.286 95.493 69.318 95.236 69.06 94.461 C 68.146 91.695 65.477 87.163 62.189 82.717 C 61.621 85.789 60.735 91.144 60.065 95.864 C 59.999 96.338 59.642 96.719 59.173 96.818 C 57.58 97.097 55.964 97.225 54.346 97.198 Z M 34.323 86.408 C 38.604 94.767 53.12 95.341 57.93 94.722 C 58.935 87.777 60.389 79.86 60.4 79.775 C 60.556 78.915 61.585 78.546 62.252 79.111 C 62.31 79.16 62.363 79.215 62.41 79.275 C 65.386 83.046 68.828 88.174 70.543 92.047 C 72.076 90.304 74.603 86.862 74.932 82.859 C 72.093 71.501 61.973 64.505 54.261 65.078 C 46.311 65.646 40.53 69.462 37.105 76.356 C 35.58 79.511 34.645 82.917 34.345 86.408 L 34.323 86.408 Z" style="fill: rgb(38, 36, 36);"/>
  <path class="cls-2" d="M 101.85 175.186 L 110.653 170.831 C 110.653 170.831 122.011 155.969 124.186 153.323 C 126.361 150.676 145.953 159.382 147.089 160.893 C 148.224 162.403 147.373 164.964 145.669 165.623 C 148.689 169.735 149.632 175.014 148.224 179.917 C 145.856 188.248 131.284 180.956 131.284 180.956 C 131.284 180.956 127.406 191.934 123.146 193.069 C 118.887 194.205 107.626 191.65 107.626 191.65 L 101.85 175.186 Z" style="fill: rgb(255, 255, 255);"/>
  <path class="cls-3" d="M 120.222 194.495 C 115.06 194.495 107.728 192.848 107.353 192.763 C 106.973 192.675 106.664 192.399 106.536 192.03 L 100.76 175.561 C 100.572 175.021 100.815 174.424 101.328 174.17 L 109.892 169.933 C 111.34 168.042 121.25 155.1 123.288 152.601 C 123.816 151.96 124.708 151.659 126.003 151.693 C 131.733 151.818 146.708 158.508 147.98 160.211 C 148.724 161.253 148.935 162.585 148.548 163.806 C 148.322 164.621 147.876 165.357 147.259 165.936 C 149.953 170.189 150.697 175.392 149.303 180.229 C 148.845 182.073 147.554 183.597 145.811 184.352 C 141.449 186.272 134.606 183.688 131.903 182.507 C 130.711 185.562 127.36 193.12 123.419 194.177 C 122.371 194.415 121.297 194.522 120.222 194.495 Z M 108.466 190.684 C 111.936 191.428 119.762 192.797 122.834 191.979 C 125.514 191.263 128.774 184.596 130.217 180.581 C 130.445 179.938 131.185 179.64 131.795 179.945 C 134.197 181.144 141.234 183.921 144.919 182.274 C 146.038 181.786 146.861 180.799 147.14 179.61 C 148.464 175.067 147.599 170.166 144.8 166.35 C 144.311 165.753 144.547 164.853 145.266 164.573 C 145.835 164.307 146.253 163.797 146.401 163.187 C 146.585 162.649 146.512 162.057 146.203 161.58 C 144.454 159.814 127.099 152.721 125.049 154.084 C 122.948 156.651 111.686 171.376 111.573 171.529 C 111.467 171.668 111.331 171.781 111.175 171.859 L 103.276 175.766 L 108.466 190.684 Z" style="fill: rgb(38, 36, 36);"/>
  <path class="cls-3" d="M 145.669 166.765 C 145.517 166.764 145.366 166.733 145.226 166.674 L 129.609 160.047 C 128.791 159.737 128.616 158.658 129.293 158.105 C 129.632 157.828 130.099 157.77 130.495 157.957 L 146.112 164.584 C 146.916 164.927 147.048 166.012 146.349 166.537 C 146.153 166.684 145.914 166.764 145.669 166.765 Z" style="fill: rgb(38, 36, 36);"/>
  <path class="cls-4" d="M 114.054 194.591 C 114.054 194.591 74.183 236.871 55.357 249.37 C 54.426 249.987 53.548 250.53 52.722 251 C 41.853 257.144 30.83 258.576 21.04 244.117 C 15.162 235.428 9.716 220.987 5.019 198.379 C -7.474 138.183 7.291 110.549 7.291 110.549 C 17.893 105.058 43.829 113.008 46.288 137.995 C 48.747 162.983 56.697 191.19 56.697 191.19 L 104.593 171.881 L 114.054 194.591 Z" style="fill: rgb(222, 146, 68);"/>
  <path class="cls-3" d="M 58.151 248.552 C 57.277 248.549 56.734 247.601 57.173 246.845 C 57.251 246.711 57.356 246.594 57.481 246.502 C 75.614 233.219 108.273 199.038 112.726 194.347 L 103.98 173.335 L 57.123 192.223 C 56.497 192.475 55.791 192.128 55.607 191.479 C 55.528 191.195 47.6 162.886 45.158 138.098 C 44.085 127.183 38.497 120.578 34.005 116.961 C 27.866 112.02 19.484 109.351 12.652 110.146 C 11.778 110.249 11.12 109.366 11.468 108.558 C 11.63 108.183 11.979 107.922 12.385 107.874 C 19.904 106.983 28.735 109.777 35.43 115.16 C 40.263 119.05 46.271 126.143 47.424 137.842 C 49.559 159.524 55.942 183.938 57.464 189.617 L 104.179 170.785 C 104.756 170.554 105.411 170.83 105.65 171.404 L 115.111 194.12 C 115.283 194.533 115.196 195.009 114.889 195.335 C 114.526 195.721 78.38 233.952 58.827 248.297 C 58.636 248.453 58.398 248.543 58.151 248.552 Z" style="fill: rgb(38, 36, 36);"/>
  <path class="cls-3" d="M 40.234 226.393 C 39.5 226.392 38.96 225.704 39.133 224.99 C 39.297 224.315 43.284 208.317 53.898 194.472 C 54.466 193.808 55.541 194.008 55.832 194.832 C 55.952 195.174 55.903 195.553 55.698 195.852 C 45.374 209.311 41.364 225.382 41.325 225.53 C 41.2 226.033 40.752 226.388 40.234 226.393 Z" style="fill: rgb(38, 36, 36);"/>
  <path class="cls-2" d="M 55.374 248.728 C 55.374 248.944 55.374 249.154 55.374 249.37 C 54.443 249.987 53.565 250.53 52.739 251 C 41.853 257.144 30.83 258.576 21.04 244.117 C 23.351 238.222 29.967 233.963 37.77 233.963 C 47.492 233.963 55.374 240.573 55.374 248.728 Z" style="fill: rgb(255, 255, 255);"/>
  <path class="cls-3" d="M 100.05 201.025 C 99.669 201.027 99.313 200.837 99.102 200.52 C 92.923 191.252 92.855 180.104 92.855 179.633 C 92.855 179.006 93.364 178.497 93.991 178.497 C 94.618 178.497 95.127 179.006 95.127 179.633 C 95.127 179.741 95.206 190.582 100.993 199.259 C 101.478 199.987 100.994 200.967 100.122 201.023 C 100.098 201.025 100.074 201.025 100.05 201.025 Z" style="fill: rgb(38, 36, 36);"/>
  <circle class="cls-2" cx="105.065" cy="191.848" r="3.123" style="fill: rgb(255, 255, 255);"/>
  <path class="cls-3" d="M 105.065 196.108 C 101.786 196.108 99.737 192.558 101.376 189.719 C 103.016 186.879 107.114 186.879 108.753 189.719 C 109.127 190.366 109.324 191.101 109.324 191.848 C 109.321 194.199 107.416 196.104 105.065 196.108 Z M 105.065 189.861 C 103.535 189.861 102.578 191.517 103.343 192.842 C 104.108 194.167 106.021 194.167 106.786 192.842 C 106.96 192.54 107.052 192.197 107.052 191.848 C 107.052 190.751 106.162 189.861 105.065 189.861 Z" style="fill: rgb(38, 36, 36);"/>
  <path class="cls-2" d="M 41.342 39.37 L 42.171 51.812 L 43.556 73.108 C 50.939 77.833 57.913 78.083 64.438 72.767 L 63.058 62.909 L 60.968 47.979 L 41.342 39.37 Z" style="fill: rgb(255, 255, 255);"/>
  <path class="cls-3" d="M 54.295 77.839 C 50.672 77.839 46.896 76.582 42.966 74.068 C 42.662 73.874 42.468 73.547 42.443 73.188 L 40.206 39.466 C 40.133 38.607 41.007 37.982 41.796 38.331 L 61.445 46.923 C 61.807 47.081 62.061 47.417 62.115 47.809 L 65.585 72.597 C 65.64 72.991 65.485 73.385 65.176 73.636 C 61.729 76.442 58.112 77.839 54.295 77.839 Z M 44.692 72.455 C 51.507 76.663 57.617 76.606 63.262 72.279 L 59.974 48.763 L 42.619 41.17 L 44.692 72.455 Z" style="fill: rgb(38, 36, 36);"/>
  <path class="cls-2" d="M 79.146 39.495 C 78.368 49.774 75.705 62.108 63.359 60.507 C 48.679 58.604 38.968 48.507 38.485 34.599 C 38.003 20.692 44.215 12.685 60.917 13.854 C 62.339 13.95 63.75 14.165 65.136 14.496 C 74.79 16.836 79.811 24.661 79.447 33.998 C 79.379 35.69 79.3 37.553 79.146 39.495 Z" style="fill: rgb(255, 255, 255);"/>
  <path class="cls-3" d="M 65.449 61.784 C 64.7 61.783 63.953 61.734 63.211 61.637 C 57.535 60.991 52.135 58.834 47.577 55.39 C 46.889 54.85 47.043 53.767 47.855 53.441 C 48.231 53.289 48.66 53.351 48.98 53.601 C 53.216 56.799 58.232 58.802 63.506 59.399 C 66.914 59.837 69.6 59.195 71.764 57.434 C 76.437 53.629 77.573 45.333 78.01 39.427 C 78.158 37.501 78.238 35.678 78.306 33.975 C 78.663 24.752 73.513 17.722 64.864 15.621 C 64.013 15.415 63.704 14.366 64.308 13.733 C 64.587 13.439 65.003 13.316 65.398 13.411 C 75.165 15.78 80.98 23.696 80.577 34.06 C 80.515 35.707 80.43 37.632 80.276 39.597 C 79.799 45.918 78.573 54.833 73.189 59.195 C 70.994 60.942 68.253 61.858 65.449 61.784 Z" style="fill: rgb(38, 36, 36);"/>
  <path class="cls-3" d="M 34.198 37.325 C 35.656 39.33 37.287 41.203 39.07 42.925 L 46.453 43.197 L 47.895 37.939 C 47.895 37.939 52.569 37.615 53.455 34.429 C 53.478 34.357 53.497 34.283 53.512 34.208 C 53.733 33.168 54.574 28.529 53.693 21.379 C 53.693 21.379 65.051 26.064 71.207 26.552 C 73.416 26.729 75.966 25.82 78.328 24.576 C 83.059 22.089 87.051 14.172 86.086 8.914 L 86.086 8.812 C 84.575 1.105 80.679 6.568 80.679 6.568 C 80.679 6.568 79.368 0.367 75.455 0.015 C 71.542 -0.337 69.208 5.484 69.208 5.484 C 61.672 3.928 53.911 3.801 46.328 5.109 C 31.296 7.795 35.316 18.091 35.316 18.091 C 35.316 18.091 24.282 21.93 34.198 37.325 Z" style="fill: rgb(38, 36, 36);"/>
  <path class="cls-2" d="M 44.834 42.436 C 45.323 36.61 41.098 31.311 35.271 30.789 C 34.035 30.671 32.788 30.791 31.597 31.141 C 24.447 33.265 26.758 49.984 44.346 48.257 L 44.834 42.436 Z" style="fill: rgb(255, 255, 255);"/>
  <path class="cls-3" d="M 41.927 49.524 C 32.965 49.524 27.934 44.509 26.889 39.154 C 26.054 34.889 27.9 31.062 31.284 30.068 C 32.612 29.677 34.001 29.542 35.379 29.67 C 41.841 30.334 46.564 36.076 45.97 42.544 C 45.898 43.419 44.906 43.887 44.185 43.387 C 43.851 43.155 43.665 42.763 43.698 42.357 C 44.191 37.137 40.394 32.491 35.18 31.936 C 34.087 31.833 32.985 31.939 31.932 32.248 C 29.694 32.913 28.524 35.656 29.092 38.734 C 29.967 43.214 34.459 48.104 44.215 47.15 C 45.09 47.065 45.728 47.958 45.365 48.758 C 45.196 49.129 44.842 49.382 44.437 49.421 C 43.574 49.49 42.737 49.524 41.927 49.524 Z" style="fill: rgb(38, 36, 36);"/>
  <rect class="cls-2" x="270.869" y="209.694" width="81.008" height="14.297" rx="7.146" ry="7.146" transform="matrix(0.821109, -0.570771, 0.570771, 0.821109, -147.260452, 130.363205)" style="fill: rgb(255, 255, 255);"/>
  <path class="cls-3" d="M 205.178 159.922 C 204.666 159.921 204.154 159.874 203.651 159.78 C 197.374 158.623 194.703 151.105 198.843 146.248 C 199.317 145.691 199.862 145.2 200.465 144.787 L 255.522 106.949 C 260.783 103.333 267.985 106.769 268.485 113.133 C 268.717 116.087 267.356 118.94 264.915 120.618 L 209.858 158.456 C 208.483 159.409 206.851 159.92 205.178 159.922 Z M 260.201 107.761 C 258.984 107.76 257.795 108.13 256.794 108.823 L 201.737 146.661 C 197.916 149.284 198.367 155.06 202.549 157.057 C 204.49 157.984 206.778 157.805 208.551 156.588 L 263.608 118.75 L 264.25 119.687 L 263.608 118.75 C 267.432 116.131 266.986 110.356 262.807 108.354 C 262.328 108.124 261.82 107.959 261.297 107.863 C 260.937 107.798 260.572 107.766 260.207 107.767 L 260.201 107.761 Z" style="fill: rgb(38, 36, 36);"/>
  <rect class="cls-2" x="187.665" y="254.994" width="117.275" height="14.317" rx="7.155" ry="7.155" transform="matrix(0.824126, -0.566406, 0.566406, 0.824126, -184.269867, 101.18499)" style="fill: rgb(255, 255, 255);"/>
  <path class="cls-3" d="M 124.765 215.172 C 124.252 215.171 123.741 215.124 123.237 215.03 C 116.96 213.873 114.289 206.355 118.429 201.498 C 118.903 200.942 119.449 200.451 120.051 200.037 L 204.928 141.726 C 210.19 138.111 217.392 141.547 217.892 147.911 C 218.124 150.865 216.763 153.718 214.321 155.395 L 129.467 213.712 C 128.085 214.667 126.444 215.176 124.765 215.172 Z M 209.613 142.538 C 208.396 142.537 207.207 142.908 206.206 143.6 L 121.357 201.917 C 117.537 204.54 117.988 210.316 122.17 212.313 C 124.111 213.24 126.399 213.061 128.172 211.844 L 213.032 153.516 C 216.855 150.897 216.41 145.122 212.231 143.12 C 211.751 142.891 211.244 142.726 210.721 142.629 C 210.355 142.565 209.984 142.535 209.613 142.538 Z M 213.679 154.464 Z" style="fill: rgb(38, 36, 36);"/>
  <path class="cls-2" d="M 227.275 21.85 L 181.077 53.601 C 177.999 55.721 176.596 59.553 177.579 63.159 L 198.551 140.329 C 199.347 143.296 202.843 144.575 205.366 142.822 L 251.563 111.072 C 254.641 108.955 256.046 105.125 255.067 101.52 L 234.067 24.343 C 233.266 21.395 229.793 20.12 227.275 21.85 Z" style="fill: rgb(255, 255, 255);"/>
  <path class="cls-3" d="M 202.838 144.748 C 202.178 144.747 201.522 144.63 200.902 144.401 C 199.203 143.784 197.915 142.373 197.455 140.625 L 176.477 63.454 C 175.377 59.378 176.971 55.052 180.452 52.664 L 226.65 20.913 L 227.292 21.85 L 226.65 20.913 C 229.81 18.752 234.159 20.349 235.168 24.042 L 256.141 101.213 C 257.24 105.289 255.647 109.615 252.165 112.003 L 205.973 143.759 C 205.053 144.399 203.959 144.744 202.838 144.748 Z M 229.773 22.202 C 229.111 22.199 228.464 22.397 227.916 22.77 L 181.719 54.521 C 179.038 56.365 177.813 59.7 178.663 62.841 L 199.636 140.011 C 200.23 142.207 202.815 143.157 204.69 141.868 L 250.888 110.118 C 253.552 108.279 254.774 104.966 253.943 101.838 L 232.971 24.639 C 232.696 23.603 231.929 22.769 230.921 22.407 C 230.555 22.272 230.169 22.203 229.779 22.202 L 229.773 22.202 Z" style="fill: rgb(38, 36, 36);"/>
  <path class="cls-2" d="M 232.664 18.148 L 186.466 49.898 C 183.389 52.016 181.984 55.845 182.962 59.45 L 203.929 136.627 C 204.725 139.593 208.221 140.872 210.743 139.12 L 256.941 107.369 C 260.019 105.252 261.424 101.422 260.445 97.817 L 239.479 20.629 C 238.677 17.668 235.182 16.395 232.664 18.148 Z" style="fill: rgb(255, 255, 255);"/>
  <path class="cls-3" d="M 208.245 141.022 C 207.584 141.022 206.928 140.904 206.308 140.676 C 204.606 140.063 203.314 138.654 202.85 136.905 L 181.861 59.751 C 180.761 55.676 182.355 51.35 185.836 48.961 L 232.017 17.222 C 235.177 15.061 239.525 16.658 240.535 20.351 L 261.507 97.522 C 262.607 101.598 261.013 105.924 257.532 108.312 L 211.368 140.057 C 210.448 140.686 209.359 141.023 208.245 141.022 Z M 235.163 18.5 C 234.501 18.497 233.853 18.695 233.306 19.068 L 187.108 50.818 C 184.427 52.662 183.202 55.997 184.053 59.138 L 205.025 136.309 C 205.619 138.504 208.205 139.454 210.079 138.166 L 256.277 106.415 C 258.959 104.58 260.192 101.253 259.355 98.112 L 238.343 20.942 C 238.068 19.906 237.302 19.072 236.293 18.71 C 235.931 18.575 235.549 18.504 235.163 18.5 Z M 232.658 18.148 Z" style="fill: rgb(38, 36, 36);"/>
  <path class="cls-3" d="M 730.573 354.788 C 729.946 354.788 729.438 354.279 729.438 353.652 L 729.438 347.837 C 729.438 346.962 730.384 346.416 731.141 346.853 C 731.493 347.056 731.709 347.431 731.709 347.837 L 731.709 353.652 C 731.709 354.279 731.201 354.788 730.573 354.788 Z" style="fill: rgb(38, 36, 36);"/>
  <path class="cls-3" d="M 739.342 357.741 L 733.544 357.741 C 732.669 357.741 732.123 356.794 732.56 356.037 C 732.763 355.685 733.138 355.469 733.544 355.469 L 739.359 355.469 C 740.233 355.476 740.772 356.426 740.33 357.18 C 740.124 357.53 739.747 357.744 739.342 357.741 Z" style="fill: rgb(38, 36, 36);"/>
  <path class="cls-3" d="M 730.573 366.514 C 729.946 366.514 729.438 366.006 729.438 365.379 L 729.438 359.564 C 729.438 358.689 730.384 358.143 731.141 358.58 C 731.493 358.783 731.709 359.158 731.709 359.564 L 731.709 365.379 C 731.709 366.006 731.201 366.514 730.573 366.514 Z" style="fill: rgb(38, 36, 36);"/>
  <path class="cls-3" d="M 727.615 357.741 L 721.8 357.741 C 720.925 357.741 720.379 356.794 720.816 356.037 C 721.019 355.685 721.394 355.469 721.8 355.469 L 727.615 355.469 C 728.489 355.469 729.036 356.416 728.598 357.173 C 728.395 357.524 728.021 357.741 727.615 357.741 Z" style="fill: rgb(38, 36, 36);"/>
  <path class="cls-3" d="M 339.325 95.023 C 338.698 95.023 338.189 94.515 338.189 93.887 L 338.189 85.937 C 338.189 85.062 339.136 84.516 339.893 84.953 C 340.245 85.156 340.461 85.531 340.461 85.937 L 340.461 93.887 C 340.461 94.515 339.953 95.023 339.325 95.023 Z" style="fill: rgb(38, 36, 36);"/>
  <path class="cls-3" d="M 351.353 99.078 L 343.403 99.078 C 342.528 99.078 341.982 98.131 342.419 97.374 C 342.622 97.023 342.997 96.806 343.403 96.806 L 351.353 96.806 C 352.227 96.806 352.774 97.753 352.337 98.51 C 352.134 98.861 351.759 99.078 351.353 99.078 Z" style="fill: rgb(38, 36, 36);"/>
  <path class="cls-3" d="M 339.325 111.106 C 338.698 111.106 338.189 110.597 338.189 109.97 L 338.189 102.019 C 338.189 101.145 339.136 100.599 339.893 101.036 C 340.245 101.239 340.461 101.614 340.461 102.019 L 340.461 109.97 C 340.461 110.597 339.953 111.106 339.325 111.106 Z" style="fill: rgb(38, 36, 36);"/>
  <path class="cls-3" d="M 335.271 99.078 L 327.32 99.078 C 326.446 99.078 325.899 98.131 326.336 97.374 C 326.539 97.023 326.914 96.806 327.32 96.806 L 335.271 96.806 C 336.145 96.806 336.691 97.753 336.254 98.51 C 336.051 98.861 335.676 99.078 335.271 99.078 Z" style="fill: rgb(38, 36, 36);"/>
  <path class="cls-3" d="M 661.421 59.206 C 660.794 59.206 660.286 58.698 660.286 58.07 L 660.286 51.494 C 660.286 50.62 661.232 50.073 661.989 50.511 C 662.341 50.713 662.557 51.088 662.557 51.494 L 662.557 58.07 C 662.557 58.698 662.049 59.206 661.421 59.206 Z" style="fill: rgb(38, 36, 36);"/>
  <path class="cls-3" d="M 671.331 62.545 L 664.755 62.545 C 663.881 62.545 663.334 61.599 663.771 60.842 C 663.974 60.49 664.349 60.274 664.755 60.274 L 671.331 60.274 C 672.205 60.274 672.752 61.22 672.315 61.977 C 672.112 62.329 671.737 62.545 671.331 62.545 Z" style="fill: rgb(38, 36, 36);"/>
  <path class="cls-3" d="M 661.421 72.461 C 660.794 72.461 660.286 71.952 660.286 71.325 L 660.286 64.754 C 660.286 63.88 661.232 63.334 661.989 63.771 C 662.341 63.974 662.557 64.349 662.557 64.754 L 662.557 71.331 C 662.554 71.956 662.046 72.461 661.421 72.461 Z" style="fill: rgb(38, 36, 36);"/>
  <path class="cls-3" d="M 658.077 62.545 L 651.5 62.545 C 650.626 62.545 650.08 61.599 650.517 60.842 C 650.72 60.49 651.095 60.274 651.5 60.274 L 658.077 60.274 C 658.951 60.274 659.497 61.22 659.06 61.977 C 658.857 62.329 658.482 62.545 658.077 62.545 Z" style="fill: rgb(38, 36, 36);"/>
  <circle class="cls-1" cx="126.065" cy="26.206" r="4.89" style="fill: rgb(136, 192, 194);"/>
  <circle class="cls-4" cx="651.086" cy="189.037" r="10.336" style="fill: rgb(222, 146, 68);"/>
  <circle class="cls-4" cx="93.991" cy="563.862" r="7.49" style="fill: rgb(222, 146, 68);"/>
  <circle class="cls-1" cx="115.434" cy="438.597" r="3.975" style="fill: rgb(136, 192, 194);"/>
  <path class="cls-5" d="M 358.832 522.253 C 357.958 522.251 357.413 521.304 357.852 520.547 C 357.951 520.376 358.093 520.234 358.264 520.135 L 389.833 501.792 L 366.55 488.367 C 365.795 487.929 365.795 486.84 366.55 486.402 L 400.998 466.384 C 401.773 465.978 402.696 466.564 402.659 467.437 C 402.644 467.809 402.448 468.149 402.134 468.349 L 369.384 487.384 L 392.667 500.809 C 393.422 501.247 393.422 502.336 392.667 502.774 L 359.406 522.082 C 359.233 522.189 359.035 522.248 358.832 522.253 Z" style="fill: rgb(39, 37, 37);"/>
  <path class="cls-5" d="M 286.335 506.539 C 285.461 506.53 284.924 505.578 285.369 504.826 C 285.466 504.661 285.603 504.524 285.767 504.427 L 326.15 480.672 L 285.432 457.167 C 284.678 456.729 284.678 455.64 285.432 455.202 L 331.477 428.437 C 332.252 428.032 333.175 428.617 333.138 429.491 C 333.123 429.862 332.927 430.203 332.613 430.402 L 288.266 456.201 L 328.961 479.695 C 329.716 480.133 329.716 481.222 328.961 481.66 L 286.898 506.403 C 286.725 506.496 286.531 506.543 286.335 506.539 Z" style="fill: rgb(39, 37, 37);"/>
  <path class="cls-5" d="M 283.36 516.443 C 277.164 516.443 272.308 513.717 272.308 510.236 C 272.308 506.755 277.164 504.029 283.36 504.029 C 289.555 504.029 294.411 506.755 294.411 510.236 C 294.411 513.717 289.555 516.443 283.36 516.443 Z M 283.36 506.306 C 278.186 506.306 274.58 508.379 274.58 510.242 C 274.58 512.105 278.186 514.177 283.36 514.177 C 288.533 514.177 292.139 512.105 292.139 510.242 C 292.139 508.379 288.533 506.306 283.36 506.306 Z" style="fill: rgb(39, 37, 37);"/>
  <path class="cls-5" d="M 300.482 403.354 L 268.742 403.354 C 267.868 403.354 267.321 402.407 267.759 401.65 C 267.961 401.298 268.336 401.082 268.742 401.082 L 300.476 401.082 C 301.35 401.08 301.899 402.025 301.464 402.783 C 301.262 403.135 300.887 403.353 300.482 403.354 Z" style="fill: rgb(39, 37, 37);"/>
  <path class="cls-5" d="M 258.827 408.425 C 252.631 408.425 247.776 405.699 247.776 402.218 C 247.776 398.737 252.625 396.005 258.827 396.005 C 265.028 396.005 269.878 398.731 269.878 402.212 C 269.878 405.693 265.034 408.425 258.827 408.425 Z M 258.827 398.288 C 253.653 398.288 250.047 400.361 250.047 402.223 C 250.047 404.086 253.653 406.159 258.827 406.159 C 264 406.159 267.606 404.086 267.606 402.223 C 267.606 400.361 264 398.277 258.827 398.277 L 258.827 398.288 Z" style="fill: rgb(39, 37, 37);"/>
  <path class="cls-5" d="M 640.483 522.253 C 640.284 522.252 640.088 522.2 639.915 522.099 L 606.654 502.791 C 605.9 502.354 605.9 501.264 606.654 500.826 L 629.938 487.401 L 597.187 468.366 C 596.413 467.96 596.367 466.868 597.105 466.4 C 597.477 466.164 597.952 466.165 598.323 466.401 L 632.771 486.419 C 633.526 486.857 633.526 487.946 632.771 488.384 L 609.488 501.809 L 641.057 520.152 C 641.8 520.612 641.767 521.704 640.996 522.118 C 640.838 522.203 640.663 522.249 640.483 522.253 Z" style="fill: rgb(39, 37, 37);"/>
  <path class="cls-5" d="M 725.871 513.729 C 725.672 513.728 725.476 513.676 725.303 513.575 L 670.349 481.643 C 669.594 481.205 669.594 480.116 670.349 479.678 L 711.049 456.201 L 666.691 430.425 C 665.917 430.02 665.871 428.928 666.61 428.459 C 666.981 428.224 667.456 428.224 667.827 428.46 L 713.877 455.225 C 714.632 455.662 714.632 456.752 713.877 457.19 L 673.182 480.683 L 726.439 511.633 C 727.179 512.1 727.135 513.192 726.361 513.599 C 726.21 513.679 726.042 513.723 725.871 513.729 Z" style="fill: rgb(39, 37, 37);"/>
  <path class="cls-5" d="M 728.847 523.633 C 722.651 523.633 717.796 520.907 717.796 517.426 C 717.796 513.945 722.651 511.219 728.847 511.219 C 735.043 511.219 739.898 513.945 739.898 517.426 C 739.898 520.907 735.043 523.633 728.847 523.633 Z M 728.847 513.496 C 723.674 513.496 720.067 515.569 720.067 517.431 C 720.067 519.294 723.674 521.367 728.847 521.367 C 734.021 521.367 737.627 519.294 737.627 517.431 C 737.627 515.569 734.021 513.496 728.847 513.496 Z" style="fill: rgb(39, 37, 37);"/>
  <path class="cls-5" d="M 597.738 287.067 C 596.864 287.065 596.319 286.118 596.758 285.361 C 596.857 285.19 596.999 285.048 597.17 284.948 L 629.921 265.913 L 606.637 252.488 C 605.883 252.05 605.883 250.961 606.637 250.523 L 639.898 231.215 C 640.636 230.746 641.605 231.251 641.642 232.125 C 641.661 232.564 641.424 232.975 641.034 233.179 L 609.465 251.522 L 632.749 264.947 C 633.503 265.385 633.503 266.474 632.749 266.912 L 598.3 286.93 C 598.128 287.023 597.934 287.07 597.738 287.067 Z" style="fill: rgb(39, 37, 37);"/>
  <path class="cls-5" d="M 656.776 343.651 C 655.902 343.65 655.357 342.702 655.795 341.946 C 655.895 341.775 656.037 341.632 656.208 341.533 L 693.763 319.703 L 653.068 296.21 C 652.313 295.772 652.313 294.682 653.068 294.245 L 707.988 262.307 C 708.726 261.838 709.695 262.343 709.733 263.217 C 709.751 263.656 709.514 264.067 709.124 264.271 L 655.867 295.222 L 696.562 318.715 C 697.317 319.153 697.317 320.242 696.562 320.68 L 657.31 343.492 C 657.148 343.589 656.964 343.643 656.776 343.651 Z" style="fill: rgb(39, 37, 37);"/>
  <path class="cls-5" d="M 711.56 264.658 C 705.365 264.658 700.509 261.932 700.509 258.451 C 700.509 254.969 705.365 252.244 711.56 252.244 C 717.756 252.244 722.612 254.969 722.612 258.451 C 722.612 261.932 717.756 264.658 711.56 264.658 Z M 711.56 254.521 C 706.387 254.521 702.781 256.594 702.781 258.456 C 702.781 260.319 706.387 262.392 711.56 262.392 C 716.734 262.392 720.34 260.319 720.34 258.456 C 720.34 256.594 716.734 254.521 711.56 254.521 Z" style="fill: rgb(39, 37, 37);"/>
  <path class="cls-5" d="M 344.425 336.121 C 344.225 336.121 344.03 336.068 343.857 335.968 L 305.581 313.723 C 304.827 313.286 304.827 312.196 305.581 311.758 L 339.126 292.393 L 321.823 282.24 C 321.035 281.861 320.951 280.772 321.673 280.278 C 322.061 280.013 322.572 280.014 322.959 280.28 L 341.921 291.417 C 342.675 291.854 342.675 292.944 341.921 293.382 L 308.387 312.747 L 344.964 334.003 C 345.721 334.441 345.719 335.534 344.962 335.97 C 344.798 336.064 344.614 336.116 344.425 336.121 Z" style="fill: rgb(39, 37, 37);"/>
  <path class="cls-5" d="M 319.954 282.592 C 314.611 282.592 310.579 280.32 310.579 277.242 C 310.579 274.164 314.611 271.893 319.954 271.893 C 325.298 271.893 329.33 274.164 329.33 277.242 C 329.33 280.32 325.298 282.592 319.954 282.592 Z M 319.954 274.164 C 315.888 274.164 312.85 275.788 312.85 277.242 C 312.85 278.696 315.888 280.32 319.954 280.32 C 324.021 280.32 327.059 278.696 327.059 277.242 C 327.059 275.788 324.021 274.164 319.954 274.164 Z" style="fill: rgb(39, 37, 37);"/>
  <path class="cls-5" d="M 730.573 403.354 L 698.84 403.354 C 697.965 403.354 697.419 402.407 697.856 401.65 C 698.059 401.298 698.434 401.082 698.84 401.082 L 730.573 401.082 C 731.448 401.082 731.994 402.028 731.557 402.786 C 731.354 403.137 730.979 403.354 730.573 403.354 Z" style="fill: rgb(39, 37, 37);"/>
  <path class="cls-5" d="M 740.489 408.425 C 734.293 408.425 729.438 405.699 729.438 402.218 C 729.438 398.737 734.293 396.011 740.489 396.011 C 746.685 396.011 751.54 398.737 751.54 402.218 C 751.54 405.699 746.685 408.425 740.489 408.425 Z M 740.489 398.288 C 735.315 398.288 731.709 400.361 731.709 402.223 C 731.709 404.086 735.315 406.159 740.489 406.159 C 745.662 406.159 749.268 404.086 749.268 402.223 C 749.268 400.361 745.662 398.277 740.489 398.277 L 740.489 398.288 Z" style="fill: rgb(39, 37, 37);"/>
  <path class="cls-5" d="M 499.056 568.371 C 498.429 568.371 497.92 567.863 497.92 567.235 L 497.92 527.125 C 497.92 526.251 498.867 525.705 499.624 526.142 C 499.975 526.345 500.192 526.72 500.192 527.125 L 500.192 567.235 C 500.192 567.863 499.683 568.371 499.056 568.371 Z" style="fill: rgb(39, 37, 37);"/>
  <path class="cls-5" d="M 499.056 583.744 C 492.86 583.744 488.005 581.018 488.005 577.537 C 488.005 574.056 492.86 571.33 499.056 571.33 C 505.252 571.33 510.107 574.056 510.107 577.537 C 510.107 581.018 505.252 583.744 499.056 583.744 Z M 499.056 573.607 C 493.882 573.607 490.276 575.68 490.276 577.543 C 490.276 579.405 493.882 581.478 499.056 581.478 C 504.229 581.478 507.835 579.405 507.835 577.543 C 507.835 575.68 504.229 573.607 499.056 573.607 Z" style="fill: rgb(39, 37, 37);"/>
  <g class="cls-6" transform="matrix(0.567891, 0, 0, 0.567891, -79.10791, -84.430046)" style="isolation: isolate;">
    <polygon class="cls-1" points="1346.48 811.9 1019.15 1002.13 689.69 811.91 1017.02 621.69 1346.48 811.9" style="fill: rgb(136, 192, 194);"/>
    <path class="cls-1" d="M1019.15,1004.12a2,2,0,0,1-1-.27L688.69,813.64a2,2,0,0,1,0-3.46L1016,620a2,2,0,0,1,2,0l329.46,190.21a2,2,0,0,1,0,3.46l-327.33,190.22A2,2,0,0,1,1019.15,1004.12ZM693.68,811.91l325.46,187.91,323.35-187.91L1017,624Z" style="fill: rgb(136, 192, 194);"/>
    <path class="cls-2" d="M943.26,878.2l-53.53-30.91a2.31,2.31,0,0,0-2.33,0l-68,39.52,4.65,2.68L888.56,852l48.89,28.22-32,18.57L872.92,917.7l4.65,2.69,30.25-17.58,35.45-20.58a2.35,2.35,0,0,0,1.15-2A2.32,2.32,0,0,0,943.26,878.2Z" style="fill: rgb(255, 255, 255);"/>
    <path class="cls-2" d="M1074.87,905.7L1020.94,937,1076.23,969l-4.65,2.7-55.29-31.92L963.86,970.2h0l-4.65-2.68L1015.13,935l58.56-34a2.34,2.34,0,0,1,2.34,0l58.76,33.93-4.63,2.69Z" style="fill: rgb(255, 255, 255);"/>
    <path class="cls-2" d="M1314.23,830.64l-4.63,2.7-96.54-55.73-82.88,48.18L1090,849.12l96.53,55.73-4.65,2.7-97.69-56.41a2.32,2.32,0,0,1-1.16-2,2.35,2.35,0,0,1,1.15-2l40.2-23.37L959.14,728.37l-206.39,120-4.65-2.69L958,723.66l0.06,0,0.24-.1,0.19-.07,0.23-.06,0.21,0h0.44l0.24,0,0.21,0a1.47,1.47,0,0,1,.21.07l0.22,0.1,0.07,0L1129,821.07l82.87-48.17a2.31,2.31,0,0,1,2.33,0Z" style="fill: rgb(255, 255, 255);"/>
    <path class="cls-2" d="M1158.43,703.32l-31.71,18.43-6.93-4-58.06-33.52,31.71-18.43-4.65-2.68-31.71,18.43-71.77-41.44-4.65,2.7,75.25,43.44,69.63,40.2a2.18,2.18,0,0,0,.57.23,2.09,2.09,0,0,0,.59.08l0.2,0a2.15,2.15,0,0,0,.4-0.06,1.34,1.34,0,0,0,.2-0.07,2.47,2.47,0,0,0,.36-0.16h0l35.2-20.46Z" style="fill: rgb(255, 255, 255);"/>
    <path class="cls-2" d="M893.48,728.32L863.41,711l-4.65,2.7,28.91,16.68-76.35,44.37L782.41,758l-4.63,2.69,32.38,18.7a2.3,2.3,0,0,0,1.16.31,2.38,2.38,0,0,0,1.18-.31l81-47.07a2.35,2.35,0,0,0,1.15-2A2.3,2.3,0,0,0,893.48,728.32Z" style="fill: rgb(255, 255, 255);"/>
    <polygon class="cls-2" points="1019.15 1002.13 1018.83 1047.15 689.37 856.94 689.69 811.91 1019.15 1002.13" style="fill: rgb(255, 255, 255);"/>
    <path class="cls-3" d="M1018.83,1049.15a2,2,0,0,1-1-.27L688.37,858.67a2,2,0,0,1-1-1.75l0.32-45a2,2,0,0,1,3-1.72l329.46,190.21a2,2,0,0,1,1,1.75l-0.32,45A2,2,0,0,1,1018.83,1049.15ZM691.38,855.79l325.47,187.91,0.29-40.43L691.67,815.36Z" style="fill: rgb(38, 36, 36);"/>
    <polygon class="cls-2" points="1018.51 1002.13 1018.83 1047.15 1346.8 856.94 1346.48 811.91 1018.51 1002.13" style="fill: rgb(255, 255, 255);"/>
    <path class="cls-3" d="M1018.83,1049.15a2,2,0,0,1-2-2l-0.32-45a2,2,0,0,1,1-1.74l328-190.21a2,2,0,0,1,3,1.72l0.32,45a2,2,0,0,1-1,1.74l-328,190.21A2,2,0,0,1,1018.83,1049.15Zm1.69-45.88,0.29,40.42,324-187.9-0.29-40.42Z" style="fill: rgb(38, 36, 36);"/>
  </g>
  <g class="cls-6" transform="matrix(0.567891, 0, 0, 0.567891, -79.10791, -84.430046)" style="isolation: isolate;">
    <polygon class="cls-2" points="1174.75 759.64 1018.65 850.35 861.53 759.64 1017.63 668.93 1174.75 759.64" style="fill: rgb(255, 255, 255);"/>
    <path class="cls-3" d="M1018.65,852.35a2,2,0,0,1-1-.27L860.54,761.38a2,2,0,0,1,0-3.46l156.1-90.71a2,2,0,0,1,2,0l157.11,90.71a2,2,0,0,1,0,3.46l-156.1,90.72A2,2,0,0,1,1018.65,852.35ZM865.53,759.64L1018.65,848l152.11-88.4-153.12-88.4Z" style="fill: rgb(38, 36, 36);"/>
  </g>
  <g class="cls-6" transform="matrix(0.567891, 0, 0, 0.567891, -79.10791, -84.430046)" style="isolation: isolate;">
    <polygon class="cls-4" points="1018.67 727.37 1018.5 875.05 837.04 770.29 837.22 622.6 1018.67 727.37" style="fill: rgb(222, 146, 68);"/>
    <polygon class="cls-2" points="857.89 679.3 919.45 714.83 919.45 773.02 857.82 737.44 857.89 679.3" style="fill: rgb(255, 255, 255);"/>
    <path class="cls-3" d="M919.45,775a2,2,0,0,1-1-.27l-61.63-35.58a2,2,0,0,1-1-1.74l0.08-58.14a2,2,0,0,1,3-1.73l61.56,35.53a2,2,0,0,1,1,1.73V773A2,2,0,0,1,919.45,775Zm-59.63-38.73,57.63,33.27V716l-57.56-33.23Z" style="fill: rgb(38, 36, 36);"/>
    <polygon class="cls-2" points="997.9 760.13 997.84 818.29 936.27 782.74 936.27 724.55 997.9 760.13" style="fill: rgb(255, 255, 255);"/>
    <path class="cls-3" d="M997.84,820.29a2,2,0,0,1-1-.27l-61.57-35.55a2,2,0,0,1-1-1.73V724.55a2,2,0,0,1,3-1.73L998.9,758.4a2,2,0,0,1,1,1.73l-0.06,58.16A2,2,0,0,1,997.84,820.29Zm-59.57-38.7,57.58,33.24,0.06-53.54L938.27,728v53.57Z" style="fill: rgb(38, 36, 36);"/>
    <polygon class="cls-2" points="1018.32 727.37 1018.5 875.05 1199.13 770.29 1198.95 622.6 1018.32 727.37" style="fill: rgb(255, 255, 255);"/>
    <path class="cls-3" d="M1018.5,877.05a2,2,0,0,1-2-2l-0.17-147.69a2,2,0,0,1,1-1.73L1198,620.87a2,2,0,0,1,3,1.73l0.17,147.69a2,2,0,0,1-1,1.73L1019.5,876.78A2,2,0,0,1,1018.5,877.05Zm1.83-148.54,0.17,143.07,176.63-102.44L1197,626.07Z" style="fill: rgb(38, 36, 36);"/>
    <polygon class="cls-1" points="1179.1 679.3 1117.55 714.83 1117.55 773.02 1179.18 737.44 1179.1 679.3" style="fill: rgb(136, 192, 194);"/>
    <polygon class="cls-1" points="1039.09 760.13 1039.15 818.29 1100.73 782.74 1100.73 724.55 1039.09 760.13" style="fill: rgb(136, 192, 194);"/>
    <polygon class="cls-2" points="1198.95 622.6 1018.67 727.37 837.22 622.6 1017.5 517.84 1198.95 622.6" style="fill: rgb(255, 255, 255);"/>
    <path class="cls-3" d="M1018.67,729.37a2,2,0,0,1-1-.27L836.22,624.34a2,2,0,0,1,0-3.46L1016.5,516.11a2,2,0,0,1,2,0L1200,620.87a2,2,0,0,1,0,3.46L1019.68,729.09A2,2,0,0,1,1018.67,729.37ZM841.21,622.6l177.46,102.46L1195,622.6,1017.5,520.15Z" style="fill: rgb(38, 36, 36);"/>
    <polygon class="cls-2" points="1111.68 622.6 1018.39 676.81 924.49 622.6 1017.78 568.39 1111.68 622.6" style="fill: rgb(255, 255, 255);"/>
    <path class="cls-3" d="M1018.39,678.81a2,2,0,0,1-1-.27l-93.9-54.21a2,2,0,0,1,0-3.46l93.29-54.21a2,2,0,0,1,2,0l93.9,54.21a2,2,0,0,1,0,3.46l-93.29,54.21A2,2,0,0,1,1018.39,678.81ZM928.48,622.6l89.9,51.91,89.3-51.9-89.9-51.91Z" style="fill: rgb(38, 36, 36);"/>
  </g>
  <g class="cls-6" transform="matrix(0.567891, 0, 0, 0.567891, -79.10791, -84.430046)" style="isolation: isolate;">
    <polygon class="cls-2" points="1018.65 667.46 1018.5 712.81 861.38 622.1 861.53 576.75 1018.65 667.46" style="fill: rgb(255, 255, 255);"/>
    <path class="cls-3" d="M1018.5,714.81a2,2,0,0,1-1-.27L860.38,623.84a2,2,0,0,1-1-1.74l0.15-45.35a2,2,0,0,1,3-1.73l157.11,90.71a2,2,0,0,1,1,1.74l-0.15,45.35A2,2,0,0,1,1018.5,714.81ZM863.39,621l153.12,88.4,0.14-40.75-153.12-88.4Z" style="fill: rgb(38, 36, 36);"/>
    <polygon class="cls-2" points="1018.35 667.46 1018.5 712.81 1175.61 622.1 1175.46 576.75 1018.35 667.46" style="fill: rgb(255, 255, 255);"/>
    <path class="cls-3" d="M1018.5,714.81a2,2,0,0,1-2-2l-0.15-45.35a2,2,0,0,1,1-1.74L1174.46,575a2,2,0,0,1,3,1.73l0.15,45.35a2,2,0,0,1-1,1.74L1019.5,714.55A2,2,0,0,1,1018.5,714.81Zm1.85-46.2,0.14,40.75L1173.61,621l-0.14-40.75Z" style="fill: rgb(38, 36, 36);"/>
    <polygon class="cls-2" points="1174.75 576.74 1018.65 667.46 861.53 576.75 1017.63 486.03 1174.75 576.74" style="fill: rgb(255, 255, 255);"/>
    <path class="cls-3" d="M1018.65,669.46a2,2,0,0,1-1-.27L860.54,578.48a2,2,0,0,1,0-3.46l156.1-90.72a2,2,0,0,1,2,0L1175.75,575a2,2,0,0,1,0,3.46l-156.1,90.72A2,2,0,0,1,1018.65,669.46ZM865.53,576.74l153.12,88.4,152.11-88.4-153.12-88.4Z" style="fill: rgb(38, 36, 36);"/>
  </g>
  <g class="cls-6" transform="matrix(0.567891, 0, 0, 0.567891, -79.10791, -84.430046)" style="isolation: isolate;">
    <polygon class="cls-4" points="1018.67 544.47 1018.5 692.16 837.04 587.4 837.22 439.71 1018.67 544.47" style="fill: rgb(222, 146, 68);"/>
    <polygon class="cls-2" points="857.89 496.4 919.45 531.93 919.45 590.12 857.82 554.55 857.89 496.4" style="fill: rgb(255, 255, 255);"/>
    <path class="cls-3" d="M919.45,592.12a2,2,0,0,1-1-.27l-61.63-35.58a2,2,0,0,1-1-1.73l0.08-58.14a2,2,0,0,1,3-1.73l61.56,35.53a2,2,0,0,1,1,1.73v58.19A2,2,0,0,1,919.45,592.12Zm-59.63-38.73,57.63,33.27V533.09l-57.56-33.23Z" style="fill: rgb(38, 36, 36);"/>
    <polygon class="cls-2" points="997.9 577.23 997.84 635.39 936.27 599.85 936.27 541.65 997.9 577.23" style="fill: rgb(255, 255, 255);"/>
    <path class="cls-3" d="M997.84,637.39a2,2,0,0,1-1-.27l-61.57-35.55a2,2,0,0,1-1-1.73V541.66a2,2,0,0,1,3-1.73L998.9,575.5a2,2,0,0,1,1,1.73l-0.06,58.16A2,2,0,0,1,997.84,637.39Zm-59.57-38.7,57.58,33.24,0.06-53.54-57.63-33.27v53.57Z" style="fill: rgb(38, 36, 36);"/>
    <polygon class="cls-2" points="1018.32 544.47 1018.5 692.16 1199.13 587.4 1198.95 439.71 1018.32 544.47" style="fill: rgb(255, 255, 255);"/>
    <path class="cls-3" d="M1018.5,694.16a2,2,0,0,1-2-2l-0.17-147.69a2,2,0,0,1,1-1.73L1198,438a2,2,0,0,1,3,1.73l0.17,147.69a2,2,0,0,1-1,1.73L1019.5,693.89A2,2,0,0,1,1018.5,694.16Zm1.83-148.54,0.17,143.07,176.63-102.44L1197,443.18Z" style="fill: rgb(38, 36, 36);"/>
    <polygon class="cls-1" points="1179.1 496.4 1117.55 531.93 1117.55 590.12 1179.18 554.55 1179.1 496.4" style="fill: rgb(136, 192, 194);"/>
    <polygon class="cls-1" points="1039.09 577.23 1039.15 635.39 1100.73 599.85 1100.73 541.65 1039.09 577.23" style="fill: rgb(136, 192, 194);"/>
    <polygon class="cls-2" points="1198.95 439.7 1018.67 544.47 837.22 439.71 1017.5 334.94 1198.95 439.7" style="fill: rgb(255, 255, 255);"/>
    <path class="cls-3" d="M1018.67,546.47a2,2,0,0,1-1-.27L836.22,441.44a2,2,0,0,1,0-3.46L1016.5,333.21a2,2,0,0,1,2,0L1200,438a2,2,0,0,1,0,3.46L1019.68,546.2A2,2,0,0,1,1018.67,546.47ZM841.21,439.7l177.46,102.46L1195,439.71,1017.5,337.25Z" style="fill: rgb(38, 36, 36);"/>
    <polygon class="cls-2" points="1111.68 439.7 1018.39 493.92 924.49 439.71 1017.78 385.49 1111.68 439.7" style="fill: rgb(255, 255, 255);"/>
    <path class="cls-3" d="M1018.39,495.92a2,2,0,0,1-1-.27l-93.9-54.21a2,2,0,0,1,0-3.46l93.29-54.22a2,2,0,0,1,2,0l93.9,54.21a2,2,0,0,1,0,3.46l-93.29,54.22A2,2,0,0,1,1018.39,495.92ZM928.48,439.7l89.9,51.91,89.3-51.9-89.9-51.91Z" style="fill: rgb(38, 36, 36);"/>
  </g>
  <g class="cls-6" transform="matrix(0.567891, 0, 0, 0.567891, -79.10791, -84.430046)" style="isolation: isolate;">
    <polygon class="cls-2" points="1018.65 484.56 1018.5 529.92 861.38 439.21 861.53 393.85 1018.65 484.56" style="fill: rgb(255, 255, 255);"/>
    <path class="cls-3" d="M1018.5,531.92a2,2,0,0,1-1-.27L860.38,440.94a2,2,0,0,1-1-1.74l0.15-45.35a2,2,0,0,1,3-1.73l157.11,90.71a2,2,0,0,1,1,1.74l-0.15,45.35A2,2,0,0,1,1018.5,531.92ZM863.39,438.06l153.12,88.4,0.14-40.74-153.12-88.4Z" style="fill: rgb(38, 36, 36);"/>
    <polygon class="cls-2" points="1018.35 484.56 1018.5 529.92 1175.61 439.21 1175.46 393.85 1018.35 484.56" style="fill: rgb(255, 255, 255);"/>
    <path class="cls-3" d="M1018.5,531.92a2,2,0,0,1-2-2l-0.15-45.35a2,2,0,0,1,1-1.74l157.11-90.71a2,2,0,0,1,3,1.73l0.15,45.35a2,2,0,0,1-1,1.74L1019.5,531.65A2,2,0,0,1,1018.5,531.92Zm1.85-46.2,0.14,40.74,153.12-88.4-0.14-40.74Z" style="fill: rgb(38, 36, 36);"/>
    <polygon class="cls-2" points="1174.75 393.85 1018.65 484.56 861.53 393.85 1017.63 303.14 1174.75 393.85" style="fill: rgb(255, 255, 255);"/>
    <path class="cls-3" d="M1018.65,486.56a2,2,0,0,1-1-.27L860.54,395.59a2,2,0,0,1,0-3.46l156.1-90.72a2,2,0,0,1,2,0l157.11,90.71a2,2,0,0,1,0,3.46l-156.1,90.72A2,2,0,0,1,1018.65,486.56ZM865.53,393.85l153.12,88.4,152.11-88.4-153.12-88.4Z" style="fill: rgb(38, 36, 36);"/>
  </g>
  <g class="cls-6" transform="matrix(0.567891, 0, 0, 0.567891, -79.10791, -84.430046)" style="isolation: isolate;">
    <polygon class="cls-4" points="1018.67 361.57 1018.5 509.26 837.04 404.5 837.22 256.81 1018.67 361.57" style="fill: rgb(222, 146, 68);"/>
    <polygon class="cls-2" points="857.89 313.51 919.45 349.04 919.45 407.23 857.82 371.65 857.89 313.51" style="fill: rgb(255, 255, 255);"/>
    <path class="cls-3" d="M919.45,409.23a2,2,0,0,1-1-.27l-61.63-35.58a2,2,0,0,1-1-1.73l0.08-58.14a2,2,0,0,1,3-1.73l61.56,35.53a2,2,0,0,1,1,1.73v58.19A2,2,0,0,1,919.45,409.23ZM859.82,370.5l57.63,33.27V350.19L859.89,317Z" style="fill: rgb(38, 36, 36);"/>
    <polygon class="cls-2" points="997.9 394.34 997.84 452.5 936.27 416.95 936.27 358.76 997.9 394.34" style="fill: rgb(255, 255, 255);"/>
    <path class="cls-3" d="M997.84,454.5a2,2,0,0,1-1-.27l-61.57-35.55a2,2,0,0,1-1-1.73V358.76a2,2,0,0,1,3-1.73l61.63,35.58a2,2,0,0,1,1,1.73l-0.06,58.16A2,2,0,0,1,997.84,454.5Zm-59.57-38.7L995.84,449l0.06-53.54-57.63-33.27v53.57Z" style="fill: rgb(38, 36, 36);"/>
    <polygon class="cls-2" points="1018.32 361.57 1018.5 509.26 1199.13 404.5 1198.95 256.81 1018.32 361.57" style="fill: rgb(255, 255, 255);"/>
    <path class="cls-3" d="M1018.5,511.26a2,2,0,0,1-2-2l-0.17-147.69a2,2,0,0,1,1-1.73L1198,255.08a2,2,0,0,1,3,1.73l0.17,147.69a2,2,0,0,1-1,1.73L1019.5,511A2,2,0,0,1,1018.5,511.26Zm1.83-148.54,0.17,143.07,176.63-102.44L1197,260.28Z" style="fill: rgb(38, 36, 36);"/>
    <polygon class="cls-1" points="1179.1 313.51 1117.55 349.04 1117.55 407.23 1179.18 371.65 1179.1 313.51" style="fill: rgb(136, 192, 194);"/>
    <polygon class="cls-1" points="1039.09 394.34 1039.15 452.5 1100.73 416.95 1100.73 358.76 1039.09 394.34" style="fill: rgb(136, 192, 194);"/>
    <polygon class="cls-2" points="1198.95 256.81 1018.67 361.57 837.22 256.81 1017.5 152.04 1198.95 256.81" style="fill: rgb(255, 255, 255);"/>
    <path class="cls-3" d="M1018.67,363.57a2,2,0,0,1-1-.27L836.22,258.55a2,2,0,0,1,0-3.46L1016.5,150.32a2,2,0,0,1,2,0L1200,255.07a2,2,0,0,1,0,3.46L1019.68,363.3A2,2,0,0,1,1018.67,363.57ZM841.21,256.81l177.46,102.46L1195,256.81,1017.5,154.36Z" style="fill: rgb(38, 36, 36);"/>
    <polygon class="cls-1" points="1111.68 256.81 1018.39 311.02 924.49 256.81 1017.78 202.6 1111.68 256.81" style="fill: rgb(136, 192, 194);"/>
  </g>
</svg>