<?xml version="1.0" encoding="utf-8"?>
<svg viewBox="-22.393 35.429 551.096 464.571" xmlns="http://www.w3.org/2000/svg">
  <path style="fill: rgb(57, 80, 143);" d="M 327.141 131.292 C 324.137 132.369 286.243 224.696 286.243 224.637 C 286.243 224.578 285.73 227.173 296.007 229.338 C 296.007 229.338 337.673 143.046 337.488 139.925 C 337.303 136.804 329.858 130.318 327.141 131.292 Z">
    <title>Backof book</title>
  </path>
  <path class="st0" d="M 225.759 63.539 C 225.759 63.539 225.754 63.264 225.699 62.769 C 225.311 59.265 222.495 44.687 202.282 37.405 C 179.206 29.094 160.54 48.608 159.097 66.065 C 157.908 80.436 145.428 79.275 129.542 78.411 C 113.655 77.547 94.395 90.473 99.022 112.764 C 103.648 135.055 165.548 169.662 178.987 152.375 C 192.428 135.089 186.919 113.252 196.046 98.503 L 225.759 63.539 Z" style="fill: rgb(64, 75, 124);"/>
  <path class="st1" d="M 173.208 174.538 C 182.185 201.857 199.529 249.92 216.774 251.667 C 229.447 252.955 262.619 227.849 279.332 214.433 C 285.389 209.58 289.285 206.249 289.285 206.249 C 286.849 196.497 275.563 186.317 275.563 186.317 L 263.401 189.893 L 229.427 199.9 C 223.933 171.551 208.307 123.67 199.025 114.627 C 199.025 114.627 164.218 147.217 173.208 174.538 Z" style="fill: rgb(246, 141, 136);"/>
  <path class="st2" d="M 228.89 202.871 C 228.89 202.871 221.102 225.128 218.286 233.973" style="fill: none; stroke: rgb(236, 189, 187); stroke-linecap: round; stroke-linejoin: round; stroke-miterlimit: 10;"/>
  <path class="st3" d="M 263.401 189.893 L 279.332 214.433 C 285.389 209.58 289.285 206.249 289.285 206.249 C 286.849 196.497 275.563 186.317 275.563 186.317 L 263.401 189.893 Z" style="fill: rgb(154, 179, 218);"/>
  <path class="st3" d="M 16.164 330.218 L -11.215 493.025 C -11.829 496.675 -9.016 500 -5.316 500 C -2.657 500 -0.318 498.246 0.427 495.696 L 48.795 330.218 L 16.164 330.218 Z" style="fill: rgb(154, 179, 218);"/>
  <path class="st0" d="M 74.776 330.218 L 47.396 493.025 C 46.784 496.675 49.596 500 53.297 500 C 55.954 500 58.293 498.246 59.039 495.696 L 107.406 330.218 L 74.776 330.218 Z" style="fill: rgb(64, 75, 124);"/>
  <path class="st0" d="M 209.001 330.218 L 236.38 493.025 C 236.993 496.675 234.18 500 230.48 500 C 227.823 500 225.484 498.246 224.738 495.696 L 176.371 330.218 L 209.001 330.218 Z" style="fill: rgb(64, 75, 124);"/>
  <path class="st3" d="M 150.389 330.218 L 177.768 493.025 C 178.382 496.675 175.569 500 171.869 500 C 169.211 500 166.872 498.246 166.126 495.696 L 117.758 330.218 L 150.389 330.218 Z" style="fill: rgb(154, 179, 218);"/>
  <path class="st0" d="M 171.5 320.021 L 1.208 320.021 L 1.208 115.762 L 111.179 115.762 C 119.526 115.762 126.292 122.529 126.292 130.877 L 126.292 279.338 C 126.292 295.95 137.366 310.525 153.37 314.977 L 171.5 320.021 Z" style="fill: rgb(64, 75, 124);"/>
  <path class="st4" d="M 17.451 131.865 C 17.095 114.229 -7.36 109.441 -13.976 125.794 C -26.688 157.212 -21.226 214.056 -21.226 256.119 C -21.226 317.301 -8.989 347.213 64.43 347.213 C 64.43 347.213 130.371 347.213 157.564 347.213 C 184.756 347.213 182.037 313.223 158.923 313.223 C 135.81 313.223 64.43 313.223 47.435 313.223 C 30.44 313.223 19.563 298.947 19.563 264.277 C 19.563 240.209 18.252 171.584 17.451 131.865 Z" style="fill: rgb(107, 129, 190);"/>
  <path class="st0" d="M 214.846 347.213 L 119.471 347.213 C 112.064 347.213 106.06 341.209 106.06 333.802 L 106.06 326.634 C 106.06 319.227 112.064 313.223 119.471 313.223 L 214.846 313.223 C 222.253 313.223 228.259 319.227 228.259 326.634 L 228.259 333.802 C 228.259 341.209 222.253 347.213 214.846 347.213 Z" style="fill: rgb(64, 75, 124);"/>
  <path class="st0" d="M 215.187 419.273 L 245.909 419.273 C 245.909 419.273 245.909 453.943 274.495 472.637 C 292.795 484.606 287.171 500 287.171 500 L 243.19 500 L 224.29 478.926 L 223.476 500 L 209.855 500 C 208.597 467.199 215.187 419.273 215.187 419.273 Z" style="fill: rgb(64, 75, 124);"/>
  <polyline class="st5" points="235.294 491.195 224.29 478.926 223.834 490.737" style="fill: none; stroke: rgb(222, 235, 255); stroke-linecap: round; stroke-linejoin: round; stroke-miterlimit: 10;"/>
  <path class="st5" style="fill: none; stroke: rgb(222, 235, 255); stroke-linecap: round; stroke-linejoin: round; stroke-miterlimit: 10;"/>
  <path class="st5" d="M 212.015 447.698 C 213.514 431.434 215.187 419.273 215.187 419.273 L 245.909 419.273" style="fill: none; stroke: rgb(222, 235, 255); stroke-linecap: round; stroke-linejoin: round; stroke-miterlimit: 10;"/>
  <path class="st3" d="M 153.418 309.383 C 159.283 311.714 167.547 312.932 175.589 313.416 L 206.934 313.502 L 186.994 442.697 L 267.127 442.697 C 267.127 442.697 274.167 306.793 276.742 287.168 C 279.332 267.572 266.158 255.427 242.426 253.109 C 233.029 252.194 206.058 251.021 191.868 249.949 L 169.331 210.422 L 109.647 229.794 C 109.647 229.794 107.044 295.208 153.418 309.383 Z" style="fill: rgb(154, 179, 218);"/>
  <polyline class="st5" points="128.276 275.684 228.303 282.992 208.233 427.044" style="fill: none; stroke: rgb(222, 235, 255); stroke-linecap: round; stroke-linejoin: round; stroke-miterlimit: 10;"/>
  <line class="st5" x1="258.06" y1="430.065" x2="194.113" y2="430.065" style="fill: none; stroke: rgb(222, 235, 255); stroke-linecap: round; stroke-linejoin: round; stroke-miterlimit: 10;"/>
  <path class="st5" d="M 123.798 225.894 L 131.099 250.985 C 132.167 254.653 131.228 258.611 128.628 261.409 L 125.951 264.291" style="fill: none; stroke: rgb(222, 235, 255); stroke-linecap: round; stroke-linejoin: round; stroke-miterlimit: 10;"/>
  <path class="st0" d="M 115.557 419.273 L 144.788 419.273 C 144.788 419.273 146.148 461.081 160.084 472.637 C 174.02 484.195 169.601 500 169.601 500 L 131.064 500 L 125.414 478.926 L 124.803 500 L 111.553 500 C 110.61 467.199 115.557 419.273 115.557 419.273 Z" style="fill: rgb(64, 75, 124);"/>
  <path class="st3" d="M 83.091 309.383 C 88.955 311.714 97.22 312.932 105.263 313.416 L 124.254 313.502 L 104.314 442.697 L 184.447 442.697 C 184.447 442.697 191.488 306.793 194.063 287.168 C 196.653 267.572 183.477 255.427 159.747 253.109 C 150.35 252.194 135.731 251.021 121.541 249.949 L 114.775 229.794 L 45.412 231.488 C 45.412 231.488 36.716 295.208 83.091 309.383 Z" style="fill: rgb(154, 179, 218);"/>
  <path class="st5" d="M 192.149 309.807 C 192.899 299.123 193.564 290.967 194.063 287.168 C 196.652 267.572 183.478 255.427 159.747 253.11" style="fill: none; stroke: rgb(222, 235, 255); stroke-linecap: round; stroke-linejoin: round; stroke-miterlimit: 10;"/>
  <path class="st5" d="M 81.048 227.163 C 81.048 227.163 88.511 250.106 71.43 255.97" style="fill: none; stroke: rgb(222, 235, 255); stroke-linecap: round; stroke-linejoin: round; stroke-miterlimit: 10;"/>
  <path class="st5" d="M 119.875 250.616 C 119.875 250.616 98.782 252.655 90.209 259.284" style="fill: none; stroke: rgb(222, 235, 255); stroke-linecap: round; stroke-linejoin: round; stroke-miterlimit: 10;"/>
  <polyline class="st5" points="65.831 227.163 75.263 275.684 145.623 282.992 125.554 427.044" style="fill: none; stroke: rgb(222, 235, 255); stroke-linecap: round; stroke-linejoin: round; stroke-miterlimit: 10;"/>
  <line class="st5" x1="175.38" y1="430.065" x2="111.434" y2="430.065" style="fill: none; stroke: rgb(222, 235, 255); stroke-linecap: round; stroke-linejoin: round; stroke-miterlimit: 10;"/>
  <line class="st5" x1="150.635" y1="442.698" x2="169.304" y2="442.698" style="fill: none; stroke: rgb(222, 235, 255); stroke-linecap: round; stroke-linejoin: round; stroke-miterlimit: 10;"/>
  <path class="st1" d="M 39.293 239.562 C 62.891 124.932 116.839 97.923 116.839 97.923 C 116.839 97.923 150.183 84.814 166.852 90.705 C 197.828 101.653 200.93 119.584 200.93 119.584 C 200.93 119.584 208.432 146.684 203.819 157.543 C 199.205 168.402 176.262 196.564 176.262 196.564 C 176.656 213.138 183.288 230.708 192.448 248.682 C 192.448 248.682 113.525 272.997 39.293 239.562 Z" style="fill: rgb(246, 141, 136);"/>
  <g transform="matrix(1.128787, 0, 0, 1.128787, -77.595108, -97.820145)">
    <path class="st2" d="M199.7612,184.3077545c2.2942963,3.3930359,6.3153076,7.3137817,13.222168,9.4246368 c13.813736,4.2216949,20.7122803-1.5216522,20.7122803-1.5216522l6.2456055-9.3683472" style="fill: none; stroke: rgb(236, 189, 187); stroke-linecap: round; stroke-linejoin: round; stroke-miterlimit: 10;"/>
    <path class="st1" d="M230.3718414,165.0716858c-17.4558716-9.1051788-28.4967499-6.4224701-31.4360962-1.9580841 s3.5793915,18.6598053,23.4008026,23.2630005C242.1579437,190.9797821,249.3347473,174.9629517,230.3718414,165.0716858z" style="fill: rgb(246, 141, 136);"/>
    <path class="st2" d="M198.9357452,163.1136017c-2.9393463,4.464386,3.5793915,18.6598053,23.4008026,23.2630005 c10.1886139,2.3661346,17.0363159-0.7159119,18.7102509-5.6137238" style="fill: none; stroke: rgb(236, 189, 187); stroke-linecap: round; stroke-linejoin: round; stroke-miterlimit: 10;"/>
  </g>
  <path class="st2" d="M 48.794 233.974 C 48.794 233.974 116.061 259.284 183.328 241.566" style="fill: none; stroke: rgb(236, 189, 187); stroke-linecap: round; stroke-linejoin: round; stroke-miterlimit: 10;"/>
  <path class="st2" d="M 200.93 119.584 C 200.93 119.584 208.432 146.684 203.819 157.543 C 200.14 166.2 183.934 186.031 178.49 193.522" style="fill: none; stroke: rgb(236, 189, 187); stroke-linecap: round; stroke-linejoin: round; stroke-miterlimit: 10;"/>
  <path class="st8" d="M 188.476 98.738 L 177.933 103.547 C 177.323 103.558 176.747 103.535 176.172 103.501 C 167.006 103.061 162.13 98.512 160.233 96.221 L 179.569 84.967 L 186.184 81.129 L 188.476 98.738 Z" style="fill: rgb(156, 94, 52);"/>
  <path class="st0" d="M 188.476 98.738 L 177.933 103.547 C 177.323 103.558 176.747 103.535 176.172 103.501 C 172.831 96.503 175.935 89.753 179.569 84.967 L 186.184 81.129 L 188.476 98.738 Z" style="fill: rgb(111, 65, 34);"/>
  <path class="st8" d="M 204.213 57.882 C 188.882 60.51 168.537 97.832 190.929 107.628 C 213.321 117.425 235.447 52.529 204.213 57.882 Z" style="fill: rgb(156, 94, 52);"/>
  <path class="st0" d="M 178.593 84.826 C 178.593 84.826 186.879 75.11 194.875 70.051 C 194.875 70.051 205.657 83.458 218.927 83.225 C 232.196 82.992 246.51 62.572 237.956 54.682 C 229.402 46.792 220.543 55.016 220.543 55.016 C 220.543 55.016 181.443 27.63 178.593 84.826 Z" style="fill: rgb(64, 75, 124);"/>
  <g transform="matrix(1.128787, 0, 0, 1.128787, -77.595108, -97.820145)">
    <path class="st8" d="M232.3025055,160.1812744c0,0,1.1276245-13.9829254-10.0470123-14.919342 c-11.1746368-0.9364319-8.4060059,21.8459167,8.5764008,20.3564606L232.3025055,160.1812744z" style="fill: rgb(156, 94, 52);"/>
  </g>
  <path class="st8" d="M 203.934 193.708 L 214.091 188.524 L 216.255 167.605 C 216.66 163.689 219.722 160.574 223.631 160.101 L 259.027 155.821 C 260.853 155.601 262.461 157.026 262.461 158.865 C 262.461 160.306 261.458 161.552 260.051 161.86 L 244.88 165.183 L 247.11 182.824 C 247.482 185.761 245.879 188.592 243.17 189.785 L 238.108 192.015 L 237.854 193.007 C 236.609 197.877 232.456 201.45 227.455 201.955 L 225.312 202.172 L 214.62 211.8 L 203.934 193.708 Z" style="fill: rgb(156, 94, 52);"/>
  <g transform="matrix(1.128787, 0, 0, 1.128787, -77.595108, -97.820145)">
    <path class="st1" d="M150.8448181,230.0065308c7.8881836,24.2230225,32.6223755,83.0092773,47.9004211,84.5570984 c11.2276306,1.1417542,40.6147614-21.0999146,55.4204254-32.9856262 c5.3655548-4.2990112,8.8179474-7.2504883,8.8179474-7.2504883 c-2.1581726-8.6389465-12.1569824-17.6574402-12.1569824-17.6574402l-10.7740326,3.1680603l-30.0975952,8.8647766 c-4.8674774-25.1142426-25.6851044-88.4780579-33.9082184-96.4896088 C176.0467834,172.2133026,134.9650726,181.242981,150.8448181,230.0065308z" style="fill: rgb(246, 141, 136);"/>
    <path class="st2" d="M238.1378784,260.4020691l-28.1828766,8.3008423 c-4.0895691-21.1005402-19.438446-69.2016907-29.1170807-88.7891541" style="fill: none; stroke: rgb(236, 189, 187); stroke-linecap: round; stroke-linejoin: round; stroke-miterlimit: 10;"/>
    <path class="st2" d="M150.4812164,192.9886475c-3.8632355,8.5892944-5.0046082,20.5331879,0.3636017,37.0178833 c7.8881836,24.2230225,32.6223755,83.0092773,47.9004211,84.5570984 c10.5923157,1.0771484,37.347168-18.6577148,52.7729645-30.8746033" style="fill: none; stroke: rgb(236, 189, 187); stroke-linecap: round; stroke-linejoin: round; stroke-miterlimit: 10;"/>
    <path class="st2" d="M209.4786835,271.3352661c0,0-6.8992767,19.7172546-9.3943329,27.5541077" style="fill: none; stroke: rgb(236, 189, 187); stroke-linecap: round; stroke-linejoin: round; stroke-miterlimit: 10;"/>
    <path class="st3" d="M240.052597,259.8381348l14.1130676,21.7398682 c5.3655548-4.2990112,8.8179474-7.2504883,8.8179474-7.2504883 c-2.1581726-8.6389465-12.1569824-17.6574402-12.1569824-17.6574402L240.052597,259.8381348z" style="fill: rgb(154, 179, 218);"/>
  </g>
  <polygon class="st4" points="286.723 219.606 328.067 131.184 268.455 131.292 228.179 219.606" style="fill: rgb(107, 129, 190);"/>
  <polygon class="st3" points="236.176 227.956 229.627 221.408 269.803 133.094 276.352 139.643" style="fill: rgb(154, 179, 218);"/>
  <polygon class="st4" points="295.387 227.956 336.122 139.643 276.911 139.643 235.121 229.202" style="fill: rgb(107, 129, 190);"/>
  <polygon class="st11" points="328.203 133.094 334.752 139.643 276.352 139.643 269.803 133.094" style="fill: rgb(222, 235, 255);"/>
  <path class="st8" d="M 314.98 167.418 C 302.708 166.134 293.991 172.841 300.026 175.907 C 300.026 175.907 291.778 177.766 296.405 184.405 C 296.405 184.405 288.401 187.623 293.309 193.86 C 293.309 193.86 286.95 199.487 295.399 202.407 C 303.848 205.326 314.108 204.404 313.303 196.818 C 313.303 196.818 323.161 194.664 320.143 186.215 C 320.143 186.215 325.575 184.405 323.764 177.565 C 323.764 177.565 335.592 169.575 314.98 167.418 Z" style="fill: rgb(156, 94, 52);"/>
  <g transform="matrix(1.128787, 0, 0, 1.128787, -77.595108, -97.820145)">
    <title>finger lines</title>
    <line class="st10" x1="272.509" y1="234.622" x2="284.277" y2="232.996" style="stroke-linecap: round; stroke-linejoin: round; stroke-miterlimit: 10; fill: rgb(105, 54, 17); stroke: rgb(78, 39, 11);"/>
    <line class="st10" x1="273.035" y1="241.43" x2="284.72" y2="239.383" style="stroke-linecap: round; stroke-linejoin: round; stroke-miterlimit: 10; fill: rgb(105, 54, 17); stroke: rgb(78, 39, 11);"/>
    <line class="st10" x1="274.341" y1="247.269" x2="285.651" y2="245.082" style="stroke-linecap: round; stroke-linejoin: round; stroke-miterlimit: 10; fill: rgb(105, 54, 17); stroke: rgb(78, 39, 11);"/>
    <path class="st10" d="M336.735321,242.2285156c0,0,11.5247498-2.0244598,17.2277222,1.5399017" style="stroke-linecap: round; stroke-linejoin: round; stroke-miterlimit: 10; fill: none; stroke: rgb(78, 39, 11);"/>
    <path class="st10" d="M333.8838196,250.4218903c0,0,11.7623901-0.9697418,16.3960571,1.2973022" style="stroke-linecap: round; stroke-linejoin: round; stroke-miterlimit: 10; fill: none; stroke: rgb(78, 39, 11);"/>
    <path class="st10" d="M330.7947083,258.7387085c0,0,9.1485291-1.1881104,13.782196,1.6633606" style="stroke-linecap: round; stroke-linejoin: round; stroke-miterlimit: 10; fill: none; stroke: rgb(78, 39, 11);"/>
  </g>
  <path class="st4" d="M 443.992 408.265 C 443.992 408.265 425.923 305.243 525.472 283.828 C 525.472 283.828 544.248 383.377 443.992 408.265 Z" style="fill: rgb(107, 129, 190);"/>
  <line class="st12" x1="451.193" y1="397.268" x2="518.271" y2="294.825" style="fill: none; stroke: rgb(154, 179, 218); stroke-linecap: round; stroke-linejoin: round; stroke-miterlimit: 10;"/>
  <path class="st3" d="M 446.34 403.725 C 446.34 403.725 452.212 318.432 370.952 300.703 C 370.952 300.703 364.228 383.12 446.34 403.725 Z" style="fill: rgb(154, 179, 218);"/>
  <line class="st5" x1="439.678" y1="394.62" x2="377.614" y2="309.807" style="fill: none; stroke: rgb(222, 235, 255); stroke-linecap: round; stroke-linejoin: round; stroke-miterlimit: 10;"/>
  <path class="st1" d="M 508.265 455.503 C 506.73 462.919 504.62 470.437 501.741 477.706 C 498.626 485.597 494.618 493.182 489.471 500 L 408.199 500 C 394.45 481.781 388.806 458.066 386.718 437.815 C 384.291 414.257 386.673 395.395 386.673 395.395 L 511.008 395.395 C 511.008 395.395 514.688 424.462 508.265 455.503 Z" style="fill: rgb(246, 141, 136);"/>
  <path class="st8" d="M 508.265 455.503 C 506.73 462.919 504.62 470.437 501.741 477.706 C 495.612 468.812 483.466 460.289 459.513 462.987 C 427.478 466.588 401.087 455.481 386.718 437.815 C 384.291 414.257 386.673 395.395 386.673 395.395 L 414.317 395.395 C 420.909 408.975 436.509 428.706 471.772 430.794 C 493.975 432.115 504.078 443.041 508.265 455.503 Z" style="fill: rgb(236, 189, 187);"/>
  <path class="st8" d="M 465.146 476.662 C 438.926 480.079 446.331 498.82 470.432 493.024 C 491.623 487.928 479.551 474.784 465.146 476.662 Z" style="fill: rgb(236, 189, 187);"/>
</svg>