<?xml version="1.0" encoding="utf-8"?>
<svg viewBox="-2.192 0 502.192 536.384" xmlns="http://www.w3.org/2000/svg">
  <path style="fill: rgb(57, 80, 143);" d="M 307.463 171.164 C 304.801 172.118 271.231 253.911 271.231 253.859 C 271.231 253.807 270.776 256.106 279.881 258.024 C 279.881 258.024 316.793 181.577 316.629 178.812 C 316.465 176.047 309.87 170.301 307.463 171.164 Z">
    <title>Backof book</title>
  </path>
  <path class="st0" d="M 217.648 111.141 C 217.648 111.141 217.643 110.898 217.594 110.459 C 217.251 107.355 214.756 94.44 196.849 87.989 C 176.406 80.626 159.87 97.914 158.591 113.379 C 157.538 126.11 146.482 125.082 132.408 124.316 C 118.334 123.551 101.271 135.002 105.37 154.75 C 109.469 174.498 164.306 205.156 176.212 189.842 C 188.119 174.528 183.239 155.182 191.325 142.116 L 217.648 111.141 Z" style="fill: rgb(64, 75, 124);"/>
  <path class="st1" d="M 171.092 209.476 C 179.045 233.678 194.41 276.257 209.688 277.805 C 220.915 278.946 250.302 256.705 265.108 244.819 C 270.474 240.52 273.926 237.569 273.926 237.569 C 271.768 228.93 261.769 219.911 261.769 219.911 L 250.995 223.079 L 220.897 231.944 C 216.03 206.83 202.187 164.412 193.964 156.4 C 193.964 156.4 163.128 185.272 171.092 209.476 Z" style="fill: rgb(246, 141, 136);"/>
  <path class="st2" d="M 220.421 234.576 C 220.421 234.576 213.522 254.294 211.027 262.13" style="fill: none; stroke: rgb(236, 189, 187); stroke-linecap: round; stroke-linejoin: round; stroke-miterlimit: 10;"/>
  <path class="st3" d="M 250.995 223.079 L 265.108 244.819 C 270.474 240.52 273.926 237.569 273.926 237.569 C 271.768 228.93 261.769 219.911 261.769 219.911 L 250.995 223.079 Z" style="fill: rgb(154, 179, 218);"/>
  <path class="st3" d="M 31.966 347.394 L 7.711 491.626 C 7.167 494.859 9.659 497.805 12.937 497.805 L 12.937 497.805 C 15.292 497.805 17.364 496.251 18.024 493.992 L 60.874 347.394 L 31.966 347.394 Z" style="fill: rgb(154, 179, 218);"/>
  <path class="st0" d="M 83.891 347.394 L 59.635 491.626 C 59.092 494.859 61.584 497.805 64.862 497.805 L 64.862 497.805 C 67.216 497.805 69.288 496.251 69.949 493.992 L 112.798 347.394 L 83.891 347.394 Z" style="fill: rgb(64, 75, 124);"/>
  <path class="st0" d="M 202.802 347.394 L 227.057 491.626 C 227.6 494.859 225.108 497.805 221.83 497.805 L 221.83 497.805 C 219.476 497.805 217.404 496.251 216.743 493.992 L 173.894 347.394 L 202.802 347.394 Z" style="fill: rgb(64, 75, 124);"/>
  <path class="st3" d="M 150.877 347.394 L 175.132 491.626 C 175.676 494.859 173.184 497.805 169.906 497.805 L 169.906 497.805 C 167.551 497.805 165.479 496.251 164.818 493.992 L 121.969 347.394 L 150.877 347.394 Z" style="fill: rgb(154, 179, 218);"/>
  <path class="st0" d="M 169.579 338.36 L 18.716 338.36 L 18.716 157.406 L 116.14 157.406 C 123.535 157.406 129.529 163.401 129.529 170.796 L 129.529 302.319 C 129.529 317.036 139.34 329.948 153.518 333.892 L 169.579 338.36 Z" style="fill: rgb(64, 75, 124);"/>
  <path class="st4" d="M 33.106 171.672 C 32.791 156.048 11.126 151.806 5.265 166.293 C -5.997 194.127 -1.158 244.485 -1.158 281.749 C -1.158 335.951 9.683 362.45 74.725 362.45 C 74.725 362.45 133.143 362.45 157.233 362.45 C 181.323 362.45 178.914 332.338 158.437 332.338 C 137.961 332.338 74.725 332.338 59.669 332.338 C 44.613 332.338 34.977 319.691 34.977 288.976 C 34.977 267.654 33.816 206.859 33.106 171.672 Z" style="fill: rgb(107, 129, 190);"/>
  <path class="st0" d="M 207.98 362.45 L 123.486 362.45 C 116.924 362.45 111.605 357.131 111.605 350.569 L 111.605 344.219 C 111.605 337.657 116.924 332.338 123.486 332.338 L 207.98 332.338 C 214.542 332.338 219.862 337.657 219.862 344.219 L 219.862 350.569 C 219.862 357.131 214.542 362.45 207.98 362.45 Z" style="fill: rgb(64, 75, 124);"/>
  <path class="st0" d="M 208.282 426.288 L 235.499 426.288 C 235.499 426.288 235.499 457.003 260.823 473.564 C 277.035 484.167 272.053 497.805 272.053 497.805 L 233.09 497.805 L 216.346 479.135 L 215.625 497.805 L 203.558 497.805 C 202.444 468.746 208.282 426.288 208.282 426.288 Z" style="fill: rgb(64, 75, 124);"/>
  <polyline class="st5" points="226.095 490.005 216.346 479.135 215.942 489.599" style="fill: none; stroke: rgb(222, 235, 255); stroke-linecap: round; stroke-linejoin: round; stroke-miterlimit: 10;"/>
  <path class="st5" style="fill: none; stroke: rgb(222, 235, 255); stroke-linecap: round; stroke-linejoin: round; stroke-miterlimit: 10;"/>
  <path class="st5" d="M 205.472 451.47 C 206.8 437.062 208.282 426.288 208.282 426.288 L 235.499 426.288" style="fill: none; stroke: rgb(222, 235, 255); stroke-linecap: round; stroke-linejoin: round; stroke-miterlimit: 10;"/>
  <path class="st3" d="M 153.56 328.936 C 158.756 331.001 166.077 332.08 173.202 332.509 L 200.97 332.585 L 183.305 447.04 L 254.296 447.04 C 254.296 447.04 260.533 326.642 262.814 309.256 C 265.108 291.895 253.437 281.136 232.413 279.083 C 224.088 278.272 200.194 277.233 187.623 276.283 L 167.658 241.266 L 114.783 258.428 C 114.783 258.428 112.477 316.378 153.56 328.936 Z" style="fill: rgb(154, 179, 218);"/>
  <polyline class="st5" points="131.287 299.082 219.901 305.556 202.121 433.173" style="fill: none; stroke: rgb(222, 235, 255); stroke-linecap: round; stroke-linejoin: round; stroke-miterlimit: 10;"/>
  <line class="st5" x1="246.263" y1="435.849" x2="189.612" y2="435.849" style="fill: none; stroke: rgb(222, 235, 255); stroke-linecap: round; stroke-linejoin: round; stroke-miterlimit: 10;"/>
  <path class="st5" d="M 127.32 254.973 L 133.788 277.201 C 134.734 280.45 133.902 283.957 131.599 286.436 L 129.227 288.989" style="fill: none; stroke: rgb(222, 235, 255); stroke-linecap: round; stroke-linejoin: round; stroke-miterlimit: 10;"/>
  <path class="st0" d="M 120.019 426.288 L 145.915 426.288 C 145.915 426.288 147.12 463.326 159.466 473.564 C 171.812 483.803 167.897 497.805 167.897 497.805 L 133.757 497.805 L 128.751 479.135 L 128.21 497.805 L 116.472 497.805 C 115.636 468.746 120.019 426.288 120.019 426.288 Z" style="fill: rgb(64, 75, 124);"/>
  <path class="st3" d="M 91.257 328.936 C 96.452 331.001 103.774 332.08 110.899 332.509 L 127.724 332.585 L 110.059 447.04 L 181.049 447.04 C 181.049 447.04 187.287 326.642 189.568 309.256 C 191.862 291.895 180.19 281.136 159.167 279.083 C 150.842 278.272 137.891 277.233 125.32 276.283 L 119.326 258.428 L 57.877 259.928 C 57.877 259.928 50.173 316.378 91.257 328.936 Z" style="fill: rgb(154, 179, 218);"/>
  <g transform="matrix(1, 0, 0, 1, -51.095703, -31.808023)">
    <path class="st5" d="M238.9681244,361.1196594c0.6641083-9.4648743,1.253891-16.6903076,1.6954346-20.0558167 c2.2936707-17.3609009-9.3774109-28.1196899-30.4006805-30.1725769" style="fill: none; stroke: rgb(222, 235, 255); stroke-linecap: round; stroke-linejoin: round; stroke-miterlimit: 10;"/>
  </g>
  <g transform="matrix(1, 0, 0, 1, -51.095703, -31.808023)">
    <path class="st5" d="M140.543396,287.90448c0,0,6.6107635,20.3257751-8.5206451,25.5201416" style="fill: none; stroke: rgb(222, 235, 255); stroke-linecap: round; stroke-linejoin: round; stroke-miterlimit: 10;"/>
    <path class="st5" d="M174.9402161,308.6819458c0,0-18.6862946,1.8067322-26.2812805,7.6786194" style="fill: none; stroke: rgb(222, 235, 255); stroke-linecap: round; stroke-linejoin: round; stroke-miterlimit: 10;"/>
    <polyline class="st5" points="127.0617447,287.90448 135.4178925,330.8896484 197.7502289,337.3638306 179.9709473,464.9806213 &#10;&#9;&#9;&#9;&#9;&#9;&#9;&#9;" style="fill: none; stroke: rgb(222, 235, 255); stroke-linecap: round; stroke-linejoin: round; stroke-miterlimit: 10;"/>
    <line class="st5" x1="224.1121368" y1="467.6567688" x2="167.4619293" y2="467.6567688" style="fill: none; stroke: rgb(222, 235, 255); stroke-linecap: round; stroke-linejoin: round; stroke-miterlimit: 10;"/>
    <line class="st5" x1="202.1906281" y1="478.8482056" x2="218.7298889" y2="478.8482056" style="fill: none; stroke: rgb(222, 235, 255); stroke-linecap: round; stroke-linejoin: round; stroke-miterlimit: 10;"/>
  </g>
  <g transform="matrix(1, 0, 0, 1, -51.095703, -31.808023)">
    <g>
      <path class="st1" d="M103.5518265,298.8893738c20.9059525-101.5516815,68.6984482-125.4793396,68.6984482-125.4793396 s29.5398712-11.6133423,44.3071899-6.3940887c27.4415894,9.6987305,30.1899719,25.5836792,30.1899719,25.5836792 s6.6461792,24.0080872,2.5588226,33.6280212c-4.0873871,9.6199799-24.412384,34.5694427-24.412384,34.5694427 c0.3492432,14.683075,6.2245789,30.2484131,14.3395538,46.1713257 C239.233429,306.9684143,169.3148651,328.5090027,103.5518265,298.8893738z" style="fill: rgb(246, 141, 136);"/>
      <g>
        <path class="st2" d="M199.7612,184.3077545c2.2942963,3.3930359,6.3153076,7.3137817,13.222168,9.4246368 c13.813736,4.2216949,20.7122803-1.5216522,20.7122803-1.5216522l6.2456055-9.3683472" style="fill: none; stroke: rgb(236, 189, 187); stroke-linecap: round; stroke-linejoin: round; stroke-miterlimit: 10;"/>
        <path class="st1" d="M230.3718414,165.0716858c-17.4558716-9.1051788-28.4967499-6.4224701-31.4360962-1.9580841 s3.5793915,18.6598053,23.4008026,23.2630005C242.1579437,190.9797821,249.3347473,174.9629517,230.3718414,165.0716858z" style="fill: rgb(246, 141, 136);"/>
        <path class="st2" d="M198.9357452,163.1136017c-2.9393463,4.464386,3.5793915,18.6598053,23.4008026,23.2630005 c10.1886139,2.3661346,17.0363159-0.7159119,18.7102509-5.6137238" style="fill: none; stroke: rgb(236, 189, 187); stroke-linecap: round; stroke-linejoin: round; stroke-miterlimit: 10;"/>
      </g>
      <path class="st2" d="M111.9692612,293.9385071c0,0,59.5922623,22.4220581,119.1845322,6.7260437" style="fill: none; stroke: rgb(236, 189, 187); stroke-linecap: round; stroke-linejoin: round; stroke-miterlimit: 10;"/>
      <path class="st2" d="M246.747406,192.5996399c0,0,6.6461945,24.0080872,2.5588379,33.6280365 c-3.2587891,7.6698151-17.6158447,25.2379303-22.4385071,31.8741913" style="fill: none; stroke: rgb(236, 189, 187); stroke-linecap: round; stroke-linejoin: round; stroke-miterlimit: 10;"/>
    </g>
  </g>
  <g transform="matrix(1, 0, 0, 1, -51.095703, -31.808023)">
    <g>
      <line class="st6" x1="92.4850922" y1="34.0390892" x2="92.4850922" y2="39.3277054" style="fill: none; stroke: rgb(107, 129, 190); stroke-linecap: round; stroke-linejoin: round; stroke-miterlimit: 10;"/>
      <line class="st6" x1="92.4850922" y1="44.9728584" x2="92.4850922" y2="50.2614784" style="fill: none; stroke: rgb(107, 129, 190); stroke-linecap: round; stroke-linejoin: round; stroke-miterlimit: 10;"/>
      <line class="st6" x1="100.596283" y1="42.1502838" x2="95.3076706" y2="42.1502838" style="fill: none; stroke: rgb(107, 129, 190); stroke-linecap: round; stroke-linejoin: round; stroke-miterlimit: 10;"/>
      <line class="st6" x1="89.6625137" y1="42.1502838" x2="84.3738937" y2="42.1502838" style="fill: none; stroke: rgb(107, 129, 190); stroke-linecap: round; stroke-linejoin: round; stroke-miterlimit: 10;"/>
    </g>
    <g>
      <line class="st6" x1="165.8554535" y1="95.1819763" x2="165.8554535" y2="99.6085281" style="fill: none; stroke: rgb(107, 129, 190); stroke-linecap: round; stroke-linejoin: round; stroke-miterlimit: 10;"/>
      <line class="st6" x1="165.8554535" y1="104.3335037" x2="165.8554535" y2="108.7600555" style="fill: none; stroke: rgb(107, 129, 190); stroke-linecap: round; stroke-linejoin: round; stroke-miterlimit: 10;"/>
      <line class="st6" x1="172.6445007" y1="101.9710159" x2="168.2179413" y2="101.9710159" style="fill: none; stroke: rgb(107, 129, 190); stroke-linecap: round; stroke-linejoin: round; stroke-miterlimit: 10;"/>
      <line class="st6" x1="163.4929657" y1="101.9710159" x2="159.0664215" y2="101.9710159" style="fill: none; stroke: rgb(107, 129, 190); stroke-linecap: round; stroke-linejoin: round; stroke-miterlimit: 10;"/>
    </g>
    <g>
      <line class="st6" x1="422.1314087" y1="175.979599" x2="422.1314087" y2="180.4061584" style="fill: none; stroke: rgb(107, 129, 190); stroke-linecap: round; stroke-linejoin: round; stroke-miterlimit: 10;"/>
      <line class="st6" x1="422.1314087" y1="185.131134" x2="422.1314087" y2="189.5576782" style="fill: none; stroke: rgb(107, 129, 190); stroke-linecap: round; stroke-linejoin: round; stroke-miterlimit: 10;"/>
      <line class="st6" x1="428.9204712" y1="182.7686462" x2="424.4938965" y2="182.7686462" style="fill: none; stroke: rgb(107, 129, 190); stroke-linecap: round; stroke-linejoin: round; stroke-miterlimit: 10;"/>
      <line class="st6" x1="419.7689209" y1="182.7686462" x2="415.3423767" y2="182.7686462" style="fill: none; stroke: rgb(107, 129, 190); stroke-linecap: round; stroke-linejoin: round; stroke-miterlimit: 10;"/>
    </g>
    <g>
      <line class="st6" x1="350.2798767" y1="435.7075195" x2="350.2798767" y2="438.690979" style="fill: none; stroke: rgb(107, 129, 190); stroke-linecap: round; stroke-linejoin: round; stroke-miterlimit: 10;"/>
      <line class="st6" x1="350.2798767" y1="441.8755798" x2="350.2798767" y2="444.8590393" style="fill: none; stroke: rgb(107, 129, 190); stroke-linecap: round; stroke-linejoin: round; stroke-miterlimit: 10;"/>
      <line class="st6" x1="354.8556213" y1="440.2832642" x2="351.8721619" y2="440.2832642" style="fill: none; stroke: rgb(107, 129, 190); stroke-linecap: round; stroke-linejoin: round; stroke-miterlimit: 10;"/>
      <line class="st6" x1="348.687561" y1="440.2832642" x2="345.7041016" y2="440.2832642" style="fill: none; stroke: rgb(107, 129, 190); stroke-linecap: round; stroke-linejoin: round; stroke-miterlimit: 10;"/>
    </g>
    <g>
      <line class="st6" x1="519.7047729" y1="52.5326233" x2="519.7047729" y2="58.0725021" style="fill: none; stroke: rgb(107, 129, 190); stroke-linecap: round; stroke-linejoin: round; stroke-miterlimit: 10;"/>
      <line class="st6" x1="519.7047729" y1="63.9858551" x2="519.7047729" y2="69.5257339" style="fill: none; stroke: rgb(107, 129, 190); stroke-linecap: round; stroke-linejoin: round; stroke-miterlimit: 10;"/>
      <line class="st6" x1="528.2012939" y1="61.0291786" x2="522.661438" y2="61.0291786" style="fill: none; stroke: rgb(107, 129, 190); stroke-linecap: round; stroke-linejoin: round; stroke-miterlimit: 10;"/>
      <line class="st6" x1="516.7480469" y1="61.0291786" x2="511.2081909" y2="61.0291786" style="fill: none; stroke: rgb(107, 129, 190); stroke-linecap: round; stroke-linejoin: round; stroke-miterlimit: 10;"/>
    </g>
    <circle class="st6" cx="56.7824974" cy="151.1833038" r="4.3902001" style="fill: none; stroke: rgb(107, 129, 190); stroke-linecap: round; stroke-linejoin: round; stroke-miterlimit: 10;"/>
    <circle class="st6" cx="439.1083679" cy="342.4952393" r="4.3902001" style="fill: none; stroke: rgb(107, 129, 190); stroke-linecap: round; stroke-linejoin: round; stroke-miterlimit: 10;"/>
    <circle class="st7" cx="87.0408173" cy="100.9232178" r="3.0695159" style="fill: rgb(233, 243, 255);"/>
    <circle class="st7" cx="342.5558472" cy="379.2020264" r="6.9910564" style="fill: rgb(233, 243, 255);"/>
    <circle class="st7" cx="494.1831665" cy="116.6964874" r="5.3216376" style="fill: rgb(233, 243, 255);"/>
  </g>
  <g transform="matrix(1, 0, 0, 1, -51.095703, -31.808023)">
    <g>
      <g>
        <line class="st6" x1="438.8904724" y1="529.6126099" x2="551.0957031" y2="529.6126099" style="fill: none; stroke: rgb(107, 129, 190); stroke-linecap: round; stroke-linejoin: round; stroke-miterlimit: 10;"/>
        <line class="st6" x1="60.0976868" y1="529.6126099" x2="411.9613037" y2="529.6126099" style="fill: none; stroke: rgb(107, 129, 190); stroke-linecap: round; stroke-linejoin: round; stroke-miterlimit: 10;"/>
      </g>
      <g>
        <line class="st6" x1="171.5942535" y1="548.9022827" x2="115.5220642" y2="548.9022827" style="fill: none; stroke: rgb(107, 129, 190); stroke-linecap: round; stroke-linejoin: round; stroke-miterlimit: 10;"/>
        <line class="st6" x1="511.7973938" y1="548.9022827" x2="189.8517609" y2="548.9022827" style="fill: none; stroke: rgb(107, 129, 190); stroke-linecap: round; stroke-linejoin: round; stroke-miterlimit: 10;"/>
      </g>
      <g>
        <line class="st6" x1="355.4663696" y1="568.1919556" x2="393.4677734" y2="568.1919556" style="fill: none; stroke: rgb(107, 129, 190); stroke-linecap: round; stroke-linejoin: round; stroke-miterlimit: 10;"/>
        <line class="st6" x1="172.0321655" y1="568.1919556" x2="342.9251404" y2="568.1919556" style="fill: none; stroke: rgb(107, 129, 190); stroke-linecap: round; stroke-linejoin: round; stroke-miterlimit: 10;"/>
      </g>
    </g>
  </g>
  <g transform="matrix(1, 0, 0, 1, -51.095703, -31.808023)">
    <path class="st8" d="M235.7137756,174.1320648l-9.3399658,4.2600098 c-0.5400391,0.0100098-1.0500488-0.0100098-1.5599976-0.0400391c-8.1200562-0.3899536-12.4400024-4.4199829-14.1200562-6.4499512 l17.1300049-9.9700317l5.8600464-3.3999634L235.7137756,174.1320648z" style="fill: rgb(236, 189, 187);"/>
    <path class="st0" d="M235.7137756,174.1320648l-9.3399658,4.2600098 c-0.5400391,0.0100098-1.0500488-0.0100098-1.5599976-0.0400391c-2.960022-6.1999512-0.210022-12.1799927,3.0099487-16.4199829 l5.8600464-3.3999634L235.7137756,174.1320648z" style="fill: rgb(64, 75, 124);"/>
  </g>
  <g transform="matrix(1, 0, 0, 1, -51.095703, -31.808023)">
    <path class="st8" d="M249.6560516,137.9377594c-13.5820312,2.327713-31.6060028,35.3913574-11.7687988,44.070343 C257.7244568,190.6870728,277.3256836,133.1956635,249.6560516,137.9377594z" style="fill: rgb(236, 189, 187);"/>
    <path class="st0" d="M226.9589081,161.8075867c0,0,7.3408051-8.6079865,14.4240723-13.0893555 c0,0,9.5517578,11.8770142,21.3075714,11.670639c11.7558289-0.2063904,24.4365845-18.2960968,16.8583069-25.2858429 c-7.5783081-6.9897461-15.4261169,0.2959747-15.4261169,0.2959747S229.4839325,111.1374817,226.9589081,161.8075867z" style="fill: rgb(64, 75, 124);"/>
    <g>
      <path class="st8" d="M232.3025055,160.1812744c0,0,1.1276245-13.9829254-10.0470123-14.919342 c-11.1746368-0.9364319-8.4060059,21.8459167,8.5764008,20.3564606L232.3025055,160.1812744z" style="fill: rgb(236, 189, 187);"/>
      <g>
        <g>
          <path class="st0" d="M227.2879333,161.8561554c-0.2741852-0.0934753-0.4771729-0.3475189-0.4907532-0.6544647 c-0.0036774-0.0835571-0.4382935-8.3320923-6.2311249-11.3405151 c-0.3562012-0.1842957-0.4943237-0.6220093-0.3095703-0.9773254c0.1845245-0.3568726,0.6237793-0.4929657,0.9773102-0.3095703 c6.5451965,3.3981171,6.9969177,12.1912689,7.0127411,12.5640717c0.0169678,0.4001465-0.2928619,0.7382507-0.6929932,0.7552338 C227.4607849,161.8978729,227.371048,161.884491,227.2879333,161.8561554z" style="fill: rgb(64, 75, 124);"/>
        </g>
        <g>
          <path class="st0" d="M222.1552124,158.7113647c-0.3700562-0.1261597-0.5749664-0.5237885-0.4586182-0.9001617 c0.0297699-0.0938721,0.7490692-2.3397217,3.3355865-4.4391022c0.3105927-0.2525482,0.7692108-0.2061768,1.0197296,0.105957 c0.2525482,0.3105927,0.2052917,0.7674103-0.1059723,1.0197296c-2.22435,1.8053131-2.8587952,3.7276459-2.8645172,3.7466431 c-0.1222076,0.3803711-0.5288391,0.5919495-0.9092255,0.4719849 C222.1666107,158.7152557,222.1605682,158.7131958,222.1552124,158.7113647z" style="fill: rgb(64, 75, 124);"/>
        </g>
      </g>
    </g>
  </g>
  <g transform="matrix(1, 0, 0, 1, -51.095703, -31.808023)" style="">
    <path class="st0" d="M 237.587 157.979 C 237.587 157.979 240.65 153.61 243.961 155.964 C 243.961 155.964 244.222 154.905 245.165 155.025 C 246.107 155.145 245.75 158.096 245.75 158.096 C 245.75 158.096 241.498 157.081 237.587 157.979 Z" style="fill: rgb(64, 75, 124);"/>
    <path class="st0" d="M258.4415283,165.7505646c0,0,1.5057983-4.6417999-1.6055298-4.4107361 c0,0,0.2612-0.8634338-0.2698975-1.1806488c-0.9185333-0.5486603-2.1406403,1.976944-2.1406403,1.976944 S257.2299805,163.2949219,258.4415283,165.7505646z" style="fill: rgb(64, 75, 124);"/>
    <g>
      <ellipse transform="matrix(0.3940113 -0.9191056 0.9191056 0.3940113 -2.8442013 322.3061829)" class="st0" cx="242.9994507" cy="163.3099976" rx="2.4768834" ry="2.0033615" style="fill: rgb(64, 75, 124);"/>
    </g>
    <g>
      <ellipse transform="matrix(0.3940113 -0.9191056 0.9191056 0.3940113 -0.5448954 335.0934753)" class="st0" cx="253.8463898" cy="167.9599609" rx="2.4768834" ry="2.0033615" style="fill: rgb(64, 75, 124);"/>
    </g>
    <g>
      <path class="st0" d="M246.3343658,173.9054871c-0.562439-0.1917572-1.0532684-0.4750824-1.3879395-0.729126 c-0.3186493-0.2418213-0.3796082-0.6951294-0.1391144-1.0142212c0.2402649-0.3184357,0.6962891-0.3829498,1.0147095-0.1426849 c0.0178223,0.0135498,1.7329102,1.2799988,2.7279968,0.2708282c0.2149506-0.217804,0.1926727-0.3346558,0.184021-0.3795013 c-0.084549-0.4433899-1.0097961-1.0678864-1.6450958-1.3488464c-0.3617554-0.159256-0.5295563-0.5801392-0.3769989-0.9441833 l1.8747559-4.4672241c0.1559601-0.3696136,0.5810699-0.5344696,0.949646-0.3886108 c0.3698425,0.1552887,0.542984,0.5802307,0.3886108,0.949646l-1.6147461,3.847229 c0.6889343,0.3980103,1.6637115,1.1164856,1.8481903,2.0788269c0.0798035,0.4155884,0.0448303,1.0427094-0.5760803,1.6721039 C248.6073151,174.2973022,247.3540039,174.2531281,246.3343658,173.9054871z" style="fill: rgb(64, 75, 124);"/>
    </g>
  </g>
  <g transform="matrix(1, 0, 0, 1, -51.095703, -31.808023)">
    <g>
      <path class="st8" d="M249.4085693,258.2666016l8.9981995-4.5928192l1.9170837-18.5317535 c0.3589172-3.4697113,3.071228-6.229187,6.5342407-6.6478882l31.3579712-3.7913818 c1.6175537-0.1955719,3.0421448,1.0671387,3.0421448,2.6965027l0,0c0,1.2761536-0.8884277,2.3802185-2.1350403,2.653244 l-13.4406738,2.9437408l1.9762573,15.6285706c0.328949,2.6013794-1.0907593,5.1096802-3.490387,6.1666718l-4.4846497,1.9754181 l-0.224884,0.8791504c-1.1034851,4.3135986-4.7826843,7.4794312-9.212616,7.9271545l-1.8986816,0.1918945l-9.4721069,8.5295105 L249.4085693,258.2666016z" style="fill: rgb(236, 189, 187);"/>
      <line class="st10" x1="272.5083008" y1="234.6220856" x2="284.2765503" y2="232.9962463" style="fill: none; stroke: rgb(64, 75, 124); stroke-linecap: round; stroke-linejoin: round; stroke-miterlimit: 10;"/>
      <line class="st10" x1="273.0348816" y1="241.4297028" x2="284.7200317" y2="239.3830261" style="fill: none; stroke: rgb(64, 75, 124); stroke-linecap: round; stroke-linejoin: round; stroke-miterlimit: 10;"/>
      <line class="st10" x1="274.3410339" y1="247.2688293" x2="285.6512756" y2="245.0817719" style="fill: none; stroke: rgb(64, 75, 124); stroke-linecap: round; stroke-linejoin: round; stroke-miterlimit: 10;"/>
    </g>
    <g>
      <path class="st1" d="M150.8448181,230.0065308c7.8881836,24.2230225,32.6223755,83.0092773,47.9004211,84.5570984 c11.2276306,1.1417542,40.6147614-21.0999146,55.4204254-32.9856262 c5.3655548-4.2990112,8.8179474-7.2504883,8.8179474-7.2504883 c-2.1581726-8.6389465-12.1569824-17.6574402-12.1569824-17.6574402l-10.7740326,3.1680603l-30.0975952,8.8647766 c-4.8674774-25.1142426-25.6851044-88.4780579-33.9082184-96.4896088 C176.0467834,172.2133026,134.9650726,181.242981,150.8448181,230.0065308z" style="fill: rgb(246, 141, 136);"/>
      <path class="st2" d="M238.1378784,260.4020691l-28.1828766,8.3008423 c-4.0895691-21.1005402-19.438446-69.2016907-29.1170807-88.7891541" style="fill: none; stroke: rgb(236, 189, 187); stroke-linecap: round; stroke-linejoin: round; stroke-miterlimit: 10;"/>
      <path class="st2" d="M150.4812164,192.9886475c-3.8632355,8.5892944-5.0046082,20.5331879,0.3636017,37.0178833 c7.8881836,24.2230225,32.6223755,83.0092773,47.9004211,84.5570984 c10.5923157,1.0771484,37.347168-18.6577148,52.7729645-30.8746033" style="fill: none; stroke: rgb(236, 189, 187); stroke-linecap: round; stroke-linejoin: round; stroke-miterlimit: 10;"/>
      <path class="st2" d="M209.4786835,271.3352661c0,0-6.8992767,19.7172546-9.3943329,27.5541077" style="fill: none; stroke: rgb(236, 189, 187); stroke-linecap: round; stroke-linejoin: round; stroke-miterlimit: 10;"/>
      <path class="st3" d="M240.052597,259.8381348l14.1130676,21.7398682 c5.3655548-4.2990112,8.8179474-7.2504883,8.8179474-7.2504883 c-2.1581726-8.6389465-12.1569824-17.6574402-12.1569824-17.6574402L240.052597,259.8381348z" style="fill: rgb(154, 179, 218);"/>
    </g>
  </g>
  <g transform="matrix(1, 0, 0, 1, -51.095703, -31.808023)">
    <polygon class="st4" points="322.752 281.21 359.379 202.876 306.568 202.972 270.887 281.21" style="fill: rgb(107, 129, 190);"/>
    <polygon class="st3" points="277.972 288.607 272.17 282.806 307.762 204.568 313.564 210.37" style="fill: rgb(154, 179, 218);"/>
    <polygon class="st4" points="330.427 288.607 366.515 210.37 314.059 210.37 277.037 289.711" style="fill: rgb(107, 129, 190);"/>
    <polygon class="st11" points="359.4989929,204.5679626 365.3009033,210.369873 313.5643921,210.369873 307.7624817,204.5679626 &#9;&#9;&#10;&#9;&#9;&#9;" style="fill: rgb(222, 235, 255);"/>
  </g>
  <g transform="matrix(1, 0, 0, 1, -51.095703, -31.808023)">
    <path class="st8" d="M347.7848206,234.9763336c-10.8713074-1.1377716-18.5940552,4.8043976-13.2475281,7.520462 c0,0-7.3069458,1.6467438-3.2079163,7.5279388c0,0-7.0907288,2.8514862-2.7433777,8.376236 c0,0-5.6328735,4.9855042,1.8522644,7.5719604c7.4851685,2.5864563,16.5742798,1.7692261,15.8613892-4.9508667 c0,0,8.7326965-1.9082336,6.0594177-9.3933716c0,0,4.8118896-1.6039581,3.2079163-7.6633606 C355.5669861,243.965332,366.0449829,236.8874359,347.7848206,234.9763336z" style="fill: rgb(236, 189, 187);"/>
    <g>
      <path class="st10" d="M336.735321,242.2285156c0,0,11.5247498-2.0244598,17.2277222,1.5399017" style="fill: none; stroke: rgb(64, 75, 124); stroke-linecap: round; stroke-linejoin: round; stroke-miterlimit: 10;"/>
      <path class="st10" d="M333.8838196,250.4218903c0,0,11.7623901-0.9697418,16.3960571,1.2973022" style="fill: none; stroke: rgb(64, 75, 124); stroke-linecap: round; stroke-linejoin: round; stroke-miterlimit: 10;"/>
      <path class="st10" d="M330.7947083,258.7387085c0,0,9.1485291-1.1881104,13.782196,1.6633606" style="fill: none; stroke: rgb(64, 75, 124); stroke-linecap: round; stroke-linejoin: round; stroke-miterlimit: 10;"/>
    </g>
  </g>
  <path class="st4" d="M 410.982 416.536 C 410.982 416.536 394.974 325.268 483.165 306.297 C 483.165 306.297 499.799 394.488 410.982 416.536 Z" style="fill: rgb(107, 129, 190);"/>
  <line class="st12" x1="417.361" y1="406.794" x2="476.786" y2="316.039" style="fill: none; stroke: rgb(154, 179, 218); stroke-linecap: round; stroke-linejoin: round; stroke-miterlimit: 10;"/>
  <path class="st3" d="M 413.062 412.514 C 413.062 412.514 418.264 336.953 346.275 321.246 C 346.275 321.246 340.318 394.26 413.062 412.514 Z" style="fill: rgb(154, 179, 218);"/>
  <line class="st5" x1="407.16" y1="404.448" x2="352.177" y2="329.312" style="fill: none; stroke: rgb(222, 235, 255); stroke-linecap: round; stroke-linejoin: round; stroke-miterlimit: 10;"/>
  <path class="st1" d="M 467.922 458.385 C 466.562 464.955 464.692 471.615 462.142 478.055 C 459.382 485.045 455.832 491.765 451.272 497.805 L 379.272 497.805 C 367.092 481.665 362.092 460.655 360.242 442.715 C 358.092 421.845 360.202 405.135 360.202 405.135 L 470.352 405.135 C 470.352 405.135 473.612 430.885 467.922 458.385 Z" style="fill: rgb(246, 141, 136);"/>
  <path class="st8" d="M 467.922 458.385 C 466.562 464.955 464.692 471.615 462.142 478.055 C 456.712 470.175 445.952 462.625 424.732 465.015 C 396.352 468.205 372.972 458.365 360.242 442.715 C 358.092 421.845 360.202 405.135 360.202 405.135 L 384.692 405.135 C 390.532 417.165 404.352 434.645 435.592 436.495 C 455.262 437.665 464.212 447.345 467.922 458.385 Z" style="fill: rgb(236, 189, 187);"/>
  <path class="st8" d="M 429.722 477.13 C 406.494 480.157 413.054 496.76 434.405 491.625 C 453.178 487.11 442.484 475.466 429.722 477.13 Z" style="fill: rgb(236, 189, 187);"/>
</svg>