<?xml version="1.0" encoding="utf-8"?>
<svg viewBox="-22.393 35.429 551.096 464.571" xmlns="http://www.w3.org/2000/svg">
  <path style="fill: rgb(57, 80, 143);" d="M 327.141 131.292 C 324.137 132.369 286.243 224.696 286.243 224.637 C 286.243 224.578 285.73 227.173 296.007 229.338 C 296.007 229.338 337.673 143.046 337.488 139.925 C 337.303 136.804 329.858 130.318 327.141 131.292 Z">
    <title>Backof book</title>
  </path>
  <path class="st0" d="M 225.759 63.539 C 225.759 63.539 225.754 63.264 225.699 62.769 C 225.311 59.265 222.495 44.687 202.282 37.405 C 179.206 29.094 160.54 48.608 159.097 66.065 C 157.908 80.436 145.428 79.275 129.542 78.411 C 113.655 77.547 94.395 90.473 99.022 112.764 C 103.648 135.055 165.548 169.662 178.987 152.375 C 192.428 135.089 186.919 113.252 196.046 98.503 L 225.759 63.539 Z" style="fill: rgb(64, 75, 124);"/>
  <path class="st1" d="M 173.208 174.538 C 182.185 201.857 199.529 249.92 216.774 251.667 C 229.447 252.955 262.619 227.849 279.332 214.433 C 285.389 209.58 289.285 206.249 289.285 206.249 C 286.849 196.497 275.563 186.317 275.563 186.317 L 263.401 189.893 L 229.427 199.9 C 223.933 171.551 208.307 123.67 199.025 114.627 C 199.025 114.627 164.218 147.217 173.208 174.538 Z" style="fill: rgb(246, 141, 136);"/>
  <path class="st2" d="M 228.89 202.871 C 228.89 202.871 221.102 225.128 218.286 233.973" style="fill: none; stroke: rgb(236, 189, 187); stroke-linecap: round; stroke-linejoin: round; stroke-miterlimit: 10;"/>
  <path class="st3" d="M 263.401 189.893 L 279.332 214.433 C 285.389 209.58 289.285 206.249 289.285 206.249 C 286.849 196.497 275.563 186.317 275.563 186.317 L 263.401 189.893 Z" style="fill: rgb(154, 179, 218);"/>
  <path class="st3" d="M 16.164 330.218 L -11.215 493.025 C -11.829 496.675 -9.016 500 -5.316 500 C -2.657 500 -0.318 498.246 0.427 495.696 L 48.795 330.218 L 16.164 330.218 Z" style="fill: rgb(154, 179, 218);"/>
  <path class="st0" d="M 74.776 330.218 L 47.396 493.025 C 46.784 496.675 49.596 500 53.297 500 C 55.954 500 58.293 498.246 59.039 495.696 L 107.406 330.218 L 74.776 330.218 Z" style="fill: rgb(64, 75, 124);"/>
  <path class="st0" d="M 209.001 330.218 L 236.38 493.025 C 236.993 496.675 234.18 500 230.48 500 C 227.823 500 225.484 498.246 224.738 495.696 L 176.371 330.218 L 209.001 330.218 Z" style="fill: rgb(64, 75, 124);"/>
  <path class="st3" d="M 150.389 330.218 L 177.768 493.025 C 178.382 496.675 175.569 500 171.869 500 C 169.211 500 166.872 498.246 166.126 495.696 L 117.758 330.218 L 150.389 330.218 Z" style="fill: rgb(154, 179, 218);"/>
  <path class="st0" d="M 171.5 320.021 L 1.208 320.021 L 1.208 115.762 L 111.179 115.762 C 119.526 115.762 126.292 122.529 126.292 130.877 L 126.292 279.338 C 126.292 295.95 137.366 310.525 153.37 314.977 L 171.5 320.021 Z" style="fill: rgb(64, 75, 124);"/>
  <path class="st4" d="M 17.451 131.865 C 17.095 114.229 -7.36 109.441 -13.976 125.794 C -26.688 157.212 -21.226 214.056 -21.226 256.119 C -21.226 317.301 -8.989 347.213 64.43 347.213 C 64.43 347.213 130.371 347.213 157.564 347.213 C 184.756 347.213 182.037 313.223 158.923 313.223 C 135.81 313.223 64.43 313.223 47.435 313.223 C 30.44 313.223 19.563 298.947 19.563 264.277 C 19.563 240.209 18.252 171.584 17.451 131.865 Z" style="fill: rgb(107, 129, 190);"/>
  <path class="st0" d="M 214.846 347.213 L 119.471 347.213 C 112.064 347.213 106.06 341.209 106.06 333.802 L 106.06 326.634 C 106.06 319.227 112.064 313.223 119.471 313.223 L 214.846 313.223 C 222.253 313.223 228.259 319.227 228.259 326.634 L 228.259 333.802 C 228.259 341.209 222.253 347.213 214.846 347.213 Z" style="fill: rgb(64, 75, 124);"/>
  <path class="st0" d="M 215.187 419.273 L 245.909 419.273 C 245.909 419.273 245.909 453.943 274.495 472.637 C 292.795 484.606 287.171 500 287.171 500 L 243.19 500 L 224.29 478.926 L 223.476 500 L 209.855 500 C 208.597 467.199 215.187 419.273 215.187 419.273 Z" style="fill: rgb(64, 75, 124);"/>
  <polyline class="st5" points="235.294 491.195 224.29 478.926 223.834 490.737" style="fill: none; stroke: rgb(222, 235, 255); stroke-linecap: round; stroke-linejoin: round; stroke-miterlimit: 10;"/>
  <path class="st5" style="fill: none; stroke: rgb(222, 235, 255); stroke-linecap: round; stroke-linejoin: round; stroke-miterlimit: 10;"/>
  <path class="st5" d="M 212.015 447.698 C 213.514 431.434 215.187 419.273 215.187 419.273 L 245.909 419.273" style="fill: none; stroke: rgb(222, 235, 255); stroke-linecap: round; stroke-linejoin: round; stroke-miterlimit: 10;"/>
  <path class="st3" d="M 153.418 309.383 C 159.283 311.714 167.547 312.932 175.589 313.416 L 206.934 313.502 L 186.994 442.697 L 267.127 442.697 C 267.127 442.697 274.167 306.793 276.742 287.168 C 279.332 267.572 266.158 255.427 242.426 253.109 C 233.029 252.194 206.058 251.021 191.868 249.949 L 169.331 210.422 L 109.647 229.794 C 109.647 229.794 107.044 295.208 153.418 309.383 Z" style="fill: rgb(154, 179, 218);"/>
  <polyline class="st5" points="128.276 275.684 228.303 282.992 208.233 427.044" style="fill: none; stroke: rgb(222, 235, 255); stroke-linecap: round; stroke-linejoin: round; stroke-miterlimit: 10;"/>
  <line class="st5" x1="258.06" y1="430.065" x2="194.113" y2="430.065" style="fill: none; stroke: rgb(222, 235, 255); stroke-linecap: round; stroke-linejoin: round; stroke-miterlimit: 10;"/>
  <path class="st5" d="M 123.798 225.894 L 131.099 250.985 C 132.167 254.653 131.228 258.611 128.628 261.409 L 125.951 264.291" style="fill: none; stroke: rgb(222, 235, 255); stroke-linecap: round; stroke-linejoin: round; stroke-miterlimit: 10;"/>
  <path class="st0" d="M 115.557 419.273 L 144.788 419.273 C 144.788 419.273 146.148 461.081 160.084 472.637 C 174.02 484.195 169.601 500 169.601 500 L 131.064 500 L 125.414 478.926 L 124.803 500 L 111.553 500 C 110.61 467.199 115.557 419.273 115.557 419.273 Z" style="fill: rgb(64, 75, 124);"/>
  <path class="st3" d="M 83.091 309.383 C 88.955 311.714 97.22 312.932 105.263 313.416 L 124.254 313.502 L 104.314 442.697 L 184.447 442.697 C 184.447 442.697 191.488 306.793 194.063 287.168 C 196.653 267.572 183.477 255.427 159.747 253.109 C 150.35 252.194 135.731 251.021 121.541 249.949 L 114.775 229.794 L 45.412 231.488 C 45.412 231.488 36.716 295.208 83.091 309.383 Z" style="fill: rgb(154, 179, 218);"/>
  <g transform="matrix(1.128787, 0, 0, 1.128787, -77.595108, -97.820145)" style="">
    <path class="st5" d="M238.9681244,361.1196594c0.6641083-9.4648743,1.253891-16.6903076,1.6954346-20.0558167 c2.2936707-17.3609009-9.3774109-28.1196899-30.4006805-30.1725769" style="fill: none; stroke: rgb(222, 235, 255); stroke-linecap: round; stroke-linejoin: round; stroke-miterlimit: 10;"/>
  </g>
  <g transform="matrix(1.128787, 0, 0, 1.128787, -77.595108, -97.820145)" style="">
    <path class="st5" d="M140.543396,287.90448c0,0,6.6107635,20.3257751-8.5206451,25.5201416" style="fill: none; stroke: rgb(222, 235, 255); stroke-linecap: round; stroke-linejoin: round; stroke-miterlimit: 10;"/>
    <path class="st5" d="M174.9402161,308.6819458c0,0-18.6862946,1.8067322-26.2812805,7.6786194" style="fill: none; stroke: rgb(222, 235, 255); stroke-linecap: round; stroke-linejoin: round; stroke-miterlimit: 10;"/>
    <polyline class="st5" points="127.0617447,287.90448 135.4178925,330.8896484 197.7502289,337.3638306 179.9709473,464.9806213 &#10;&#9;&#9;&#9;&#9;&#9;&#9;&#9;" style="fill: none; stroke: rgb(222, 235, 255); stroke-linecap: round; stroke-linejoin: round; stroke-miterlimit: 10;"/>
    <line class="st5" x1="224.1121368" y1="467.6567688" x2="167.4619293" y2="467.6567688" style="fill: none; stroke: rgb(222, 235, 255); stroke-linecap: round; stroke-linejoin: round; stroke-miterlimit: 10;"/>
    <line class="st5" x1="202.1906281" y1="478.8482056" x2="218.7298889" y2="478.8482056" style="fill: none; stroke: rgb(222, 235, 255); stroke-linecap: round; stroke-linejoin: round; stroke-miterlimit: 10;"/>
  </g>
  <g transform="matrix(1.128787, 0, 0, 1.128787, -77.595108, -97.820145)" style="">
    <g>
      <path class="st1" d="M103.5518265,298.8893738c20.9059525-101.5516815,68.6984482-125.4793396,68.6984482-125.4793396 s29.5398712-11.6133423,44.3071899-6.3940887c27.4415894,9.6987305,30.1899719,25.5836792,30.1899719,25.5836792 s6.6461792,24.0080872,2.5588226,33.6280212c-4.0873871,9.6199799-24.412384,34.5694427-24.412384,34.5694427 c0.3492432,14.683075,6.2245789,30.2484131,14.3395538,46.1713257 C239.233429,306.9684143,169.3148651,328.5090027,103.5518265,298.8893738z" style="fill: rgb(246, 141, 136);"/>
      <g>
        <path class="st2" d="M199.7612,184.3077545c2.2942963,3.3930359,6.3153076,7.3137817,13.222168,9.4246368 c13.813736,4.2216949,20.7122803-1.5216522,20.7122803-1.5216522l6.2456055-9.3683472" style="fill: none; stroke: rgb(236, 189, 187); stroke-linecap: round; stroke-linejoin: round; stroke-miterlimit: 10;"/>
        <path class="st1" d="M230.3718414,165.0716858c-17.4558716-9.1051788-28.4967499-6.4224701-31.4360962-1.9580841 s3.5793915,18.6598053,23.4008026,23.2630005C242.1579437,190.9797821,249.3347473,174.9629517,230.3718414,165.0716858z" style="fill: rgb(246, 141, 136);"/>
        <path class="st2" d="M198.9357452,163.1136017c-2.9393463,4.464386,3.5793915,18.6598053,23.4008026,23.2630005 c10.1886139,2.3661346,17.0363159-0.7159119,18.7102509-5.6137238" style="fill: none; stroke: rgb(236, 189, 187); stroke-linecap: round; stroke-linejoin: round; stroke-miterlimit: 10;"/>
      </g>
      <path class="st2" d="M111.9692612,293.9385071c0,0,59.5922623,22.4220581,119.1845322,6.7260437" style="fill: none; stroke: rgb(236, 189, 187); stroke-linecap: round; stroke-linejoin: round; stroke-miterlimit: 10;"/>
      <path class="st2" d="M246.747406,192.5996399c0,0,6.6461945,24.0080872,2.5588379,33.6280365 c-3.2587891,7.6698151-17.6158447,25.2379303-22.4385071,31.8741913" style="fill: none; stroke: rgb(236, 189, 187); stroke-linecap: round; stroke-linejoin: round; stroke-miterlimit: 10;"/>
    </g>
  </g>
  <g transform="matrix(1, 0, 0, 1, -22.392529, -68.191956)"/>
  <g transform="matrix(1.128787, 0, 0, 1.128787, -77.595108, -97.820145)" style="">
    <path class="st8" d="M235.7137756,174.1320648l-9.3399658,4.2600098 c-0.5400391,0.0100098-1.0500488-0.0100098-1.5599976-0.0400391c-8.1200562-0.3899536-12.4400024-4.4199829-14.1200562-6.4499512 l17.1300049-9.9700317l5.8600464-3.3999634L235.7137756,174.1320648z" style="fill: rgb(236, 189, 187);"/>
    <path class="st0" d="M235.7137756,174.1320648l-9.3399658,4.2600098 c-0.5400391,0.0100098-1.0500488-0.0100098-1.5599976-0.0400391c-2.960022-6.1999512-0.210022-12.1799927,3.0099487-16.4199829 l5.8600464-3.3999634L235.7137756,174.1320648z" style="fill: rgb(64, 75, 124);"/>
  </g>
  <g transform="matrix(1.128787, 0, 0, 1.128787, -77.595108, -97.820145)" style="">
    <path class="st8" d="M249.6560516,137.9377594c-13.5820312,2.327713-31.6060028,35.3913574-11.7687988,44.070343 C257.7244568,190.6870728,277.3256836,133.1956635,249.6560516,137.9377594z" style="fill: rgb(236, 189, 187);"/>
    <path class="st0" d="M226.9589081,161.8075867c0,0,7.3408051-8.6079865,14.4240723-13.0893555 c0,0,9.5517578,11.8770142,21.3075714,11.670639c11.7558289-0.2063904,24.4365845-18.2960968,16.8583069-25.2858429 c-7.5783081-6.9897461-15.4261169,0.2959747-15.4261169,0.2959747S229.4839325,111.1374817,226.9589081,161.8075867z" style="fill: rgb(64, 75, 124);"/>
    <g>
      <path class="st8" d="M232.3025055,160.1812744c0,0,1.1276245-13.9829254-10.0470123-14.919342 c-11.1746368-0.9364319-8.4060059,21.8459167,8.5764008,20.3564606L232.3025055,160.1812744z" style="fill: rgb(236, 189, 187);"/>
      <g>
        <g>
          <path class="st0" d="M227.2879333,161.8561554c-0.2741852-0.0934753-0.4771729-0.3475189-0.4907532-0.6544647 c-0.0036774-0.0835571-0.4382935-8.3320923-6.2311249-11.3405151 c-0.3562012-0.1842957-0.4943237-0.6220093-0.3095703-0.9773254c0.1845245-0.3568726,0.6237793-0.4929657,0.9773102-0.3095703 c6.5451965,3.3981171,6.9969177,12.1912689,7.0127411,12.5640717c0.0169678,0.4001465-0.2928619,0.7382507-0.6929932,0.7552338 C227.4607849,161.8978729,227.371048,161.884491,227.2879333,161.8561554z" style="fill: rgb(64, 75, 124);"/>
        </g>
        <g>
          <path class="st0" d="M222.1552124,158.7113647c-0.3700562-0.1261597-0.5749664-0.5237885-0.4586182-0.9001617 c0.0297699-0.0938721,0.7490692-2.3397217,3.3355865-4.4391022c0.3105927-0.2525482,0.7692108-0.2061768,1.0197296,0.105957 c0.2525482,0.3105927,0.2052917,0.7674103-0.1059723,1.0197296c-2.22435,1.8053131-2.8587952,3.7276459-2.8645172,3.7466431 c-0.1222076,0.3803711-0.5288391,0.5919495-0.9092255,0.4719849 C222.1666107,158.7152557,222.1605682,158.7131958,222.1552124,158.7113647z" style="fill: rgb(64, 75, 124);"/>
        </g>
      </g>
    </g>
  </g>
  <g transform="matrix(1.128787, 0, 0, 1.128787, -77.595108, -97.820145)" style="">
    <path class="st0" d="M 237.587 157.979 C 237.587 157.979 240.65 153.61 243.961 155.964 C 243.961 155.964 244.222 154.905 245.165 155.025 C 246.107 155.145 245.75 158.096 245.75 158.096 C 245.75 158.096 241.498 157.081 237.587 157.979 Z" style="fill: rgb(64, 75, 124);"/>
    <path class="st0" d="M258.4415283,165.7505646c0,0,1.5057983-4.6417999-1.6055298-4.4107361 c0,0,0.2612-0.8634338-0.2698975-1.1806488c-0.9185333-0.5486603-2.1406403,1.976944-2.1406403,1.976944 S257.2299805,163.2949219,258.4415283,165.7505646z" style="fill: rgb(64, 75, 124);"/>
    <g>
      <ellipse transform="matrix(0.3940113 -0.9191056 0.9191056 0.3940113 -2.8442013 322.3061829)" class="st0" cx="242.9994507" cy="163.3099976" rx="2.4768834" ry="2.0033615" style="fill: rgb(64, 75, 124);"/>
    </g>
    <g>
      <ellipse transform="matrix(0.3940113 -0.9191056 0.9191056 0.3940113 -0.5448954 335.0934753)" class="st0" cx="253.8463898" cy="167.9599609" rx="2.4768834" ry="2.0033615" style="fill: rgb(64, 75, 124);"/>
    </g>
    <g>
      <path class="st0" d="M246.3343658,173.9054871c-0.562439-0.1917572-1.0532684-0.4750824-1.3879395-0.729126 c-0.3186493-0.2418213-0.3796082-0.6951294-0.1391144-1.0142212c0.2402649-0.3184357,0.6962891-0.3829498,1.0147095-0.1426849 c0.0178223,0.0135498,1.7329102,1.2799988,2.7279968,0.2708282c0.2149506-0.217804,0.1926727-0.3346558,0.184021-0.3795013 c-0.084549-0.4433899-1.0097961-1.0678864-1.6450958-1.3488464c-0.3617554-0.159256-0.5295563-0.5801392-0.3769989-0.9441833 l1.8747559-4.4672241c0.1559601-0.3696136,0.5810699-0.5344696,0.949646-0.3886108 c0.3698425,0.1552887,0.542984,0.5802307,0.3886108,0.949646l-1.6147461,3.847229 c0.6889343,0.3980103,1.6637115,1.1164856,1.8481903,2.0788269c0.0798035,0.4155884,0.0448303,1.0427094-0.5760803,1.6721039 C248.6073151,174.2973022,247.3540039,174.2531281,246.3343658,173.9054871z" style="fill: rgb(64, 75, 124);"/>
    </g>
  </g>
  <g transform="matrix(1.128787, 0, 0, 1.128787, -77.595108, -97.820145)" style="">
    <g>
      <path class="st8" d="M249.4085693,258.2666016l8.9981995-4.5928192l1.9170837-18.5317535 c0.3589172-3.4697113,3.071228-6.229187,6.5342407-6.6478882l31.3579712-3.7913818 c1.6175537-0.1955719,3.0421448,1.0671387,3.0421448,2.6965027l0,0c0,1.2761536-0.8884277,2.3802185-2.1350403,2.653244 l-13.4406738,2.9437408l1.9762573,15.6285706c0.328949,2.6013794-1.0907593,5.1096802-3.490387,6.1666718l-4.4846497,1.9754181 l-0.224884,0.8791504c-1.1034851,4.3135986-4.7826843,7.4794312-9.212616,7.9271545l-1.8986816,0.1918945l-9.4721069,8.5295105 L249.4085693,258.2666016z" style="fill: rgb(236, 189, 187);"/>
      <line class="st10" x1="272.5083008" y1="234.6220856" x2="284.2765503" y2="232.9962463" style="fill: none; stroke: rgb(64, 75, 124); stroke-linecap: round; stroke-linejoin: round; stroke-miterlimit: 10;"/>
      <line class="st10" x1="273.0348816" y1="241.4297028" x2="284.7200317" y2="239.3830261" style="fill: none; stroke: rgb(64, 75, 124); stroke-linecap: round; stroke-linejoin: round; stroke-miterlimit: 10;"/>
      <line class="st10" x1="274.3410339" y1="247.2688293" x2="285.6512756" y2="245.0817719" style="fill: none; stroke: rgb(64, 75, 124); stroke-linecap: round; stroke-linejoin: round; stroke-miterlimit: 10;"/>
    </g>
    <g>
      <path class="st1" d="M150.8448181,230.0065308c7.8881836,24.2230225,32.6223755,83.0092773,47.9004211,84.5570984 c11.2276306,1.1417542,40.6147614-21.0999146,55.4204254-32.9856262 c5.3655548-4.2990112,8.8179474-7.2504883,8.8179474-7.2504883 c-2.1581726-8.6389465-12.1569824-17.6574402-12.1569824-17.6574402l-10.7740326,3.1680603l-30.0975952,8.8647766 c-4.8674774-25.1142426-25.6851044-88.4780579-33.9082184-96.4896088 C176.0467834,172.2133026,134.9650726,181.242981,150.8448181,230.0065308z" style="fill: rgb(246, 141, 136);"/>
      <path class="st2" d="M238.1378784,260.4020691l-28.1828766,8.3008423 c-4.0895691-21.1005402-19.438446-69.2016907-29.1170807-88.7891541" style="fill: none; stroke: rgb(236, 189, 187); stroke-linecap: round; stroke-linejoin: round; stroke-miterlimit: 10;"/>
      <path class="st2" d="M150.4812164,192.9886475c-3.8632355,8.5892944-5.0046082,20.5331879,0.3636017,37.0178833 c7.8881836,24.2230225,32.6223755,83.0092773,47.9004211,84.5570984 c10.5923157,1.0771484,37.347168-18.6577148,52.7729645-30.8746033" style="fill: none; stroke: rgb(236, 189, 187); stroke-linecap: round; stroke-linejoin: round; stroke-miterlimit: 10;"/>
      <path class="st2" d="M209.4786835,271.3352661c0,0-6.8992767,19.7172546-9.3943329,27.5541077" style="fill: none; stroke: rgb(236, 189, 187); stroke-linecap: round; stroke-linejoin: round; stroke-miterlimit: 10;"/>
      <path class="st3" d="M240.052597,259.8381348l14.1130676,21.7398682 c5.3655548-4.2990112,8.8179474-7.2504883,8.8179474-7.2504883 c-2.1581726-8.6389465-12.1569824-17.6574402-12.1569824-17.6574402L240.052597,259.8381348z" style="fill: rgb(154, 179, 218);"/>
    </g>
  </g>
  <g transform="matrix(1.128787, 0, 0, 1.128787, -77.595108, -97.820145)" style="">
    <polygon class="st4" points="322.752 281.21 359.379 202.876 306.568 202.972 270.887 281.21" style="fill: rgb(107, 129, 190);"/>
    <polygon class="st3" points="277.972 288.607 272.17 282.806 307.762 204.568 313.564 210.37" style="fill: rgb(154, 179, 218);"/>
    <polygon class="st4" points="330.427 288.607 366.515 210.37 314.059 210.37 277.037 289.711" style="fill: rgb(107, 129, 190);"/>
    <polygon class="st11" points="359.4989929,204.5679626 365.3009033,210.369873 313.5643921,210.369873 307.7624817,204.5679626 &#9;&#9;&#10;&#9;&#9;&#9;" style="fill: rgb(222, 235, 255);"/>
  </g>
  <g transform="matrix(1.128787, 0, 0, 1.128787, -77.595108, -97.820145)" style="">
    <path class="st8" d="M347.7848206,234.9763336c-10.8713074-1.1377716-18.5940552,4.8043976-13.2475281,7.520462 c0,0-7.3069458,1.6467438-3.2079163,7.5279388c0,0-7.0907288,2.8514862-2.7433777,8.376236 c0,0-5.6328735,4.9855042,1.8522644,7.5719604c7.4851685,2.5864563,16.5742798,1.7692261,15.8613892-4.9508667 c0,0,8.7326965-1.9082336,6.0594177-9.3933716c0,0,4.8118896-1.6039581,3.2079163-7.6633606 C355.5669861,243.965332,366.0449829,236.8874359,347.7848206,234.9763336z" style="fill: rgb(236, 189, 187);"/>
    <g>
      <path class="st10" d="M336.735321,242.2285156c0,0,11.5247498-2.0244598,17.2277222,1.5399017" style="fill: none; stroke: rgb(64, 75, 124); stroke-linecap: round; stroke-linejoin: round; stroke-miterlimit: 10;"/>
      <path class="st10" d="M333.8838196,250.4218903c0,0,11.7623901-0.9697418,16.3960571,1.2973022" style="fill: none; stroke: rgb(64, 75, 124); stroke-linecap: round; stroke-linejoin: round; stroke-miterlimit: 10;"/>
      <path class="st10" d="M330.7947083,258.7387085c0,0,9.1485291-1.1881104,13.782196,1.6633606" style="fill: none; stroke: rgb(64, 75, 124); stroke-linecap: round; stroke-linejoin: round; stroke-miterlimit: 10;"/>
    </g>
  </g>
  <path class="st4" d="M 443.992 408.265 C 443.992 408.265 425.923 305.243 525.472 283.828 C 525.472 283.828 544.248 383.377 443.992 408.265 Z" style="fill: rgb(107, 129, 190);"/>
  <line class="st12" x1="451.193" y1="397.268" x2="518.271" y2="294.825" style="fill: none; stroke: rgb(154, 179, 218); stroke-linecap: round; stroke-linejoin: round; stroke-miterlimit: 10;"/>
  <path class="st3" d="M 446.34 403.725 C 446.34 403.725 452.212 318.432 370.952 300.703 C 370.952 300.703 364.228 383.12 446.34 403.725 Z" style="fill: rgb(154, 179, 218);"/>
  <line class="st5" x1="439.678" y1="394.62" x2="377.614" y2="309.807" style="fill: none; stroke: rgb(222, 235, 255); stroke-linecap: round; stroke-linejoin: round; stroke-miterlimit: 10;"/>
  <path class="st1" d="M 508.265 455.503 C 506.73 462.919 504.62 470.437 501.741 477.706 C 498.626 485.597 494.618 493.182 489.471 500 L 408.199 500 C 394.45 481.781 388.806 458.066 386.718 437.815 C 384.291 414.257 386.673 395.395 386.673 395.395 L 511.008 395.395 C 511.008 395.395 514.688 424.462 508.265 455.503 Z" style="fill: rgb(246, 141, 136);"/>
  <path class="st8" d="M 508.265 455.503 C 506.73 462.919 504.62 470.437 501.741 477.706 C 495.612 468.812 483.466 460.289 459.513 462.987 C 427.478 466.588 401.087 455.481 386.718 437.815 C 384.291 414.257 386.673 395.395 386.673 395.395 L 414.317 395.395 C 420.909 408.975 436.509 428.706 471.772 430.794 C 493.975 432.115 504.078 443.041 508.265 455.503 Z" style="fill: rgb(236, 189, 187);"/>
  <path class="st8" d="M 465.146 476.662 C 438.926 480.079 446.331 498.82 470.432 493.024 C 491.623 487.928 479.551 474.784 465.146 476.662 Z" style="fill: rgb(236, 189, 187);"/>
</svg>