<?xml version="1.0" encoding="utf-8"?>
<svg viewBox="40 154.931 522.299 326.438" xmlns="http://www.w3.org/2000/svg">
  <path class="st0" d="M 435.253 451.91 C 420.556 448.74 441.444 400.325 450.236 389.867 C 459.029 379.409 460.544 392.279 460.544 392.279 C 460.544 392.279 485.401 354.768 499.311 349.92 C 513.222 345.072 506.016 359.593 506.016 359.593 C 506.016 359.593 541.883 331.536 558.697 343.114 C 575.511 354.691 527.991 377.642 527.991 377.642 C 527.991 377.642 542.695 374.825 545.869 382.951 C 549.042 391.076 491.656 413.49 491.656 413.49 C 491.656 413.49 505.276 413.146 508.252 420.763 C 511.227 428.381 457.943 456.802 435.253 451.91 Z" style="fill: rgb(64, 75, 124);"/>
  <path class="st1" d="M 549.93 350.658 C 549.93 350.658 485.474 381.991 436.479 445.119" style="fill: none; stroke: rgb(154, 179, 218); stroke-linecap: round; stroke-linejoin: round; stroke-miterlimit: 10; stroke-width: 2px;"/>
  <path class="st1" d="M 522.405 388.033 C 522.405 388.033 498.629 393.564 480.664 398.552 C 480.664 398.552 489.318 374.878 497.532 362.187" style="fill: none; stroke: rgb(154, 179, 218); stroke-linecap: round; stroke-linejoin: round; stroke-miterlimit: 10; stroke-width: 2px;"/>
  <path class="st1" d="M 478.974 427.036 L 443.96 435.858 C 443.96 435.858 446.726 413.603 451.956 400.686" style="fill: none; stroke: rgb(154, 179, 218); stroke-linecap: round; stroke-linejoin: round; stroke-miterlimit: 10; stroke-width: 2px;"/>
  <path class="st2" d="M 402.295 449.402 C 380.28 450.559 391.254 374.027 399.681 355.853 C 408.108 337.678 415.193 355.31 415.193 355.31 C 415.193 355.31 435.969 292.684 453.793 280.484 C 471.616 268.284 466.994 291.599 466.994 291.599 C 466.994 291.599 506.979 238.126 535.217 248.056 C 563.455 257.985 505.02 308.704 505.02 308.704 C 505.02 308.704 524.746 299.074 532.356 309.354 C 539.967 319.634 467.363 373.382 467.363 373.382 C 467.363 373.382 486.505 367.666 493.64 377.304 C 500.775 386.941 436.282 447.615 402.295 449.402 Z" style="fill: rgb(154, 179, 218);"/>
  <path class="st3" d="M 525.707 262.097 C 525.707 262.097 446.523 331.18 401.423 439.322" style="fill: none; stroke: rgb(64, 75, 124); stroke-linecap: round; stroke-linejoin: round; stroke-miterlimit: 10; stroke-width: 2px;"/>
  <path class="st3" d="M 501.104 325.554 C 501.104 325.554 469.58 342.507 446.074 356.463 C 446.074 356.463 449.232 319.639 455.984 298.527" style="fill: none; stroke: rgb(64, 75, 124); stroke-linecap: round; stroke-linejoin: round; stroke-miterlimit: 10; stroke-width: 2px;"/>
  <path class="st3" d="M 454.617 397.419 L 408.455 423.344 C 408.455 423.344 403.826 390.789 406.268 370.503" style="fill: none; stroke: rgb(64, 75, 124); stroke-linecap: round; stroke-linejoin: round; stroke-miterlimit: 10; stroke-width: 2px;"/>
  <g transform="matrix(1, 0, 0, 1, 40, 0)">
    <title>leftLeaves</title>
    <path class="st4" d="M 127.045 451.91 C 141.743 448.74 120.854 400.325 112.062 389.867 C 103.269 379.409 101.754 392.279 101.754 392.279 C 101.754 392.279 76.897 354.768 62.987 349.92 C 49.077 345.072 56.282 359.593 56.282 359.593 C 56.282 359.593 20.415 331.536 3.601 343.114 C -13.213 354.691 34.307 377.642 34.307 377.642 C 34.307 377.642 19.603 374.825 16.429 382.951 C 13.256 391.076 70.642 413.49 70.642 413.49 C 70.642 413.49 57.022 413.146 54.046 420.763 C 51.071 428.381 104.355 456.802 127.045 451.91 Z" style="fill: rgb(246, 141, 136);"/>
    <path class="st5" d="M 12.368 350.658 C 12.368 350.658 76.824 381.991 125.819 445.119" style="fill: none; stroke: rgb(236, 189, 187); stroke-linecap: round; stroke-linejoin: round; stroke-miterlimit: 10; stroke-width: 1.5px;"/>
    <path class="st5" d="M 39.893 388.033 C 39.893 388.033 63.67 393.564 81.634 398.552 C 81.634 398.552 72.98 374.878 64.766 362.187" style="fill: none; stroke: rgb(236, 189, 187); stroke-linecap: round; stroke-linejoin: round; stroke-miterlimit: 10; stroke-width: 1.5px;"/>
    <path class="st5" d="M 83.324 427.036 L 118.338 435.858 C 118.338 435.858 115.572 413.603 110.342 400.686" style="fill: none; stroke: rgb(236, 189, 187); stroke-linecap: round; stroke-linejoin: round; stroke-miterlimit: 10; stroke-width: 1.5px;"/>
    <path class="st2" d="M 160.003 449.402 C 182.018 450.559 171.045 374.027 162.617 355.853 C 154.19 337.678 147.105 355.31 147.105 355.31 C 147.105 355.31 126.329 292.684 108.505 280.484 C 90.682 268.284 95.304 291.599 95.304 291.599 C 95.304 291.599 55.319 238.126 27.081 248.056 C -1.157 257.985 57.278 308.704 57.278 308.704 C 57.278 308.704 37.552 299.074 29.942 309.354 C 22.331 319.634 94.935 373.382 94.935 373.382 C 94.935 373.382 75.793 367.666 68.658 377.304 C 61.523 386.941 126.016 447.615 160.003 449.402 Z" style="fill: rgb(154, 179, 218);"/>
    <path class="st3" d="M 36.591 262.097 C 36.591 262.097 115.775 331.18 160.875 439.322" style="fill: none; stroke: rgb(64, 75, 124); stroke-linecap: round; stroke-linejoin: round; stroke-miterlimit: 10; stroke-width: 2px;"/>
    <path class="st3" d="M 61.194 325.554 C 61.194 325.554 92.718 342.507 116.224 356.463 C 116.224 356.463 113.066 319.639 106.314 298.527" style="fill: none; stroke: rgb(64, 75, 124); stroke-linecap: round; stroke-linejoin: round; stroke-miterlimit: 10; stroke-width: 2px;"/>
    <path class="st3" d="M 107.682 397.419 L 153.843 423.344 C 153.843 423.344 158.472 390.789 156.03 370.503" style="fill: none; stroke: rgb(64, 75, 124); stroke-linecap: round; stroke-linejoin: round; stroke-miterlimit: 10; stroke-width: 2px;"/>
  </g>
  <path class="st4" d="M 307.122 280.701 C 280.031 295.903 250.684 401.522 250.684 401.522 C 250.684 401.522 219.318 405.567 217.892 423.626 C 216.466 441.685 223.595 449.98 254.011 449.98 C 284.427 449.98 304.392 444.062 307.717 411.27 C 310.003 388.715 326.889 321.706 326.13 288.906 C 325.785 274.018 307.122 280.701 307.122 280.701 Z" style="fill: rgb(246, 141, 136);"/>
  <path class="st5" d="M 253.06 401.522 C 253.06 401.522 267.855 401.289 273.052 417.804" style="fill: none; stroke: rgb(236, 189, 187); stroke-linecap: round; stroke-linejoin: round; stroke-miterlimit: 10; stroke-width: 1.5px;"/>
  <path class="st7" d="M 233.694 409.844 C 223.12 410.557 219.437 411.745 219.437 411.745 C 219.437 411.745 210.169 420.062 212.308 430.279 C 214.447 440.497 218.961 442.161 218.961 442.161 L 236.783 443.943 C 236.783 443.943 242.724 436.814 243.199 426.893 C 243.674 416.973 233.694 409.844 233.694 409.844 Z" style="fill: rgb(107, 129, 190);"/>
  <path class="st0" d="M 212.427 419.349 C 196.565 419.349 196.031 441.804 196.031 441.804 L 230.13 441.804 C 230.13 441.804 231.674 419.349 212.427 419.349 Z" style="fill: rgb(64, 75, 124);"/>
  <path class="st8" d="M 218.185 412.815 C 206.52 413.012 197.338 418.5 194.714 424.624 C 192.089 430.747 195.151 437.599 198.65 435.995 C 198.65 435.995 200.545 438.036 203.315 436.287 C 203.315 436.287 206.231 438.473 208.272 436.87 C 210.313 435.266 210.75 429.143 213.229 425.207 C 213.229 425.207 210.604 435.412 213.812 437.161 C 217.019 438.911 218.914 430.309 221.539 426.227 C 224.163 422.145 222.705 432.35 221.83 435.995 C 220.955 439.64 231.306 437.453 231.744 427.394 C 232.181 417.334 226.787 412.669 218.185 412.815 Z" style="fill: rgb(236, 189, 187);"/>
  <path class="st9" d="M 203.023 434.719 C 203.023 434.719 203.242 425.753 207.616 420.833" style="fill: none; stroke: rgb(64, 75, 124); stroke-linecap: round; stroke-linejoin: round; stroke-miterlimit: 10; stroke-width: 1.5px;"/>
  <path class="st9" d="M 198.103 433.845 C 198.103 433.845 196.9 425.207 201.493 420.177" style="fill: none; stroke: rgb(64, 75, 124); stroke-linecap: round; stroke-linejoin: round; stroke-miterlimit: 10; stroke-width: 1.5px;"/>
  <path class="st4" d="M 445.978 471.674 L 272.458 471.674 C 276.015 367.766 297.963 300.503 303.437 285.2 C 304.21 283.041 305.824 281.295 307.907 280.337 C 332.241 269.147 359.028 264.024 359.028 264.024 C 390.858 263.874 423.528 290.964 423.528 290.964 C 436.568 325.174 443.758 432.964 445.978 471.674 Z" style="fill: rgb(246, 141, 136);"/>
  <path class="st5" d="M 302.569 288.108 C 297.204 304.527 287.661 337.593 280.664 383.26 C 280.664 383.26 274.688 426.571 273.614 447.967" style="fill: none; stroke: rgb(236, 189, 187); stroke-linecap: round; stroke-linejoin: round; stroke-miterlimit: 10; stroke-width: 1.5px;"/>
  <path class="st7" d="M 362.12 254.302 C 356.85 254.062 350.373 256.29 347.018 257.622 C 345.662 258.16 344.811 259.509 344.886 260.966 L 345.722 277.129 C 345.722 277.129 352.465 285.542 363.685 284.909 C 374.905 284.276 380.306 277.15 380.306 277.15 L 382.022 261.467 C 382.179 260.033 381.43 258.639 380.124 258.024 C 377.333 256.71 371.651 254.737 362.12 254.302 Z" style="fill: rgb(107, 129, 190);"/>
  <path class="st8" d="M 368.776 240.269 L 369.451 247.307 L 371.031 263.847 C 370.682 263.961 370.332 264.056 369.981 264.152 C 363.814 265.834 358.132 265.162 354.076 264.066 L 355.304 255.128 L 357.035 242.618 L 368.776 240.269 Z" style="fill: rgb(236, 189, 187);"/>
  <path class="st0" d="M 368.776 240.269 L 369.451 247.307 C 366.797 250.164 362.45 253.187 355.304 255.128 L 357.035 242.618 L 368.776 240.269 Z" style="fill: rgb(64, 75, 124);"/>
  <path class="st2" d="M 365.634 265.857 C 360.898 266.375 356.759 265.693 353.848 264.906 C 353.344 264.766 352.865 264.624 352.403 264.481 C 349.252 263.488 347.343 262.386 347.265 262.34 C 346.848 262.098 346.708 261.566 346.95 261.15 C 347.19 260.737 347.722 260.594 348.14 260.835 C 348.158 260.845 349.975 261.891 352.922 262.821 C 353.363 262.957 353.828 263.094 354.309 263.227 C 357.914 264.203 363.518 265.009 369.752 263.312 C 370.11 263.214 370.436 263.127 370.759 263.02 C 373.35 262.213 375.887 260.984 378.314 259.365 C 378.709 259.1 379.252 259.204 379.52 259.606 C 379.788 260.005 379.679 260.546 379.279 260.812 C 376.715 262.524 374.026 263.825 371.289 264.678 C 370.949 264.79 370.596 264.886 370.239 264.984 C 368.658 265.415 367.116 265.695 365.634 265.857 Z" style="fill: rgb(154, 179, 218);"/>
  <path class="st8" d="M 332.902 417.27 L 323.991 418.339 C 323.991 418.339 304.387 410.319 299.219 411.032 C 294.051 411.745 277.298 426.18 275.694 431.171 C 274.09 436.161 277.298 442.22 277.298 442.22 L 314.011 442.22 L 319.179 439.369 L 339.674 439.369 L 332.902 417.27 Z" style="fill: rgb(236, 189, 187);"/>
  <path class="st9" d="M 294.229 416.2 C 294.229 416.468 282.288 425.468 278.724 431.26" style="fill: none; stroke: rgb(64, 75, 124); stroke-linecap: round; stroke-linejoin: round; stroke-miterlimit: 10; stroke-width: 1.5px;"/>
  <path class="st9" d="M 298.862 420.478 C 298.862 420.478 286.744 430.369 283.714 435.27" style="fill: none; stroke: rgb(64, 75, 124); stroke-linecap: round; stroke-linejoin: round; stroke-miterlimit: 10; stroke-width: 1.5px;"/>
  <path class="st9" d="M 302.427 426.091 C 302.427 426.091 292.536 434.111 290.486 436.606" style="fill: none; stroke: rgb(64, 75, 124); stroke-linecap: round; stroke-linejoin: round; stroke-miterlimit: 10; stroke-width: 1.5px;"/>
  <path class="st7" d="M 359.698 444.318 C 359.698 444.318 341.718 444.064 336.385 443.088 C 331.053 442.112 326.779 417.202 332.577 411.094 L 355.653 407.344 L 359.698 444.318 Z" style="fill: rgb(107, 129, 190);"/>
  <path class="st4" d="M 420.091 288.448 C 430.643 292.782 437.927 302.629 439.607 313.913 C 448.288 372.225 450.452 430.079 433.703 443.092 C 416.217 456.677 367.253 459.642 356.111 450.68 C 344.969 441.719 347.342 409.294 352.753 403.185 C 358.165 397.076 393.853 394.279 393.853 394.279 C 393.853 394.279 377.718 343.015 381.309 309.612 C 383.453 289.659 403.36 281.576 420.091 288.448 Z" style="fill: rgb(246, 141, 136);"/>
  <path class="st5" d="M 433.703 443.092 C 416.217 456.677 367.253 459.642 356.111 450.68 C 344.969 441.719 347.342 409.294 352.753 403.185 C 358.165 397.076 393.853 394.279 393.853 394.279 C 393.853 394.279 377.718 343.015 381.309 309.612 C 383.026 293.638 396.126 285.273 409.867 286.096" style="fill: none; stroke: rgb(236, 189, 187); stroke-linecap: round; stroke-linejoin: round; stroke-miterlimit: 10; stroke-width: 1.5px;"/>
  <path class="st5" d="M 410.325 415.686 C 395.925 400.658 393.853 394.279 393.853 394.279 C 393.853 394.279 392.288 403.226 398.269 416.987" style="fill: none; stroke: rgb(236, 189, 187); stroke-linecap: round; stroke-linejoin: round; stroke-miterlimit: 10; stroke-width: 1.5px;"/>
  <path class="st7" d="M 349.495 227.842 C 348.631 232.075 346.564 235.654 343.92 238.003 L 343.003 242.5 L 334.9 240.846 C 328.57 239.554 324.848 231.64 326.577 223.165 C 328.307 214.69 334.834 208.867 341.163 210.159 L 349.266 211.813 L 348.348 216.31 C 349.859 219.507 350.359 223.61 349.495 227.842 Z" style="fill: rgb(107, 129, 190);"/>
  <ellipse transform="matrix(0.19998, -0.9798, 0.9798, 0.19998, -7.540419, 527.47998)" class="st0" cx="364.985" cy="286.472" rx="15.662" ry="11.696" style="fill: rgb(64, 75, 124);"/>
  <path class="st8" d="M 354.014 194.305 C 336.261 197.883 336.002 239.689 339.21 245.835 C 342.417 251.981 367.44 246.075 371.288 243.594 C 375.136 241.114 378.571 226.161 378.945 216.534 C 379.318 206.907 374.633 190.148 354.014 194.305 Z" style="fill: rgb(236, 189, 187);"/>
  <path class="st0" d="M 374.49 227.954 L 373.965 222.07 C 373.965 222.07 367.607 217.18 368.649 210.411 C 368.649 210.411 345.994 222.752 328.493 211.594 C 328.493 211.594 331.319 207.007 334.675 205.095 C 334.675 205.095 319.259 193.924 320.141 175.43 C 320.466 168.621 338.431 175.332 344.628 183.091 C 344.628 183.091 338.172 165.71 346.11 155.359 C 348.399 152.376 361.004 165.495 365.404 178.561 C 365.404 178.561 366.445 167.804 370.531 163.503 C 371.916 162.044 378.67 171.644 380.483 187.132 C 380.483 187.132 393.009 193.011 398.429 204.54 C 403.849 216.068 398.563 232.927 374.853 236.708 L 374.49 227.954 Z" style="fill: rgb(64, 75, 124);"/>
  <path class="st8" d="M 374.49 227.954 C 374.49 227.954 379.967 213.927 388.57 217.62 C 397.174 221.314 388.456 238.31 373.311 237.827 L 374.49 227.954 Z" style="fill: rgb(236, 189, 187);"/>
  <g transform="matrix(1, 0, 0, 1, -18.850929, -59.315704)">
    <path class="st0" d="M396.5578613,293.8538513c-0.0405579,0.0044556-0.0813904,0.0063477-0.1225891,0.0048523 c-0.4803772-0.0149841-0.8576355-0.415741-0.8434753-0.8960571c0.0028992-0.1140137,0.4559326-11.3717957,9.7657471-12.517334 c0.0033875-0.0003662,0.0084534-0.0009155,0.0118408-0.0012817c0.4730835-0.0517578,0.8998413,0.2854309,0.9584045,0.758667 c0.059082,0.477417-0.2799377,0.9111938-0.7573547,0.9702454c-7.8453064,0.9656982-8.2362061,10.7436218-8.2390747,10.8422546 C397.3178101,293.4544067,396.9819641,293.8074646,396.5578613,293.8538513z" style="fill: rgb(64, 75, 124);"/>
  </g>
  <g transform="matrix(1, 0, 0, 1, -18.850929, -59.315704)">
    <path class="st0" d="M402.5913391,291.4713135c-0.4173279,0.0456543-0.8189392-0.2182007-0.933197-0.6374512 c-0.0092163-0.0374756-1.0264893-3.7264099-2.7895813-5.7607117 c-0.3150024-0.3630981-0.2759399-0.9128113,0.0880127-1.2279053c0.3607483-0.3130493,0.9117737-0.2775574,1.2269592,0.0872498 c2.0272217,2.3388062,3.1096802,6.2796936,3.1551819,6.4456787c0.1259766,0.4641418-0.1483154,0.9421387-0.6134033,1.0673828 C402.6822205,291.4579468,402.6369629,291.4663391,402.5913391,291.4713135z" style="fill: rgb(64, 75, 124);"/>
  </g>
  <path class="st0" d="M 349.558 233.402 C 349.499 233.409 349.437 233.41 349.375 233.403 C 349.211 233.386 345.351 232.956 344.383 229.594 C 344.28 229.234 344.417 228.848 344.726 228.635 C 347.429 226.775 349.764 221.705 349.788 221.653 C 349.988 221.213 350.507 221.023 350.941 221.223 C 351.379 221.423 351.572 221.939 351.372 222.376 C 351.275 222.589 349.099 227.311 346.268 229.648 C 347.166 231.391 349.529 231.669 349.555 231.671 C 350.031 231.724 350.377 232.152 350.326 232.628 C 350.283 233.043 349.957 233.359 349.558 233.402 Z" style="fill: rgb(64, 75, 124);"/>
  <path class="st0" d="M 357.101 216.753 C 357.101 216.753 357.886 213.322 358.841 212.803 C 359.795 212.284 359.645 213.956 359.645 213.956 C 359.645 213.956 366.72 213.643 366.476 220.668 C 366.476 220.668 364.023 216.417 357.101 216.753 Z" style="fill: rgb(64, 75, 124);"/>
  <path class="st0" d="M 349.027 215.392 C 349.027 215.392 349.754 211.94 349.315 211.044 C 348.875 210.149 348.368 211.728 348.368 211.728 C 348.368 211.728 343.83 208.285 341.445 214.744 C 341.445 214.744 344.598 211.997 349.027 215.392 Z" style="fill: rgb(64, 75, 124);"/>
  <ellipse transform="matrix(0.169274, -0.985569, 0.985569, 0.169274, 15.021335, 547.777466)" class="st0" cx="377.062" cy="283.454" rx="3.354" ry="2.694" style="fill: rgb(64, 75, 124);"/>
  <ellipse transform="matrix(0.169274, -0.985569, 0.985569, 0.169274, 6.374948, 531.663391)" class="st0" cx="363.18" cy="280.526" rx="3.354" ry="2.694" style="fill: rgb(64, 75, 124);"/>
  <path class="st4" d="M 387.908 218.084 L 381.498 216.124 L 379.718 215.584 C 387.908 198.354 380.478 187.134 380.478 187.134 L 381.908 186.564 C 381.908 186.564 381.908 186.564 381.918 186.574 L 390.648 192.774 C 394.808 203.944 387.908 218.084 387.908 218.084 Z" style="fill: rgb(246, 141, 136);"/>
  <path class="st7" d="M 381.498 216.124 L 379.718 215.584 C 387.908 198.354 380.478 187.134 380.478 187.134 L 381.908 186.564 C 381.908 186.564 381.908 186.564 381.918 186.574 C 382.238 187.024 389.838 198.044 381.498 216.124 Z" style="fill: rgb(107, 129, 190);"/>
  <path class="st7" d="M 388.285 232.566 C 387.421 236.799 385.353 240.378 382.71 242.727 L 381.792 247.224 L 373.689 245.57 C 367.36 244.278 363.637 236.364 365.367 227.889 C 367.097 219.414 373.623 213.591 379.953 214.883 L 388.056 216.537 L 387.138 221.034 C 388.649 224.231 389.149 228.334 388.285 232.566 Z" style="fill: rgb(107, 129, 190);"/>
  <ellipse transform="matrix(0.19998, -0.9798, 0.9798, 0.19998, 18.863758, 569.265381)" class="st4" cx="403.775" cy="291.196" rx="15.662" ry="11.696" style="fill: rgb(246, 141, 136);"/>
  <rect x="67.12" y="441.448" class="st0" width="438.653" height="39.921" style="fill: rgb(64, 75, 124);"/>
  <g transform="matrix(1, 0, 0, 1, 60.162781, 0)">
    <title>computer</title>
    <path class="st7" d="M 289.984 374.682 C 291.194 372.74 291.626 370.229 291.008 367.483 L 260.341 231.411 C 258.955 225.259 252.843 220.272 246.691 220.272 L 92.39 220.272 C 88.836 220.272 86.055 221.942 84.599 224.534 L 74.509 234.186 L 86.398 243.111 L 114.427 367.483 C 115.814 373.635 121.925 378.623 128.078 378.623 L 266.906 378.623 L 277.973 386.931 L 287.561 377.154 C 288.545 376.509 289.362 375.675 289.978 374.69 L 289.985 374.683 L 289.984 374.682 Z" style="fill: rgb(107, 129, 190);"/>
    <path class="st4" d="M 270.999 390.002 L 116.698 390.002 C 110.546 390.002 104.435 385.015 103.048 378.863 L 72.382 242.791 C 70.995 236.639 74.859 231.651 81.011 231.651 L 235.312 231.651 C 241.464 231.651 247.575 236.639 248.962 242.791 L 279.628 378.863 C 281.015 385.015 277.151 390.002 270.999 390.002 Z" style="fill: rgb(246, 141, 136);"/>
    <path class="st7" d="M 247.609 364.189 C 248.409 362.905 248.695 361.245 248.286 359.429 L 228.008 269.455 C 227.092 265.387 223.051 262.089 218.983 262.089 L 116.955 262.089 C 114.605 262.089 112.766 263.194 111.804 264.907 L 105.132 271.289 L 112.993 277.191 L 131.527 359.429 C 132.443 363.497 136.485 366.795 140.553 366.795 L 232.349 366.795 L 239.667 372.288 L 246.007 365.824 C 246.657 365.397 247.198 364.846 247.605 364.195 L 247.61 364.189 L 247.609 364.189 Z" style="fill: rgb(107, 129, 190);"/>
    <path class="st4" d="M 235.055 374.319 L 133.028 374.319 C 128.96 374.319 124.919 371.021 124.002 366.953 L 103.725 276.979 C 102.808 272.911 105.363 269.614 109.431 269.614 L 211.458 269.614 C 215.526 269.614 219.567 272.911 220.484 276.979 L 240.761 366.953 C 241.678 371.021 239.123 374.319 235.055 374.319 Z" style="fill: rgb(246, 141, 136);"/>
    <path class="st5" d="M 235.055 374.319 L 133.028 374.319 C 128.96 374.319 124.919 371.021 124.002 366.953 L 103.725 276.979" style="fill: none; stroke: rgb(236, 189, 187); stroke-linecap: round; stroke-linejoin: round; stroke-miterlimit: 10; stroke-width: 1.5px;"/>
    <path class="st4" d="M 150.889 436.444 C 150.889 439.214 148.649 441.444 145.889 441.444 L 113.939 441.444 C 112.169 441.444 110.539 440.524 109.639 438.994 C 108.739 437.474 108.699 435.604 109.549 434.054 L 150.409 359.314 L 183.439 359.314 L 144.009 431.444 L 145.889 431.444 C 148.649 431.444 150.889 433.684 150.889 436.444 Z" style="fill: rgb(246, 141, 136);"/>
    <line class="st5" x1="134.237" y1="388.895" x2="150.409" y2="359.314" style="fill: none; stroke: rgb(236, 189, 187); stroke-linecap: round; stroke-linejoin: round; stroke-miterlimit: 10; stroke-width: 1.5px;"/>
    <path class="st8" d="M 184.209 339.984 L 183.439 359.314 L 150.409 359.314 L 147.399 345.964 C 146.789 343.274 148.479 340.594 151.179 339.984 L 184.209 339.984 Z" style="fill: rgb(236, 189, 187);"/>
    <path class="st7" d="M 180.427 345.966 L 183.434 359.311 L 142.582 434.05 C 141.733 435.603 141.766 437.476 142.669 438.998 C 143.572 440.521 145.199 441.448 146.969 441.448 L 191.227 441.448 C 193.989 441.448 196.227 439.209 196.227 436.448 C 196.227 433.686 193.989 431.448 191.227 431.448 L 155.4 431.448 L 193.114 362.451 C 193.699 361.383 193.873 360.142 193.605 358.954 L 190.182 343.768 C 189.575 341.074 186.899 339.382 184.206 339.989 C 181.512 340.596 179.82 343.272 180.427 345.966 Z" style="fill: rgb(107, 129, 190);"/>
  </g>
</svg>