<?xml version="1.0" encoding="utf-8"?>
<svg viewBox="72.033 34.652 438.653 326.438" xmlns="http://www.w3.org/2000/svg">
  <path class="st4" d="M 312.035 160.422 C 284.944 175.624 255.597 281.243 255.597 281.243 C 255.597 281.243 224.231 285.288 222.805 303.347 C 221.379 321.406 228.508 329.701 258.924 329.701 C 289.34 329.701 309.305 323.783 312.63 290.991 C 314.916 268.436 331.802 201.427 331.043 168.627 C 330.698 153.739 312.035 160.422 312.035 160.422 Z" style="fill: rgb(246, 141, 136);"/>
  <path class="st5" d="M 257.973 281.243 C 257.973 281.243 272.768 281.01 277.965 297.525" style="fill: none; stroke: rgb(236, 189, 187); stroke-linecap: round; stroke-linejoin: round; stroke-miterlimit: 10; stroke-width: 1.5px;"/>
  <path class="st7" d="M 238.607 289.565 C 228.033 290.278 224.35 291.466 224.35 291.466 C 224.35 291.466 215.082 299.783 217.221 310 C 219.36 320.218 223.874 321.882 223.874 321.882 L 241.696 323.664 C 241.696 323.664 247.637 316.535 248.112 306.614 C 248.587 296.694 238.607 289.565 238.607 289.565 Z" style="fill: rgb(107, 129, 190);"/>
  <path class="st0" d="M 217.34 299.07 C 201.478 299.07 200.944 321.525 200.944 321.525 L 235.043 321.525 C 235.043 321.525 236.587 299.07 217.34 299.07 Z" style="fill: rgb(64, 75, 124);"/>
  <path class="st8" d="M 223.098 292.536 C 211.433 292.733 202.251 298.221 199.627 304.345 C 197.002 310.468 200.064 317.32 203.563 315.716 C 203.563 315.716 205.458 317.757 208.228 316.008 C 208.228 316.008 211.144 318.194 213.185 316.591 C 215.226 314.987 215.663 308.864 218.142 304.928 C 218.142 304.928 215.517 315.133 218.725 316.882 C 221.932 318.632 223.827 310.03 226.452 305.948 C 229.076 301.866 227.618 312.071 226.743 315.716 C 225.868 319.361 236.219 317.174 236.657 307.115 C 237.094 297.055 231.7 292.39 223.098 292.536 Z" style="fill: rgb(236, 189, 187);"/>
  <path class="st9" d="M 207.936 314.44 C 207.936 314.44 208.155 305.474 212.529 300.554" style="fill: none; stroke: rgb(64, 75, 124); stroke-linecap: round; stroke-linejoin: round; stroke-miterlimit: 10; stroke-width: 1.5px;"/>
  <path class="st9" d="M 203.016 313.566 C 203.016 313.566 201.813 304.928 206.406 299.898" style="fill: none; stroke: rgb(64, 75, 124); stroke-linecap: round; stroke-linejoin: round; stroke-miterlimit: 10; stroke-width: 1.5px;"/>
  <path class="st4" d="M 450.891 351.395 L 277.371 351.395 C 280.928 247.487 302.876 180.224 308.35 164.921 C 309.123 162.762 310.737 161.016 312.82 160.058 C 337.154 148.868 363.941 143.745 363.941 143.745 C 395.771 143.595 428.441 170.685 428.441 170.685 C 441.481 204.895 448.671 312.685 450.891 351.395 Z" style="fill: rgb(246, 141, 136);"/>
  <path class="st5" d="M 307.482 167.829 C 302.117 184.248 292.574 217.314 285.577 262.981 C 285.577 262.981 279.601 306.292 278.527 327.688" style="fill: none; stroke: rgb(236, 189, 187); stroke-linecap: round; stroke-linejoin: round; stroke-miterlimit: 10; stroke-width: 1.5px;"/>
  <path class="st7" d="M 367.033 134.023 C 361.763 133.783 355.286 136.011 351.931 137.343 C 350.575 137.881 349.724 139.23 349.799 140.687 L 350.635 156.85 C 350.635 156.85 357.378 165.263 368.598 164.63 C 379.818 163.997 385.219 156.871 385.219 156.871 L 386.935 141.188 C 387.092 139.754 386.343 138.36 385.037 137.745 C 382.246 136.431 376.564 134.458 367.033 134.023 Z" style="fill: rgb(107, 129, 190);"/>
  <path class="st8" d="M 373.689 119.99 L 374.364 127.028 L 375.944 143.568 C 375.595 143.682 375.245 143.777 374.894 143.873 C 368.727 145.555 363.045 144.883 358.989 143.787 L 360.217 134.849 L 361.948 122.339 L 373.689 119.99 Z" style="fill: rgb(236, 189, 187);"/>
  <path class="st0" d="M 373.689 119.99 L 374.364 127.028 C 371.71 129.885 367.363 132.908 360.217 134.849 L 361.948 122.339 L 373.689 119.99 Z" style="fill: rgb(64, 75, 124);"/>
  <path class="st2" d="M 370.547 145.578 C 365.811 146.096 361.672 145.414 358.761 144.627 C 358.257 144.487 357.778 144.345 357.316 144.202 C 354.165 143.209 352.256 142.107 352.178 142.061 C 351.761 141.819 351.621 141.287 351.863 140.871 C 352.103 140.458 352.635 140.315 353.053 140.556 C 353.071 140.566 354.888 141.612 357.835 142.542 C 358.276 142.678 358.741 142.815 359.222 142.948 C 362.827 143.924 368.431 144.73 374.665 143.033 C 375.023 142.935 375.349 142.848 375.672 142.741 C 378.263 141.934 380.8 140.705 383.227 139.086 C 383.622 138.821 384.165 138.925 384.433 139.327 C 384.701 139.726 384.592 140.267 384.192 140.533 C 381.628 142.245 378.939 143.546 376.202 144.399 C 375.862 144.511 375.509 144.607 375.152 144.705 C 373.571 145.136 372.029 145.416 370.547 145.578 Z" style="fill: rgb(154, 179, 218);"/>
  <path class="st8" d="M 337.815 296.991 L 328.904 298.06 C 328.904 298.06 309.3 290.04 304.132 290.753 C 298.964 291.466 282.211 305.901 280.607 310.892 C 279.003 315.882 282.211 321.941 282.211 321.941 L 318.924 321.941 L 324.092 319.09 L 344.587 319.09 L 337.815 296.991 Z" style="fill: rgb(236, 189, 187);"/>
  <path class="st9" d="M 299.142 295.921 C 299.142 296.189 287.201 305.189 283.637 310.981" style="fill: none; stroke: rgb(64, 75, 124); stroke-linecap: round; stroke-linejoin: round; stroke-miterlimit: 10; stroke-width: 1.5px;"/>
  <path class="st9" d="M 303.775 300.199 C 303.775 300.199 291.657 310.09 288.627 314.991" style="fill: none; stroke: rgb(64, 75, 124); stroke-linecap: round; stroke-linejoin: round; stroke-miterlimit: 10; stroke-width: 1.5px;"/>
  <path class="st9" d="M 307.34 305.812 C 307.34 305.812 297.449 313.832 295.399 316.327" style="fill: none; stroke: rgb(64, 75, 124); stroke-linecap: round; stroke-linejoin: round; stroke-miterlimit: 10; stroke-width: 1.5px;"/>
  <path class="st7" d="M 364.611 324.039 C 364.611 324.039 346.631 323.785 341.298 322.809 C 335.966 321.833 331.692 296.923 337.49 290.815 L 360.566 287.065 L 364.611 324.039 Z" style="fill: rgb(107, 129, 190);"/>
  <path class="st4" d="M 425.004 168.169 C 435.556 172.503 442.84 182.35 444.52 193.634 C 453.201 251.946 455.365 309.8 438.616 322.813 C 421.13 336.398 372.166 339.363 361.024 330.401 C 349.882 321.44 352.255 289.015 357.666 282.906 C 363.078 276.797 398.766 274 398.766 274 C 398.766 274 382.631 222.736 386.222 189.333 C 388.366 169.38 408.273 161.297 425.004 168.169 Z" style="fill: rgb(246, 141, 136);"/>
  <path class="st5" d="M 438.616 322.813 C 421.13 336.398 372.166 339.363 361.024 330.401 C 349.882 321.44 352.255 289.015 357.666 282.906 C 363.078 276.797 398.766 274 398.766 274 C 398.766 274 382.631 222.736 386.222 189.333 C 387.939 173.359 401.039 164.994 414.78 165.817" style="fill: none; stroke: rgb(236, 189, 187); stroke-linecap: round; stroke-linejoin: round; stroke-miterlimit: 10; stroke-width: 1.5px;"/>
  <path class="st5" d="M 415.238 295.407 C 400.838 280.379 398.766 274 398.766 274 C 398.766 274 397.201 282.947 403.182 296.708" style="fill: none; stroke: rgb(236, 189, 187); stroke-linecap: round; stroke-linejoin: round; stroke-miterlimit: 10; stroke-width: 1.5px;"/>
  <path class="st7" d="M 354.408 107.563 C 353.544 111.796 351.477 115.375 348.833 117.724 L 347.916 122.221 L 339.813 120.567 C 333.483 119.275 329.761 111.361 331.49 102.886 C 333.22 94.411 339.747 88.588 346.076 89.88 L 354.179 91.534 L 353.261 96.031 C 354.772 99.228 355.272 103.331 354.408 107.563 Z" style="fill: rgb(107, 129, 190);"/>
  <ellipse transform="matrix(0.19998, -0.9798, 0.9798, 0.19998, -2.627365, 407.200958)" class="st0" cx="364.985" cy="286.472" rx="15.662" ry="11.696" style="fill: rgb(64, 75, 124);"/>
  <path class="st8" d="M 358.927 74.026 C 341.174 77.604 340.915 119.41 344.123 125.556 C 347.33 131.702 372.353 125.796 376.201 123.315 C 380.049 120.835 383.484 105.882 383.858 96.255 C 384.231 86.628 379.546 69.869 358.927 74.026 Z" style="fill: rgb(236, 189, 187);"/>
  <path class="st0" d="M 379.403 107.675 L 378.878 101.791 C 378.878 101.791 372.52 96.901 373.562 90.132 C 373.562 90.132 350.907 102.473 333.406 91.315 C 333.406 91.315 336.232 86.728 339.588 84.816 C 339.588 84.816 324.172 73.645 325.054 55.151 C 325.379 48.342 343.344 55.053 349.541 62.812 C 349.541 62.812 343.085 45.431 351.023 35.08 C 353.312 32.097 365.917 45.216 370.317 58.282 C 370.317 58.282 371.358 47.525 375.444 43.224 C 376.829 41.765 383.583 51.365 385.396 66.853 C 385.396 66.853 397.922 72.732 403.342 84.261 C 408.762 95.789 403.476 112.648 379.766 116.429 L 379.403 107.675 Z" style="fill: rgb(64, 75, 124);"/>
  <path class="st8" d="M 379.403 107.675 C 379.403 107.675 384.88 93.648 393.483 97.341 C 402.087 101.035 393.369 118.031 378.224 117.548 L 379.403 107.675 Z" style="fill: rgb(236, 189, 187);"/>
  <path class="st0" d="M 354.471 113.123 C 354.412 113.13 354.35 113.131 354.288 113.124 C 354.124 113.107 350.264 112.677 349.296 109.315 C 349.193 108.955 349.33 108.569 349.639 108.356 C 352.342 106.496 354.677 101.426 354.701 101.374 C 354.901 100.934 355.42 100.744 355.854 100.944 C 356.292 101.144 356.485 101.66 356.285 102.097 C 356.188 102.31 354.012 107.032 351.181 109.369 C 352.079 111.112 354.442 111.39 354.468 111.392 C 354.944 111.445 355.29 111.873 355.239 112.349 C 355.196 112.764 354.87 113.08 354.471 113.123 Z" style="fill: rgb(64, 75, 124);"/>
  <path class="st0" d="M 362.014 96.474 C 362.014 96.474 362.799 93.043 363.754 92.524 C 364.708 92.005 364.558 93.677 364.558 93.677 C 364.558 93.677 371.633 93.364 371.389 100.389 C 371.389 100.389 368.936 96.138 362.014 96.474 Z" style="fill: rgb(64, 75, 124);"/>
  <path class="st0" d="M 353.94 95.113 C 353.94 95.113 354.667 91.661 354.228 90.765 C 353.788 89.87 353.281 91.449 353.281 91.449 C 353.281 91.449 348.743 88.006 346.358 94.465 C 346.358 94.465 349.511 91.718 353.94 95.113 Z" style="fill: rgb(64, 75, 124);"/>
  <ellipse transform="matrix(0.169274, -0.985569, 0.985569, 0.169274, 19.934374, 427.498444)" class="st0" cx="377.062" cy="283.454" rx="3.354" ry="2.694" style="fill: rgb(64, 75, 124);"/>
  <ellipse transform="matrix(0.169274, -0.985569, 0.985569, 0.169274, 11.287988, 411.384369)" class="st0" cx="363.18" cy="280.526" rx="3.354" ry="2.694" style="fill: rgb(64, 75, 124);"/>
  <path class="st4" d="M 392.821 97.805 L 386.411 95.845 L 384.631 95.305 C 392.821 78.075 385.391 66.855 385.391 66.855 L 386.821 66.285 C 386.821 66.285 386.821 66.285 386.831 66.295 L 395.561 72.495 C 399.721 83.665 392.821 97.805 392.821 97.805 Z" style="fill: rgb(246, 141, 136);"/>
  <path class="st7" d="M 386.411 95.845 L 384.631 95.305 C 392.821 78.075 385.391 66.855 385.391 66.855 L 386.821 66.285 C 386.821 66.285 386.821 66.285 386.831 66.295 C 387.151 66.745 394.751 77.765 386.411 95.845 Z" style="fill: rgb(107, 129, 190);"/>
  <path class="st7" d="M 393.198 112.287 C 392.334 116.52 390.266 120.099 387.623 122.448 L 386.705 126.945 L 378.602 125.291 C 372.273 123.999 368.55 116.085 370.28 107.61 C 372.01 99.135 378.536 93.312 384.866 94.604 L 392.969 96.258 L 392.051 100.755 C 393.562 103.952 394.062 108.055 393.198 112.287 Z" style="fill: rgb(107, 129, 190);"/>
  <ellipse transform="matrix(0.19998, -0.9798, 0.9798, 0.19998, 23.776815, 448.986359)" class="st4" cx="403.775" cy="291.196" rx="15.662" ry="11.696" style="fill: rgb(246, 141, 136);"/>
  <rect x="72.033" y="321.169" class="st0" width="438.653" height="39.921" style="fill: rgb(64, 75, 124);"/>
  <g transform="matrix(1, 0, 0, 1, 57.973969, -120.278992)">
    <title>computer</title>
    <path class="st7" d="M 289.984 374.682 C 291.194 372.74 291.626 370.229 291.008 367.483 L 260.341 231.411 C 258.955 225.259 252.843 220.272 246.691 220.272 L 92.39 220.272 C 88.836 220.272 86.055 221.942 84.599 224.534 L 74.509 234.186 L 86.398 243.111 L 114.427 367.483 C 115.814 373.635 121.925 378.623 128.078 378.623 L 266.906 378.623 L 277.973 386.931 L 287.561 377.154 C 288.545 376.509 289.362 375.675 289.978 374.69 L 289.985 374.683 L 289.984 374.682 Z" style="fill: rgb(107, 129, 190);"/>
    <path class="st4" d="M 270.999 390.002 L 116.698 390.002 C 110.546 390.002 104.435 385.015 103.048 378.863 L 72.382 242.791 C 70.995 236.639 74.859 231.651 81.011 231.651 L 235.312 231.651 C 241.464 231.651 247.575 236.639 248.962 242.791 L 279.628 378.863 C 281.015 385.015 277.151 390.002 270.999 390.002 Z" style="fill: rgb(246, 141, 136);"/>
    <path class="st7" d="M 247.609 364.189 C 248.409 362.905 248.695 361.245 248.286 359.429 L 228.008 269.455 C 227.092 265.387 223.051 262.089 218.983 262.089 L 116.955 262.089 C 114.605 262.089 112.766 263.194 111.804 264.907 L 105.132 271.289 L 112.993 277.191 L 131.527 359.429 C 132.443 363.497 136.485 366.795 140.553 366.795 L 232.349 366.795 L 239.667 372.288 L 246.007 365.824 C 246.657 365.397 247.198 364.846 247.605 364.195 L 247.61 364.189 L 247.609 364.189 Z" style="fill: rgb(107, 129, 190);"/>
    <path class="st4" d="M 235.055 374.319 L 133.028 374.319 C 128.96 374.319 124.919 371.021 124.002 366.953 L 103.725 276.979 C 102.808 272.911 105.363 269.614 109.431 269.614 L 211.458 269.614 C 215.526 269.614 219.567 272.911 220.484 276.979 L 240.761 366.953 C 241.678 371.021 239.123 374.319 235.055 374.319 Z" style="fill: rgb(246, 141, 136);"/>
    <path class="st5" d="M 235.055 374.319 L 133.028 374.319 C 128.96 374.319 124.919 371.021 124.002 366.953 L 103.725 276.979" style="fill: none; stroke: rgb(236, 189, 187); stroke-linecap: round; stroke-linejoin: round; stroke-miterlimit: 10; stroke-width: 1.5px;"/>
    <path class="st4" d="M 150.889 436.444 C 150.889 439.214 148.649 441.444 145.889 441.444 L 113.939 441.444 C 112.169 441.444 110.539 440.524 109.639 438.994 C 108.739 437.474 108.699 435.604 109.549 434.054 L 150.409 359.314 L 183.439 359.314 L 144.009 431.444 L 145.889 431.444 C 148.649 431.444 150.889 433.684 150.889 436.444 Z" style="fill: rgb(246, 141, 136);"/>
    <line class="st5" x1="134.237" y1="388.895" x2="150.409" y2="359.314" style="fill: none; stroke: rgb(236, 189, 187); stroke-linecap: round; stroke-linejoin: round; stroke-miterlimit: 10; stroke-width: 1.5px;"/>
    <path class="st8" d="M 184.209 339.984 L 183.439 359.314 L 150.409 359.314 L 147.399 345.964 C 146.789 343.274 148.479 340.594 151.179 339.984 L 184.209 339.984 Z" style="fill: rgb(236, 189, 187);"/>
    <path class="st7" d="M 180.427 345.966 L 183.434 359.311 L 142.582 434.05 C 141.733 435.603 141.766 437.476 142.669 438.998 C 143.572 440.521 145.199 441.448 146.969 441.448 L 191.227 441.448 C 193.989 441.448 196.227 439.209 196.227 436.448 C 196.227 433.686 193.989 431.448 191.227 431.448 L 155.4 431.448 L 193.114 362.451 C 193.699 361.383 193.873 360.142 193.605 358.954 L 190.182 343.768 C 189.575 341.074 186.899 339.382 184.206 339.989 C 181.512 340.596 179.82 343.272 180.427 345.966 Z" style="fill: rgb(107, 129, 190);"/>
  </g>
</svg>