<?xml version="1.0" encoding="utf-8"?>
<svg viewBox="152.822 19.618 209.624 484.14" xmlns="http://www.w3.org/2000/svg">
  <path d="M 99.76069641113281 61.78269958496094 Q 99.76069641113281 51.34568786621094 106.46235656738281 40.63401794433594 Q 113.16401672363281 29.922348022460938 126.01802062988281 22.891098022460938 Q 138.8720245361328 15.859848022460938 156.0106964111328 15.859848022460938 Q 171.9408721923828 15.859848022460938 184.1356964111328 21.737533569335938 Q 196.3305206298828 27.615219116210938 202.9772491455078 37.72264099121094 Q 209.6239776611328 47.83006286621094 209.6239776611328 59.69529724121094 Q 209.6239776611328 69.03367614746094 205.8336944580078 76.06492614746094 Q 202.0434112548828 83.09617614746094 196.8249053955078 88.20481872558594 Q 191.6063995361328 93.31346130371094 178.0932159423828 105.39842224121094 Q 174.3578643798828 108.80418395996094 172.1056671142578 111.38597106933594 Q 169.8534698486328 113.96775817871094 168.7548370361328 116.11009216308594 Q 167.6562042236328 118.25242614746094 167.0519561767578 120.39476013183594 Q 166.4477081298828 122.53709411621094 165.2392120361328 127.92039489746094 Q 163.1518096923828 139.34617614746094 152.1654815673828 139.34617614746094 Q 146.4525909423828 139.34617614746094 142.5524444580078 135.61082458496094 Q 138.6522979736328 131.87547302246094 138.6522979736328 124.51463317871094 Q 138.6522979736328 115.28611755371094 141.5087432861328 108.52952575683594 Q 144.3651885986328 101.77293395996094 149.0893096923828 96.66429138183594 Q 153.8134307861328 91.55564880371094 161.8334503173828 84.52439880371094 Q 168.8647003173828 78.37205505371094 171.9958038330078 75.24095153808594 Q 175.1269073486328 72.10984802246094 177.2692413330078 68.26463317871094 Q 179.4115753173828 64.41941833496094 179.4115753173828 59.91502380371094 Q 179.4115753173828 51.12596130371094 172.8747100830078 45.08348083496094 Q 166.3378448486328 39.04100036621094 156.0106964111328 39.04100036621094 Q 143.9257354736328 39.04100036621094 138.2128448486328 45.13841247558594 Q 132.4999542236328 51.23582458496094 128.5448760986328 63.10105895996094 Q 124.80952453613281 75.51560974121094 114.37251281738281 75.51560974121094 Q 108.22016906738281 75.51560974121094 103.99043273925781 71.17601013183594 Q 99.76069641113281 66.83641052246094 99.76069641113281 61.78269958496094 Z M 153.3739776611328 182.19285583496094 Q 146.6723175048828 182.19285583496094 141.6735382080078 177.85325622558594 Q 136.6747589111328 173.51365661621094 136.6747589111328 165.71336364746094 Q 136.6747589111328 158.79197692871094 141.5087432861328 154.06785583496094 Q 146.3427276611328 149.34373474121094 153.3739776611328 149.34373474121094 Q 160.2953643798828 149.34373474121094 165.0194854736328 154.06785583496094 Q 169.7436065673828 158.79197692871094 169.7436065673828 165.71336364746094 Q 169.7436065673828 173.40379333496094 164.7997589111328 177.79832458496094 Q 159.8559112548828 182.19285583496094 153.3739776611328 182.19285583496094 Z" style="fill: rgb(64, 75, 125); white-space: pre; stroke: rgb(255, 255, 255);" transform="matrix(1, 0, 0, 1, 152.82225, 3.758023)"/>
  <polygon class="cls-6" points="116.783 439.63 116.413 449.28 115.903 462.63 106.903 462.63 105.983 452.92 104.653 438.88 116.783 439.63" style="fill: rgb(236, 189, 187);" transform="matrix(1, 0, 0, 1, 152.82225, 3.758023)"/>
  <polygon class="cls-1" points="116.783 439.63 116.413 449.28 105.983 452.92 104.653 438.88 116.783 439.63" style="fill: rgb(64, 75, 124);" transform="matrix(1, 0, 0, 1, 152.82225, 3.758023)"/>
  <path class="cls-1" d="M 99.113 499.55 L 143.243 499.68 C 143.243 499.68 145.083 482.14 130.703 479.89 C 130.27 479.82 129.845 479.71 129.433 479.56 C 121.653 476.69 118.033 459.39 118.033 459.39 C 118.033 459.39 108.783 457.14 103.283 460.27 C 103.283 460.27 99.553 478.37 98.953 493.89 C 98.863 495.96 99.053 497.62 99.113 499.55 Z" style="fill: rgb(64, 75, 124);" transform="matrix(1, 0, 0, 1, 152.82225, 3.758023)"/>
  <path class="cls-2" d="M 123.963 483.32 C 123.9 483.332 123.836 483.332 123.773 483.32 C 120.972 481.918 118.605 479.782 116.923 477.14 C 112.923 471.32 110.213 460.56 110.103 460.14 C 110.011 459.755 110.37 459.415 110.749 459.527 C 110.925 459.579 111.06 459.721 111.103 459.9 C 111.103 460.01 113.873 470.9 117.783 476.61 C 119.354 479.052 121.536 481.041 124.113 482.38 C 124.456 482.554 124.482 483.035 124.16 483.245 C 124.1 483.284 124.033 483.309 123.963 483.32 Z" style="fill: rgb(154, 179, 218);" transform="matrix(1, 0, 0, 1, 152.82225, 3.758023)"/>
  <path class="cls-2" d="M 98.663 500 L 143.533 500 C 143.533 500 145.283 481.88 130.903 479.63 C 130.47 479.56 130.045 479.45 129.633 479.3 C 125.453 480.83 119.923 484.62 117.863 493.96 L 98.703 493.96 C 98.623 496.04 98.603 498.07 98.663 500 Z" style="fill: rgb(154, 179, 218);" transform="matrix(1, 0, 0, 1, 152.82225, 3.758023)"/>
  <ellipse class="cls-2" cx="106.313" cy="478.01" rx="3.03" ry="5.88" style="fill: rgb(154, 179, 218);" transform="matrix(1, 0, 0, 1, 152.82225, 3.758023)"/>
  <path class="cls-3" d="M 102.443 435.55 C 102.443 435.55 90.783 348.05 87.113 324.71 C 87.113 324.71 82.113 251.38 101.113 250.04 C 120.113 248.7 127.783 269.71 129.113 284.04 C 130.443 298.37 122.113 417.37 118.443 436.04 L 102.443 435.55 Z" style="fill: rgb(246, 141, 136);" transform="matrix(1, 0, 0, 1, 152.82225, 3.758023)"/>
  <path class="cls-6" d="M 126.743 282.31 C 126.677 282.326 126.609 282.326 126.543 282.31 C 118.703 278.31 116.653 267.95 116.543 267.51 C 116.516 267.18 116.856 266.945 117.156 267.086 C 117.265 267.138 117.348 267.234 117.383 267.35 C 117.383 267.45 119.443 277.69 126.913 281.55 C 127.175 281.752 127.119 282.162 126.813 282.288 C 126.79 282.297 126.767 282.305 126.743 282.31 Z" style="fill: rgb(236, 189, 187);" transform="matrix(1, 0, 0, 1, 152.82225, 3.758023)"/>
  <ellipse class="cls-4" cx="283.77" cy="330.75" rx="13" ry="8.44" transform="matrix(0.002269, -0.999997, 0.999997, 0.002269, -63.714924, 648.878174)" style="fill: rgb(249, 212, 212);"/>
  <path class="cls-6" d="M 107.113 434.81 C 106.89 434.811 106.704 434.642 106.683 434.42 C 102.483 383.27 94.263 311.9 94.183 311.18 C 94.112 310.857 94.418 310.578 94.734 310.678 C 94.909 310.734 95.03 310.896 95.033 311.08 C 95.113 311.79 103.333 383.18 107.533 434.34 C 107.55 434.574 107.377 434.779 107.143 434.8 L 107.113 434.81 Z" style="fill: rgb(236, 189, 187);" transform="matrix(1, 0, 0, 1, 152.82225, 3.758023)"/>
  <path class="cls-4" d="M 97.443 434.55 C 97.443 434.55 112.113 429.88 123.273 435.05 L 121.603 448.22 L 98.273 448.39 L 97.443 434.55 Z" style="fill: rgb(249, 212, 212);" transform="matrix(1, 0, 0, 1, 152.82225, 3.758023)"/>
  <path class="cls-6" d="M 95.493 298.93 C 95.162 298.94 94.945 298.588 95.102 298.296 C 95.15 298.207 95.228 298.137 95.323 298.1 C 98.423 296.81 101.883 295.02 102.073 294.37 C 102.343 293.43 102.953 276.73 103.303 265.73 C 103.296 265.487 103.501 265.292 103.743 265.31 C 103.981 265.315 104.169 265.512 104.163 265.75 C 104.073 268.57 103.273 293.34 102.893 294.61 C 102.513 295.88 97.243 298.22 95.643 298.88 C 95.597 298.906 95.546 298.923 95.493 298.93 Z" style="fill: rgb(236, 189, 187);" transform="matrix(1, 0, 0, 1, 152.82225, 3.758023)"/>
  <path class="cls-3" d="M 65.863 264.01 C 65.863 264.01 60.863 269.39 60.743 270.51 C 60.623 271.63 38.743 404.39 35.743 441.05 L 50.413 441.05 C 50.413 441.05 96.743 309.05 97.743 303.38 C 98.743 297.71 99.743 264.71 99.413 255.38 C 99.083 246.05 75.613 247.3 65.863 264.01 Z" style="fill: rgb(246, 141, 136);" transform="matrix(1, 0, 0, 1, 152.82225, 3.758023)"/>
  <path class="cls-6" d="M 97.783 303.81 L 97.703 303.81 C 97.468 303.769 97.311 303.545 97.353 303.31 C 98.113 299.02 98.923 277.98 99.063 263.77 C 99.044 263.525 99.248 263.321 99.493 263.34 C 99.727 263.345 99.913 263.536 99.913 263.77 C 99.793 276.51 99.013 298.77 98.193 303.45 C 98.16 303.652 97.988 303.803 97.783 303.81 Z" style="fill: rgb(236, 189, 187);" transform="matrix(1, 0, 0, 1, 152.82225, 3.758023)"/>
  <path class="cls-6" d="M 61.363 284.81 C 61.032 284.81 60.825 284.452 60.991 284.165 C 61.067 284.032 61.209 283.95 61.363 283.95 C 61.753 283.95 71.043 283.18 72.963 271.06 C 72.994 270.822 73.217 270.658 73.453 270.7 C 73.688 270.736 73.849 270.955 73.813 271.19 C 71.813 284.01 61.523 284.79 61.413 284.8 L 61.363 284.81 Z" style="fill: rgb(236, 189, 187);" transform="matrix(1, 0, 0, 1, 152.82225, 3.758023)"/>
  <path class="cls-6" d="M 50.113 432.31 L 49.973 432.31 C 49.751 432.234 49.63 431.994 49.703 431.77 L 91.453 308.77 C 91.535 308.449 91.933 308.337 92.17 308.569 C 92.298 308.694 92.336 308.886 92.263 309.05 L 50.513 432.05 C 50.444 432.209 50.287 432.312 50.113 432.31 Z" style="fill: rgb(236, 189, 187);" transform="matrix(1, 0, 0, 1, 152.82225, 3.758023)"/>
  <ellipse class="cls-4" cx="225.94" cy="330.75" rx="13" ry="8.44" transform="matrix(0.16367, -0.986515, 0.986515, 0.16367, -153.404648, 534.637939)" style="fill: rgb(249, 212, 212);"/>
  <polygon class="cls-6" points="48.863 438.88 45.743 452.69 43.493 462.63 34.493 462.63 35.973 447.4 36.733 439.63 48.863 438.88" style="fill: rgb(236, 189, 187);" transform="matrix(1, 0, 0, 1, 152.82225, 3.758023)"/>
  <polygon class="cls-1" points="36.733 439.63 48.863 438.88 45.743 452.69 35.973 447.4 36.733 439.63" style="fill: rgb(64, 75, 124);" transform="matrix(1, 0, 0, 1, 152.82225, 3.758023)"/>
  <path class="cls-1" d="M 51.173 499.38 L 7.483 499.63 C 7.483 499.63 5.223 482.38 19.613 480.13 C 20.104 480.023 20.586 479.876 21.053 479.69 C 28.833 476.82 32.363 459.38 32.363 459.38 C 32.363 459.38 41.613 457.13 47.113 460.26 C 47.113 460.26 50.763 478.26 51.363 493.82 C 51.443 495.9 51.233 497.45 51.173 499.38 Z" style="fill: rgb(64, 75, 124);" transform="matrix(1, 0, 0, 1, 152.82225, 3.758023)"/>
  <path class="cls-2" d="M 26.423 483.32 C 26.038 483.393 25.718 483.022 25.847 482.652 C 25.907 482.481 26.054 482.354 26.233 482.32 C 28.842 480.977 31.049 478.97 32.633 476.5 C 36.533 470.83 39.283 459.9 39.313 459.79 C 39.405 459.405 39.88 459.265 40.167 459.537 C 40.3 459.663 40.356 459.851 40.313 460.03 C 40.203 460.49 37.493 471.25 33.493 477.03 C 31.812 479.672 29.444 481.808 26.643 483.21 C 26.58 483.264 26.504 483.302 26.423 483.32 Z" style="fill: rgb(154, 179, 218);" transform="matrix(1, 0, 0, 1, 152.82225, 3.758023)"/>
  <path class="cls-2" d="M 51.733 500 L 6.863 500 C 6.863 500 5.113 481.88 19.493 479.63 C 19.926 479.56 20.351 479.45 20.763 479.3 C 24.943 480.83 30.473 484.62 32.533 493.96 L 51.693 493.96 C 51.773 496.04 51.793 498.07 51.733 500 Z" style="fill: rgb(154, 179, 218);" transform="matrix(1, 0, 0, 1, 152.82225, 3.758023)"/>
  <ellipse class="cls-2" cx="44.083" cy="478.01" rx="3.03" ry="5.88" style="fill: rgb(154, 179, 218);" transform="matrix(1, 0, 0, 1, 152.82225, 3.758023)"/>
  <path class="cls-4" d="M 31.783 433.21 L 30.113 447.55 L 52.283 449.05 L 55.783 435.72 C 55.783 435.72 43.283 430.21 31.783 433.21 Z" style="fill: rgb(249, 212, 212);" transform="matrix(1, 0, 0, 1, 152.82225, 3.758023)"/>
  <path class="cls-2" d="M 125.863 178.26 C 125.863 178.26 146.533 202.78 155.323 228.84 C 156.076 231.081 155.954 233.524 154.983 235.68 C 151.983 242.29 146.383 256.05 142.983 258.05 C 139.583 260.05 126.483 255.88 126.733 249.88 C 126.983 243.88 131.383 229.13 131.383 229.13 C 131.383 229.13 119.633 215.63 110.883 203.38 C 102.133 191.13 111.613 168.13 125.863 178.26 Z" style="fill: rgb(154, 179, 218);" transform="matrix(1, 0, 0, 1, 152.82225, 3.758023)"/>
  <path class="cls-1" d="M 146.613 230.38 C 146.526 230.382 146.44 230.361 146.363 230.32 C 138.313 225.78 132.953 229.42 132.893 229.46 C 132.589 229.696 132.143 229.514 132.091 229.133 C 132.065 228.937 132.155 228.744 132.323 228.64 C 132.563 228.47 138.263 224.64 146.853 229.45 C 147.184 229.646 147.179 230.127 146.843 230.316 C 146.773 230.356 146.694 230.378 146.613 230.38 Z" style="fill: rgb(64, 75, 124);" transform="matrix(1, 0, 0, 1, 152.82225, 3.758023)"/>
  <path class="cls-1" d="M 128.053 250.13 L 125.703 256.88 C 126.592 259.293 128.385 261.266 130.703 262.38 C 132.975 263.571 135.566 264.009 138.103 263.63 L 142.623 255.63 C 142.623 255.63 137.633 246.8 128.053 250.13 Z" style="fill: rgb(64, 75, 124);" transform="matrix(1, 0, 0, 1, 152.82225, 3.758023)"/>
  <path class="cls-6" d="M 135.963 261.96 C 133.363 267.07 126.963 277.88 124.963 280.78 C 122.432 278.834 120.422 276.292 119.113 273.38 C 122.513 267.17 126.733 257.28 126.733 257.28 C 133.543 255.46 135.963 261.96 135.963 261.96 Z" style="fill: rgb(236, 189, 187);" transform="matrix(1, 0, 0, 1, 152.82225, 3.758023)"/>
  <polygon class="cls-6" points="91.363 163.26 82.303 163 84.103 144.7 84.173 143.94 91.233 145 91.283 151.43 91.363 163.26" style="fill: rgb(236, 189, 187);" transform="matrix(1, 0, 0, 1, 152.82225, 3.758023)"/>
  <path class="cls-1" d="M 91.283 151.38 C 86.703 149.97 84.843 147.02 84.103 144.65 L 84.173 143.89 L 91.233 144.95 L 91.283 151.38 Z" style="fill: rgb(64, 75, 124);" transform="matrix(1, 0, 0, 1, 152.82225, 3.758023)"/>
  <path class="cls-1" d="M 63.113 253.26 C 63.493 253.26 63.243 265.51 63.613 265.51 C 63.983 265.51 71.993 268.64 80.493 268.26 C 88.993 267.88 115.493 267.14 122.743 262.14 L 123.123 249.64 C 104.113 255.92 84.113 256.68 63.113 253.26 Z" style="fill: rgb(64, 75, 124);" transform="matrix(1, 0, 0, 1, 152.82225, 3.758023)"/>
  <path class="cls-4" d="M 93.343 255.27 C 93.343 255.27 93.593 267.66 93.583 268.16 C 93.573 268.66 108.163 267.72 108.733 267.49 C 109.303 267.26 108.943 254.24 108.943 254.24 C 108.943 254.24 103.363 254.94 93.343 255.27 Z" style="fill: rgb(249, 212, 212);" transform="matrix(1, 0, 0, 1, 152.82225, 3.758023)"/>
  <path class="cls-4" d="M 70.743 253.63 C 70.743 253.63 70.553 268.01 70.743 268.32 C 70.933 268.63 74.373 268.95 74.373 268.95 C 74.373 268.95 74.313 253.76 74.123 253.7 C 73.933 253.64 71.053 253.19 70.743 253.63 Z" style="fill: rgb(249, 212, 212);" transform="matrix(1, 0, 0, 1, 152.82225, 3.758023)"/>
  <path class="cls-4" d="M 80.993 254.32 C 80.993 254.32 80.803 268.7 80.993 269.01 C 81.183 269.32 84.373 269.01 84.373 269.01 C 84.373 269.01 84.563 254.45 84.373 254.39 C 84.183 254.33 81.303 253.88 80.993 254.32 Z" style="fill: rgb(249, 212, 212);" transform="matrix(1, 0, 0, 1, 152.82225, 3.758023)"/>
  <path class="cls-4" d="M 118.263 250.62 C 118.263 250.62 118.403 264.97 118.263 265.31 C 118.123 265.65 115.713 265.75 115.713 265.75 C 115.713 265.75 115.573 251.21 115.713 251.12 C 115.853 251.03 118.023 250.23 118.263 250.62 Z" style="fill: rgb(249, 212, 212);" transform="matrix(1, 0, 0, 1, 152.82225, 3.758023)"/>
  <path class="cls-1" d="M 75.053 156.63 C 83.519 153.174 93.113 153.87 100.993 158.51 L 100.243 166.64 L 76.683 168.2 L 75.053 156.63 Z" style="fill: rgb(64, 75, 124);" transform="matrix(1, 0, 0, 1, 152.82225, 3.758023)"/>
  <path class="cls-2" d="M 127.113 248.38 L 123.493 251 C 123.493 251 98.363 259.88 62.993 255.13 L 55.363 248.13 C 55.491 240.477 55.12 232.824 54.253 225.22 C 53.872 221.936 53.24 218.687 52.363 215.5 C 52.363 215.43 52.363 215.35 52.293 215.26 C 50.953 210.49 50.293 203.13 49.893 195.94 C 49.613 190.19 49.543 184.56 49.543 180.45 C 49.543 176.62 49.613 174.13 49.613 174.13 C 49.993 174.13 69.363 163.26 87.493 163 C 105.623 162.74 125.863 178.26 125.863 178.26 C 125.863 178.26 130.363 217.38 127.113 248.38 Z" style="fill: rgb(154, 179, 218);" transform="matrix(1, 0, 0, 1, 152.82225, 3.758023)"/>
  <path class="cls-1" d="M 128.293 223 C 128.017 223 127.793 222.776 127.793 222.5 C 127.793 204.38 126.313 187.65 125.683 181.31 C 125.654 181.033 125.856 180.786 126.133 180.76 C 126.408 180.737 126.652 180.936 126.683 181.21 C 127.313 187.57 128.783 204.33 128.803 222.5 C 128.803 222.776 128.579 223 128.303 223 L 128.293 223 Z" style="fill: rgb(64, 75, 124);" transform="matrix(1, 0, 0, 1, 152.82225, 3.758023)"/>
  <path class="cls-1" d="M 59.193 199.21 C 58.683 206.41 57.403 218.53 54.253 225.21 C 53.872 221.926 53.24 218.677 52.363 215.49 C 52.363 215.42 52.363 215.34 52.293 215.25 C 50.953 210.48 50.293 203.12 49.893 195.93 C 49.613 190.18 49.543 184.55 49.543 180.44 C 51.982 182.291 54.103 184.527 55.823 187.06 C 58.312 190.601 59.503 194.893 59.193 199.21 Z" style="fill: rgb(64, 75, 124);" transform="matrix(1, 0, 0, 1, 152.82225, 3.758023)"/>
  <path class="cls-1" d="M 104.863 253.13 C 104.587 253.119 104.372 252.886 104.383 252.61 C 106.603 204.04 89.103 165.85 88.933 165.47 C 88.771 165.12 89.049 164.726 89.434 164.761 C 89.612 164.777 89.768 164.887 89.843 165.05 C 90.023 165.43 107.623 203.85 105.393 252.66 C 105.377 252.936 105.139 253.147 104.863 253.13 Z" style="fill: rgb(64, 75, 124);" transform="matrix(1, 0, 0, 1, 152.82225, 3.758023)"/>
  <path class="cls-1" d="M 108.613 253.13 C 108.337 253.119 108.122 252.886 108.133 252.61 C 110.353 204.06 93.223 166.34 93.053 165.97 C 92.891 165.62 93.169 165.226 93.554 165.261 C 93.732 165.277 93.888 165.387 93.963 165.55 C 94.133 165.93 111.363 203.85 109.133 252.66 C 109.117 252.932 108.886 253.141 108.613 253.13 Z" style="fill: rgb(64, 75, 124);" transform="matrix(1, 0, 0, 1, 152.82225, 3.758023)"/>
  <path class="cls-1" d="M 63.113 246.96 C 62.837 246.955 62.617 246.726 62.623 246.45 C 62.873 235.29 58.833 209.13 58.793 208.87 C 58.735 208.485 59.116 208.182 59.478 208.324 C 59.646 208.391 59.766 208.541 59.793 208.72 C 59.793 208.98 63.883 235.23 63.633 246.47 C 63.628 246.75 63.393 246.971 63.113 246.96 Z" style="fill: rgb(64, 75, 124);" transform="matrix(1, 0, 0, 1, 152.82225, 3.758023)"/>
  <path class="cls-2" d="M 49.613 174.13 L 20.863 203.26 L 9.113 238.38 C 9.113 238.38 32.243 235.26 53.743 212.26 C 57.618 206.089 59.615 198.925 59.493 191.64 C 59.508 184.472 55.756 177.823 49.613 174.13 Z" style="fill: rgb(154, 179, 218);" transform="matrix(1, 0, 0, 1, 152.82225, 3.758023)"/>
  <path class="cls-1" d="M 53.733 212.76 C 53.348 212.762 53.105 212.347 53.296 212.012 C 53.304 211.998 53.313 211.984 53.323 211.97 C 57.119 205.876 59.084 198.819 58.983 191.64 C 58.983 185.63 56.281 179.938 51.623 176.14 C 51.351 175.867 51.476 175.403 51.848 175.304 C 51.987 175.267 52.134 175.291 52.253 175.37 C 57.143 179.357 59.981 185.331 59.983 191.64 C 60.074 199.029 58.036 206.288 54.113 212.55 C 54.025 212.674 53.885 212.752 53.733 212.76 Z" style="fill: rgb(64, 75, 124);" transform="matrix(1, 0, 0, 1, 152.82225, 3.758023)"/>
  <path class="cls-2" d="M 15.113 174.63 C 15.113 174.63 8.863 180.38 6.243 185.01 C 3.623 189.64 -1.127 218.51 0.243 226.14 C 1.613 233.77 9.113 238.38 9.113 238.38 C 9.113 238.38 23.113 233.13 25.613 220.26 C 28.113 207.39 28.993 191.76 28.613 188.01 C 28.233 184.26 25.363 178.64 25.363 178.64 L 15.113 174.63 Z" style="fill: rgb(154, 179, 218);" transform="matrix(1, 0, 0, 1, 152.82225, 3.758023)"/>
  <path class="cls-1" d="M 16.823 234.38 C 16.438 234.378 16.2 233.96 16.394 233.628 C 16.425 233.575 16.465 233.528 16.513 233.49 C 21.243 229.75 24.133 225.28 25.123 220.21 C 26.374 213.463 27.255 206.653 27.763 199.81 C 27.779 199.531 28.025 199.321 28.303 199.35 C 28.58 199.371 28.786 199.614 28.763 199.89 C 28.253 206.763 27.369 213.603 26.113 220.38 C 25.113 225.69 22.113 230.38 17.113 234.26 C 17.032 234.33 16.93 234.372 16.823 234.38 Z" style="fill: rgb(64, 75, 124);" transform="matrix(1, 0, 0, 1, 152.82225, 3.758023)"/>
  <path class="cls-1" d="M 16.033 169.21 L 13.033 177.46 C 16.546 180.907 21.376 182.668 26.283 182.29 L 29.113 174.12 C 29.113 174.12 25.283 167.05 16.033 169.21 Z" style="fill: rgb(64, 75, 124);" transform="matrix(1, 0, 0, 1, 152.82225, 3.758023)"/>
  <path class="cls-6" d="M 35.423 151.57 L 30.363 163.44 L 26.863 174.19 C 20.423 174.5 17.733 170.32 17.733 170.32 L 22.233 163 L 22.113 151.13 C 22.113 151.13 24.613 144.19 25.173 144 C 26.837 143.862 28.509 143.862 30.173 144 L 31.903 129.72 C 32.007 128.848 32.802 128.228 33.673 128.34 C 34.456 128.435 35.049 129.092 35.063 129.88 L 35.423 151.57 Z" style="fill: rgb(236, 189, 187);" transform="matrix(1, 0, 0, 1, 152.82225, 3.758023)"/>
  <path class="cls-1" d="M 30.233 154.72 C 30.083 154.732 29.933 154.732 29.783 154.72 C 27.873 154.41 27.693 151.4 27.673 151.06 C 27.673 150.675 28.09 150.435 28.423 150.627 C 28.578 150.716 28.673 150.881 28.673 151.06 C 28.673 151.72 28.993 153.62 29.943 153.78 C 31.371 153.831 32.661 152.935 33.113 151.58 C 33.268 149.451 33.086 147.312 32.573 145.24 C 32.403 144.8 31.013 144.51 30.113 144.49 C 29.837 144.479 29.622 144.246 29.633 143.97 C 29.667 143.705 29.886 143.502 30.153 143.49 C 30.633 143.49 33.053 143.64 33.523 144.89 C 34.096 147.146 34.292 149.48 34.103 151.8 C 33.554 153.489 32.008 154.656 30.233 154.72 Z" style="fill: rgb(64, 75, 124);" transform="matrix(1, 0, 0, 1, 152.82225, 3.758023)"/>
  <path class="cls-1" d="M 28.693 160.13 L 28.613 160.13 C 28.339 160.084 28.155 159.824 28.203 159.55 C 28.627 157.337 28.486 155.054 27.793 152.91 C 27.651 152.552 27.949 152.174 28.33 152.23 C 28.507 152.256 28.657 152.374 28.723 152.54 C 29.49 154.854 29.648 157.327 29.183 159.72 C 29.14 159.957 28.934 160.129 28.693 160.13 Z" style="fill: rgb(64, 75, 124);" transform="matrix(1, 0, 0, 1, 152.82225, 3.758023)"/>
  <path class="cls-1" d="M 28.113 153.23 C 27.48 153.234 26.864 153.026 26.363 152.64 C 26.07 152.39 26.158 151.917 26.521 151.789 C 26.69 151.729 26.877 151.764 27.013 151.88 C 27.413 152.173 27.914 152.292 28.403 152.21 C 28.788 152.152 29.091 152.533 28.949 152.895 C 28.882 153.063 28.732 153.183 28.553 153.21 C 28.407 153.227 28.26 153.234 28.113 153.23 Z" style="fill: rgb(64, 75, 124);" transform="matrix(1, 0, 0, 1, 152.82225, 3.758023)"/>
  <path class="cls-1" d="M 30.943 151.97 C 30.671 151.97 30.448 151.752 30.443 151.48 C 30.497 150.424 30.331 149.368 29.953 148.38 C 28.511 148.331 27.068 148.422 25.643 148.65 C 25.258 148.7 24.963 148.315 25.112 147.956 C 25.182 147.79 25.334 147.673 25.513 147.65 C 26.453 147.53 29.573 147.16 30.353 147.46 C 31.133 147.76 31.413 149.81 31.443 151.46 C 31.449 151.736 31.229 151.965 30.953 151.97 L 30.943 151.97 Z" style="fill: rgb(64, 75, 124);" transform="matrix(1, 0, 0, 1, 152.82225, 3.758023)"/>
  <path class="cls-1" d="M 32.363 149.61 C 32.094 149.61 31.874 149.398 31.863 149.13 C 31.813 147.9 31.493 146.39 31.123 146.2 C 29.74 145.951 28.326 145.917 26.933 146.1 C 26.548 146.135 26.27 145.74 26.432 145.389 C 26.508 145.226 26.664 145.116 26.843 145.1 C 27.463 145.05 30.633 144.8 31.593 145.31 C 32.553 145.82 32.823 148.31 32.853 149.08 C 32.864 149.356 32.649 149.589 32.373 149.6 L 32.363 149.61 Z" style="fill: rgb(64, 75, 124);" transform="matrix(1, 0, 0, 1, 152.82225, 3.758023)"/>
  <path class="cls-6" d="M 31.303 151.19 C 31.465 152.352 32.191 153.359 33.243 153.88 C 31.449 155.169 30.168 157.049 29.623 159.19 C 28.623 162.88 29.503 163.57 29.503 163.57 L 34.423 161.88 C 35.475 161.521 36.334 160.748 36.803 159.74 C 38.113 156.9 40.743 151.16 40.883 150.32 C 41.073 149.2 39.693 148.51 38.133 149.01 C 36.573 149.51 31.423 150.63 31.303 151.19 Z" style="fill: rgb(236, 189, 187);" transform="matrix(1, 0, 0, 1, 152.82225, 3.758023)"/>
  <path class="cls-1" d="M 34.853 154.55 C 34.583 154.567 34.313 154.567 34.043 154.55 C 32.286 154.474 30.879 153.067 30.803 151.31 C 30.786 151.183 30.818 151.054 30.893 150.95 C 31.003 150.8 31.713 150.04 34.893 149.41 C 35.278 149.337 35.598 149.708 35.469 150.078 C 35.409 150.249 35.262 150.376 35.083 150.41 C 33.942 150.568 32.838 150.927 31.823 151.47 C 31.93 152.646 32.902 153.554 34.083 153.58 C 35.149 153.685 36.226 153.566 37.243 153.23 C 37.609 153.107 37.971 153.426 37.894 153.804 C 37.859 153.979 37.733 154.123 37.563 154.18 C 36.685 154.447 35.77 154.572 34.853 154.55 Z" style="fill: rgb(64, 75, 124);" transform="matrix(1, 0, 0, 1, 152.82225, 3.758023)"/>
  <path class="cls-6" d="M 77.443 137.96 C 77.443 137.96 82.023 144.04 84.443 145.79 C 86.863 147.54 94.783 149.38 97.113 147.88 C 99.443 146.38 98.033 128.05 98.033 128.05 C 98.033 128.05 91.863 119.13 82.783 123.05 C 73.703 126.97 77.443 137.96 77.443 137.96 Z" style="fill: rgb(236, 189, 187);" transform="matrix(1, 0, 0, 1, 152.82225, 3.758023)"/>
  <path class="cls-1" d="M 103.783 130.05 C 94.943 132.38 83.943 127.21 83.943 127.21 C 83.846 129.586 83.339 131.927 82.443 134.13 L 84.233 138.13 L 79.613 141.21 C 79.613 141.21 64.033 136.8 63.943 134.8 C 63.853 132.8 66.943 118.96 68.533 118.38 C 71.033 117.869 73.566 117.535 76.113 117.38 C 77.446 113.407 79.154 109.57 81.213 105.92 C 84.843 107.54 83.083 112.51 82.973 112.82 L 95.303 98.76 C 105.053 100.42 103.133 109.42 103.133 109.42 C 105.678 107.465 108.758 106.331 111.963 106.17 C 115.613 112.71 112.613 127.71 103.783 130.05 Z" style="fill: rgb(64, 75, 124);" transform="matrix(1, 0, 0, 1, 152.82225, 3.758023)"/>
  <path class="cls-6" d="M 81.883 140.47 C 80.909 137.902 78.349 136.293 75.613 136.53 C 73.829 136.704 72.319 137.923 71.773 139.63 C 69.523 145.3 80.103 147.96 82.943 143.13 L 81.883 140.47 Z" style="fill: rgb(236, 189, 187);" transform="matrix(1, 0, 0, 1, 152.82225, 3.758023)"/>
  <path class="cls-1" d="M 81.363 142.94 C 81.2 142.941 81.047 142.863 80.953 142.73 C 78.313 138.96 74.063 140.82 73.883 140.9 C 73.523 141.036 73.151 140.732 73.213 140.352 C 73.238 140.197 73.334 140.063 73.473 139.99 C 73.523 139.99 78.673 137.71 81.773 142.16 C 81.989 142.479 81.778 142.912 81.394 142.939 C 81.384 142.939 81.373 142.94 81.363 142.94 Z" style="fill: rgb(64, 75, 124);" transform="matrix(1, 0, 0, 1, 152.82225, 3.758023)"/>
  <path class="cls-1" d="M 76.983 143.97 C 76.736 143.967 76.528 143.785 76.493 143.54 C 76.325 142.286 76.428 141.011 76.793 139.8 C 76.951 139.449 77.43 139.402 77.655 139.714 C 77.741 139.834 77.77 139.987 77.733 140.13 C 77.421 141.187 77.333 142.297 77.473 143.39 C 77.515 143.663 77.327 143.919 77.053 143.96 L 76.983 143.96 L 76.983 143.97 Z" style="fill: rgb(64, 75, 124);" transform="matrix(1, 0, 0, 1, 152.82225, 3.758023)"/>
  <path class="cls-1" d="M 85.623 134.06 C 85.623 134.06 86.153 131.06 88.433 131.47 C 88.433 131.47 88.293 130.13 88.803 129.97 C 89.313 129.81 89.873 132.14 89.873 132.14 C 88.342 132.489 86.897 133.142 85.623 134.06 Z" style="fill: rgb(64, 75, 124);" transform="matrix(1, 0, 0, 1, 152.82225, 3.758023)"/>
  <path class="cls-1" d="M 96.663 131.73 C 96.663 131.73 95.903 129.1 94.733 130.29 C 94.733 130.29 94.593 128.97 94.293 129.01 C 93.613 129.11 94.063 131.42 94.063 131.42 C 94.939 131.208 95.861 131.318 96.663 131.73 Z" style="fill: rgb(64, 75, 124);" transform="matrix(1, 0, 0, 1, 152.82225, 3.758023)"/>
  <path class="cls-1" d="M 96.663 142.514 C 95.533 142.896 95.533 143.89 95.062 143.89 C 93.658 143.89 91.293 145.74 90.413 143.86 C 90.095 143.155 92.252 142.646 93.006 142.553 C 94.456 142.374 93.006 142.342 96.663 142.514 Z" style="fill: rgb(64, 75, 124);" transform="matrix(1, 0, 0, 1, 152.82225, 3.758023)"/>
  <ellipse class="cls-1" cx="258.06" cy="104.91" rx="1.15" ry="1.42" transform="matrix(0.986228, -0.165392, 0.165392, 0.986228, -29.864626, 79.278015)" style="fill: rgb(64, 75, 124);"/>
  <circle class="cls-5" cx="258.23" cy="104.38" r="0.3" transform="matrix(0.986228, -0.165392, 0.165392, 0.986228, -29.774614, 79.298035)" style="fill: rgb(255, 255, 255);"/>
  <ellipse class="cls-1" cx="264.72" cy="103.8" rx="1.15" ry="1.42" transform="matrix(0.986228, -0.165392, 0.165392, 0.986228, -29.594622, 80.368011)" style="fill: rgb(64, 75, 124);"/>
  <circle class="cls-5" cx="264.89" cy="103.26" r="0.3" transform="matrix(0.986228, -0.165392, 0.165392, 0.986228, -29.494616, 80.388031)" style="fill: rgb(255, 255, 255);"/>
  <path class="cls-1" d="M 93.353 140.53 L 93.113 140.53 C 92.836 140.509 92.63 140.266 92.653 139.99 C 92.679 139.716 92.918 139.513 93.193 139.53 C 93.193 139.53 94.343 139.6 94.503 138.88 C 94.522 138.828 94.522 138.772 94.503 138.72 C 94.149 138.56 93.753 138.518 93.373 138.6 C 93.103 138.642 92.849 138.46 92.803 138.19 L 92.323 135.46 C 92.275 135.186 92.459 134.926 92.733 134.88 C 93.005 134.837 93.262 135.019 93.313 135.29 L 93.713 137.57 C 94.261 137.514 94.808 137.68 95.233 138.03 C 95.498 138.314 95.596 138.715 95.493 139.09 C 95.206 140.012 94.316 140.611 93.353 140.53 Z" style="fill: rgb(64, 75, 124);" transform="matrix(1, 0, 0, 1, 152.82225, 3.758023)"/>
</svg>