<?xml version="1.0" encoding="utf-8"?>
<svg viewBox="28 -74.097 472.743 754.097" xmlns="http://www.w3.org/2000/svg">
  <title>
    Man with question
  </title>
  <polygon class="cls-6" points="237.839 571.525 237.174 588.864 236.258 612.852 220.087 612.852 218.434 595.405 216.044 570.177 237.839 571.525" style="fill: rgb(236, 189, 187);"/>
  <polygon class="cls-1" points="237.839 571.525 237.174 588.864 218.434 595.405 216.044 570.177 237.839 571.525" style="fill: rgb(64, 75, 124);"/>
  <path class="cls-1" d="M 206.089 679.191 L 285.383 679.425 C 285.383 679.425 288.69 647.908 262.851 643.865 C 262.073 643.74 261.31 643.542 260.569 643.272 C 246.59 638.116 240.085 607.03 240.085 607.03 C 240.085 607.03 223.465 602.988 213.582 608.612 C 213.582 608.612 206.88 641.134 205.802 669.021 C 205.64 672.74 205.982 675.723 206.089 679.191 Z" style="fill: rgb(64, 75, 124);"/>
  <path class="cls-2" d="M 250.741 650.029 C 250.627 650.05 250.512 650.05 250.399 650.029 C 245.366 647.509 241.113 643.671 238.091 638.924 C 230.904 628.467 226.034 609.133 225.836 608.378 C 225.671 607.686 226.316 607.075 226.997 607.277 C 227.313 607.37 227.556 607.625 227.633 607.947 C 227.633 608.144 232.611 627.712 239.636 637.972 C 242.459 642.36 246.38 645.934 251.01 648.34 C 251.626 648.652 251.673 649.516 251.095 649.894 C 250.987 649.964 250.866 650.009 250.741 650.029 Z" style="fill: rgb(154, 179, 218);"/>
  <path class="cls-2" d="M 205.281 680 L 285.905 680 C 285.905 680 289.049 647.441 263.211 643.398 C 262.433 643.272 261.669 643.075 260.929 642.805 C 253.418 645.554 243.481 652.364 239.78 669.147 L 205.353 669.147 C 205.209 672.884 205.173 676.532 205.281 680 Z" style="fill: rgb(154, 179, 218);"/>
  <ellipse class="cls-2" cx="219.027" cy="640.487" rx="5.444" ry="10.565" style="fill: rgb(154, 179, 218);"/>
  <path class="cls-3" d="M 212.073 564.194 C 212.073 564.194 191.122 406.971 184.527 365.033 C 184.527 365.033 175.543 233.272 209.683 230.864 C 243.823 228.456 257.604 266.208 259.994 291.956 C 262.384 317.705 247.416 531.528 240.822 565.074 L 212.073 564.194 Z" style="fill: rgb(246, 141, 136);"/>
  <path class="cls-6" d="M 255.736 288.848 C 255.617 288.876 255.495 288.876 255.376 288.848 C 241.289 281.66 237.606 263.045 237.408 262.255 C 237.36 261.662 237.97 261.239 238.51 261.493 C 238.705 261.586 238.855 261.759 238.917 261.967 C 238.917 262.147 242.619 280.546 256.041 287.482 C 256.512 287.845 256.411 288.582 255.862 288.808 C 255.82 288.824 255.779 288.839 255.736 288.848 Z" style="fill: rgb(236, 189, 187);"/>
  <ellipse class="cls-4" cx="283.77" cy="330.75" rx="23.359" ry="15.165" transform="matrix(0.002269, -0.999997, 0.999997, 0.002269, -97.016472, 715.238586)" style="fill: rgb(249, 212, 212);"/>
  <path class="cls-6" d="M 220.464 562.864 C 220.063 562.866 219.729 562.562 219.691 562.164 C 212.145 470.256 197.375 342.016 197.231 340.722 C 197.103 340.142 197.653 339.641 198.221 339.82 C 198.535 339.921 198.753 340.212 198.758 340.543 C 198.902 341.818 213.672 470.094 221.219 562.02 C 221.249 562.44 220.938 562.809 220.518 562.846 L 220.464 562.864 Z" style="fill: rgb(236, 189, 187);"/>
  <path class="cls-4" d="M 203.089 562.397 C 203.089 562.397 229.448 554.006 249.501 563.296 L 246.5 586.96 L 204.58 587.265 L 203.089 562.397 Z" style="fill: rgb(249, 212, 212);"/>
  <path class="cls-6" d="M 199.585 318.711 C 198.99 318.729 198.6 318.097 198.882 317.572 C 198.968 317.412 199.109 317.286 199.279 317.22 C 204.85 314.902 211.067 311.685 211.408 310.517 C 211.893 308.828 212.989 278.821 213.618 259.056 C 213.605 258.62 213.974 258.269 214.409 258.302 C 214.836 258.311 215.174 258.665 215.163 259.092 C 215.002 264.159 213.564 308.667 212.881 310.949 C 212.199 313.231 202.729 317.435 199.854 318.621 C 199.772 318.668 199.68 318.698 199.585 318.711 Z" style="fill: rgb(236, 189, 187);"/>
  <path class="cls-3" d="M 146.345 255.966 C 146.345 255.966 137.361 265.633 137.145 267.645 C 136.929 269.658 97.615 508.205 92.224 574.077 L 118.584 574.077 C 118.584 574.077 201.831 336.895 203.628 326.707 C 205.424 316.519 207.221 257.224 206.628 240.459 C 206.035 223.695 163.864 225.941 146.345 255.966 Z" style="fill: rgb(246, 141, 136);"/>
  <path class="cls-6" d="M 203.7 327.48 L 203.556 327.48 C 203.134 327.406 202.851 327.003 202.927 326.581 C 204.292 318.873 205.748 281.067 205.999 255.534 C 205.965 255.094 206.332 254.728 206.772 254.762 C 207.193 254.771 207.527 255.114 207.527 255.534 C 207.311 278.426 205.91 318.424 204.436 326.833 C 204.377 327.196 204.068 327.467 203.7 327.48 Z" style="fill: rgb(236, 189, 187);"/>
  <path class="cls-6" d="M 138.259 293.34 C 137.664 293.34 137.292 292.697 137.591 292.181 C 137.727 291.942 137.982 291.795 138.259 291.795 C 138.96 291.795 155.652 290.411 159.102 268.633 C 159.158 268.206 159.559 267.911 159.983 267.987 C 160.405 268.051 160.694 268.445 160.63 268.867 C 157.036 291.902 138.546 293.304 138.349 293.322 L 138.259 293.34 Z" style="fill: rgb(236, 189, 187);"/>
  <path class="cls-6" d="M 118.045 558.372 L 117.793 558.372 C 117.394 558.236 117.177 557.804 117.308 557.402 L 192.326 336.392 C 192.473 335.815 193.188 335.614 193.614 336.031 C 193.844 336.255 193.912 336.6 193.781 336.895 L 118.763 557.905 C 118.639 558.191 118.357 558.376 118.045 558.372 Z" style="fill: rgb(236, 189, 187);"/>
  <ellipse class="cls-4" cx="225.94" cy="330.75" rx="23.359" ry="15.165" transform="matrix(0.16367, -0.986515, 0.986515, 0.16367, -232.773193, 601.013306)" style="fill: rgb(249, 212, 212);"/>
  <polygon class="cls-6" points="115.799 570.177 110.192 594.992 106.15 612.852 89.978 612.852 92.637 585.486 94.003 571.525 115.799 570.177" style="fill: rgb(236, 189, 187);"/>
  <polygon class="cls-1" points="94.003 571.525 115.799 570.177 110.192 594.992 92.637 585.486 94.003 571.525" style="fill: rgb(64, 75, 124);"/>
  <path class="cls-1" d="M 119.949 678.886 L 41.446 679.335 C 41.446 679.335 37.385 648.34 63.241 644.297 C 64.124 644.104 64.99 643.84 65.829 643.506 C 79.808 638.349 86.151 607.012 86.151 607.012 C 86.151 607.012 102.772 602.97 112.654 608.594 C 112.654 608.594 119.213 640.937 120.291 668.895 C 120.434 672.633 120.057 675.418 119.949 678.886 Z" style="fill: rgb(64, 75, 124);"/>
  <path class="cls-2" d="M 75.478 650.029 C 74.786 650.16 74.211 649.493 74.443 648.828 C 74.551 648.521 74.815 648.293 75.136 648.232 C 79.824 645.819 83.79 642.212 86.636 637.774 C 93.644 627.586 98.585 607.947 98.639 607.749 C 98.804 607.057 99.658 606.806 100.173 607.295 C 100.412 607.521 100.513 607.859 100.436 608.18 C 100.238 609.007 95.369 628.341 88.181 638.726 C 85.161 643.474 80.906 647.312 75.873 649.831 C 75.76 649.928 75.623 649.996 75.478 650.029 Z" style="fill: rgb(154, 179, 218);"/>
  <path class="cls-2" d="M 120.956 680 L 40.332 680 C 40.332 680 37.187 647.441 63.026 643.398 C 63.804 643.272 64.567 643.075 65.308 642.805 C 72.818 645.554 82.755 652.364 86.456 669.147 L 120.884 669.147 C 121.027 672.884 121.063 676.532 120.956 680 Z" style="fill: rgb(154, 179, 218);"/>
  <ellipse class="cls-2" cx="107.21" cy="640.487" rx="5.444" ry="10.565" style="fill: rgb(154, 179, 218);"/>
  <path class="cls-4" d="M 85.109 559.989 L 82.108 585.756 L 121.944 588.451 L 128.233 564.499 C 128.233 564.499 105.772 554.599 85.109 559.989 Z" style="fill: rgb(249, 212, 212);"/>
  <path class="cls-2" d="M 254.155 101.888 C 254.155 101.888 291.295 145.946 307.089 192.771 C 308.442 196.798 308.223 201.188 306.478 205.062 C 301.088 216.939 291.025 241.663 284.916 245.257 C 278.807 248.85 255.269 241.357 255.718 230.577 C 256.167 219.796 264.073 193.292 264.073 193.292 C 264.073 193.292 242.96 169.035 227.238 147.024 C 211.516 125.013 228.55 83.686 254.155 101.888 Z" style="fill: rgb(154, 179, 218);"/>
  <path class="cls-1" d="M 291.439 195.538 C 291.282 195.542 291.128 195.504 290.99 195.431 C 276.525 187.273 266.894 193.813 266.786 193.885 C 266.24 194.309 265.439 193.982 265.345 193.298 C 265.298 192.946 265.46 192.599 265.762 192.412 C 266.193 192.106 276.435 185.225 291.87 193.867 C 292.465 194.219 292.456 195.084 291.852 195.423 C 291.726 195.495 291.584 195.535 291.439 195.538 Z" style="fill: rgb(64, 75, 124);"/>
  <path class="cls-1" d="M 258.09 231.026 L 253.867 243.154 C 255.464 247.49 258.686 251.035 262.851 253.037 C 266.934 255.177 271.589 255.964 276.148 255.283 L 284.269 240.908 C 284.269 240.908 275.303 225.042 258.09 231.026 Z" style="fill: rgb(64, 75, 124);"/>
  <path class="cls-6" d="M 272.303 252.282 C 267.631 261.464 256.131 280.888 252.537 286.099 C 247.99 282.602 244.378 278.034 242.026 272.802 C 248.135 261.644 255.718 243.873 255.718 243.873 C 267.954 240.603 272.303 252.282 272.303 252.282 Z" style="fill: rgb(236, 189, 187);"/>
  <polygon class="cls-6" points="192.164 74.935 175.885 74.468 179.119 41.586 179.245 40.22 191.93 42.125 192.02 53.679 192.164 74.935" style="fill: rgb(236, 189, 187);"/>
  <path class="cls-1" d="M 192.02 53.589 C 183.791 51.055 180.449 45.755 179.119 41.496 L 179.245 40.13 L 191.93 42.035 L 192.02 53.589 Z" style="fill: rgb(64, 75, 124);"/>
  <path class="cls-1" d="M 141.403 236.65 C 142.086 236.65 141.637 258.661 142.302 258.661 C 142.967 258.661 157.359 264.285 172.632 263.602 C 187.905 262.919 235.521 261.59 248.548 252.606 L 249.231 230.145 C 215.073 241.429 179.137 242.795 141.403 236.65 Z" style="fill: rgb(64, 75, 124);"/>
  <path class="cls-4" d="M 195.722 240.261 C 195.722 240.261 196.171 262.524 196.153 263.423 C 196.135 264.321 222.351 262.632 223.375 262.219 C 224.399 261.805 223.752 238.411 223.752 238.411 C 223.752 238.411 213.726 239.668 195.722 240.261 Z" style="fill: rgb(249, 212, 212);"/>
  <path class="cls-4" d="M 155.113 237.315 C 155.113 237.315 154.772 263.153 155.113 263.71 C 155.455 264.267 161.636 264.842 161.636 264.842 C 161.636 264.842 161.528 237.548 161.187 237.44 C 160.845 237.333 155.67 236.524 155.113 237.315 Z" style="fill: rgb(249, 212, 212);"/>
  <path class="cls-4" d="M 173.531 238.554 C 173.531 238.554 173.189 264.393 173.531 264.95 C 173.872 265.507 179.604 264.95 179.604 264.95 C 179.604 264.95 179.945 238.788 179.604 238.68 C 179.263 238.572 174.088 237.764 173.531 238.554 Z" style="fill: rgb(249, 212, 212);"/>
  <path class="cls-4" d="M 240.499 231.906 C 240.499 231.906 240.75 257.691 240.499 258.302 C 240.247 258.913 235.917 259.092 235.917 259.092 C 235.917 259.092 235.665 232.966 235.917 232.805 C 236.168 232.643 240.067 231.205 240.499 231.906 Z" style="fill: rgb(249, 212, 212);"/>
  <path class="cls-1" d="M 162.858 63.022 C 178.07 56.812 195.308 58.063 209.467 66.4 L 208.12 81.008 L 165.786 83.811 L 162.858 63.022 Z" style="fill: rgb(64, 75, 124);"/>
  <path class="cls-2" d="M 256.401 227.881 L 249.896 232.589 C 249.896 232.589 204.742 248.545 141.188 240.01 L 127.478 227.432 C 127.708 213.681 127.041 199.93 125.484 186.267 C 124.799 180.366 123.663 174.528 122.088 168.801 C 122.088 168.676 122.088 168.532 121.962 168.37 C 119.554 159.799 118.368 146.575 117.649 133.655 C 117.146 123.324 117.02 113.208 117.02 105.823 C 117.02 98.941 117.146 94.467 117.146 94.467 C 117.829 94.467 152.634 74.935 185.21 74.468 C 217.787 74.001 254.155 101.888 254.155 101.888 C 254.155 101.888 262.24 172.18 256.401 227.881 Z" style="fill: rgb(154, 179, 218);"/>
  <path class="cls-1" d="M 258.521 182.278 C 258.025 182.278 257.622 181.875 257.622 181.379 C 257.622 148.821 254.963 118.76 253.831 107.368 C 253.779 106.87 254.142 106.426 254.64 106.38 C 255.134 106.338 255.572 106.696 255.628 107.188 C 256.76 118.616 259.401 148.731 259.437 181.379 C 259.437 181.875 259.035 182.278 258.539 182.278 L 258.521 182.278 Z" style="fill: rgb(64, 75, 124);"/>
  <path class="cls-1" d="M 134.36 139.531 C 133.443 152.468 131.144 174.246 125.484 186.249 C 124.799 180.348 123.663 174.51 122.088 168.784 C 122.088 168.658 122.088 168.514 121.962 168.352 C 119.554 159.781 118.368 146.557 117.649 133.638 C 117.146 123.306 117.02 113.19 117.02 105.805 C 121.403 109.131 125.214 113.148 128.305 117.7 C 132.777 124.062 134.917 131.774 134.36 139.531 Z" style="fill: rgb(64, 75, 124);"/>
  <path class="cls-1" d="M 216.421 236.416 C 215.925 236.396 215.539 235.978 215.559 235.482 C 219.548 148.21 188.103 79.589 187.798 78.906 C 187.507 78.277 188.006 77.569 188.698 77.632 C 189.018 77.661 189.298 77.859 189.433 78.151 C 189.756 78.834 221.38 147.868 217.373 235.572 C 217.345 236.068 216.917 236.447 216.421 236.416 Z" style="fill: rgb(64, 75, 124);"/>
  <path class="cls-1" d="M 223.159 236.416 C 222.663 236.396 222.277 235.978 222.297 235.482 C 226.286 148.246 195.506 80.469 195.201 79.804 C 194.909 79.176 195.409 78.468 196.101 78.531 C 196.421 78.559 196.701 78.757 196.836 79.05 C 197.141 79.733 228.1 147.868 224.094 235.572 C 224.065 236.06 223.65 236.436 223.159 236.416 Z" style="fill: rgb(64, 75, 124);"/>
  <path class="cls-1" d="M 141.403 225.33 C 140.908 225.321 140.512 224.909 140.523 224.413 C 140.972 204.361 133.713 157.356 133.641 156.889 C 133.537 156.197 134.222 155.652 134.872 155.907 C 135.174 156.028 135.389 156.297 135.438 156.619 C 135.438 157.086 142.787 204.253 142.338 224.449 C 142.329 224.952 141.907 225.35 141.403 225.33 Z" style="fill: rgb(64, 75, 124);"/>
  <path class="cls-2" d="M 117.146 94.467 L 65.487 146.808 L 44.375 209.913 C 44.375 209.913 85.935 204.307 124.567 162.98 C 131.53 151.892 135.118 139.019 134.899 125.929 C 134.926 113.049 128.184 101.102 117.146 94.467 Z" style="fill: rgb(154, 179, 218);"/>
  <path class="cls-1" d="M 124.549 163.878 C 123.857 163.882 123.421 163.136 123.764 162.534 C 123.778 162.509 123.794 162.484 123.812 162.459 C 130.633 151.509 134.164 138.829 133.983 125.929 C 133.983 115.13 129.127 104.903 120.758 98.078 C 120.269 97.588 120.494 96.754 121.162 96.576 C 121.412 96.51 121.676 96.553 121.89 96.695 C 130.676 103.859 135.776 114.593 135.779 125.929 C 135.943 139.206 132.281 152.249 125.232 163.501 C 125.074 163.724 124.822 163.864 124.549 163.878 Z" style="fill: rgb(64, 75, 124);"/>
  <path class="cls-2" d="M 55.156 95.365 C 55.156 95.365 43.925 105.697 39.218 114.016 C 34.51 122.335 25.975 174.21 28.437 187.92 C 30.898 201.63 44.375 209.913 44.375 209.913 C 44.375 209.913 69.53 200.48 74.022 177.354 C 78.514 154.229 80.096 126.145 79.413 119.407 C 78.73 112.669 73.573 102.57 73.573 102.57 L 55.156 95.365 Z" style="fill: rgb(154, 179, 218);"/>
  <path class="cls-1" d="M 58.228 202.726 C 57.536 202.722 57.109 201.971 57.457 201.374 C 57.513 201.279 57.585 201.195 57.671 201.126 C 66.17 194.406 71.363 186.374 73.142 177.265 C 75.39 165.141 76.973 152.905 77.885 140.609 C 77.914 140.108 78.356 139.731 78.856 139.783 C 79.353 139.82 79.724 140.257 79.682 140.753 C 78.766 153.103 77.178 165.393 74.921 177.57 C 73.124 187.111 67.733 195.538 58.749 202.51 C 58.604 202.636 58.42 202.711 58.228 202.726 Z" style="fill: rgb(64, 75, 124);"/>
  <path class="cls-1" d="M 56.809 85.626 L 51.418 100.45 C 57.73 106.644 66.409 109.808 75.226 109.129 L 80.311 94.449 C 80.311 94.449 73.429 81.745 56.809 85.626 Z" style="fill: rgb(64, 75, 124);"/>
  <path class="cls-6" d="M 91.649 53.93 L 82.557 75.259 L 76.268 94.574 C 64.697 95.131 59.863 87.621 59.863 87.621 L 67.949 74.468 L 67.733 53.14 C 67.733 53.14 72.225 40.67 73.232 40.328 C 76.222 40.08 79.226 40.08 82.216 40.328 L 85.324 14.669 C 85.511 13.103 86.94 11.989 88.505 12.19 C 89.912 12.36 90.977 13.541 91.002 14.957 L 91.649 53.93 Z" style="fill: rgb(236, 189, 187);"/>
  <path class="cls-1" d="M 82.324 59.59 C 82.054 59.612 81.785 59.612 81.515 59.59 C 78.083 59.033 77.76 53.625 77.724 53.014 C 77.724 52.322 78.473 51.891 79.071 52.236 C 79.35 52.396 79.521 52.692 79.521 53.014 C 79.521 54.2 80.096 57.614 81.803 57.901 C 84.368 57.993 86.686 56.383 87.499 53.948 C 87.777 50.123 87.45 46.279 86.528 42.556 C 86.223 41.766 83.725 41.245 82.108 41.209 C 81.612 41.189 81.226 40.77 81.246 40.274 C 81.307 39.798 81.7 39.433 82.18 39.412 C 83.042 39.412 87.391 39.681 88.235 41.927 C 89.265 45.981 89.617 50.175 89.277 54.343 C 88.291 57.378 85.513 59.475 82.324 59.59 Z" style="fill: rgb(64, 75, 124);"/>
  <path class="cls-1" d="M 79.557 69.311 L 79.413 69.311 C 78.92 69.228 78.59 68.761 78.676 68.269 C 79.438 64.292 79.185 60.19 77.939 56.338 C 77.684 55.695 78.22 55.015 78.904 55.116 C 79.222 55.163 79.492 55.375 79.61 55.673 C 80.989 59.831 81.273 64.274 80.437 68.574 C 80.36 69 79.99 69.309 79.557 69.311 Z" style="fill: rgb(64, 75, 124);"/>
  <path class="cls-1" d="M 78.514 56.913 C 77.377 56.92 76.27 56.546 75.37 55.853 C 74.843 55.404 75.002 54.554 75.654 54.324 C 75.957 54.216 76.293 54.279 76.538 54.487 C 77.257 55.014 78.157 55.227 79.035 55.08 C 79.727 54.976 80.272 55.66 80.017 56.311 C 79.896 56.613 79.627 56.828 79.305 56.877 C 79.043 56.907 78.779 56.92 78.514 56.913 Z" style="fill: rgb(64, 75, 124);"/>
  <path class="cls-1" d="M 83.599 54.649 C 83.111 54.649 82.71 54.257 82.701 53.768 C 82.798 51.871 82.5 49.974 81.821 48.198 C 79.23 48.11 76.637 48.274 74.076 48.683 C 73.384 48.773 72.854 48.081 73.122 47.436 C 73.248 47.138 73.521 46.928 73.843 46.887 C 75.532 46.671 81.138 46.006 82.539 46.545 C 83.941 47.084 84.444 50.768 84.498 53.732 C 84.509 54.228 84.113 54.64 83.617 54.649 L 83.599 54.649 Z" style="fill: rgb(64, 75, 124);"/>
  <path class="cls-1" d="M 86.151 50.408 C 85.668 50.408 85.272 50.027 85.252 49.546 C 85.163 47.336 84.588 44.623 83.923 44.281 C 81.438 43.834 78.897 43.773 76.394 44.101 C 75.702 44.164 75.203 43.455 75.494 42.824 C 75.63 42.531 75.911 42.333 76.232 42.305 C 77.346 42.215 83.042 41.766 84.767 42.682 C 86.492 43.598 86.977 48.072 87.031 49.456 C 87.051 49.952 86.665 50.371 86.169 50.39 L 86.151 50.408 Z" style="fill: rgb(64, 75, 124);"/>
  <path class="cls-6" d="M 84.246 53.247 C 84.537 55.335 85.842 57.145 87.732 58.081 C 84.509 60.397 82.207 63.775 81.228 67.622 C 79.431 74.252 81.012 75.492 81.012 75.492 L 89.852 72.455 C 91.743 71.81 93.286 70.421 94.129 68.61 C 96.483 63.507 101.208 53.193 101.46 51.684 C 101.801 49.672 99.322 48.432 96.519 49.33 C 93.716 50.229 84.462 52.241 84.246 53.247 Z" style="fill: rgb(236, 189, 187);"/>
  <path class="cls-1" d="M 90.625 59.285 C 90.14 59.315 89.655 59.315 89.17 59.285 C 86.013 59.148 83.484 56.62 83.348 53.463 C 83.317 53.235 83.375 53.003 83.51 52.816 C 83.707 52.547 84.983 51.181 90.697 50.049 C 91.389 49.918 91.964 50.584 91.732 51.249 C 91.624 51.557 91.36 51.785 91.038 51.846 C 88.988 52.13 87.004 52.775 85.181 53.75 C 85.373 55.864 87.119 57.495 89.241 57.542 C 91.157 57.73 93.092 57.517 94.919 56.913 C 95.577 56.692 96.228 57.265 96.089 57.944 C 96.026 58.259 95.8 58.517 95.494 58.62 C 93.917 59.1 92.273 59.324 90.625 59.285 Z" style="fill: rgb(64, 75, 124);"/>
  <path class="cls-6" d="M 167.152 29.475 C 167.152 29.475 175.381 40.4 179.73 43.544 C 184.078 46.689 198.309 49.995 202.496 47.3 C 206.682 44.605 204.149 11.669 204.149 11.669 C 204.149 11.669 193.062 -4.359 176.747 2.685 C 160.432 9.728 167.152 29.475 167.152 29.475 Z" style="fill: rgb(236, 189, 187);"/>
  <path class="cls-1" d="M 214.481 15.262 C 198.597 19.449 178.831 10.159 178.831 10.159 C 178.657 14.429 177.746 18.635 176.136 22.593 L 179.352 29.781 L 171.051 35.315 C 171.051 35.315 143.057 27.391 142.895 23.797 C 142.733 20.204 148.285 -4.664 151.142 -5.707 C 155.634 -6.625 160.186 -7.225 164.762 -7.503 C 167.157 -14.642 170.226 -21.537 173.926 -28.095 C 180.449 -25.184 177.286 -16.254 177.088 -15.697 L 199.243 -40.96 C 216.762 -37.978 213.313 -21.806 213.313 -21.806 C 217.886 -25.319 223.42 -27.357 229.179 -27.646 C 235.737 -15.895 230.347 11.058 214.481 15.262 Z" style="fill: rgb(64, 75, 124);"/>
  <path class="cls-6" d="M 175.13 33.985 C 173.38 29.371 168.78 26.48 163.864 26.906 C 160.658 27.218 157.945 29.409 156.964 32.476 C 152.921 42.664 171.932 47.444 177.035 38.765 L 175.13 33.985 Z" style="fill: rgb(236, 189, 187);"/>
  <path class="cls-1" d="M 174.196 38.423 C 173.903 38.425 173.628 38.285 173.459 38.046 C 168.715 31.272 161.079 34.614 160.755 34.758 C 160.108 35.002 159.44 34.456 159.551 33.773 C 159.596 33.495 159.769 33.254 160.019 33.123 C 160.108 33.123 169.362 29.026 174.932 37.022 C 175.32 37.595 174.941 38.373 174.251 38.422 C 174.233 38.422 174.214 38.423 174.196 38.423 Z" style="fill: rgb(64, 75, 124);"/>
  <path class="cls-1" d="M 166.325 40.274 C 165.882 40.269 165.508 39.942 165.445 39.502 C 165.143 37.248 165.328 34.957 165.984 32.781 C 166.268 32.151 167.129 32.066 167.533 32.627 C 167.687 32.843 167.74 33.117 167.673 33.374 C 167.112 35.274 166.954 37.268 167.206 39.232 C 167.281 39.723 166.944 40.183 166.451 40.256 L 166.325 40.256 L 166.325 40.274 Z" style="fill: rgb(64, 75, 124);"/>
  <path class="cls-1" d="M 181.85 22.468 C 181.85 22.468 182.802 17.077 186.899 17.814 C 186.899 17.814 186.648 15.406 187.564 15.119 C 188.48 14.831 189.487 19.018 189.487 19.018 C 186.736 19.645 184.139 20.818 181.85 22.468 Z" style="fill: rgb(64, 75, 124);"/>
  <path class="cls-1" d="M 201.687 18.281 C 201.687 18.281 200.321 13.555 198.219 15.694 C 198.219 15.694 197.968 13.322 197.429 13.394 C 196.207 13.573 197.015 17.724 197.015 17.724 C 198.589 17.343 200.246 17.541 201.687 18.281 Z" style="fill: rgb(64, 75, 124);"/>
  <path class="cls-1" d="M 201.687 37.658 C 199.657 38.344 199.657 40.13 198.81 40.13 C 196.288 40.13 192.038 43.455 190.457 40.077 C 189.886 38.81 193.761 37.895 195.116 37.728 C 197.721 37.406 195.116 37.349 201.687 37.658 Z" style="fill: rgb(64, 75, 124);"/>
  <ellipse class="cls-1" cx="258.06" cy="104.91" rx="2.066" ry="2.551" transform="matrix(0.986228, -0.165392, 0.165392, 0.986228, -83.63269, -34.283981)" style="fill: rgb(64, 75, 124);"/>
  <circle class="cls-5" cx="188.53" cy="25.546" r="0.539" style="fill: rgb(255, 255, 255);"/>
  <ellipse class="cls-1" cx="264.72" cy="103.8" rx="2.066" ry="2.551" transform="matrix(0.986228, -0.165392, 0.165392, 0.986228, -78.060028, -34.075455)" style="fill: rgb(64, 75, 124);"/>
  <circle class="cls-5" cx="200.502" cy="23.541" r="0.539" style="fill: rgb(255, 255, 255);"/>
  <path class="cls-1" d="M 195.74 34.093 L 195.308 34.093 C 194.811 34.055 194.44 33.619 194.482 33.123 C 194.529 32.631 194.958 32.266 195.452 32.296 C 195.452 32.296 197.518 32.422 197.806 31.128 C 197.84 31.035 197.84 30.934 197.806 30.841 C 197.17 30.553 196.458 30.478 195.776 30.625 C 195.29 30.701 194.834 30.374 194.751 29.889 L 193.889 24.983 C 193.803 24.491 194.133 24.024 194.626 23.941 C 195.114 23.864 195.576 24.191 195.668 24.678 L 196.386 28.775 C 197.371 28.674 198.354 28.972 199.118 29.601 C 199.594 30.111 199.77 30.832 199.585 31.506 C 199.069 33.162 197.47 34.239 195.74 34.093 Z" style="fill: rgb(64, 75, 124);"/>
  <path d="M 301.096 89.219 C 279.658 85.452 272.303 69.311 272.303 69.311 C 272.303 69.311 299.875 68.723 313.021 56.42 C 309.743 46.149 307.966 34.739 307.966 22.291 C 307.966 -39.06 351.12 -74.097 404.354 -74.097 C 457.588 -74.097 500.743 -30.943 500.743 22.291 C 500.743 74.64 470.964 117.326 404.354 118.68 C 374.699 119.283 348.167 108.336 330.484 87.912 C 320.722 91.074 308.486 90.518 301.096 89.219 Z M 379.236 -28.595 C 386.293 -33.508 395.01 -35.964 405.387 -35.964 C 415.627 -35.964 423.859 -33.646 430.086 -29.011 C 436.312 -24.376 439.426 -18.253 439.426 -10.642 C 439.426 -4.969 437.973 -0.473 435.068 2.848 C 432.162 6.169 425.727 10.528 415.765 15.924 C 404.695 22.013 397.086 27.893 392.934 33.566 C 389.613 38.271 385.551 50.259 387.61 56.574 C 392.573 71.804 405.797 66.495 410.275 62.791 C 418.517 55.97 413.316 50.078 410.275 47.678 C 406.885 45.002 405.837 40.9 408.812 37.717 C 411.787 34.534 417.356 31.214 425.52 27.754 C 429.394 26.094 432.577 24.641 435.068 23.396 C 449.734 15.924 457.068 4.786 457.068 -10.02 C 457.068 -21.781 452.398 -31.26 443.058 -38.455 C 433.718 -45.649 421.369 -49.247 406.01 -49.247 C 390.513 -49.247 377.817 -45.477 367.924 -37.935 C 358.031 -30.395 353.084 -20.813 353.084 -9.19 C 353.084 -2.825 355.056 2.398 358.999 6.481 C 362.943 10.562 367.959 12.603 374.047 12.603 C 378.751 12.603 382.695 11.255 385.877 8.557 C 389.06 5.858 390.651 2.503 390.651 -1.51 C 390.651 -7.598 387.607 -10.642 381.519 -10.642 C 379.305 -10.642 377.471 -9.985 376.019 -8.67 C 374.565 -7.356 373.84 -5.731 373.84 -3.793 C 373.84 -2.963 373.909 -2.271 374.047 -1.718 C 370.449 -4.07 368.651 -7.044 368.651 -10.642 C 368.651 -17.699 372.179 -23.683 379.236 -28.595 Z M 414.782 94.117 C 417.273 91.557 418.517 88.478 418.517 84.88 C 418.517 81.283 417.273 78.204 414.782 75.645 C 412.291 73.085 409.247 71.804 405.649 71.804 C 402.051 71.804 398.973 73.085 396.413 75.645 C 393.854 78.204 392.573 81.283 392.573 84.88 C 392.573 88.478 393.854 91.557 396.413 94.117 C 398.973 96.676 402.051 97.956 405.649 97.956 C 409.247 97.956 412.291 96.676 414.782 94.117 Z" style="fill: rgb(255, 255, 255);"/>
</svg>
