<?xml version="1.0" encoding="utf-8"?>
<svg viewBox="-171.09 -243.558 379.725 926.172" xmlns="http://www.w3.org/2000/svg">
  <polygon class="cls-6" points="138.508 574.139 137.843 591.478 136.927 615.466 120.756 615.466 119.103 598.019 116.713 572.791 138.508 574.139" style="fill: rgb(236, 189, 187);"/>
  <polygon class="cls-1" points="138.508 574.139 137.843 591.478 119.103 598.019 116.713 572.791 138.508 574.139" style="fill: rgb(64, 75, 124);"/>
  <path class="cls-1" d="M 106.758 681.805 L 186.052 682.039 C 186.052 682.039 189.359 650.522 163.52 646.479 C 162.742 646.354 161.979 646.156 161.238 645.886 C 147.259 640.73 140.754 609.644 140.754 609.644 C 140.754 609.644 124.134 605.602 114.251 611.226 C 114.251 611.226 107.549 643.748 106.471 671.635 C 106.309 675.354 106.651 678.337 106.758 681.805 Z" style="fill: rgb(64, 75, 124);"/>
  <path class="cls-2" d="M 151.41 652.643 C 151.296 652.664 151.181 652.664 151.068 652.643 C 146.035 650.123 141.782 646.285 138.76 641.538 C 131.573 631.081 126.703 611.747 126.505 610.992 C 126.34 610.3 126.985 609.689 127.666 609.891 C 127.982 609.984 128.225 610.239 128.302 610.561 C 128.302 610.758 133.28 630.326 140.305 640.586 C 143.128 644.974 147.049 648.548 151.679 650.954 C 152.295 651.266 152.342 652.13 151.764 652.508 C 151.656 652.578 151.535 652.623 151.41 652.643 Z" style="fill: rgb(154, 179, 218);"/>
  <path class="cls-2" d="M 105.95 682.614 L 186.574 682.614 C 186.574 682.614 189.718 650.055 163.88 646.012 C 163.102 645.886 162.338 645.689 161.598 645.419 C 154.087 648.168 144.15 654.978 140.449 671.761 L 106.022 671.761 C 105.878 675.498 105.842 679.146 105.95 682.614 Z" style="fill: rgb(154, 179, 218);"/>
  <ellipse class="cls-2" cx="119.696" cy="643.101" rx="5.444" ry="10.565" style="fill: rgb(154, 179, 218);"/>
  <path class="cls-3" d="M 112.742 566.808 C 112.742 566.808 91.791 409.585 85.196 367.647 C 85.196 367.647 76.212 235.886 110.352 233.478 C 144.492 231.07 158.273 268.822 160.663 294.57 C 163.053 320.319 148.085 534.142 141.491 567.688 L 112.742 566.808 Z" style="fill: rgb(246, 141, 136);"/>
  <path class="cls-6" d="M 156.405 291.462 C 156.286 291.49 156.164 291.49 156.045 291.462 C 141.958 284.274 138.275 265.659 138.077 264.869 C 138.029 264.276 138.639 263.853 139.179 264.107 C 139.374 264.2 139.524 264.373 139.586 264.581 C 139.586 264.761 143.288 283.16 156.71 290.096 C 157.181 290.459 157.08 291.196 156.531 291.422 C 156.489 291.438 156.448 291.453 156.405 291.462 Z" style="fill: rgb(236, 189, 187);"/>
  <ellipse class="cls-4" cx="283.77" cy="330.75" rx="23.359" ry="15.165" transform="matrix(0.002269, -0.999997, 0.999997, 0.002269, -196.347748, 717.852295)" style="fill: rgb(249, 212, 212);"/>
  <path class="cls-6" d="M 121.133 565.478 C 120.732 565.48 120.398 565.176 120.36 564.778 C 112.814 472.87 98.044 344.63 97.9 343.336 C 97.772 342.756 98.322 342.255 98.89 342.434 C 99.204 342.535 99.422 342.826 99.427 343.157 C 99.571 344.432 114.341 472.708 121.888 564.634 C 121.918 565.054 121.607 565.423 121.187 565.46 L 121.133 565.478 Z" style="fill: rgb(236, 189, 187);"/>
  <path class="cls-4" d="M 103.758 565.011 C 103.758 565.011 130.117 556.62 150.17 565.91 L 147.169 589.574 L 105.249 589.879 L 103.758 565.011 Z" style="fill: rgb(249, 212, 212);"/>
  <path class="cls-6" d="M 100.254 321.325 C 99.659 321.343 99.269 320.711 99.551 320.186 C 99.637 320.026 99.778 319.9 99.948 319.834 C 105.519 317.516 111.736 314.299 112.077 313.131 C 112.562 311.442 113.658 281.435 114.287 261.67 C 114.274 261.234 114.643 260.883 115.078 260.916 C 115.505 260.925 115.843 261.279 115.832 261.706 C 115.671 266.773 114.233 311.281 113.55 313.563 C 112.868 315.845 103.398 320.049 100.523 321.235 C 100.441 321.282 100.349 321.312 100.254 321.325 Z" style="fill: rgb(236, 189, 187);"/>
  <path class="cls-3" d="M 47.014 258.58 C 47.014 258.58 38.03 268.247 37.814 270.259 C 37.598 272.272 -1.716 510.819 -7.107 576.691 L 19.253 576.691 C 19.253 576.691 102.5 339.509 104.297 329.321 C 106.093 319.133 107.89 259.838 107.297 243.073 C 106.704 226.309 64.533 228.555 47.014 258.58 Z" style="fill: rgb(246, 141, 136);"/>
  <path class="cls-6" d="M 104.369 330.094 L 104.225 330.094 C 103.803 330.02 103.52 329.617 103.596 329.195 C 104.961 321.487 106.417 283.681 106.668 258.148 C 106.634 257.708 107.001 257.342 107.441 257.376 C 107.862 257.385 108.196 257.728 108.196 258.148 C 107.98 281.04 106.579 321.038 105.105 329.447 C 105.046 329.81 104.737 330.081 104.369 330.094 Z" style="fill: rgb(236, 189, 187);"/>
  <path class="cls-6" d="M 38.928 295.954 C 38.333 295.954 37.961 295.311 38.26 294.795 C 38.396 294.556 38.651 294.409 38.928 294.409 C 39.629 294.409 56.321 293.025 59.771 271.247 C 59.827 270.82 60.228 270.525 60.652 270.601 C 61.074 270.665 61.363 271.059 61.299 271.481 C 57.705 294.516 39.215 295.918 39.018 295.936 L 38.928 295.954 Z" style="fill: rgb(236, 189, 187);"/>
  <path class="cls-6" d="M 18.714 560.986 L 18.462 560.986 C 18.063 560.85 17.846 560.418 17.977 560.016 L 92.995 339.006 C 93.142 338.429 93.857 338.228 94.283 338.645 C 94.513 338.869 94.581 339.214 94.45 339.509 L 19.432 560.519 C 19.308 560.805 19.026 560.99 18.714 560.986 Z" style="fill: rgb(236, 189, 187);"/>
  <ellipse class="cls-4" cx="225.94" cy="330.75" rx="23.359" ry="15.165" transform="matrix(0.16367, -0.986515, 0.986515, 0.16367, -332.104614, 603.627136)" style="fill: rgb(249, 212, 212);"/>
  <polygon class="cls-6" points="16.468 572.791 10.861 597.606 6.819 615.466 -9.353 615.466 -6.694 588.1 -5.328 574.139 16.468 572.791" style="fill: rgb(236, 189, 187);"/>
  <polygon class="cls-1" points="-5.328 574.139 16.468 572.791 10.861 597.606 -6.694 588.1 -5.328 574.139" style="fill: rgb(64, 75, 124);"/>
  <path class="cls-1" d="M 20.618 681.5 L -57.885 681.949 C -57.885 681.949 -61.946 650.954 -36.09 646.911 C -35.207 646.718 -34.341 646.454 -33.502 646.12 C -19.523 640.963 -13.18 609.626 -13.18 609.626 C -13.18 609.626 3.441 605.584 13.323 611.208 C 13.323 611.208 19.882 643.551 20.96 671.509 C 21.103 675.247 20.726 678.032 20.618 681.5 Z" style="fill: rgb(64, 75, 124);"/>
  <path class="cls-2" d="M -23.853 652.643 C -24.545 652.774 -25.12 652.107 -24.888 651.442 C -24.78 651.135 -24.516 650.907 -24.195 650.846 C -19.507 648.433 -15.541 644.826 -12.695 640.388 C -5.687 630.2 -0.746 610.561 -0.692 610.363 C -0.527 609.671 0.327 609.42 0.842 609.909 C 1.081 610.135 1.182 610.473 1.105 610.794 C 0.907 611.621 -3.962 630.955 -11.15 641.34 C -14.17 646.088 -18.425 649.926 -23.458 652.445 C -23.571 652.542 -23.708 652.61 -23.853 652.643 Z" style="fill: rgb(154, 179, 218);"/>
  <path class="cls-2" d="M 21.625 682.614 L -58.999 682.614 C -58.999 682.614 -62.144 650.055 -36.305 646.012 C -35.527 645.886 -34.764 645.689 -34.023 645.419 C -26.513 648.168 -16.576 654.978 -12.875 671.761 L 21.553 671.761 C 21.696 675.498 21.732 679.146 21.625 682.614 Z" style="fill: rgb(154, 179, 218);"/>
  <ellipse class="cls-2" cx="7.879" cy="643.101" rx="5.444" ry="10.565" style="fill: rgb(154, 179, 218);"/>
  <path class="cls-4" d="M -14.222 562.603 L -17.223 588.37 L 22.613 591.065 L 28.902 567.113 C 28.902 567.113 6.441 557.213 -14.222 562.603 Z" style="fill: rgb(249, 212, 212);"/>
  <path class="cls-2" d="M 154.824 104.502 C 154.824 104.502 191.964 148.56 207.758 195.385 C 209.111 199.412 208.892 203.802 207.147 207.676 C 201.757 219.553 191.694 244.277 185.585 247.871 C 179.476 251.464 155.938 243.971 156.387 233.191 C 156.836 222.41 164.742 195.906 164.742 195.906 C 164.742 195.906 143.629 171.649 127.907 149.638 C 112.185 127.627 129.219 86.3 154.824 104.502 Z" style="fill: rgb(154, 179, 218);"/>
  <path class="cls-1" d="M 192.108 198.152 C 191.951 198.156 191.797 198.118 191.659 198.045 C 177.194 189.887 167.563 196.427 167.455 196.499 C 166.909 196.923 166.108 196.596 166.014 195.912 C 165.967 195.56 166.129 195.213 166.431 195.026 C 166.862 194.72 177.104 187.839 192.539 196.481 C 193.134 196.833 193.125 197.698 192.521 198.037 C 192.395 198.109 192.253 198.149 192.108 198.152 Z" style="fill: rgb(64, 75, 124);"/>
  <path class="cls-1" d="M 158.759 233.64 L 154.536 245.768 C 156.133 250.104 159.355 253.649 163.52 255.651 C 167.603 257.791 172.258 258.578 176.817 257.897 L 184.938 243.522 C 184.938 243.522 175.972 227.656 158.759 233.64 Z" style="fill: rgb(64, 75, 124);"/>
  <path class="cls-6" d="M 172.972 254.896 C 168.3 264.078 156.8 283.502 153.206 288.713 C 148.659 285.216 145.047 280.648 142.695 275.416 C 148.804 264.258 156.387 246.487 156.387 246.487 C 168.623 243.217 172.972 254.896 172.972 254.896 Z" style="fill: rgb(236, 189, 187);"/>
  <polygon class="cls-6" points="92.833 77.549 76.554 77.082 79.788 44.2 79.914 42.834 92.599 44.739 92.689 56.293 92.833 77.549" style="fill: rgb(236, 189, 187);"/>
  <path class="cls-1" d="M 92.689 56.203 C 84.46 53.669 81.118 48.369 79.788 44.11 L 79.914 42.744 L 92.599 44.649 L 92.689 56.203 Z" style="fill: rgb(64, 75, 124);"/>
  <path class="cls-1" d="M 42.072 239.264 C 42.755 239.264 42.306 261.275 42.971 261.275 C 43.636 261.275 58.028 266.899 73.301 266.216 C 88.574 265.533 136.19 264.204 149.217 255.22 L 149.9 232.759 C 115.742 244.043 79.806 245.409 42.072 239.264 Z" style="fill: rgb(64, 75, 124);"/>
  <path class="cls-4" d="M 96.391 242.875 C 96.391 242.875 96.84 265.138 96.822 266.037 C 96.804 266.935 123.02 265.246 124.044 264.833 C 125.068 264.419 124.421 241.025 124.421 241.025 C 124.421 241.025 114.395 242.282 96.391 242.875 Z" style="fill: rgb(249, 212, 212);"/>
  <path class="cls-4" d="M 55.782 239.929 C 55.782 239.929 55.441 265.767 55.782 266.324 C 56.124 266.881 62.305 267.456 62.305 267.456 C 62.305 267.456 62.197 240.162 61.856 240.054 C 61.514 239.947 56.339 239.138 55.782 239.929 Z" style="fill: rgb(249, 212, 212);"/>
  <path class="cls-4" d="M 74.2 241.168 C 74.2 241.168 73.858 267.007 74.2 267.564 C 74.541 268.121 80.273 267.564 80.273 267.564 C 80.273 267.564 80.614 241.402 80.273 241.294 C 79.932 241.186 74.757 240.378 74.2 241.168 Z" style="fill: rgb(249, 212, 212);"/>
  <path class="cls-4" d="M 141.168 234.52 C 141.168 234.52 141.419 260.305 141.168 260.916 C 140.916 261.527 136.586 261.706 136.586 261.706 C 136.586 261.706 136.334 235.58 136.586 235.419 C 136.837 235.257 140.736 233.819 141.168 234.52 Z" style="fill: rgb(249, 212, 212);"/>
  <path class="cls-1" d="M 63.527 65.636 C 78.739 59.426 95.977 60.677 110.136 69.014 L 108.789 83.622 L 66.455 86.425 L 63.527 65.636 Z" style="fill: rgb(64, 75, 124);"/>
  <path class="cls-2" d="M 157.07 230.495 L 150.565 235.203 C 150.565 235.203 105.411 251.159 41.857 242.624 L 28.147 230.046 C 28.377 216.295 27.71 202.544 26.153 188.881 C 25.468 182.98 24.332 177.142 22.757 171.415 C 22.757 171.29 22.757 171.146 22.631 170.984 C 20.223 162.413 19.037 149.189 18.318 136.269 C 17.815 125.938 17.689 115.822 17.689 108.437 C 17.689 101.555 17.815 97.081 17.815 97.081 C 18.498 97.081 53.303 77.549 85.879 77.082 C 118.456 76.615 154.824 104.502 154.824 104.502 C 154.824 104.502 162.909 174.794 157.07 230.495 Z" style="fill: rgb(154, 179, 218);"/>
  <path class="cls-1" d="M 159.19 184.892 C 158.694 184.892 158.291 184.489 158.291 183.993 C 158.291 151.435 155.632 121.374 154.5 109.982 C 154.448 109.484 154.811 109.04 155.309 108.994 C 155.803 108.952 156.241 109.31 156.297 109.802 C 157.429 121.23 160.07 151.345 160.106 183.993 C 160.106 184.489 159.704 184.892 159.208 184.892 L 159.19 184.892 Z" style="fill: rgb(64, 75, 124);"/>
  <path class="cls-1" d="M 35.029 142.145 C 34.112 155.082 31.813 176.86 26.153 188.863 C 25.468 182.962 24.332 177.124 22.757 171.398 C 22.757 171.272 22.757 171.128 22.631 170.966 C 20.223 162.395 19.037 149.171 18.318 136.252 C 17.815 125.92 17.689 115.804 17.689 108.419 C 22.072 111.745 25.883 115.762 28.974 120.314 C 33.446 126.676 35.586 134.388 35.029 142.145 Z" style="fill: rgb(64, 75, 124);"/>
  <path class="cls-1" d="M 117.09 239.03 C 116.594 239.01 116.208 238.592 116.228 238.096 C 120.217 150.824 88.772 82.203 88.467 81.52 C 88.176 80.891 88.675 80.183 89.367 80.246 C 89.687 80.275 89.967 80.473 90.102 80.765 C 90.425 81.448 122.049 150.482 118.042 238.186 C 118.014 238.682 117.586 239.061 117.09 239.03 Z" style="fill: rgb(64, 75, 124);"/>
  <path class="cls-1" d="M 123.828 239.03 C 123.332 239.01 122.946 238.592 122.966 238.096 C 126.955 150.86 96.175 83.083 95.87 82.418 C 95.578 81.79 96.078 81.082 96.77 81.145 C 97.09 81.173 97.37 81.371 97.505 81.664 C 97.81 82.347 128.769 150.482 124.763 238.186 C 124.734 238.674 124.319 239.05 123.828 239.03 Z" style="fill: rgb(64, 75, 124);"/>
  <path class="cls-1" d="M 42.072 227.944 C 41.577 227.935 41.181 227.523 41.192 227.027 C 41.641 206.975 34.382 159.97 34.31 159.503 C 34.206 158.811 34.891 158.266 35.541 158.521 C 35.843 158.642 36.058 158.911 36.107 159.233 C 36.107 159.7 43.456 206.867 43.007 227.063 C 42.998 227.566 42.576 227.964 42.072 227.944 Z" style="fill: rgb(64, 75, 124);"/>
  <path class="cls-2" d="M 17.815 97.081 L -33.844 149.422 L -54.956 212.527 C -54.956 212.527 -13.396 206.921 25.236 165.594 C 32.199 154.506 35.787 141.633 35.568 128.543 C 35.595 115.663 28.853 103.716 17.815 97.081 Z" style="fill: rgb(154, 179, 218);"/>
  <path class="cls-1" d="M 25.218 166.492 C 24.526 166.496 24.09 165.75 24.433 165.148 C 24.447 165.123 24.463 165.098 24.481 165.073 C 31.302 154.123 34.833 141.443 34.652 128.543 C 34.652 117.744 29.796 107.517 21.427 100.692 C 20.938 100.202 21.163 99.368 21.831 99.19 C 22.081 99.124 22.345 99.167 22.559 99.309 C 31.345 106.473 36.445 117.207 36.448 128.543 C 36.612 141.82 32.95 154.863 25.901 166.115 C 25.743 166.338 25.491 166.478 25.218 166.492 Z" style="fill: rgb(64, 75, 124);"/>
  <path class="cls-2" d="M -44.175 97.979 C -44.175 97.979 -55.406 108.311 -60.113 116.63 C -64.821 124.949 -73.356 176.824 -70.894 190.534 C -68.433 204.244 -54.956 212.527 -54.956 212.527 C -54.956 212.527 -29.801 203.094 -25.309 179.968 C -20.817 156.843 -19.235 128.759 -19.918 122.021 C -20.601 115.283 -25.758 105.184 -25.758 105.184 L -44.175 97.979 Z" style="fill: rgb(154, 179, 218);"/>
  <path class="cls-1" d="M -41.103 205.34 C -41.795 205.336 -42.222 204.585 -41.874 203.988 C -41.818 203.893 -41.746 203.809 -41.66 203.74 C -33.161 197.02 -27.968 188.988 -26.189 179.879 C -23.941 167.755 -22.358 155.519 -21.446 143.223 C -21.417 142.722 -20.975 142.345 -20.475 142.397 C -19.978 142.434 -19.607 142.871 -19.649 143.367 C -20.565 155.717 -22.153 168.007 -24.41 180.184 C -26.207 189.725 -31.598 198.152 -40.582 205.124 C -40.727 205.25 -40.911 205.325 -41.103 205.34 Z" style="fill: rgb(64, 75, 124);"/>
  <path class="cls-1" d="M -42.522 88.24 L -47.913 103.064 C -41.601 109.258 -32.922 112.422 -24.105 111.743 L -19.02 97.063 C -19.02 97.063 -25.902 84.359 -42.522 88.24 Z" style="fill: rgb(64, 75, 124);"/>
  <path class="cls-6" d="M -7.682 56.544 L -16.774 77.873 L -23.063 97.188 C -34.634 97.745 -39.468 90.235 -39.468 90.235 L -31.382 77.082 L -31.598 55.754 C -31.598 55.754 -27.106 43.284 -26.099 42.942 C -23.109 42.694 -20.105 42.694 -17.115 42.942 L -14.007 17.283 C -13.82 15.717 -12.391 14.603 -10.826 14.804 C -9.419 14.974 -8.354 16.155 -8.329 17.571 L -7.682 56.544 Z" style="fill: rgb(236, 189, 187);"/>
  <path class="cls-1" d="M -17.007 62.204 C -17.277 62.226 -17.546 62.226 -17.816 62.204 C -21.248 61.647 -21.571 56.239 -21.607 55.628 C -21.607 54.936 -20.858 54.505 -20.26 54.85 C -19.981 55.01 -19.81 55.306 -19.81 55.628 C -19.81 56.814 -19.235 60.228 -17.528 60.515 C -14.963 60.607 -12.645 58.997 -11.832 56.562 C -11.554 52.737 -11.881 48.893 -12.803 45.17 C -13.108 44.38 -15.606 43.859 -17.223 43.823 C -17.719 43.803 -18.105 43.384 -18.085 42.888 C -18.024 42.412 -17.631 42.047 -17.151 42.026 C -16.289 42.026 -11.94 42.295 -11.096 44.541 C -10.066 48.595 -9.714 52.789 -10.054 56.957 C -11.04 59.992 -13.818 62.089 -17.007 62.204 Z" style="fill: rgb(64, 75, 124);"/>
  <path class="cls-1" d="M -19.774 71.925 L -19.918 71.925 C -20.411 71.842 -20.741 71.375 -20.655 70.883 C -19.893 66.906 -20.146 62.804 -21.392 58.952 C -21.647 58.309 -21.111 57.629 -20.427 57.73 C -20.109 57.777 -19.839 57.989 -19.721 58.287 C -18.342 62.445 -18.058 66.888 -18.894 71.188 C -18.971 71.614 -19.341 71.923 -19.774 71.925 Z" style="fill: rgb(64, 75, 124);"/>
  <path class="cls-1" d="M -20.817 59.527 C -21.954 59.534 -23.061 59.16 -23.961 58.467 C -24.488 58.018 -24.329 57.168 -23.677 56.938 C -23.374 56.83 -23.038 56.893 -22.793 57.101 C -22.074 57.628 -21.174 57.841 -20.296 57.694 C -19.604 57.59 -19.059 58.274 -19.314 58.925 C -19.435 59.227 -19.704 59.442 -20.026 59.491 C -20.288 59.521 -20.552 59.534 -20.817 59.527 Z" style="fill: rgb(64, 75, 124);"/>
  <path class="cls-1" d="M -15.732 57.263 C -16.22 57.263 -16.621 56.871 -16.63 56.382 C -16.533 54.485 -16.831 52.588 -17.51 50.812 C -20.101 50.724 -22.694 50.888 -25.255 51.297 C -25.947 51.387 -26.477 50.695 -26.209 50.05 C -26.083 49.752 -25.81 49.542 -25.488 49.501 C -23.799 49.285 -18.193 48.62 -16.792 49.159 C -15.39 49.698 -14.887 53.382 -14.833 56.346 C -14.822 56.842 -15.218 57.254 -15.714 57.263 L -15.732 57.263 Z" style="fill: rgb(64, 75, 124);"/>
  <path class="cls-1" d="M -13.18 53.022 C -13.663 53.022 -14.059 52.641 -14.079 52.16 C -14.168 49.95 -14.743 47.237 -15.408 46.895 C -17.893 46.448 -20.434 46.387 -22.937 46.715 C -23.629 46.778 -24.128 46.069 -23.837 45.438 C -23.701 45.145 -23.42 44.947 -23.099 44.919 C -21.985 44.829 -16.289 44.38 -14.564 45.296 C -12.839 46.212 -12.354 50.686 -12.3 52.07 C -12.28 52.566 -12.666 52.985 -13.162 53.004 L -13.18 53.022 Z" style="fill: rgb(64, 75, 124);"/>
  <path class="cls-6" d="M -15.085 55.861 C -14.794 57.949 -13.489 59.759 -11.599 60.695 C -14.822 63.011 -17.124 66.389 -18.103 70.236 C -19.9 76.866 -18.319 78.106 -18.319 78.106 L -9.479 75.069 C -7.588 74.424 -6.045 73.035 -5.202 71.224 C -2.848 66.121 1.877 55.807 2.129 54.298 C 2.47 52.286 -0.009 51.046 -2.812 51.944 C -5.615 52.843 -14.869 54.855 -15.085 55.861 Z" style="fill: rgb(236, 189, 187);"/>
  <path class="cls-1" d="M -8.706 61.899 C -9.191 61.929 -9.676 61.929 -10.161 61.899 C -13.318 61.762 -15.847 59.234 -15.983 56.077 C -16.014 55.849 -15.956 55.617 -15.821 55.43 C -15.624 55.161 -14.348 53.795 -8.634 52.663 C -7.942 52.532 -7.367 53.198 -7.599 53.863 C -7.707 54.171 -7.971 54.399 -8.293 54.46 C -10.343 54.744 -12.327 55.389 -14.15 56.364 C -13.958 58.478 -12.212 60.109 -10.09 60.156 C -8.174 60.344 -6.239 60.131 -4.412 59.527 C -3.754 59.306 -3.103 59.879 -3.242 60.558 C -3.305 60.873 -3.531 61.131 -3.837 61.234 C -5.414 61.714 -7.058 61.938 -8.706 61.899 Z" style="fill: rgb(64, 75, 124);"/>
  <path class="cls-6" d="M 67.821 32.089 C 67.821 32.089 76.05 43.014 80.399 46.158 C 84.747 49.303 98.978 52.609 103.165 49.914 C 107.351 47.219 104.818 14.283 104.818 14.283 C 104.818 14.283 93.731 -1.745 77.416 5.299 C 61.101 12.342 67.821 32.089 67.821 32.089 Z" style="fill: rgb(236, 189, 187);"/>
  <path class="cls-1" d="M 115.15 17.876 C 99.266 22.063 79.5 12.773 79.5 12.773 C 79.326 17.043 78.415 21.249 76.805 25.207 L 80.021 32.395 L 71.72 37.929 C 71.72 37.929 43.726 30.005 43.564 26.411 C 43.402 22.818 48.954 -2.05 51.811 -3.093 C 56.303 -4.011 60.855 -4.611 65.431 -4.889 C 67.826 -12.028 70.895 -18.923 74.595 -25.481 C 81.118 -22.57 77.955 -13.64 77.757 -13.083 L 99.912 -38.346 C 117.431 -35.364 113.982 -19.192 113.982 -19.192 C 118.555 -22.705 124.089 -24.743 129.848 -25.032 C 136.406 -13.281 131.016 13.672 115.15 17.876 Z" style="fill: rgb(64, 75, 124);"/>
  <path class="cls-6" d="M 75.799 36.599 C 74.049 31.985 69.449 29.094 64.533 29.52 C 61.327 29.832 58.614 32.023 57.633 35.09 C 53.59 45.278 72.601 50.058 77.704 41.379 L 75.799 36.599 Z" style="fill: rgb(236, 189, 187);"/>
  <path class="cls-1" d="M 74.865 41.037 C 74.572 41.039 74.297 40.899 74.128 40.66 C 69.384 33.886 61.748 37.228 61.424 37.372 C 60.777 37.616 60.109 37.07 60.22 36.387 C 60.265 36.109 60.438 35.868 60.688 35.737 C 60.777 35.737 70.031 31.64 75.601 39.636 C 75.989 40.209 75.61 40.987 74.92 41.036 C 74.902 41.036 74.883 41.037 74.865 41.037 Z" style="fill: rgb(64, 75, 124);"/>
  <path class="cls-1" d="M 66.994 42.888 C 66.551 42.883 66.177 42.556 66.114 42.116 C 65.812 39.862 65.997 37.571 66.653 35.395 C 66.937 34.765 67.798 34.68 68.202 35.241 C 68.356 35.457 68.409 35.731 68.342 35.988 C 67.781 37.888 67.623 39.882 67.875 41.846 C 67.95 42.337 67.613 42.797 67.12 42.87 L 66.994 42.87 L 66.994 42.888 Z" style="fill: rgb(64, 75, 124);"/>
  <path class="cls-1" d="M 82.519 25.082 C 82.519 25.082 83.471 19.691 87.568 20.428 C 87.568 20.428 87.317 18.02 88.233 17.733 C 89.149 17.445 90.156 21.632 90.156 21.632 C 87.405 22.259 84.808 23.432 82.519 25.082 Z" style="fill: rgb(64, 75, 124);"/>
  <path class="cls-1" d="M 102.356 20.895 C 102.356 20.895 100.99 16.169 98.888 18.308 C 98.888 18.308 98.637 15.936 98.098 16.008 C 96.876 16.187 97.684 20.338 97.684 20.338 C 99.258 19.957 100.915 20.155 102.356 20.895 Z" style="fill: rgb(64, 75, 124);"/>
  <path class="cls-1" d="M 102.356 40.272 C 100.326 40.958 100.326 42.744 99.479 42.744 C 96.957 42.744 92.707 46.069 91.126 42.691 C 90.555 41.424 94.43 40.509 95.785 40.342 C 98.39 40.02 95.785 39.963 102.356 40.272 Z" style="fill: rgb(64, 75, 124);"/>
  <ellipse class="cls-1" cx="258.06" cy="104.91" rx="2.066" ry="2.551" transform="matrix(0.986228, -0.165392, 0.165392, 0.986228, -182.964127, -31.670176)" style="fill: rgb(64, 75, 124);"/>
  <circle class="cls-5" cx="89.199" cy="28.16" r="0.539" style="fill: rgb(255, 255, 255);"/>
  <ellipse class="cls-1" cx="264.72" cy="103.8" rx="2.066" ry="2.551" transform="matrix(0.986228, -0.165392, 0.165392, 0.986228, -177.391464, -31.461658)" style="fill: rgb(64, 75, 124);"/>
  <circle class="cls-5" cx="101.171" cy="26.155" r="0.539" style="fill: rgb(255, 255, 255);"/>
  <path class="cls-1" d="M 96.409 36.707 L 95.977 36.707 C 95.48 36.669 95.109 36.233 95.151 35.737 C 95.198 35.245 95.627 34.88 96.121 34.91 C 96.121 34.91 98.187 35.036 98.475 33.742 C 98.509 33.649 98.509 33.548 98.475 33.455 C 97.839 33.167 97.127 33.092 96.445 33.239 C 95.959 33.315 95.503 32.988 95.42 32.503 L 94.558 27.597 C 94.472 27.105 94.802 26.638 95.295 26.555 C 95.783 26.478 96.245 26.805 96.337 27.292 L 97.055 31.389 C 98.04 31.288 99.023 31.586 99.787 32.215 C 100.263 32.725 100.439 33.446 100.254 34.12 C 99.738 35.776 98.139 36.853 96.409 36.707 Z" style="fill: rgb(64, 75, 124);"/>
  <path d="M -110.405 -180.103 C -110.405 -176.505 -108.607 -173.531 -105.009 -171.179 C -105.147 -171.732 -105.216 -172.424 -105.216 -173.254 C -105.216 -175.192 -104.491 -176.817 -103.037 -178.131 C -101.585 -179.446 -99.751 -180.103 -97.537 -180.103 C -91.449 -180.103 -88.405 -177.059 -88.405 -170.971 C -88.405 -166.958 -89.996 -163.603 -93.179 -160.904 C -96.361 -158.206 -100.305 -156.858 -105.009 -156.858 C -111.097 -156.858 -116.113 -158.899 -120.057 -162.98 C -124 -167.063 -125.972 -172.286 -125.972 -178.651 C -125.972 -190.274 -121.025 -199.856 -111.132 -207.396 C -101.239 -214.938 -88.543 -218.708 -73.046 -218.708 C -57.687 -218.708 -45.338 -215.11 -35.998 -207.916 C -26.658 -200.721 -21.988 -191.242 -21.988 -179.481 C -21.988 -164.675 -29.322 -153.537 -43.988 -146.065 C -46.479 -144.82 -49.662 -143.367 -53.536 -141.707 C -61.7 -138.247 -67.269 -134.927 -70.244 -131.744 C -73.219 -128.561 -72.171 -124.459 -68.781 -121.783 C -65.74 -119.383 -60.539 -113.491 -68.781 -106.67 C -73.259 -102.966 -86.483 -97.657 -91.446 -112.887 C -93.505 -119.202 -89.443 -131.19 -86.122 -135.895 C -81.97 -141.568 -74.361 -147.448 -63.291 -153.537 C -53.329 -158.933 -46.894 -163.292 -43.988 -166.613 C -41.083 -169.934 -39.63 -174.43 -39.63 -180.103 C -39.63 -187.714 -42.744 -193.837 -48.97 -198.472 C -55.197 -203.107 -63.429 -205.425 -73.669 -205.425 C -84.046 -205.425 -92.763 -202.969 -99.82 -198.056 C -106.877 -193.144 -110.405 -187.16 -110.405 -180.103 Z M -73.407 -71.505 C -77.005 -71.505 -80.083 -72.785 -82.643 -75.344 C -85.202 -77.904 -86.483 -80.983 -86.483 -84.581 C -86.483 -88.178 -85.202 -91.257 -82.643 -93.816 C -80.083 -96.376 -77.005 -97.657 -73.407 -97.657 C -69.809 -97.657 -66.765 -96.376 -64.274 -93.816 C -61.783 -91.257 -60.539 -88.178 -60.539 -84.581 C -60.539 -80.983 -61.783 -77.904 -64.274 -75.344 C -66.765 -72.785 -69.809 -71.505 -73.407 -71.505 Z M -8.833 -76.798 C 9.95 -94.387 21.687 -119.408 21.687 -147.17 C 21.687 -200.404 -21.468 -243.558 -74.702 -243.558 C -127.936 -243.558 -171.09 -200.404 -171.09 -147.17 C -171.09 -93.936 -127.936 -50.781 -74.702 -50.781 C -62.055 -50.781 -49.977 -53.217 -38.911 -57.644 C -34.517 -51.766 -28.138 -45.13 -19.48 -40.476 C -0.308 -30.171 10.378 -31.851 10.378 -31.851 C 10.378 -31.851 -8.449 -57.97 -8.833 -76.798 Z" style="white-space: pre; fill: rgb(255, 255, 255); filter: none;"/>
</svg>