<?xml version="1.0" encoding="utf-8"?>
<svg viewBox="-127.363 -585.46 921.991 945.208" xmlns="http://www.w3.org/2000/svg">
  <g transform="matrix(2.199697, 0, 0, 2.199697, -291.229218, -643.816406)" style="">
    <title>computer</title>
    <path class="cls-1" d="M 386.588 282.746 L 352.119 282.746 L 326.99 226.64 L 330.691 226.64 L 345.671 260.088 L 346.526 261.998 C 346.903 262.838 347.738 263.379 348.659 263.379 L 352.299 263.379 C 353.992 263.379 355.122 261.632 354.428 260.088 L 339.448 226.64 L 361.466 226.64 L 386.588 282.746 Z" style="fill: rgb(255, 255, 255);"/>
    <path class="cls-2" d="M 386.588 283.645 L 352.119 283.645 C 351.764 283.645 351.444 283.436 351.299 283.113 L 326.17 227.001 C 325.905 226.406 326.339 225.735 326.99 225.734 L 330.691 225.734 C 331.045 225.735 331.366 225.943 331.511 226.266 L 347.336 261.628 C 347.568 262.144 348.082 262.476 348.649 262.476 L 352.288 262.476 C 353.328 262.473 354.021 261.401 353.597 260.451 L 338.603 227.001 C 338.338 226.406 338.772 225.735 339.424 225.734 L 361.441 225.734 C 361.795 225.735 362.117 225.943 362.261 226.266 L 387.39 282.372 C 387.66 282.961 387.236 283.634 386.588 283.645 Z M 352.702 281.847 L 385.199 281.847 L 360.876 227.54 L 340.83 227.54 L 355.24 259.728 C 356.196 261.867 354.634 264.28 352.291 264.285 L 348.652 264.285 C 347.377 264.285 346.221 263.536 345.699 262.372 L 330.101 227.544 L 328.378 227.544 L 352.702 281.847 Z" style="fill: rgb(38, 36, 36);"/>
    <polygon class="cls-1" points="376.719 282.746 342.247 282.746 317.121 226.64 329.684 226.64 330.086 227.54 338.844 227.54 338.441 226.64 351.59 226.64 376.719 282.746" style="fill: rgb(255, 255, 255);"/>
    <path class="cls-2" d="M 378.525 282.386 L 353.396 226.281 C 353.252 225.957 352.93 225.748 352.576 225.749 L 318.103 225.749 C 317.452 225.749 317.017 226.42 317.283 227.015 L 342.409 283.12 C 342.552 283.445 342.874 283.653 343.228 283.652 L 377.701 283.652 C 378.353 283.655 378.791 282.982 378.525 282.386 Z M 343.815 281.854 L 319.495 227.547 L 351.993 227.547 L 376.316 281.854 L 343.815 281.854 Z" style="fill: rgb(38, 36, 36);"/>
    <rect class="cls-1" x="279.829" y="280.707" width="120.602" height="10.548" rx="5.276" ry="5.276" style="fill: rgb(255, 255, 255);"/>
    <path class="cls-2" d="M 395.158 292.158 L 285.105 292.158 C 280.353 292.044 277.507 286.827 279.982 282.769 C 281.076 280.976 283.006 279.862 285.105 279.811 L 395.158 279.811 C 399.911 279.926 402.757 285.142 400.281 289.201 C 399.187 290.993 397.257 292.107 395.158 292.158 Z M 285.105 281.609 C 281.737 281.706 279.737 285.412 281.505 288.281 C 282.278 289.536 283.631 290.318 285.105 290.36 L 395.158 290.36 C 398.526 290.263 400.527 286.557 398.759 283.689 C 397.986 282.434 396.632 281.652 395.158 281.609 L 285.105 281.609 Z" style="fill: rgb(38, 36, 36);"/>
    <rect class="cls-1" x="337.312" y="280.707" width="63.119" height="10.548" rx="5.276" ry="5.276" style="fill: rgb(255, 255, 255);"/>
    <path class="cls-2" d="M 395.158 292.158 L 342.588 292.158 C 337.836 292.044 334.99 286.827 337.465 282.769 C 338.559 280.976 340.489 279.862 342.588 279.811 L 395.158 279.811 C 399.911 279.926 402.757 285.142 400.281 289.201 C 399.187 290.993 397.257 292.107 395.158 292.158 Z M 342.588 281.609 C 339.22 281.706 337.22 285.412 338.987 288.281 C 339.761 289.536 341.114 290.318 342.588 290.36 L 395.158 290.36 C 398.526 290.263 400.527 286.557 398.759 283.689 C 397.986 282.434 396.632 281.652 395.158 281.609 L 342.588 281.609 Z" style="fill: rgb(38, 36, 36);"/>
    <rect class="cls-1" x="201.152" y="39.845" width="273.5" height="188.806" rx="7.88" ry="7.88" style="fill: rgb(255, 255, 255);"/>
    <path class="cls-2" d="M 466.772 229.55 L 209.032 229.55 C 204.186 229.544 200.259 225.617 200.253 220.771 L 200.253 47.726 C 200.259 42.879 204.186 38.952 209.032 38.946 L 466.772 38.946 C 471.618 38.952 475.545 42.879 475.551 47.726 L 475.551 220.771 C 475.545 225.617 471.618 229.544 466.772 229.55 Z M 209.032 40.734 C 205.178 40.738 202.055 43.861 202.051 47.715 L 202.051 220.771 C 202.057 224.624 205.179 227.746 209.032 227.752 L 466.772 227.752 C 470.624 227.746 473.746 224.624 473.753 220.771 L 473.753 47.726 C 473.746 43.872 470.624 40.75 466.772 40.745 L 209.032 40.745 L 209.032 40.734 Z" style="fill: rgb(38, 36, 36);"/>
    <rect class="cls-1" x="193.366" y="39.845" width="273.5" height="188.806" rx="7.88" ry="7.88" style="fill: rgb(255, 255, 255);"/>
    <path class="cls-2" d="M 458.986 229.55 L 201.246 229.55 C 196.399 229.544 192.473 225.617 192.466 220.771 L 192.466 47.726 C 192.473 42.879 196.399 38.952 201.246 38.946 L 458.986 38.946 C 463.831 38.952 467.759 42.879 467.764 47.726 L 467.764 220.771 C 467.759 225.617 463.831 229.544 458.986 229.55 Z M 201.246 40.734 C 197.392 40.738 194.269 43.861 194.264 47.715 L 194.264 220.771 C 194.271 224.624 197.393 227.746 201.246 227.752 L 458.986 227.752 C 462.838 227.746 465.96 224.624 465.966 220.771 L 465.966 47.726 C 465.96 43.872 462.838 40.75 458.986 40.745 L 201.246 40.745 L 201.246 40.734 Z" style="fill: rgb(38, 36, 36);"/>
    <rect class="cls-1" x="202.357" y="48.836" width="255.517" height="170.823" rx="2.126" ry="2.126" style="fill: rgb(255, 255, 255);"/>
    <path class="cls-2" d="M 455.749 220.559 L 204.483 220.559 C 202.813 220.557 201.46 219.204 201.457 217.534 L 201.457 50.962 C 201.46 49.293 202.813 47.939 204.483 47.938 L 455.749 47.938 C 457.418 47.939 458.771 49.293 458.773 50.962 L 458.773 217.534 C 458.771 219.204 457.418 220.557 455.749 220.559 Z M 204.483 49.725 C 203.805 49.725 203.256 50.274 203.256 50.951 L 203.256 217.534 C 203.256 218.212 203.805 218.761 204.483 218.761 L 455.749 218.761 C 456.426 218.761 456.975 218.212 456.975 217.534 L 456.975 50.962 C 456.975 50.285 456.426 49.736 455.749 49.736 L 204.483 49.736 L 204.483 49.725 Z" style="fill: rgb(38, 36, 36);"/>
    <path class="cls-1" d="M 457.874 194.632 L 457.874 217.534 C 457.872 218.708 456.922 219.658 455.749 219.66 L 204.483 219.66 C 203.31 219.658 202.359 218.708 202.357 217.534 L 202.357 194.632 L 457.874 194.632 Z" style="fill: rgb(255, 255, 255);"/>
    <path class="cls-2" d="M 455.749 220.559 L 204.483 220.559 C 202.813 220.557 201.46 219.204 201.457 217.534 L 201.457 194.632 C 201.457 194.135 201.86 193.732 202.357 193.732 L 457.874 193.732 C 458.37 193.732 458.773 194.135 458.773 194.632 L 458.773 217.534 C 458.771 219.204 457.418 220.557 455.749 220.559 Z M 203.274 195.531 L 203.274 217.534 C 203.274 218.212 203.823 218.761 204.5 218.761 L 455.767 218.761 C 456.444 218.761 456.993 218.212 456.993 217.534 L 456.993 195.531 L 203.256 195.531 L 203.274 195.531 Z" style="fill: rgb(38, 36, 36);"/>
    <path class="cls-1" d="M 457.874 50.962 L 457.874 60.122 L 202.357 60.122 L 202.357 50.962 C 202.357 49.789 203.308 48.836 204.483 48.836 L 455.749 48.836 C 456.923 48.836 457.874 49.789 457.874 50.962 Z" style="fill: rgb(255, 255, 255);"/>
    <path class="cls-2" d="M 457.874 61.022 L 202.357 61.022 C 201.86 61.022 201.457 60.619 201.457 60.122 L 201.457 50.962 C 201.46 49.293 202.813 47.939 204.483 47.938 L 455.749 47.938 C 457.418 47.939 458.771 49.293 458.773 50.962 L 458.773 60.122 C 458.773 60.619 458.37 61.022 457.874 61.022 Z M 203.242 59.224 L 456.96 59.224 L 456.96 50.951 C 456.96 50.274 456.411 49.725 455.734 49.725 L 204.483 49.725 C 203.805 49.725 203.256 50.274 203.256 50.951 L 203.256 59.224 L 203.242 59.224 Z" style="fill: rgb(38, 36, 36);"/>
    <path class="cls-1" d="M 457.874 60.122 L 457.874 217.534 C 457.872 218.708 456.922 219.658 455.749 219.66 L 383.789 219.66 L 383.789 60.122 L 457.878 60.122 L 457.874 60.122 Z" style="fill: rgb(255, 255, 255);"/>
    <path class="cls-2" d="M 455.749 220.559 L 383.789 220.559 C 383.293 220.559 382.891 220.156 382.891 219.66 L 382.891 60.122 C 382.891 59.626 383.293 59.224 383.789 59.224 L 457.878 59.224 C 458.374 59.224 458.777 59.626 458.777 60.122 L 458.777 217.534 C 458.775 219.206 457.42 220.559 455.749 220.559 Z M 384.689 218.761 L 455.749 218.761 C 456.426 218.761 456.975 218.212 456.975 217.534 L 456.975 61.022 L 384.685 61.022 L 384.685 218.761 L 384.689 218.761 Z" style="fill: rgb(38, 36, 36);"/>
    <rect class="cls-3" x="395.177" y="68.995" width="51.312" height="91.111" rx="3.237" ry="3.237" style="fill: rgb(154, 179, 218);"/>
    <rect class="cls-4" x="395.177" y="181.893" width="51.312" height="6.474" rx="3.237" ry="3.237" style="fill: rgb(154, 179, 218);"/>
    <rect class="cls-4" x="395.177" y="193.704" width="51.312" height="6.474" rx="3.237" ry="3.237" style="fill: rgb(154, 179, 218);"/>
  </g>
  <g style="" transform="matrix(3.825614, 0, 0, 3.825614, -768.757324, -849.033325)">
    <title>www</title>
    <rect width="104.323" height="91.065" style="fill: rgb(154, 179, 218);" x="241.235" y="88.73">
      <title>Background</title>
    </rect>
    <circle style="fill: rgb(250, 250, 250); opacity: 0.7;" cx="250.239" cy="95.26" r="1.819"/>
    <circle style="fill: rgb(194, 194, 194); opacity: 0.7;" cx="255.695" cy="95.26" r="1.819"/>
    <circle style="fill: rgb(102, 102, 102); opacity: 0.7;" cx="261.149" cy="95.26" r="1.819"/>
    <polygon style="fill: rgb(234, 234, 234);" points="331.605 98.455 273.013 98.455 276.908 92.069 335.504 92.069"/>
  </g>
  <g style="" transform="matrix(2.199697, 0, 0, 2.199697, -127.361908, -585.460022)">
    <title>Dude</title>
    <polygon class="cls-1" points="90.221 381.067 75.613 404.675 69.045 393.594 80.047 372.896 90.221 381.067" style="fill: rgb(216, 154, 116);"/>
    <path class="cls-2" d="M 75.613 405.574 C 75.298 405.571 75.006 405.403 74.847 405.131 L 68.28 394.047 C 68.118 393.778 68.111 393.443 68.258 393.166 L 79.259 372.468 C 79.523 371.97 80.175 371.835 80.615 372.188 L 90.794 380.359 C 91.146 380.643 91.233 381.145 90.995 381.531 L 76.386 405.138 C 76.222 405.41 75.929 405.575 75.613 405.574 Z M 70.078 393.568 L 75.631 402.941 L 89.042 381.273 L 80.331 374.277 L 70.078 393.568 Z" style="fill: rgb(38, 36, 36);"/>
    <path class="cls-4" d="M 113.12 415.619 C 111.754 414.374 108.484 412.156 107.251 410.807 C 100.411 403.338 94.262 395.264 88.88 386.685 L 68.225 388.037 C 67.582 401.79 67.866 414.695 68.129 422.165 C 68.28 426.325 68.438 428.8 68.438 428.8 L 117.238 428.8 L 117.238 424.06 C 117.238 420.978 115.75 418.015 113.12 415.619 Z" style="fill: rgb(64, 75, 126);"/>
    <ellipse class="cls-1" cx="73.994" cy="407.095" rx="3.204" ry="5.79" style="fill: rgb(255, 255, 255);"/>
    <path class="cls-1" d="M 117.238 424.06 L 117.238 428.8 L 68.438 428.8 C 68.438 428.8 68.28 426.325 68.125 422.165 L 109.984 422.165 C 109.984 422.165 110.204 416.795 108.905 412.267 C 110.344 413.447 112.2 414.763 113.138 415.619 C 115.75 418.015 117.238 420.978 117.238 424.06 Z" style="fill: rgb(255, 255, 255);"/>
    <path class="cls-2" d="M 117.238 429.699 L 68.438 429.699 C 67.963 429.7 67.568 429.332 67.538 428.858 C 67.538 428.832 67.376 426.34 67.225 422.197 C 67.207 421.688 67.615 421.265 68.125 421.265 L 109.1 421.265 C 109.1 419.596 108.981 415.799 108.02 412.519 C 107.82 411.857 108.412 411.225 109.086 411.382 C 109.223 411.414 109.351 411.478 109.459 411.569 C 110.039 412.04 110.685 412.537 111.311 413.008 C 112.253 413.727 113.146 414.414 113.731 414.95 C 116.577 417.543 118.145 420.776 118.145 424.056 L 118.145 428.797 C 118.146 429.297 117.739 429.703 117.238 429.699 Z M 69.286 427.901 L 116.339 427.901 L 116.339 424.06 C 116.339 421.291 114.979 418.532 112.516 416.285 C 112.009 415.821 111.2 415.206 110.337 414.536 C 110.771 417.068 110.955 419.637 110.887 422.204 C 110.867 422.687 110.471 423.068 109.988 423.067 L 69.06 423.067 C 69.146 425.301 69.225 426.966 69.286 427.901 Z" style="fill: rgb(38, 36, 36);"/>
    <path class="cls-4" d="M 135.041 345.059 C 134.708 345.443 134.357 345.816 133.987 346.181 L 93.279 386.685 L 72.221 376.856 L 99.317 328.9 C 99.317 328.9 64.79 279.988 62.87 270.4 C 60.949 260.811 57.597 213.093 81.094 213.093 C 104.589 213.093 108.546 244.505 108.546 244.505 L 137.868 317.848 L 139.184 321.143 C 142.422 329.258 140.82 338.506 135.041 345.059 Z" style="fill: rgb(64, 75, 126);"/>
    <path class="cls-1" d="M 88.765 249.388 L 88.765 263.685 C 88.765 265.248 87.935 266.693 86.586 267.483 L 78.155 272.413 L 69.725 267.483 C 68.375 266.693 67.545 265.248 67.545 263.685 L 67.545 249.388 L 88.765 249.388 Z" style="fill: rgb(255, 255, 255);"/>
    <path class="cls-2" d="M 92.534 374.277 C 91.842 374.277 91.41 373.528 91.755 372.928 C 91.774 372.897 91.793 372.867 91.815 372.838 L 123.716 330.004 L 97.702 263.469 C 97.451 262.824 97.991 262.148 98.676 262.252 C 98.994 262.301 99.261 262.515 99.378 262.815 L 125.572 329.81 C 125.684 330.098 125.641 330.424 125.456 330.673 L 93.257 373.911 C 93.088 374.141 92.819 374.276 92.534 374.277 Z" style="fill: rgb(154, 179, 218);"/>
    <path class="cls-2" d="M 94.339 382.308 C 94.206 382.308 94.075 382.279 93.954 382.222 L 76.382 373.921 C 75.787 373.567 75.798 372.702 76.401 372.364 C 76.626 372.238 76.894 372.214 77.137 372.299 L 94.71 380.6 C 95.333 380.901 95.396 381.764 94.824 382.153 C 94.681 382.25 94.512 382.304 94.339 382.308 Z" style="fill: rgb(154, 179, 218);"/>
    <path class="cls-2" d="M 121.856 331.04 L 121.802 331.04 L 101.914 329.86 C 101.222 329.82 100.832 329.046 101.213 328.467 C 101.39 328.198 101.697 328.044 102.018 328.062 L 121.907 329.227 C 122.605 329.247 123.019 330.014 122.654 330.609 C 122.484 330.884 122.18 331.049 121.856 331.04 Z" style="fill: rgb(154, 179, 218);"/>
    <path class="cls-1" d="M 135.041 345.059 C 131.34 342.542 128.833 337.704 128.833 332.137 C 128.833 325.257 132.667 319.474 137.85 317.848 L 139.166 321.143 C 142.409 329.255 140.814 338.502 135.041 345.059 Z" style="fill: rgb(255, 255, 255);"/>
    <polygon class="cls-1" points="262.364 371.4 281.537 391.479 269.191 395.076 251.928 379.223 262.364 371.4" style="fill: rgb(216, 154, 116);"/>
    <path class="cls-2" d="M 269.191 395.975 C 268.966 395.975 268.749 395.89 268.583 395.738 L 251.32 379.884 C 250.906 379.504 250.938 378.841 251.388 378.503 L 261.818 370.681 C 262.182 370.407 262.694 370.449 263.008 370.778 L 282.181 390.857 C 282.648 391.345 282.431 392.155 281.782 392.342 L 269.435 395.939 C 269.356 395.962 269.274 395.974 269.191 395.975 Z M 253.334 379.291 L 269.424 394.069 L 279.855 391.026 L 262.257 372.594 L 253.334 379.291 Z" style="fill: rgb(38, 36, 36);"/>
    <path class="cls-4" d="M 304.955 415.619 C 303.588 414.374 300.319 412.156 299.085 410.807 C 289.533 400.377 281.771 388.429 279.085 384.132 L 260.056 388.037 C 259.412 401.79 259.696 414.695 259.958 422.165 C 260.109 426.325 260.268 428.8 260.268 428.8 L 309.072 428.8 L 309.072 424.06 C 309.072 420.978 307.58 418.015 304.955 415.619 Z" style="fill: rgb(64, 75, 126);"/>
    <ellipse class="cls-1" cx="265.824" cy="407.095" rx="3.204" ry="5.79" style="fill: rgb(255, 255, 255);"/>
    <path class="cls-1" d="M 309.072 424.06 L 309.072 428.8 L 260.268 428.8 C 260.268 428.8 260.268 428.646 260.243 428.347 C 260.218 427.987 260.185 427.383 260.149 426.592 C 260.149 426.434 260.149 426.268 260.124 426.092 C 260.098 425.916 260.124 425.732 260.098 425.549 C 260.056 424.603 260.005 423.467 259.958 422.165 L 301.819 422.165 C 301.819 422.165 302.038 416.798 300.739 412.27 C 300.804 412.324 300.869 412.379 300.937 412.429 L 301.016 412.49 C 301.602 412.961 302.235 413.443 302.84 413.903 L 303.052 414.065 L 303.455 414.378 C 304.052 414.842 304.587 415.27 304.972 415.619 C 305.454 416.057 305.907 416.525 306.328 417.021 C 307.451 418.32 308.276 419.848 308.745 421.499 C 308.77 421.593 308.795 421.683 308.817 421.78 C 308.861 421.967 308.9 422.154 308.936 422.34 C 309.033 422.908 309.079 423.484 309.072 424.06 Z" style="fill: rgb(255, 255, 255);"/>
    <path class="cls-2" d="M 309.072 429.699 L 260.268 429.699 C 259.797 429.698 259.406 429.334 259.373 428.865 C 259.373 428.865 259.373 428.703 259.347 428.39 C 259.322 428.077 259.29 427.433 259.253 426.631 L 259.253 426.552 C 259.253 426.423 259.253 426.286 259.232 426.146 L 259.232 426.034 C 259.232 425.894 259.232 425.747 259.211 425.6 C 259.167 424.639 259.117 423.499 259.07 422.193 C 259.052 421.684 259.46 421.261 259.969 421.262 L 300.93 421.262 C 300.93 419.593 300.812 415.799 299.851 412.519 C 299.657 411.854 300.256 411.229 300.928 411.394 C 301.061 411.427 301.185 411.489 301.289 411.576 L 301.448 411.702 C 301.476 411.724 301.53 411.764 301.577 411.803 C 302.128 412.245 302.746 412.716 303.347 413.173 L 303.566 413.339 L 303.972 413.655 C 304.731 414.245 305.202 414.63 305.551 414.946 C 306.062 415.412 306.543 415.909 306.99 416.435 C 308.198 417.833 309.084 419.48 309.586 421.258 L 309.586 421.302 C 309.612 421.395 309.637 421.485 309.658 421.582 C 309.702 421.773 309.745 421.97 309.781 422.168 C 309.894 422.791 309.951 423.423 309.95 424.056 L 309.95 428.797 C 309.952 429.286 309.562 429.688 309.072 429.699 Z M 261.116 427.901 L 308.173 427.901 L 308.173 424.06 C 308.173 423.537 308.127 423.017 308.033 422.502 C 308.001 422.333 307.965 422.143 307.922 421.981 C 307.922 421.906 307.885 421.841 307.871 421.776 L 307.871 421.733 C 307.432 420.212 306.664 418.807 305.623 417.615 C 305.228 417.148 304.803 416.707 304.35 416.295 C 303.954 415.935 303.361 415.468 302.886 415.101 L 302.48 414.785 L 302.268 414.623 L 302.17 414.547 C 302.605 417.079 302.789 419.647 302.721 422.215 C 302.702 422.698 302.304 423.079 301.822 423.078 L 260.893 423.078 C 260.93 423.991 260.965 424.812 260.998 425.524 C 260.998 425.671 260.998 425.83 261.02 425.977 L 261.02 426.067 C 261.02 426.204 261.02 426.347 261.041 426.484 L 261.041 426.563 C 261.074 427.099 261.095 427.552 261.116 427.901 Z" style="fill: rgb(38, 36, 36);"/>
    <path class="cls-4" d="M 265.235 370.141 L 249.169 384.286 C 249.169 384.286 203.134 357.672 196.901 352.878 C 190.668 348.084 178.919 332.259 178.919 332.259 C 178.919 332.259 112.743 286.943 101.475 275.193 C 95.199 268.651 93.534 255.815 93.29 245.723 C 92.861 228.072 106.92 213.355 124.579 213.1 L 125.453 213.1 C 153.747 213.1 155.663 250.985 155.663 250.985 L 202.598 302.027 L 222.17 323.311 L 265.235 370.141 Z" style="fill: rgb(64, 75, 126);"/>
    <path class="cls-2" d="M 126.467 296.053 C 126.275 296.053 126.089 295.991 125.935 295.877 C 112.628 286.065 104.176 279.333 100.827 275.826 C 94.426 269.155 92.721 256.24 92.415 246.579 C 92.393 245.888 93.129 245.431 93.739 245.757 C 94.023 245.909 94.203 246.201 94.214 246.522 C 94.508 255.873 96.12 268.32 102.126 274.575 C 105.406 277.995 113.775 284.674 127.003 294.42 C 127.568 294.82 127.488 295.682 126.859 295.971 C 126.736 296.028 126.602 296.056 126.467 296.053 Z" style="fill: rgb(154, 179, 218);"/>
    <path class="cls-1" d="M 222.166 323.304 C 222.077 323.401 221.983 323.495 221.89 323.588 C 217.761 327.605 209.885 326.214 204.295 320.473 C 198.707 314.734 197.52 306.825 201.645 302.804 C 201.939 302.517 202.257 302.255 202.594 302.02 L 222.166 323.304 Z" style="fill: rgb(255, 255, 255);"/>
    <path class="cls-2" d="M 249.769 372.299 C 249.58 372.299 249.395 372.239 249.241 372.127 L 219.958 350.795 C 211.643 344.743 204.414 337.325 198.577 328.857 L 196.692 326.127 L 136.332 267.446 C 136.158 267.278 136.06 267.045 136.059 266.803 L 136.059 252.176 C 136.059 251.484 136.808 251.051 137.408 251.397 C 137.686 251.558 137.857 251.854 137.857 252.176 L 137.857 266.422 L 198.005 324.901 C 198.046 324.942 198.084 324.986 198.117 325.034 L 200.051 327.835 C 205.769 336.136 212.851 343.408 220.997 349.343 L 250.28 370.673 C 250.84 371.081 250.748 371.941 250.116 372.222 C 250.007 372.271 249.889 372.296 249.769 372.299 Z" style="fill: rgb(154, 179, 218);"/>
    <path class="cls-2" d="M 246.713 380.121 C 246.021 380.124 245.585 379.377 245.929 378.776 C 245.977 378.693 246.037 378.618 246.108 378.553 L 259.056 366.865 C 259.558 366.389 260.388 366.636 260.549 367.309 C 260.626 367.636 260.515 367.98 260.26 368.199 L 247.313 379.887 C 247.149 380.038 246.935 380.121 246.713 380.121 Z" style="fill: rgb(154, 179, 218);"/>
    <path class="cls-1" d="M 127.848 249.388 L 127.848 263.685 C 127.848 265.248 127.018 266.693 125.669 267.483 L 117.238 272.406 L 108.808 267.475 C 107.46 266.688 106.631 265.246 106.629 263.685 L 106.629 249.388 L 127.848 249.388 Z" style="fill: rgb(255, 255, 255);"/>
    <polygon class="cls-1" points="10.782 205.511 1.701 224.842 23.1 231.406 23.819 208.748 10.782 205.511" style="fill: rgb(216, 154, 116);"/>
    <path class="cls-2" d="M 23.1 232.305 C 23.011 232.305 22.922 232.292 22.837 232.265 L 1.439 225.702 C 0.917 225.54 0.66 224.955 0.892 224.461 L 9.973 205.13 C 10.155 204.741 10.588 204.536 11.005 204.641 L 24.042 207.877 C 24.455 207.98 24.74 208.356 24.726 208.781 L 24.006 231.438 C 23.989 231.925 23.587 232.31 23.1 232.305 Z M 2.959 224.288 L 22.244 230.205 L 22.902 209.449 L 11.286 206.572 L 2.959 224.288 Z" style="fill: rgb(38, 36, 36);"/>
    <path class="cls-1" d="M 17.076 217.581 L 10.052 215.423 C 8.025 214.796 5.839 215.703 4.851 217.581 L 1.413 224.102 C 0.828 225.213 0.746 226.522 1.187 227.698 C 1.655 228.942 2.659 229.908 3.92 230.327 L 12.76 233.258 C 14.463 233.825 16.34 233.301 17.504 231.935 L 18.543 230.715 C 19.13 230.026 19.491 229.172 19.576 228.27 L 20.143 222.202 C 20.341 220.131 19.062 218.203 17.076 217.581 Z" style="fill: rgb(216, 154, 116);"/>
    <path class="cls-2" d="M 14.174 234.384 C 13.601 234.383 13.033 234.291 12.49 234.111 L 3.636 231.168 C 0.525 230.136 -0.914 226.558 0.614 223.659 L 4.053 217.139 C 5.245 214.881 7.875 213.792 10.314 214.546 L 17.338 216.703 C 19.73 217.455 21.275 219.77 21.05 222.267 L 20.482 228.335 C 20.38 229.42 19.946 230.448 19.237 231.276 L 18.198 232.496 C 17.2 233.686 15.728 234.377 14.174 234.384 Z M 8.75 216.106 C 7.449 216.106 6.254 216.826 5.646 217.976 L 2.208 224.483 C 1.198 226.399 2.149 228.763 4.204 229.446 L 13.059 232.395 C 14.415 232.85 15.911 232.433 16.835 231.341 L 17.874 230.122 C 18.342 229.573 18.628 228.894 18.694 228.177 L 19.263 222.109 C 19.413 220.458 18.391 218.926 16.81 218.429 L 9.786 216.272 C 9.45 216.165 9.102 216.109 8.75 216.106 Z" style="fill: rgb(38, 36, 36);"/>
    <path class="cls-1" d="M 22.273 219.559 C 23.616 219.866 24.594 221.025 24.671 222.401 L 24.988 228.273 C 25.098 230.089 24.401 231.861 23.082 233.114 L 21.722 234.398 C 20.884 235.189 19.676 235.449 18.586 235.071 L 18.227 234.945 C 17.433 234.673 16.784 234.09 16.429 233.33 L 16.026 232.471 C 15.267 230.83 15.267 228.939 16.026 227.299 L 18.781 221.297 C 19.387 219.963 20.845 219.239 22.273 219.559 Z" style="fill: rgb(216, 154, 116);"/>
    <path class="cls-2" d="M 19.593 236.135 C 19.146 236.135 18.702 236.06 18.28 235.913 L 17.921 235.786 C 16.901 235.431 16.067 234.679 15.608 233.701 L 15.206 232.841 C 14.329 230.964 14.322 228.796 15.188 226.914 L 17.943 220.912 C 18.735 219.191 20.624 218.261 22.471 218.681 C 24.2 219.084 25.459 220.575 25.567 222.346 L 25.902 228.219 C 26.023 230.299 25.216 232.326 23.701 233.754 L 22.341 235.039 C 21.6 235.744 20.616 236.137 19.593 236.135 Z M 21.575 220.382 C 20.716 220.383 19.936 220.883 19.576 221.663 L 16.821 227.665 C 16.172 229.066 16.172 230.681 16.821 232.082 L 17.224 232.946 C 17.475 233.482 17.932 233.896 18.493 234.093 L 18.853 234.218 C 19.626 234.489 20.485 234.304 21.078 233.74 L 22.438 232.456 C 23.568 231.392 24.169 229.881 24.078 228.331 L 23.743 222.458 C 23.685 221.484 22.993 220.665 22.043 220.444 C 21.893 220.406 21.74 220.384 21.586 220.379 L 21.575 220.382 Z" style="fill: rgb(38, 36, 36);"/>
    <path class="cls-1" d="M 23.819 208.748 L 26.83 222.414 C 27.109 223.688 26.684 225.014 25.714 225.885 C 24.735 226.759 23.358 227.035 22.118 226.605 L 13.418 223.634 C 12.182 223.212 11.481 221.909 11.811 220.645 C 12.101 219.533 13.114 218.763 14.264 218.782 L 18.015 218.84 L 15.497 214.326 C 15.043 213.509 15.085 212.506 15.605 211.729 L 18.579 207.284 L 23.819 208.748 Z" style="fill: rgb(216, 154, 116);"/>
    <path class="cls-2" d="M 23.29 227.72 C 22.794 227.72 22.301 227.639 21.831 227.479 L 13.119 224.508 C 11.454 223.917 10.517 222.15 10.962 220.441 C 11.348 218.921 12.732 217.869 14.299 217.905 L 16.497 217.941 L 14.735 214.772 C 14.116 213.661 14.172 212.296 14.882 211.24 L 17.857 206.795 C 18.073 206.476 18.47 206.331 18.842 206.436 L 24.056 207.874 C 24.378 207.962 24.625 208.221 24.697 208.547 L 27.707 222.213 C 28.341 225.041 26.188 227.725 23.29 227.72 Z M 14.227 219.703 C 13.001 219.697 12.228 221.021 12.836 222.086 C 13.03 222.426 13.342 222.682 13.713 222.806 L 22.413 225.777 C 24.396 226.455 26.37 224.732 25.964 222.675 C 25.961 222.655 25.956 222.636 25.952 222.616 L 23.075 209.471 L 19.007 208.349 L 16.378 212.254 C 16.046 212.75 16.02 213.391 16.309 213.912 L 18.827 218.426 C 19.162 219.031 18.717 219.772 18.025 219.76 L 14.274 219.703 L 14.249 219.703 L 14.227 219.703 Z" style="fill: rgb(38, 36, 36);"/>
    <path class="cls-3" d="M 104.111 147.636 C 103.633 168.737 49.685 179.768 49.685 179.768 C 49.685 179.768 33.861 198.228 24.51 210.215 L 8.923 206.86 C 8.923 206.86 14.494 186.594 20.791 167.931 C 22.334 163.36 23.916 158.886 25.466 154.829 C 25.466 154.829 30.052 151.83 37.378 147.877 C 49.585 141.288 69.387 132.052 88.287 129.654 C 88.287 129.654 104.589 126.539 104.111 147.636 Z" style="fill: rgb(246, 141, 136);"/>
    <circle class="cls-1" cx="13.774" cy="203.504" r="1.68" style="fill: rgb(255, 255, 255);"/>
    <path class="cls-1" d="M 33.706 163.295 C 29.836 167.165 24.801 168.816 20.784 167.931 C 22.326 163.36 23.909 158.886 25.459 154.829 C 25.459 154.829 30.045 151.83 37.371 147.877 C 39.852 152.1 38.435 158.566 33.706 163.295 Z" style="fill: rgb(255, 255, 255);"/>
    <path class="cls-2" d="M 48.096 179.617 C 47.879 179.616 47.669 179.537 47.505 179.394 L 33.929 167.525 C 33.426 167.049 33.628 166.208 34.291 166.01 C 34.574 165.926 34.882 165.987 35.112 166.173 L 48.689 178.041 C 49.21 178.497 49.041 179.346 48.386 179.569 C 48.293 179.6 48.194 179.617 48.096 179.617 Z" style="fill: rgb(236, 189, 187);"/>
    <path class="cls-2" d="M 26.909 203.202 C 26.836 203.203 26.763 203.194 26.693 203.177 L 12.548 199.699 C 11.875 199.535 11.633 198.703 12.112 198.203 C 12.335 197.971 12.664 197.875 12.976 197.951 L 27.121 201.429 C 27.793 201.592 28.038 202.422 27.561 202.923 C 27.391 203.101 27.155 203.202 26.909 203.202 Z" style="fill: rgb(236, 189, 187);"/>
    <path class="cls-1" d="M 122.454 111.973 C 122.454 111.973 127.247 118.868 134.322 118.868 C 141.396 118.868 146.669 89.797 134.081 87.337 C 121.493 84.877 113.462 99.205 122.454 111.973 Z" style="fill: rgb(216, 154, 116);"/>
    <path class="cls-2" d="M 134.322 119.763 C 126.873 119.763 121.935 112.8 121.734 112.484 C 117.005 105.769 116.4 97.998 120.159 92.2 C 123.223 87.474 128.499 85.323 134.275 86.445 C 141.468 87.848 143.205 96.731 142.446 104.575 C 141.716 111.941 138.638 119.763 134.322 119.763 Z M 123.173 111.459 C 123.219 111.524 127.798 117.968 134.304 117.968 C 136.969 117.968 139.921 111.635 140.619 104.414 C 141.303 97.354 139.9 89.395 133.89 88.23 C 128.855 87.247 124.28 89.103 121.629 93.192 C 118.979 97.282 118.033 104.169 123.169 111.466 L 123.173 111.459 Z" style="fill: rgb(38, 36, 36);"/>
    <polygon class="cls-1" points="115.53 127.917 117.778 113.531 127.409 116.156 127.129 127.917 115.53 127.917" style="fill: rgb(216, 154, 116);"/>
    <path class="cls-2" d="M 127.129 128.816 L 115.53 128.816 C 114.977 128.816 114.556 128.322 114.642 127.776 L 116.89 113.39 C 116.977 112.864 117.501 112.529 118.016 112.671 L 127.646 115.296 C 128.045 115.406 128.318 115.772 128.309 116.185 L 128.028 127.946 C 128.012 128.431 127.615 128.816 127.129 128.816 Z M 116.58 127.018 L 126.251 127.018 L 126.496 116.84 L 118.497 114.664 L 116.58 127.018 Z" style="fill: rgb(38, 36, 36);"/>
    <path class="cls-2" d="M 137.44 104.18 C 137.44 104.18 136.12 98.364 132.045 99.803 C 127.97 101.241 128.208 107.777 131.146 109.632 L 127.409 116.156 L 117.368 116.156 C 117.368 116.156 109.265 105.316 108.309 98.483 C 107.352 91.65 113.944 91.11 113.944 91.11 C 113.944 91.11 115.141 85.237 119.936 84.219 C 124.73 83.201 137.918 85.956 137.918 85.956 C 137.918 85.956 140.482 81.881 142.641 81.924 C 144.798 81.968 144.752 86.467 144.752 86.467 C 144.752 86.467 147.585 82.78 149.337 83.906 C 151.089 85.032 148.125 100.181 139.267 97.393 C 139.267 97.393 140.464 103.597 137.44 104.18 Z" style="fill: rgb(38, 36, 36);"/>
    <path class="cls-1" d="M 106.899 128.546 C 106.899 128.546 109.686 121.353 120.475 121.353 C 131.265 121.353 135.041 130.434 135.041 130.434 L 106.899 130.434 L 106.899 128.546 Z" style="fill: rgb(255, 255, 255);"/>
    <path class="cls-2" d="M 135.041 131.333 L 106.899 131.333 C 106.402 131.333 105.999 130.93 105.999 130.434 L 105.999 128.546 C 105.999 128.435 106.02 128.325 106.06 128.222 C 106.183 127.906 109.2 120.454 120.475 120.454 C 131.75 120.454 135.833 129.992 135.872 130.089 C 136.118 130.681 135.683 131.333 135.041 131.333 Z M 107.797 129.535 L 133.56 129.535 C 132.121 127.162 128.251 122.252 120.475 122.252 C 111.186 122.252 108.247 127.74 107.797 128.726 L 107.797 129.535 Z" style="fill: rgb(38, 36, 36);"/>
    <path class="cls-3" d="M 161.177 251.216 C 156.674 252.775 152.066 254.011 147.388 254.917 L 140.839 256.003 C 99.184 261.718 56.522 245.462 56.522 245.462 C 66.952 171.136 88.287 129.654 88.287 129.654 C 108.535 124.881 162.615 129.654 162.615 129.654 C 163.572 177.369 161.177 251.216 161.177 251.216 Z" style="fill: rgb(246, 141, 136);"/>
    <path class="cls-2" d="M 73.369 169.69 C 72.762 169.691 72.33 169.103 72.509 168.525 C 78.335 149.758 83.604 137.491 86.229 131.841 C 86.542 131.223 87.406 131.175 87.785 131.755 C 87.948 132.007 87.976 132.323 87.858 132.599 C 85.762 137.109 80.234 149.69 74.225 169.05 C 74.111 169.428 73.764 169.687 73.369 169.69 Z" style="fill: rgb(236, 189, 187);"/>
    <path class="cls-2" d="M 95.721 242.764 L 95.688 242.764 C 95.193 242.746 94.805 242.331 94.821 241.836 C 96.962 180.53 114.516 135.293 114.696 134.84 C 114.971 134.205 115.83 134.106 116.243 134.661 C 116.421 134.902 116.468 135.216 116.368 135.498 C 116.192 135.944 98.745 180.918 96.619 241.897 C 96.602 242.381 96.205 242.764 95.721 242.764 Z" style="fill: rgb(236, 189, 187);"/>
    <path class="cls-2" d="M 120.968 250.823 C 104.468 250.661 91.239 248.712 82.241 246.641 C 69.25 243.652 62.201 240.2 61.906 240.056 C 61.288 239.744 61.239 238.881 61.818 238.501 C 62.083 238.327 62.42 238.306 62.705 238.444 C 62.985 238.585 104.121 254.821 157.006 245.65 C 157.689 245.531 158.44 246.116 158.429 246.742 C 158.419 247.299 157.425 247.838 157.123 247.95 C 149.107 250.935 126.347 250.876 120.968 250.823 Z" style="fill: rgb(236, 189, 187);"/>
    <g transform="matrix(1, 0, 0, 1, -73.222359, -29.922997)">
      <title>plug</title>
      <path class="cls-1" d="M 471.314 146.978 L 475.99 146.978 C 477.396 146.978 478.536 148.118 478.536 149.525 L 478.536 151.984 C 478.536 153.39 477.396 154.531 475.99 154.531 L 471.314 154.531 C 471.314 154.531 471.314 154.531 471.314 154.531 L 471.314 146.978 C 471.314 146.978 471.314 146.978 471.314 146.978 Z" style="fill: rgb(255, 255, 255);"/>
      <path class="cls-2" d="M 475.99 155.43 L 471.314 155.43 C 470.817 155.43 470.415 155.027 470.415 154.531 L 470.415 146.978 C 470.415 146.482 470.817 146.079 471.314 146.079 L 475.99 146.079 C 477.892 146.081 479.433 147.622 479.435 149.525 L 479.435 151.984 C 479.433 153.886 477.892 155.428 475.99 155.43 Z M 472.213 153.631 L 475.99 153.631 C 476.899 153.631 477.637 152.894 477.637 151.984 L 477.637 149.525 C 477.637 148.614 476.899 147.877 475.99 147.877 L 472.213 147.877 L 472.213 153.631 Z" style="fill: rgb(38, 36, 36);"/>
    </g>
    <path style="fill: none; stroke-width: 1.81843px; stroke: rgb(51, 51, 51);" d="M 254.946 70.09 C 254.946 70.09 249.119 2.382 313.602 5.083 C 378.085 7.784 369.498 68.107 352.802 114.922 C 336.106 161.737 296.543 242.764 361.511 242.764 C 419.006 242.764 413.909 166.099 415.281 143.741 C 416.653 121.383 406.213 120.722 406.213 121.353">
      <title>mouse wire</title>
    </path>
    <path class="cls-1" d="M 256.901 69.024 L 252.348 69.024 L 252.348 69.765 C 246.466 71.724 242.501 77.231 242.508 83.431 L 242.508 106.974 C 242.501 113.174 246.466 118.682 252.348 120.641 L 252.348 121.382 L 256.901 121.382 C 264.846 121.382 271.287 114.941 271.287 106.996 L 271.287 83.417 C 271.291 75.469 264.85 69.024 256.901 69.024 Z" style="fill: rgb(255, 255, 255);"/>
    <path class="cls-2" d="M 256.901 122.252 L 252.348 122.252 C 251.852 122.252 251.449 121.85 251.449 121.353 L 251.449 121.263 C 245.52 119.006 241.603 113.319 241.609 106.974 L 241.609 83.417 C 241.596 77.067 245.514 71.372 251.449 69.114 L 251.449 69.006 C 251.449 68.509 251.852 68.107 252.348 68.107 L 256.901 68.107 C 265.343 68.116 272.184 74.958 272.194 83.399 L 272.194 106.941 C 272.194 115.39 265.35 122.242 256.901 122.252 Z M 253.233 120.454 L 256.901 120.454 C 264.351 120.446 270.388 114.409 270.396 106.96 L 270.396 83.417 C 270.388 75.968 264.351 69.931 256.901 69.923 L 253.233 69.923 C 253.175 70.247 252.945 70.513 252.633 70.617 C 247.12 72.45 243.402 77.608 243.408 83.417 L 243.408 106.96 C 243.405 112.772 247.129 117.932 252.647 119.759 C 252.953 119.868 253.177 120.134 253.233 120.454 Z" style="fill: rgb(38, 36, 36);"/>
    <rect class="cls-3" x="237.459" y="68.125" width="29.775" height="54.128" rx="14.393" ry="14.393" style="fill: rgb(64, 75, 126);"/>
    <path class="cls-1" d="M 241.947 118.925 L 238.351 109.369 C 237.196 106.657 236.771 103.69 237.117 100.763 L 237.836 94.53 C 237.939 93.644 238.785 93.04 239.656 93.232 C 240.221 93.355 240.665 93.789 240.8 94.35 L 242.598 101.878 L 244.63 93.246 L 248.205 83.428 C 248.555 82.473 249.587 81.956 250.561 82.248 C 251.488 82.526 252.063 83.451 251.902 84.406 L 250.194 94.951 C 250.11 95.471 250.414 95.976 250.914 96.145 C 251.458 96.313 252.039 96.028 252.241 95.494 L 255.394 86.902 C 255.917 85.479 257.734 85.07 258.815 86.132 L 263.886 91.114 C 264.98 92.189 265.442 93.752 265.108 95.25 L 262.796 105.183 C 262.397 106.894 261.726 108.53 260.807 110.028 L 251.097 126.046 L 241.947 118.925 Z" style="fill: rgb(216, 154, 116);"/>
    <path class="cls-2" d="M 251.122 126.942 C 250.923 126.942 250.729 126.877 250.571 126.755 L 241.397 119.638 C 241.265 119.535 241.164 119.398 241.105 119.242 L 237.542 109.704 C 236.33 106.858 235.88 103.746 236.236 100.673 L 236.955 94.44 C 237.169 92.6 239.295 91.682 240.781 92.788 C 241.233 93.124 241.553 93.608 241.685 94.156 L 242.613 98.008 L 243.778 93.056 C 243.786 93.022 243.795 92.988 243.807 92.955 L 247.382 83.137 C 248.133 81.1 250.808 80.641 252.195 82.311 C 252.713 82.934 252.938 83.749 252.812 84.55 L 251.104 95.095 C 251.089 95.227 251.222 95.326 251.344 95.274 C 251.385 95.256 251.417 95.223 251.435 95.181 L 254.589 86.589 C 255.337 84.556 257.933 83.972 259.48 85.489 L 264.551 90.47 C 265.871 91.759 266.428 93.64 266.022 95.44 L 263.706 105.381 C 263.286 107.186 262.578 108.911 261.609 110.492 L 251.899 126.507 C 251.735 126.779 251.44 126.944 251.122 126.942 Z M 242.699 118.386 L 250.877 124.73 L 260.067 109.575 C 260.936 108.158 261.57 106.611 261.948 104.992 L 264.26 95.059 C 264.527 93.866 264.157 92.621 263.282 91.768 L 258.21 86.787 C 257.595 86.183 256.561 86.416 256.265 87.226 L 253.115 95.8 C 252.585 97.222 250.715 97.538 249.749 96.369 C 249.388 95.934 249.233 95.365 249.32 94.807 L 251.028 84.262 C 251.225 83.501 250.524 82.812 249.766 83.023 C 249.415 83.12 249.141 83.398 249.051 83.752 L 245.493 93.523 L 243.476 102.101 C 243.381 102.507 243.019 102.794 242.602 102.795 C 242.186 102.794 241.824 102.509 241.728 102.104 L 239.929 94.577 C 239.833 94.157 239.34 93.968 238.987 94.217 C 238.846 94.316 238.755 94.47 238.736 94.642 L 238.017 100.875 C 237.695 103.643 238.102 106.446 239.196 109.01 L 239.196 109.045 L 242.699 118.386 Z" style="fill: rgb(38, 36, 36);"/>
    <path class="cls-3" d="M 146.939 144.543 C 149.046 138.163 154.336 130.937 162.684 129.658 C 175.632 131.434 206.921 136.689 206.921 136.689 C 206.921 136.689 227.45 123.655 239.894 114.922 L 253.82 124.248 C 253.82 124.248 242.569 140.432 231.104 156.448 C 228.291 160.368 225.471 164.184 222.796 167.597 C 222.796 167.597 217.534 169.125 209.374 170.765 C 195.775 173.499 174.128 176.541 155.361 173.319 C 155.358 173.34 140.317 164.579 146.939 144.543 Z" style="fill: rgb(246, 141, 136);"/>
    <path class="cls-2" d="M 155.358 174.24 C 155.198 174.24 155.042 174.198 154.905 174.117 C 152.062 172.273 149.669 169.815 147.902 166.924 C 145.126 162.479 142.555 154.937 146.086 144.266 C 148.266 137.666 152.833 132.33 158.314 129.988 C 158.951 129.711 159.649 130.228 159.57 130.917 C 159.534 131.238 159.329 131.514 159.033 131.642 C 154.031 133.801 149.841 138.713 147.819 144.831 C 141.5 163.953 155.693 172.484 155.836 172.567 C 156.432 172.92 156.422 173.786 155.818 174.124 C 155.678 174.203 155.519 174.243 155.358 174.24 Z" style="fill: rgb(236, 189, 187);"/>
    <circle class="cls-1" cx="248.206" cy="126.055" r="1.68" style="fill: rgb(255, 255, 255);"/>
    <path class="cls-1" d="M 217.401 157.113 C 222.232 154.541 227.529 154.434 231.115 156.455 C 228.302 160.375 225.482 164.191 222.806 167.604 C 222.806 167.604 217.545 169.133 209.385 170.773 C 208.238 166.022 211.481 160.253 217.401 157.113 Z" style="fill: rgb(255, 255, 255);"/>
    <path class="cls-2" d="M 217.649 154.376 C 217.338 154.377 217.048 154.216 216.883 153.952 L 207.367 138.634 C 207.001 138.046 207.41 137.282 208.102 137.26 C 208.423 137.25 208.726 137.412 208.895 137.685 L 218.412 153.002 C 218.777 153.59 218.369 154.353 217.677 154.376 C 217.668 154.376 217.659 154.376 217.649 154.376 Z" style="fill: rgb(236, 189, 187);"/>
    <path class="cls-2" d="M 247.799 131.711 C 247.61 131.711 247.427 131.652 247.273 131.542 L 234.761 122.522 C 234.2 122.118 234.286 121.257 234.917 120.972 C 235.21 120.84 235.551 120.874 235.812 121.062 L 248.331 130.085 C 248.89 130.493 248.798 131.353 248.166 131.634 C 248.05 131.685 247.925 131.711 247.799 131.711 Z" style="fill: rgb(236, 189, 187);"/>
  </g>
</svg>