<?xml version="1.0" encoding="utf-8"?>
<svg viewBox="-100.503 -61.031 440.701 441.197" xmlns="http://www.w3.org/2000/svg">
  <g transform="matrix(0.992294, 0, 0, 0.992294, -99.502998, -89.948349)" style="">
    <title>particles</title>
    <circle class="st17" cx="205.11" cy="421.458" r="9.267" style="fill: rgb(233, 243, 255);"/>
    <circle class="st17" cx="173.558" cy="382.273" r="2.648" style="fill: rgb(233, 243, 255);"/>
    <circle class="st17" cx="308.639" cy="394.742" r="3.916" style="fill: rgb(233, 243, 255);"/>
    <circle class="st17" cx="303.291" cy="65.275" r="6.472" style="fill: rgb(233, 243, 255);"/>
    <circle class="st17" cx="260.976" cy="153.368" r="2.176" style="fill: rgb(233, 243, 255);"/>
    <circle class="st17" cx="276.892" cy="68.92" r="1.829" style="fill: rgb(233, 243, 255);"/>
    <circle class="st17" cx="148.418" cy="98.497" r="5.148" style="fill: rgb(233, 243, 255);"/>
    <circle class="st17" cx="99.398" cy="95.592" r="2.243" style="fill: rgb(233, 243, 255);"/>
    <path class="st0" d="M 161.493 249.873 C 160.014 247.685 159.197 245.689 159.04 243.885 C 158.886 242.081 159.035 240.085 159.487 237.895 C 159.942 235.993 160.186 234.478 160.217 233.345 C 160.25 232.212 159.874 231.065 159.088 229.903 C 158.417 228.909 157.505 228.328 156.357 228.164 C 155.204 227.998 154.215 228.198 153.387 228.757 C 152.094 229.631 151.346 230.741 151.142 232.084 C 150.939 233.43 151.025 234.988 151.404 236.763 L 143.867 237.939 C 143.458 236.623 143.259 235.041 143.271 233.2 C 143.282 231.356 143.77 229.395 144.736 227.319 C 145.699 225.244 147.342 223.421 149.664 221.852 C 152.682 219.813 155.643 218.924 158.548 219.182 C 161.454 219.443 163.96 221.131 166.066 224.249 C 167.523 226.405 168.326 228.328 168.474 230.014 C 168.623 231.7 168.564 233.202 168.292 234.519 C 168.024 235.838 167.852 236.691 167.775 237.079 C 167.432 238.859 167.348 240.484 167.521 241.959 C 167.696 243.436 168.368 245.037 169.532 246.76 L 170.239 247.806 L 163.275 252.511 L 161.493 249.873 Z M 170.257 261.669 C 169.056 261.537 168.1 260.942 167.382 259.879 C 166.689 258.852 166.493 257.725 166.802 256.502 C 167.111 255.279 167.846 254.276 169.008 253.491 C 170.168 252.707 171.359 252.41 172.574 252.603 C 173.792 252.795 174.748 253.408 175.442 254.434 C 176.16 255.497 176.371 256.596 176.08 257.736 C 175.785 258.875 175.042 259.849 173.848 260.656 C 172.654 261.463 171.457 261.799 170.257 261.669 Z" style="fill: rgb(154, 179, 218);">
      <title>?</title>
    </path>
    <path class="st4" d="M 150.269 145.63 C 151.433 143.259 152.757 141.558 154.244 140.524 C 155.733 139.493 157.539 138.63 159.663 137.933 C 161.539 137.381 162.975 136.839 163.973 136.303 C 164.974 135.768 165.781 134.871 166.399 133.612 C 166.927 132.535 166.978 131.455 166.549 130.377 C 166.119 129.295 165.455 128.536 164.558 128.096 C 163.156 127.409 161.821 127.311 160.554 127.803 C 159.286 128.296 157.977 129.145 156.626 130.357 L 151.856 124.403 C 152.795 123.394 154.068 122.435 155.672 121.529 C 157.277 120.621 159.221 120.07 161.502 119.875 C 163.781 119.679 166.18 120.197 168.696 121.432 C 171.966 123.036 174.21 125.163 175.431 127.811 C 176.65 130.462 176.431 133.476 174.774 136.854 C 173.628 139.19 172.36 140.842 170.97 141.81 C 169.581 142.778 168.249 143.474 166.972 143.892 C 165.694 144.316 164.868 144.591 164.493 144.717 C 162.779 145.305 161.327 146.04 160.134 146.924 C 158.94 147.81 157.885 149.19 156.969 151.056 L 156.412 152.19 L 148.867 148.488 L 150.269 145.63 Z M 144.395 159.1 C 143.912 157.993 143.953 156.867 144.518 155.716 C 145.064 154.604 145.944 153.874 147.159 153.533 C 148.374 153.193 149.609 153.332 150.868 153.949 C 152.125 154.566 152.975 155.451 153.412 156.602 C 153.851 157.753 153.795 158.888 153.25 160 C 152.685 161.151 151.837 161.881 150.703 162.196 C 149.568 162.507 148.354 162.347 147.06 161.712 C 145.766 161.077 144.878 160.206 144.395 159.1 Z" style="fill: rgb(244, 140, 135);">
      <title>?</title>
    </path>
    <circle class="st17" cx="215.485" cy="203.205" r="6.472" style="fill: rgb(233, 243, 255);"/>
    <circle class="st17" cx="245.85" cy="263.525" r="1.829" style="fill: rgb(233, 243, 255);"/>
    <path class="st0" d="M 247.836 378.231 C 249.923 375.651 252.023 373.937 254.134 373.085 C 256.245 372.239 258.699 371.685 261.498 371.425 C 263.951 371.273 265.863 371.011 267.236 370.633 C 268.61 370.256 269.85 369.384 270.959 368.012 C 271.907 366.84 272.27 365.531 272.047 364.09 C 271.823 362.644 271.22 361.528 270.243 360.738 C 268.719 359.504 267.111 359.013 265.421 359.261 C 263.728 359.511 261.887 360.186 259.892 361.292 L 255.712 352.664 C 257.144 351.69 258.973 350.87 261.19 350.209 C 263.412 349.545 265.946 349.412 268.797 349.811 C 271.644 350.208 274.44 351.514 277.178 353.729 C 280.736 356.608 282.892 359.842 283.647 363.428 C 284.4 367.017 283.291 370.649 280.316 374.324 C 278.259 376.868 276.242 378.539 274.269 379.335 C 272.298 380.133 270.471 380.613 268.788 380.77 C 267.104 380.932 266.015 381.038 265.521 381.088 C 263.256 381.329 261.271 381.824 259.562 382.574 C 257.85 383.326 256.172 384.721 254.528 386.753 L 253.531 387.986 L 245.319 381.342 L 247.836 378.231 Z M 236.873 393.096 C 236.591 391.604 236.955 390.236 237.97 388.983 C 238.949 387.774 240.232 387.124 241.815 387.047 C 243.399 386.969 244.875 387.484 246.244 388.594 C 247.613 389.7 248.407 391.023 248.621 392.554 C 248.837 394.089 248.452 395.463 247.472 396.673 C 246.459 397.927 245.215 398.584 243.738 398.653 C 242.261 398.715 240.816 398.18 239.408 397.042 C 238 395.902 237.157 394.587 236.873 393.096 Z" style="fill: rgb(154, 179, 218);">
      <title>?</title>
    </path>
    <path class="st4" d="M 254.36 221.151 C 254.579 217.165 255.413 214.017 256.87 211.701 C 258.332 209.387 260.333 207.119 262.874 204.895 C 265.158 203.018 266.833 201.415 267.906 200.08 C 268.981 198.743 269.573 197.021 269.689 194.905 C 269.786 193.093 269.219 191.561 267.985 190.316 C 266.749 189.065 265.375 188.402 263.869 188.32 C 261.513 188.195 259.598 188.847 258.127 190.28 C 256.655 191.715 255.336 193.669 254.174 196.153 L 244.021 190.692 C 244.731 188.735 245.934 186.647 247.628 184.44 C 249.325 182.229 251.703 180.313 254.759 178.694 C 257.812 177.075 261.454 176.378 265.685 176.608 C 271.179 176.905 275.557 178.537 278.819 181.499 C 282.083 184.464 283.559 188.785 283.251 194.462 C 283.038 198.388 282.251 201.434 280.891 203.603 C 279.531 205.77 278.091 207.524 276.562 208.861 C 275.034 210.206 274.049 211.076 273.601 211.474 C 271.566 213.305 269.981 215.185 268.843 217.119 C 267.707 219.056 267.056 221.599 266.885 224.736 L 266.781 226.642 L 254.1 225.953 L 254.36 221.151 Z M 254.153 243.356 C 252.826 242.1 252.218 240.51 252.324 238.576 C 252.425 236.706 253.217 235.172 254.707 233.978 C 256.194 232.789 257.995 232.251 260.111 232.366 C 262.223 232.481 263.928 233.209 265.217 234.552 C 266.507 235.893 267.099 237.503 266.998 239.373 C 266.894 241.307 266.146 242.824 264.754 243.931 C 263.36 245.034 261.578 245.53 259.402 245.412 C 257.228 245.293 255.478 244.607 254.153 243.356 Z" style="fill: rgb(244, 140, 135);">
      <title>?</title>
    </path>
    <circle class="st17" cx="290.347" cy="325.268" r="6.472" style="fill: rgb(233, 243, 255);"/>
    <path class="st0" d="M 208.139 317.106 C 207.525 314.538 207.463 312.382 207.951 310.638 C 208.442 308.895 209.284 307.08 210.478 305.189 C 211.574 303.569 212.335 302.237 212.763 301.187 C 213.193 300.139 213.245 298.933 212.918 297.568 C 212.64 296.402 211.991 295.537 210.974 294.979 C 209.954 294.418 208.958 294.257 207.986 294.489 C 206.468 294.851 205.377 295.627 204.713 296.812 C 204.049 298.001 203.581 299.489 203.311 301.284 L 195.843 299.731 C 195.923 298.355 196.294 296.805 196.953 295.086 C 197.613 293.364 198.76 291.7 200.395 290.097 C 202.027 288.494 204.206 287.366 206.932 286.715 C 210.475 285.869 213.559 286.079 216.187 287.344 C 218.815 288.611 220.567 291.073 221.44 294.733 C 222.045 297.264 222.119 299.346 221.664 300.977 C 221.21 302.607 220.626 303.992 219.908 305.129 C 219.193 306.269 218.732 307.007 218.523 307.343 C 217.575 308.888 216.924 310.38 216.567 311.821 C 216.211 313.265 216.276 315 216.759 317.023 L 217.053 318.251 L 208.878 320.203 L 208.139 317.106 Z M 212.189 331.233 C 211.111 330.686 210.426 329.793 210.128 328.545 C 209.841 327.34 210.054 326.216 210.774 325.18 C 211.494 324.144 212.535 323.464 213.899 323.139 C 215.261 322.813 216.48 322.954 217.549 323.563 C 218.622 324.171 219.301 325.082 219.589 326.286 C 219.887 327.534 219.697 328.637 219.024 329.602 C 218.347 330.564 217.308 331.214 215.907 331.549 C 214.505 331.884 213.266 331.777 212.189 331.233 Z" style="fill: rgb(64, 75, 125);">
      <title>?</title>
    </path>
    <path class="st0" d="M 243.005 120.529 C 242.728 117.903 242.945 115.757 243.654 114.091 C 244.366 112.426 245.435 110.735 246.864 109.014 C 248.16 107.549 249.086 106.326 249.646 105.34 C 250.208 104.357 250.415 103.167 250.267 101.772 C 250.142 100.579 249.61 99.638 248.674 98.953 C 247.735 98.265 246.768 97.977 245.774 98.081 C 244.222 98.244 243.04 98.873 242.229 99.962 C 241.417 101.056 240.76 102.471 240.261 104.216 L 233.056 101.711 C 233.313 100.357 233.881 98.868 234.757 97.249 C 235.633 95.626 236.986 94.124 238.814 92.746 C 240.639 91.367 242.946 90.53 245.733 90.236 C 249.356 89.855 252.387 90.462 254.829 92.055 C 257.272 93.651 258.691 96.319 259.084 100.061 C 259.357 102.649 259.162 104.723 258.5 106.281 C 257.839 107.839 257.081 109.137 256.222 110.172 C 255.366 111.21 254.814 111.882 254.563 112.189 C 253.424 113.598 252.585 114.994 252.045 116.376 C 251.506 117.762 251.346 119.491 251.564 121.56 L 251.697 122.815 L 243.338 123.695 L 243.005 120.529 Z M 245.197 135.061 C 244.199 134.379 243.635 133.405 243.5 132.129 C 243.371 130.897 243.728 129.81 244.575 128.875 C 245.423 127.941 246.543 127.401 247.938 127.255 C 249.331 127.108 250.521 127.405 251.503 128.147 C 252.488 128.888 253.044 129.879 253.174 131.111 C 253.308 132.387 252.977 133.456 252.185 134.326 C 251.39 135.192 250.275 135.703 248.843 135.854 C 247.409 136.005 246.195 135.739 245.197 135.061 Z" style="fill: rgb(64, 75, 125);">
      <title>?</title>
    </path>
    <path class="st4" d="M 137.413 356.635 C 137.535 354.409 138.001 352.651 138.814 351.358 C 139.63 350.066 140.748 348.8 142.166 347.558 C 143.442 346.51 144.377 345.615 144.976 344.87 C 145.576 344.123 145.907 343.162 145.972 341.98 C 146.026 340.969 145.709 340.113 145.02 339.418 C 144.33 338.72 143.563 338.349 142.722 338.304 C 141.407 338.234 140.337 338.598 139.516 339.398 C 138.694 340.199 137.958 341.29 137.309 342.677 L 131.64 339.628 C 132.036 338.535 132.708 337.37 133.654 336.137 C 134.601 334.903 135.929 333.833 137.635 332.929 C 139.34 332.025 141.374 331.636 143.736 331.764 C 146.803 331.93 149.248 332.841 151.069 334.495 C 152.892 336.151 153.716 338.563 153.544 341.733 C 153.425 343.925 152.985 345.626 152.226 346.837 C 151.467 348.047 150.663 349.026 149.809 349.773 C 148.956 350.524 148.406 351.009 148.156 351.232 C 147.02 352.254 146.135 353.304 145.499 354.383 C 144.865 355.465 144.501 356.885 144.406 358.636 L 144.348 359.7 L 137.268 359.316 L 137.413 356.635 Z M 137.297 369.033 C 136.556 368.331 136.217 367.444 136.276 366.364 C 136.332 365.32 136.775 364.463 137.606 363.796 C 138.437 363.133 139.442 362.832 140.624 362.896 C 141.803 362.961 142.755 363.367 143.475 364.117 C 144.195 364.866 144.525 365.765 144.469 366.809 C 144.411 367.889 143.993 368.736 143.216 369.354 C 142.438 369.969 141.443 370.246 140.228 370.181 C 139.014 370.114 138.037 369.731 137.297 369.033 Z" style="fill: rgb(244, 140, 135);">
      <title>?</title>
    </path>
  </g>
  <g transform="matrix(0.992294, 0, 0, 0.992294, -99.502998, -89.948349)" style="">
    <title>Person Left</title>
    <path class="st0" d="M 0 292.477 C 0 292.477 23.845 317.682 60.43 315.153 C 97.015 312.624 107.215 292.477 107.215 292.477 L 98.367 251.509 L 23.891 260.985 L 0 292.477 Z" style="fill: rgb(154, 179, 218);"/>
    <path class="st19" d="M 98.724 432.629 L 99.791 447.208 C 99.791 447.208 96.937 448.54 93.018 446.962 L 90.317 432.595 L 98.724 432.629 Z" style="fill: rgb(236, 189, 187);"/>
    <path class="st20" d="M 87.278 458.813 C 86.765 462.348 87.021 466.78 87.825 471.851 L 90.773 471.975 C 90.773 471.975 92.455 464.094 94.12 460.621 C 95.786 457.147 88.842 455.758 87.278 458.813 Z" style="fill: rgb(64, 75, 124);"/>
    <path class="st2" d="M 91.907 445.087 C 91.907 445.087 95.04 446.823 100.666 445.457 C 100.666 445.457 109.115 461.169 112.114 464.08 C 115.113 466.991 121.807 470.311 124.112 471.674 C 126.417 473.036 108.355 473.202 104.175 472.266 C 99.996 471.331 96.683 465.876 93.266 462.863 C 89.85 459.85 87.278 458.813 87.278 458.813 C 87.278 458.813 88.535 451.02 91.907 445.087 Z" style="fill: rgb(246, 141, 136);"/>
    <path class="st20" d="M 91.267 250.772 C 91.267 250.772 100.052 278.688 100.68 290.58 C 101.308 302.472 100.659 353.471 100.659 353.471 L 101.634 433.562 C 101.634 433.562 92.421 436.422 87.746 434.551 C 87.746 434.551 83.776 412.609 80.917 401.232 C 78.057 389.854 78.27 378.626 78.201 369.341 C 78.201 369.341 67.326 331.912 61.879 298.431 C 56.431 264.95 58.776 245.834 71.69 243.049 C 84.604 240.264 91.267 250.772 91.267 250.772 Z" style="fill: rgb(64, 75, 124);"/>
    <path class="st21" d="M 91.775 432 C 91.775 432 85.143 402.901 84.488 395.849 C 83.832 388.796 83.547 368.969 83.547 368.969 L 70.832 302.799" style="fill: none; stroke: rgb(154, 179, 218); stroke-linecap: round; stroke-linejoin: round; stroke-miterlimit: 10; stroke-width: 0.846577px;"/>
    <path class="st19" d="M 21.384 433.383 L 19.782 447.967 C 19.782 447.967 16.747 449.99 13.038 447.967 L 13.039 432.371 L 21.384 433.383 Z" style="fill: rgb(236, 189, 187);"/>
    <path class="st20" d="M 7.98 459.853 C 7.617 463.406 8.059 467.823 9.076 472.855 L 13.812 472.855 C 13.812 472.855 13.375 464.91 14.893 461.37 C 16.41 457.83 9.413 456.734 7.98 459.853 Z" style="fill: rgb(64, 75, 124);"/>
    <path class="st2" d="M 12.026 445.944 C 12.026 445.944 15.23 447.545 20.793 445.944 C 20.793 445.944 28.679 461.286 31.798 464.068 C 34.917 466.849 37.078 469.884 39.438 471.148 C 41.799 472.413 23.759 473.34 19.544 472.581 C 15.329 471.823 17.674 466.512 14.134 463.646 C 10.593 460.78 7.98 459.853 7.98 459.853 C 7.98 459.853 8.907 452.013 12.026 445.944 Z" style="fill: rgb(246, 141, 136);"/>
    <path class="st20" d="M 72.001 271.93 L 68.381 301.548 C 68.381 301.548 46.104 357.54 41.475 369.726 C 36.846 381.912 25.384 434.957 25.384 434.957 C 25.384 434.957 22.572 437.309 16.678 437.03 C 10.784 436.75 9.57 433.87 9.57 433.87 C 9.57 433.87 10.217 393.561 11.971 383.264 C 13.725 372.967 18.51 357.497 19.11 350.184 C 19.71 342.87 21.11 302.682 23.669 286.094 C 26.228 269.506 35.279 244.165 53.335 245.121 C 71.392 246.077 73.44 260.16 72.001 271.93 Z" style="fill: rgb(64, 75, 124);"/>
    <path class="st21" d="M 33.149 271.269 C 33.149 271.269 26.895 321.269 26.44 330.868 C 25.985 340.467 23.902 352.352 22.748 358.88 C 21.595 365.408 17.749 382.441 16.636 395.216 C 15.524 407.991 14.029 432.393 14.029 432.393" style="fill: none; stroke: rgb(154, 179, 218); stroke-linecap: round; stroke-linejoin: round; stroke-miterlimit: 10; stroke-width: 0.846577px;"/>
    <path class="st21" d="M 77.351 269.905 L 74.885 293.662 C 74.673 295.705 73.625 297.568 71.989 298.81 L 68.381 301.548" style="fill: none; stroke: rgb(154, 179, 218); stroke-linecap: round; stroke-linejoin: round; stroke-miterlimit: 10; stroke-width: 0.846577px;"/>
    <line class="st21" x1="72.076" y1="270.351" x2="68.381" y2="301.548" style="fill: none; stroke: rgb(154, 179, 218); stroke-linecap: round; stroke-linejoin: round; stroke-miterlimit: 10; stroke-width: 0.846577px;"/>
    <path class="st2" d="M 83.636 150.775 C 83.636 150.775 89.544 142.151 109.461 189.035 L 112.908 198.029 C 113.938 200.715 114.033 203.727 112.902 206.372 C 111.146 210.48 107.103 212.863 101.692 212.773 C 101.257 212.766 100.858 212.733 100.503 212.668 C 96.252 211.895 91.801 204.63 85.283 185.635 C 78.764 166.639 83.636 150.775 83.636 150.775 Z" style="fill: rgb(246, 141, 136);"/>
    <path class="st0" d="M 60.43 152.503 L 41.969 168.561 C 41.969 168.561 23.002 262.383 23.761 262.383 C 24.52 262.383 48.898 267.921 71.642 265.924 C 94.996 263.873 99.398 259.632 99.398 259.632 L 87.236 195.115 L 84.834 165.274 L 60.43 152.503 Z" style="fill: rgb(154, 179, 218);"/>
    <path class="st22" d="M 34.635 260.529 C 34.635 260.529 72.17 267.893 95.604 257.272" style="fill: none; stroke: rgb(64, 75, 124); stroke-linecap: round; stroke-linejoin: round; stroke-miterlimit: 10; stroke-width: 0.846577px;"/>
    <path class="st2" d="M 60.43 226.473 C 58.235 264.74 43.739 296.271 43.739 296.271 C 29.406 304.363 0 292.477 0 292.477 C 0 292.477 24.285 243.176 28.558 221.078 C 33.149 197.337 31.397 149.716 31.397 149.716 C 36.275 145.01 47.746 150.361 55.393 151.789 C 54.937 156.513 53.258 176.067 54.947 190.057 C 56.89 206.07 60.43 226.473 60.43 226.473 Z" style="fill: rgb(246, 141, 136);"/>
    <path class="st2" d="M 64.856 151.789 C 64.856 151.789 74.129 151.326 84.494 150.41 L 86.351 169.067 C 86.351 169.067 91.662 186.769 91.915 189.93 C 92.168 193.091 89.512 204.092 89.512 204.092 C 89.512 204.092 105.445 265.671 107.215 292.477 C 107.215 292.477 97.731 291.971 87.869 289.569 C 87.869 289.569 87.911 266.598 87.068 249.57 C 86.225 232.542 83.527 221.078 83.527 221.078 C 83.527 221.078 73.918 180.953 71.642 172.523 C 69.366 164.093 64.856 151.789 64.856 151.789 Z" style="fill: rgb(246, 141, 136);"/>
    <path class="st23" d="M 84.24 152.503 L 86.351 169.067 C 86.351 169.067 91.662 186.769 91.915 189.93 C 92.168 193.091 89.512 204.092 89.512 204.092 C 89.512 204.092 91.935 213.456 94.996 226.47" style="fill: none; stroke: rgb(236, 189, 187); stroke-linecap: round; stroke-linejoin: round; stroke-miterlimit: 10; stroke-width: 0.726702px;"/>
    <path class="st2" d="M 58.576 148.499 C 53.48 149.296 49.05 160.637 47.153 170.669 L 52.865 175.895 L 47.153 186.011 C 47.153 186.011 55.71 207.422 60.43 226.473 C 60.43 226.473 58.238 195.452 56.721 178.34 C 57.016 160.764 65.109 160.124 71.642 176.654 C 77.964 194.946 83.527 221.078 83.527 221.078 C 83.527 221.078 84.202 194.946 82.853 180.868 L 74.423 174.378 L 76.952 167.802 C 76.952 167.802 68.27 146.981 58.576 148.499 Z" style="fill: rgb(246, 141, 136);"/>
    <path class="st23" d="M 83.527 221.078 C 83.527 221.078 84.202 194.946 82.853 180.868 L 74.423 174.378 L 76.952 167.802 C 76.952 167.802 74.011 160.749 69.641 155.152" style="fill: none; stroke: rgb(236, 189, 187); stroke-linecap: round; stroke-linejoin: round; stroke-miterlimit: 10; stroke-width: 0.726702px;"/>
    <path class="st23" d="M 52.551 154.376 C 50.155 158.753 48.239 164.926 47.153 170.669 L 52.865 175.895 L 47.153 186.011 C 47.153 186.011 53.686 202.358 58.484 219.194" style="fill: none; stroke: rgb(236, 189, 187); stroke-linecap: round; stroke-linejoin: round; stroke-miterlimit: 10; stroke-width: 0.726702px;"/>
    <path class="st20" d="M 48.544 118.552 C 48.544 118.552 44.877 111.534 39.061 110.08 C 33.244 108.626 29.388 114.632 28.629 121.903 C 27.871 129.174 33.289 135.336 41.337 128.415 C 47.659 122.978 48.544 118.552 48.544 118.552 Z" style="fill: rgb(64, 75, 124);"/>
    <path class="st20" d="M 47.027 118.679 C 47.027 118.679 37.733 123.736 38.745 132.208 C 39.756 140.68 54.55 147.255 62.516 142.45 C 70.483 137.645 68.523 130.754 68.523 130.754 C 68.523 130.754 75.54 130.122 75.667 123.357 C 75.793 116.592 72.316 115.391 68.712 116.086 C 68.712 116.086 70.04 107.678 62.264 106.919 C 54.487 106.161 48.608 110.333 47.027 118.679 Z" style="fill: rgb(64, 75, 124);"/>
    <path class="st21" d="M 47.027 118.679 C 47.024 118.68 40.195 122.398 38.884 128.796" style="fill: none; stroke: rgb(154, 179, 218); stroke-linecap: round; stroke-linejoin: round; stroke-miterlimit: 10; stroke-width: 0.846577px;"/>
    <path class="st19" d="M 71.638 176.654 C 70.374 181.287 66.752 183.31 66.752 183.31 C 61.361 182.895 56.718 178.343 56.718 178.343 L 56.718 160.55 C 56.657 155.704 55.534 144.041 55.109 139.792 C 55.008 138.801 54.947 138.214 54.947 138.214 L 63.293 139.995 C 63.293 139.995 63.475 143.93 63.819 148.31 C 64.153 152.477 64.658 157.06 65.316 159.032 C 66.671 163.078 71.638 176.654 71.638 176.654 Z" style="fill: rgb(236, 189, 187);"/>
    <path class="st20" d="M 63.819 148.31 C 59.014 146.823 56.445 142.938 55.109 139.792 C 55.008 138.801 54.947 138.214 54.947 138.214 L 63.293 139.995 C 63.293 139.995 63.475 143.93 63.819 148.31 Z" style="fill: rgb(64, 75, 124);"/>
    <path class="st19" d="M 67.005 122.914 C 67.005 122.914 70.672 128.794 70.862 136.444 C 71.052 144.094 64.982 144.916 58.85 142.324 C 52.717 139.732 48.924 130.944 48.924 130.944 C 48.924 130.944 46.142 123.357 51.263 119.88 C 56.384 116.403 63.275 117.351 67.005 122.914 Z" style="fill: rgb(236, 189, 187);"/>
    <path class="st20" d="M 52.022 122.282 C 52.022 122.282 60.177 128.731 70.293 124.495 C 70.293 124.495 62.833 110.46 50.947 117.288 C 39.061 124.116 44.751 133.726 51.2 135.243 C 51.2 135.243 54.74 131.07 52.022 122.282 Z" style="fill: rgb(64, 75, 124);"/>
    <g transform="matrix(1, 0, 0, 1, -26.949917, -20.598755)">
      <path class="st19" d="M82.3222504,159.065979l-2.9925308-4.2991333c0,0-3.1611252-2.8660889-6.153656-1.0115662 C70.1835327,155.6098175,73.3446579,163.9973297,82.3222504,159.065979z" style="fill: rgb(236, 189, 187);"/>
      <path class="st22" d="M74.1033249,155.6203461c0,0,3.4456329-0.3477173,6.2590332,1.8650665" style="fill: none; stroke: rgb(64, 75, 124); stroke-linecap: round; stroke-linejoin: round; stroke-miterlimit: 10; stroke-width: 0.846577px;"/>
      <path class="st22" d="M76.7270584,158.7024384c0,0-0.3008118-1.3251953-0.0634766-2.8911896" style="fill: none; stroke: rgb(64, 75, 124); stroke-linecap: round; stroke-linejoin: round; stroke-miterlimit: 10; stroke-width: 0.846577px;"/>
    </g>
    <path class="st24" d="M 52.485 138.214 C 53.847 138.214 54.951 140.083 54.951 142.387 C 54.951 144.692 53.847 146.56 52.485 146.56 C 51.123 146.56 50.019 144.692 50.019 142.387 C 50.019 141.498 50.184 140.674 50.464 139.996" style="fill: none; stroke: rgb(246, 141, 136); stroke-linecap: round; stroke-linejoin: round; stroke-miterlimit: 10; stroke-width: 0.846577px;"/>
    <path class="st20" d="M 54.278 128.051 C 54.278 128.051 54.762 124.679 57.326 125.064 C 57.326 125.064 57.17 124.385 57.741 124.182 C 58.312 123.978 58.961 125.761 58.961 125.761 C 58.961 125.761 56.246 126.411 54.278 128.051 Z" style="fill: rgb(64, 75, 124);"/>
    <path class="st20" d="M 68.127 128.36 C 68.127 128.36 66.991 125.909 65.554 127.289 C 65.554 127.289 65.332 126.757 64.941 126.817 C 64.266 126.921 64.68 128.215 64.68 128.215 C 66.002 128.619 66.912 128.548 68.127 128.36 Z" style="fill: rgb(64, 75, 124);"/>
    <ellipse transform="matrix(0.95946, -0.281845, 0.281845, 0.95946, -66.45253, 9.852781)" class="st20" cx="86.102" cy="152.542" rx="1.279" ry="1.581" style="fill: rgb(64, 75, 124);"/>
    <path class="st20" d="M 66.826 131.332 C 66.153 131.535 65.404 131.022 65.158 130.177 C 65.008 129.674 65.073 129.172 65.297 128.808 C 65.746 128.968 66.484 129.118 67.415 129.022 C 67.489 129.15 67.564 129.3 67.607 129.46 C 67.853 130.294 67.5 131.139 66.826 131.332 Z" style="fill: rgb(64, 75, 124);"/>
    <path class="st22" d="M 63.094 130.442 L 63.988 133.403 C 63.988 133.403 66.117 132.796 65.998 134.145 C 65.881 135.471 64.104 135.544 64.104 135.544" style="fill: none; stroke: rgb(64, 75, 124); stroke-linecap: round; stroke-linejoin: round; stroke-miterlimit: 10; stroke-width: 0.846577px;"/>
    <path class="st22" d="M 60.056 138.418 C 60.056 138.418 62.856 137.226 65.78 139.892" style="fill: none; stroke: rgb(64, 75, 124); stroke-linecap: round; stroke-linejoin: round; stroke-miterlimit: 10; stroke-width: 0.846577px;"/>
    <g transform="matrix(1, 0, 0, 1, -26.949917, -20.598755)">
      <path class="st2" d="M72.5382233,174.1468964c-1.3490906-4.4174042-5.985405-7.0797119-10.4156494-5.773407 c-4.5706444,1.3477173-8.0856133,4.8238068-7.2760811,14.8172913 c1.1262703,13.9035339,5.2365837,55.5442352,8.9150887,59.3347778 c3.6785049,3.7905579,11.6888504,1.3526764,11.6888504,1.3526764s8.7765884-11.7333527,9.2026978-15.2249146 c0.4261169-3.4915771-1.5372391-5.3191376-1.5372391-5.3191376l-3.9579468-0.2884216 c0,0-1.8558426-26.4767456-3.7876587-37.2155304C74.5511932,181.2769775,73.4895172,177.2617645,72.5382233,174.1468964z" style="fill: rgb(246, 141, 136);"/>
      <path class="st23" d="M58.3469467,216.6505432c1.6281776,12.621933,3.5753822,23.9797516,5.4146347,25.8750153 c3.6785049,3.7905579,11.6888504,1.3526764,11.6888504,1.3526764s8.7765884-11.7333527,9.2026978-15.2249146 c0.4261169-3.4915771-1.5372391-5.3191376-1.5372391-5.3191376l-3.9579468-0.2884216 c0,0-1.8558426-26.4767456-3.7876587-37.2155304c-0.8190918-4.5532532-1.8807678-8.5684662-2.8320618-11.6833344" style="fill: none; stroke: rgb(236, 189, 187); stroke-linecap: round; stroke-linejoin: round; stroke-miterlimit: 10; stroke-width: 0.726702px;"/>
    </g>
    <path class="st20" d="M 52.544 200.272 L 61.518 197.337 C 61.518 197.337 65.959 200.47 65.644 208.213 C 65.329 215.956 60.883 223.573 60.883 223.573 C 60.883 223.573 50.618 227.813 50.665 227.629 C 50.711 227.445 46.639 223.122 45.805 214.765 C 44.97 206.407 52.544 200.272 52.544 200.272 Z" style="fill: rgb(64, 75, 124);"/>
    <path class="st19" d="M 60.68 200.942 C 53.872 212.189 60.732 219.642 60.732 219.642 C 67.401 215.928 94.999 201.147 96.824 200.198 C 96.902 200.158 97.501 191.938 97.501 191.938 L 60.68 200.942 Z" style="fill: rgb(236, 189, 187);"/>
    <path class="st20" d="M 91.927 191.322 C 88.335 197.908 91.546 213.812 103.553 213.431 C 115.56 213.049 117.847 197.612 112.129 189.988 C 106.412 182.365 95.357 185.033 91.927 191.322 Z" style="fill: rgb(64, 75, 124);"/>
    <path class="st19" d="M 52.846 146.169 C 52.718 145.784 52.85 145.363 53.175 145.122 C 54.358 144.246 57.117 142.227 57.777 141.975 C 58.624 141.652 68.703 143.621 68.703 143.621 L 70.6 137.628 C 70.773 137.08 71.293 136.716 71.868 136.741 C 72.57 136.772 73.114 137.366 73.083 138.068 L 72.221 144.966 L 73.646 153.372 C 73.646 153.372 103.993 186.669 104.848 187.696 C 105.703 188.723 108.62 196.691 105.91 200.038 C 100.313 206.951 92.218 199.306 90.977 197.337 C 89.736 195.368 68.855 156.659 68.855 156.659 L 63.035 156.036 L 62.346 156.375 C 62.346 156.375 62.315 157.084 61.701 157.243 C 61.086 157.401 59.581 157.1 59.46 156.015 C 59.339 154.93 60.395 153.908 60.395 153.908 C 60.395 153.908 58.468 154.791 57.93 154.734 C 57.393 154.677 56.654 153.835 56.771 152.693 C 56.888 151.551 59.589 149.948 59.589 149.948 C 59.589 149.948 57.024 150.747 56.421 150.654 C 55.818 150.56 55.263 149.355 55.299 148.547 C 55.334 147.739 59.925 145.847 59.925 145.847 L 57.786 145.394 L 54.106 146.735 C 53.601 146.952 53.019 146.69 52.846 146.169 Z" style="fill: rgb(236, 189, 187);"/>
    <path class="st22" d="M 64.696 156.213 L 63.035 156.036 L 62.346 156.375 C 62.346 156.375 62.315 157.084 61.701 157.243 C 61.086 157.401 59.581 157.1 59.46 156.015 C 59.339 154.93 60.395 153.908 60.395 153.908 C 60.395 153.908 58.468 154.791 57.93 154.734 C 57.393 154.677 56.654 153.835 56.771 152.693 C 56.888 151.551 59.589 149.948 59.589 149.948 C 59.589 149.948 57.024 150.747 56.421 150.654 C 55.818 150.56 55.263 149.355 55.299 148.547 C 55.334 147.739 59.925 145.847 59.925 145.847 L 57.786 145.394 L 54.106 146.735 C 53.601 146.952 53.019 146.69 52.846 146.169 C 52.718 145.784 52.85 145.363 53.175 145.122 C 54.358 144.246 57.117 142.227 57.777 141.975 C 58.624 141.652 68.703 143.621 68.703 143.621 L 70.6 137.628 C 70.656 137.452 70.747 137.295 70.865 137.164" style="fill: none; stroke: rgb(64, 75, 124); stroke-linecap: round; stroke-linejoin: round; stroke-miterlimit: 10; stroke-width: 0.846577px;"/>
  </g>
  <g transform="matrix(0.992294, 0, 0, 0.992294, -199.249191, -89.948349)" style="">
    <title>Person Right</title>
    <path class="st19" d="M 450.444 432.119 C 450.444 432.119 451.736 441.383 452.069 443.978 C 452.595 448.281 453.309 454.025 453.302 454.177 C 453.29 454.413 457.883 455.978 457.883 455.978 L 462.856 454.317 L 462.684 446.749 L 462.407 432.719 L 450.444 432.119 Z" style="fill: rgb(236, 189, 187);"/>
    <path class="st20" d="M 450.444 432.119 C 450.444 432.119 451.736 441.383 452.069 443.978 C 454.533 444.617 458.992 445.796 462.684 446.749 L 462.407 432.719 L 450.444 432.119 Z" style="fill: rgb(64, 75, 124);"/>
    <path class="st20" d="M 463.719 450.075 C 463.719 450.075 456.771 452.128 451.086 450.391 C 451.086 450.391 441.138 457.576 434.821 459.866 C 428.505 462.155 422.504 463.814 422.504 473.762 L 467.904 473.762 C 467.904 473.762 468.772 458.081 463.719 450.075 Z" style="fill: rgb(64, 75, 124);"/>
    <path class="st26" d="M 444.079 460.924 C 444.079 460.924 449.645 457.667 454.738 453.166" style="fill: none; stroke: rgb(154, 179, 218); stroke-linecap: round; stroke-linejoin: round; stroke-miterlimit: 10; stroke-width: 1.05091px;"/>
    <path class="st2" d="M 444.493 467.603 C 444.493 467.603 442.243 460.379 437.269 457.892 C 437.269 457.892 428.86 460.734 425.307 462.748 C 421.754 464.761 421.517 469.143 421.517 473.762 L 468.772 473.762 L 468.772 467.603 L 444.493 467.603 Z" style="fill: rgb(246, 141, 136);"/>
    <path class="st2" d="M 448.12 439.478 L 465.935 439.482 C 465.935 439.482 469.71 360.923 469.75 360.175 C 469.789 359.427 482.035 283.816 482.035 283.816 C 482.035 283.816 473.827 251.903 472.098 243.312 C 469.445 230.12 441.205 214.726 438.631 253.52 C 436.056 292.313 442.766 361.225 442.599 368.642 C 442.433 376.059 448.12 439.478 448.12 439.478 Z" style="fill: rgb(246, 141, 136);"/>
    <ellipse transform="matrix(0.999389, -0.034956, 0.034956, 0.999389, -40.094188, -3.632021)" class="st27" cx="478.656" cy="384.396" rx="7.757" ry="11.982" style="fill: none; stroke: rgb(236, 189, 187); stroke-linecap: round; stroke-linejoin: round; stroke-miterlimit: 10; stroke-width: 1.05091px;"/>
    <polyline class="st27" points="473.358 294.234 463.908 358.591 461.457 435.27" style="fill: none; stroke: rgb(236, 189, 187); stroke-linecap: round; stroke-linejoin: round; stroke-miterlimit: 10; stroke-width: 1.05091px;"/>
    <path class="st19" d="M 533.543 435.577 C 533.543 435.577 533.764 437.653 534.036 440.255 C 534.512 444.564 535.136 450.318 535.178 450.464 C 535.243 450.692 531.133 453.269 531.133 453.269 L 525.911 452.794 L 524.341 445.389 L 522.891 438.541 L 533.543 435.577 Z" style="fill: rgb(236, 189, 187);"/>
    <path class="st20" d="M 512.832 473.765 L 540.347 473.765 C 540.347 473.765 540.492 471.195 540.32 467.607 C 540.086 462.333 539.175 454.841 536.164 450.072 C 536.164 450.072 529.222 452.127 523.533 450.387 C 523.533 450.387 519.377 458.33 515.383 464.028 C 515.356 464.073 515.32 464.118 515.293 464.163 C 513.309 466.976 512.823 470.709 512.832 473.765 Z" style="fill: rgb(64, 75, 124);"/>
    <path class="st26" d="M 523.837 464.524 C 523.837 464.524 527.649 459.321 530.531 453.166" style="fill: none; stroke: rgb(154, 179, 218); stroke-linecap: round; stroke-linejoin: round; stroke-miterlimit: 10; stroke-width: 1.05091px;"/>
    <path class="st2" d="M 508.874 473.765 L 541.222 473.765 L 541.222 467.607 L 529.934 467.607 C 529.934 467.607 529.997 457.888 520.116 457.888 C 510.235 457.888 508.874 466.255 508.874 473.765 Z" style="fill: rgb(246, 141, 136);"/>
    <path class="st20" d="M 533.543 435.577 C 533.543 435.577 533.764 437.653 534.036 440.255 C 531.784 441.443 527.715 443.614 524.341 445.389 L 522.891 438.541 L 533.543 435.577 Z" style="fill: rgb(64, 75, 124);"/>
    <path class="st2" d="M 519.728 257.526 C 519.728 257.526 526.229 349.294 527.276 362.132 C 528.335 374.977 536.957 436.895 536.957 436.895 C 536.957 436.895 529.484 439.776 519.09 441.03 C 518.829 440.119 500.592 376.185 499.24 370.334 C 498.474 367.005 481.945 298.817 481.883 298.599 C 481.447 297.078 468.673 261.581 477.721 243.938 C 486.769 226.295 513.631 231.676 519.728 257.526 Z" style="fill: rgb(246, 141, 136);"/>
    <path class="st27" d="M 474.501 261.589 L 475.708 280.199 C 475.872 282.741 477.46 284.972 479.807 285.961 L 481.858 286.825 L 480.956 260.417" style="fill: none; stroke: rgb(236, 189, 187); stroke-linecap: round; stroke-linejoin: round; stroke-miterlimit: 10; stroke-width: 1.05091px;"/>
    <ellipse transform="matrix(0.986596, -0.163182, 0.163182, 0.986596, -83.936206, 72.214347)" class="st27" cx="536.464" cy="393.286" rx="7.757" ry="11.982" style="fill: none; stroke: rgb(236, 189, 187); stroke-linecap: round; stroke-linejoin: round; stroke-miterlimit: 10; stroke-width: 1.05091px;"/>
    <path class="st27" d="M 511.528 262.183 C 511.528 262.183 521.588 366.477 523.415 372.852 C 525.242 379.228 532.461 433.256 532.461 433.256" style="fill: none; stroke: rgb(236, 189, 187); stroke-linecap: round; stroke-linejoin: round; stroke-miterlimit: 10; stroke-width: 1.05091px;"/>
    <path class="st0" d="M 464.395 168.13 C 462.427 173.487 459.807 179.369 456.962 185.048 C 454.054 190.887 450.92 196.523 448.043 201.207 C 447.505 202.089 446.35 204.096 445.158 206.192 C 444.182 207.91 442.591 209.198 440.707 209.794 C 434.376 211.804 427.628 208.233 425.736 201.859 C 424.705 198.412 424.835 194.725 426.102 191.357 C 432.834 173.47 441.287 152.071 444.643 148.014 C 448.642 143.159 456.064 143.801 460.994 148.421 C 465.24 152.388 467.624 159.286 464.395 168.13 Z" style="fill: rgb(154, 179, 218);"/>
    <path class="st0" d="M 511.429 224.058 C 511.063 220.396 513.185 176.78 511.528 155.668 C 510.444 141.858 502.006 142.597 496.503 143.253 C 489.027 144.144 478.872 145.387 471.203 146.445 C 466.628 146.47 459.544 146.418 454.723 144.975 C 449.543 143.425 444.279 146.956 443.604 152.321 C 440.386 177.92 446.554 213.189 445.106 224.768 C 443.448 238.033 431.131 267.878 431.131 267.878 C 443.345 276.99 455.892 280.876 467.684 281.719 C 470.39 277.158 480.004 261.483 480.004 261.483 L 494.826 278.774 C 512.798 273.777 525.167 264.562 525.167 264.562 C 525.167 264.562 511.903 228.795 511.429 224.058 Z" style="fill: rgb(154, 179, 218);"/>
    <path class="st28" d="M 443.604 152.321 C 441.93 165.634 442.795 181.563 443.807 195.414" style="fill: none; stroke: rgb(64, 75, 124); stroke-linecap: round; stroke-linejoin: round; stroke-miterlimit: 10; stroke-width: 1.05091px;"/>
    <polygon class="st20" points="447.475 244.902 445.659 251.297 463.74 256.035 465.635 249.56" style="fill: rgb(64, 75, 124);"/>
    <polygon class="st20" points="507.208 243.154 509.408 249.427 491.647 255.252 489.364 248.904" style="fill: rgb(64, 75, 124);"/>
    <path class="st28" d="M 478.978 260.417 L 474.241 255.502 C 474.241 255.502 477.557 237.085 477.794 206.767" style="fill: none; stroke: rgb(64, 75, 124); stroke-linecap: round; stroke-linejoin: round; stroke-miterlimit: 10; stroke-width: 1.05091px;"/>
    <path class="st20" d="M 460.546 146.047 C 460.546 146.047 453.053 156.67 450.245 167.15 L 458.529 170.684 L 453.16 181.106 L 477.794 205.582 L 496.111 179.369 L 490.399 168.897 L 496.667 165.831 C 496.667 165.831 488.03 146.888 484.424 144.653 C 478.149 140.766 470.968 140.363 460.546 146.047 Z" style="fill: rgb(64, 75, 124);"/>
    <path class="st25" d="M 471.431 147.88 C 467.992 147.972 466.683 147.458 461.68 146.934 C 460.787 162.292 467.162 187.636 477.478 200.687 C 477.478 200.687 483.788 168.265 483.788 146.743 C 477.548 147.3 475.546 147.328 471.431 147.88 Z" style="fill: rgb(255, 255, 255);"/>
    <path class="st20" d="M 481.457 184.177 C 480.723 179.26 478.606 166.235 475.583 157.42 L 472.05 156.67 L 469.582 158.209 C 469.582 158.209 467.736 169.959 468.023 184.283 C 470.852 190.472 474.056 196.359 477.478 200.687 C 477.478 200.687 479.233 193.512 481.457 184.177 Z" style="fill: rgb(64, 75, 124);"/>
    <path class="st26" d="M 470.214 164.368 C 470.214 164.368 473.826 164.012 475.958 164.131" style="fill: none; stroke: rgb(154, 179, 218); stroke-linecap: round; stroke-linejoin: round; stroke-miterlimit: 10; stroke-width: 1.05091px;"/>
    <path class="st25" d="M 472.861 158.051 C 472.861 158.051 468.203 160.262 463.387 164.999 C 463.387 164.999 462.281 148.103 471.203 146.445 C 480.125 144.787 482.573 162.631 482.573 162.631 C 482.573 162.631 480.283 160.262 472.861 158.051 Z" style="fill: rgb(255, 255, 255);"/>
    <path class="st26" d="M 477.503 149.099 C 481.354 153.748 482.573 162.631 482.573 162.631 C 482.573 162.631 480.283 160.262 472.861 158.051 C 472.861 158.051 468.203 160.262 463.387 164.999 C 463.387 164.999 462.818 156.303 465.79 150.776" style="fill: none; stroke: rgb(154, 179, 218); stroke-linecap: round; stroke-linejoin: round; stroke-miterlimit: 10; stroke-width: 1.05091px;"/>
    <path class="st19" d="M 474.459 153.178 C 474.459 153.178 471.91 154.95 468.423 153.652 L 467.22 145.096 L 465.894 135.707 L 474.326 128.468 L 474.402 128.402 L 474.402 128.989 L 474.411 133.821 L 474.459 153.178 Z" style="fill: rgb(236, 189, 187);"/>
    <path class="st20" d="M 474.411 133.821 C 474.023 137.583 472.507 142.917 467.22 145.096 L 465.894 135.707 L 474.326 128.468 C 474.364 128.667 474.383 128.838 474.402 128.989 C 474.459 129.463 474.459 129.747 474.459 129.766 C 474.459 129.766 474.648 131.491 474.411 133.821 Z" style="fill: rgb(64, 75, 124);"/>
    <path class="st19" d="M 459.289 126.159 C 459.289 126.159 457.295 123.257 454.959 124.713 C 452.623 126.168 454.535 132.381 459.676 133.042 L 459.289 126.159 Z" style="fill: rgb(236, 189, 187);"/>
    <path class="st28" d="M 455.901 126.551 C 455.901 126.551 457.577 127.255 458.801 130.11" style="fill: none; stroke: rgb(64, 75, 124); stroke-linecap: round; stroke-linejoin: round; stroke-miterlimit: 10; stroke-width: 1.05091px;"/>
    <path class="st19" d="M 467.354 113.233 C 459.834 112.249 457.416 123.102 457.873 131.195 C 458.33 139.288 464.766 144.836 471.883 139.036 C 479 133.237 482.731 115.244 467.354 113.233 Z" style="fill: rgb(236, 189, 187);"/>
    <path class="st20" d="M 474.396 140.766 L 474.363 135.848 L 474.588 131.13 L 476.19 125.675 C 476.19 125.675 470.175 125.532 472.916 118.751 C 472.916 118.751 464.795 126.604 457.446 125.39 C 450.096 124.185 445.45 115.075 446.975 112.67 C 448.426 110.366 451.646 113.337 451.902 113.579 C 451.585 113.026 445.415 102.421 450.547 97.024 C 455.811 91.491 467.806 103.286 474.735 110.437 C 475.796 111.53 476.836 112.549 477.832 113.507 C 477.325 111.733 476.571 108.89 476.027 105.951 C 475.14 101.101 482.139 103.206 480.414 115.866 C 480.414 115.866 486.116 109.564 488.931 111.626 C 491.305 113.351 486.552 116.75 482.343 117.797 C 485.542 120.931 487.66 123.53 487.576 126.53 C 487.435 131.549 474.396 140.766 474.396 140.766 Z" style="fill: rgb(64, 75, 124);"/>
    <path class="st19" d="M 476.331 128.584 C 476.331 128.584 477.808 125.455 481.401 126.554 C 484.994 127.652 482.275 135.614 474.983 133.514 L 476.331 128.584 Z" style="fill: rgb(236, 189, 187);"/>
    <path class="st28" d="M 476.645 131.459 C 476.645 131.459 478.064 128.398 481.181 128.432" style="fill: none; stroke: rgb(64, 75, 124); stroke-linecap: round; stroke-linejoin: round; stroke-miterlimit: 10; stroke-width: 1.05091px;"/>
    <path class="st28" d="M 479.559 131.484 C 479.559 131.484 479.636 130.237 478.712 129.142" style="fill: none; stroke: rgb(64, 75, 124); stroke-linecap: round; stroke-linejoin: round; stroke-miterlimit: 10; stroke-width: 1.05091px;"/>
    <path class="st20" d="M 472.657 122.908 C 472.657 122.908 471.413 119.832 469.078 120.795 C 469.078 120.795 469.068 120.116 468.48 120.057 C 467.892 119.998 467.695 121.835 467.695 121.835 C 467.695 121.835 470.414 121.816 472.657 122.908 Z" style="fill: rgb(64, 75, 124);"/>
    <path class="st20" d="M 457.913 125.606 C 457.913 125.606 459.13 122.827 460.481 124.219 C 460.481 124.219 460.716 123.709 461.094 123.781 C 461.747 123.906 461.273 125.584 461.273 125.584 C 461.273 125.584 459.49 124.965 457.913 125.606 Z" style="fill: rgb(64, 75, 124);"/>
    <ellipse transform="matrix(0.043673, -0.999046, 0.999046, 0.043673, 296.822505, 617.287892)" class="st20" cx="495.077" cy="149.826" rx="1.54" ry="1.246" style="fill: rgb(64, 75, 124);"/>
    <ellipse transform="matrix(0.043673, -0.999046, 0.999046, 0.043673, 290.132075, 609.657705)" class="st20" cx="487.746" cy="149.505" rx="1.54" ry="1.246" style="fill: rgb(64, 75, 124);"/>
    <path class="st28" d="M 463.257 132.204 C 463.257 132.204 461.75 132.683 462.027 133.766 C 462.348 135.022 464.143 134.647 464.143 134.647" style="fill: none; stroke: rgb(64, 75, 124); stroke-linecap: round; stroke-linejoin: round; stroke-miterlimit: 10; stroke-width: 1.05091px;"/>
    <circle class="st28" cx="468.218" cy="129.278" r="3.453" style="fill: none; stroke: rgb(64, 75, 124); stroke-linecap: round; stroke-linejoin: round; stroke-miterlimit: 10; stroke-width: 1.05091px;"/>
    <circle class="st28" cx="459.708" cy="128.682" r="3.453" style="fill: none; stroke: rgb(64, 75, 124); stroke-linecap: round; stroke-linejoin: round; stroke-miterlimit: 10; stroke-width: 1.05091px;"/>
    <path class="st28" d="M 469.612 136.124 C 469.612 136.124 466.864 135.018 464.067 137.669" style="fill: none; stroke: rgb(64, 75, 124); stroke-linecap: round; stroke-linejoin: round; stroke-miterlimit: 10; stroke-width: 1.05091px;"/>
    <path class="st19" d="M 454.243 186.699 L 446.371 173.418 C 445.61 172.133 444.196 171.379 442.704 171.462 L 434.528 171.92 C 433.885 171.97 433.388 172.506 433.388 173.151 C 433.388 173.834 433.941 174.387 434.623 174.387 L 435.543 174.387 L 431.414 175.079 C 430.772 175.187 430.302 175.742 430.302 176.393 C 430.302 177.191 430.998 177.81 431.79 177.717 L 435.384 177.294 L 431.181 178.583 C 430.502 178.792 430.066 179.451 430.14 180.157 C 430.228 181.002 431.006 181.601 431.845 181.47 L 436.418 180.756 L 432.878 182.692 C 432.164 183.082 431.866 183.953 432.19 184.699 C 432.512 185.442 433.346 185.818 434.116 185.57 L 438.308 184.218 L 444.464 191.048 C 445.739 192.462 447.595 193.208 449.494 193.07 L 452.214 192.871 L 460.331 195.796 L 460.809 187.798 L 454.243 186.699 Z" style="fill: rgb(236, 189, 187);"/>
    <line class="st29" x1="437.015" y1="174.196" x2="441.153" y2="173.753" style="fill: none; stroke: rgb(64, 75, 124); stroke-linecap: round; stroke-linejoin: round; stroke-miterlimit: 10; stroke-width: 0.75px;"/>
    <line class="st29" x1="437.015" y1="176.976" x2="440.914" y2="176.3" style="fill: none; stroke: rgb(64, 75, 124); stroke-linecap: round; stroke-linejoin: round; stroke-miterlimit: 10; stroke-width: 0.75px;"/>
    <path class="st29" d="M 444.672 173.192 L 443.974 173.724 C 443.597 174.012 443.47 174.522 443.669 174.953 L 443.862 175.37 C 444.069 175.818 443.923 176.35 443.516 176.629 L 443.265 176.8 C 442.878 177.065 442.724 177.56 442.892 177.997 L 443.124 178.599 C 443.293 179.039 443.136 179.538 442.744 179.801 L 442.531 179.944 C 442.17 180.187 442.004 180.634 442.121 181.054 L 442.261 181.558 C 442.367 181.939 442.242 182.346 441.94 182.601 L 441.101 183.272 L 441.713 184.691" style="fill: none; stroke: rgb(64, 75, 124); stroke-linecap: round; stroke-linejoin: round; stroke-miterlimit: 10; stroke-width: 0.75px;"/>
    <path class="st0" d="M 492.365 149.983 L 487.408 197.681 C 487.408 197.681 487.408 208.979 497.129 209.257 C 505.139 209.486 508.033 208.035 509.538 193.017 C 511.042 177.999 510.442 155.076 509.408 149.099 C 508.374 143.122 495.033 138.206 492.365 149.983 Z" style="fill: rgb(154, 179, 218);"/>
    <path class="st28" d="M 492.365 149.983 L 487.408 197.681" style="fill: none; stroke: rgb(64, 75, 124); stroke-linecap: round; stroke-linejoin: round; stroke-miterlimit: 10; stroke-width: 1.05091px;"/>
    <polygon class="st25" points="451.776 196.633 456.172 197.681 457.535 185.507 453.079 185.007" style="fill: rgb(255, 255, 255);"/>
    <path class="st0" d="M 455.487 198.866 L 489.986 209.795 L 492.927 210.725 C 499.257 212.736 506.005 209.164 507.898 202.79 C 508.848 199.613 507.707 196.181 505.044 194.204 L 501.636 191.675 C 498.303 189.201 494.358 187.683 490.226 187.285 L 476.672 185.979 L 456.994 184.076 L 455.487 198.866 Z" style="fill: rgb(154, 179, 218);"/>
    <path class="st28" d="M 497.808 189.378 C 495.431 188.251 492.867 187.54 490.226 187.285 L 476.672 185.979 L 456.994 184.076 L 455.487 198.866 L 489.986 209.795 L 492.927 210.725 C 493.718 210.977 494.516 211.141 495.31 211.223 C 495.31 211.223 503.585 212.298 507.219 204.551" style="fill: none; stroke: rgb(64, 75, 124); stroke-linecap: round; stroke-linejoin: round; stroke-miterlimit: 10; stroke-width: 1.05091px;"/>
    <circle class="st20" cx="460.28" cy="196.31" r="1.371" style="fill: rgb(64, 75, 124);"/>
    <path class="st19" d="M 478.149 179.461 L 487.583 178.073 C 489.875 177.736 492.114 178.951 493.08 181.057 L 496.667 188.267 L 492.365 187.005 C 490.41 186.736 488.556 186.546 486.861 186.481 L 479.461 189.378 L 478.149 179.461 Z" style="fill: rgb(236, 189, 187);"/>
    <polygon class="st25" points="480.985 190.237 476.714 191.71 474.165 179.728 478.551 178.795" style="fill: rgb(255, 255, 255);"/>
    <path class="st0" d="M 477.511 192.822 L 444.248 207.076 L 441.412 208.29 C 435.309 210.911 428.243 208.017 425.736 201.859 C 424.479 198.79 425.278 195.262 427.735 193.035 L 430.88 190.183 C 433.955 187.395 437.732 185.499 441.805 184.698 L 455.167 182.072 L 474.563 178.251 L 477.511 192.822 Z" style="fill: rgb(154, 179, 218);"/>
    <circle class="st20" cx="472.491" cy="190.748" r="1.371" style="fill: rgb(64, 75, 124);"/>
    <path class="st28" d="M 428.595 192.255 L 430.88 190.183 C 433.955 187.395 437.732 185.499 441.805 184.698 L 455.167 182.072 L 474.563 178.251 L 477.511 192.822 L 443.959 207.784" style="fill: none; stroke: rgb(64, 75, 124); stroke-linecap: round; stroke-linejoin: round; stroke-miterlimit: 10; stroke-width: 1.05091px;"/>
  </g>
</svg>