<?xml version="1.0" encoding="utf-8"?>
<svg id="Layer_1" data-name="Layer 1" viewBox="0 0 1526.677 1400" xmlns="http://www.w3.org/2000/svg">
  <defs>
    <style>.cls-1{fill:#87bfc1;}.cls-2{fill:#262424;}.cls-3{fill:#fff;}.cls-4{fill:#dd9144;}.cls-5{fill:#272525;}.cls-6{fill:#86bec0;}.cls-7{fill:#dc9044;}</style>
  </defs>
  <title>Google Ads</title>
  <path class="cls-1" d="M 1049.285 163.393 C 1057.506 173.684 1052.23 189.03 1039.42 192.09 C 1037.937 192.415 1037.311 194.183 1038.256 195.369 L 1057.868 219.874 C 1059.984 222.514 1059.557 226.37 1056.916 228.483 L 1032.08 248.32 C 1030.874 249.284 1029.077 248.619 1028.788 247.103 C 1026.207 233.522 1009.891 227.826 999.42 236.853 C 989.38 245.506 991.852 261.68 1004.018 266.94 C 1005.432 267.556 1005.683 269.454 1004.481 270.418 L 980.545 289.567 C 977.905 291.682 974.049 291.255 971.936 288.614 L 951.927 263.7 C 950.961 262.48 951.651 260.673 953.184 260.407 C 966.823 258.152 972.907 241.977 964.135 231.293 C 955.49 220.764 938.73 223.316 933.612 235.942 C 933.017 237.382 931.096 237.658 930.12 236.444 L 910.839 212.336 C 908.723 209.697 909.151 205.842 911.791 203.727 L 935.384 184.75 C 936.577 183.798 936.348 181.923 934.961 181.285 C 922.536 175.223 921.332 157.985 932.794 150.256 C 943.205 143.235 957.422 148.793 960.312 161.012 C 960.637 162.495 962.404 163.122 963.591 162.176 L 988.109 142.564 C 990.749 140.449 994.604 140.876 996.718 143.517 L 1015.669 167.162 C 1016.617 168.343 1018.475 168.122 1019.12 166.752 C 1024.904 154.913 1041.039 153.116 1049.285 163.393 Z" style="fill: rgb(154, 179, 218); stroke-width: 5px;"/>
  <path class="cls-4" d="M 1051.625 1051.782 C 1036.474 1082.905 1060.414 1118.831 1094.97 1116.829 C 1098.907 1116.599 1101.634 1120.696 1099.9 1124.239 L 1064.55 1196.667 C 1060.812 1204.345 1051.557 1207.538 1043.88 1203.799 L 974.405 1169.953 C 970.898 1168.265 970.456 1163.448 973.597 1161.149 C 1001.831 1140.543 997.171 1097.1 965.207 1082.951 C 934.585 1069.396 900.325 1092.524 901.447 1125.995 C 901.589 1129.883 897.534 1132.52 894.036 1130.814 L 824.561 1096.968 C 816.871 1093.24 813.675 1083.973 817.43 1076.298 L 852.78 1003.869 C 854.501 1000.333 859.387 999.95 861.639 1003.172 C 881.492 1031.837 924.93 1028.263 939.828 996.737 C 954.523 965.644 930.57 930.162 896.237 932.165 C 892.312 932.373 889.608 928.287 891.335 924.754 L 925.403 854.778 C 929.142 847.101 938.396 843.907 946.074 847.647 L 1014.657 881.074 C 1018.105 882.742 1022.108 880.224 1022.096 876.396 C 1022.49 841.421 1060.596 819.99 1090.687 837.817 C 1118.003 854.003 1120.719 892.5 1095.945 912.358 C 1092.915 914.707 1093.395 919.417 1096.836 921.106 L 1165.42 954.534 C 1173.098 958.273 1176.291 967.527 1172.552 975.204 L 1138.427 1045.181 C 1136.706 1048.716 1131.82 1049.101 1129.568 1045.878 C 1109.866 1017.416 1066.814 1020.679 1051.625 1051.782 Z" style="fill: #654f89; stroke-width: 6px;"/>
  <polygon class="cls-3" points="508.478 1106.948 477.639 1185.144 506.455 1202.706 553.045 1123.994 508.478 1106.948" style="fill: rgb(239, 202, 162);"/>
  <path class="cls-2" d="M 506.455 1205.364 C 505.988 1205.354 505.532 1205.222 505.133 1204.98 L 476.317 1187.418 C 475.201 1186.75 474.735 1185.372 475.219 1184.165 L 506.058 1105.969 C 506.587 1104.599 508.131 1103.922 509.497 1104.462 L 554.063 1121.495 C 555.61 1122.081 556.245 1123.929 555.385 1125.343 L 508.783 1204.055 C 508.3 1204.88 507.41 1205.38 506.455 1205.364 Z M 480.945 1184.033 L 505.543 1199.016 L 549.183 1125.343 L 510.026 1110.373 L 480.945 1184.033 Z" style=""/>
  <path class="cls-1" d="M 411.557 1175.543 L 503.162 1397.342 C 510.052 1394.663 516.734 1391.481 523.158 1387.82 C 538.167 1378.682 539.185 1369.24 538.776 1344.299 C 538.22 1311.119 546.551 1182.79 546.551 1182.79 L 475.854 1149.544 L 432.055 1167.264 L 411.557 1175.543 Z" style="fill: rgb(64, 75, 126);"/>
  <path class="cls-3" d="M 411.557 1175.543 L 503.162 1397.342 C 510.052 1394.663 516.734 1391.481 523.158 1387.82 L 432.055 1167.264 L 411.557 1175.543 Z" style=""/>
  <path class="cls-2" d="M 503.162 1400 C 502.082 1400.003 501.107 1399.349 500.703 1398.347 L 409.084 1176.561 C 408.505 1175.191 409.167 1173.615 410.552 1173.07 L 431.05 1164.778 C 432.408 1164.216 433.964 1164.869 434.515 1166.233 L 525.617 1386.789 C 526.125 1388.003 525.664 1389.407 524.533 1390.082 C 518.003 1393.824 511.199 1397.07 504.181 1399.788 C 503.858 1399.926 503.511 1399.997 503.162 1400 Z M 415.048 1177.011 L 504.617 1393.89 C 509.812 1391.785 514.883 1389.393 519.812 1386.723 L 430.613 1170.756 L 415.048 1177.011 Z" style=""/>
  <path class="cls-1" d="M 324.17 574.773 C 319.872 642.481 322.438 713.629 335.305 734.788 C 348.173 755.947 558.096 927.48 558.096 927.48 L 506.654 1101.076 L 575.328 1137.906 C 575.328 1137.906 632.444 1027.271 660.466 971.173 C 674.021 944.01 684.363 922.389 685.196 917.985 C 686.267 912.312 676.269 893.03 660.281 866.793 C 607.595 780.213 489.859 617.778 489.859 617.778 C 484.86 440.916 328.482 507.064 324.17 574.773 Z" style="fill: #4b317a;"/>
  <path class="cls-2" d="M 367.798 657.319 C 365.764 657.41 364.392 655.267 365.33 653.459 C 365.625 652.89 366.117 652.449 366.713 652.215 L 379.409 646.568 C 388.707 642.433 394.999 633.543 395.807 623.399 L 399.457 577.484 C 399.619 575.447 401.926 574.352 403.607 575.511 C 404.388 576.049 404.822 576.961 404.746 577.907 L 401.097 623.822 C 400.146 635.909 392.654 646.506 381.577 651.434 L 368.882 657.081 C 368.541 657.236 368.172 657.318 367.798 657.319 Z" style=""/>
  <path class="cls-2" d="M 533.433 1097.36 C 531.58 1097.381 530.28 1095.542 530.92 1093.803 L 594.106 916.596 L 379.607 688.172 C 369.695 677.719 364.573 663.617 365.47 649.239 L 370.085 576.664 C 370.218 574.627 372.504 573.499 374.201 574.631 C 374.989 575.156 375.436 576.062 375.375 577.008 L 370.76 649.583 C 369.96 662.482 374.558 675.134 383.455 684.509 L 599.118 914.07 C 599.809 914.798 600.028 915.852 599.687 916.795 L 535.946 1095.575 C 535.577 1096.647 534.566 1097.366 533.433 1097.36 Z" style="fill: #654f89;"/>
  <path class="cls-2" d="M 562.897 929.107 C 560.864 929.227 559.464 927.102 560.376 925.281 C 560.724 924.586 561.361 924.08 562.117 923.896 L 616.548 907.154 C 618.508 906.548 620.388 908.291 619.932 910.291 C 619.722 911.219 619.03 911.964 618.122 912.245 L 563.69 928.988 C 563.432 929.067 563.165 929.108 562.897 929.107 Z" style="fill: #654f89;"/>
  <path class="cls-3" d="M 627.167 915.644 C 625.514 941.617 639.823 964.336 660.466 971.187 C 674.021 944.024 684.363 922.402 685.196 917.998 C 686.267 912.325 676.269 893.044 660.281 866.807 C 642.283 873.604 628.635 892.568 627.167 915.644 Z" style="fill: rgb(154, 179, 218);"/>
  <path class="cls-4" d="M 609.275 1097.493 L 517.378 1052.94 C 514.538 1051.538 511.11 1052.93 510.052 1055.915 L 489.766 1111.709 C 488.828 1114.299 490.036 1117.177 492.543 1118.321 L 575.857 1156.672 C 578.345 1157.834 581.31 1156.898 582.68 1154.516 L 611.536 1104.951 C 613.112 1102.282 612.068 1098.836 609.275 1097.493 Z" style="fill: #654f89;"/>
  <polygon class="cls-3" points="142.917 1111.431 79.149 1166.193 96.433 1195.168 174.378 1147.309 142.917 1111.431" style="fill: rgb(239, 202, 162);"/>
  <path class="cls-2" d="M 96.433 1197.866 C 95.489 1197.864 94.618 1197.36 94.146 1196.543 L 76.861 1167.568 C 76.19 1166.456 76.425 1165.023 77.417 1164.183 L 141.185 1109.434 C 142.289 1108.469 143.968 1108.588 144.927 1109.699 L 176.388 1145.576 C 177.443 1146.806 177.155 1148.687 175.78 1149.544 L 97.822 1197.403 C 97.412 1197.684 96.931 1197.844 96.433 1197.866 Z M 82.588 1166.788 L 97.346 1191.518 L 170.305 1146.727 L 142.666 1115.213 L 82.588 1166.788 Z" style=""/>
  <path class="cls-1" d="M 25.181 1126.851 L 2.699 1365.762 C 10.041 1366.605 17.436 1366.905 24.823 1366.661 C 42.359 1365.59 47.675 1357.709 58.942 1335.465 C 73.939 1305.856 141.211 1196.252 141.211 1196.252 L 94.212 1133.86 L 47.186 1129.099 L 25.181 1126.851 Z" style="fill: rgb(64, 75, 126);"/>
  <path class="cls-3" d="M 25.181 1126.851 L 2.699 1365.762 C 10.041 1366.605 17.436 1366.905 24.823 1366.661 L 47.186 1129.099 L 25.181 1126.851 Z" style=""/>
  <path class="cls-2" d="M 20.221 1369.465 C 15.58 1369.465 9.959 1369.134 2.421 1368.42 C 0.946 1368.295 -0.139 1366.983 0.015 1365.511 L 22.496 1126.599 C 22.62 1125.118 23.941 1124.031 25.419 1124.193 L 47.424 1126.427 C 48.888 1126.566 49.958 1127.874 49.804 1129.337 L 27.415 1366.913 C 27.298 1368.226 26.232 1369.252 24.916 1369.32 C 23.488 1369.412 21.874 1369.465 20.221 1369.465 Z M 5.582 1363.355 C 11.157 1363.917 16.759 1364.169 22.364 1364.109 L 44.277 1131.479 L 27.587 1129.786 L 5.582 1363.355 Z" style=""/>
  <path class="cls-1" d="M 228.333 554.751 C 192.932 612.621 161.973 676.772 163.534 701.449 C 165.094 726.126 270.651 975.881 270.651 975.881 L 144.121 1105.401 L 187.668 1170.028 C 187.668 1170.028 289.8 1098.868 340.793 1062.289 C 365.457 1044.595 384.698 1030.299 387.489 1026.782 C 391.086 1022.259 391.244 1000.545 389.353 969.917 C 383.164 868.751 354.864 670.147 354.864 670.147 C 432.914 511.375 263.735 496.881 228.333 554.751 Z" style="fill: #4b317a;"/>
  <path class="cls-2" d="M 366.25 757.666 C 364.904 757.675 363.767 756.674 363.605 755.338 C 357.324 706.897 352.193 670.848 352.14 670.491 C 352.065 669.962 352.153 669.422 352.391 668.943 C 358.734 656.318 363.862 643.118 367.705 629.522 C 368.245 627.542 370.725 626.889 372.17 628.346 C 372.84 629.022 373.099 630.004 372.849 630.923 C 368.997 644.597 363.87 657.88 357.535 670.596 C 358.329 676.217 363.129 710.27 368.895 754.704 C 369.098 756.167 368.061 757.514 366.594 757.692 L 366.25 757.666 Z" style=""/>
  <path class="cls-2" d="M 245.538 649.424 C 244.798 649.424 244.052 649.398 243.303 649.345 L 229.497 648.419 C 227.461 648.282 226.336 645.991 227.474 644.297 C 228.001 643.51 228.909 643.066 229.854 643.129 L 243.727 644.068 C 253.879 644.748 263.59 639.822 269.038 631.228 L 293.701 592.321 C 294.8 590.586 297.367 590.691 298.321 592.511 C 298.762 593.356 298.721 594.373 298.211 595.178 L 273.547 634.084 C 267.463 643.666 256.889 649.459 245.538 649.424 Z" style=""/>
  <path class="cls-2" d="M 170.728 1114.896 C 168.691 1114.934 167.378 1112.755 168.363 1110.972 C 168.51 1110.706 168.702 1110.468 168.929 1110.267 L 307.521 982.996 L 224.406 680.925 C 220.53 667.064 222.585 652.216 230.079 639.929 L 268.033 577.894 C 269.101 576.143 271.666 576.205 272.647 578.006 C 273.103 578.843 273.078 579.859 272.582 580.671 L 234.628 642.706 C 227.894 653.72 226.036 667.034 229.497 679.47 L 313.049 983.141 C 313.308 984.097 313.012 985.118 312.282 985.786 L 172.474 1114.142 C 172.005 1114.601 171.383 1114.869 170.728 1114.896 Z" style="fill: #654f89;"/>
  <path class="cls-2" d="M 331.325 990.454 C 331.157 990.47 330.989 990.47 330.822 990.454 L 274.87 979.875 C 272.833 979.493 271.974 977.05 273.323 975.478 C 273.948 974.748 274.916 974.408 275.862 974.585 L 331.814 985.165 C 333.849 985.352 334.918 987.675 333.737 989.344 C 333.189 990.119 332.269 990.542 331.325 990.454 Z" style="fill: #654f89;"/>
  <path class="cls-3" d="M 337.183 997.648 C 323.602 1019.839 325.638 1046.579 340.714 1062.289 C 365.378 1044.595 384.619 1030.299 387.409 1026.782 C 391.006 1022.259 391.165 1000.545 389.274 969.917 C 370.165 967.523 349.257 977.918 337.183 997.648 Z" style="fill: rgb(154, 179, 218);"/>
  <path class="cls-4" d="M 236.48 1150.112 L 176.004 1067.817 C 174.148 1065.259 170.478 1064.889 168.149 1067.024 L 124.165 1106.908 C 122.098 1108.761 121.815 1111.897 123.517 1114.089 L 179.324 1186.823 C 180.969 1189.025 184.026 1189.599 186.359 1188.146 L 235.012 1157.73 C 237.623 1156.102 238.299 1152.595 236.48 1150.112 Z" style="fill: #654f89;"/>
  <path class="cls-4" d="M 635.485 258.935 C 654.117 272.895 668.843 291.418 678.24 312.718 C 693.223 347.538 731.137 491.248 731.137 491.248 L 614.961 514.165 C 614.961 514.165 586.555 392.118 574.653 329.024 C 562.751 265.931 600.639 239.098 635.485 258.935 Z" style="fill: rgb(154, 179, 218);"/>
  <path class="cls-2" d="M 623.121 489.714 C 620.605 489.683 619.067 486.942 620.351 484.779 C 620.81 484.006 621.568 483.457 622.446 483.26 L 715.017 463.423 C 717.503 463.051 719.461 465.51 718.54 467.85 C 718.16 468.816 717.343 469.544 716.339 469.811 L 623.769 489.647 C 623.554 489.691 623.337 489.714 623.121 489.714 Z" style=""/>
  <path class="cls-4" d="M 538.26 212.041 C 458.583 203.763 383.535 233.862 383.535 233.862 C 383.535 233.862 306.198 428.921 285.039 464.627 C 263.88 500.333 183.212 595.548 183.212 595.548 C 183.212 595.548 254.623 703.988 400.753 714.568 C 546.882 725.147 579.282 684.151 579.282 684.151 L 605.069 482.427 C 605.069 482.427 634.824 449.366 642.759 431.513 C 650.693 413.66 656.644 306.543 635.485 258.935 C 635.485 258.935 578.621 216.233 538.26 212.041 Z" style="fill: rgb(154, 179, 218);"/>
  <path class="cls-2" d="M 613.692 475.815 C 611.176 475.815 609.605 473.092 610.863 470.915 C 610.958 470.75 611.069 470.592 611.192 470.446 C 619.656 460.395 634.639 441.815 639.757 430.296 C 646.131 415.961 652.122 333.534 639.016 280.173 C 638.543 277.704 640.922 275.648 643.297 276.474 C 644.284 276.817 645.048 277.612 645.351 278.613 C 658.033 330.188 653.285 415.948 645.721 432.941 C 640.55 444.579 626.81 462.035 616.191 474.651 C 615.571 475.39 614.656 475.816 613.692 475.815 Z" style="fill: rgb(64, 75, 126);"/>
  <path class="cls-1" d="M 535.483 205.971 C 497.396 210.534 480.972 264.344 527.548 288.769 C 527.548 288.769 538.895 265.098 545.956 266.076 C 553.018 267.055 553.653 290.911 553.653 290.911 C 553.653 290.911 581.98 281.549 586.277 250.247 C 590.575 218.944 563.386 202.626 535.483 205.971 Z" style="fill: rgb(64, 75, 126);"/>
  <path class="cls-3" d="M 570.686 244.388 C 570.686 244.388 565.489 253.645 551.352 253.09 C 538.735 247.575 528.901 237.169 524.11 224.261 L 554.142 164.063 L 564.629 171.482 L 590.165 189.507 L 574.018 235.131 L 570.686 244.388 Z" style="fill: rgb(239, 202, 162);"/>
  <path class="cls-2" d="M 552.74 256.409 L 551.259 256.409 C 550.916 256.392 550.576 256.321 550.254 256.198 C 536.746 250.359 526.227 239.228 521.161 225.411 C 520.856 224.571 520.909 223.646 521.306 222.846 L 551.339 162.648 C 552.234 160.864 554.507 160.294 556.139 161.445 L 592.109 186.862 C 593.301 187.707 593.788 189.241 593.3 190.618 L 573.807 245.512 C 573.746 245.685 573.671 245.853 573.582 246.015 C 573.331 246.438 567.605 256.409 552.74 256.409 Z M 552.092 249.876 C 562.553 250.167 566.983 244.19 567.777 243 L 586.291 190.763 L 555.412 169.009 L 527.72 224.552 C 532.33 235.784 541.045 244.839 552.092 249.876 Z M 570.686 244.388 Z" style=""/>
  <path class="cls-2" d="M 574.018 235.131 C 541.817 217.278 557.528 173.162 557.528 173.162 C 559.874 172.445 562.263 171.879 564.682 171.469 L 590.218 189.494 L 574.018 235.131 Z" style=""/>
  <path class="cls-2" d="M 445.663 691.306 C 436.406 691.306 426.712 690.988 416.384 690.274 C 349.35 685.672 297.708 657.557 266.195 634.732 C 232.036 610.055 213.985 586.794 213.231 585.802 C 211.841 583.706 213.24 580.892 215.75 580.737 C 216.757 580.673 217.734 581.079 218.402 581.835 C 218.587 582.073 236.757 605.453 270.202 629.574 C 301.001 651.791 351.426 679.206 416.834 683.702 C 522.761 690.975 566.851 656.129 567.287 655.772 C 569.242 654.19 572.176 655.318 572.568 657.803 C 572.748 658.947 572.309 660.102 571.413 660.837 C 569.734 662.278 532.983 691.306 445.663 691.306 Z" style="fill: rgb(64, 75, 126);"/>
  <path class="cls-3" d="M 859.176 592.189 C 859.19 632.935 816.785 659.827 779.935 642.442 C 775.726 640.387 770.816 643.432 770.784 648.115 L 770.784 745.156 C 770.784 755.611 762.315 764.092 751.86 764.106 L 653.51 764.106 C 648.759 764.103 645.709 759.057 647.916 754.849 C 667.978 717.091 639.64 671.775 596.911 673.281 C 555.901 674.726 530.565 718.612 549.818 754.849 C 552.024 759.057 548.974 764.103 544.224 764.106 L 449.432 764.106 C 438.996 764.092 430.537 755.644 430.508 745.208 L 430.508 646.224 C 430.49 641.389 435.688 638.326 439.91 640.683 C 477.204 661.592 523.15 634.288 522.61 591.535 C 522.078 549.402 476.663 523.182 439.91 543.788 C 435.688 546.145 430.49 543.082 430.508 538.247 L 430.508 442.754 C 430.508 432.288 438.992 423.803 449.458 423.803 L 543.021 423.803 C 547.713 423.787 550.766 418.861 548.694 414.652 C 530.386 376.013 560.77 332.046 603.387 335.509 C 642.1 338.657 665.711 379.552 649.08 414.652 C 647.033 418.86 650.086 423.761 654.767 423.777 L 751.86 423.777 C 762.326 423.791 770.798 432.288 770.784 442.754 L 770.784 536.263 C 770.816 540.947 775.726 543.992 779.935 541.937 C 816.785 524.552 859.19 551.444 859.176 592.189 Z" style=""/>
  <path class="cls-2" d="M 751.86 767.425 L 653.51 767.425 C 646.272 767.428 641.641 759.716 645.047 753.328 C 663.926 717.789 637.252 675.14 597.036 676.561 C 558.441 677.923 534.597 719.223 552.714 753.328 C 556.121 759.721 551.48 767.437 544.237 767.425 L 449.432 767.425 C 437.167 767.411 427.229 757.473 427.215 745.208 L 427.215 646.224 C 427.207 638.903 435.075 634.276 441.471 637.84 C 476.592 657.485 519.808 631.742 519.26 591.504 C 518.721 551.896 476.042 527.255 441.471 546.592 C 435.075 550.156 427.207 545.528 427.215 538.207 L 427.215 442.754 C 427.229 430.489 437.167 420.551 449.432 420.537 L 542.994 420.537 C 544.035 420.551 545.008 420.02 545.56 419.135 C 546.156 418.205 546.221 417.031 545.732 416.041 C 526.342 375.132 558.509 328.575 603.632 332.238 C 644.629 335.566 669.632 378.872 652.016 416.041 C 651.533 417.018 651.598 418.178 652.188 419.095 C 652.738 419.98 653.711 420.512 654.753 420.497 L 751.86 420.497 C 764.124 420.512 774.062 430.45 774.077 442.714 L 774.077 536.224 C 774.068 537.26 774.598 538.227 775.479 538.776 C 776.408 539.372 777.583 539.437 778.573 538.948 C 786.426 535.229 795.011 533.313 803.699 533.341 C 848.965 534.019 876.521 583.445 853.3 622.308 C 842.846 639.804 824.078 650.64 803.699 650.945 C 795.011 650.973 786.426 649.057 778.573 645.338 C 777.583 644.849 776.408 644.913 775.479 645.51 C 774.598 646.059 774.068 647.025 774.077 648.062 L 774.077 745.103 C 774.12 757.408 764.165 767.411 751.86 767.425 Z M 598.854 669.975 C 599.621 669.975 600.392 669.975 601.168 669.975 C 644.487 671.674 671.148 718.056 650.812 756.343 C 649.737 758.363 651.169 760.805 653.457 760.853 L 751.86 760.853 C 760.515 760.838 767.529 753.825 767.544 745.169 L 767.544 648.168 C 767.532 644.895 769.205 641.847 771.974 640.101 C 774.794 638.311 778.338 638.1 781.35 639.546 C 788.322 642.848 795.945 644.551 803.66 644.531 C 843.907 644.531 869.061 600.962 848.937 566.108 C 839.598 549.931 822.338 539.966 803.66 539.966 C 795.945 539.946 788.322 541.65 781.35 544.952 C 778.338 546.395 774.795 546.184 771.974 544.396 C 769.205 542.651 767.532 539.602 767.544 536.329 L 767.544 442.754 C 767.5 434.118 760.495 427.137 751.86 427.123 L 654.74 427.123 C 651.46 427.134 648.407 425.455 646.66 422.679 C 644.876 419.866 644.671 416.33 646.118 413.33 C 663.344 376.961 634.741 335.582 594.631 338.849 C 558.199 341.815 535.983 380.296 551.63 413.33 C 553.078 416.339 552.873 419.884 551.087 422.706 C 549.342 425.483 546.287 427.164 543.007 427.149 L 449.432 427.149 C 440.807 427.164 433.806 434.129 433.748 442.754 L 433.748 538.207 C 433.746 539.301 434.332 540.31 435.282 540.852 C 436.209 541.394 437.356 541.394 438.284 540.852 C 477.766 518.705 526.42 547.605 525.858 592.873 C 525.304 637.493 477.203 665.264 438.284 643.434 C 437.356 642.889 436.207 642.889 435.282 643.434 C 434.332 643.976 433.746 644.985 433.748 646.079 L 433.748 745.063 C 433.762 753.72 440.775 760.733 449.432 760.747 L 544.237 760.747 C 545.323 760.759 546.332 760.189 546.882 759.253 C 547.44 758.343 547.471 757.203 546.961 756.264 C 542.445 747.755 540.083 738.271 540.085 728.638 C 540.164 696.232 566.446 669.996 598.854 669.975 Z" style=""/>
  <path class="cls-3" d="M 805.643 523.264 C 788.2 521.703 778.745 562.619 790.316 566.653 C 801.888 570.686 823.999 524.904 805.643 523.264 Z" style="fill: rgb(239, 202, 162);"/>
  <path class="cls-2" d="M 791.837 570.171 C 790.937 570.179 790.041 570.03 789.192 569.734 C 782.739 567.486 780.305 558.031 782.977 545.653 C 785.794 532.574 794.178 518.953 805.881 520.011 C 810.015 520.218 813.607 522.92 814.953 526.834 C 818.59 536.753 810.655 555.796 801.663 564.934 C 797.722 568.98 794.376 570.171 791.837 570.171 Z M 804.704 526.53 C 797.643 526.53 791.586 536.938 789.404 547.068 C 787.433 556.179 788.901 562.752 791.401 563.611 C 792.26 563.915 794.257 563.254 797.061 560.398 C 804.995 552.331 811.29 535.668 808.883 529.122 C 808.403 527.58 806.967 526.537 805.352 526.557 L 804.704 526.53 Z" style="fill: rgb(38, 37, 37);"/>
  <path class="cls-3" d="M 821.949 530.035 C 806.146 529.691 788.558 576.651 821.949 582.932 C 855.341 589.214 860.961 560.781 854.679 547.888 C 848.398 534.994 837.131 530.418 821.949 530.035 Z" style="fill: rgb(239, 202, 162);"/>
  <path class="cls-2" d="M 831.008 587.151 C 827.757 587.13 824.517 586.807 821.328 586.185 C 806.238 583.342 798.211 572.194 799.864 556.338 C 801.319 542.32 810.973 526.821 821.751 526.821 L 821.949 526.821 C 839.881 527.205 851.188 533.433 857.536 546.512 C 861.914 556.428 860.685 567.925 854.309 576.69 C 850.487 581.768 843.452 587.151 831.008 587.151 Z M 821.751 533.341 C 815.906 533.341 807.693 544.185 806.358 557.012 C 805.604 564.233 806.701 576.849 822.531 579.771 C 834.697 582.059 843.915 579.626 849.178 572.723 C 854.001 565.899 854.961 557.069 851.717 549.369 C 846.427 538.63 837.276 533.685 821.843 533.354 L 821.737 533.354 L 821.751 533.341 Z" style=""/>
  <path class="cls-3" d="M 261.236 370.734 C 261.236 370.734 213.628 437.081 211.869 462.207 C 210.11 487.333 317.228 589.597 383.349 630.156 C 383.349 630.156 389.525 666.629 394.815 675.225 C 400.105 683.821 438.125 699.029 438.125 699.029 C 438.125 699.029 445.729 718.535 454.655 720.188 C 463.582 721.841 473.5 705.641 473.5 700.682 C 473.5 695.723 462.59 672.911 462.59 672.911 C 462.59 672.911 472.508 692.747 478.129 691.425 C 483.749 690.102 477.798 659.356 473.5 654.066 C 469.202 648.776 413.316 614.062 413.316 614.062 L 312.811 471.57 L 339.921 431.566 L 261.236 370.734 Z" style="fill: rgb(239, 202, 162);"/>
  <path class="cls-2" d="M 455.898 723.56 C 455.268 723.561 454.639 723.503 454.021 723.388 C 444.763 721.682 437.662 706.448 435.586 701.528 C 426.871 697.984 397.235 685.487 391.945 676.918 C 386.92 668.745 381.617 639.704 380.295 632.14 C 348.94 612.687 306.754 578.568 269.792 542.717 C 250.947 524.441 207.267 479.994 208.523 461.956 C 210.335 436.208 256.528 371.554 258.498 368.816 C 259.577 367.322 261.679 367.016 263.14 368.142 L 341.825 428.974 C 343.187 430.031 343.494 431.964 342.526 433.391 L 316.778 471.53 L 415.604 611.642 C 426.183 618.254 471.688 646.674 476.026 652.003 C 480.628 657.663 485.627 682.419 482.863 690.526 C 482.375 692.501 480.858 694.059 478.896 694.599 C 477.674 694.858 476.403 694.728 475.259 694.228 C 476.062 696.281 476.577 698.435 476.793 700.629 C 476.793 705.509 471.331 714.673 465.565 719.474 C 462.926 721.934 459.502 723.38 455.898 723.56 Z M 261.91 375.402 C 252.997 388.137 216.577 441.339 215.096 462.432 C 214.368 472.733 237.643 502.409 274.394 538.049 C 311.528 574.072 353.925 608.296 385.029 627.366 C 385.829 627.859 386.379 628.674 386.537 629.601 C 388.229 639.572 393.493 666.907 397.566 673.506 C 401.004 679.1 424.993 690.261 439.302 695.987 C 440.138 696.322 440.797 696.987 441.127 697.825 C 444.023 705.218 450.304 716.049 455.211 716.961 C 457.34 717.345 459.707 715.837 461.32 714.488 C 466.61 710.045 470.194 702.52 470.194 700.656 C 470.194 698.011 464.693 684.945 459.614 674.286 C 458.631 671.972 460.52 669.461 463.017 669.766 C 464.051 669.893 464.964 670.505 465.473 671.416 C 469.255 678.968 474.32 686.201 476.859 687.854 C 478.274 682.327 474.32 660.268 470.934 656.116 C 468.356 652.955 438.429 633.515 411.57 616.826 C 411.22 616.608 410.914 616.325 410.671 615.993 L 310.166 473.448 C 309.392 472.33 309.392 470.849 310.166 469.731 L 335.557 432.267 L 261.91 375.402 Z" style=""/>
  <path class="cls-4" d="M 383.535 233.809 C 337.157 242.986 241.399 379.766 241.399 379.766 L 338.823 451.614 C 338.823 451.614 406.267 366.092 433.602 322.452 C 460.937 278.811 450.767 220.584 383.535 233.809 Z" style="fill: rgb(154, 179, 218);"/>
  <path class="cls-2" d="M 338.797 454.881 C 336.281 454.882 334.709 452.16 335.965 449.982 C 336.045 449.846 336.133 449.715 336.231 449.591 C 336.905 448.731 403.874 363.712 430.799 320.719 C 444.777 298.396 448.347 272.873 439.91 255.682 C 434.171 243.978 423.194 236.996 408.172 235.515 C 405.66 235.385 404.232 232.584 405.599 230.475 C 406.296 229.402 407.554 228.834 408.82 229.021 C 426.196 230.741 438.984 238.966 445.769 252.825 C 455.184 272.001 451.468 300.023 436.326 324.237 C 409.216 367.52 342.023 452.831 341.349 453.677 C 340.725 454.445 339.786 454.888 338.797 454.881 Z" style="fill: rgb(64, 75, 126);"/>
  <path class="cls-2" d="M 355.763 433.087 C 355.073 433.084 354.401 432.862 353.846 432.452 L 265.335 367.745 C 263.299 366.264 263.629 363.134 265.93 362.112 C 266.999 361.637 268.238 361.768 269.183 362.455 L 357.681 427.175 C 359.716 428.651 359.392 431.778 357.096 432.802 C 356.677 432.99 356.222 433.087 355.763 433.087 Z" style="fill: rgb(64, 75, 126);"/>
  <path class="cls-2" d="M 556.007 70.104 C 559.3 93.498 510.78 100.6 494.328 101.009 C 477.877 101.419 447.501 131.426 421.594 114.115 C 395.688 96.804 373.643 169.75 288.888 137.271 C 223.612 112.211 205.574 14.549 253.288 1.906 C 301.001 -10.736 358.131 44.105 401.652 31.991 C 429.344 24.282 458.305 -6.042 494.011 26.609 C 520.645 50.942 553.402 51.643 556.007 70.104 Z" style=""/>
  <path class="cls-3" d="M 629.389 187.523 C 629.389 187.523 647.162 172.593 658.734 182.723 C 670.305 192.853 653.021 236.176 621.811 220.637 L 629.389 187.523 Z" style="fill: rgb(239, 202, 162);"/>
  <path class="cls-2" d="M 634.956 227.302 C 629.887 227.214 624.907 225.951 620.41 223.613 C 619.058 222.942 618.343 221.433 618.677 219.963 L 626.255 186.902 C 626.412 186.209 626.793 185.586 627.339 185.13 C 628.159 184.442 647.414 168.533 660.942 180.369 C 668.798 187.232 666.073 202.85 659.051 213.284 C 652.796 222.489 644.319 227.302 634.956 227.302 Z M 625.594 218.825 C 641 225.094 650.231 214.594 653.576 209.568 C 660.003 199.981 660.479 188.595 656.591 185.196 C 648.472 178.081 635.671 186.862 632.312 189.388 L 625.594 218.825 Z" style=""/>
  <path class="cls-3" d="M 560.913 76.161 L 554.301 70.355 C 552.2 68.491 549.253 67.913 546.604 68.848 C 542.861 70.08 539.447 72.146 536.62 74.891 C 533.879 78.061 532.33 82.088 532.243 86.278 C 532.141 88.317 532.86 90.312 534.24 91.819 L 540.971 99.277 C 544.239 102.853 549.951 102.587 552.873 98.722 L 561.918 86.595 C 564.342 83.384 563.906 78.851 560.913 76.161 Z" style=""/>
  <path class="cls-2" d="M 546.737 105.109 C 543.618 105.114 540.647 103.792 538.564 101.472 L 531.833 94.014 C 529.858 91.858 528.837 88.998 529.003 86.079 C 529.132 81.115 531.005 76.353 534.292 72.63 C 537.476 69.52 541.324 67.174 545.546 65.767 C 549.307 64.441 553.493 65.256 556.483 67.896 L 563.095 73.701 C 567.367 77.504 568.037 83.935 564.642 88.539 L 555.597 100.666 C 553.629 103.314 550.574 104.937 547.279 105.083 L 546.763 105.083 L 546.737 105.109 Z M 549.196 71.678 C 548.696 71.677 548.199 71.762 547.728 71.929 C 544.469 72.996 541.49 74.782 539.014 77.153 C 536.822 79.746 535.595 83.016 535.536 86.41 C 535.481 87.581 535.901 88.725 536.699 89.584 L 543.431 97.042 C 545.322 99.137 548.655 98.985 550.347 96.725 L 559.392 84.598 C 560.773 82.721 560.498 80.103 558.758 78.554 L 552.145 72.749 C 551.321 72.051 550.275 71.67 549.196 71.678 Z" style=""/>
  <path class="cls-3" d="M 635.671 197.336 C 626.228 224.512 604.831 252.878 571.704 242.365 C 547.345 234.668 528.672 197.323 537.321 159.448 C 545.97 121.573 561.601 91.528 605.81 106.63 C 610.508 108.316 615.089 110.313 619.524 112.607 C 643.896 125.832 653.153 131.002 640.405 182.696 C 639.268 187.299 637.469 192.205 635.671 197.336 Z" style="fill: rgb(239, 202, 162);"/>
  <path class="cls-2" d="M 585.444 247.853 C 580.44 247.821 575.472 247.018 570.712 245.473 C 545.851 237.604 524.705 200.047 534.121 158.721 C 538.67 138.752 546.247 114.525 564.537 104.302 C 575.751 98.047 589.98 97.783 606.855 103.535 C 611.725 105.28 616.475 107.347 621.071 109.724 C 633.621 116.535 642.679 121.441 646.911 131.994 C 651.024 142.27 650.059 157.187 643.565 183.503 C 642.547 187.642 641.04 191.927 639.439 196.45 L 638.752 198.407 C 629.931 223.785 611.761 247.853 585.444 247.853 Z M 584.492 105.876 C 578.65 105.773 572.88 107.191 567.75 109.989 C 555.372 116.892 546.71 132.841 540.481 160.162 C 532.097 196.939 550.572 232.248 572.683 239.244 C 576.851 240.603 581.205 241.312 585.59 241.347 C 614.432 241.347 628.595 207.743 632.589 196.251 L 633.277 194.281 C 634.824 189.904 636.279 185.778 637.244 181.943 C 649.424 132.523 641.502 128.225 617.976 115.464 C 613.698 113.259 609.281 111.338 604.752 109.711 C 598.253 107.332 591.41 106.036 584.492 105.876 Z" style="fill: rgb(38, 37, 37);"/>
  <path class="cls-2" d="M 549.038 159.408 C 559.104 158.513 567.874 152.18 571.889 142.904 C 573.291 139.849 574.825 135.618 576.875 131.981 C 590.099 157.107 622.142 179.245 636.385 188.171 C 640.914 191.131 646.831 190.853 651.064 187.484 C 676.798 165.981 669.922 108.68 634.996 99.727 C 603.496 61.231 551.894 67.83 535.813 99.171 C 517.96 133.912 536.633 160.837 549.038 159.408 Z" style=""/>
  <path class="cls-3" d="M 548.297 164.315 C 548.297 164.315 535.549 140.405 514.747 141.026 C 493.945 141.648 492.265 189.243 540.944 197.164 L 548.297 164.315 Z" style="fill: rgb(239, 202, 162);"/>
  <path class="cls-2" d="M 540.958 200.43 C 540.782 200.445 540.604 200.445 540.429 200.43 C 509.497 195.392 496.629 174.577 497.767 157.372 C 498.521 145.946 505.305 138.091 514.654 137.813 C 537.268 137.152 550.625 161.775 551.18 162.82 C 552.219 165.109 550.39 167.666 547.888 167.422 C 546.874 167.323 545.963 166.756 545.427 165.888 C 545.308 165.663 533.34 143.751 514.853 144.333 C 508.148 144.531 504.71 151.236 504.273 157.795 C 503.334 172.157 514.562 189.613 541.473 193.99 C 543.922 194.56 544.836 197.567 543.118 199.403 C 542.554 200.007 541.781 200.373 540.958 200.43 Z" style=""/>
  <path class="cls-1" d="M 1401.355 647.13 C 1371.651 657.162 1341.603 632.895 1345.162 601.746 C 1345.64 598.167 1342.192 595.327 1338.769 596.479 L 1268.014 620.454 C 1260.386 623.042 1252.108 618.955 1249.526 611.33 L 1225.318 539.651 C 1224.141 536.169 1227.088 532.69 1230.714 533.272 C 1263.196 538.531 1289.19 506.651 1277.502 475.893 C 1266.299 446.401 1228.101 438.793 1206.452 461.741 C 1203.925 464.403 1199.475 463.426 1198.295 459.951 L 1174.894 390.844 C 1172.305 383.219 1176.391 374.94 1184.018 372.355 L 1256.014 347.827 C 1259.524 346.658 1263.011 349.667 1262.36 353.312 C 1256.326 385.66 1287.569 412.412 1318.604 401.462 C 1349.182 390.675 1357.087 351.101 1332.996 329.396 C 1330.257 326.895 1331.197 322.376 1334.708 321.177 L 1404.307 297.62 C 1411.932 295.03 1420.21 299.117 1422.796 306.744 L 1446.091 374.942 C 1447.252 378.384 1451.633 379.396 1454.187 376.81 C 1477.838 353.935 1517.386 365.246 1525.371 397.169 C 1532.623 426.164 1508.638 453.458 1478.952 449.997 C 1475.372 449.521 1472.529 452.967 1473.683 456.389 L 1497.647 527.176 C 1500.234 534.799 1496.149 543.082 1488.525 545.663 L 1420.228 568.856 C 1416.814 570.021 1415.8 574.355 1418.342 576.912 C 1440.13 599.471 1431.043 637.025 1401.355 647.13 Z" style="fill: rgb(64, 75, 126); stroke-width: 5px;"/>
</svg>