<?xml version="1.0" encoding="utf-8"?>
<svg viewBox="-162.007 -114.64 800 800" xmlns="http://www.w3.org/2000/svg">
  <rect fill="#395F99" width="1600" height="800" x="-559.25" y="-114.74">
    <title>BG</title>
  </rect>
  <path d="M -73.15 591.16 C -182.45 569.36 -296.55 558.96 -408.45 571.76 C -459.65 577.46 -510.15 588.36 -559.15 605.16 L -559.15 685.36 L 284.65 685.36 C 168.75 652.16 53.85 617.26 -62.95 593.16 C -66.35 592.46 -69.75 591.86 -73.15 591.16 Z" fill-opacity="1" style="fill: rgb(66, 60, 157);">
    <title>Wave Pattern</title>
  </path>
  <path d="M 1040.85 -114.64 L -559.15 -114.64 L -559.15 605.16 C -510.15 588.36 -459.65 577.36 -408.45 571.66 C -296.55 558.96 -182.45 569.26 -73.15 591.06 C -69.75 591.76 -66.35 592.46 -62.95 593.06 C 53.85 617.06 168.75 652.06 284.65 685.26 L 1040.85 685.26 L 1040.85 -114.64 Z" fill-opacity="1" style="fill: rgb(64, 98, 165);">
    <title>Wave Pattern</title>
  </path>
  <path d="M -80.75 466.36 C -77.55 467.16 -74.35 468.06 -71.25 468.86 C 124.95 521.36 317.45 602.36 522.25 645.46 C 696.45 682.06 871.75 674.66 1040.85 635.26 L 1040.85 -114.64 L -559.15 -114.64 L -559.15 460.26 C -506.85 442.66 -452.65 432.56 -398.05 429.36 C -290.75 422.76 -183.45 439.56 -80.75 466.36 Z" fill-opacity="1" style="fill: rgb(66, 60, 157);">
    <title>Wave Pattern</title>
  </path>
  <path d="M -559.15 -114.64 L -559.15 314.76 C -503.55 296.36 -445.65 287.46 -387.75 287.06 C -284.95 286.26 -184.55 309.76 -88.45 341.56 C -85.45 342.56 -82.55 343.56 -79.55 344.56 C 104.05 406.56 286.15 490.66 482.85 536.66 C 669.55 580.36 859.15 571.06 1040.75 524.06 L 1040.75 -114.64 L -559.15 -114.64 Z" fill-opacity="1" style="fill: rgb(62, 94, 162);">
    <title>Wave Pattern</title>
  </path>
  <path d="M -377.35 144.76 C -279.15 150.76 -185.45 179.96 -96.05 216.86 C -93.25 217.96 -90.55 219.16 -87.75 220.26 C 83.25 291.86 254.95 378.76 443.55 427.96 C 642.35 479.76 846.95 468.76 1040.85 413.16 L 1040.85 -114.64 L -559.15 -114.64 L -559.15 168.56 C -500.15 148.96 -438.55 141.06 -377.35 144.76 Z" fill-opacity="1" style="fill: rgb(66, 60, 157);">
    <title>Wave Pattern</title>
  </path>
  <path d="M 1040.85 -114.64 L -559.15 -114.64 L -559.15 21.66 C -496.85 0.76 -431.45 -5.84 -366.95 2.46 C -273.35 14.56 -186.45 50.16 -103.65 92.06 C -101.05 93.36 -98.55 94.66 -95.95 95.96 C 62.45 177.06 223.75 266.86 404.35 319.16 C 614.85 380.16 835.15 368.16 1040.95 302.56 L 1040.95 -114.64 L 1040.85 -114.64 Z" fill-opacity="1" style="fill: rgb(64, 98, 165);">
    <title>Wave Pattern</title>
  </path>
  <path d="M -104.25 -28.34 C 41.55 62.36 192.45 154.66 364.95 210.36 C 573.55 277.76 796.25 271.16 1002.85 205.06 C 1015.65 200.96 1028.25 196.66 1040.95 192.16 L 1040.95 -114.64 L -271.05 -114.64 C -215.05 -93.34 -162.35 -64.04 -111.35 -32.64 C -108.95 -31.24 -106.65 -29.74 -104.25 -28.34 Z" fill-opacity="1" style="fill: rgb(66, 60, 157);">
    <title>Wave Pattern</title>
  </path>
  <path fill="#4062a5" d="M 1040.85 -114.64 L -61.15 -114.64 C 56.95 -28.84 182.35 49.86 325.65 101.56 C 517.45 170.76 725.65 176.26 920.65 122.66 C 961.45 111.46 1001.75 97.46 1040.95 80.96 L 1040.95 -114.64 L 1040.85 -114.64 Z" fill-opacity="1">
    <title>Wave Pattern</title>
  </path>
  <path d="M 838.35 40.16 C 885.55 29.56 931.95 14.86 976.95 -3.64 C 998.65 -12.54 1019.95 -22.44 1040.85 -33.14 L 1040.85 -114.64 L 84.25 -114.64 C 147.15 -72.94 213.95 -36.44 286.35 -7.24 C 461.25 63.46 655.05 81.46 838.35 40.16 Z" fill-opacity="1" style="fill: rgb(66, 60, 157);">
    <title>Wave Pattern</title>
  </path>
  <path d="M 756.15 -42.24 C 831.45 -54.84 905.05 -79.34 972.95 -114.64 L 249.95 -114.64 C 407.65 -43.64 585.55 -13.64 756.15 -42.24 Z" fill-opacity="1" style="fill: rgb(64, 98, 165);">
    <title>Wave Pattern</title>
  </path>
</svg>