<?xml version="1.0" encoding="utf-8"?>
<svg viewBox="442.41 109.197 16.042 16.045" xmlns="http://www.w3.org/2000/svg">
  <path d="M 451.745 125.241 L 452.881 124.238 C 453.434 123.749 453.637 122.768 453.67 121.61 C 451.97 121.497 450.269 121.017 449.699 120.501 C 449.183 119.925 448.948 119.141 449.043 118.512 C 449.138 117.891 449.521 117.216 449.973 116.763 C 450.426 116.31 451.102 115.927 451.723 115.832 C 452.352 115.737 453.166 115.942 453.712 116.488 C 454.259 117.035 454.717 118.754 454.825 120.456 C 455.982 120.423 456.961 120.221 457.449 119.67 L 458.452 118.534 L 458.452 125.241 L 451.745 125.241 Z M 457.276 121.178 C 456.607 121.491 456.349 121.631 454.857 121.621 L 454.858 121.643 L 454.842 121.643 C 454.808 122.736 454.691 123.197 454.327 124.066 L 457.276 124.066 L 457.276 121.178 Z M 452.881 117.319 C 452.55 116.988 452.307 116.933 451.901 116.995 C 451.487 117.058 451.147 117.251 450.804 117.594 C 450.462 117.937 450.268 118.276 450.205 118.69 C 450.143 119.096 450.168 119.368 450.53 119.67 C 450.888 120.088 452.152 120.362 453.654 120.44 C 453.57 118.948 453.274 117.712 452.881 117.319 Z" style="fill: rgb(33, 29, 63);"/>
</svg>