<?xml version="1.0" encoding="utf-8"?>
<svg width="0px" viewBox="0 0 505 463" preserveAspectRatio="none" xmlns="http://www.w3.org/2000/svg" xmlns:bx="https://boxy-svg.com">
  <desc>The name "Zoid Archive" in a stylized triangle.</desc>
  <title>Zoid Archive</title>
  <defs>
    <style bx:fonts="Comfortaa">@import url(https://fonts.googleapis.com/css2?family=Comfortaa%3Aital%2Cwght%400%2C300%3B0%2C400%3B0%2C500%3B0%2C600%3B0%2C700&amp;display=swap);</style>
    <style bx:fonts="Rampart One">@import url(https://fonts.googleapis.com/css2?family=Rampart+One%3Aital%2Cwght%400%2C400&amp;display=swap);</style>
    <path id="path-0" d="M 1746.405 3198.015 C 1808.859 3170.118 2010.326 3150.165 2162.995 3149.3 C 2313.137 3148.449 2468.043 3170.118 2541.807 3198.015" style="fill: none;"/>
  </defs>
  <rect x="-547.261" y="-172.734" width="1708.048" height="994.068" style="pointer-events: none; visibility: hidden;"/>
  <path d="M 498.221 452.839 L 10 452.839 L 83.043 320.333 L 87.372 322.009 L 17.981 447.891 L 490.24 447.891 L 402.182 288.145 C 404.044 288.337 405.843 288.415 407.575 288.398 L 498.221 452.839 Z M 254.111 10 L 336.999 160.367 L 330.528 158.159 L 254.111 19.529 L 165.866 179.614 L 161.388 178.208 L 254.111 10 Z M 477.603 440.494 L 30.619 440.494 L 96.396 321.453 L 98.241 321.118 L 33.142 438.932 L 475.079 438.932 L 390.316 285.532 C 390.965 285.748 391.634 285.959 392.324 286.161 L 477.603 440.494 Z M 254.111 36.029 L 320.745 156.62 L 319.249 156.918 L 254.111 39.034 L 167.395 195.967 L 167.261 193.205 L 254.111 36.029 Z" style="fill: rgb(255, 255, 255); pointer-events: none;">
    <title>Triangle</title>
  </path>
  <text style="fill: rgb(255, 255, 255); font-family: Comfortaa; font-size: 60px; white-space: pre;" x="138.412" y="379.483"><title>Archive</title>archive</text>
  <path d="M -158.351321453125 2015.7107839453124 L -158.351321453125 1921.9787579453125 L -13.035227453125003 1665.3165659453125 L -81.604293453125 1670.9782319453125 L -144.511693453125 1639.5245319453124 L -144.511693453125 1536.3563959453124 L 144.233272546875 1510.5643619453126 L 205.882524546875 1542.0180619453124 L 205.882524546875 1628.8302739453125 L 58.679208546875 1891.1541319453124 L 148.63679054687503 1883.6052439453124 L 211.54419054687503 1915.0589439453124 L 211.54419054687503 2020.7433759453124 L -95.443921453125 2047.1644839453124 Z M -37.569113453125 1906.2519079453125 L 137.31345854687498 1596.1184259453125 L 137.31345854687498 1517.4841759453125 L -138.220953453125 1542.0180619453124 L -138.220953453125 1632.6047179453126 L 20.305694546875003 1618.7650899453124 L -152.060581453125 1923.8659799453126 L -152.060581453125 2009.4200439453125 L 142.346050546875 1983.6280099453124 L 142.346050546875 1890.5250579453125 Z" transform="matrix(0.27175799012184143, -0.028564998880028725, 0.018612002953886986, 0.2433120161294937, 76.17851257324219, -184.8006591796875)" style="fill: rgb(255, 255, 255); line-height: 967.791px; white-space: pre;">
    <title>Z</title>
  </path>
  <path d="M 704.614 2006.534 L 704.614 1660.543 L 747.391 1657.398 L 703.356 1635.38 L 703.356 1528.437 L 808.411 1519.63 L 871.319 1551.084 L 871.319 1658.027 L 826.655 1661.801 L 869.432 1683.19 L 869.432 2028.551 L 767.522 2037.358 L 704.614 2006.534 Z M 709.647 1534.099 L 709.647 1628.46 L 802.121 1620.911 L 802.121 1526.55 L 709.647 1534.099 Z M 710.905 1666.205 L 710.905 1999.614 L 800.234 1992.065 L 800.234 1658.656 L 710.905 1666.205 Z M 1185.074 2021.631 C 1178.364 2027.083 1170.5 2031.906 1161.483 2036.1 C 1152.467 2040.294 1141.877 2042.81 1129.715 2043.649 C 1126.36 2044.068 1122.795 2044.278 1119.021 2044.278 C 1115.246 2044.278 1111.682 2044.278 1108.327 2044.278 C 1074.776 2044.278 1045.105 2037.253 1019.313 2023.204 C 993.521 2009.155 973.39 1987.242 958.922 1957.466 C 944.453 1927.69 937.219 1889.107 937.219 1841.716 C 937.219 1782.164 948.647 1736.242 971.503 1703.949 C 994.359 1671.657 1026.547 1653.623 1068.066 1649.849 C 1069.743 1649.849 1071.316 1649.744 1072.784 1649.534 C 1074.252 1649.324 1075.824 1649.22 1077.502 1649.22 C 1089.245 1649.22 1099.31 1650.478 1107.698 1652.994 C 1116.085 1655.51 1123.634 1657.817 1130.344 1659.914 L 1130.344 1520.259 L 1232.883 1511.452 L 1295.791 1542.906 L 1295.791 2021.631 L 1199.542 2029.18 L 1185.074 2021.631 Z M 1136.635 1525.921 L 1136.635 1683.19 L 1134.748 1683.819 C 1131.812 1675.431 1125.312 1668.616 1115.246 1663.374 C 1105.181 1658.132 1092.6 1655.51 1077.502 1655.51 C 1076.244 1655.51 1074.881 1655.615 1073.413 1655.825 C 1071.945 1656.035 1070.373 1656.139 1068.695 1656.139 C 1028.854 1659.914 998.029 1677.423 976.221 1708.667 C 954.413 1739.911 943.509 1784.261 943.509 1841.716 C 943.509 1897.075 953.679 1938.489 974.019 1965.958 C 994.359 1993.428 1021.724 2007.163 1056.114 2007.163 C 1058.21 2007.163 1060.202 2007.163 1062.09 2007.163 C 1063.977 2007.163 1065.759 2006.953 1067.437 2006.534 C 1087.148 2004.437 1103.084 1998.251 1115.246 1987.976 C 1127.409 1977.701 1136.006 1966.063 1141.038 1953.062 L 1142.926 1953.691 L 1142.926 1991.436 L 1226.593 1984.516 L 1226.593 1518.372 L 1136.635 1525.921 Z M 1083.793 1923.496 C 1070.373 1923.496 1058.944 1916.471 1049.508 1902.422 C 1040.072 1888.373 1035.354 1865.411 1035.354 1833.538 C 1035.354 1801.665 1039.758 1778.599 1048.565 1764.34 C 1057.372 1750.081 1070.792 1742.113 1088.825 1740.435 L 1094.487 1740.435 C 1105.391 1740.435 1114.617 1743.161 1122.166 1748.613 C 1129.715 1754.065 1134.538 1761.195 1136.635 1770.002 L 1136.635 1856.814 C 1136.635 1875.686 1132.127 1891.203 1123.11 1903.366 C 1114.093 1915.528 1102.246 1922.238 1087.567 1923.496 L 1083.793 1923.496 Z M 1130.344 1785.1 C 1121.118 1786.358 1114.513 1793.068 1110.528 1805.23 C 1106.544 1817.392 1104.552 1837.313 1104.552 1864.992 C 1104.552 1873.799 1104.762 1882.082 1105.181 1889.84 C 1105.601 1897.599 1106.859 1903.995 1108.956 1909.027 C 1123.215 1897.284 1130.344 1879.88 1130.344 1856.814 L 1130.344 1785.1 Z" transform="matrix(0.27175799012184143, -0.028564998880028725, 0.018612002953886986, 0.2433120161294937, 76.17851257324219, -184.8006591796875)" style="fill: rgb(255, 255, 255); line-height: 967.791px; white-space: pre;">
    <title>o</title>
  </path>
  <path d="M 361.518 214.692 L 348.587 191.235 L 347.875 180.414 L 363.084 208.005 C 362.487 210.178 361.963 212.407 361.518 214.692 Z M 359.845 230.414 L 349.991 212.58 L 349.767 209.171 L 359.957 227.612 C 359.912 228.517 359.874 229.453 359.845 230.414 Z" style="fill: rgba(255, 255, 255, 0.93); pointer-events: none;">
    <title>i-d line</title>
  </path>
  <path d="M 240.828 294.569 C 239.679 294.671 238.502 294.748 237.297 294.799 C 236.093 294.85 234.86 294.876 233.599 294.876 C 223.286 294.876 214.229 292.983 206.429 289.198 C 198.629 285.413 192.627 279.863 188.423 272.549 C 184.218 265.235 182.263 256.412 182.556 246.08 C 182.785 237.998 184.517 230.505 187.749 223.6 C 190.982 216.695 195.785 210.991 202.159 206.49 C 208.532 201.989 216.485 199.381 226.017 198.665 C 226.937 198.562 227.855 198.511 228.772 198.511 C 229.688 198.511 230.605 198.511 231.522 198.511 C 238.856 198.511 245.727 199.688 252.136 202.04 C 258.544 204.393 264.179 207.718 269.042 212.014 C 273.905 216.311 277.684 221.451 280.379 227.436 C 283.074 233.42 284.319 240.044 284.113 247.307 C 283.883 255.389 282.152 262.882 278.919 269.787 C 275.686 276.692 270.913 282.344 264.6 286.743 C 258.287 291.142 250.363 293.75 240.828 294.569 Z M 223.728 285.362 C 232.916 284.646 240.55 282.14 246.632 277.843 C 252.713 273.547 257.309 268.048 260.422 261.347 C 263.534 254.647 265.201 247.409 265.422 239.635 C 265.634 232.167 264.535 225.467 262.125 219.533 C 259.715 213.6 255.895 208.869 250.667 205.339 C 245.438 201.81 238.698 200.046 230.447 200.046 C 229.759 200.046 229.072 200.046 228.384 200.046 C 227.697 200.046 226.95 200.097 226.145 200.199 C 216.957 200.915 209.293 203.447 203.153 207.795 C 197.013 212.142 192.388 217.641 189.277 224.29 C 186.166 230.939 184.499 238.203 184.275 246.08 C 184.066 253.445 185.194 260.12 187.66 266.104 C 190.126 272.089 194.003 276.82 199.29 280.298 C 204.577 283.776 211.289 285.515 219.426 285.515 C 220.113 285.515 220.801 285.515 221.489 285.515 C 222.176 285.515 222.922 285.464 223.728 285.362 Z M 222.782 264.186 C 218.542 264.186 215.293 262.549 213.037 259.276 C 210.781 256.002 209.75 250.939 209.944 244.085 C 210.148 236.924 211.619 231.528 214.358 227.896 C 217.096 224.265 220.821 222.244 225.531 221.835 L 227.078 221.835 C 231.318 221.835 234.539 223.446 236.739 226.669 C 238.94 229.891 239.944 234.878 239.752 241.63 C 239.549 248.79 238.105 254.238 235.421 257.972 C 232.736 261.706 229.039 263.777 224.329 264.186 L 222.782 264.186 Z M 229.397 261.271 C 234.858 258.611 237.737 252.064 238.033 241.63 C 238.135 238.049 237.878 234.98 237.263 232.423 C 234.272 232.832 232.129 234.648 230.834 237.87 C 229.54 241.093 228.807 245.722 228.635 251.757 C 228.531 255.44 228.784 258.611 229.397 261.271 Z" style="fill: rgb(255, 255, 255); line-height: 967.791px; white-space: pre;" transform="matrix(0.994521, -0.104536, 0.104536, 0.994521, -24.509957, 25.743116)">
    <title>O</title>
  </path>
  <g style="" transform="matrix(1, 0, 0, 1, -409.9355465721607, -59.34126204607412)">
    <title>Top Wave</title>
    <path style="fill: none; stroke: rgb(255, 255, 255); stroke-linecap: round; stroke-opacity: 0.5;" d="M 208.424 174.751 C 208.424 174.751 215.596 168.465 234.353 168.927 C 253.109 169.388 257.963 174.865 257.963 174.865">
      <title>Top Wave 1</title>
    </path>
    <path style="fill: none; stroke: rgb(255, 255, 255); stroke-linecap: round; stroke-width: 2px; stroke-opacity: 0.8;" d="M 202.004 186.049 C 202.004 186.049 210.686 176.996 232.595 177.535 C 254.504 178.074 262.978 186.948 262.978 186.948">
      <title>Top Wave 2</title>
    </path>
    <path style="fill: none; stroke: rgb(255, 255, 255); stroke-linecap: round; stroke-width: 3px;" d="M 193.823 204.329 C 193.823 204.329 202.616 189.829 229.649 189.191 C 256.682 188.553 262.978 201.362 262.978 201.362">
      <title>Top Wave 3</title>
    </path>
  </g>
  <g style="" transform="matrix(1, 0, 0, 1, -409.935547, -297.21701)">
    <title>Bottom Wave</title>
    <path style="fill: none; stroke: rgb(255, 255, 255); stroke-linecap: round; stroke-width: 3px;" d="M 193.823 297.217 C 193.823 297.217 202.616 311.717 229.649 312.355 C 256.682 312.993 262.978 300.184 262.978 300.184">
      <title>Bottom Wave 3</title>
    </path>
    <path style="fill: none; stroke: rgb(255, 255, 255); stroke-linecap: round; stroke-width: 2px; stroke-opacity: 0.8;" d="M 202.004 315.497 C 202.004 315.497 210.686 324.55 232.595 324.011 C 254.504 323.472 262.978 314.598 262.978 314.598">
      <title>Bottom Wave 2</title>
    </path>
    <path style="fill: none; stroke: rgb(255, 255, 255); stroke-linecap: round; stroke-opacity: 0.5;" d="M 208.424 326.795 C 208.424 326.795 215.596 333.081 234.353 332.619 C 253.109 332.158 257.963 326.681 257.963 326.681">
      <title>Bottom Wave 1</title>
    </path>
  </g>
  <g transform="matrix(1, 0, 0, 1, 2.092555, -0.407135)" style="pointer-events: none;">
    <title>Loops</title>
    <path style="stroke: rgb(255, 255, 255); fill: none; stroke-width: 2px; stroke-linecap: round; stroke-miterlimit: 50; stroke-opacity: 0.8;" d="M 235.351 113.532 L 241.744 97.479 C 247.18 105.843 260.686 108.961 266.782 104.998 C 278.612 97.309 267.738 80.582 255.91 88.271 C 249.882 92.189 247.18 105.843 252.616 114.206 L 235.351 113.532 Z" transform="matrix(-0.52992, 0.848048, -0.848048, -0.52992, 473.035147, -61.704431)">
      <title>Top</title>
    </path>
    <path style="stroke: rgb(255, 255, 255); fill: none; stroke-width: 2px; stroke-linecap: round; stroke-miterlimit: 50; stroke-opacity: 0.8;" d="M 64.287 419.352 L 70.68 403.299 C 76.116 411.663 89.622 414.781 95.718 410.818 C 107.548 403.129 96.674 386.402 84.846 394.091 C 78.818 398.009 76.116 411.663 81.552 420.026 L 64.287 419.352 Z" transform="matrix(0.999391, -0.0349, 0.0349, 0.999391, -14.121604, 3.128552)">
      <title>Bottom Left</title>
    </path>
    <path style="stroke: rgb(255, 255, 255); fill: none; stroke-width: 2px; stroke-linecap: round; stroke-miterlimit: 50; stroke-opacity: 0.8;" d="M 401.621 392.791 L 408.014 408.844 C 413.45 400.48 426.956 397.362 433.052 401.325 C 444.882 409.014 434.008 425.741 422.18 418.052 C 416.152 414.134 413.45 400.48 418.886 392.117 L 401.621 392.791 Z" transform="matrix(-0.999391, -0.0349, 0.0349, -0.999391, 825.350756, 826.549703)">
      <title>BottomRight</title>
    </path>
  </g>
  <g transform="matrix(1, 0, 0, 1, 382.742584, -181.693481)">
    <text style="fill: rgb(255, 255, 255); fill-opacity: 0.49; font-family: &quot;Rampart One&quot;; font-size: 629.074px; letter-spacing: 20px; line-height: 967.791px; text-anchor: end; white-space: pre;" transform="matrix(-0.01338, -0.127288, 0.113965, -0.008717, 51.788925, 323.453033)" x="1345.38" y="2009.42" dx="6.275" dy="-91.621">)</text>
    <text style="fill: rgb(255, 255, 255); fill-opacity: 0.49; font-family: &quot;Rampart One&quot;; font-size: 629.074px; letter-spacing: 20px; line-height: 967.791px; text-anchor: end; white-space: pre;" transform="matrix(-0.015176, -0.144376, 0.129263, -0.009888, 36.024029, 488.898804)" x="1345.38" y="2009.42" dx="6.275" dy="-91.621">(</text>
  </g>
  <text style="fill: rgb(255, 255, 255); font-family: &quot;Rampart One&quot;; font-size: 629.074px; letter-spacing: 20px; line-height: 967.791px; text-anchor: end; white-space: pre;" transform="matrix(0.271758, -0.028565, 0.018612, 0.243312, 145.628326, -484.094635)" x="1345.3800048828125" y="2009.4200439453125"><tspan dx="6.275 -6.206" dy="-91.621 90.622">o</tspan></text>
  <text style="fill: rgb(255, 255, 255); font-family: &quot;Rampart One&quot;; font-size: 629.074px; letter-spacing: 20px; line-height: 967.791px; text-anchor: end; white-space: pre;" transform="matrix(0.271758, -0.028565, 0.018612, 0.243312, 532.088379, -412.532318)" x="1345.3800048828125" y="2009.4200439453125"><tspan dx="6.275 -6.206" dy="-91.621 90.622">[]*</tspan></text>
  <text style="fill: rgb(255, 255, 255); font-family: &quot;Rampart One&quot;; font-size: 629.074px; letter-spacing: 20px; line-height: 967.791px; text-anchor: end; white-space: pre;" transform="matrix(0.150553, -0.015825, 0.010311, 0.134794, 526.660217, 50.555161)" x="1345.3800048828125" y="2009.4200439453125"><tspan dx="6.275 -6.206" dy="-91.621 90.622">*</tspan></text>
  <g transform="matrix(1, 0, 0, 1, -400.953064, 36.942699)">
    <text style="fill: rgb(255, 255, 255); fill-opacity: 0.6; font-family: &quot;Rampart One&quot;; font-size: 61px; white-space: pre;" x="220.622" y="195.551">'</text>
    <text style="fill: rgb(255, 255, 255); fill-opacity: 0.6; font-family: &quot;Rampart One&quot;; font-size: 55.3px; white-space: pre;" transform="matrix(0.927387, 0.374103, -0.374103, 0.927387, 119.09716, -44.046032)" x="199.833" y="177.125">'</text>
    <text style="fill: rgb(255, 255, 255); fill-opacity: 0.6; font-family: &quot;Rampart One&quot;; font-size: 48.6px; white-space: pre;" transform="matrix(0.889597, -0.456746, 0.456746, 0.889597, 3.84316, 127.064598)" x="150.801" y="159.041">'</text>
  </g>
  <g transform="matrix(-0.988171, 0.153365, -0.153365, -0.988171, -1.517493, 457.490692)">
    <path d="M 226.305 150.535 L 225.451 169.872 L 235.089 170.665 L 241.189 167.615 L 239.969 148.095 L 232.405 147.485 L 226.305 150.535 Z M 226.122 169.262 L 226.854 151.145 L 233.259 151.694 L 234.418 169.994 L 226.122 169.262 Z" style="fill: rgb(255, 255, 255); white-space: pre; fill-opacity: 0.6;" transform="matrix(-0.999263, -0.038377, 0.038377, -0.999263, 460.363317, 326.986905)"/>
    <path d="M 198.227 158.666 L 197.453 176.196 L 206.191 176.915 L 211.721 174.15 L 210.615 156.454 L 203.757 155.901 L 198.227 158.666 Z M 198.062 175.643 L 198.725 159.219 L 204.532 159.717 L 205.582 176.307 L 198.062 175.643 Z" style="fill: rgb(255, 255, 255); white-space: pre; fill-opacity: 0.6;" transform="matrix(-0.941061, 0.338237, -0.338237, -0.941061, 453.401195, 253.809123)"/>
    <path d="M 253.294 164.603 L 252.614 180.009 L 260.293 180.641 L 265.153 178.211 L 264.181 162.659 L 258.154 162.173 L 253.294 164.603 Z M 253.149 179.523 L 253.732 165.089 L 258.835 165.526 L 259.758 180.106 L 253.149 179.523 Z" style="fill: rgb(255, 255, 255); white-space: pre; fill-opacity: 0.6;" transform="matrix(-0.871413, -0.49055, 0.49055, -0.871413, 400.39441, 447.768536)"/>
  </g>
</svg>