<?xml version="1.0" encoding="utf-8"?>
<svg viewBox="0 0 173 147" xmlns="http://www.w3.org/2000/svg" xmlns:bx="https://boxy-svg.com">
  <defs>
    <mask id="mask-1">
      <path d="M -14.097 110.361 L 180.076 110.361 L 180.076 198.065 L -14.097 198.065 L -14.097 110.361 Z M 4 -13.717 L 167.843 -13.717 L 167.843 73.987 L 4 73.987 L 4 -13.717 Z" style="fill: rgb(216, 216, 216);"/>
    </mask>
    <mask id="mask-0">
      <path d="M -14.097 110.361 L 180.076 110.361 L 180.076 198.065 L -14.097 198.065 L -14.097 110.361 Z M 4 -13.717 L 167.843 -13.717 L 167.843 73.987 L 4 73.987 L 4 -13.717 Z" style="fill: rgb(216, 216, 216);"/>
    </mask>
    <filter id="drop-shadow-filter-1" x="-500%" y="-500%" width="1000%" height="1000%" bx:preset="drop-shadow 1 2 2 0 0.5 rgba(0,0,0,0.3)">
      <feGaussianBlur in="SourceAlpha" stdDeviation="0"/>
      <feOffset dx="2" dy="2"/>
      <feComponentTransfer result="offsetblur">
        <feFuncA id="spread-ctrl" type="linear" slope="1"/>
      </feComponentTransfer>
      <feFlood flood-color="rgba(0,0,0,0.3)"/>
      <feComposite in2="offsetblur" operator="in"/>
      <feMerge>
        <feMergeNode/>
        <feMergeNode in="SourceGraphic"/>
      </feMerge>
    </filter>
  </defs>
  <g style="filter: url(#drop-shadow-filter-1);">
    <path d="M 85.922 4 L 167.843 142.587 L 4 142.587 L 85.922 4 Z" style="fill: none; stroke: rgb(255, 255, 255); stroke-width: 2px; mask: url(#mask-1);"/>
    <path d="M 85.922 12.782 L 159.825 137.805 L 12.018 137.805 L 85.922 12.782 Z" style="fill: none; stroke: rgb(255, 255, 255); stroke-width: 2px; mask: url(#mask-0);"/>
    <path d="M 33.834 99.773 L 51.571 99.773 L 51.571 106.538 L 15.392 106.538 L 15.392 103.627 L 32.695 85.095 L 16.694 85.095 L 16.694 78.33 L 51.137 78.33 L 51.137 81.241 L 33.834 99.773 Z M 75.808 77.838 C 82.245 77.838 87.217 79.081 90.725 81.569 C 94.232 84.056 95.986 87.678 95.986 92.434 C 95.986 97.19 94.232 100.811 90.725 103.299 C 87.217 105.786 82.245 107.03 75.808 107.03 C 69.371 107.03 64.408 105.793 60.918 103.319 C 57.429 100.845 55.684 97.217 55.684 92.434 C 55.684 87.65 57.429 84.022 60.918 81.548 C 64.408 79.074 69.371 77.838 75.808 77.838 Z M 75.808 84.603 C 73.24 84.603 71.288 85.19 69.95 86.366 C 68.612 87.541 67.943 89.126 67.943 91.122 L 67.943 93.746 C 67.943 95.741 68.612 97.326 69.95 98.502 C 71.288 99.677 73.24 100.265 75.808 100.265 C 78.375 100.265 80.337 99.677 81.693 98.502 C 83.049 97.326 83.727 95.741 83.727 93.746 L 83.727 91.122 C 83.727 89.126 83.049 87.541 81.693 86.366 C 80.337 85.19 78.375 84.603 75.808 84.603 Z M 102.982 106.538 L 102.982 78.33 L 114.969 78.33 L 114.969 106.538 L 102.982 106.538 Z M 139.705 78.33 C 152.759 78.33 159.287 83.031 159.287 92.434 C 159.287 101.836 152.759 106.538 139.705 106.538 L 123.541 106.538 L 123.541 78.33 L 139.705 78.33 Z M 135.528 99.773 L 139.488 99.773 C 144.515 99.773 147.028 97.736 147.028 93.664 L 147.028 91.204 C 147.028 87.131 144.515 85.095 139.488 85.095 L 135.528 85.095 L 135.528 99.773 Z" style="fill: rgb(255, 255, 255); white-space: pre; filter: none;"/>
    <path d="M 52.352 111.838 C 52.64 111.838 52.904 111.913 53.143 112.063 C 53.383 112.213 53.572 112.525 53.71 113.001 C 53.848 113.476 54.058 114.156 54.34 115.039 C 54.622 115.923 54.936 116.866 55.284 117.869 C 55.632 118.872 55.998 119.908 56.381 120.974 C 56.765 122.041 57.149 123.076 57.533 124.08 C 58.456 126.431 59.176 128.149 59.691 129.234 C 59.811 129.511 59.778 129.732 59.592 129.897 C 59.406 130.062 59.2 130.144 58.972 130.144 C 58.744 130.144 58.537 130.103 58.351 130.021 C 58.165 129.938 58 129.695 57.856 129.291 C 57.713 128.886 57.479 128.231 57.155 127.325 C 56.831 126.419 56.483 125.446 56.112 124.405 C 56.1 124.36 56.088 124.319 56.076 124.282 C 55.26 124.259 54.109 124.248 52.622 124.248 C 50.871 124.248 49.534 124.263 48.61 124.293 C 48.598 124.338 48.586 124.383 48.574 124.428 C 47.843 126.629 47.303 128.332 46.956 129.538 C 46.836 129.919 46.518 130.11 46.002 130.11 C 45.463 130.11 45.133 129.946 45.013 129.616 C 44.977 129.519 45.013 129.365 45.121 129.156 C 45.229 128.946 45.388 128.585 45.597 128.072 C 45.807 127.559 46.035 126.971 46.281 126.309 C 46.527 125.646 46.788 124.922 47.063 124.136 C 47.339 123.35 47.621 122.541 47.909 121.71 C 48.197 120.879 48.485 120.042 48.772 119.2 C 49.06 118.358 49.336 117.543 49.6 116.757 C 49.864 115.971 50.112 115.234 50.346 114.545 C 50.58 113.856 50.769 113.31 50.913 112.905 C 51.141 112.194 51.62 111.838 52.352 111.838 Z M 48.952 123.249 C 49.864 123.279 51.093 123.293 52.64 123.293 C 53.923 123.293 54.948 123.282 55.716 123.26 C 55.464 122.578 55.212 121.878 54.96 121.16 C 54.565 120.044 54.187 118.962 53.827 117.914 C 53.227 116.2 52.712 114.695 52.28 113.399 C 52.004 114.26 51.608 115.432 51.093 116.915 C 50.421 118.891 49.912 120.396 49.564 121.429 C 49.36 122.051 49.156 122.657 48.952 123.249 Z M 70.622 121.946 C 70.622 122.35 70.298 122.582 69.65 122.642 C 68.859 122.739 67.965 123.162 66.97 123.911 C 65.903 124.72 65.303 125.517 65.171 126.303 C 65.123 126.648 65.099 126.962 65.099 127.247 C 65.099 127.928 65.147 128.643 65.243 129.392 C 65.267 129.639 65.168 129.826 64.946 129.953 C 64.724 130.08 64.485 130.144 64.227 130.144 C 63.969 130.144 63.744 130.086 63.552 129.97 C 63.36 129.854 63.282 129.678 63.318 129.442 C 63.354 129.206 63.384 128.933 63.408 128.622 C 63.432 128.312 63.456 127.984 63.48 127.64 C 63.504 127.056 63.516 126.404 63.516 125.686 C 63.516 124.473 63.492 123.572 63.444 122.985 C 63.396 122.397 63.402 122.058 63.462 121.968 C 63.522 121.878 63.6 121.807 63.696 121.755 C 63.9 121.635 64.125 121.575 64.371 121.575 C 64.617 121.575 64.838 121.631 65.036 121.744 C 65.234 121.856 65.324 122 65.306 122.176 C 65.288 122.352 65.264 122.524 65.234 122.693 C 65.204 122.861 65.171 123.069 65.135 123.316 C 65.063 123.713 64.997 124.136 64.937 124.585 C 65.429 123.814 66.131 123.103 67.042 122.451 C 68.061 121.74 68.949 121.384 69.704 121.384 C 70.028 121.384 70.262 121.44 70.406 121.553 C 70.55 121.665 70.622 121.796 70.622 121.946 Z M 81.054 124.147 C 81.054 124.626 80.751 124.866 80.145 124.866 C 79.54 124.866 79.237 124.626 79.237 124.147 C 79.261 122.904 78.529 122.283 77.042 122.283 C 76.107 122.283 75.333 122.65 74.722 123.383 C 74.182 124.05 73.912 124.78 73.912 125.573 C 73.912 126.367 74.005 126.988 74.191 127.438 C 74.377 127.887 74.626 128.254 74.938 128.538 C 75.513 129.085 76.251 129.358 77.15 129.358 C 77.726 129.358 78.202 129.221 78.58 128.948 C 78.958 128.675 79.213 128.388 79.345 128.089 C 79.549 127.625 79.86 127.393 80.28 127.393 C 80.484 127.4 80.664 127.453 80.82 127.55 C 80.976 127.647 81.036 127.825 81 128.083 C 80.964 128.342 80.832 128.613 80.604 128.897 C 80.376 129.182 80.082 129.429 79.722 129.639 C 78.955 130.065 77.996 130.279 76.844 130.279 C 75.585 130.279 74.53 129.916 73.678 129.189 C 72.755 128.403 72.293 127.314 72.293 125.921 C 72.293 124.461 72.767 123.316 73.714 122.485 C 74.59 121.721 75.699 121.332 77.042 121.317 C 78.181 121.302 79.123 121.538 79.866 122.024 C 80.658 122.526 81.054 123.234 81.054 124.147 Z M 86.823 123.383 C 87.891 122.043 89.264 121.373 90.943 121.373 C 92.454 121.373 93.473 121.927 94.001 123.035 C 94.181 123.425 94.271 123.904 94.271 124.473 L 94.271 126.292 C 94.271 127.64 94.319 128.643 94.414 129.302 C 94.438 129.541 94.334 129.725 94.1 129.852 C 93.866 129.979 93.617 130.043 93.353 130.043 C 93.089 130.043 92.861 129.987 92.67 129.875 C 92.478 129.762 92.418 129.5 92.49 129.088 C 92.586 128.452 92.634 127.756 92.634 127 C 92.634 126.243 92.622 125.71 92.598 125.399 C 92.574 125.088 92.553 124.705 92.535 124.248 C 92.517 123.791 92.37 123.372 92.094 122.99 C 91.818 122.608 91.407 122.418 90.862 122.418 C 90.316 122.418 89.83 122.507 89.405 122.687 C 88.979 122.867 88.592 123.095 88.244 123.372 C 87.537 123.964 87.093 124.63 86.913 125.371 C 86.961 127.161 87.039 128.471 87.147 129.302 C 87.171 129.541 87.081 129.725 86.877 129.852 C 86.674 129.979 86.41 130.043 86.086 130.043 C 85.474 130.043 85.169 129.811 85.169 129.347 L 85.42 116.881 C 85.42 115.286 85.354 113.295 85.222 110.906 C 85.198 110.667 85.303 110.489 85.537 110.373 C 85.771 110.257 86.02 110.199 86.284 110.199 C 86.548 110.199 86.772 110.257 86.958 110.373 C 87.144 110.489 87.228 110.693 87.21 110.985 C 87.192 111.277 87.171 111.702 87.147 112.26 C 87.123 112.817 87.096 113.448 87.066 114.152 C 87.036 114.856 87.009 115.612 86.985 116.42 C 86.961 117.229 86.937 118.056 86.913 118.902 C 86.889 119.748 86.871 120.594 86.859 121.44 C 86.847 122.107 86.835 122.754 86.823 123.383 Z M 101.525 118.139 C 101.609 118.258 101.642 118.403 101.624 118.571 C 101.606 118.74 101.543 118.884 101.435 119.003 C 101.327 119.123 101.201 119.221 101.057 119.295 C 100.781 119.43 100.499 119.498 100.211 119.498 C 99.924 119.498 99.696 119.477 99.528 119.436 C 99.36 119.395 99.21 119.337 99.078 119.262 C 98.766 119.082 98.61 118.846 98.61 118.554 C 98.61 118.262 98.73 118.053 98.97 117.925 C 99.366 117.708 99.762 117.6 100.157 117.6 C 100.805 117.6 101.261 117.779 101.525 118.139 Z M 100.949 122.361 C 100.889 123.14 100.829 123.907 100.769 124.664 C 100.709 125.42 100.679 126.101 100.679 126.708 C 100.679 127.314 100.709 127.941 100.769 128.589 C 100.829 129.236 100.832 129.607 100.778 129.7 C 100.724 129.794 100.649 129.871 100.553 129.931 C 100.349 130.058 100.128 130.122 99.888 130.122 C 99.648 130.122 99.423 130.065 99.213 129.953 C 99.003 129.841 98.922 129.612 98.97 129.268 C 99.102 128.317 99.168 127.355 99.168 126.382 C 99.168 125.409 99.147 124.621 99.105 124.018 C 99.063 123.415 99.033 122.96 99.015 122.653 C 98.997 122.346 99.018 122.148 99.078 122.058 C 99.138 121.968 99.222 121.897 99.33 121.845 C 99.534 121.725 99.762 121.665 100.014 121.665 C 100.265 121.665 100.487 121.721 100.679 121.834 C 100.871 121.946 100.961 122.122 100.949 122.361 Z M 110.229 129.706 C 110.097 129.961 109.786 130.088 109.294 130.088 C 108.814 130.088 108.52 129.983 108.413 129.773 C 108.089 129.16 107.777 128.549 107.477 127.943 C 107.177 127.336 106.872 126.741 106.56 126.157 C 105.852 124.78 105.163 123.642 104.491 122.743 C 104.335 122.511 104.257 122.303 104.257 122.12 C 104.257 121.936 104.344 121.789 104.518 121.676 C 104.692 121.564 104.89 121.508 105.112 121.508 C 105.334 121.508 105.564 121.558 105.804 121.659 C 106.044 121.761 106.266 122.023 106.47 122.446 C 106.674 122.869 106.935 123.438 107.252 124.153 C 107.57 124.868 107.879 125.558 108.179 126.225 C 108.694 127.393 109.084 128.235 109.348 128.751 C 109.516 128.37 109.69 128.007 109.87 127.662 C 110.109 127.183 110.361 126.681 110.625 126.157 C 111.261 124.884 111.818 123.552 112.298 122.159 C 112.454 121.74 112.802 121.53 113.341 121.53 C 113.581 121.53 113.788 121.577 113.962 121.671 C 114.136 121.764 114.223 121.882 114.223 122.024 C 114.223 122.234 114.103 122.534 113.863 122.923 C 113.623 123.312 113.335 123.799 113 124.383 C 112.664 124.967 112.334 125.558 112.01 126.157 C 111.267 127.535 110.673 128.718 110.229 129.706 Z M 124.325 125.191 C 124.349 123.889 123.911 122.998 123.012 122.519 C 122.652 122.316 122.214 122.215 121.699 122.215 C 121.183 122.215 120.757 122.275 120.421 122.395 C 120.086 122.515 119.789 122.676 119.531 122.878 C 119.273 123.08 119.057 123.31 118.883 123.569 C 118.71 123.827 118.569 124.091 118.461 124.36 C 118.353 124.645 118.275 124.926 118.227 125.203 L 120.691 125.27 C 122.298 125.27 123.509 125.244 124.325 125.191 Z M 118.155 126.168 C 118.179 127.202 118.479 127.992 119.054 128.538 C 119.678 129.122 120.559 129.414 121.699 129.414 C 122.742 129.414 123.503 129.092 123.983 128.448 C 124.283 128.029 124.655 127.819 125.098 127.819 C 125.302 127.819 125.473 127.861 125.611 127.943 C 125.749 128.025 125.812 128.169 125.8 128.375 C 125.788 128.581 125.671 128.804 125.449 129.043 C 125.227 129.283 124.919 129.496 124.523 129.684 C 123.659 130.103 122.622 130.313 121.411 130.313 C 120.104 130.313 118.976 129.964 118.029 129.268 C 117.034 128.534 116.536 127.662 116.536 126.651 C 116.536 125.641 116.677 124.819 116.959 124.186 C 117.241 123.554 117.615 123.028 118.083 122.608 C 118.994 121.762 120.134 121.339 121.501 121.339 C 123.252 121.339 124.481 121.77 125.188 122.631 C 125.68 123.23 125.944 124.11 125.98 125.27 C 125.992 125.599 125.908 125.82 125.728 125.933 C 125.548 126.045 125.182 126.101 124.631 126.101 L 118.155 126.168 Z" style="fill: rgb(255, 255, 255); white-space: pre;"/>
    <path style="filter: none; fill-opacity: 1; fill: rgb(255, 255, 255);" d="M 86.286 60.678 C 87.563 60.525 89.563 59.667 90.38 59.214 C 91.196 58.76 92.099 57.581 91.69 57.264 C 91.282 56.942 88.232 58.89 85.685 58.363 C 83.139 57.837 82.301 57.506 81.247 56.543 C 80.195 55.581 80.767 53.012 81.157 52.259 C 81.546 51.509 82.298 51.013 84.412 50.696 C 86.523 50.384 91.166 51.669 91.259 53.683 C 91.353 55.696 88.325 55.933 87.143 55.719 C 85.962 55.506 89.092 55.274 89.778 54.85 C 90.306 54.526 90.642 53.937 90.078 53.057 C 89.739 52.532 88.736 52.105 88.191 51.804 C 87.225 51.273 83.326 51.359 83.037 52.557 C 82.908 53.083 82.768 54.048 82.797 54.451 C 82.832 54.957 84.167 55.894 84.167 55.894 C 84.167 55.894 84.877 56.531 87.246 57.069 C 88.956 57.457 91.84 56.494 92.564 55.682 C 93.474 54.662 93.646 54.273 93.814 53.229 C 94.019 51.95 93.839 50.236 92.935 49.306 C 90.677 46.993 86.218 44.946 84.458 45.15 C 83.486 45.263 80.964 45.727 79.041 47.462 C 77.483 48.872 76.833 50.026 76.883 51.357 C 77.007 54.676 77.533 55.428 77.533 55.428 C 77.533 55.428 79.041 58.215 80.169 59.289 C 81.397 60.461 82.972 61.078 86.286 60.678 Z" transform="matrix(0, 1, -1, 0, 138.353216, -32.417505)">
      <title>Spiral Logo</title>
    </path>
  </g>
</svg>