<?xml version="1.0" encoding="utf-8"?>
<svg viewBox="42.5 126 411 337" xmlns="http://www.w3.org/2000/svg" xmlns:xlink="http://www.w3.org/1999/xlink" xmlns:bx="https://boxy-svg.com">
  <desc>Graphic containing both logo and title for the Zoid Archive</desc>
  <title>Zoid Archive Title Graphic</title>
  <defs>
    <linearGradient id="b" gradientUnits="userSpaceOnUse" x1="0" y1="750" x2="1550" y2="750" gradientTransform="matrix(2.320001, 0.000001, -0.000001, 2.320001, 5461.94334, -7232.311372)">
      <stop offset="0" stop-color="#581e77"/>
      <stop offset="1" stop-color="#B03BEE"/>
    </linearGradient>
    <path id="s" fill="url(#b)" d="M1549.2 51.6c-5.4 99.1-20.2 197.6-44.2 293.6c-24.1 96-57.4 189.4-99.3 278.6c-41.9 89.2-92.4 174.1-150.3 253.3c-58 79.2-123.4 152.6-195.1 219c-71.7 66.4-149.6 125.8-232.2 177.2c-82.7 51.4-170.1 94.7-260.7 129.1c-90.6 34.4-184.4 60-279.5 76.3C192.6 1495 96.1 1502 0 1500c96.1-2.1 191.8-13.3 285.4-33.6c93.6-20.2 185-49.5 272.5-87.2c87.6-37.7 171.3-83.8 249.6-137.3c78.4-53.5 151.5-114.5 217.9-181.7c66.5-67.2 126.4-140.7 178.6-218.9c52.3-78.3 96.9-161.4 133-247.9c36.1-86.5 63.8-176.2 82.6-267.6c18.8-91.4 28.6-184.4 29.6-277.4c0.3-27.6 23.2-48.7 50.8-48.4s49.5 21.8 49.2 49.5c0 0.7 0 1.3-0.1 2L1549.2 51.6z"/>
    <g id="g">
      <path fill="url(#b)" d="M1549.2 51.6c-5.4 99.1-20.2 197.6-44.2 293.6c-24.1 96-57.4 189.4-99.3 278.6c-41.9 89.2-92.4 174.1-150.3 253.3c-58 79.2-123.4 152.6-195.1 219c-71.7 66.4-149.6 125.8-232.2 177.2c-82.7 51.4-170.1 94.7-260.7 129.1c-90.6 34.4-184.4 60-279.5 76.3C192.6 1495 96.1 1502 0 1500c96.1-2.1 191.8-13.3 285.4-33.6c93.6-20.2 185-49.5 272.5-87.2c87.6-37.7 171.3-83.8 249.6-137.3c78.4-53.5 151.5-114.5 217.9-181.7c66.5-67.2 126.4-140.7 178.6-218.9c52.3-78.3 96.9-161.4 133-247.9c36.1-86.5 63.8-176.2 82.6-267.6c18.8-91.4 28.6-184.4 29.6-277.4c0.3-27.6 23.2-48.7 50.8-48.4s49.5 21.8 49.2 49.5c0 0.7 0 1.3-0.1 2L1549.2 51.6z" transform="matrix(0.060000002384185805, 0.10392305258366355, -0.10392305258366355, 0.060000002384185805, 0, 0)"/>
      <path fill="url(#b)" d="M1549.2 51.6c-5.4 99.1-20.2 197.6-44.2 293.6c-24.1 96-57.4 189.4-99.3 278.6c-41.9 89.2-92.4 174.1-150.3 253.3c-58 79.2-123.4 152.6-195.1 219c-71.7 66.4-149.6 125.8-232.2 177.2c-82.7 51.4-170.1 94.7-260.7 129.1c-90.6 34.4-184.4 60-279.5 76.3C192.6 1495 96.1 1502 0 1500c96.1-2.1 191.8-13.3 285.4-33.6c93.6-20.2 185-49.5 272.5-87.2c87.6-37.7 171.3-83.8 249.6-137.3c78.4-53.5 151.5-114.5 217.9-181.7c66.5-67.2 126.4-140.7 178.6-218.9c52.3-78.3 96.9-161.4 133-247.9c36.1-86.5 63.8-176.2 82.6-267.6c18.8-91.4 28.6-184.4 29.6-277.4c0.3-27.6 23.2-48.7 50.8-48.4s49.5 21.8 49.2 49.5c0 0.7 0 1.3-0.1 2L1549.2 51.6z" transform="matrix(0.19696155353739742, 0.03472963605089796, -0.03472963605089796, 0.19696155353739742, 0, 0)"/>
      <path fill="url(#b)" d="M1549.2 51.6c-5.4 99.1-20.2 197.6-44.2 293.6c-24.1 96-57.4 189.4-99.3 278.6c-41.9 89.2-92.4 174.1-150.3 253.3c-58 79.2-123.4 152.6-195.1 219c-71.7 66.4-149.6 125.8-232.2 177.2c-82.7 51.4-170.1 94.7-260.7 129.1c-90.6 34.4-184.4 60-279.5 76.3C192.6 1495 96.1 1502 0 1500c96.1-2.1 191.8-13.3 285.4-33.6c93.6-20.2 185-49.5 272.5-87.2c87.6-37.7 171.3-83.8 249.6-137.3c78.4-53.5 151.5-114.5 217.9-181.7c66.5-67.2 126.4-140.7 178.6-218.9c52.3-78.3 96.9-161.4 133-247.9c36.1-86.5 63.8-176.2 82.6-267.6c18.8-91.4 28.6-184.4 29.6-277.4c0.3-27.6 23.2-48.7 50.8-48.4s49.5 21.8 49.2 49.5c0 0.7 0 1.3-0.1 2L1549.2 51.6z" transform="matrix(0.19151111077974453, 0.1606969024216348, -0.1606969024216348, 0.19151111077974453, 0, 0)"/>
      <path fill="url(#b)" d="M1549.2 51.6c-5.4 99.1-20.2 197.6-44.2 293.6c-24.1 96-57.4 189.4-99.3 278.6c-41.9 89.2-92.4 174.1-150.3 253.3c-58 79.2-123.4 152.6-195.1 219c-71.7 66.4-149.6 125.8-232.2 177.2c-82.7 51.4-170.1 94.7-260.7 129.1c-90.6 34.4-184.4 60-279.5 76.3C192.6 1495 96.1 1502 0 1500c96.1-2.1 191.8-13.3 285.4-33.6c93.6-20.2 185-49.5 272.5-87.2c87.6-37.7 171.3-83.8 249.6-137.3c78.4-53.5 151.5-114.5 217.9-181.7c66.5-67.2 126.4-140.7 178.6-218.9c52.3-78.3 96.9-161.4 133-247.9c36.1-86.5 63.8-176.2 82.6-267.6c18.8-91.4 28.6-184.4 29.6-277.4c0.3-27.6 23.2-48.7 50.8-48.4s49.5 21.8 49.2 49.5c0 0.7 0 1.3-0.1 2L1549.2 51.6z" transform="matrix(0.2819077974377815, -0.10260604707489844, 0.10260604707489844, 0.2819077974377815, 0, 0)"/>
      <path fill="url(#b)" d="M1549.2 51.6c-5.4 99.1-20.2 197.6-44.2 293.6c-24.1 96-57.4 189.4-99.3 278.6c-41.9 89.2-92.4 174.1-150.3 253.3c-58 79.2-123.4 152.6-195.1 219c-71.7 66.4-149.6 125.8-232.2 177.2c-82.7 51.4-170.1 94.7-260.7 129.1c-90.6 34.4-184.4 60-279.5 76.3C192.6 1495 96.1 1502 0 1500c96.1-2.1 191.8-13.3 285.4-33.6c93.6-20.2 185-49.5 272.5-87.2c87.6-37.7 171.3-83.8 249.6-137.3c78.4-53.5 151.5-114.5 217.9-181.7c66.5-67.2 126.4-140.7 178.6-218.9c52.3-78.3 96.9-161.4 133-247.9c36.1-86.5 63.8-176.2 82.6-267.6c18.8-91.4 28.6-184.4 29.6-277.4c0.3-27.6 23.2-48.7 50.8-48.4s49.5 21.8 49.2 49.5c0 0.7 0 1.3-0.1 2L1549.2 51.6z" transform="matrix(0.34641016667568914, -0.2000000029802322, 0.2000000029802322, 0.34641016667568914, 0, 0)"/>
      <path fill="url(#b)" d="M1549.2 51.6c-5.4 99.1-20.2 197.6-44.2 293.6c-24.1 96-57.4 189.4-99.3 278.6c-41.9 89.2-92.4 174.1-150.3 253.3c-58 79.2-123.4 152.6-195.1 219c-71.7 66.4-149.6 125.8-232.2 177.2c-82.7 51.4-170.1 94.7-260.7 129.1c-90.6 34.4-184.4 60-279.5 76.3C192.6 1495 96.1 1502 0 1500c96.1-2.1 191.8-13.3 285.4-33.6c93.6-20.2 185-49.5 272.5-87.2c87.6-37.7 171.3-83.8 249.6-137.3c78.4-53.5 151.5-114.5 217.9-181.7c66.5-67.2 126.4-140.7 178.6-218.9c52.3-78.3 96.9-161.4 133-247.9c36.1-86.5 63.8-176.2 82.6-267.6c18.8-91.4 28.6-184.4 29.6-277.4c0.3-27.6 23.2-48.7 50.8-48.4s49.5 21.8 49.2 49.5c0 0.7 0 1.3-0.1 2L1549.2 51.6z" transform="matrix(0.4698463103929542, 0.17101007166283436, -0.17101007166283436, 0.4698463103929542, 0, 0)"/>
      <path fill="url(#b)" d="M1549.2 51.6c-5.4 99.1-20.2 197.6-44.2 293.6c-24.1 96-57.4 189.4-99.3 278.6c-41.9 89.2-92.4 174.1-150.3 253.3c-58 79.2-123.4 152.6-195.1 219c-71.7 66.4-149.6 125.8-232.2 177.2c-82.7 51.4-170.1 94.7-260.7 129.1c-90.6 34.4-184.4 60-279.5 76.3C192.6 1495 96.1 1502 0 1500c96.1-2.1 191.8-13.3 285.4-33.6c93.6-20.2 185-49.5 272.5-87.2c87.6-37.7 171.3-83.8 249.6-137.3c78.4-53.5 151.5-114.5 217.9-181.7c66.5-67.2 126.4-140.7 178.6-218.9c52.3-78.3 96.9-161.4 133-247.9c36.1-86.5 63.8-176.2 82.6-267.6c18.8-91.4 28.6-184.4 29.6-277.4c0.3-27.6 23.2-48.7 50.8-48.4s49.5 21.8 49.2 49.5c0 0.7 0 1.3-0.1 2L1549.2 51.6z" transform="matrix(0.300000011920929, 0.5196152629183178, -0.5196152629183178, 0.300000011920929, 0, 0)"/>
      <path fill="url(#b)" d="M1549.2 51.6c-5.4 99.1-20.2 197.6-44.2 293.6c-24.1 96-57.4 189.4-99.3 278.6c-41.9 89.2-92.4 174.1-150.3 253.3c-58 79.2-123.4 152.6-195.1 219c-71.7 66.4-149.6 125.8-232.2 177.2c-82.7 51.4-170.1 94.7-260.7 129.1c-90.6 34.4-184.4 60-279.5 76.3C192.6 1495 96.1 1502 0 1500c96.1-2.1 191.8-13.3 285.4-33.6c93.6-20.2 185-49.5 272.5-87.2c87.6-37.7 171.3-83.8 249.6-137.3c78.4-53.5 151.5-114.5 217.9-181.7c66.5-67.2 126.4-140.7 178.6-218.9c52.3-78.3 96.9-161.4 133-247.9c36.1-86.5 63.8-176.2 82.6-267.6c18.8-91.4 28.6-184.4 29.6-277.4c0.3-27.6 23.2-48.7 50.8-48.4s49.5 21.8 49.2 49.5c0 0.7 0 1.3-0.1 2L1549.2 51.6z" transform="matrix(0.6893654153687223, 0.12155372229680364, -0.12155372229680364, 0.6893654153687223, 0, 0)"/>
      <path fill="url(#b)" d="M1549.2 51.6c-5.4 99.1-20.2 197.6-44.2 293.6c-24.1 96-57.4 189.4-99.3 278.6c-41.9 89.2-92.4 174.1-150.3 253.3c-58 79.2-123.4 152.6-195.1 219c-71.7 66.4-149.6 125.8-232.2 177.2c-82.7 51.4-170.1 94.7-260.7 129.1c-90.6 34.4-184.4 60-279.5 76.3C192.6 1495 96.1 1502 0 1500c96.1-2.1 191.8-13.3 285.4-33.6c93.6-20.2 185-49.5 272.5-87.2c87.6-37.7 171.3-83.8 249.6-137.3c78.4-53.5 151.5-114.5 217.9-181.7c66.5-67.2 126.4-140.7 178.6-218.9c52.3-78.3 96.9-161.4 133-247.9c36.1-86.5 63.8-176.2 82.6-267.6c18.8-91.4 28.6-184.4 29.6-277.4c0.3-27.6 23.2-48.7 50.8-48.4s49.5 21.8 49.2 49.5c0 0.7 0 1.3-0.1 2L1549.2 51.6z" transform="matrix(0.6396471392266232, -0.5367276786086617, 0.5367276786086617, 0.6396471392266232, 0, 0)"/>
      <path fill="url(#b)" d="M1549.2 51.6c-5.4 99.1-20.2 197.6-44.2 293.6c-24.1 96-57.4 189.4-99.3 278.6c-41.9 89.2-92.4 174.1-150.3 253.3c-58 79.2-123.4 152.6-195.1 219c-71.7 66.4-149.6 125.8-232.2 177.2c-82.7 51.4-170.1 94.7-260.7 129.1c-90.6 34.4-184.4 60-279.5 76.3C192.6 1495 96.1 1502 0 1500c96.1-2.1 191.8-13.3 285.4-33.6c93.6-20.2 185-49.5 272.5-87.2c87.6-37.7 171.3-83.8 249.6-137.3c78.4-53.5 151.5-114.5 217.9-181.7c66.5-67.2 126.4-140.7 178.6-218.9c52.3-78.3 96.9-161.4 133-247.9c36.1-86.5 63.8-176.2 82.6-267.6c18.8-91.4 28.6-184.4 29.6-277.4c0.3-27.6 23.2-48.7 50.8-48.4s49.5 21.8 49.2 49.5c0 0.7 0 1.3-0.1 2L1549.2 51.6z" transform="matrix(0.6894400262029644, 0.5785088717057616, -0.5785088717057616, 0.6894400262029644, 0, 0)"/>
      <path fill="url(#b)" d="M1549.2 51.6c-5.4 99.1-20.2 197.6-44.2 293.6c-24.1 96-57.4 189.4-99.3 278.6c-41.9 89.2-92.4 174.1-150.3 253.3c-58 79.2-123.4 152.6-195.1 219c-71.7 66.4-149.6 125.8-232.2 177.2c-82.7 51.4-170.1 94.7-260.7 129.1c-90.6 34.4-184.4 60-279.5 76.3C192.6 1495 96.1 1502 0 1500c96.1-2.1 191.8-13.3 285.4-33.6c93.6-20.2 185-49.5 272.5-87.2c87.6-37.7 171.3-83.8 249.6-137.3c78.4-53.5 151.5-114.5 217.9-181.7c66.5-67.2 126.4-140.7 178.6-218.9c52.3-78.3 96.9-161.4 133-247.9c36.1-86.5 63.8-176.2 82.6-267.6c18.8-91.4 28.6-184.4 29.6-277.4c0.3-27.6 23.2-48.7 50.8-48.4s49.5 21.8 49.2 49.5c0 0.7 0 1.3-0.1 2L1549.2 51.6z" transform="matrix(0.9516231331723595, 0.44374915467572534, -0.44374915467572534, 0.9516231331723595, 0, 0)"/>
      <path fill="url(#b)" d="M1549.2 51.6c-5.4 99.1-20.2 197.6-44.2 293.6c-24.1 96-57.4 189.4-99.3 278.6c-41.9 89.2-92.4 174.1-150.3 253.3c-58 79.2-123.4 152.6-195.1 219c-71.7 66.4-149.6 125.8-232.2 177.2c-82.7 51.4-170.1 94.7-260.7 129.1c-90.6 34.4-184.4 60-279.5 76.3C192.6 1495 96.1 1502 0 1500c96.1-2.1 191.8-13.3 285.4-33.6c93.6-20.2 185-49.5 272.5-87.2c87.6-37.7 171.3-83.8 249.6-137.3c78.4-53.5 151.5-114.5 217.9-181.7c66.5-67.2 126.4-140.7 178.6-218.9c52.3-78.3 96.9-161.4 133-247.9c36.1-86.5 63.8-176.2 82.6-267.6c18.8-91.4 28.6-184.4 29.6-277.4c0.3-27.6 23.2-48.7 50.8-48.4s49.5 21.8 49.2 49.5c0 0.7 0 1.3-0.1 2L1549.2 51.6z" transform="matrix(1.1883217297095456, 0.16700772778836911, -0.16700772778836911, 1.1883217297095456, 0, 0)"/>
      <path fill="url(#b)" d="M1549.2 51.6c-5.4 99.1-20.2 197.6-44.2 293.6c-24.1 96-57.4 189.4-99.3 278.6c-41.9 89.2-92.4 174.1-150.3 253.3c-58 79.2-123.4 152.6-195.1 219c-71.7 66.4-149.6 125.8-232.2 177.2c-82.7 51.4-170.1 94.7-260.7 129.1c-90.6 34.4-184.4 60-279.5 76.3C192.6 1495 96.1 1502 0 1500c96.1-2.1 191.8-13.3 285.4-33.6c93.6-20.2 185-49.5 272.5-87.2c87.6-37.7 171.3-83.8 249.6-137.3c78.4-53.5 151.5-114.5 217.9-181.7c66.5-67.2 126.4-140.7 178.6-218.9c52.3-78.3 96.9-161.4 133-247.9c36.1-86.5 63.8-176.2 82.6-267.6c18.8-91.4 28.6-184.4 29.6-277.4c0.3-27.6 23.2-48.7 50.8-48.4s49.5 21.8 49.2 49.5c0 0.7 0 1.3-0.1 2L1549.2 51.6z" transform="matrix(0.6664999723434449, -1.154411815342098, 1.154411815342098, 0.6664999723434449, 0, 0)"/>
      <path fill="url(#b)" d="M1549.2 51.6c-5.4 99.1-20.2 197.6-44.2 293.6c-24.1 96-57.4 189.4-99.3 278.6c-41.9 89.2-92.4 174.1-150.3 253.3c-58 79.2-123.4 152.6-195.1 219c-71.7 66.4-149.6 125.8-232.2 177.2c-82.7 51.4-170.1 94.7-260.7 129.1c-90.6 34.4-184.4 60-279.5 76.3C192.6 1495 96.1 1502 0 1500c96.1-2.1 191.8-13.3 285.4-33.6c93.6-20.2 185-49.5 272.5-87.2c87.6-37.7 171.3-83.8 249.6-137.3c78.4-53.5 151.5-114.5 217.9-181.7c66.5-67.2 126.4-140.7 178.6-218.9c52.3-78.3 96.9-161.4 133-247.9c36.1-86.5 63.8-176.2 82.6-267.6c18.8-91.4 28.6-184.4 29.6-277.4c0.3-27.6 23.2-48.7 50.8-48.4s49.5 21.8 49.2 49.5c0 0.7 0 1.3-0.1 2L1549.2 51.6z" transform="matrix(1.2557368767827455, -0.7250000238418578, 0.7250000238418578, 1.2557368767827455, 0, 0)"/>
      <path fill="url(#b)" d="M1549.2 51.6c-5.4 99.1-20.2 197.6-44.2 293.6c-24.1 96-57.4 189.4-99.3 278.6c-41.9 89.2-92.4 174.1-150.3 253.3c-58 79.2-123.4 152.6-195.1 219c-71.7 66.4-149.6 125.8-232.2 177.2c-82.7 51.4-170.1 94.7-260.7 129.1c-90.6 34.4-184.4 60-279.5 76.3C192.6 1495 96.1 1502 0 1500c96.1-2.1 191.8-13.3 285.4-33.6c93.6-20.2 185-49.5 272.5-87.2c87.6-37.7 171.3-83.8 249.6-137.3c78.4-53.5 151.5-114.5 217.9-181.7c66.5-67.2 126.4-140.7 178.6-218.9c52.3-78.3 96.9-161.4 133-247.9c36.1-86.5 63.8-176.2 82.6-267.6c18.8-91.4 28.6-184.4 29.6-277.4c0.3-27.6 23.2-48.7 50.8-48.4s49.5 21.8 49.2 49.5c0 0.7 0 1.3-0.1 2L1549.2 51.6z" transform="matrix(1.5756924282991793, 0.2778370884071837, -0.2778370884071837, 1.5756924282991793, 0, 0)"/>
    </g>
    <linearGradient id="gradient-2" bx:pinned="true">
      <stop offset="0" style="stop-color: rgb(16, 4, 22);"/>
      <stop offset="1" style="stop-color: rgb(172, 57, 234);"/>
    </linearGradient>
    <linearGradient id="gradient-3" gradientUnits="userSpaceOnUse" x1="0" y1="750" x2="1550" y2="750" gradientTransform="matrix(0.154054, -0.309268, 0.385907, 0.190746, -1173.268758, 192.686562)">
      <stop offset="0" style="stop-color: rgb(22, 22, 22);"/>
      <stop offset="1" style="stop-color: rgb(93, 72, 72); stop-opacity: 0.27;"/>
    </linearGradient>
    <linearGradient id="gradient-4" gradientUnits="userSpaceOnUse" x1="0" y1="750" x2="1550" y2="750" gradientTransform="matrix(0.225605, -0.348562, 0.250319, 0.159617, -1119.707477, 386.87021)">
      <stop offset="0" style=""/>
      <stop offset="1" style="stop-color: rgb(207, 69, 69); stop-opacity: 0.67;"/>
    </linearGradient>
    <linearGradient id="gradient-5" gradientUnits="userSpaceOnUse" x1="0" y1="750" x2="1550" y2="750" gradientTransform="matrix(0.126381, -0.300262, 0.225505, 0.094916, -766.349128, -29.952176)">
      <stop offset="0" style="stop-color: rgb(49, 51, 80);"/>
      <stop offset="1" style="stop-color: rgb(204, 54, 8);"/>
    </linearGradient>
    <linearGradient id="gradient-6" gradientUnits="userSpaceOnUse" x1="0" y1="750" x2="1550" y2="750" gradientTransform="matrix(0.286892, -0.444827, 0.361599, 0.233568, -1332.528972, 166.669647)">
      <stop offset="0" style="stop-color: rgb(223, 221, 224);"/>
      <stop offset="1" style="stop-color: rgb(139, 30, 30); stop-opacity: 0.09;"/>
    </linearGradient>
    <linearGradient id="gradient-7" gradientUnits="userSpaceOnUse" x1="-2866.946" y1="2889.221" x2="-1316.946" y2="2889.221" gradientTransform="matrix(0.102379, -0.341881, 0.41238, 0.123491, -1539.393927, -1227.572505)">
      <stop offset="0" style="stop-color: rgb(143, 143, 143);"/>
      <stop offset="1" style="stop-color: rgb(161, 7, 7); stop-opacity: 0;"/>
    </linearGradient>
    <linearGradient id="gradient-8" gradientUnits="userSpaceOnUse" x1="0" y1="750" x2="1550" y2="750" gradientTransform="matrix(0.206139, -0.311784, 0.248271, 0.162786, -1052.625285, 145.657774)">
      <stop offset="0" style="stop-color: rgb(203, 203, 203);"/>
      <stop offset="1" style="stop-color: rgb(223, 48, 48);"/>
    </linearGradient>
    <filter id="drop-shadow-filter-1" x="-500%" y="-500%" width="1000%" height="1000%" bx:preset="drop-shadow 1 2 -1 3 1 rgba(0,0,0,0.3)">
      <feGaussianBlur in="SourceAlpha" stdDeviation="3"/>
      <feOffset dx="2" dy="-1"/>
      <feComponentTransfer result="offsetblur">
        <feFuncA id="spread-ctrl" type="linear" slope="2"/>
      </feComponentTransfer>
      <feFlood flood-color="rgba(0,0,0,0.3)"/>
      <feComposite in2="offsetblur" operator="in"/>
      <feMerge>
        <feMergeNode/>
        <feMergeNode in="SourceGraphic"/>
      </feMerge>
    </filter>
    <filter id="drop-shadow-filter-2" x="-500%" y="-500%" width="1000%" height="1000%" bx:preset="drop-shadow 1 0 6 4 1 rgba(0,0,0,0.3)">
      <feGaussianBlur in="SourceAlpha" stdDeviation="4"/>
      <feOffset dx="0" dy="6"/>
      <feComponentTransfer result="offsetblur">
        <feFuncA id="spread-ctrl" type="linear" slope="2"/>
      </feComponentTransfer>
      <feFlood flood-color="rgba(0,0,0,0.3)"/>
      <feComposite in2="offsetblur" operator="in"/>
      <feMerge>
        <feMergeNode/>
        <feMergeNode in="SourceGraphic"/>
      </feMerge>
    </filter>
    <linearGradient id="gradient-9" bx:pinned="true">
      <stop offset="0" style="stop-color: rgb(41, 42, 54);"/>
      <stop offset="1" style="stop-color: rgb(34, 45, 69);"/>
    </linearGradient>
    <linearGradient id="gradient-9-1" gradientUnits="userSpaceOnUse" x1="248.466" y1="137.954" x2="248.466" y2="455.604" gradientTransform="matrix(0.993631, -0.112685, 0.128837, 1.136045, -308.031418, 20.771343)" xlink:href="#gradient-9"/>
    <linearGradient id="gradient-10" gradientUnits="userSpaceOnUse" x1="0" y1="750" x2="1550" y2="750" gradientTransform="matrix(2.320001, 0.000001, -0.000001, 2.320001, 5461.94334, -7232.311372)">
      <stop offset="0" stop-color="#581e77"/>
      <stop offset="1" stop-color="#B03BEE"/>
    </linearGradient>
    <path id="path-1" fill="url(#gradient-10)" d="M1549.2 51.6c-5.4 99.1-20.2 197.6-44.2 293.6c-24.1 96-57.4 189.4-99.3 278.6c-41.9 89.2-92.4 174.1-150.3 253.3c-58 79.2-123.4 152.6-195.1 219c-71.7 66.4-149.6 125.8-232.2 177.2c-82.7 51.4-170.1 94.7-260.7 129.1c-90.6 34.4-184.4 60-279.5 76.3C192.6 1495 96.1 1502 0 1500c96.1-2.1 191.8-13.3 285.4-33.6c93.6-20.2 185-49.5 272.5-87.2c87.6-37.7 171.3-83.8 249.6-137.3c78.4-53.5 151.5-114.5 217.9-181.7c66.5-67.2 126.4-140.7 178.6-218.9c52.3-78.3 96.9-161.4 133-247.9c36.1-86.5 63.8-176.2 82.6-267.6c18.8-91.4 28.6-184.4 29.6-277.4c0.3-27.6 23.2-48.7 50.8-48.4s49.5 21.8 49.2 49.5c0 0.7 0 1.3-0.1 2L1549.2 51.6z"/>
    <g id="g-1">
      <path fill="url(#gradient-10)" d="M1549.2 51.6c-5.4 99.1-20.2 197.6-44.2 293.6c-24.1 96-57.4 189.4-99.3 278.6c-41.9 89.2-92.4 174.1-150.3 253.3c-58 79.2-123.4 152.6-195.1 219c-71.7 66.4-149.6 125.8-232.2 177.2c-82.7 51.4-170.1 94.7-260.7 129.1c-90.6 34.4-184.4 60-279.5 76.3C192.6 1495 96.1 1502 0 1500c96.1-2.1 191.8-13.3 285.4-33.6c93.6-20.2 185-49.5 272.5-87.2c87.6-37.7 171.3-83.8 249.6-137.3c78.4-53.5 151.5-114.5 217.9-181.7c66.5-67.2 126.4-140.7 178.6-218.9c52.3-78.3 96.9-161.4 133-247.9c36.1-86.5 63.8-176.2 82.6-267.6c18.8-91.4 28.6-184.4 29.6-277.4c0.3-27.6 23.2-48.7 50.8-48.4s49.5 21.8 49.2 49.5c0 0.7 0 1.3-0.1 2L1549.2 51.6z" transform="matrix(0.060000002384185805, 0.10392305258366355, -0.10392305258366355, 0.060000002384185805, 0, 0)"/>
      <path fill="url(#gradient-10)" d="M1549.2 51.6c-5.4 99.1-20.2 197.6-44.2 293.6c-24.1 96-57.4 189.4-99.3 278.6c-41.9 89.2-92.4 174.1-150.3 253.3c-58 79.2-123.4 152.6-195.1 219c-71.7 66.4-149.6 125.8-232.2 177.2c-82.7 51.4-170.1 94.7-260.7 129.1c-90.6 34.4-184.4 60-279.5 76.3C192.6 1495 96.1 1502 0 1500c96.1-2.1 191.8-13.3 285.4-33.6c93.6-20.2 185-49.5 272.5-87.2c87.6-37.7 171.3-83.8 249.6-137.3c78.4-53.5 151.5-114.5 217.9-181.7c66.5-67.2 126.4-140.7 178.6-218.9c52.3-78.3 96.9-161.4 133-247.9c36.1-86.5 63.8-176.2 82.6-267.6c18.8-91.4 28.6-184.4 29.6-277.4c0.3-27.6 23.2-48.7 50.8-48.4s49.5 21.8 49.2 49.5c0 0.7 0 1.3-0.1 2L1549.2 51.6z" transform="matrix(0.19696155353739742, 0.03472963605089796, -0.03472963605089796, 0.19696155353739742, 0, 0)"/>
      <path fill="url(#gradient-10)" d="M1549.2 51.6c-5.4 99.1-20.2 197.6-44.2 293.6c-24.1 96-57.4 189.4-99.3 278.6c-41.9 89.2-92.4 174.1-150.3 253.3c-58 79.2-123.4 152.6-195.1 219c-71.7 66.4-149.6 125.8-232.2 177.2c-82.7 51.4-170.1 94.7-260.7 129.1c-90.6 34.4-184.4 60-279.5 76.3C192.6 1495 96.1 1502 0 1500c96.1-2.1 191.8-13.3 285.4-33.6c93.6-20.2 185-49.5 272.5-87.2c87.6-37.7 171.3-83.8 249.6-137.3c78.4-53.5 151.5-114.5 217.9-181.7c66.5-67.2 126.4-140.7 178.6-218.9c52.3-78.3 96.9-161.4 133-247.9c36.1-86.5 63.8-176.2 82.6-267.6c18.8-91.4 28.6-184.4 29.6-277.4c0.3-27.6 23.2-48.7 50.8-48.4s49.5 21.8 49.2 49.5c0 0.7 0 1.3-0.1 2L1549.2 51.6z" transform="matrix(0.19151111077974453, 0.1606969024216348, -0.1606969024216348, 0.19151111077974453, 0, 0)"/>
      <path fill="url(#gradient-10)" d="M1549.2 51.6c-5.4 99.1-20.2 197.6-44.2 293.6c-24.1 96-57.4 189.4-99.3 278.6c-41.9 89.2-92.4 174.1-150.3 253.3c-58 79.2-123.4 152.6-195.1 219c-71.7 66.4-149.6 125.8-232.2 177.2c-82.7 51.4-170.1 94.7-260.7 129.1c-90.6 34.4-184.4 60-279.5 76.3C192.6 1495 96.1 1502 0 1500c96.1-2.1 191.8-13.3 285.4-33.6c93.6-20.2 185-49.5 272.5-87.2c87.6-37.7 171.3-83.8 249.6-137.3c78.4-53.5 151.5-114.5 217.9-181.7c66.5-67.2 126.4-140.7 178.6-218.9c52.3-78.3 96.9-161.4 133-247.9c36.1-86.5 63.8-176.2 82.6-267.6c18.8-91.4 28.6-184.4 29.6-277.4c0.3-27.6 23.2-48.7 50.8-48.4s49.5 21.8 49.2 49.5c0 0.7 0 1.3-0.1 2L1549.2 51.6z" transform="matrix(0.2819077974377815, -0.10260604707489844, 0.10260604707489844, 0.2819077974377815, 0, 0)"/>
      <path fill="url(#gradient-10)" d="M1549.2 51.6c-5.4 99.1-20.2 197.6-44.2 293.6c-24.1 96-57.4 189.4-99.3 278.6c-41.9 89.2-92.4 174.1-150.3 253.3c-58 79.2-123.4 152.6-195.1 219c-71.7 66.4-149.6 125.8-232.2 177.2c-82.7 51.4-170.1 94.7-260.7 129.1c-90.6 34.4-184.4 60-279.5 76.3C192.6 1495 96.1 1502 0 1500c96.1-2.1 191.8-13.3 285.4-33.6c93.6-20.2 185-49.5 272.5-87.2c87.6-37.7 171.3-83.8 249.6-137.3c78.4-53.5 151.5-114.5 217.9-181.7c66.5-67.2 126.4-140.7 178.6-218.9c52.3-78.3 96.9-161.4 133-247.9c36.1-86.5 63.8-176.2 82.6-267.6c18.8-91.4 28.6-184.4 29.6-277.4c0.3-27.6 23.2-48.7 50.8-48.4s49.5 21.8 49.2 49.5c0 0.7 0 1.3-0.1 2L1549.2 51.6z" transform="matrix(0.34641016667568914, -0.2000000029802322, 0.2000000029802322, 0.34641016667568914, 0, 0)"/>
      <path fill="url(#gradient-10)" d="M1549.2 51.6c-5.4 99.1-20.2 197.6-44.2 293.6c-24.1 96-57.4 189.4-99.3 278.6c-41.9 89.2-92.4 174.1-150.3 253.3c-58 79.2-123.4 152.6-195.1 219c-71.7 66.4-149.6 125.8-232.2 177.2c-82.7 51.4-170.1 94.7-260.7 129.1c-90.6 34.4-184.4 60-279.5 76.3C192.6 1495 96.1 1502 0 1500c96.1-2.1 191.8-13.3 285.4-33.6c93.6-20.2 185-49.5 272.5-87.2c87.6-37.7 171.3-83.8 249.6-137.3c78.4-53.5 151.5-114.5 217.9-181.7c66.5-67.2 126.4-140.7 178.6-218.9c52.3-78.3 96.9-161.4 133-247.9c36.1-86.5 63.8-176.2 82.6-267.6c18.8-91.4 28.6-184.4 29.6-277.4c0.3-27.6 23.2-48.7 50.8-48.4s49.5 21.8 49.2 49.5c0 0.7 0 1.3-0.1 2L1549.2 51.6z" transform="matrix(0.4698463103929542, 0.17101007166283436, -0.17101007166283436, 0.4698463103929542, 0, 0)"/>
      <path fill="url(#gradient-10)" d="M1549.2 51.6c-5.4 99.1-20.2 197.6-44.2 293.6c-24.1 96-57.4 189.4-99.3 278.6c-41.9 89.2-92.4 174.1-150.3 253.3c-58 79.2-123.4 152.6-195.1 219c-71.7 66.4-149.6 125.8-232.2 177.2c-82.7 51.4-170.1 94.7-260.7 129.1c-90.6 34.4-184.4 60-279.5 76.3C192.6 1495 96.1 1502 0 1500c96.1-2.1 191.8-13.3 285.4-33.6c93.6-20.2 185-49.5 272.5-87.2c87.6-37.7 171.3-83.8 249.6-137.3c78.4-53.5 151.5-114.5 217.9-181.7c66.5-67.2 126.4-140.7 178.6-218.9c52.3-78.3 96.9-161.4 133-247.9c36.1-86.5 63.8-176.2 82.6-267.6c18.8-91.4 28.6-184.4 29.6-277.4c0.3-27.6 23.2-48.7 50.8-48.4s49.5 21.8 49.2 49.5c0 0.7 0 1.3-0.1 2L1549.2 51.6z" transform="matrix(0.300000011920929, 0.5196152629183178, -0.5196152629183178, 0.300000011920929, 0, 0)"/>
      <path fill="url(#gradient-10)" d="M1549.2 51.6c-5.4 99.1-20.2 197.6-44.2 293.6c-24.1 96-57.4 189.4-99.3 278.6c-41.9 89.2-92.4 174.1-150.3 253.3c-58 79.2-123.4 152.6-195.1 219c-71.7 66.4-149.6 125.8-232.2 177.2c-82.7 51.4-170.1 94.7-260.7 129.1c-90.6 34.4-184.4 60-279.5 76.3C192.6 1495 96.1 1502 0 1500c96.1-2.1 191.8-13.3 285.4-33.6c93.6-20.2 185-49.5 272.5-87.2c87.6-37.7 171.3-83.8 249.6-137.3c78.4-53.5 151.5-114.5 217.9-181.7c66.5-67.2 126.4-140.7 178.6-218.9c52.3-78.3 96.9-161.4 133-247.9c36.1-86.5 63.8-176.2 82.6-267.6c18.8-91.4 28.6-184.4 29.6-277.4c0.3-27.6 23.2-48.7 50.8-48.4s49.5 21.8 49.2 49.5c0 0.7 0 1.3-0.1 2L1549.2 51.6z" transform="matrix(0.6893654153687223, 0.12155372229680364, -0.12155372229680364, 0.6893654153687223, 0, 0)"/>
      <path fill="url(#gradient-10)" d="M1549.2 51.6c-5.4 99.1-20.2 197.6-44.2 293.6c-24.1 96-57.4 189.4-99.3 278.6c-41.9 89.2-92.4 174.1-150.3 253.3c-58 79.2-123.4 152.6-195.1 219c-71.7 66.4-149.6 125.8-232.2 177.2c-82.7 51.4-170.1 94.7-260.7 129.1c-90.6 34.4-184.4 60-279.5 76.3C192.6 1495 96.1 1502 0 1500c96.1-2.1 191.8-13.3 285.4-33.6c93.6-20.2 185-49.5 272.5-87.2c87.6-37.7 171.3-83.8 249.6-137.3c78.4-53.5 151.5-114.5 217.9-181.7c66.5-67.2 126.4-140.7 178.6-218.9c52.3-78.3 96.9-161.4 133-247.9c36.1-86.5 63.8-176.2 82.6-267.6c18.8-91.4 28.6-184.4 29.6-277.4c0.3-27.6 23.2-48.7 50.8-48.4s49.5 21.8 49.2 49.5c0 0.7 0 1.3-0.1 2L1549.2 51.6z" transform="matrix(0.6396471392266232, -0.5367276786086617, 0.5367276786086617, 0.6396471392266232, 0, 0)"/>
      <path fill="url(#gradient-10)" d="M1549.2 51.6c-5.4 99.1-20.2 197.6-44.2 293.6c-24.1 96-57.4 189.4-99.3 278.6c-41.9 89.2-92.4 174.1-150.3 253.3c-58 79.2-123.4 152.6-195.1 219c-71.7 66.4-149.6 125.8-232.2 177.2c-82.7 51.4-170.1 94.7-260.7 129.1c-90.6 34.4-184.4 60-279.5 76.3C192.6 1495 96.1 1502 0 1500c96.1-2.1 191.8-13.3 285.4-33.6c93.6-20.2 185-49.5 272.5-87.2c87.6-37.7 171.3-83.8 249.6-137.3c78.4-53.5 151.5-114.5 217.9-181.7c66.5-67.2 126.4-140.7 178.6-218.9c52.3-78.3 96.9-161.4 133-247.9c36.1-86.5 63.8-176.2 82.6-267.6c18.8-91.4 28.6-184.4 29.6-277.4c0.3-27.6 23.2-48.7 50.8-48.4s49.5 21.8 49.2 49.5c0 0.7 0 1.3-0.1 2L1549.2 51.6z" transform="matrix(0.6894400262029644, 0.5785088717057616, -0.5785088717057616, 0.6894400262029644, 0, 0)"/>
      <path fill="url(#gradient-10)" d="M1549.2 51.6c-5.4 99.1-20.2 197.6-44.2 293.6c-24.1 96-57.4 189.4-99.3 278.6c-41.9 89.2-92.4 174.1-150.3 253.3c-58 79.2-123.4 152.6-195.1 219c-71.7 66.4-149.6 125.8-232.2 177.2c-82.7 51.4-170.1 94.7-260.7 129.1c-90.6 34.4-184.4 60-279.5 76.3C192.6 1495 96.1 1502 0 1500c96.1-2.1 191.8-13.3 285.4-33.6c93.6-20.2 185-49.5 272.5-87.2c87.6-37.7 171.3-83.8 249.6-137.3c78.4-53.5 151.5-114.5 217.9-181.7c66.5-67.2 126.4-140.7 178.6-218.9c52.3-78.3 96.9-161.4 133-247.9c36.1-86.5 63.8-176.2 82.6-267.6c18.8-91.4 28.6-184.4 29.6-277.4c0.3-27.6 23.2-48.7 50.8-48.4s49.5 21.8 49.2 49.5c0 0.7 0 1.3-0.1 2L1549.2 51.6z" transform="matrix(0.9516231331723595, 0.44374915467572534, -0.44374915467572534, 0.9516231331723595, 0, 0)"/>
      <path fill="url(#gradient-10)" d="M1549.2 51.6c-5.4 99.1-20.2 197.6-44.2 293.6c-24.1 96-57.4 189.4-99.3 278.6c-41.9 89.2-92.4 174.1-150.3 253.3c-58 79.2-123.4 152.6-195.1 219c-71.7 66.4-149.6 125.8-232.2 177.2c-82.7 51.4-170.1 94.7-260.7 129.1c-90.6 34.4-184.4 60-279.5 76.3C192.6 1495 96.1 1502 0 1500c96.1-2.1 191.8-13.3 285.4-33.6c93.6-20.2 185-49.5 272.5-87.2c87.6-37.7 171.3-83.8 249.6-137.3c78.4-53.5 151.5-114.5 217.9-181.7c66.5-67.2 126.4-140.7 178.6-218.9c52.3-78.3 96.9-161.4 133-247.9c36.1-86.5 63.8-176.2 82.6-267.6c18.8-91.4 28.6-184.4 29.6-277.4c0.3-27.6 23.2-48.7 50.8-48.4s49.5 21.8 49.2 49.5c0 0.7 0 1.3-0.1 2L1549.2 51.6z" transform="matrix(1.1883217297095456, 0.16700772778836911, -0.16700772778836911, 1.1883217297095456, 0, 0)"/>
      <path fill="url(#gradient-10)" d="M1549.2 51.6c-5.4 99.1-20.2 197.6-44.2 293.6c-24.1 96-57.4 189.4-99.3 278.6c-41.9 89.2-92.4 174.1-150.3 253.3c-58 79.2-123.4 152.6-195.1 219c-71.7 66.4-149.6 125.8-232.2 177.2c-82.7 51.4-170.1 94.7-260.7 129.1c-90.6 34.4-184.4 60-279.5 76.3C192.6 1495 96.1 1502 0 1500c96.1-2.1 191.8-13.3 285.4-33.6c93.6-20.2 185-49.5 272.5-87.2c87.6-37.7 171.3-83.8 249.6-137.3c78.4-53.5 151.5-114.5 217.9-181.7c66.5-67.2 126.4-140.7 178.6-218.9c52.3-78.3 96.9-161.4 133-247.9c36.1-86.5 63.8-176.2 82.6-267.6c18.8-91.4 28.6-184.4 29.6-277.4c0.3-27.6 23.2-48.7 50.8-48.4s49.5 21.8 49.2 49.5c0 0.7 0 1.3-0.1 2L1549.2 51.6z" transform="matrix(0.6664999723434449, -1.154411815342098, 1.154411815342098, 0.6664999723434449, 0, 0)"/>
      <path fill="url(#gradient-10)" d="M1549.2 51.6c-5.4 99.1-20.2 197.6-44.2 293.6c-24.1 96-57.4 189.4-99.3 278.6c-41.9 89.2-92.4 174.1-150.3 253.3c-58 79.2-123.4 152.6-195.1 219c-71.7 66.4-149.6 125.8-232.2 177.2c-82.7 51.4-170.1 94.7-260.7 129.1c-90.6 34.4-184.4 60-279.5 76.3C192.6 1495 96.1 1502 0 1500c96.1-2.1 191.8-13.3 285.4-33.6c93.6-20.2 185-49.5 272.5-87.2c87.6-37.7 171.3-83.8 249.6-137.3c78.4-53.5 151.5-114.5 217.9-181.7c66.5-67.2 126.4-140.7 178.6-218.9c52.3-78.3 96.9-161.4 133-247.9c36.1-86.5 63.8-176.2 82.6-267.6c18.8-91.4 28.6-184.4 29.6-277.4c0.3-27.6 23.2-48.7 50.8-48.4s49.5 21.8 49.2 49.5c0 0.7 0 1.3-0.1 2L1549.2 51.6z" transform="matrix(1.2557368767827455, -0.7250000238418578, 0.7250000238418578, 1.2557368767827455, 0, 0)"/>
      <path fill="url(#gradient-10)" d="M1549.2 51.6c-5.4 99.1-20.2 197.6-44.2 293.6c-24.1 96-57.4 189.4-99.3 278.6c-41.9 89.2-92.4 174.1-150.3 253.3c-58 79.2-123.4 152.6-195.1 219c-71.7 66.4-149.6 125.8-232.2 177.2c-82.7 51.4-170.1 94.7-260.7 129.1c-90.6 34.4-184.4 60-279.5 76.3C192.6 1495 96.1 1502 0 1500c96.1-2.1 191.8-13.3 285.4-33.6c93.6-20.2 185-49.5 272.5-87.2c87.6-37.7 171.3-83.8 249.6-137.3c78.4-53.5 151.5-114.5 217.9-181.7c66.5-67.2 126.4-140.7 178.6-218.9c52.3-78.3 96.9-161.4 133-247.9c36.1-86.5 63.8-176.2 82.6-267.6c18.8-91.4 28.6-184.4 29.6-277.4c0.3-27.6 23.2-48.7 50.8-48.4s49.5 21.8 49.2 49.5c0 0.7 0 1.3-0.1 2L1549.2 51.6z" transform="matrix(1.5756924282991793, 0.2778370884071837, -0.2778370884071837, 1.5756924282991793, 0, 0)"/>
    </g>
    <style bx:fonts="Poppins">@import url(https://fonts.googleapis.com/css2?family=Poppins%3Aital%2Cwght%400%2C100%3B0%2C200%3B0%2C300%3B0%2C400%3B0%2C500%3B0%2C600%3B0%2C700%3B0%2C800%3B0%2C900%3B1%2C100%3B1%2C200%3B1%2C300%3B1%2C400%3B1%2C500%3B1%2C600%3B1%2C700%3B1%2C800%3B1%2C900&amp;display=swap);</style>
    <filter id="filter-2" x="-500%" y="-500%" width="1000%" height="1000%" bx:preset="drop-shadow 1 3 6 2 1 rgba(0,0,0,0.3)">
      <feGaussianBlur in="SourceAlpha" stdDeviation="2"/>
      <feOffset dx="3" dy="6"/>
      <feComponentTransfer result="offsetblur">
        <feFuncA id="feFuncA-1" type="linear" slope="2"/>
      </feComponentTransfer>
      <feFlood flood-color="rgba(0,0,0,0.3)"/>
      <feComposite in2="offsetblur" operator="in"/>
      <feMerge>
        <feMergeNode/>
        <feMergeNode in="SourceGraphic"/>
      </feMerge>
    </filter>
  </defs>
  <path d="M 248.467 137.954 L 442.296 455.604 L 54.637 455.604 L 248.467 137.954 Z" style="stroke-dashoffset: 68px; paint-order: stroke; fill-rule: nonzero; fill: url(#gradient-9-1); filter: none; vector-effect: non-scaling-stroke; stroke-width: 8px; stroke: rgb(50, 45, 62);" bx:shape="triangle 54.637 137.954 387.659 317.65 0.5 0 1@aad2c3bb">
    <title>Triangle</title>
  </path>
  <g transform="matrix(0.387857, 0, 0, 0.387857, 353.505859, 282.383545)" style="">
    <title>Swooshes</title>
    <path d="M -432.301 -107.558 C -436.655 -78.626 -443.821 -50.186 -453.576 -22.742 C -463.36 4.711 -475.74 31.141 -490.507 56.114 C -505.274 81.087 -522.399 104.594 -541.541 126.225 C -560.71 147.863 -581.903 167.596 -604.762 185.068 C -608.676 188.06 -612.639 190.986 -616.648 193.846 L -605.972 176.35 C -585.59 158.954 -566.857 139.735 -550.064 119.038 C -532.297 97.167 -516.673 73.612 -503.482 48.861 C -490.262 24.101 -479.454 -1.892 -471.236 -28.567 C -468.32 -38.024 -465.729 -47.57 -463.469 -57.185 L -432.161 -108.492 C -432.208 -108.18 -432.254 -107.869 -432.301 -107.558 Z" style="fill-opacity: 0.12; fill: rgb(174, 65, 26);"/>
    <path fill="url(#gradient-3)" d="M 99.803 305.909 C 84.037 326.6 66.328 345.679 47.048 362.914 C 65.576 344.872 82.357 325.113 97.054 303.948 C 105.176 292.278 112.658 280.186 119.464 267.747 L 122.523 272.761 C 115.497 284.193 107.911 295.262 99.803 305.909 Z" style=""/>
    <path fill="url(#gradient-5)" d="M -43.362 83.005 C -43.179 117.312 -66.199 181.696 -76.972 215.264 C -67.159 181.403 -55.32 122.211 -56.051 87.53 C -57.09 38.206 -66.536 -10.818 -72.564 -47.477 L -48.799 -8.529 C -45.657 14.397 -43.578 42.485 -43.362 83.005 Z" style="fill-opacity: 0.31;"/>
    <path fill="url(#gradient-6)" d="M -174.982 193.483 C -177.364 220.078 -182.268 246.424 -189.622 272.011 C -197.004 297.598 -206.835 322.399 -218.939 345.99 C -231.042 369.581 -245.416 391.935 -261.727 412.688 C -271.064 424.546 -281.032 435.873 -291.576 446.609 L -311.974 446.609 C -298.655 432.814 -286.356 418.077 -275.21 402.579 C -260.413 382.016 -247.642 360.09 -237.123 337.171 C -226.607 314.251 -218.316 290.393 -212.403 265.993 C -206.49 241.595 -202.982 216.68 -201.84 191.684 C -201.84 191.684 -200.183 185.858 -199.368 182.94 C -197.667 176.85 -192.14 177.384 -192.14 177.384 C -187.282 175.543 -177.967 177.702 -174.645 182.552 C -173.219 184.635 -174.86 190.683 -174.962 192.919 C -174.969 193.106 -174.975 193.268 -175.007 193.455 L -174.982 193.483 Z" style="fill-opacity: 0.33; stroke-opacity: 0.37;"/>
    <path fill="url(#gradient-7)" d="M -351.499 -193.723 C -352.052 -167.655 -355.122 -141.677 -360.643 -116.312 C -366.183 -90.896 -374.165 -66.119 -384.351 -42.349 C -375.188 -66.533 -368.334 -91.534 -363.963 -116.928 C -359.565 -142.312 -357.66 -168.066 -358.244 -193.692 C -358.487 -204.577 -359.178 -215.439 -360.31 -226.242 L -353.014 -238.199 C -351.693 -223.398 -351.185 -208.545 -351.499 -193.723 Z" style="fill-opacity: 0.38;"/>
    <path fill="url(#gradient-8)" d="M 31.915 178.53 C 29.482 207.686 24.211 236.537 16.291 264.567 C 8.342 292.606 -2.264 319.797 -15.349 345.691 C -28.434 371.586 -43.968 396.174 -61.639 419.022 C -69.002 428.533 -76.737 437.737 -84.819 446.609 L -97.437 446.609 C -87.926 435.646 -78.973 424.229 -70.618 412.415 C -54.335 389.416 -40.302 364.88 -28.775 339.311 C -17.219 313.731 -8.153 287.082 -1.716 259.92 C 4.739 232.72 8.554 204.981 9.653 177.175 C 10.752 149.37 9.182 121.542 4.959 94.161 C 3.932 87.501 2.746 80.869 1.406 74.272 L 33.261 126.476 C 33.807 143.855 33.358 161.241 31.915 178.53 Z" style="fill-opacity: 0.08;"/>
    <path fill="url(#gradient-4)" d="M -277.52 113.817 C -285.7 142.123 -298.62 138.872 -311.974 165.04 C -325.356 191.201 -349.485 214.396 -367.563 237.402 C -385.64 260.407 -410.122 280.44 -432.161 299.484 C -454.228 318.521 -479.676 331.155 -504.852 345.574 C -530.027 359.995 -556.529 371.975 -583.857 381.328 C -611.212 390.674 -639.387 397.362 -667.893 401.263 C -693.64 404.787 -719.664 406.058 -745.534 405.065 L -743.032 400.965 C -718.192 400.712 -693.424 398.344 -669.091 393.917 C -641.233 388.861 -613.941 381.116 -587.718 370.869 C -561.466 360.628 -536.246 347.864 -512.55 332.859 C -488.825 317.86 -466.589 300.599 -446.267 281.464 C -425.909 262.305 -414.154 239.809 -397.934 217.197 C -381.715 194.586 -361.015 171.923 -349.473 146.737 C -337.931 121.553 -348.488 119.802 -341.988 92.966 C -340.058 85.002 -319.938 65.31 -311.974 67.24 C -304.01 69.17 -289.614 57.962 -291.551 65.954 C -291.598 66.157 -278.873 60.903 -268.691 88.271 C -265.55 96.715 -277.52 113.817 -277.52 113.817 Z" style="fill-opacity: 0.15;"/>
  </g>
  <path style="filter: url(#drop-shadow-filter-1); fill-opacity: 0.32; fill: rgb(170, 86, 86);" d="M 251.091 251.495 C 253.81 251.168 258.067 249.343 259.805 248.379 C 261.542 247.413 263.466 244.903 262.594 244.227 C 261.725 243.542 255.233 247.688 249.812 246.566 C 244.394 245.448 242.609 244.742 240.366 242.693 C 238.126 240.646 239.344 235.178 240.174 233.574 C 241.003 231.977 242.602 230.921 247.102 230.247 C 251.597 229.582 261.48 232.319 261.677 236.606 C 261.877 240.891 255.431 241.394 252.916 240.938 C 250.401 240.485 257.064 239.992 258.525 239.089 C 259.648 238.399 260.364 237.146 259.163 235.272 C 258.441 234.156 256.307 233.247 255.146 232.606 C 253.09 231.475 244.792 231.659 244.176 234.208 C 243.901 235.329 243.604 237.382 243.666 238.241 C 243.74 239.316 246.582 241.312 246.582 241.312 C 246.582 241.312 248.092 242.668 253.134 243.812 C 256.775 244.638 262.913 242.589 264.454 240.861 C 266.391 238.69 266.758 237.861 267.116 235.639 C 267.553 232.917 267.169 229.267 265.244 227.289 C 260.438 222.366 250.946 218.008 247.201 218.441 C 245.132 218.683 239.763 219.671 235.671 223.364 C 232.354 226.364 230.971 228.821 231.076 231.654 C 231.341 238.718 232.461 240.319 232.461 240.319 C 232.461 240.319 235.669 246.252 238.07 248.539 C 240.684 251.032 244.037 252.346 251.091 251.495 Z" transform="matrix(0, 1, -1, 0, 484.25721, -14.092064)">
    <title>Spiral Logo</title>
  </path>
  <path transform="matrix(1, 0, 0, 1, 42.96091842651367, 77.44990539550781)" style="fill: rgb(255, 255, 255); text-transform: capitalize; white-space: pre; filter: url(#drop-shadow-filter-2);"/>
  <desc>Graphic containing both logo and title for the Zoid Archive</desc>
  <title>Zoid Archive Title Graphic</title>
  <text style="fill: rgb(255, 255, 255); font-family: Poppins; font-size: 77px; font-weight: 200; text-anchor: middle; text-transform: capitalize; white-space: pre; filter: url(#filter-2);" transform="matrix(1, 0, 0, 1, 42.960938, 88.449867)"><tspan x="205.317" y="265.093">Zoid</tspan><tspan x="205.31700134277344" dy="1em">​</tspan><tspan>Archive</tspan></text>
</svg>