<?xml version="1.0" encoding="utf-8"?>
<svg viewBox="-162.007 -114.64 800 800" xmlns="http://www.w3.org/2000/svg" xmlns:xlink="http://www.w3.org/1999/xlink">
  <rect x="-241.616" y="-154.204" width="800" height="800" style="fill: rgb(255, 255, 255);" transform="matrix(1, 0, 0, 1, 169.283066, 39.564079)">
    <title>Waves</title>
  </rect>
  <g transform="matrix(1, 0, 0, 1, 169.283066, 39.564079)">
    <path d="M -241.616 -154.204 L 558.384 -154.204 L 558.384 645.796 L -241.616 645.796 Z" fill="#3D3380" style=""/>
    <path d="M -62.433 551.596 C -171.733 529.796 -260.333 503.966 -400.245 525.301 C -451.173 533.067 -499.433 548.796 -548.433 565.596 L -548.433 645.796 L 295.367 645.796 C 179.467 612.596 64.567 577.696 -52.233 553.596 C -55.633 552.896 -59.033 552.296 -62.433 551.596 Z" fill-opacity="1" style="fill: rgb(57, 95, 153);"/>
    <path d="M 1051.567 -154.204 L -548.433 -154.204 L -548.433 565.596 C -499.433 548.796 -448.933 537.796 -397.733 532.096 C -285.833 519.396 -171.733 529.696 -62.433 551.496 C -59.033 552.196 -55.633 552.896 -52.233 553.496 C 64.567 577.496 179.467 612.496 295.367 645.696 L 1051.567 645.696 L 1051.567 -154.204 Z" fill-opacity="1" style="fill: rgb(62, 102, 162);"/>
    <path d="M -70.033 426.796 C -66.833 427.596 -63.633 428.496 -60.533 429.296 C 135.667 481.796 328.167 562.796 532.967 605.896 C 707.167 642.496 882.467 635.096 1051.567 595.696 L 1051.567 -154.204 L -548.433 -154.204 L -548.433 420.696 C -496.133 403.096 -441.933 392.996 -387.333 389.796 C -280.033 383.196 -172.733 399.996 -70.033 426.796 Z" fill-opacity="1" style="fill: rgb(66, 107, 168);"/>
    <path d="M -548.433 -154.204 L -548.433 275.196 C -492.833 256.796 -434.933 247.896 -377.033 247.496 C -274.233 246.696 -173.833 270.196 -77.733 301.996 C -74.733 302.996 -71.833 303.996 -68.833 304.996 C 114.767 366.996 296.867 451.096 493.567 497.096 C 680.267 540.796 869.867 531.496 1051.467 484.496 L 1051.467 -154.204 L -548.433 -154.204 Z" fill-opacity="1" style="fill: rgb(63, 104, 163);"/>
    <path d="M -366.633 105.196 C -268.433 111.196 -174.733 140.396 -85.333 177.296 C -82.533 178.396 -79.833 179.596 -77.033 180.696 C 93.967 252.296 265.667 339.196 454.267 388.396 C 653.067 440.196 857.667 429.196 1051.567 373.596 L 1051.567 -154.204 L -548.433 -154.204 L -548.433 128.996 C -489.433 109.396 -427.833 101.496 -366.633 105.196 Z" fill-opacity="1" style="fill: rgb(66, 106, 170);"/>
    <path d="M 1051.567 -154.204 L -548.433 -154.204 L -548.433 -17.904 C -486.133 -38.804 -420.733 -45.404 -356.233 -37.104 C -262.633 -25.004 -175.733 10.596 -92.933 52.496 C -90.333 53.796 -87.833 55.096 -85.233 56.396 C 73.167 137.496 234.467 227.296 415.067 279.596 C 625.567 340.596 845.867 328.596 1051.667 262.996 L 1051.667 -154.204 L 1051.567 -154.204 Z" fill-opacity="1" style="fill: rgb(61, 107, 171);"/>
    <path d="M -93.533 -67.904 C 52.267 22.796 203.167 115.096 375.667 170.796 C 584.267 238.196 806.967 231.596 1013.567 165.496 C 1026.367 161.396 1038.967 157.096 1051.667 152.596 L 1051.667 -154.204 L -260.333 -154.204 C -204.333 -132.904 -151.633 -103.604 -100.633 -72.204 C -98.233 -70.804 -95.933 -69.304 -93.533 -67.904 Z" fill-opacity="1" style="fill: rgb(65, 108, 168);"/>
    <path d="M 1051.567 -154.204 L -50.433 -154.204 C 67.667 -68.404 193.067 10.296 336.367 61.996 C 528.167 131.196 736.367 136.696 931.367 83.096 C 972.167 71.896 1012.467 57.896 1051.667 41.396 L 1051.667 -154.204 L 1051.567 -154.204 Z" fill-opacity="1" style="fill: rgb(66, 107, 168);"/>
    <path d="M 849.067 0.596 C 896.267 -10.004 942.667 -24.704 987.667 -43.204 C 1009.367 -52.104 1030.667 -62.004 1051.567 -72.704 L 1051.567 -154.204 L 94.967 -154.204 C 157.867 -112.504 224.667 -76.004 297.067 -46.804 C 471.967 23.896 665.767 41.896 849.067 0.596 Z" fill-opacity="1" style="fill: rgb(62, 102, 162);"/>
    <path d="M 766.867 -81.804 C 842.167 -94.404 915.767 -118.904 983.667 -154.204 L 260.667 -154.204 C 418.367 -83.204 596.267 -53.204 766.867 -81.804 Z" fill-opacity="1" style="fill: rgb(57, 95, 153);"/>
  </g>
  <rect x="-241.616" y="-154.204" width="800" height="800" style="fill: rgb(255, 255, 255); visibility: hidden;" transform="matrix(1, 0, 0, 1, 169.283066, 39.564079)"/>
</svg>
