<?xml version="1.0" encoding="utf-8"?>
<svg viewBox="254.676 167.4 71 54.117" xmlns="http://www.w3.org/2000/svg">
  <title>Discord Logo</title>
  <path d="M 314.78 171.886 C 310.255 169.81 305.402 168.28 300.328 167.404 C 300.236 167.387 300.144 167.429 300.096 167.514 C 299.472 168.624 298.781 170.072 298.297 171.21 C 292.839 170.393 287.41 170.393 282.065 171.21 C 281.581 170.047 280.864 168.624 280.237 167.514 C 280.19 167.432 280.097 167.39 280.005 167.404 C 274.934 168.277 270.081 169.807 265.553 171.886 C 265.514 171.903 265.48 171.931 265.458 171.968 C 256.254 185.719 253.732 199.133 254.969 212.38 C 254.975 212.445 255.011 212.507 255.061 212.546 C 261.134 217.006 267.017 219.713 272.79 221.508 C 272.883 221.536 272.981 221.502 273.039 221.426 C 274.405 219.561 275.623 217.595 276.666 215.527 C 276.728 215.406 276.669 215.262 276.543 215.214 C 274.612 214.482 272.774 213.589 271.005 212.574 C 270.865 212.493 270.854 212.293 270.982 212.197 C 271.355 211.918 271.727 211.628 272.082 211.335 C 272.147 211.281 272.236 211.27 272.312 211.304 C 283.931 216.609 296.511 216.609 307.994 211.304 C 308.069 211.267 308.159 211.278 308.226 211.332 C 308.581 211.625 308.954 211.918 309.329 212.197 C 309.457 212.293 309.449 212.493 309.309 212.574 C 307.54 213.608 305.702 214.482 303.768 215.211 C 303.642 215.259 303.586 215.406 303.647 215.527 C 304.714 217.592 305.931 219.558 307.272 221.424 C 307.328 221.502 307.428 221.536 307.521 221.508 C 313.322 219.713 319.205 217.006 325.278 212.546 C 325.331 212.507 325.364 212.448 325.37 212.383 C 326.85 197.068 322.89 183.764 314.872 171.971 C 314.853 171.931 314.819 171.903 314.78 171.886 Z M 278.402 204.314 C 274.903 204.314 272.021 201.102 272.021 197.158 C 272.021 193.214 274.847 190.002 278.402 190.002 C 281.984 190.002 284.838 193.242 284.782 197.158 C 284.782 201.102 281.956 204.314 278.402 204.314 Z M 301.993 204.314 C 298.495 204.314 295.613 201.102 295.613 197.158 C 295.613 193.214 298.439 190.002 301.993 190.002 C 305.576 190.002 308.43 193.242 308.374 197.158 C 308.374 201.102 305.576 204.314 301.993 204.314 Z" fill="#ffffff"/>
</svg>
