<?xml version="1.0" encoding="utf-8"?>
<svg viewBox="0 0 500 500" xmlns="http://www.w3.org/2000/svg">
  <title>Fiverr Logo</title>
  <path d="M 500 250 C 500 388.071 388.071 500 250 500 C 111.929 500 0 388.071 0 250 C 0 111.929 111.929 0 250 0 C 388.071 0 500 111.929 500 250 Z M 338.609 203.417 L 217.55 203.417 L 217.55 195.484 C 217.55 179.904 233.131 179.609 241.063 179.609 C 250.167 179.609 254.291 180.495 254.291 180.495 L 254.291 137.583 C 247.856 136.781 241.376 136.39 234.892 136.412 C 209.618 136.412 162.887 143.459 162.887 196.951 L 162.887 203.752 L 140.841 203.752 L 140.841 243.425 L 162.887 243.425 L 162.887 327.182 L 142.317 327.182 L 142.317 366.856 L 241.634 366.856 L 241.634 327.143 L 217.531 327.143 L 217.531 243.386 L 283.621 243.386 L 283.621 327.143 L 263.08 327.143 L 263.08 366.816 L 359.189 366.816 L 359.189 327.143 L 338.609 327.143 Z M 310.982 133.184 C 296.376 133.184 284.536 145.024 284.536 159.63 C 284.536 174.235 296.376 186.075 310.982 186.075 C 325.588 186.075 337.428 174.235 337.428 159.63 C 337.428 145.024 325.588 133.184 310.982 133.184 Z" class="a" style="fill: rgb(255, 255, 255);">
    <title>Circle</title>
  </path>
</svg>
