<?xml version="1.0" encoding="utf-8"?>
<svg viewBox="20 0 455.072 500" xmlns="http://www.w3.org/2000/svg">
  <title>Question mark in a speach bubble</title>
  <defs>
    <filter id="drop-shadow-filter-0" x="-500%" y="-500%" width="1000%" height="1000%">
      <feGaussianBlur in="SourceAlpha" stdDeviation="0"/>
      <feOffset dx="10" dy="10"/>
      <feComponentTransfer result="offsetblur">
        <feFuncA id="spread-ctrl" type="linear" slope="1"/>
      </feComponentTransfer>
      <feFlood flood-color="rgba(0,0,0,0.3)"/>
      <feComposite in2="offsetblur" operator="in"/>
      <feMerge>
        <feMergeNode/>
        <feMergeNode in="SourceGraphic"/>
      </feMerge>
    </filter>
  </defs>
  <path d="M 169.117 156.763 C 169.117 164.666 173.066 171.198 180.969 176.365 C 180.665 175.15 180.513 173.63 180.513 171.807 C 180.513 167.551 182.107 163.981 185.299 161.095 C 188.49 158.206 192.518 156.763 197.381 156.763 C 210.753 156.763 217.438 163.449 217.438 176.821 C 217.438 185.635 213.944 193.005 206.953 198.932 C 199.963 204.858 191.301 207.82 180.969 207.82 C 167.596 207.82 156.579 203.337 147.917 194.373 C 139.256 185.406 134.926 173.934 134.926 159.954 C 134.926 134.425 145.79 113.379 167.52 96.817 C 189.25 80.253 217.135 71.971 251.173 71.971 C 284.907 71.971 312.03 79.874 332.545 95.676 C 353.059 111.479 363.316 132.298 363.316 158.13 C 363.316 190.65 347.209 215.114 314.995 231.525 C 309.524 234.261 302.533 237.452 294.025 241.098 C 276.093 248.696 263.861 255.99 257.326 262.981 C 250.793 269.971 253.095 278.982 260.54 284.859 C 267.219 290.13 278.644 303.072 260.54 318.052 C 250.705 326.188 221.66 337.85 210.758 304.397 C 206.237 290.527 215.159 264.196 222.453 253.863 C 231.571 241.402 248.285 228.487 272.598 215.114 C 294.48 203.261 308.612 193.688 314.995 186.394 C 321.377 179.1 324.568 169.224 324.568 156.763 C 324.568 140.048 317.729 126.599 304.054 116.419 C 290.377 106.238 272.295 101.147 249.805 101.147 C 227.011 101.147 207.865 106.541 192.366 117.331 C 176.866 128.12 169.117 141.263 169.117 156.763 Z M 250.38 395.29 C 242.478 395.29 235.717 392.478 230.094 386.858 C 224.472 381.234 221.66 374.473 221.66 366.57 C 221.66 358.668 224.472 351.907 230.094 346.285 C 235.717 340.662 242.478 337.85 250.38 337.85 C 258.283 337.85 264.969 340.662 270.439 346.285 C 275.91 351.907 278.644 358.668 278.644 366.57 C 278.644 374.473 275.91 381.234 270.439 386.858 C 264.969 392.478 258.283 395.29 250.38 395.29 Z M 392.211 383.663 C 433.465 345.032 459.245 290.076 459.245 229.099 C 459.245 112.175 364.459 17.39 247.536 17.39 C 130.612 17.39 35.827 112.175 35.827 229.099 C 35.827 346.023 130.612 440.807 247.536 440.807 C 275.313 440.807 301.842 435.458 326.147 425.733 C 335.797 438.645 349.809 453.22 368.826 463.442 C 410.934 486.076 434.405 482.387 434.405 482.387 C 434.405 482.387 393.054 425.019 392.211 383.663 Z" style="white-space: pre; fill: rgb(255, 255, 255); filter: url(#drop-shadow-filter-0);"/>
</svg>
